<svg width="615" height="350" viewBox="0 0 615 350" fill="none" xmlns="http://www.w3.org/2000/svg">
<path d="M615 252.176C615 361.478 477.328 349.623 307.5 349.623C137.672 349.623 0 361.478 0 252.176C0 142.874 137.672 54.2668 307.5 54.2668C477.328 54.2668 615 142.874 615 252.176Z" fill="#F2F6FF"/>
<path d="M312.6 250.167C311 252.176 303.72 255.812 303.72 255.812L303.94 244.37L312.6 250.167Z" fill="#27314A"/>
<path d="M308.65 247.434L271 249.875C271 249.875 266.06 289.829 272.33 301.914C278.6 314 298.86 317.888 310.47 316.984C322.08 316.079 376.89 316.069 383.14 316.853C389.39 317.637 396 322.097 396 322.097H439.39C434.278 313.603 427.901 305.946 420.48 299.393C408.64 289.146 396.81 290.854 390.32 290.351C383.83 289.849 319.32 277.904 314.32 276.086C309.32 274.267 308.65 247.434 308.65 247.434Z" fill="#FDCFB6"/>
<g style="mix-blend-mode:multiply">
<path d="M308.65 247.434L277.78 249.443L276.78 251.714C276.78 251.714 294.86 255.541 309.01 254.577C308.72 250.468 308.65 247.434 308.65 247.434Z" fill="#FFDFC1"/>
</g>
<path d="M118.13 247.585C123.23 249.976 134.07 255.622 140.9 255.129C147.73 254.637 142.27 239.347 142.27 239.347L118.13 247.585Z" fill="#27314A"/>
<path d="M194.72 147.555C194.72 147.555 158.44 155.592 142.5 167.748C126.56 179.904 118.13 238.433 118.13 247.585C118.13 247.585 125.31 247.906 127.93 247.906L155.7 299.141L153.2 323.905H283.25L276.77 251.673L312.6 250.166C312.6 250.166 299.24 180.014 289.22 171.475C279.2 162.936 242.63 154.246 242.63 154.246L209.63 147.686L194.72 147.555Z" fill="#E8DFCE"/>
<path d="M170.85 247.906H127.93C127.93 247.906 127 283.118 133.27 295.203C139.54 307.289 159.8 311.177 171.42 310.273C183.04 309.369 237.84 309.359 244.09 310.142C250.34 310.926 256.9 315.396 256.9 315.396H300.3C295.194 306.921 288.83 299.279 281.43 292.732C269.59 282.485 257.76 284.193 251.27 283.741C244.78 283.289 180.27 271.294 175.22 269.475C170.17 267.657 170.85 247.906 170.85 247.906Z" fill="#FDCFB6"/>
<path d="M203.08 124.881C203.08 124.881 199.41 141.829 194.72 147.555C194.72 147.555 217.09 170.953 242.63 154.256L242.46 134.636L203.08 124.881Z" fill="#FDCFB6"/>
<path d="M98.55 330.857H523.77C524.979 330.857 526.139 330.374 526.994 329.515C527.85 328.656 528.33 327.491 528.33 326.276C528.327 325.063 527.846 323.9 526.991 323.043C526.136 322.186 524.978 321.705 523.77 321.705H98.55C97.9525 321.705 97.3608 321.823 96.8088 322.053C96.2568 322.283 95.7552 322.619 95.3327 323.044C94.9102 323.468 94.575 323.972 94.3463 324.527C94.1177 325.081 94 325.676 94 326.276C94 327.489 94.4791 328.653 95.3321 329.512C96.1851 330.371 97.3423 330.854 98.55 330.857Z" fill="#27314A"/>
<path d="M197 143.778C219 158.003 242 145.556 242 145.556L231 131.843L203 124.881C203 124.881 200.56 136.525 197 143.778Z" fill="#CE4D4F"/>
<path d="M189.23 148.901C191.049 152.502 193.593 155.684 196.7 158.244C200.7 161.419 205.45 163.348 210.16 165.156C215.16 167.095 220.38 168.431 225.82 167.989C230.951 167.519 235.919 165.935 240.38 163.348C243.84 161.337 247.046 158.915 249.93 156.135L247.75 155.552C242.11 160.645 235.49 164.593 227.86 165.809C222.63 166.623 217.72 165.638 212.79 163.91C208.139 162.453 203.682 160.429 199.52 157.883C195.84 155.451 193.25 152.076 190.84 148.5L189.23 148.901Z" fill="#27314A"/>
<g style="mix-blend-mode:multiply">
<path d="M127.89 254.507C148.64 255.22 170.89 247.906 170.89 247.906H127.93C127.93 247.906 127.86 250.498 127.89 254.507Z" fill="#FFDFC1"/>
</g>
<path d="M295.31 311.679C294.706 310.897 294.245 310.012 293.95 309.067C293.49 308.062 293.01 307.058 292.51 306.134C291.494 304.152 290.355 302.236 289.1 300.397C287.911 298.652 286.573 297.015 285.1 295.505C284.367 294.754 283.589 294.05 282.77 293.395C282.101 292.718 281.237 292.268 280.3 292.109C280.258 292.111 280.218 292.122 280.181 292.141C280.144 292.161 280.111 292.189 280.086 292.222C280.062 292.256 280.044 292.295 280.036 292.336C280.028 292.378 280.03 292.42 280.04 292.461C280.472 293.265 281.089 293.954 281.84 294.47C282.62 295.193 283.39 295.937 284.11 296.73C285.577 298.356 286.896 300.111 288.05 301.974C289.184 303.771 290.212 305.633 291.13 307.55C291.6 308.555 292.05 309.559 292.48 310.564C292.751 311.532 293.232 312.428 293.89 313.186C294.84 314.01 296.28 312.573 295.31 311.679Z" fill="#F58863"/>
<path d="M287 314.08C286.73 313.407 286.44 312.754 286.11 312.071C285.479 310.852 284.76 309.68 283.96 308.565C283.155 307.444 282.262 306.389 281.29 305.41C280.405 304.387 279.287 303.595 278.03 303.1C277.982 303.089 277.932 303.092 277.886 303.108C277.839 303.125 277.799 303.154 277.768 303.193C277.738 303.232 277.719 303.279 277.714 303.328C277.709 303.378 277.718 303.427 277.74 303.471C278.457 304.562 279.289 305.573 280.22 306.485C281.068 307.481 281.85 308.531 282.56 309.63C283.266 310.731 283.891 311.883 284.43 313.076C284.7 313.668 284.96 314.271 285.19 314.874C285.42 315.477 285.63 316.25 286.35 316.491C286.512 316.535 286.684 316.524 286.839 316.46C286.994 316.397 287.125 316.284 287.21 316.14C287.68 315.537 287.28 314.703 287 314.08Z" fill="#F58863"/>
<path d="M276 311.659C275.036 309.931 273.745 308.409 272.2 307.178C271.81 306.907 271.44 307.419 271.61 307.771C272.031 308.614 272.516 309.423 273.06 310.192C273.59 310.976 274.06 311.79 274.57 312.603C275.08 313.417 275.48 314.201 275.9 315.024C276.298 315.911 276.809 316.741 277.42 317.496C277.503 317.576 277.608 317.631 277.721 317.652C277.835 317.673 277.952 317.661 278.058 317.616C278.165 317.571 278.256 317.496 278.32 317.399C278.384 317.303 278.419 317.19 278.42 317.074C278.27 315.105 277.07 313.306 276 311.659Z" fill="#F58863"/>
<path d="M269.32 315.667C268.903 314.559 268.408 313.481 267.84 312.442C267.54 311.88 267.22 311.337 266.84 310.795C266.528 310.201 266.074 309.694 265.52 309.318C265.467 309.286 265.407 309.269 265.345 309.268C265.283 309.267 265.222 309.283 265.168 309.314C265.114 309.344 265.069 309.389 265.038 309.443C265.007 309.496 264.99 309.557 264.99 309.62C265.044 310.18 265.211 310.723 265.48 311.217C265.73 311.749 265.99 312.282 266.26 312.804C266.78 313.809 267.21 314.924 267.72 315.969C267.94 316.411 268.33 317.295 268.96 317.124C269.59 316.953 269.47 316.109 269.32 315.667Z" fill="#F58863"/>
<path d="M239.37 312.061H338.16C339.433 312.061 340.654 312.569 341.554 313.473C342.455 314.378 342.96 315.604 342.96 316.883C342.96 318.162 342.455 319.388 341.554 320.293C340.654 321.197 339.433 321.705 338.16 321.705H239.37C238.097 321.705 236.876 321.197 235.976 320.293C235.076 319.388 234.57 318.162 234.57 316.883C234.57 315.604 235.076 314.378 235.976 313.473C236.876 312.569 238.097 312.061 239.37 312.061Z" fill="#5E7ABA"/>
<path d="M343 316.883C343 315.604 342.495 314.378 341.594 313.473C340.694 312.569 339.473 312.061 338.2 312.061H332.25L331.41 316.029C331.266 316.713 331.275 317.421 331.438 318.101C331.601 318.781 331.912 319.416 332.35 319.96C332.788 320.504 333.341 320.943 333.969 321.245C334.597 321.547 335.284 321.704 335.98 321.705H338.2C339.473 321.705 340.694 321.197 341.594 320.293C342.495 319.388 343 318.162 343 316.883Z" fill="#27314A"/>
<path d="M510.53 217.235H359.4C358.329 217.234 357.289 217.603 356.455 218.28C355.622 218.956 355.045 219.9 354.82 220.952L334.66 316.029C334.516 316.713 334.525 317.421 334.688 318.101C334.851 318.781 335.162 319.417 335.6 319.96C336.038 320.504 336.591 320.943 337.219 321.245C337.847 321.547 338.534 321.704 339.23 321.705H490.37C491.44 321.704 492.477 321.334 493.309 320.658C494.14 319.981 494.716 319.039 494.94 317.988L515.11 222.911C515.255 222.226 515.245 221.518 515.082 220.837C514.919 220.156 514.606 219.52 514.167 218.976C513.728 218.432 513.174 217.994 512.545 217.693C511.916 217.391 511.227 217.235 510.53 217.235Z" fill="#5E7ABA"/>
<path d="M424.88 282.455C432.021 282.455 437.81 276.639 437.81 269.465C437.81 262.291 432.021 256.476 424.88 256.476C417.739 256.476 411.95 262.291 411.95 269.465C411.95 276.639 417.739 282.455 424.88 282.455Z" fill="#B0CFE7"/>
<path d="M315 276.749C314.63 276.608 314.32 276.387 314 276.236C313.68 276.086 313.42 275.965 313.13 275.814C312.492 275.484 311.889 275.091 311.33 274.639C310.785 274.154 310.287 273.619 309.84 273.042C309.39 272.479 309.06 271.826 308.64 271.243C308.604 271.175 308.546 271.122 308.476 271.091C308.406 271.06 308.327 271.054 308.253 271.074C308.179 271.093 308.113 271.138 308.067 271.2C308.022 271.262 307.998 271.337 308 271.414C308.065 272.245 308.33 273.048 308.77 273.755C309.189 274.482 309.727 275.134 310.36 275.684C310.99 276.268 311.709 276.746 312.49 277.1C312.864 277.27 313.252 277.405 313.65 277.502C314.073 277.569 314.503 277.586 314.93 277.552C315.024 277.541 315.111 277.498 315.177 277.43C315.242 277.362 315.283 277.274 315.291 277.179C315.299 277.085 315.275 276.99 315.222 276.912C315.169 276.834 315.091 276.776 315 276.749Z" fill="#F58863"/>
<path d="M176.16 269.425C175.82 269.274 175.52 269.043 175.16 268.923L174.04 268.521C173.329 268.279 172.634 267.99 171.96 267.657C171.298 267.315 170.654 266.939 170.03 266.532C169.435 266.051 168.757 265.683 168.03 265.447C167.996 265.439 167.96 265.44 167.926 265.45C167.893 265.46 167.862 265.479 167.837 265.504C167.812 265.529 167.794 265.56 167.784 265.594C167.774 265.627 167.773 265.663 167.78 265.698C168.05 266.432 168.543 267.061 169.19 267.496C169.812 268.014 170.482 268.472 171.19 268.862C171.903 269.242 172.645 269.561 173.41 269.817C173.809 269.945 174.217 270.042 174.63 270.108C175.048 270.163 175.472 270.163 175.89 270.108C176.29 270.048 176.5 269.586 176.16 269.425Z" fill="#F58863"/>
<path d="M131.48 237.488C131.573 237.505 131.668 237.505 131.76 237.488H145.86C150.09 237.488 154.32 237.579 158.55 237.569C162.841 237.726 167.136 237.663 171.42 237.378C171.42 237.609 171.42 237.83 171.42 238.061C171.3 239.779 171.19 241.507 171.07 243.225C170.95 244.942 170.5 246.952 171.07 248.569C171.11 248.69 171.183 248.797 171.281 248.877C171.379 248.958 171.497 249.009 171.623 249.025C171.748 249.04 171.876 249.02 171.99 248.966C172.105 248.912 172.202 248.827 172.27 248.72C172.97 247.283 172.84 245.505 172.93 243.928L173.26 238.533C173.48 234.93 173.697 231.33 173.91 227.733C174.11 224.137 174.34 220.53 174.49 216.934C174.56 215.206 174.62 213.488 174.69 211.77C174.875 210.027 174.875 208.269 174.69 206.526C174.63 206.235 174.22 206.285 174.15 206.526C173.735 208.17 173.501 209.854 173.45 211.549C173.29 213.347 173.14 215.156 172.98 216.954C172.67 220.47 172.45 223.986 172.2 227.512C171.99 230.416 171.8 233.319 171.6 236.222C167.273 235.928 162.934 235.861 158.6 236.022C154.37 236.022 150.14 236.092 145.91 236.102H131.81C131.721 236.068 131.626 236.051 131.53 236.052C127.7 235.971 123.88 236.052 120.04 236.052C119.906 236.042 119.773 236.077 119.66 236.152C119.548 236.226 119.464 236.336 119.42 236.464C119.367 236.489 119.322 236.529 119.291 236.578C119.26 236.628 119.243 236.686 119.243 236.745C119.243 236.804 119.26 236.861 119.291 236.911C119.322 236.961 119.367 237.001 119.42 237.026C119.465 237.154 119.549 237.264 119.661 237.34C119.773 237.416 119.905 237.454 120.04 237.448C123.83 237.478 127.65 237.579 131.48 237.488Z" fill="#27314A"/>
<path d="M310.39 239.246C305.59 239.698 300.79 240.11 295.98 240.422C292.79 240.623 289.61 240.793 286.42 240.934L281.75 241.135C280.134 241.108 278.519 241.212 276.92 241.446L276.77 241.507V241.035C276.583 237.498 276.386 233.962 276.18 230.426C275.79 223.584 275.67 216.612 274.72 209.831C274.66 209.449 274.09 209.56 274.08 209.912C273.97 213.367 274.21 216.833 274.36 220.289C274.51 223.745 274.69 227.322 274.88 230.898C275.07 234.474 275.24 237.81 275.43 241.266C275.469 244.705 275.699 248.139 276.12 251.553C276.133 251.628 276.164 251.699 276.21 251.759C276.256 251.82 276.315 251.87 276.382 251.904C276.45 251.938 276.525 251.956 276.601 251.956C276.677 251.956 276.752 251.938 276.82 251.904V251.704H277.12C277.182 251.618 277.221 251.518 277.23 251.412C277.306 248.444 277.192 245.475 276.89 242.521C276.89 242.521 276.89 242.521 276.97 242.521C278.494 242.685 280.031 242.709 281.56 242.592C283.2 242.592 284.83 242.521 286.47 242.451C289.66 242.32 292.84 242.15 296.03 241.949C300.95 241.637 305.85 241.246 310.76 240.753C310.6 240.281 310.5 239.769 310.39 239.246Z" fill="#27314A"/>
<path d="M253.191 262.001C251.488 262.347 249.833 262.897 248.261 263.639C246.601 264.241 244.941 264.814 243.261 265.336C232.895 268.554 222.046 269.915 211.211 269.355C207.151 269.144 203.131 268.521 199.091 268.129C198.651 268.079 198.591 268.762 198.991 268.883C205.891 270.892 213.551 271.123 220.691 270.892C228.002 270.61 235.255 269.467 242.301 267.486C244.301 266.914 246.351 266.281 248.301 265.557C250.071 264.904 252.131 264.322 253.581 263.086C253.677 263.005 253.747 262.897 253.78 262.775C253.813 262.653 253.808 262.524 253.765 262.406C253.723 262.287 253.645 262.184 253.542 262.112C253.439 262.039 253.316 262.001 253.191 262.001Z" fill="#27314A"/>
<path d="M257.51 266.492C256.518 266.748 255.563 267.133 254.67 267.637C253.67 268.119 252.75 268.591 251.78 269.043C250.81 269.495 249.87 269.867 248.93 270.299C247.961 270.594 247.069 271.102 246.32 271.786C246.302 271.806 246.289 271.83 246.283 271.856C246.277 271.882 246.277 271.91 246.284 271.936C246.291 271.962 246.304 271.986 246.323 272.005C246.341 272.024 246.364 272.039 246.39 272.047C247.414 272.164 248.45 272 249.39 271.575C250.409 271.237 251.41 270.848 252.39 270.41C253.39 269.998 254.39 269.566 255.31 269.073C256.3 268.623 257.204 268.001 257.98 267.235C258.051 267.162 258.096 267.067 258.106 266.966C258.117 266.864 258.093 266.762 258.039 266.676C257.984 266.59 257.902 266.524 257.806 266.491C257.71 266.458 257.606 266.458 257.51 266.492Z" fill="#27314A"/>
<path d="M200 140.664C200 150.318 209.56 158.154 221.37 158.154C233.16 158.154 242.73 150.318 242.73 140.664V110.837C242.73 101.172 233.16 93.3362 221.37 93.3362C209.56 93.3362 200 101.172 200 110.837V140.664Z" fill="#FDCFB6"/>
<path style="mix-blend-mode:multiply" d="M240.07 102.488C241.761 104.957 242.674 107.88 242.69 110.877V126.8C234.99 133.169 217.08 144.652 199.96 131.341V110.837C200.006 108.567 200.537 106.334 201.517 104.289C202.497 102.244 203.903 100.434 205.64 98.9822L240.07 102.488Z" fill="url(#paint0_linear_4207_7464)"/>
<path style="mix-blend-mode:multiply" d="M240.07 109.32C241.761 111.789 242.674 114.711 242.69 117.708V133.631C234.99 140.001 217.08 151.473 199.96 138.162V117.708C200.006 115.439 200.537 113.206 201.517 111.161C202.497 109.115 203.903 107.306 205.64 105.854L240.07 109.32Z" fill="url(#paint1_linear_4207_7464)"/>
<path d="M259.5 68.1907C259.5 68.1907 263.23 57.0696 271.7 60.6862C280.17 64.3029 281.08 89.6091 261.87 90.7343" fill="#FDCFB6"/>
<path style="mix-blend-mode:multiply" d="M259.5 68.1907C259.5 68.1907 263.23 57.0696 271.7 60.6862C280.17 64.3029 281.08 89.6091 261.87 90.7343" fill="url(#paint2_linear_4207_7464)"/>
<path style="mix-blend-mode:multiply" d="M262.47 70.3406C262.47 70.3406 265.03 62.7056 270.85 65.187C276.67 67.6684 277.3 85.0783 264.1 85.8519" fill="url(#paint3_linear_4207_7464)"/>
<path d="M180.58 76.5292C180.58 76.5292 174.58 66.483 167.09 71.7572C159.6 77.0315 163.92 101.996 182.93 99.0827" fill="#FDCFB6"/>
<path style="mix-blend-mode:multiply" d="M180.58 76.5292C180.58 76.5292 174.58 66.483 167.09 71.7572C159.6 77.0315 163.92 101.996 182.93 99.0827" fill="url(#paint4_linear_4207_7464)"/>
<path style="mix-blend-mode:multiply" d="M178.22 79.1009C178.22 79.1009 174.06 72.0686 168.78 75.7455C163.5 79.4224 166.55 96.9428 179.87 94.9035" fill="url(#paint5_linear_4207_7464)"/>
<path d="M178.29 94.7529C182.03 130.537 212.29 136.605 227.74 134.937C242.85 133.34 271.9 124.65 267.74 85.2492L263.5 44.7733C262.241 32.8577 256.323 21.9319 247.049 14.3969C237.775 6.86189 225.902 3.33409 214.04 4.58872C202.183 5.85681 191.312 11.8008 183.814 21.1154C176.316 30.4299 172.804 42.3533 174.05 54.2669L178.29 94.7529Z" fill="#FDCFB6"/>
<path d="M177 82.5366C183.488 89.2705 190.792 95.16 198.74 100.067C198.74 100.067 215.05 87.6501 236.35 88.2629C238.918 87.9167 241.361 86.9365 243.46 85.4098C243.46 85.4098 258.09 84.2344 268.11 90.7343C268.11 90.7343 285.51 121.938 261.25 138.082C236.99 154.226 162.38 164.302 177 82.5366Z" fill="#D66525"/>
<path d="M226.78 80.3868C227.03 81.954 226.35 83.4006 225.29 83.5413C224.23 83.6819 223.15 82.5366 222.91 80.9895C222.67 79.4424 223.36 77.9757 224.43 77.835C225.5 77.6944 226.56 78.7995 226.78 80.3868Z" fill="#54443D"/>
<path d="M252 75.4842C252.22 76.9308 251.61 78.2067 250.63 78.3674C249.65 78.5282 248.7 77.4834 248.48 76.0468C248.26 74.6102 248.87 73.3243 249.85 73.1635C250.83 73.0028 251.75 74.0476 252 75.4842Z" fill="#54443D"/>
<path d="M218.271 70.19C218.522 70.1887 218.767 70.11 218.973 69.9645C219.178 69.819 219.335 69.6137 219.421 69.3762C219.771 68.3716 221.131 65.7395 223.051 65.0966C223.583 64.9446 224.143 64.9218 224.685 65.0301C225.228 65.1384 225.737 65.3747 226.171 65.7194C226.307 65.8076 226.46 65.8675 226.62 65.8955C226.78 65.9236 226.944 65.9192 227.103 65.8827C227.261 65.8462 227.41 65.7783 227.542 65.683C227.674 65.5877 227.786 65.4669 227.871 65.3276C228.046 65.0465 228.105 64.7077 228.036 64.3833C227.967 64.0588 227.775 63.7741 227.501 63.5896C226.756 63.0416 225.895 62.6762 224.985 62.5227C224.075 62.3692 223.142 62.4318 222.261 62.7056C218.851 63.8709 217.181 68.3013 217.111 68.4922C216.993 68.8026 217.003 69.1471 217.138 69.4502C217.273 69.7533 217.522 69.9904 217.831 70.1096C217.97 70.1661 218.12 70.1934 218.271 70.19Z" fill="#D66525"/>
<path d="M253.37 64.6444C253.65 64.6463 253.923 64.5504 254.14 64.3731C254.395 64.1613 254.557 63.857 254.591 63.5262C254.625 63.1953 254.528 62.8644 254.32 62.605C252.61 60.415 250.81 59.3702 249.03 59.4304C248.294 59.4956 247.581 59.724 246.943 60.0992C246.305 60.4744 245.757 60.9871 245.34 61.6004C245.16 61.8784 245.096 62.2163 245.162 62.5413C245.227 62.8663 245.417 63.1525 245.69 63.3384C245.96 63.5195 246.29 63.5862 246.608 63.5241C246.927 63.462 247.208 63.2761 247.39 63.0069C247.594 62.7165 247.856 62.4718 248.159 62.2885C248.462 62.1051 248.799 61.9871 249.15 61.942C250.15 61.942 251.24 62.6854 252.41 64.1722C252.524 64.3195 252.669 64.4387 252.836 64.5206C253.002 64.6024 253.185 64.6448 253.37 64.6444Z" fill="#D66525"/>
<path d="M237.27 89.9004C237.356 89.915 237.444 89.915 237.53 89.9004C238.07 89.7397 242.92 88.2227 244.4 85.8217L244.69 85.3595L244.43 84.8673C244.43 84.8673 241.66 79.5629 241.11 75.9664C241.095 75.8429 241.056 75.7238 240.994 75.6161C240.932 75.5085 240.849 75.4146 240.75 75.3404C240.651 75.2661 240.537 75.2129 240.417 75.1841C240.297 75.1553 240.172 75.1514 240.05 75.1728C239.812 75.2279 239.602 75.3687 239.46 75.5685C239.318 75.7684 239.254 76.0136 239.28 76.2577C239.964 79.376 241.057 82.3894 242.53 85.2189C241.27 86.5751 238.19 87.7304 237.01 88.0921C236.795 88.1572 236.61 88.2975 236.489 88.4876C236.368 88.6777 236.319 88.905 236.35 89.1284C236.381 89.3519 236.492 89.5566 236.66 89.7056C236.829 89.8546 237.045 89.9379 237.27 89.9406V89.9004Z" fill="#F58863"/>
<path d="M259.5 29.0912C259.5 29.0912 251.73 7.04992 232.34 1.57477C212.95 -3.90038 189.19 5.92475 180.81 15.338C172.43 24.7512 172.54 47.5961 174.32 56.8788L207.13 47.556C207.13 47.556 231.3 25.5348 259.5 29.0912Z" fill="#7992FC"/>
<path d="M230.94 2.21769C218.94 -1.15781 205.19 1.34368 194.51 5.9649C205.38 0.941834 219.76 -1.95145 232.34 1.57474C251.73 7.04989 259.5 29.0911 259.5 29.0911C258.93 29.0208 258.38 29.0208 257.81 28.9605C256.27 25.1329 248.23 7.04989 230.94 2.21769Z" fill="#C1CFFA"/>
<path d="M225.9 35.4202C219.139 38.6178 212.828 42.6983 207.13 47.5559L206.13 47.8271C212.134 42.8159 218.784 38.6425 225.9 35.4202Z" fill="#C1CFFA"/>
<path style="mix-blend-mode:multiply" opacity="0.5" d="M180.81 15.3381C184.262 11.7819 188.328 8.88516 192.81 6.78882C169.81 20.2607 186.17 61.3394 206.71 40.7046C228.92 18.4022 257.55 24.6308 257.55 24.6308C258.27 26.0774 258.81 27.2629 259.13 28.0565L258.97 29.0611C231 25.8765 207.13 47.5561 207.13 47.5561L174.32 56.8789C172.54 47.5962 172.43 24.7413 180.81 15.3381Z" fill="url(#paint6_linear_4207_7464)"/>
<path d="M286.83 44.7431L263.34 43.3065C263.34 43.3065 256.6 29.4228 240.52 30.4173C240.52 30.4173 266.05 22.6316 286.83 44.7431Z" fill="#587DF2"/>
<path d="M288.93 42.8141L286.83 44.743C286.83 44.743 268.32 29.6738 250.68 29.6738C233.04 29.6738 207.88 48.0984 207.88 48.0984C207.88 48.0984 192.45 51.2529 174.32 56.8787C174.32 56.8787 190.94 51.4136 207.01 47.0234C207.01 47.0234 229.19 28.5988 250.68 27.7248C272.17 26.8508 288.93 42.8141 288.93 42.8141Z" fill="#7992FC"/>
<path d="M177 82.5365C177 82.5365 183.08 77.202 187.8 58.6066C187.8 58.6066 204.61 69.3158 216.03 49.3039C216.03 49.3039 265.45 66.1513 268.63 52.4684C271.81 38.7856 257.19 28.0563 243.85 30.4272C243.85 30.4272 227.62 33.6922 207.85 48.0782C207.85 48.0782 183.85 53.3826 174.29 56.8787C174.295 65.5031 175.203 74.1031 177 82.5365Z" fill="#D66525"/>
<g style="mix-blend-mode:multiply" opacity="0.6">
<path d="M193.55 51.454C201.23 49.5552 207.88 48.0785 207.88 48.0785C227.62 33.6924 243.88 30.4274 243.88 30.4274C249.263 29.5398 254.785 30.5817 259.48 33.3709C250.66 33.3709 230.08 35.0988 217.71 49.8466C216.66 49.5151 216.06 49.3041 216.06 49.3041C215.58 50.148 215.06 50.9215 214.58 51.6549L174.32 56.8789C174.32 56.8789 183.43 54.1664 193.55 51.454Z" fill="#F58863"/>
</g>
<g style="mix-blend-mode:multiply" opacity="0.6">
<path d="M177 82.5366L178.33 83.9029C178.031 86.1679 177.874 88.4495 177.86 90.7343C177.86 120.802 201.75 145.184 231.22 145.184C238.909 145.172 246.502 143.474 253.471 140.211C260.44 136.947 266.616 132.195 271.57 126.288C269.312 131.12 265.733 135.207 261.25 138.072C237 154.206 162.38 164.302 177 82.5366Z" fill="#F58863"/>
</g>
<path d="M313.576 88.2438C314.282 82.0473 321.358 81.3519 322.227 78.189C322.703 76.4532 321.741 75.2735 320.161 74.8355C318.581 74.3975 317.24 74.8977 315.717 75.7623L312.893 71.244C315.68 69.4014 319.054 68.5933 322.524 69.5547C327.342 70.8899 330.418 74.1912 328.945 79.5528C327.473 84.9143 320.447 84.6691 319.551 89.8995L313.576 88.2438ZM313.536 100.021C311.146 99.3586 309.969 96.9985 310.626 94.607C311.282 92.2155 313.487 90.8341 315.877 91.4964C318.228 92.148 319.454 94.4802 318.798 96.8716C318.141 99.2631 315.887 100.672 313.536 100.021Z" fill="#9AB6DB"/>
<defs>
<linearGradient id="paint0_linear_4207_7464" x1="221.32" y1="168.803" x2="221.32" y2="78.478" gradientUnits="userSpaceOnUse">
<stop stop-color="white" stop-opacity="0"/>
<stop offset="1" stop-color="#EDB9A9"/>
</linearGradient>
<linearGradient id="paint1_linear_4207_7464" x1="221.32" y1="175.674" x2="221.32" y2="85.3395" gradientUnits="userSpaceOnUse">
<stop stop-color="white" stop-opacity="0"/>
<stop offset="1" stop-color="#EDB9A9"/>
</linearGradient>
<linearGradient id="paint2_linear_4207_7464" x1="287.062" y1="63.4276" x2="271.433" y2="59.2115" gradientUnits="userSpaceOnUse">
<stop stop-color="white" stop-opacity="0"/>
<stop offset="1" stop-color="#EDB9A9"/>
</linearGradient>
<linearGradient id="paint3_linear_4207_7464" x1="285.919" y1="62.7097" x2="275.167" y2="59.8063" gradientUnits="userSpaceOnUse">
<stop stop-color="white" stop-opacity="0"/>
<stop offset="1" stop-color="#EDB9A9"/>
</linearGradient>
<linearGradient id="paint4_linear_4207_7464" x1="141.76" y1="118.608" x2="156.254" y2="111.356" gradientUnits="userSpaceOnUse">
<stop stop-color="white" stop-opacity="0"/>
<stop offset="1" stop-color="#EDB9A9"/>
</linearGradient>
<linearGradient id="paint5_linear_4207_7464" x1="142.7" y1="117.708" x2="152.845" y2="112.629" gradientUnits="userSpaceOnUse">
<stop stop-color="white" stop-opacity="0"/>
<stop offset="1" stop-color="#EDB9A9"/>
</linearGradient>
<linearGradient id="paint6_linear_4207_7464" x1="271.23" y1="-95.4307" x2="197.304" y2="70.6713" gradientUnits="userSpaceOnUse">
<stop stop-color="white" stop-opacity="0"/>
<stop offset="1" stop-color="#B7C2E0"/>
</linearGradient>
</defs>
</svg>
