<svg width="416" height="358" viewBox="0 0 416 358" fill="none" xmlns="http://www.w3.org/2000/svg">
<path opacity="0.5" d="M0.0543915 177.409C3.06634 81.2884 106.763 0.66284 198.728 6.27656C282.661 11.3747 367.425 75.016 402.077 150.543C429.644 210.49 416.42 279 361.115 318.239C277.297 377.784 249.874 269.233 178.304 260.67C120.934 253.824 28.0224 299.679 5.30378 219.168C1.42851 205.598 -0.341823 191.515 0.0543915 177.409Z" fill="white"/>
<path d="M354.368 91.9999H241.302C264.342 50.5457 266.538 6.62637 266.538 6.62637C266.538 6.62637 271.172 0.926765 292.487 0.139015C294.128 0 295.907 0 297.835 0C299.763 0 301.449 0 303.099 0.0926765H303.247C322.561 0.778482 327.806 5.11574 328.891 6.32054C329.021 6.46882 329.085 6.56149 329.113 6.59856C329.113 6.59856 329.113 6.73758 329.113 6.99707C329.113 7.25657 329.113 7.28437 329.113 7.46972C329.113 7.65508 329.113 7.77556 329.113 7.96091C329.113 8.14626 329.113 8.17406 329.113 8.29454C329.109 8.38407 329.109 8.47378 329.113 8.56331C329.113 8.69305 329.113 8.83207 329.113 8.98035C329.113 9.27691 329.169 9.61055 329.197 9.96272C329.197 10.1666 329.197 10.3705 329.261 10.5837C329.326 10.7968 329.326 11.2787 329.363 11.6494C329.363 11.8719 329.41 12.1035 329.438 12.3445C329.521 13.1323 329.623 13.9849 329.734 14.9209C329.734 15.0692 329.734 15.2267 329.799 15.3843C329.864 15.5418 329.799 15.7828 329.873 15.9867L329.984 16.8671C330.059 17.4232 330.142 17.9978 330.225 18.5909C330.309 19.184 330.438 20.083 330.559 20.8707C330.559 21.0654 330.624 21.26 330.652 21.4639C330.763 22.196 330.893 22.9467 331.013 23.7159C331.096 24.2164 331.18 24.7168 331.273 25.2358C331.449 26.246 331.634 27.284 331.838 28.359C331.838 28.4609 331.838 28.5722 331.903 28.6834C331.986 29.1375 332.07 29.6101 332.162 30.055L332.301 30.7686C332.647 32.4677 333.018 34.2285 333.413 36.0511C333.534 36.5701 333.654 37.0891 333.775 37.6266C333.83 37.8861 333.895 38.1549 333.96 38.4237C334.081 38.9519 334.21 39.4894 334.34 40.0362C334.47 40.583 334.6 41.1206 334.739 41.6766C335.082 43.0575 335.443 44.4569 335.832 45.8841C335.906 46.1714 335.981 46.4587 336.064 46.746C336.147 47.0333 336.221 47.3206 336.296 47.6079L336.407 47.9879C336.694 49.0166 336.991 50.0638 337.334 51.1203C337.417 51.4169 337.51 51.7135 337.593 52.0471C338.121 53.8265 338.687 55.643 339.289 57.4779L339.901 59.3315L340.216 60.2582C340.318 60.5733 340.429 60.8792 340.54 61.185C340.651 61.4908 340.753 61.8059 340.865 62.1118L341.198 63.0385L341.532 63.9653C341.764 64.5955 341.986 65.2257 342.227 65.8188C342.347 66.1339 342.468 66.449 342.579 66.7456C342.69 67.0422 342.792 67.2924 342.894 67.5704C342.996 67.8484 343.172 68.2933 343.311 68.6547C343.45 69.0162 343.561 69.2942 343.691 69.5815C343.821 69.8688 343.941 70.221 344.071 70.5083L344.46 71.435C344.59 71.7594 344.72 72.0745 344.859 72.3618C344.998 72.6491 345.118 73.0013 345.257 73.2886C345.656 74.2153 346.073 75.2255 346.499 76.1893L346.926 77.1161C347.074 77.4405 347.213 77.7648 347.361 78.0429L347.695 78.7843C348.622 80.851 349.632 82.9362 350.679 85.0121L351.606 86.8101C352.301 88.1446 353.005 89.4791 353.737 90.8137L354.368 91.9999Z" fill="url(#paint0_linear_4210_9884)"/>
<path d="M354.368 91.9999C354.368 95.707 329.058 98.6355 297.835 98.6355C266.612 98.6355 241.302 95.6606 241.302 91.9999C241.302 88.3392 266.612 85.3735 297.835 85.3735C329.058 85.3735 354.368 88.3392 354.368 91.9999Z" fill="url(#paint1_linear_4210_9884)"/>
<path d="M354.368 91.9998L353.886 91.1379C354.023 91.2386 354.137 91.3676 354.221 91.5164C354.304 91.6651 354.354 91.83 354.368 91.9998Z" fill="url(#paint2_linear_4210_9884)"/>
<path d="M348.288 92.3245C348.288 93.5756 343.515 94.7155 335.665 95.5774C328.891 96.3188 319.818 96.8656 309.512 97.1066H307.918C305.536 97.1529 303.09 97.1807 300.597 97.19H294.99C278.984 97.1066 264.962 96.2632 256.344 95.0955C250.644 94.2985 247.298 93.3346 247.298 92.3152C247.298 89.7017 268.41 87.5516 294.99 87.4126H300.615C303.108 87.4126 305.555 87.4126 307.937 87.5053H309.531C331.745 88.0428 348.288 90.0075 348.288 92.3245Z" fill="url(#paint3_linear_4210_9884)"/>
<path d="M300.615 87.4219V307.389H295.008V87.4219H300.615Z" fill="url(#paint4_linear_4210_9884)"/>
<path d="M311.273 118.626C311.19 121.23 309.799 121.406 308.697 121.406C308.328 121.458 307.952 121.42 307.601 121.296C307.25 121.171 306.935 120.963 306.681 120.69C306.428 120.417 306.245 120.086 306.147 119.727C306.05 119.367 306.04 118.99 306.12 118.626C306.16 117.476 306.438 116.346 306.936 115.308C307.432 114.171 308.021 113.077 308.697 112.037C308.697 112.037 311.366 116.012 311.273 118.626Z" fill="url(#paint5_linear_4210_9884)"/>
<path d="M309.493 87.5515V113.343C309.278 113.478 309.023 113.537 308.771 113.51H308.669C308.401 113.518 308.137 113.457 307.899 113.334V87.5144L309.493 87.5515Z" fill="url(#paint6_linear_4210_9884)"/>
<path d="M310.532 113.399C310.448 114.011 309.531 114.215 308.863 114.242H308.697C308.02 114.242 306.973 114.029 306.908 113.316C306.897 113.234 306.907 113.15 306.936 113.073C306.965 112.995 307.013 112.926 307.075 112.871C307.316 112.701 307.604 112.61 307.899 112.611C307.899 112.611 307.899 112.945 308.724 112.954C309.549 112.964 309.494 112.611 309.494 112.611C309.494 112.611 310.624 112.732 310.532 113.399Z" fill="url(#paint7_linear_4210_9884)"/>
<path d="M303.609 107.866C303.607 108.517 303.347 109.14 302.887 109.6C302.427 110.06 301.804 110.32 301.153 110.322H294.434C294.111 110.323 293.791 110.261 293.493 110.138C293.194 110.015 292.923 109.834 292.695 109.605C292.466 109.377 292.285 109.106 292.163 108.807C292.04 108.509 291.977 108.189 291.978 107.866C291.976 107.426 292.095 106.993 292.321 106.615C292.423 106.439 292.548 106.277 292.692 106.133C292.92 105.903 293.191 105.721 293.49 105.597C293.789 105.473 294.11 105.409 294.434 105.41H301.153C301.804 105.41 302.429 105.669 302.89 106.129C303.35 106.59 303.609 107.215 303.609 107.866Z" fill="url(#paint8_linear_4210_9884)"/>
<path style="mix-blend-mode:multiply" opacity="0.4" d="M354.368 91.9999C354.368 93.9554 347.167 95.707 335.712 96.921C326.333 97.9127 314.109 98.5429 300.634 98.6263V87.4217H295.027V98.6263C281.953 98.6556 268.888 97.9284 255.899 96.4484C248.753 95.5216 243.804 94.3539 241.997 93.0657C241.799 92.9588 241.63 92.8064 241.503 92.6211C241.375 92.4358 241.294 92.2229 241.265 91.9999C241.266 91.8956 241.285 91.7922 241.321 91.6941C242.692 88.1724 267.455 85.3735 297.798 85.3735C329.02 85.3735 354.368 88.3392 354.368 91.9999Z" fill="url(#paint9_linear_4210_9884)"/>
<path style="mix-blend-mode:multiply" opacity="0.4" d="M354.368 91.9998L353.886 91.1379C354.023 91.2386 354.137 91.3676 354.221 91.5164C354.304 91.6651 354.354 91.83 354.368 91.9998Z" fill="url(#paint10_linear_4210_9884)"/>
<path style="mix-blend-mode:multiply" opacity="0.4" d="M348.288 92.3242C348.288 93.5754 343.515 94.7153 335.665 95.5772C335.533 94.9049 335.261 94.268 334.866 93.7076C334.472 93.1473 333.964 92.676 333.376 92.3242C330.318 90.2112 309.651 88.3484 303.08 92.3242C301.357 93.3715 300.597 97.8292 300.597 97.8292C299.67 96.5503 298.743 95.605 297.816 95.5772C296.89 95.5494 295.861 96.4391 295.036 97.6624C295.036 97.6624 293.998 92.2501 292.024 91.5643C285.157 89.2011 264.759 90.758 259.43 92.7876C258.173 93.1879 257.096 94.018 256.39 95.1323C250.69 94.3353 247.345 93.3715 247.345 92.352C247.345 89.7386 268.456 87.5885 295.036 87.4495H300.615C303.108 87.4495 305.555 87.4495 307.937 87.5421H309.531C331.745 88.0426 348.288 90.0073 348.288 92.3242Z" fill="url(#paint11_linear_4210_9884)"/>
<path style="mix-blend-mode:multiply" opacity="0.4" d="M300.615 87.4219V97.8294C299.689 96.5505 298.762 95.6052 297.835 95.5774C296.908 95.5496 295.88 96.4393 295.055 97.6626V87.4682H300.615V87.4219Z" fill="url(#paint12_linear_4210_9884)"/>
<path style="mix-blend-mode:multiply" opacity="0.4" d="M309.493 87.5515V98.2834C309.215 97.9776 308.947 97.8015 308.696 97.8293C308.446 97.8571 308.131 98.1722 307.899 98.617V87.4958L309.493 87.5515Z" fill="url(#paint13_linear_4210_9884)"/>
<path style="mix-blend-mode:multiply" opacity="0.4" d="M311.273 118.626C311.19 121.23 309.8 121.406 308.697 121.406C308.13 121.445 307.565 121.312 307.075 121.026C310.031 121.026 310.189 115.985 308.382 115.308C307.915 115.136 307.403 115.136 306.936 115.308C307.121 114.863 307.325 114.437 307.529 114.048C307.901 114.194 308.298 114.266 308.697 114.261C309.097 114.263 309.495 114.197 309.874 114.066C310.685 115.458 311.164 117.018 311.273 118.626Z" fill="url(#paint14_linear_4210_9884)"/>
<path style="mix-blend-mode:multiply" opacity="0.4" d="M310.532 113.399C310.448 114.01 309.531 114.214 308.863 114.242C308.908 114.153 308.932 114.055 308.932 113.955C308.932 113.855 308.908 113.757 308.863 113.668C308.837 113.608 308.799 113.555 308.752 113.51C308.497 113.295 308.2 113.134 307.881 113.037C307.617 112.942 307.337 112.895 307.056 112.898C307.297 112.728 307.586 112.637 307.881 112.639V112.138C308.109 112.318 308.388 112.418 308.678 112.426C308.961 112.416 309.237 112.33 309.475 112.175V112.63C309.475 112.63 310.624 112.732 310.532 113.399Z" fill="url(#paint15_linear_4210_9884)"/>
<path style="mix-blend-mode:multiply" opacity="0.4" d="M303.609 107.866C303.606 108.517 303.347 109.14 302.887 109.6C302.427 110.06 301.804 110.32 301.153 110.322H300.615V114.817C299.809 113.204 298.827 111.879 297.835 111.823C297.275 111.861 296.731 112.03 296.248 112.316C295.765 112.603 295.356 112.999 295.055 113.473V110.285H294.656L295.055 110.155C296.371 109.692 297.622 108.96 297.594 107.829C297.594 107.032 296.445 106.328 295.055 106.17C294.145 106.059 293.221 106.2 292.386 106.578C292.488 106.402 292.613 106.24 292.756 106.096C292.985 105.866 293.256 105.684 293.555 105.56C293.854 105.436 294.175 105.372 294.499 105.373H295.055V102.908C295.362 103.317 295.75 103.658 296.195 103.91C296.64 104.162 297.132 104.32 297.641 104.372C298.219 104.372 298.79 104.235 299.306 103.975C299.823 103.714 300.271 103.336 300.615 102.871V105.392H301.171C301.494 105.394 301.813 105.46 302.11 105.586C302.407 105.711 302.676 105.894 302.903 106.124C303.129 106.354 303.308 106.626 303.429 106.925C303.55 107.224 303.611 107.544 303.609 107.866Z" fill="url(#paint16_linear_4210_9884)"/>
<path style="mix-blend-mode:multiply" opacity="0.4" d="M300.615 153.843V171.452L295.008 174.028V161.387C295.188 161.579 295.407 161.731 295.65 161.832C295.893 161.933 296.154 161.981 296.417 161.973C296.68 161.965 296.939 161.901 297.175 161.786C297.412 161.671 297.621 161.506 297.789 161.303C298.929 160.099 299.874 157.068 300.615 153.843Z" fill="url(#paint17_linear_4210_9884)"/>
<path style="mix-blend-mode:multiply" opacity="0.4" d="M300.615 110.285V111.471C299.747 111.053 298.798 110.829 297.835 110.813C296.878 110.823 295.933 111.025 295.055 111.406V110.285H300.615Z" fill="url(#paint18_linear_4210_9884)"/>
<path d="M261.858 189.625L259.328 306.741L149.887 322.616L119.313 327.055L87.1816 317.992L50.4076 307.621L44.6709 187.92L261.858 189.625Z" fill="url(#paint19_linear_4210_9884)"/>
<path d="M44.6709 187.92L116.866 198.096L261.858 189.625L191.665 181.813L44.6709 187.92Z" fill="url(#paint20_linear_4210_9884)"/>
<path d="M44.671 187.92L37.748 163.361L181.953 160.099L191.665 181.813L44.671 187.92Z" fill="url(#paint21_linear_4210_9884)"/>
<path d="M44.6707 187.92L30 212.609L98.4972 226.501L116.319 198.022L44.6707 187.92Z" fill="url(#paint22_linear_4210_9884)"/>
<path d="M261.858 189.625H261.756L116.866 198.096L106.134 169.876L250.996 162.897L261.858 189.625Z" fill="url(#paint23_linear_4210_9884)"/>
<path d="M173.611 166.623L186.095 194.055L186.15 317.352L207.827 314.21V192.712L195.807 165.557L173.611 166.623Z" fill="#EDA05A"/>
<path d="M68.7109 220.459L71.3893 313.534L90.2397 318.853L88.8681 224.546L68.7109 220.459Z" fill="#EDA05A"/>
<path d="M30.4912 214.481L30 212.609L98.4972 226.501L116.05 197.976L116.866 198.096L99.5537 229.671L30.4912 214.481Z" fill="url(#paint24_linear_4210_9884)"/>
<path d="M45.8385 187.874L37.7478 163.361L36.5986 164.343L44.6708 187.92L45.8385 187.874Z" fill="url(#paint25_linear_4210_9884)"/>
<path d="M116.866 198.096C116.689 197.596 106.134 169.876 106.134 169.876L105.003 170.506L116.319 198.022L116.866 198.096Z" fill="url(#paint26_linear_4210_9884)"/>
<path d="M131.518 282.2V315.202L148.2 312.644V280.031L131.518 282.2Z" fill="#FFE9CA"/>
<path style="mix-blend-mode:multiply" opacity="0.4" d="M119.312 327.055L116.866 198.096L261.858 189.625L259.328 306.741L119.312 327.055Z" fill="url(#paint27_linear_4210_9884)" fill-opacity="0.2"/>
<path style="mix-blend-mode:multiply" opacity="0.4" d="M46.9874 236.186L100.99 251.125L116.865 198.096L116.319 198.022L98.4969 226.501L99.5535 229.671L46.1069 217.91L46.9874 236.186Z" fill="url(#paint28_linear_4210_9884)"/>
<path style="mix-blend-mode:multiply" opacity="0.4" d="M105.003 170.506L110.935 185.483L45.8387 187.874L37.748 163.361L181.953 160.099L184.631 166.095L106.171 169.876H106.143H106.134L105.003 170.506Z" fill="url(#paint29_linear_4210_9884)"/>
<path style="mix-blend-mode:multiply" opacity="0.4" d="M261.858 189.625H261.756L156.68 195.761C164.928 184.38 178.839 171.331 196.864 165.492L250.997 162.888L261.858 189.625Z" fill="url(#paint30_linear_4210_9884)"/>
<path style="mix-blend-mode:multiply" opacity="0.4" d="M173.129 166.651L185.289 194.102L185.344 317.473L186.966 317.241L186.846 193.99L173.769 166.614L173.129 166.651Z" fill="url(#paint31_linear_4210_9884)"/>
<path style="mix-blend-mode:multiply" opacity="0.4" d="M89.6556 318.687L88.0894 227.15L89.7946 227.53L91.2218 319.131L89.6556 318.687Z" fill="url(#paint32_linear_4210_9884)"/>
<path style="mix-blend-mode:screen" opacity="0.2" d="M38.7763 207.206C44.4944 214.24 87.8948 224.889 95.5313 221.339C103.168 217.79 113.409 200.125 101.472 199.551C86.1803 198.809 31.4826 198.235 38.7763 207.206Z" fill="url(#paint33_linear_4210_9884)"/>
<path style="mix-blend-mode:screen" opacity="0.3" d="M78.3584 315.591L85.6428 317.63C81.5743 316.648 78.6364 315.684 78.3584 315.591Z" fill="url(#paint34_linear_4210_9884)"/>
<path d="M195.743 247.734L200.506 340.521L292.024 358L354.312 335.758V242.015L195.743 247.734Z" fill="url(#paint35_linear_4210_9884)"/>
<path d="M195.743 247.734L290.977 257.928L354.312 242.015L269.708 233.517L195.743 247.734Z" fill="#FFD797"/>
<path d="M322.728 347.036L318.252 251.07L228.735 241.395L245.779 238.114L333.089 247.344L335.675 342.421L322.728 347.036Z" fill="#EDA05A"/>
<path d="M231.191 346.388L225.677 250.94L296.325 236.186L314.999 238.114L246.159 253.127L248.883 349.761L231.191 346.388Z" fill="#EDA05A"/>
<path d="M256.881 261.811V272.691L285.518 276.463V264.258L256.881 261.811Z" fill="#FFE9CA"/>
<path d="M300.068 320.494C300.133 321.467 302.515 342.412 302.515 342.412L314.999 340.206L314.396 318.288L300.068 320.494Z" fill="#FFE9CA"/>
<path d="M294.99 334.562L297.789 350.308L307.538 346.805L305.889 330.355L294.99 334.562Z" fill="#FFE461"/>
<path style="mix-blend-mode:multiply" opacity="0.4" d="M290.977 257.928L292.024 358L354.312 335.758V242.015L319.846 238.549V248.873L242.09 252.701L290.977 257.928Z" fill="url(#paint36_linear_4210_9884)" fill-opacity="0.5"/>
<path style="mix-blend-mode:multiply" opacity="0.4" d="M304.072 249.633L317.798 251.218L322.265 347.194L323.386 346.768L318.687 250.94L306.296 249.531L304.072 249.633Z" fill="url(#paint37_linear_4210_9884)"/>
<path style="mix-blend-mode:multiply" opacity="0.4" d="M250.561 252.275L246.307 253.146L249.782 349.928L248.022 349.594L245.76 253.09L248.772 252.367L250.561 252.275Z" fill="url(#paint38_linear_4210_9884)"/>
<path style="mix-blend-mode:screen" opacity="0.3" d="M259.346 254.564C259.819 254.61 281.857 257.149 286.612 263.247C291.069 268.966 291.607 318.288 291.607 318.288C291.607 318.288 292.413 265.388 294.99 261.811C298.103 257.483 313.868 252.173 313.868 252.173C313.868 252.173 297.483 255.88 290.282 256.158C283.081 256.436 259.346 254.564 259.346 254.564Z" fill="url(#paint39_linear_4210_9884)"/>
<path style="mix-blend-mode:screen" opacity="0.3" d="M291.728 329.53C291.728 329.919 290.931 350.104 287.937 352.569C284.944 355.034 266.677 353.162 266.677 353.162L292.024 358L307.538 352.439C307.538 352.439 296.955 354.367 294.99 351.633C293.025 348.899 291.728 329.53 291.728 329.53Z" fill="url(#paint40_linear_4210_9884)"/>
<path style="mix-blend-mode:screen" opacity="0.2" d="M225.677 250.94L245.76 253.09L245.871 257.724C245.871 257.724 239.977 253.804 235.408 253.294C230.839 252.784 225.918 255.046 225.918 255.046L225.677 250.94Z" fill="url(#paint41_linear_4210_9884)"/>
<path d="M299.327 195.01L313.312 191.544L337.185 192.396L319.846 197.633L299.327 195.01Z" fill="url(#paint42_linear_4210_9884)"/>
<path d="M345.202 179.032C344.711 179.412 343.571 180.098 341.949 181.09C341.291 181.488 340.559 181.933 339.762 182.434C338.622 183.147 337.352 183.954 335.981 184.853L333.979 186.215C326.453 191.252 319.55 197.163 313.414 203.823C307.29 210.398 302.513 218.108 299.355 226.52H253.536C257.666 217.589 262.243 208.873 267.252 200.404C271.481 193.134 276.2 186.161 281.376 179.533C284.456 175.578 287.89 171.912 291.635 168.578C292.562 167.8 293.424 167.077 294.323 166.401L294.999 165.9C296.582 164.771 298.224 163.728 299.92 162.777C301.236 162.026 302.562 161.368 303.868 160.775C312.368 156.89 321.847 155.678 331.05 157.3C337.139 158.421 341.727 160.72 343.701 162.86C348.807 168.523 348.538 176.465 345.202 179.032Z" fill="url(#paint43_linear_4210_9884)"/>
<path d="M335.98 184.853L333.979 186.215C333.284 181.766 330.8 172.388 321.931 169.172C313.905 166.271 300.003 167.457 291.635 168.579C292.562 167.8 293.423 167.077 294.322 166.401C303.534 165.353 320.142 164.167 326.611 168.254C333.08 172.341 335.239 180.432 335.98 184.853Z" fill="url(#paint44_linear_4210_9884)"/>
<path d="M341.949 181.09C341.291 181.489 340.559 181.933 339.762 182.434C338.687 178.161 336.055 170.386 330.429 165.391C325.147 160.757 309.855 161.609 299.846 162.777C301.162 162.026 302.487 161.368 303.794 160.775C312.978 160.034 326.667 159.58 331.523 162.898C337.593 166.994 340.744 176.53 341.949 181.09Z" fill="url(#paint45_linear_4210_9884)"/>
<path d="M296.241 230.042L238.059 236.705C238.059 236.705 225.918 211.006 217.864 193.694C214.936 187.383 212.545 182.183 211.47 179.709C211.155 179.005 210.96 178.513 210.886 178.3C210.809 178.061 210.793 177.806 210.84 177.559C211.442 174.176 221.553 167.744 234.296 167.031C247.271 166.299 261.895 163.259 268.586 172.276C269.01 172.838 269.388 173.433 269.717 174.056C273.257 180.617 281.765 198.773 288.252 212.656C292.747 222.424 296.241 230.042 296.241 230.042Z" fill="url(#paint46_linear_4210_9884)"/>
<path d="M210.886 178.263C210.96 178.476 211.155 178.968 211.47 179.672C211.148 179.266 210.945 178.778 210.886 178.263Z" fill="url(#paint47_linear_4210_9884)"/>
<path d="M269.041 174.232C269.046 174.266 269.046 174.3 269.041 174.334C268.865 180.015 257.141 184.037 247.66 185.066C238.828 185.992 218.541 185.066 212.554 180.701L212.332 180.515L212.128 180.348L212.017 180.256C211.985 180.219 211.951 180.185 211.915 180.154L211.748 179.987C211.659 179.89 211.576 179.788 211.498 179.681C211.176 179.275 210.974 178.787 210.914 178.272C210.884 178.026 210.869 177.779 210.868 177.531C211.19 176.488 211.812 175.563 212.656 174.871C213.845 173.801 215.151 172.869 216.549 172.091C217.003 171.831 217.476 171.572 217.976 171.322C214.519 173.657 214.983 175.474 215.409 176.882C215.9 178.495 218.078 179.774 221.127 180.747C227.911 182.916 239.051 183.527 245.844 182.925C250.335 182.583 254.755 181.613 258.976 180.043C263.99 178.041 266.297 175.483 266.158 173.5C266.142 173.271 266.092 173.046 266.01 172.832C265.195 170.756 260.264 168.06 248.188 167.958C243.691 167.92 239.199 168.264 234.76 168.986C228.365 170.071 224.028 171.869 225.714 173.787C225.896 173.987 226.098 174.167 226.317 174.324C227.805 175.254 229.461 175.884 231.192 176.178C231.961 176.345 232.776 176.484 233.638 176.614C236.912 177.062 240.214 177.269 243.518 177.235H245.371H245.788H245.936H246.372H246.632H246.891H247.215H247.466H248.031H248.429H248.698L249.495 177.16H249.671L250.487 177.049L250.941 176.984L251.182 176.938H251.414L251.664 176.892H251.858L252.146 176.827H252.276L252.535 176.762L252.896 176.66H253.045L253.23 176.595H253.332L253.49 176.539L253.629 176.484L253.795 176.41L253.953 176.336C254.167 176.234 254.347 176.073 254.472 175.872C254.611 175.603 254.472 175.307 254.083 174.945C249.106 171.127 234.509 176.317 232.897 174.334C232.835 174.26 232.782 174.179 232.739 174.093C232.695 173.999 232.667 173.899 232.656 173.796C232.664 173.626 232.715 173.46 232.804 173.314C232.893 173.168 233.018 173.047 233.166 172.962C236.419 170.543 254.222 170.098 257.938 173.5L258.003 173.574C258.156 173.717 258.288 173.883 258.392 174.065C258.776 174.642 258.959 175.329 258.911 176.02C258.854 176.45 258.659 176.85 258.355 177.16C257.61 177.846 256.715 178.347 255.742 178.625C253.99 179.255 251.664 179.755 249.189 180.385C242.952 181.97 221.59 180.107 219.533 174.519C219.255 173.768 219.885 172.749 220.858 171.683C221.442 171.025 222.165 170.358 222.869 169.709C226.542 168.458 230.367 167.712 234.241 167.494C246.131 166.827 259.412 164.213 266.677 170.729C266.728 170.764 266.774 170.804 266.816 170.849L266.983 171.007L267.057 171.081C267.59 171.59 268.077 172.145 268.512 172.74C268.556 172.823 268.593 172.91 268.624 172.999C268.679 173.147 268.735 173.296 268.781 173.435C268.891 173.692 268.978 173.959 269.041 174.232Z" fill="url(#paint48_linear_4210_9884)"/>
<path d="M215.409 176.817C215.9 178.43 218.078 179.709 221.127 180.682C227.911 182.851 239.05 183.462 245.844 182.86C250.334 182.518 254.755 181.548 258.976 179.978C263.99 177.976 266.297 175.418 266.158 173.435C266.142 173.206 266.092 172.981 266.01 172.767C265.194 170.691 260.264 167.995 248.188 167.893C243.691 167.855 239.199 168.199 234.759 168.921C228.365 170.006 224.027 171.804 225.714 173.722C225.895 173.922 226.097 174.102 226.317 174.26C227.805 175.189 229.461 175.819 231.191 176.113C231.961 176.28 232.776 176.419 233.638 176.549C241.182 177.651 251.441 177.225 254.027 175.835C254.241 175.734 254.421 175.573 254.546 175.372C254.694 175.103 254.546 174.806 254.166 174.445C249.189 170.627 234.593 175.817 232.98 173.833C232.918 173.76 232.865 173.679 232.822 173.592C232.778 173.499 232.75 173.399 232.739 173.296C232.747 173.125 232.798 172.959 232.887 172.814C232.977 172.668 233.101 172.547 233.249 172.462C236.669 169.922 256.195 169.561 258.485 173.564C258.868 174.141 259.051 174.829 259.004 175.52C258.707 177.855 254.37 178.606 249.282 179.885C243.045 181.47 221.683 179.607 219.625 174.019C219.171 172.805 221.09 170.923 222.971 169.209C221.274 169.778 219.62 170.469 218.022 171.275C214.519 173.602 214.982 175.418 215.409 176.817Z" fill="url(#paint49_linear_4210_9884)"/>
<path d="M258.976 179.978C254.755 181.548 250.334 182.518 245.844 182.86C239.05 183.509 227.911 182.86 221.127 180.682C220.251 180.413 219.397 180.082 218.569 179.69C216.891 178.884 215.789 177.93 215.409 176.817C214.982 175.418 214.482 173.602 217.976 171.257C219.574 170.45 221.228 169.759 222.925 169.19C222.14 169.881 221.397 170.617 220.7 171.396C219.848 172.378 219.32 173.305 219.579 174C221.655 179.561 243.017 181.414 249.235 179.866C254.277 178.588 258.661 177.837 258.957 175.501C259.005 174.81 258.822 174.123 258.438 173.546C256.131 169.598 236.669 169.913 233.221 172.452C233.073 172.538 232.949 172.659 232.86 172.804C232.771 172.95 232.72 173.116 232.711 173.286C232.722 173.389 232.751 173.489 232.795 173.583C232.837 173.669 232.89 173.75 232.952 173.824C234.565 175.807 249.161 170.617 254.138 174.436C254.555 174.76 254.666 175.057 254.518 175.362C254.393 175.563 254.213 175.724 253.999 175.826C251.441 177.216 241.182 177.679 233.61 176.539C232.748 176.41 231.933 176.271 231.164 176.104C229.433 175.81 227.777 175.18 226.289 174.25C226.07 174.093 225.868 173.913 225.686 173.713C224 171.794 228.337 170.006 234.732 168.912C239.171 168.19 243.663 167.846 248.16 167.883C260.208 167.985 265.167 170.664 265.982 172.758C266.064 172.972 266.114 173.197 266.13 173.425C266.325 175.418 263.99 177.939 258.976 179.978Z" fill="url(#paint50_linear_4210_9884)"/>
<path d="M254.527 175.325V175.39L254.425 175.511L254.36 175.566L254.295 175.622L254.212 175.677L254.036 175.789L253.878 175.863L253.711 175.937L253.35 176.085H253.248L253.063 176.15H252.914L252.553 176.252L252.294 176.317H252.164L251.876 176.382H251.682L251.432 176.428L250.959 176.512L250.505 176.576C249.875 176.669 249.18 176.743 248.447 176.808H248.049L246.909 176.882H246.65H245.723H245.306H243.452C240.148 176.917 236.846 176.71 233.573 176.261L232.739 173.333C232.781 173.419 232.834 173.5 232.896 173.574C234.509 175.557 249.105 170.367 254.082 174.185C254.555 174.76 254.666 175.057 254.527 175.325Z" fill="url(#paint51_linear_4210_9884)"/>
<path d="M319.846 197.633V248.873L239.013 252.849L219.579 242.015V197.901L238.402 201.052L319.846 197.633Z" fill="url(#paint52_linear_4210_9884)"/>
<path d="M238.402 201.052L225.909 213.971L207.828 207.354L219.579 197.901L238.402 201.052Z" fill="url(#paint53_linear_4210_9884)"/>
<path d="M331.56 209.671L247.197 215.584L238.402 201.052L319.846 197.633L331.56 209.671Z" fill="url(#paint54_linear_4210_9884)"/>
<path d="M297.789 240.078V245.722L317.037 245.194V239.569L297.789 240.078Z" fill="#FFE9CA"/>
<path d="M274.008 251.126V226.501L276.872 229.328L279.726 223.137L285.036 227.474L290.282 225.241V250.328L274.008 251.126Z" fill="#EDA05A"/>
<path d="M238.402 201.052L225.974 215.046L208.365 208.568L207.828 207.354L225.473 213.313L237.614 200.913L238.402 201.052Z" fill="url(#paint55_linear_4210_9884)"/>
<path d="M246.984 216.428C247.086 216.428 238.402 201.052 238.402 201.052H239.106L247.447 214.546L331.542 209.699L331.208 211.015L246.984 216.428Z" fill="url(#paint56_linear_4210_9884)"/>
<path d="M337.185 192.396L336.805 194.037L320.911 198.735L319.846 197.632L337.185 192.396Z" fill="url(#paint57_linear_4210_9884)"/>
<path style="mix-blend-mode:multiply" opacity="0.4" d="M345.202 179.032C344.711 179.412 343.571 180.098 341.949 181.09C341.291 181.488 340.559 181.933 339.762 182.434C338.622 183.147 337.352 183.954 335.981 184.853L333.979 186.215C328.874 189.66 324.035 193.482 319.503 197.651L281.978 199.254C279.93 194.88 277.882 190.561 276.01 186.669C277.734 184.213 279.513 181.813 281.339 179.533C283.665 183.138 288.41 186.947 298.104 186.882C316.343 186.734 337.797 168.616 337.185 163.713C336.898 161.433 334.025 159.126 331.013 157.318C337.102 158.44 341.69 160.738 343.664 162.879C348.807 168.523 348.538 176.465 345.202 179.032Z" fill="url(#paint58_linear_4210_9884)"/>
<path style="mix-blend-mode:multiply" opacity="0.4" d="M281.978 199.254L255.343 200.385C247.929 196.53 239.903 193.184 232.554 191.998C225.909 190.932 221.173 191.998 217.864 193.657C214.936 187.346 212.545 182.146 211.47 179.672L211.581 179.82L211.655 179.904L211.794 180.052C211.983 180.25 212.188 180.433 212.406 180.599L212.582 180.728C218.615 185.14 238.846 186.178 247.651 185.075C258.16 183.935 271.404 179.125 268.679 172.452L268.577 172.23C269.001 172.792 269.379 173.387 269.708 174.009C272.182 178.578 277.066 188.782 281.978 199.254Z" fill="url(#paint59_linear_4210_9884)"/>
<path style="mix-blend-mode:multiply" opacity="0.4" d="M254.527 175.325V175.39L254.425 175.511L254.36 175.566L254.295 175.622L254.212 175.677L254.036 175.789L253.878 175.863L253.711 175.937L253.35 176.085H253.248L253.063 176.15H252.914L252.553 176.252L252.294 176.317H252.164L251.876 176.382H251.682L251.432 176.428L250.959 176.512L250.505 176.576C249.875 176.669 249.18 176.743 248.447 176.808H248.049L246.909 176.882H246.65H245.723H245.306H243.452C240.148 176.917 236.846 176.71 233.573 176.261L232.739 173.333C232.781 173.419 232.834 173.5 232.896 173.574C234.509 175.557 249.105 170.367 254.082 174.185C254.555 174.76 254.666 175.057 254.527 175.325Z" fill="url(#paint60_linear_4210_9884)"/>
<path style="mix-blend-mode:multiply" opacity="0.4" d="M258.976 175.511V179.978C254.755 181.548 250.334 182.518 245.844 182.86C239.05 183.509 227.911 182.86 221.127 180.682L219.579 174.009C221.655 179.57 243.017 181.423 249.236 179.876C254.277 178.597 258.679 177.846 258.976 175.511Z" fill="url(#paint61_linear_4210_9884)"/>
<path style="mix-blend-mode:multiply" opacity="0.4" d="M257.984 172.99L258.049 173.064L257.975 172.99H257.984Z" fill="url(#paint62_linear_4210_9884)"/>
<path style="mix-blend-mode:screen" opacity="0.3" d="M258.976 175.511C258.918 175.941 258.723 176.341 258.42 176.651C257.644 177.293 256.759 177.789 255.806 178.115C254.055 178.745 251.729 179.246 249.254 179.876C243.017 181.461 221.655 179.598 219.598 174.009C219.32 173.259 219.95 172.239 220.923 171.174C220.923 171.174 219.069 173.185 221.85 175.066C224.63 176.947 233.184 180.015 243.694 179.579C254.203 179.144 260.514 175.678 258.04 173.092C258.193 173.235 258.325 173.401 258.429 173.583C258.817 174.149 259.009 174.826 258.976 175.511Z" fill="url(#paint63_linear_4210_9884)"/>
<path style="mix-blend-mode:screen" opacity="0.3" d="M244.222 209.282L247.465 214.518L260.357 213.777C260.357 213.777 252.016 213.527 249.625 212.72C247.234 211.914 244.222 209.282 244.222 209.282Z" fill="url(#paint64_linear_4210_9884)"/>
<path style="mix-blend-mode:screen" opacity="0.2" d="M234.667 203.935L225.473 213.313L212.638 208.976C212.638 208.976 220.413 210.83 224.398 209.903C228.383 208.976 234.667 203.935 234.667 203.935Z" fill="url(#paint65_linear_4210_9884)"/>
<path style="mix-blend-mode:screen" opacity="0.2" d="M238.754 231.163C238.754 231.163 240.07 246.455 242.952 249.114C245.834 251.774 253.527 252.136 253.527 252.136L239.013 252.849L238.754 231.163Z" fill="url(#paint66_linear_4210_9884)"/>
<path style="mix-blend-mode:screen" opacity="0.2" d="M274.351 238.809C276.834 239.906 279.505 240.514 282.219 240.597C285.089 240.561 287.889 239.699 290.282 238.114V244.407C290.282 244.407 286.445 242.006 282.868 242.015C279.29 242.025 274.527 245.324 274.527 245.324L274.351 238.809Z" fill="url(#paint67_linear_4210_9884)"/>
<path style="mix-blend-mode:multiply" opacity="0.4" d="M238.402 201.052L239.014 252.849L319.846 248.874V211.72L246.984 216.428L238.402 201.052Z" fill="url(#paint68_linear_4210_9884)"/>
<path style="mix-blend-mode:multiply" opacity="0.4" d="M219.579 217.66L233.267 223.239L238.402 201.052L225.974 215.047L219.579 212.693V217.66Z" fill="url(#paint69_linear_4210_9884)"/>
<path style="mix-blend-mode:multiply" opacity="0.4" d="M326.073 191.998C326.073 191.998 323.645 193.972 322.857 194.621C322.07 195.269 319.549 197.558 319.549 197.558L320.92 198.717L336.814 194.009L337.194 192.369L326.073 191.998Z" fill="url(#paint70_linear_4210_9884)"/>
<path style="mix-blend-mode:multiply" opacity="0.4" d="M247.465 214.518L246.983 216.427L331.226 210.987L331.56 209.671L247.465 214.518Z" fill="url(#paint71_linear_4210_9884)"/>
<defs>
<linearGradient id="paint0_linear_4210_9884" x1="354.33" y1="46.0046" x2="241.256" y2="46.0046" gradientUnits="userSpaceOnUse">
<stop stop-color="#FFD6AB"/>
<stop offset="0.92" stop-color="#FBE7BF"/>
<stop offset="1" stop-color="#FBE9C1"/>
</linearGradient>
<linearGradient id="paint1_linear_4210_9884" x1="297.789" y1="82.6488" x2="297.789" y2="105.382" gradientUnits="userSpaceOnUse">
<stop stop-color="#FBE9C1"/>
<stop offset="0.5" stop-color="#FDE2B9"/>
<stop offset="1" stop-color="#FFD6AB"/>
</linearGradient>
<linearGradient id="paint2_linear_4210_9884" x1="354.09" y1="90.9619" x2="354.09" y2="92.4354" gradientUnits="userSpaceOnUse">
<stop stop-color="#FBE9C1"/>
<stop offset="0.5" stop-color="#FDE2B9"/>
<stop offset="1" stop-color="#FFD6AB"/>
</linearGradient>
<linearGradient id="paint3_linear_4210_9884" x1="297.788" y1="85.4015" x2="297.788" y2="102.241" gradientUnits="userSpaceOnUse">
<stop stop-color="#C7663F"/>
<stop offset="0.36" stop-color="#D87A3E"/>
<stop offset="1" stop-color="#FFA63C"/>
</linearGradient>
<linearGradient id="paint4_linear_4210_9884" x1="294.99" y1="197.401" x2="300.597" y2="197.401" gradientUnits="userSpaceOnUse">
<stop stop-color="#FFA63C"/>
<stop offset="0.64" stop-color="#D87A3E"/>
<stop offset="1" stop-color="#C7663F"/>
</linearGradient>
<linearGradient id="paint5_linear_4210_9884" x1="308.697" y1="112.027" x2="308.697" y2="121.406" gradientUnits="userSpaceOnUse">
<stop stop-color="#C7663F"/>
<stop offset="0.36" stop-color="#D87A3E"/>
<stop offset="1" stop-color="#FFA63C"/>
</linearGradient>
<linearGradient id="paint6_linear_4210_9884" x1="308.696" y1="82.1855" x2="308.696" y2="126.744" gradientUnits="userSpaceOnUse">
<stop stop-color="#C7663F"/>
<stop offset="0.36" stop-color="#D87A3E"/>
<stop offset="1" stop-color="#FFA63C"/>
</linearGradient>
<linearGradient id="paint7_linear_4210_9884" x1="308.724" y1="112.306" x2="308.724" y2="115.067" gradientUnits="userSpaceOnUse">
<stop stop-color="#C7663F"/>
<stop offset="0.36" stop-color="#D87A3E"/>
<stop offset="1" stop-color="#FFA63C"/>
</linearGradient>
<linearGradient id="paint8_linear_4210_9884" x1="297.789" y1="104.409" x2="297.789" y2="112.824" gradientUnits="userSpaceOnUse">
<stop stop-color="#C7663F"/>
<stop offset="0.36" stop-color="#D87A3E"/>
<stop offset="1" stop-color="#FFA63C"/>
</linearGradient>
<linearGradient id="paint9_linear_4210_9884" x1="297.789" y1="82.6488" x2="297.789" y2="105.364" gradientUnits="userSpaceOnUse">
<stop stop-color="#DD27D7"/>
<stop offset="0.13" stop-color="#DE2BD8"/>
<stop offset="0.26" stop-color="#E039DA"/>
<stop offset="0.4" stop-color="#E34EDE"/>
<stop offset="0.54" stop-color="#E86DE4"/>
<stop offset="0.69" stop-color="#EE94EB"/>
<stop offset="0.84" stop-color="#F6C4F4"/>
<stop offset="0.99" stop-color="white"/>
</linearGradient>
<linearGradient id="paint10_linear_4210_9884" x1="354.09" y1="90.9619" x2="354.09" y2="92.4354" gradientUnits="userSpaceOnUse">
<stop stop-color="#B12ADD"/>
<stop offset="0.13" stop-color="#B32EDE"/>
<stop offset="0.26" stop-color="#B73CE0"/>
<stop offset="0.4" stop-color="#BF51E3"/>
<stop offset="0.55" stop-color="#CB70E8"/>
<stop offset="0.7" stop-color="#D997EE"/>
<stop offset="0.85" stop-color="#EAC7F6"/>
<stop offset="0.99" stop-color="white"/>
</linearGradient>
<linearGradient id="paint11_linear_4210_9884" x1="297.789" y1="87.4124" x2="297.789" y2="97.8292" gradientUnits="userSpaceOnUse">
<stop stop-color="#B12ADD"/>
<stop offset="0.13" stop-color="#B32EDE"/>
<stop offset="0.26" stop-color="#B73CE0"/>
<stop offset="0.4" stop-color="#BF51E3"/>
<stop offset="0.55" stop-color="#CB70E8"/>
<stop offset="0.7" stop-color="#D997EE"/>
<stop offset="0.85" stop-color="#EAC7F6"/>
<stop offset="0.99" stop-color="white"/>
</linearGradient>
<linearGradient id="paint12_linear_4210_9884" x1="297.789" y1="85.281" x2="297.789" y2="103.131" gradientUnits="userSpaceOnUse">
<stop stop-color="#B12ADD"/>
<stop offset="0.13" stop-color="#B32EDE"/>
<stop offset="0.26" stop-color="#B73CE0"/>
<stop offset="0.4" stop-color="#BF51E3"/>
<stop offset="0.55" stop-color="#CB70E8"/>
<stop offset="0.7" stop-color="#D997EE"/>
<stop offset="0.85" stop-color="#EAC7F6"/>
<stop offset="0.99" stop-color="white"/>
</linearGradient>
<linearGradient id="paint13_linear_4210_9884" x1="308.696" y1="87.5144" x2="308.696" y2="106.309" gradientUnits="userSpaceOnUse">
<stop stop-color="#B12ADD"/>
<stop offset="0.27" stop-color="#B22CDD"/>
<stop offset="0.41" stop-color="#B534DF"/>
<stop offset="0.52" stop-color="#BA42E1"/>
<stop offset="0.62" stop-color="#C156E4"/>
<stop offset="0.71" stop-color="#CA6FE8"/>
<stop offset="0.8" stop-color="#D68EED"/>
<stop offset="0.87" stop-color="#E3B3F3"/>
<stop offset="0.94" stop-color="#F2DCF9"/>
<stop offset="0.99" stop-color="white"/>
</linearGradient>
<linearGradient id="paint14_linear_4210_9884" x1="309.105" y1="114.038" x2="309.105" y2="126.513" gradientUnits="userSpaceOnUse">
<stop stop-color="#B12ADD"/>
<stop offset="0.27" stop-color="#B22CDD"/>
<stop offset="0.41" stop-color="#B534DF"/>
<stop offset="0.52" stop-color="#BA42E1"/>
<stop offset="0.62" stop-color="#C156E4"/>
<stop offset="0.71" stop-color="#CA6FE8"/>
<stop offset="0.8" stop-color="#D68EED"/>
<stop offset="0.87" stop-color="#E3B3F3"/>
<stop offset="0.94" stop-color="#F2DCF9"/>
<stop offset="0.99" stop-color="white"/>
</linearGradient>
<linearGradient id="paint15_linear_4210_9884" x1="308.808" y1="112.148" x2="308.808" y2="115.697" gradientUnits="userSpaceOnUse">
<stop stop-color="#B12ADD"/>
<stop offset="0.27" stop-color="#B22CDD"/>
<stop offset="0.41" stop-color="#B534DF"/>
<stop offset="0.52" stop-color="#BA42E1"/>
<stop offset="0.62" stop-color="#C156E4"/>
<stop offset="0.71" stop-color="#CA6FE8"/>
<stop offset="0.8" stop-color="#D68EED"/>
<stop offset="0.87" stop-color="#E3B3F3"/>
<stop offset="0.94" stop-color="#F2DCF9"/>
<stop offset="0.99" stop-color="white"/>
</linearGradient>
<linearGradient id="paint16_linear_4210_9884" x1="297.965" y1="100.443" x2="297.965" y2="120.887" gradientUnits="userSpaceOnUse">
<stop stop-color="#B12ADD"/>
<stop offset="0.13" stop-color="#B32EDE"/>
<stop offset="0.26" stop-color="#B73CE0"/>
<stop offset="0.4" stop-color="#BF51E3"/>
<stop offset="0.55" stop-color="#CB70E8"/>
<stop offset="0.7" stop-color="#D997EE"/>
<stop offset="0.85" stop-color="#EAC7F6"/>
<stop offset="0.99" stop-color="white"/>
</linearGradient>
<linearGradient id="paint17_linear_4210_9884" x1="297.789" y1="149.737" x2="297.789" y2="184.389" gradientUnits="userSpaceOnUse">
<stop stop-color="#B12ADD"/>
<stop offset="0.13" stop-color="#B32EDE"/>
<stop offset="0.26" stop-color="#B73CE0"/>
<stop offset="0.4" stop-color="#BF51E3"/>
<stop offset="0.55" stop-color="#CB70E8"/>
<stop offset="0.7" stop-color="#D997EE"/>
<stop offset="0.85" stop-color="#EAC7F6"/>
<stop offset="0.99" stop-color="white"/>
</linearGradient>
<linearGradient id="paint18_linear_4210_9884" x1="297.789" y1="110.081" x2="297.789" y2="112.111" gradientUnits="userSpaceOnUse">
<stop stop-color="#B12ADD"/>
<stop offset="0.13" stop-color="#B32EDE"/>
<stop offset="0.26" stop-color="#B73CE0"/>
<stop offset="0.4" stop-color="#BF51E3"/>
<stop offset="0.55" stop-color="#CB70E8"/>
<stop offset="0.7" stop-color="#D997EE"/>
<stop offset="0.85" stop-color="#EAC7F6"/>
<stop offset="0.99" stop-color="white"/>
</linearGradient>
<linearGradient id="paint19_linear_4210_9884" x1="44.6709" y1="257.483" x2="261.858" y2="257.483" gradientUnits="userSpaceOnUse">
<stop stop-color="#FFC764"/>
<stop offset="0.92" stop-color="#FFB360"/>
<stop offset="1" stop-color="#FFB160"/>
</linearGradient>
<linearGradient id="paint20_linear_4210_9884" x1="44.6709" y1="189.95" x2="261.858" y2="189.95" gradientUnits="userSpaceOnUse">
<stop offset="0.01" stop-color="#752B55"/>
<stop offset="0.17" stop-color="#77304E"/>
<stop offset="1" stop-color="#7F492B"/>
</linearGradient>
<linearGradient id="paint21_linear_4210_9884" x1="37.748" y1="174.009" x2="191.665" y2="174.009" gradientUnits="userSpaceOnUse">
<stop stop-color="#FFC764"/>
<stop offset="0.92" stop-color="#FFB360"/>
<stop offset="1" stop-color="#FFB160"/>
</linearGradient>
<linearGradient id="paint22_linear_4210_9884" x1="30" y1="207.206" x2="116.319" y2="207.206" gradientUnits="userSpaceOnUse">
<stop stop-color="#FFC764"/>
<stop offset="0.92" stop-color="#FFB360"/>
<stop offset="1" stop-color="#FFB160"/>
</linearGradient>
<linearGradient id="paint23_linear_4210_9884" x1="106.134" y1="180.497" x2="261.858" y2="180.497" gradientUnits="userSpaceOnUse">
<stop stop-color="#FFC764"/>
<stop offset="0.92" stop-color="#FFB360"/>
<stop offset="1" stop-color="#FFB160"/>
</linearGradient>
<linearGradient id="paint24_linear_4210_9884" x1="30" y1="213.823" x2="116.866" y2="213.823" gradientUnits="userSpaceOnUse">
<stop stop-color="#FFB446"/>
<stop offset="0.7" stop-color="#FFA043"/>
<stop offset="1" stop-color="#FF9642"/>
</linearGradient>
<linearGradient id="paint25_linear_4210_9884" x1="36.5986" y1="175.64" x2="45.8385" y2="175.64" gradientUnits="userSpaceOnUse">
<stop stop-color="#FFE5BF"/>
<stop offset="0.06" stop-color="#FFE2BE"/>
<stop offset="0.31" stop-color="#FFDBBC"/>
<stop offset="1" stop-color="#FFD9BB"/>
</linearGradient>
<linearGradient id="paint26_linear_4210_9884" x1="115.04" y1="183.314" x2="107.227" y2="184.797" gradientUnits="userSpaceOnUse">
<stop stop-color="#FFE5BF"/>
<stop offset="0.06" stop-color="#FFE2BE"/>
<stop offset="0.31" stop-color="#FFDBBC"/>
<stop offset="1" stop-color="#FFD9BB"/>
</linearGradient>
<linearGradient id="paint27_linear_4210_9884" x1="78.5996" y1="279.29" x2="359.687" y2="210.301" gradientUnits="userSpaceOnUse">
<stop stop-color="#B12ADD"/>
<stop offset="0.39" stop-color="#B22CDD"/>
<stop offset="0.52" stop-color="#B433DE"/>
<stop offset="0.62" stop-color="#B93EE0"/>
<stop offset="0.7" stop-color="#BF4FE3"/>
<stop offset="0.77" stop-color="#C765E6"/>
<stop offset="0.83" stop-color="#D181EB"/>
<stop offset="0.89" stop-color="#DDA1F0"/>
<stop offset="0.94" stop-color="#EAC7F6"/>
<stop offset="0.98" stop-color="#F9F0FD"/>
<stop offset="0.99" stop-color="white"/>
</linearGradient>
<linearGradient id="paint28_linear_4210_9884" x1="86.6344" y1="188.42" x2="59.4245" y2="291.959" gradientUnits="userSpaceOnUse">
<stop stop-color="#B12ADD"/>
<stop offset="0.13" stop-color="#B32EDE"/>
<stop offset="0.26" stop-color="#B73CE0"/>
<stop offset="0.4" stop-color="#BF51E3"/>
<stop offset="0.55" stop-color="#CB70E8"/>
<stop offset="0.7" stop-color="#D997EE"/>
<stop offset="0.85" stop-color="#EAC7F6"/>
<stop offset="0.99" stop-color="white"/>
</linearGradient>
<linearGradient id="paint29_linear_4210_9884" x1="117.376" y1="141.211" x2="87.1446" y2="256.223" gradientUnits="userSpaceOnUse">
<stop stop-color="#B12ADD"/>
<stop offset="0.13" stop-color="#B32EDE"/>
<stop offset="0.26" stop-color="#B73CE0"/>
<stop offset="0.4" stop-color="#BF51E3"/>
<stop offset="0.55" stop-color="#CB70E8"/>
<stop offset="0.7" stop-color="#D997EE"/>
<stop offset="0.85" stop-color="#EAC7F6"/>
<stop offset="0.99" stop-color="white"/>
</linearGradient>
<linearGradient id="paint30_linear_4210_9884" x1="259.523" y1="199.95" x2="152.009" y2="160.136" gradientUnits="userSpaceOnUse">
<stop stop-color="#B12ADD"/>
<stop offset="0.13" stop-color="#B32EDE"/>
<stop offset="0.26" stop-color="#B73CE0"/>
<stop offset="0.4" stop-color="#BF51E3"/>
<stop offset="0.55" stop-color="#CB70E8"/>
<stop offset="0.7" stop-color="#D997EE"/>
<stop offset="0.85" stop-color="#EAC7F6"/>
<stop offset="0.99" stop-color="white"/>
</linearGradient>
<linearGradient id="paint31_linear_4210_9884" x1="162.62" y1="246.223" x2="213.342" y2="233.767" gradientUnits="userSpaceOnUse">
<stop stop-color="#B12ADD"/>
<stop offset="0.39" stop-color="#B22CDD"/>
<stop offset="0.52" stop-color="#B433DE"/>
<stop offset="0.62" stop-color="#B93EE0"/>
<stop offset="0.7" stop-color="#BF4FE3"/>
<stop offset="0.77" stop-color="#C765E6"/>
<stop offset="0.83" stop-color="#D181EB"/>
<stop offset="0.89" stop-color="#DDA1F0"/>
<stop offset="0.94" stop-color="#EAC7F6"/>
<stop offset="0.98" stop-color="#F9F0FD"/>
<stop offset="0.99" stop-color="white"/>
</linearGradient>
<linearGradient id="paint32_linear_4210_9884" x1="84.5398" y1="272.969" x2="95.0401" y2="273.321" gradientUnits="userSpaceOnUse">
<stop stop-color="#B12ADD"/>
<stop offset="0.1" stop-color="#B431DE"/>
<stop offset="0.25" stop-color="#BB46E1"/>
<stop offset="0.43" stop-color="#C767E7"/>
<stop offset="0.63" stop-color="#D996EE"/>
<stop offset="0.85" stop-color="#EED1F8"/>
<stop offset="1" stop-color="white"/>
</linearGradient>
<linearGradient id="paint33_linear_4210_9884" x1="73.0758" y1="217.373" x2="74.3825" y2="246.195" gradientUnits="userSpaceOnUse">
<stop stop-color="#FFF4A4"/>
<stop offset="0.29" stop-color="#FFF7BB"/>
<stop offset="0.9" stop-color="#FFFEF5"/>
<stop offset="0.99" stop-color="white"/>
</linearGradient>
<linearGradient id="paint34_linear_4210_9884" x1="79.3315" y1="313.571" x2="84.8365" y2="319.836" gradientUnits="userSpaceOnUse">
<stop stop-color="#FFF4A4"/>
<stop offset="0.29" stop-color="#FFF7BB"/>
<stop offset="0.9" stop-color="#FFFEF5"/>
<stop offset="0.99" stop-color="white"/>
</linearGradient>
<linearGradient id="paint35_linear_4210_9884" x1="195.733" y1="300.012" x2="354.312" y2="300.012" gradientUnits="userSpaceOnUse">
<stop stop-color="#FFC764"/>
<stop offset="0.92" stop-color="#FFB360"/>
<stop offset="1" stop-color="#FFB160"/>
</linearGradient>
<linearGradient id="paint36_linear_4210_9884" x1="257.289" y1="210.783" x2="361.3" y2="351.652" gradientUnits="userSpaceOnUse">
<stop stop-color="#B12ADD"/>
<stop offset="0.13" stop-color="#B32EDE"/>
<stop offset="0.26" stop-color="#B73CE0"/>
<stop offset="0.4" stop-color="#BF51E3"/>
<stop offset="0.55" stop-color="#CB70E8"/>
<stop offset="0.7" stop-color="#D997EE"/>
<stop offset="0.85" stop-color="#EAC7F6"/>
<stop offset="0.99" stop-color="white"/>
</linearGradient>
<linearGradient id="paint37_linear_4210_9884" x1="293.452" y1="284.674" x2="362.319" y2="321.356" gradientUnits="userSpaceOnUse">
<stop stop-color="#B12ADD"/>
<stop offset="0.24" stop-color="#B22DDD"/>
<stop offset="0.39" stop-color="#B535DF"/>
<stop offset="0.5" stop-color="#BA43E1"/>
<stop offset="0.61" stop-color="#C257E4"/>
<stop offset="0.7" stop-color="#CB72E8"/>
<stop offset="0.79" stop-color="#D792EE"/>
<stop offset="0.87" stop-color="#E5B8F4"/>
<stop offset="0.95" stop-color="#F5E3FB"/>
<stop offset="0.99" stop-color="white"/>
</linearGradient>
<linearGradient id="paint38_linear_4210_9884" x1="231.599" y1="291.514" x2="285.472" y2="320.206" gradientUnits="userSpaceOnUse">
<stop stop-color="#B12ADD"/>
<stop offset="0.24" stop-color="#B22DDD"/>
<stop offset="0.39" stop-color="#B535DF"/>
<stop offset="0.5" stop-color="#BA43E1"/>
<stop offset="0.61" stop-color="#C257E4"/>
<stop offset="0.7" stop-color="#CB72E8"/>
<stop offset="0.79" stop-color="#D792EE"/>
<stop offset="0.87" stop-color="#E5B8F4"/>
<stop offset="0.95" stop-color="#F5E3FB"/>
<stop offset="0.99" stop-color="white"/>
</linearGradient>
<linearGradient id="paint39_linear_4210_9884" x1="262.33" y1="239.207" x2="322.394" y2="307.621" gradientUnits="userSpaceOnUse">
<stop stop-color="#FFF4A4"/>
<stop offset="0.29" stop-color="#FFF7BB"/>
<stop offset="0.9" stop-color="#FFFEF5"/>
<stop offset="0.99" stop-color="white"/>
</linearGradient>
<linearGradient id="paint40_linear_4210_9884" x1="276.269" y1="338" x2="300.291" y2="365.368" gradientUnits="userSpaceOnUse">
<stop stop-color="#FFF4A4"/>
<stop offset="0.29" stop-color="#FFF7BB"/>
<stop offset="0.9" stop-color="#FFFEF5"/>
<stop offset="0.99" stop-color="white"/>
</linearGradient>
<linearGradient id="paint41_linear_4210_9884" x1="228.198" y1="245.343" x2="244.166" y2="263.526" gradientUnits="userSpaceOnUse">
<stop stop-color="#FFF4A4"/>
<stop offset="0.29" stop-color="#FFF7BB"/>
<stop offset="0.9" stop-color="#FFFEF5"/>
<stop offset="0.99" stop-color="white"/>
</linearGradient>
<linearGradient id="paint42_linear_4210_9884" x1="299.327" y1="194.593" x2="337.185" y2="194.593" gradientUnits="userSpaceOnUse">
<stop stop-color="#FFC764"/>
<stop offset="0.92" stop-color="#FFB360"/>
<stop offset="1" stop-color="#FFB160"/>
</linearGradient>
<linearGradient id="paint43_linear_4210_9884" x1="253.536" y1="191.544" x2="347.63" y2="191.544" gradientUnits="userSpaceOnUse">
<stop stop-color="#1B9CA0"/>
<stop offset="0.46" stop-color="#27A08C"/>
<stop offset="1" stop-color="#32A478"/>
</linearGradient>
<linearGradient id="paint44_linear_4210_9884" x1="292.385" y1="175.807" x2="336.768" y2="175.807" gradientUnits="userSpaceOnUse">
<stop stop-color="#E9DB55"/>
<stop offset="0.15" stop-color="#E4DA55"/>
<stop offset="0.33" stop-color="#D5D954"/>
<stop offset="0.53" stop-color="#BDD652"/>
<stop offset="0.73" stop-color="#9BD250"/>
<stop offset="0.95" stop-color="#70CD4E"/>
<stop offset="1" stop-color="#64CC4D"/>
</linearGradient>
<linearGradient id="paint45_linear_4210_9884" x1="299.883" y1="171.34" x2="341.949" y2="171.34" gradientUnits="userSpaceOnUse">
<stop stop-color="#E9DB55"/>
<stop offset="0.14" stop-color="#DFDA54"/>
<stop offset="0.38" stop-color="#C4D753"/>
<stop offset="0.68" stop-color="#99D250"/>
<stop offset="1" stop-color="#64CC4D"/>
</linearGradient>
<linearGradient id="paint46_linear_4210_9884" x1="210.821" y1="201.303" x2="296.241" y2="201.303" gradientUnits="userSpaceOnUse">
<stop stop-color="#5FC2FF"/>
<stop offset="0.43" stop-color="#71AEFF"/>
<stop offset="1" stop-color="#8F8DFF"/>
</linearGradient>
<linearGradient id="paint47_linear_4210_9884" x1="210.886" y1="178.968" x2="211.47" y2="178.968" gradientUnits="userSpaceOnUse">
<stop stop-color="#9DE5FF"/>
<stop offset="0.54" stop-color="#A8D1FF"/>
<stop offset="1" stop-color="#B3BDFF"/>
</linearGradient>
<linearGradient id="paint48_linear_4210_9884" x1="210.84" y1="175.659" x2="269.041" y2="175.659" gradientUnits="userSpaceOnUse">
<stop stop-color="#9DE5FF"/>
<stop offset="0.54" stop-color="#A8D1FF"/>
<stop offset="1" stop-color="#B3BDFF"/>
</linearGradient>
<linearGradient id="paint49_linear_4210_9884" x1="210.84" y1="175.492" x2="268.976" y2="175.492" gradientUnits="userSpaceOnUse">
<stop stop-color="#9DE5FF"/>
<stop offset="0.54" stop-color="#A8D1FF"/>
<stop offset="1" stop-color="#B3BDFF"/>
</linearGradient>
<linearGradient id="paint50_linear_4210_9884" x1="215.121" y1="175.492" x2="266.158" y2="175.492" gradientUnits="userSpaceOnUse">
<stop stop-color="#5FC2FF"/>
<stop offset="0.43" stop-color="#71AEFF"/>
<stop offset="1" stop-color="#8F8DFF"/>
</linearGradient>
<linearGradient id="paint51_linear_4210_9884" x1="232.794" y1="175.066" x2="254.583" y2="175.066" gradientUnits="userSpaceOnUse">
<stop stop-color="#5FC2FF"/>
<stop offset="0.43" stop-color="#71AEFF"/>
<stop offset="1" stop-color="#8F8DFF"/>
</linearGradient>
<linearGradient id="paint52_linear_4210_9884" x1="219.579" y1="225.241" x2="319.846" y2="225.241" gradientUnits="userSpaceOnUse">
<stop stop-color="#FFC764"/>
<stop offset="0.92" stop-color="#FFB360"/>
<stop offset="1" stop-color="#FFB160"/>
</linearGradient>
<linearGradient id="paint53_linear_4210_9884" x1="207.828" y1="205.936" x2="238.402" y2="205.936" gradientUnits="userSpaceOnUse">
<stop stop-color="#FFC764"/>
<stop offset="0.92" stop-color="#FFB360"/>
<stop offset="1" stop-color="#FFB160"/>
</linearGradient>
<linearGradient id="paint54_linear_4210_9884" x1="238.402" y1="206.613" x2="331.56" y2="206.613" gradientUnits="userSpaceOnUse">
<stop stop-color="#FFC764"/>
<stop offset="0.92" stop-color="#FFB360"/>
<stop offset="1" stop-color="#FFB160"/>
</linearGradient>
<linearGradient id="paint55_linear_4210_9884" x1="207.828" y1="207.985" x2="238.402" y2="207.985" gradientUnits="userSpaceOnUse">
<stop stop-color="#FFB446"/>
<stop offset="0.7" stop-color="#FFA043"/>
<stop offset="1" stop-color="#FF9642"/>
</linearGradient>
<linearGradient id="paint56_linear_4210_9884" x1="284.62" y1="208.355" x2="282.358" y2="226.909" gradientUnits="userSpaceOnUse">
<stop stop-color="#FF9642"/>
<stop offset="0.3" stop-color="#FFA043"/>
<stop offset="1" stop-color="#FFB446"/>
</linearGradient>
<linearGradient id="paint57_linear_4210_9884" x1="328.696" y1="193.508" x2="327.593" y2="202.572" gradientUnits="userSpaceOnUse">
<stop stop-color="#FF9642"/>
<stop offset="0.3" stop-color="#FFA043"/>
<stop offset="1" stop-color="#FFB446"/>
</linearGradient>
<linearGradient id="paint58_linear_4210_9884" x1="269.791" y1="219.829" x2="353.246" y2="142.017" gradientUnits="userSpaceOnUse">
<stop stop-color="#B12ADD"/>
<stop offset="0.11" stop-color="#B330DE"/>
<stop offset="0.25" stop-color="#B941E1"/>
<stop offset="0.41" stop-color="#C45DE5"/>
<stop offset="0.58" stop-color="#D284EB"/>
<stop offset="0.77" stop-color="#E4B6F3"/>
<stop offset="0.96" stop-color="#FAF2FD"/>
<stop offset="1" stop-color="white"/>
</linearGradient>
<linearGradient id="paint59_linear_4210_9884" x1="239.328" y1="172.962" x2="268.781" y2="238.725" gradientUnits="userSpaceOnUse">
<stop stop-color="#B12ADD"/>
<stop offset="0.13" stop-color="#B32EDE"/>
<stop offset="0.26" stop-color="#B73CE0"/>
<stop offset="0.4" stop-color="#BF51E3"/>
<stop offset="0.55" stop-color="#CB70E8"/>
<stop offset="0.7" stop-color="#D997EE"/>
<stop offset="0.85" stop-color="#EAC7F6"/>
<stop offset="0.99" stop-color="white"/>
</linearGradient>
<linearGradient id="paint60_linear_4210_9884" x1="243.424" y1="172.313" x2="244.583" y2="181.155" gradientUnits="userSpaceOnUse">
<stop stop-color="#B12ADD"/>
<stop offset="0.13" stop-color="#B32EDE"/>
<stop offset="0.26" stop-color="#B73CE0"/>
<stop offset="0.4" stop-color="#BF51E3"/>
<stop offset="0.55" stop-color="#CB70E8"/>
<stop offset="0.7" stop-color="#D997EE"/>
<stop offset="0.85" stop-color="#EAC7F6"/>
<stop offset="0.99" stop-color="white"/>
</linearGradient>
<linearGradient id="paint61_linear_4210_9884" x1="238.884" y1="171.767" x2="241.506" y2="191.85" gradientUnits="userSpaceOnUse">
<stop stop-color="#B12ADD"/>
<stop offset="0.13" stop-color="#B32EDE"/>
<stop offset="0.26" stop-color="#B73CE0"/>
<stop offset="0.4" stop-color="#BF51E3"/>
<stop offset="0.55" stop-color="#CB70E8"/>
<stop offset="0.7" stop-color="#D997EE"/>
<stop offset="0.85" stop-color="#EAC7F6"/>
<stop offset="0.99" stop-color="white"/>
</linearGradient>
<linearGradient id="paint62_linear_4210_9884" x1="258.03" y1="172.99" x2="258.049" y2="173.129" gradientUnits="userSpaceOnUse">
<stop stop-color="#B12ADD"/>
<stop offset="0.13" stop-color="#B32EDE"/>
<stop offset="0.26" stop-color="#B73CE0"/>
<stop offset="0.4" stop-color="#BF51E3"/>
<stop offset="0.55" stop-color="#CB70E8"/>
<stop offset="0.7" stop-color="#D997EE"/>
<stop offset="0.85" stop-color="#EAC7F6"/>
<stop offset="0.99" stop-color="white"/>
</linearGradient>
<linearGradient id="paint63_linear_4210_9884" x1="239.421" y1="178.245" x2="239.987" y2="190.775" gradientUnits="userSpaceOnUse">
<stop stop-color="#FFF4A4"/>
<stop offset="0.46" stop-color="#FFF4A6"/>
<stop offset="0.62" stop-color="#FFF5AD"/>
<stop offset="0.74" stop-color="#FFF6B8"/>
<stop offset="0.83" stop-color="#FFF9C9"/>
<stop offset="0.91" stop-color="#FFFBDF"/>
<stop offset="0.98" stop-color="#FFFEFA"/>
<stop offset="0.99" stop-color="white"/>
</linearGradient>
<linearGradient id="paint64_linear_4210_9884" x1="246.001" y1="205.13" x2="258.179" y2="219.004" gradientUnits="userSpaceOnUse">
<stop stop-color="#FFF4A4"/>
<stop offset="0.29" stop-color="#FFF7BB"/>
<stop offset="0.9" stop-color="#FFFEF5"/>
<stop offset="0.99" stop-color="white"/>
</linearGradient>
<linearGradient id="paint65_linear_4210_9884" x1="227.698" y1="216.501" x2="221.09" y2="200.107" gradientUnits="userSpaceOnUse">
<stop stop-color="#FFF4A4"/>
<stop offset="0.26" stop-color="#FFF4A7"/>
<stop offset="0.46" stop-color="#FFF6B1"/>
<stop offset="0.63" stop-color="#FFF8C1"/>
<stop offset="0.8" stop-color="#FFFAD8"/>
<stop offset="0.95" stop-color="#FFFEF6"/>
<stop offset="0.99" stop-color="white"/>
</linearGradient>
<linearGradient id="paint66_linear_4210_9884" x1="228.43" y1="256.705" x2="265.565" y2="225.139" gradientUnits="userSpaceOnUse">
<stop stop-color="#FFF4A4"/>
<stop offset="0.29" stop-color="#FFF7BB"/>
<stop offset="0.9" stop-color="#FFFEF5"/>
<stop offset="0.99" stop-color="white"/>
</linearGradient>
<linearGradient id="paint67_linear_4210_9884" x1="282.311" y1="238.596" x2="282.376" y2="248.855" gradientUnits="userSpaceOnUse">
<stop stop-color="#FFF4A4"/>
<stop offset="0.29" stop-color="#FFF7BB"/>
<stop offset="0.9" stop-color="#FFFEF5"/>
<stop offset="0.99" stop-color="white"/>
</linearGradient>
<linearGradient id="paint68_linear_4210_9884" x1="278.966" y1="198.699" x2="280.069" y2="278.502" gradientUnits="userSpaceOnUse">
<stop stop-color="#B12ADD"/>
<stop offset="0.13" stop-color="#B32EDE"/>
<stop offset="0.26" stop-color="#B73CE0"/>
<stop offset="0.4" stop-color="#BF51E3"/>
<stop offset="0.55" stop-color="#CB70E8"/>
<stop offset="0.7" stop-color="#D997EE"/>
<stop offset="0.85" stop-color="#EAC7F6"/>
<stop offset="0.99" stop-color="white"/>
</linearGradient>
<linearGradient id="paint69_linear_4210_9884" x1="229.208" y1="224.768" x2="229.672" y2="258.836" gradientUnits="userSpaceOnUse">
<stop stop-color="#B12ADD"/>
<stop offset="0.13" stop-color="#B32EDE"/>
<stop offset="0.26" stop-color="#B73CE0"/>
<stop offset="0.4" stop-color="#BF51E3"/>
<stop offset="0.55" stop-color="#CB70E8"/>
<stop offset="0.7" stop-color="#D997EE"/>
<stop offset="0.85" stop-color="#EAC7F6"/>
<stop offset="0.99" stop-color="white"/>
</linearGradient>
<linearGradient id="paint70_linear_4210_9884" x1="316.314" y1="197.132" x2="346.481" y2="189.727" gradientUnits="userSpaceOnUse">
<stop stop-color="#B12ADD"/>
<stop offset="0.13" stop-color="#B32EDE"/>
<stop offset="0.26" stop-color="#B73CE0"/>
<stop offset="0.4" stop-color="#BF51E3"/>
<stop offset="0.55" stop-color="#CB70E8"/>
<stop offset="0.7" stop-color="#D997EE"/>
<stop offset="0.85" stop-color="#EAC7F6"/>
<stop offset="0.99" stop-color="white"/>
</linearGradient>
<linearGradient id="paint71_linear_4210_9884" x1="235.167" y1="226.047" x2="372.671" y2="192.304" gradientUnits="userSpaceOnUse">
<stop stop-color="#B12ADD"/>
<stop offset="0.13" stop-color="#B32EDE"/>
<stop offset="0.26" stop-color="#B73CE0"/>
<stop offset="0.4" stop-color="#BF51E3"/>
<stop offset="0.55" stop-color="#CB70E8"/>
<stop offset="0.7" stop-color="#D997EE"/>
<stop offset="0.85" stop-color="#EAC7F6"/>
<stop offset="0.99" stop-color="white"/>
</linearGradient>
</defs>
</svg>
