<svg width="615" height="350" viewBox="0 0 615 350" fill="none" xmlns="http://www.w3.org/2000/svg">
<path d="M615 251C615 359.8 477.328 348 307.5 348C137.672 348 0 359.8 0 251C0 142.2 137.672 54 307.5 54C477.328 54 615 142.2 615 251Z" fill="#F2F6FF"/>
<path d="M226.816 332.701C226.816 332.701 220.369 341.884 223.157 333.458L226.816 332.701Z" fill="#FFD1B8"/>
<path d="M221.365 57.9583C221.365 57.9583 213.447 58.9947 208.731 62.9954C204.015 66.9961 185.379 95.0322 184.198 103.645C183.016 112.258 196.853 125.297 222.547 82.9161" fill="#FFD261"/>
<path d="M294.196 57.9583C294.196 57.9583 302.104 58.9947 306.82 62.9954C311.536 66.9961 330.14 95.0322 331.363 103.645C332.586 112.258 318.698 125.297 293.015 82.9161" fill="#FFD261"/>
<path d="M223.386 101.033L221.551 60.5389C225.065 57.0253 250.23 54.2165 258.262 52.6826V52.0918L259.848 52.382L261.444 52.0918V52.6826C269.456 54.2165 294.901 57.0046 298.425 60.5389L297.803 101.033C297.803 101.033 305.794 153.82 294.922 164.257C294.922 164.257 278.857 165.998 259.942 166.009H259.745C240.829 166.009 224.764 164.257 224.764 164.257C214.648 156.846 223.386 101.033 223.386 101.033Z" fill="#FFD1B8"/>
<path d="M220.546 147.632L300.446 144.274C301.576 172.777 287.812 337.687 287.812 337.687H278.484C278.484 337.687 267.736 193.195 260.512 180.26C259.817 180.323 259.117 180.274 258.439 180.115C254.853 186.085 252.645 224.154 248.074 260.958C243.493 298.364 232.382 334.495 232.382 334.495L223.054 333.458C225.322 309.577 225.949 285.568 224.93 261.601C223.034 215.945 219.945 162.972 220.546 147.632Z" fill="#FFD1B8"/>
<path d="M300.809 160.837C300.809 160.837 298.633 225.397 292.414 334.857H272.991C272.991 334.857 265.435 187.681 260.253 186.396C257.796 185.805 255.07 218.878 252.935 253.962C246.302 300.52 238.176 331.696 238.176 331.696L220.36 330.66C220.36 330.66 222.847 297.649 223.593 254.294C221.013 212.701 219.572 168.507 219.862 158.132" fill="#7994FE"/>
<path d="M260.139 174.912H260.232L263.124 174.28L263.217 174.124C263.891 173.088 264.15 163.418 264.191 161.5C264.194 161.384 264.151 161.271 264.072 161.185C263.993 161.1 263.883 161.049 263.766 161.044C263.708 161.043 263.651 161.053 263.597 161.074C263.543 161.095 263.493 161.127 263.452 161.168C263.41 161.208 263.377 161.257 263.355 161.31C263.332 161.364 263.321 161.421 263.321 161.479C263.196 166.662 262.875 172.383 262.533 173.513L260.046 174.052C259.946 174.082 259.861 174.146 259.803 174.232C259.746 174.319 259.721 174.422 259.732 174.525C259.743 174.629 259.79 174.725 259.864 174.797C259.938 174.869 260.035 174.914 260.139 174.922V174.912Z" fill="#587DF4"/>
<path d="M259.817 171.678C259.874 171.673 259.929 171.656 259.98 171.629C260.03 171.602 260.074 171.565 260.11 171.521C260.146 171.476 260.172 171.425 260.188 171.37C260.203 171.315 260.208 171.258 260.2 171.201L259.247 161.604C259.242 161.546 259.225 161.491 259.198 161.44C259.172 161.389 259.135 161.344 259.091 161.307C259.046 161.271 258.995 161.243 258.94 161.226C258.885 161.21 258.827 161.204 258.77 161.21C258.712 161.213 258.656 161.229 258.604 161.255C258.553 161.282 258.507 161.318 258.47 161.363C258.433 161.408 258.406 161.459 258.39 161.515C258.374 161.571 258.369 161.629 258.376 161.686L259.33 171.284C259.343 171.401 259.401 171.507 259.493 171.581C259.584 171.655 259.7 171.69 259.817 171.678Z" fill="#587DF4"/>
<path d="M251.95 53.0868C251.95 56.7248 255.578 59.6891 260.055 59.6891C264.522 59.6891 268.15 56.7248 268.15 53.0868V41.8206C268.15 38.1723 264.522 35.208 260.055 35.208C255.578 35.208 251.95 38.1723 251.95 41.8206V53.0868Z" fill="#FFD1B8"/>
<path style="mix-blend-mode:multiply" d="M267.156 38.649C267.812 39.578 268.173 40.6833 268.192 41.8206V47.8217C265.269 50.2262 258.48 54.5586 251.992 49.5318V41.8206C251.999 40.9612 252.192 40.1134 252.557 39.3353C252.922 38.5572 253.45 37.867 254.107 37.312L267.156 38.649Z" fill="url(#paint0_linear_4207_7463)"/>
<path style="mix-blend-mode:multiply" d="M267.156 41.24C267.812 42.169 268.173 43.2742 268.192 44.4116V50.4126C265.269 52.8172 258.48 57.1496 251.992 52.1228V44.4116C252.009 43.5542 252.21 42.7105 252.582 41.9379C252.954 41.1652 253.488 40.4818 254.148 39.9341L267.156 41.24Z" fill="url(#paint1_linear_4207_7463)"/>
<path d="M274.524 25.7245C274.524 25.7245 275.934 21.5269 279.147 22.895C282.36 24.2631 282.702 33.7985 275.416 34.2027" fill="#FFD1B8"/>
<path style="mix-blend-mode:multiply" d="M274.524 25.7245C274.524 25.7245 275.934 21.5269 279.147 22.895C282.36 24.2631 282.702 33.7985 275.416 34.2027" fill="url(#paint2_linear_4207_7463)"/>
<path style="mix-blend-mode:multiply" d="M275.644 26.5121C275.644 26.5121 276.618 23.6308 278.825 24.5739C281.033 25.5171 281.272 32.1297 276.245 32.3681" fill="url(#paint3_linear_4207_7463)"/>
<path d="M244.612 28.865C244.612 28.865 242.353 25.0612 239.492 27.0719C236.631 29.0827 238.29 38.4729 245.503 37.3743" fill="#FFD1B8"/>
<path style="mix-blend-mode:multiply" d="M244.612 28.865C244.612 28.865 242.353 25.0612 239.492 27.0719C236.631 29.0827 238.29 38.4729 245.503 37.3743" fill="url(#paint4_linear_4207_7463)"/>
<path style="mix-blend-mode:multiply" d="M243.711 29.8392C243.711 29.8392 242.135 27.1651 240.135 28.5747C238.135 29.9843 239.285 36.5761 244.333 35.8299" fill="url(#paint5_linear_4207_7463)"/>
<path d="M243.742 35.747C245.162 49.2209 256.645 51.5425 262.481 50.9207C268.212 50.3195 279.219 47.0443 277.654 32.1712L276.048 16.9042C275.814 14.6765 275.143 12.5167 274.074 10.5483C273.005 8.57994 271.558 6.8415 269.817 5.43236C268.076 4.02321 266.074 2.97099 263.926 2.33581C261.778 1.70064 259.526 1.49496 257.298 1.73054C252.802 2.20594 248.679 4.44655 245.834 7.96017C242.989 11.4738 241.655 15.9731 242.125 20.4696L243.742 35.747Z" fill="#FFD1B8"/>
<path style="mix-blend-mode:multiply" d="M261.112 62.7985C261.112 62.7985 262.771 66.1151 263.807 61.9382L261.112 62.7985Z" fill="url(#paint6_linear_4207_7463)"/>
<path d="M287.812 337.687C293.641 342.157 300.353 345.336 307.504 347.015L306.033 349.875H277.582L278.504 337.324L287.812 337.687Z" fill="#587DF4"/>
<path d="M231.563 162.961V158.484L292.279 160.557L292.341 162.972C256.324 167.211 231.563 162.961 231.563 162.961Z" fill="#587DF4"/>
<path d="M279.697 55.6157C279.697 55.6157 280.733 67.68 263.476 69.2347C246.219 70.7894 241.773 55.2737 241.773 55.2737L231.678 57.1082V161.541C231.678 161.541 256.439 165.791 292.445 161.541L289.885 57.1911L279.697 55.6157Z" fill="white"/>
<path style="mix-blend-mode:multiply" d="M272.669 54.4446C272.669 54.4446 264.129 62.5082 247.297 56.2792L237.43 58.6423L241.472 175.689C234.313 175.708 227.185 174.766 220.276 172.891L219.955 168.247L230.807 58.5801L236.051 55.7609L250.479 53.4393C250.479 53.4393 268.378 52.9521 272.669 54.4446Z" fill="url(#paint7_linear_4207_7463)"/>
<path style="mix-blend-mode:multiply" d="M285.211 56.5176L284.029 171.927L300.478 169.916L300.602 166.527L285.211 56.5176Z" fill="url(#paint8_linear_4207_7463)"/>
<path d="M271.062 54.2165L285.169 56.5174C285.169 56.5174 286.941 114.01 287.418 167.967C287.418 167.967 298.456 166.931 304.447 165.998C304.447 165.998 302.301 116.787 299.171 101.956C299.171 101.956 301.607 60.7876 300.633 59.6889C299.658 58.5903 272.721 53.4702 272.721 53.4702L271.062 54.2165Z" fill="#FFD261"/>
<path d="M250.116 53.9885L235.937 56.2791C235.937 56.2791 234.984 131.992 238.166 169.657C231.475 169.683 224.795 169.118 218.204 167.967C218.204 167.967 216.68 122.975 219.447 99.7687C219.447 99.7687 216.607 60.2591 218.525 58.8184C220.442 57.3777 249.183 53.4392 249.183 53.4392L250.116 53.9885Z" fill="#FFD261"/>
<path d="M231.677 81.6722C231.713 81.8653 231.802 82.0444 231.935 82.1886C232.069 82.3328 232.24 82.4363 232.43 82.4869C232.619 82.5375 232.819 82.5333 233.007 82.4746C233.194 82.416 233.361 82.3054 233.488 82.1556C233.615 82.0059 233.696 81.8232 233.723 81.6288C233.751 81.4344 233.722 81.2363 233.641 81.0575C233.56 80.8787 233.43 80.7267 233.266 80.619C233.101 80.5113 232.91 80.4524 232.714 80.4492C232.416 80.4782 232.141 80.6221 231.948 80.8505C231.754 81.0788 231.657 81.3736 231.677 81.6722Z" fill="white"/>
<path d="M231.677 97.8409C231.713 98.034 231.802 98.2131 231.935 98.3573C232.069 98.5015 232.24 98.605 232.43 98.6556C232.619 98.7062 232.819 98.702 233.007 98.6433C233.194 98.5847 233.361 98.4741 233.488 98.3243C233.615 98.1746 233.696 97.9919 233.723 97.7975C233.751 97.6031 233.722 97.405 233.641 97.2262C233.56 97.0474 233.43 96.8954 233.266 96.7877C233.101 96.68 232.91 96.6211 232.714 96.6179C232.416 96.6469 232.141 96.7908 231.948 97.0192C231.754 97.2475 231.657 97.5423 231.677 97.8409Z" fill="white"/>
<path d="M231.813 115.751C231.839 115.961 231.926 116.158 232.062 116.319C232.199 116.48 232.38 116.598 232.582 116.659C232.785 116.719 233 116.719 233.203 116.658C233.405 116.598 233.586 116.48 233.723 116.319C233.859 116.158 233.946 115.96 233.972 115.751C233.998 115.541 233.963 115.328 233.871 115.138C233.778 114.948 233.632 114.79 233.451 114.681C233.269 114.573 233.06 114.52 232.849 114.528C232.552 114.559 232.279 114.704 232.086 114.932C231.893 115.16 231.795 115.453 231.813 115.751Z" fill="white"/>
<path d="M232.714 133.827C232.749 134.02 232.839 134.199 232.972 134.343C233.105 134.487 233.276 134.591 233.466 134.641C233.656 134.692 233.856 134.688 234.043 134.629C234.23 134.57 234.397 134.46 234.524 134.31C234.651 134.16 234.733 133.977 234.76 133.783C234.787 133.589 234.758 133.391 234.677 133.212C234.596 133.033 234.466 132.881 234.302 132.773C234.138 132.666 233.947 132.607 233.75 132.604C233.454 132.635 233.18 132.78 232.987 133.007C232.794 133.235 232.696 133.529 232.714 133.827Z" fill="white"/>
<path d="M232.714 152.866C232.714 153.152 232.827 153.426 233.03 153.628C233.232 153.831 233.506 153.944 233.792 153.944C234.078 153.944 234.352 153.831 234.554 153.628C234.756 153.426 234.87 153.152 234.87 152.866C234.87 152.58 234.756 152.306 234.554 152.104C234.352 151.902 234.078 151.788 233.792 151.788C233.506 151.788 233.232 151.902 233.03 152.104C232.827 152.306 232.714 152.58 232.714 152.866Z" fill="white"/>
<path d="M243.254 31.0933C245.729 33.6371 248.515 35.8588 251.546 37.7058C255.725 34.791 260.702 33.2381 265.797 33.2595C266.766 33.1364 267.691 32.7808 268.492 32.223C268.492 32.223 274.037 31.7773 277.82 34.2234C277.82 34.2234 284.412 45.9975 275.219 52.0918C266.025 58.1862 237.709 61.99 243.254 31.0933Z" fill="#D86525"/>
<path style="mix-blend-mode:multiply" d="M283.738 102.608C283.738 102.608 264.211 97.4262 238.279 103.645C238.279 103.645 263.216 95.4881 283.738 102.608Z" fill="url(#paint9_linear_4207_7463)"/>
<path d="M218.785 88.8236L219.189 71.8154L217.831 90.2643L218.785 88.8236Z" fill="#EFB229"/>
<path d="M301.027 94.9077L300.457 77.0911L299.68 93.0525L301.027 94.9077Z" fill="#EFB229"/>
<path d="M262.118 30.3264C262.211 30.9172 261.952 31.4561 261.558 31.5183C261.165 31.5805 260.75 31.1452 260.657 30.5544C260.563 29.9636 260.823 29.4247 261.227 29.3625C261.631 29.3003 262.035 29.7252 262.118 30.3264Z" fill="#54443E"/>
<path d="M271.664 28.4815C271.747 29.0204 271.519 29.5179 271.146 29.5179C270.773 29.5179 270.42 29.1863 270.337 28.6473C270.254 28.1084 270.482 27.6109 270.856 27.559C271.229 27.5072 271.591 27.984 271.664 28.4815Z" fill="#54443E"/>
<path d="M257.434 26.481C257.53 26.4786 257.622 26.4477 257.7 26.3923C257.777 26.3369 257.837 26.2595 257.87 26.17C258.109 25.48 258.597 24.9037 259.238 24.5532C259.44 24.4968 259.652 24.489 259.857 24.5304C260.063 24.5719 260.255 24.6613 260.419 24.7916C260.524 24.8574 260.65 24.8791 260.771 24.8519C260.891 24.8247 260.996 24.7508 261.062 24.6464C261.126 24.5381 261.147 24.4093 261.12 24.2862C261.093 24.1631 261.021 24.0547 260.917 23.9831C260.636 23.7761 260.311 23.6382 259.967 23.5805C259.623 23.5229 259.27 23.5472 258.937 23.6515C258.027 24.0975 257.327 24.8826 256.989 25.8384C256.945 25.9553 256.948 26.0849 256.998 26.1992C257.049 26.3136 257.142 26.4036 257.258 26.4499C257.314 26.4726 257.374 26.4832 257.434 26.481Z" fill="#D86525"/>
<path d="M272.203 24.3875C272.308 24.386 272.411 24.3496 272.493 24.2838C272.587 24.2033 272.647 24.0898 272.661 23.9665C272.674 23.8433 272.64 23.7195 272.566 23.6205C272.35 23.2751 272.055 22.986 271.705 22.777C271.356 22.5679 270.961 22.445 270.555 22.4182C270.276 22.4442 270.006 22.531 269.765 22.6725C269.523 22.8139 269.315 23.0066 269.156 23.237C269.121 23.2885 269.097 23.3464 269.085 23.4074C269.073 23.4683 269.073 23.531 269.086 23.5918C269.098 23.6527 269.123 23.7104 269.158 23.7616C269.193 23.8128 269.238 23.8564 269.29 23.89C269.341 23.9249 269.397 23.9494 269.457 23.9621C269.517 23.9748 269.578 23.9753 269.638 23.9637C269.698 23.9521 269.755 23.9286 269.806 23.8946C269.856 23.8605 269.9 23.8167 269.933 23.7656C270.093 23.55 270.331 23.405 270.596 23.3614C270.98 23.3614 271.394 23.6412 271.84 24.2113C271.883 24.2671 271.937 24.3121 272 24.3428C272.063 24.3734 272.133 24.3887 272.203 24.3875Z" fill="#D86525"/>
<path d="M266.098 33.9125H266.191C267.189 33.6511 268.093 33.1162 268.803 32.3682L268.907 32.192L268.814 32.0158C268.247 30.9528 267.822 29.8204 267.549 28.6473C267.544 28.6015 267.53 28.5573 267.507 28.5174C267.484 28.4775 267.453 28.4428 267.416 28.4155C267.379 28.3882 267.337 28.3689 267.292 28.3588C267.247 28.3488 267.2 28.3482 267.155 28.3571C267.063 28.3724 266.979 28.4231 266.923 28.4985C266.867 28.5739 266.843 28.6681 266.855 28.7613C267.115 29.9339 267.529 31.0666 268.088 32.1298C267.475 32.6128 266.769 32.9655 266.015 33.1662C265.925 33.1949 265.85 33.2575 265.806 33.3407C265.761 33.4239 265.751 33.5212 265.777 33.6119C265.788 33.691 265.826 33.7639 265.885 33.8185C265.943 33.8731 266.018 33.9063 266.098 33.9125Z" fill="#F78A63"/>
<path d="M274.525 10.9653C274.525 10.9653 271.582 2.67366 264.233 0.600749C256.885 -1.47216 247.868 2.23835 244.696 5.78302C241.524 9.3277 241.587 17.951 242.24 21.4542L254.677 17.9406C254.677 17.9406 263.808 9.62827 274.525 10.9653Z" fill="#7994FE"/>
<path d="M263.693 0.828795C259.133 -0.446044 253.94 0.497129 249.888 2.23837C254.013 0.352026 259.465 -0.746616 264.232 0.59041C271.581 2.66332 274.524 10.955 274.524 10.955H273.882C273.301 9.47283 270.254 2.66332 263.693 0.828795Z" fill="#C3D1FC"/>
<path d="M261.787 13.3596C259.224 14.5644 256.833 16.105 254.677 17.9407L254.304 18.0444C256.571 16.1464 259.089 14.57 261.787 13.3596Z" fill="#C3D1FC"/>
<path style="mix-blend-mode:multiply" opacity="0.5" d="M244.696 5.78294C245.995 4.43999 247.53 3.34737 249.225 2.55957C240.508 7.6382 246.706 23.1436 254.48 15.3494C256.99 12.8937 260.044 11.0633 263.393 10.0064C266.742 8.94947 270.293 8.69564 273.758 9.26543C274.027 9.81475 274.235 10.3019 274.349 10.561L274.286 10.9549C263.704 9.75257 254.677 17.9406 254.677 17.9406L242.239 21.4541C241.566 17.9509 241.514 9.32762 244.696 5.78294Z" fill="url(#paint10_linear_4207_7463)"/>
<path d="M284.878 16.8731L275.975 16.3342C275.146 14.7857 273.892 13.5059 272.361 12.6449C270.83 11.7839 269.085 11.3775 267.331 11.4732C270.471 10.7174 273.757 10.8199 276.844 11.7699C279.931 12.72 282.706 14.4825 284.878 16.8731Z" fill="#587DF4"/>
<path d="M285.677 16.1477L284.879 16.8732C284.879 16.8732 277.862 11.1831 271.177 11.1831C264.492 11.1831 254.957 18.1377 254.957 18.1377C254.957 18.1377 249.111 19.34 242.239 21.4543C242.239 21.4543 248.531 19.3814 254.677 17.7335C254.677 17.7335 263.082 10.7892 271.26 10.4783C279.438 10.1673 285.677 16.1477 285.677 16.1477Z" fill="#7994FE"/>
<path d="M243.255 31.0932C243.255 31.0932 245.556 29.0824 247.339 22.0656C247.339 22.0656 253.713 26.1078 258.045 18.5521C258.045 18.5521 276.784 24.9159 277.987 19.744C279.189 14.5721 273.644 10.5403 268.596 11.4524C268.596 11.4524 262.44 12.6857 254.957 18.1168C254.957 18.1168 245.867 20.1171 242.239 21.4334C242.236 24.6801 242.577 27.918 243.255 31.0932Z" fill="#D86525"/>
<g style="mix-blend-mode:multiply" opacity="0.6">
<path d="M249.526 19.4021C252.407 18.6558 254.957 18.1376 254.957 18.1376C262.44 12.7066 268.596 11.4732 268.596 11.4732C270.635 11.1415 272.725 11.5339 274.504 12.5822C271.156 12.5822 263.362 13.2352 258.667 18.8009L258.045 18.5936C257.859 18.9149 257.672 19.2051 257.486 19.485L242.239 21.4542C242.239 21.4542 245.691 20.4282 249.526 19.4021Z" fill="#F78A63"/>
</g>
<g style="mix-blend-mode:multiply" opacity="0.6">
<path d="M243.255 31.0933C243.255 31.0933 243.431 31.2902 243.753 31.6115C243.641 32.4707 243.582 33.3361 243.577 34.2026C243.552 36.8825 244.056 39.541 245.06 42.0259C246.064 44.5108 247.547 46.7734 249.427 48.6843C251.306 50.5951 253.543 52.1168 256.011 53.1621C258.479 54.2074 261.128 54.7559 263.808 54.7762C266.719 54.7759 269.595 54.1405 272.236 52.9143C274.876 51.6881 277.217 49.9006 279.096 47.6765C278.244 49.486 276.896 51.017 275.209 52.0918C265.985 58.1758 237.71 61.99 243.255 31.0933Z" fill="#F78A63"/>
</g>
<path d="M283.843 336.723C283.843 336.723 280.226 348.373 279.614 336.723H283.843Z" fill="#FFD1B8"/>
<path d="M217.841 136.739C218.965 136.69 220.087 136.873 221.137 137.278C222.196 138.212 223.102 139.307 223.821 140.522L221.137 140.647C220.385 141.498 219.825 142.502 219.498 143.59C219.171 144.677 219.083 145.823 219.24 146.948L221.873 147.124C221.873 147.124 223.448 150.006 221.873 151.115C220.671 151.887 219.351 152.457 217.965 152.804C217.851 148.057 217.81 142.533 217.841 136.739Z" fill="#EFB229"/>
<path d="M232.797 333.334L225.221 333.686C225.221 333.686 222.112 339.905 223.148 333.458L220.806 334.857L226.496 349.855H241.379L242.975 347.274C241.105 346.453 239.329 345.431 237.679 344.227C236.218 342.9 232.797 333.334 232.797 333.334Z" fill="#587DF4"/>
<path d="M251.567 237.4L273.343 234.591L271.768 228.921L251.567 233.16V237.4Z" fill="#99928C"/>
<path d="M268.399 327.188L229.615 146.948L219.137 145.352L221.013 141.984H235.606L273.343 324.721" fill="#B2AAA1"/>
<path d="M333.271 329.54L319.185 145.715L309.018 142.719L311.329 139.631L325.787 141.61L338.494 327.768" fill="#B2AAA1"/>
<path d="M350.414 87.3831L361.649 186.478L262.657 206.503L240.519 100.1L350.414 87.3831Z" fill="#BC9146"/>
<path d="M320.615 194.781L316.49 138.74L314.335 141.206L312.148 139.227L310.852 142.554L308.261 139.652L306.105 142.118L302.602 139.227L300.861 142.709L297.544 141.455L307.442 197.444L320.615 194.781Z" fill="#EDCC98"/>
<path d="M313.236 89.2488L316.003 126.592L314.366 125.535L312.842 130.5L310.344 121.379L307.401 127.142L303.141 125.141L301.369 128.126L299.524 126.333L297.337 131.122L292.455 90.8864L305.4 88.8135L305.566 90.1712L313.236 89.2488Z" fill="#EDCC98"/>
<path d="M361.649 186.479L335.137 210.079L257.568 226.423L262.657 206.503L361.649 186.479Z" fill="#A0742D"/>
<path d="M320.616 194.781L306.157 216.183L297.254 218.059L307.453 197.444L320.616 194.781Z" fill="#CEA974"/>
<path d="M240.518 100.1L231.128 133.847L257.568 226.423L262.657 206.503L240.518 100.1Z" fill="#AA7D35"/>
<g style="mix-blend-mode:multiply" opacity="0.4">
<path d="M328.12 194.573L328.182 191.391L341.283 191.153L341.262 192.521L348.994 192.687L348.828 195.102L351.876 195.185L335.137 210.079L300.364 217.406L297.254 218.059L261.476 225.605L261.435 225.314L275.468 193.226L328.12 194.573Z" fill="#AA7D35"/>
</g>
<path d="M388.866 198.304L386.078 298.001L285.262 303.93L278.276 195.465L388.866 198.304Z" fill="#BC9146"/>
<path d="M344.288 300.457L348.061 244.385L345.584 246.531L343.697 244.261L341.946 247.37L339.79 244.136L337.313 246.282L334.245 242.924L332.037 246.126L328.928 244.416L330.866 301.245L344.288 300.457Z" fill="#EDCC98"/>
<path d="M351.792 194.926L349.294 232.3L347.823 231.025L345.605 235.721L344.423 226.341L340.702 231.627L336.764 229.056L334.587 231.751L333.012 229.73L330.172 234.155L330.991 193.64L344.091 193.402L344.071 194.77L351.792 194.926Z" fill="#EDCC98"/>
<path d="M386.078 298.001L356.519 317.642L277.427 322.938L285.262 303.929L386.078 298.001Z" fill="#A0742D"/>
<path d="M344.288 300.458L326.969 319.622L317.89 320.233L330.876 301.245L344.288 300.458Z" fill="#CEA974"/>
<path d="M278.276 195.465L264.232 227.564L277.426 322.938L285.262 303.93L278.276 195.465Z" fill="#AA7D35"/>
<path d="M348.797 350C356.498 350 362.758 340.972 362.779 329.81C362.8 318.647 356.56 309.578 348.89 309.568H344.112L343.335 349.99L348.797 350Z" fill="#282828"/>
<path d="M330.141 329.748C330.141 340.91 336.359 349.979 344.029 350C351.699 350.021 357.99 340.972 358.011 329.81C358.032 318.647 351.792 309.578 344.122 309.568C336.453 309.558 330.203 318.585 330.141 329.748Z" fill="#210F00"/>
<path d="M333.25 330.038C333.25 338.578 337.987 345.502 343.863 345.512C349.74 345.523 354.528 338.62 354.549 330.09C354.57 321.56 349.813 314.626 343.936 314.615C338.059 314.605 333.25 321.508 333.25 330.038Z" fill="#DBDAD9"/>
<path d="M333.457 329.758C333.457 338.288 338.194 345.222 344.081 345.232C349.968 345.243 354.735 338.34 354.756 329.799C354.777 321.259 350.02 314.336 344.143 314.325C338.266 314.315 333.478 321.218 333.457 329.758Z" fill="#848281"/>
<path d="M334.95 329.758C334.95 337.096 339.023 343.045 344.081 343.066C349.139 343.087 353.254 337.138 353.264 329.8C353.275 322.461 349.201 316.502 344.144 316.491C339.086 316.481 334.971 322.42 334.95 329.758Z" fill="#B2AAA1"/>
<path d="M353.067 330.09C353.067 322.752 348.994 316.792 343.936 316.782C342.65 316.843 341.398 317.215 340.287 317.867C339.177 318.518 338.242 319.43 337.562 320.523C339.23 318.036 341.562 316.491 344.143 316.491C349.201 316.491 353.285 322.461 353.264 329.8C353.322 333.187 352.342 336.511 350.455 339.325C352.205 336.566 353.113 333.357 353.067 330.09Z" fill="#5E5B5A"/>
<path d="M343.376 330.836C343.376 331.261 343.614 331.603 343.905 331.603C344.195 331.603 344.433 331.261 344.444 330.836C344.454 330.411 344.205 330.069 343.905 330.069C343.604 330.069 343.376 330.411 343.376 330.836Z" fill="#B2AAA1"/>
<g style="mix-blend-mode:multiply">
<path d="M362.789 328.898L357.928 327.861L337.593 335.013H330.504L330.203 333.831L361.649 322.544C362.372 324.586 362.757 326.732 362.789 328.898Z" fill="#D8D5D2"/>
</g>
<path d="M260.719 329.717L297.917 306.749L393.53 304.095L395.002 306.459L338.214 333.811H260.719V329.717Z" fill="#B2AAA1"/>
<path d="M297.917 306.749L393.53 304.095L394.649 305.899L298.207 308.366L263.072 331.479V333.811H260.719V329.717L297.917 306.749Z" fill="#D8D5D2"/>
<path d="M264.139 349.927C271.84 349.927 278.1 340.91 278.121 329.748C278.141 318.585 271.902 309.516 264.232 309.495H259.454L258.677 349.917L264.139 349.927Z" fill="#282828"/>
<path d="M245.473 329.686C245.473 340.848 251.691 349.907 259.361 349.927C267.031 349.948 273.322 340.91 273.343 329.748C273.364 318.585 267.124 309.516 259.454 309.495C251.785 309.475 245.504 318.513 245.473 329.686Z" fill="#210F00"/>
<path d="M248.562 329.976C248.562 338.516 253.298 345.44 259.175 345.45C265.052 345.46 269.84 338.558 269.861 330.028C269.881 321.498 265.124 314.564 259.247 314.553C253.371 314.543 248.582 321.446 248.562 329.976Z" fill="#DBDAD9"/>
<path d="M248.758 329.696C248.758 338.226 253.494 345.149 259.381 345.17C265.269 345.191 270.026 338.278 270.026 329.737C270.026 321.197 265.289 314.273 259.413 314.263C253.536 314.253 248.779 321.155 248.758 329.696Z" fill="#848281"/>
<path d="M250.251 329.696C250.251 337.034 254.324 342.994 259.382 343.004C264.44 343.014 268.555 337.075 268.565 329.737C268.575 322.399 264.502 316.44 259.444 316.429C254.386 316.419 250.272 322.337 250.251 329.696Z" fill="#B2AAA1"/>
<path d="M268.368 330.017C268.368 322.679 264.294 316.73 259.236 316.719C257.95 316.78 256.698 317.153 255.588 317.804C254.478 318.456 253.542 319.368 252.862 320.461C254.531 317.974 256.863 316.419 259.444 316.429C264.502 316.429 268.585 322.399 268.565 329.737C268.623 333.125 267.643 336.449 265.756 339.262C267.507 336.5 268.415 333.287 268.368 330.017Z" fill="#5E5B5A"/>
<path d="M258.677 330.774C258.677 331.199 258.915 331.541 259.205 331.541C259.496 331.541 259.734 331.199 259.744 330.774C259.755 330.349 259.506 330.007 259.216 330.007C258.926 330.007 258.677 330.349 258.677 330.774Z" fill="#B2AAA1"/>
<path d="M226.247 141.994L225.376 140.377L207.663 141.185C207.663 141.185 205.797 142.118 206.626 146.119L224.422 147.477L225.459 146.316L223.728 146.005C223.602 144.626 223.845 143.238 224.433 141.983L226.247 141.994Z" fill="#DF4200"/>
<path d="M207.663 141.175H208.585C207.549 144.492 221.147 146.243 221.147 146.243C221.333 144.246 221.903 142.303 222.826 140.522L225.376 140.408L226.247 142.025H224.474C223.887 143.279 223.643 144.667 223.769 146.047L225.5 146.357L224.422 147.477L206.668 146.14C205.766 142.108 207.663 141.175 207.663 141.175Z" fill="#BA3506"/>
<path d="M335.541 89.1347C335.541 89.1347 336.577 86.3259 338.288 86.5021C339.998 86.6783 340.765 94.9907 338.64 94.9388C336.515 94.887 336.567 88.9792 336.567 88.9792L335.541 89.1347Z" fill="#FFD1B8"/>
<path d="M338.132 89.228C338.132 89.228 338.474 86.243 340.143 86.0046C341.811 85.7662 344.641 93.6122 342.578 94.0889C340.516 94.5657 339.044 88.8341 339.044 88.8341L338.132 89.228Z" fill="#FFD1B8"/>
<path d="M341.666 88.4714C341.666 88.4714 342.609 85.6108 344.299 85.7144C345.988 85.8181 347.139 94.089 345.024 94.1304C342.91 94.1719 342.64 88.2641 342.64 88.2641L341.666 88.4714Z" fill="#FFD1B8"/>
<path d="M345.688 87.9222C345.688 87.9222 346.61 85.5591 348.03 85.7249C349.45 85.8907 350.051 92.9801 348.258 92.8661C346.465 92.7521 346.517 87.7978 346.517 87.7978L345.688 87.9222Z" fill="#FFD1B8"/>
<path d="M221.82 140.522C221.105 139.304 220.199 138.208 219.136 137.278C217.84 136.356 208.771 136.553 206.066 138.076C203.361 139.6 203.993 145.891 208.191 150.254C210.761 152.96 217.27 152.908 219.83 151.115C221.406 150.006 219.83 147.124 219.83 147.124L217.167 146.948C217.019 145.819 217.116 144.672 217.452 143.585C217.789 142.497 218.356 141.495 219.115 140.647L221.82 140.522Z" fill="#FFD1B8"/>
<path d="M217.831 136.905C217.831 136.905 209.715 104.319 201.247 101.666C192.779 99.0122 185.835 98.9811 184.198 103.645C182.56 108.309 191.256 126.768 204.585 140.367C204.585 140.367 207.404 136.656 217.831 136.905Z" fill="#FFD261"/>
<path d="M204.439 105.189C204.439 105.189 201.63 103.438 196.687 104.847L204.439 105.189Z" fill="#EFB229"/>
<path d="M205.957 35.6457C207.629 34.2464 211.064 33.2178 214.969 35.3534L218.288 37.2691C216.312 40.2043 209.612 44.7006 207.288 42.4979C205.535 40.8362 204.579 36.7995 205.957 35.6457Z" fill="#9AB6DB"/>
<path d="M219.926 47.5235C220.992 47.1769 222.377 45.9599 222.512 43.6752L222.582 41.7059C220.764 41.7664 216.976 43.46 217.302 45.0739C217.548 46.2915 219.047 47.8094 219.926 47.5235Z" fill="#9AB6DB"/>
<defs>
<linearGradient id="paint0_linear_4207_7463" x1="260.045" y1="63.6898" x2="260.045" y2="29.6008" gradientUnits="userSpaceOnUse">
<stop stop-color="white" stop-opacity="0"/>
<stop offset="1" stop-color="#EFBBAB"/>
</linearGradient>
<linearGradient id="paint1_linear_4207_7463" x1="260.045" y1="66.2808" x2="260.045" y2="32.1918" gradientUnits="userSpaceOnUse">
<stop stop-color="white" stop-opacity="0"/>
<stop offset="1" stop-color="#EFBBAB"/>
</linearGradient>
<linearGradient id="paint2_linear_4207_7463" x1="290.113" y1="19.4489" x2="284.188" y2="17.8498" gradientUnits="userSpaceOnUse">
<stop stop-color="white" stop-opacity="0"/>
<stop offset="1" stop-color="#EFBBAB"/>
</linearGradient>
<linearGradient id="paint3_linear_4207_7463" x1="289.681" y1="19.1814" x2="285.61" y2="18.0792" gradientUnits="userSpaceOnUse">
<stop stop-color="white" stop-opacity="0"/>
<stop offset="1" stop-color="#EFBBAB"/>
</linearGradient>
<linearGradient id="paint4_linear_4207_7463" x1="211.741" y1="64.5868" x2="217.226" y2="61.8352" gradientUnits="userSpaceOnUse">
<stop stop-color="white" stop-opacity="0"/>
<stop offset="1" stop-color="#EFBBAB"/>
</linearGradient>
<linearGradient id="paint5_linear_4207_7463" x1="212.101" y1="64.2498" x2="215.938" y2="62.3177" gradientUnits="userSpaceOnUse">
<stop stop-color="white" stop-opacity="0"/>
<stop offset="1" stop-color="#EFBBAB"/>
</linearGradient>
<linearGradient id="paint6_linear_4207_7463" x1="268.414" y1="57.1498" x2="266.009" y2="65.7881" gradientUnits="userSpaceOnUse">
<stop stop-color="white" stop-opacity="0"/>
<stop offset="1" stop-color="#EFBBAB"/>
</linearGradient>
<linearGradient id="paint7_linear_4207_7463" x1="370.355" y1="218.008" x2="224.495" y2="95.1773" gradientUnits="userSpaceOnUse">
<stop stop-color="white" stop-opacity="0"/>
<stop offset="1" stop-color="#EFBBAB"/>
</linearGradient>
<linearGradient id="paint8_linear_4207_7463" x1="162.101" y1="99.8414" x2="345.097" y2="121.317" gradientUnits="userSpaceOnUse">
<stop stop-color="white" stop-opacity="0"/>
<stop offset="1" stop-color="#EFBBAB"/>
</linearGradient>
<linearGradient id="paint9_linear_4207_7463" x1="251.1" y1="144.057" x2="259.317" y2="91.9673" gradientUnits="userSpaceOnUse">
<stop stop-color="white" stop-opacity="0"/>
<stop offset="1" stop-color="#EFBBAB"/>
</linearGradient>
<linearGradient id="paint10_linear_4207_7463" x1="278.971" y1="-36.0173" x2="251.153" y2="26.7504" gradientUnits="userSpaceOnUse">
<stop stop-color="white" stop-opacity="0"/>
<stop offset="1" stop-color="#BAC4E2"/>
</linearGradient>
</defs>
</svg>
