<svg width="416" height="360" viewBox="0 0 416 360" fill="none" xmlns="http://www.w3.org/2000/svg">
<path opacity="0.5" d="M0.0543915 187.914C3.06634 84.2202 106.763 -2.75766 198.728 3.29835C282.661 8.79819 367.425 77.4536 402.077 158.932C429.644 223.601 416.42 297.509 361.115 339.839C277.297 404.076 249.874 286.973 178.304 277.734C120.934 270.35 28.0224 319.818 5.30378 232.963C1.42851 218.324 -0.341823 203.131 0.0543915 187.914Z" fill="white"/>
<path d="M377.409 80.0856C371.275 65.5454 360.299 53.5752 346.345 46.2059C332.39 38.8367 316.315 36.5223 300.848 39.6555C285.381 42.7886 271.475 51.1764 261.488 63.3955C251.501 75.6147 246.05 90.9126 246.058 106.694V346.436C246.058 347.031 246.175 347.62 246.403 348.17C246.631 348.719 246.964 349.219 247.385 349.639C247.806 350.06 248.305 350.394 248.855 350.622C249.405 350.849 249.994 350.966 250.589 350.966C251.184 350.966 251.773 350.849 252.322 350.622C252.872 350.394 253.372 350.06 253.792 349.639C254.213 349.219 254.547 348.719 254.774 348.17C255.002 347.62 255.119 347.031 255.119 346.436V316.693H373.723V346.436C373.691 347.05 373.784 347.664 373.997 348.241C374.21 348.817 374.538 349.345 374.962 349.791C375.385 350.236 375.895 350.591 376.46 350.834C377.024 351.077 377.633 351.202 378.248 351.202C378.862 351.202 379.471 351.077 380.036 350.834C380.6 350.591 381.11 350.236 381.533 349.791C381.957 349.345 382.285 348.817 382.498 348.241C382.711 347.664 382.804 347.05 382.772 346.436V106.694C382.793 97.5538 380.969 88.5037 377.409 80.0856ZM373.735 307.632H255.119V132.114H373.723L373.735 307.632ZM373.735 128.159H255.119V106.694C255.119 90.9658 261.367 75.8822 272.488 64.7609C283.61 53.6396 298.693 47.3918 314.421 47.3918C330.149 47.3918 345.233 53.6396 356.354 64.7609C367.475 75.8822 373.723 90.9658 373.723 106.694L373.735 128.159Z" fill="#D37A51"/>
<mask id="mask0_4210_9551" style="mask-type:luminance" maskUnits="userSpaceOnUse" x="246" y="38" width="137" height="314">
<path d="M377.409 80.0856C371.275 65.5454 360.299 53.5752 346.345 46.2059C332.39 38.8367 316.315 36.5223 300.848 39.6555C285.381 42.7886 271.475 51.1764 261.488 63.3955C251.501 75.6147 246.05 90.9126 246.058 106.694V346.436C246.058 347.031 246.175 347.62 246.403 348.17C246.631 348.719 246.964 349.219 247.385 349.639C247.806 350.06 248.305 350.394 248.855 350.622C249.405 350.849 249.994 350.966 250.589 350.966C251.184 350.966 251.773 350.849 252.322 350.622C252.872 350.394 253.372 350.06 253.792 349.639C254.213 349.219 254.547 348.719 254.774 348.17C255.002 347.62 255.119 347.031 255.119 346.436V316.693H373.723V346.436C373.691 347.05 373.784 347.664 373.997 348.241C374.21 348.817 374.538 349.345 374.962 349.791C375.385 350.236 375.895 350.591 376.46 350.834C377.024 351.077 377.633 351.202 378.248 351.202C378.862 351.202 379.471 351.077 380.036 350.834C380.6 350.591 381.11 350.236 381.533 349.791C381.957 349.345 382.285 348.817 382.498 348.241C382.711 347.664 382.804 347.05 382.772 346.436V106.694C382.793 97.5538 380.969 88.5037 377.409 80.0856ZM373.735 307.632H255.119V132.114H373.723L373.735 307.632ZM373.735 128.159H255.119V106.694C255.119 90.9658 261.367 75.8822 272.488 64.7609C283.61 53.6396 298.693 47.3918 314.421 47.3918C330.149 47.3918 345.233 53.6396 356.354 64.7609C367.475 75.8822 373.723 90.9658 373.723 106.694L373.735 128.159Z" fill="white"/>
</mask>
<g mask="url(#mask0_4210_9551)">
<path opacity="0.15" d="M255.12 307.632C255.12 308.71 255.548 309.744 256.31 310.506C257.073 311.269 258.107 311.697 259.185 311.697H372.034C373.388 311.697 374.687 311.159 375.644 310.202C376.602 309.244 377.14 307.945 377.14 306.591V134.575C377.138 134.165 377.038 133.761 376.85 133.397C376.662 133.033 376.39 132.718 376.056 132.479C375.723 132.24 375.338 132.084 374.932 132.022C374.527 131.961 374.112 131.997 373.723 132.126L347.85 174.2L280.92 271.35L266.067 295.509L255.169 307.632" fill="white"/>
<path opacity="0.15" d="M373.723 128.159C373.723 128.159 376.356 130.608 376.356 115.081C377.237 95.367 370.588 50.1834 314.421 47.3916C307.013 76.314 366.658 121.13 366.658 121.13L373.723 128.159Z" fill="white"/>
<g style="mix-blend-mode:multiply" opacity="0.4">
<path d="M373.723 316.693L375.67 314.464H252.071V345.579C252.071 345.579 250.467 351.811 246.059 346.436C241.65 341.06 239.128 352.093 239.128 352.093C242.383 353.909 245.967 355.06 249.67 355.48C253.374 355.901 257.124 355.582 260.703 354.542C272.887 351.028 373.723 316.693 373.723 316.693Z" fill="#64B0D1"/>
</g>
<path opacity="0.15" d="M302.507 39.31C302.507 39.31 263.116 43.8284 249.854 92.9303C248.908 96.444 248.426 100.067 248.422 103.706V337.754C248.422 339.634 247.675 341.438 246.345 342.767C245.016 344.097 243.212 344.844 241.332 344.844V110.698C241.332 110.698 241.577 81.1874 245.569 72.5426C249.561 63.8977 284.997 37.1059 302.507 39.31Z" fill="white"/>
<g style="mix-blend-mode:multiply" opacity="0.4">
<path d="M255.12 128.159C254.207 128.161 253.328 127.815 252.662 127.191C251.995 126.568 251.591 125.714 251.532 124.804C250.552 110.244 250.626 53.1467 311.667 47.3916C308.777 95.8078 276.658 120.298 276.658 120.298L255.12 128.159Z" fill="#64B0D1"/>
</g>
<g style="mix-blend-mode:multiply" opacity="0.4">
<path d="M255.12 132.114C255.12 132.114 252.071 131.575 252.291 140.171C252.487 147.751 252.854 272.415 252.94 301.558C252.94 303.182 253.585 304.739 254.733 305.887C255.882 307.036 257.439 307.681 259.063 307.681L269.593 176.281L255.12 132.114Z" fill="#64B0D1"/>
</g>
<path opacity="0.15" d="M371.581 323.942C371.581 323.942 373.65 316.35 376.332 316.779C379.013 317.207 379.222 346.166 377.556 346.289C375.891 346.411 373.283 343.705 371.887 336.689C371.033 332.491 370.93 328.176 371.581 323.942Z" fill="white"/>
</g>
<mask id="mask1_4210_9551" style="mask-type:luminance" maskUnits="userSpaceOnUse" x="293" y="119" width="52" height="45">
<path d="M318.712 163.028C314.115 163.028 296.77 161.442 293.578 160.017C291.023 158.887 302.127 150.062 302.127 148.808C302.127 148.029 314.913 134.341 316.822 128.632H308.568C311.208 123.493 314.552 119.399 318.352 119.399C336.4 119.399 344.749 158.108 344.749 159.362C344.778 161.831 328.61 163.028 318.712 163.028Z" fill="white"/>
</mask>
<g mask="url(#mask1_4210_9551)">
<path d="M341.273 158.269H296.627C296.445 158.269 296.267 158.207 296.123 158.095C295.979 157.983 295.876 157.826 295.83 157.649C295.785 157.472 295.799 157.285 295.871 157.117C295.943 156.949 296.069 156.81 296.228 156.721L318.076 144.657V134.845C318.076 134.154 318.35 133.492 318.838 133.004C319.326 132.516 319.989 132.242 320.679 132.242C321.294 132.242 321.885 131.998 322.321 131.564C322.757 131.129 323.004 130.54 323.006 129.924C323.006 128.856 322.582 127.832 321.826 127.076C321.071 126.321 320.047 125.897 318.978 125.897C317.91 125.897 316.886 126.321 316.131 127.076C315.375 127.832 314.951 128.856 314.951 129.924C314.951 130.143 314.864 130.354 314.709 130.509C314.554 130.664 314.344 130.751 314.124 130.751C313.905 130.751 313.695 130.664 313.54 130.509C313.385 130.354 313.298 130.143 313.298 129.924C313.298 128.413 313.899 126.963 314.967 125.894C316.036 124.825 317.486 124.225 318.997 124.225C320.509 124.225 321.959 124.825 323.028 125.894C324.096 126.963 324.697 128.413 324.697 129.924C324.697 130.977 324.279 131.987 323.534 132.732C322.789 133.476 321.779 133.895 320.726 133.895C320.474 133.895 320.233 133.995 320.055 134.173C319.876 134.351 319.776 134.593 319.776 134.845V144.657L341.738 156.721C341.898 156.81 342.023 156.949 342.095 157.117C342.167 157.285 342.182 157.472 342.136 157.649C342.091 157.826 341.988 157.983 341.843 158.095C341.699 158.207 341.522 158.269 341.339 158.269H341.273ZM299.829 156.616H338.062L318.883 146.082L299.829 156.616Z" fill="#A3E4FF"/>
</g>
<path d="M338.964 160.9H299.334V170.827H338.964V160.9Z" fill="#A4DEF6"/>
<mask id="mask2_4210_9551" style="mask-type:luminance" maskUnits="userSpaceOnUse" x="299" y="160" width="40" height="11">
<path d="M338.964 160.9H299.334V170.827H338.964V160.9Z" fill="white"/>
</mask>
<g mask="url(#mask2_4210_9551)">
<g style="mix-blend-mode:multiply" opacity="0.4">
<path d="M329.654 157.709C329.654 157.709 335.002 166.182 322.9 166.467C310.799 166.752 297.994 166.467 297.994 166.467L298.678 172.594L344.777 174.199L340.588 157.443L329.654 157.709Z" fill="#A4DEF6"/>
</g>
<path opacity="0.15" d="M297.994 163.028C297.994 163.028 327.251 166.438 325.693 157.709C324.136 148.979 297.529 153.719 297.994 163.028Z" fill="white"/>
</g>
<path d="M299.353 170.827L281.429 218.768C281.429 218.768 319.89 236.636 354.818 218.768L338.964 170.827H299.353Z" fill="#A4DEF6"/>
<mask id="mask3_4210_9551" style="mask-type:luminance" maskUnits="userSpaceOnUse" x="281" y="170" width="74" height="57">
<path d="M299.353 170.827L281.429 218.768C281.429 218.768 319.89 236.636 354.818 218.768L338.964 170.827H299.353Z" fill="white"/>
</mask>
<g mask="url(#mask3_4210_9551)">
<path d="M320.669 168.462H317.629V243.675H320.669V168.462Z" fill="#A4DEF6"/>
<path d="M291.041 240.34L288.097 239.609L307.627 166.799L310.571 167.531L291.041 240.34Z" fill="#A4DEF6"/>
<path d="M347.304 240.34L350.24 239.609L330.719 166.799L327.774 167.531L347.304 240.34Z" fill="#A4DEF6"/>
<g style="mix-blend-mode:multiply" opacity="0.2">
<path d="M324.051 170.827C324.051 170.827 333.236 209.117 326.777 212.622C320.318 216.128 288.904 218.683 284.582 205.631C280.26 192.58 275.463 223.546 275.463 223.546C275.463 223.546 315.682 237.975 343.153 228.666C370.624 219.357 360.812 206.79 360.812 206.79L338.964 164.918L324.051 170.827Z" fill="#A4DEF6"/>
</g>
<path opacity="0.15" d="M292.704 168.424C292.704 168.424 278.912 194.261 279.406 200.141C279.899 206.021 302.203 208.547 308.035 206.239C313.868 203.931 312.073 167.692 312.073 167.692L292.704 168.424Z" fill="white"/>
</g>
<path d="M336.2 156.455H334.633V161.993H336.2V156.455Z" fill="#CDF0FF"/>
<mask id="mask4_4210_9551" style="mask-type:luminance" maskUnits="userSpaceOnUse" x="334" y="156" width="3" height="6">
<path d="M336.2 156.455H334.633V161.993H336.2V156.455Z" fill="white"/>
</mask>
<g mask="url(#mask4_4210_9551)">
<g style="mix-blend-mode:multiply" opacity="0.2">
<path d="M335.45 155.933C335.45 155.933 336.21 161.119 333.892 161.015C331.574 160.91 334.206 162.743 335.45 162.8C336.694 162.857 336.808 159.362 336.808 159.362L336.875 155.809L335.45 155.933Z" fill="#A4DEF6"/>
</g>
</g>
<path d="M335.677 157.443C335.677 157.477 335.67 157.51 335.657 157.541C335.645 157.572 335.626 157.601 335.602 157.624C335.578 157.648 335.55 157.667 335.519 157.68C335.488 157.693 335.454 157.699 335.421 157.699C335.387 157.699 335.354 157.693 335.322 157.68C335.291 157.667 335.263 157.648 335.239 157.624C335.215 157.601 335.196 157.572 335.184 157.541C335.171 157.51 335.164 157.477 335.164 157.443C335.164 157.375 335.191 157.31 335.239 157.262C335.287 157.214 335.353 157.187 335.421 157.187C335.489 157.187 335.554 157.214 335.602 157.262C335.65 157.31 335.677 157.375 335.677 157.443Z" fill="#A4DEF6"/>
<path d="M335.677 161.271C335.677 161.322 335.662 161.371 335.634 161.414C335.606 161.456 335.566 161.489 335.519 161.508C335.472 161.527 335.42 161.533 335.371 161.523C335.321 161.513 335.275 161.488 335.239 161.452C335.203 161.417 335.179 161.371 335.169 161.321C335.159 161.271 335.164 161.22 335.184 161.173C335.203 161.126 335.236 161.086 335.278 161.058C335.32 161.03 335.37 161.015 335.421 161.015C335.489 161.015 335.554 161.042 335.602 161.09C335.65 161.138 335.677 161.203 335.677 161.271Z" fill="#A4DEF6"/>
<path d="M303.856 156.455H302.289V161.993H303.856V156.455Z" fill="#CDF0FF"/>
<mask id="mask5_4210_9551" style="mask-type:luminance" maskUnits="userSpaceOnUse" x="302" y="156" width="2" height="6">
<path d="M303.856 156.455H302.289V161.993H303.856V156.455Z" fill="white"/>
</mask>
<g mask="url(#mask5_4210_9551)">
<g style="mix-blend-mode:multiply" opacity="0.2">
<path d="M303.078 155.933C303.078 155.933 303.838 161.119 301.52 161.015C299.202 160.91 301.834 162.743 303.078 162.8C304.322 162.857 304.436 159.362 304.436 159.362L304.503 155.809L303.078 155.933Z" fill="#A4DEF6"/>
</g>
</g>
<path d="M303.333 157.443C303.333 157.512 303.306 157.578 303.258 157.628C303.211 157.677 303.145 157.707 303.077 157.709C303.007 157.707 302.94 157.678 302.891 157.628C302.842 157.579 302.813 157.513 302.811 157.443C302.813 157.374 302.842 157.309 302.892 157.261C302.941 157.213 303.008 157.186 303.077 157.187C303.145 157.187 303.21 157.214 303.258 157.262C303.306 157.31 303.333 157.375 303.333 157.443Z" fill="#A4DEF6"/>
<path d="M303.333 161.271C303.333 161.339 303.306 161.404 303.258 161.452C303.21 161.501 303.145 161.528 303.077 161.528C303.009 161.528 302.944 161.501 302.895 161.452C302.847 161.404 302.82 161.339 302.82 161.271C302.82 161.203 302.847 161.138 302.895 161.09C302.944 161.042 303.009 161.015 303.077 161.015C303.145 161.015 303.21 161.042 303.258 161.09C303.306 161.138 303.333 161.203 303.333 161.271Z" fill="#A4DEF6"/>
<path d="M249.217 158.583L253.093 144.714L256.968 141.845H267.626L272.471 142.662L277.182 144.714L281.77 158.583L273.725 172.708L262.373 179.765L254.062 167.996L249.217 158.583Z" fill="#69C0E5"/>
<path d="M279.063 152.646C279.063 152.646 303.865 160.91 306.43 169.915C308.995 178.92 318.551 221.894 311.389 261.2H300.189C300.189 261.2 301.472 200.587 295.041 195.809C295.041 195.809 288.287 234.936 296.532 263.043C296.532 263.043 259.591 291.141 232.594 263.043C232.594 263.043 243.157 203.2 233.924 195.173C233.924 195.173 224.425 243.361 227.446 261.153H215.762C215.762 261.153 210.5 187.355 221.528 170.542C232.556 153.729 251.421 152.646 251.421 152.646L254.585 160.454L264.255 174.541L275.444 160.492L279.063 152.646Z" fill="#CDF0FF"/>
<mask id="mask6_4210_9551" style="mask-type:luminance" maskUnits="userSpaceOnUse" x="214" y="152" width="101" height="124">
<path d="M279.063 152.646C279.063 152.646 303.865 160.91 306.43 169.915C308.995 178.92 318.551 221.894 311.389 261.2H300.189C300.189 261.2 301.472 200.587 295.041 195.809C295.041 195.809 288.287 234.936 296.532 263.043C296.532 263.043 259.591 291.141 232.594 263.043C232.594 263.043 243.157 203.2 233.924 195.173C233.924 195.173 224.425 243.361 227.446 261.153H215.762C215.762 261.153 210.5 187.355 221.528 170.542C232.556 153.729 251.421 152.646 251.421 152.646L254.585 160.454L264.255 174.541L275.444 160.492L279.063 152.646Z" fill="white"/>
</mask>
<g mask="url(#mask6_4210_9551)">
<g style="mix-blend-mode:multiply" opacity="0.2">
<path d="M278.389 159.362C278.389 159.362 300.987 166.534 302.544 174.902C304.102 183.271 311.227 221.932 309.992 235.031C308.757 248.13 308.092 259.206 298.944 252.433L295.04 195.848L294.47 182.739C294.47 182.739 283.926 199.419 285.161 227.033C286.396 254.646 256.607 250.609 256.607 250.609C256.607 250.609 274.294 255.672 284.848 244.615C284.848 244.615 290.12 260.042 246.985 260.298C246.985 260.298 264.672 266.757 276.774 262.103C276.774 262.103 255.876 278.251 232.955 257.287L228.319 271.64C228.319 271.64 249.778 279.087 271.502 280.37C293.226 281.652 321.153 265.418 321.457 242.193C321.761 218.968 321.314 171.017 311.768 161.452C302.221 151.886 279.785 149.103 279.785 149.103L278.389 159.362Z" fill="#A4DEF6"/>
</g>
<g style="mix-blend-mode:multiply" opacity="0.2">
<path d="M243.432 208.215C243.432 208.215 265.156 204.245 281.77 205.632C281.77 205.632 252.893 210.191 243.432 208.215Z" fill="#A4DEF6"/>
</g>
<g style="mix-blend-mode:multiply" opacity="0.2">
<path d="M233.924 195.211L229.307 179.766C229.307 179.766 225.508 189.949 224.093 206.752C223.938 208.57 223.394 210.333 222.5 211.923C221.605 213.512 220.379 214.891 218.906 215.967L218.754 216.081H223.409C223.409 216.081 221.917 234.385 221.461 242.193C221.005 250.001 220.34 259.823 211.962 255.492C203.584 251.16 210.727 263.395 218.479 263.509C226.23 263.623 229.649 268.173 229.649 255.492C229.649 242.811 233.962 195.173 233.962 195.173" fill="#A4DEF6"/>
</g>
<path opacity="0.15" d="M296.066 199.191C296.066 199.191 295.6 186.292 298.555 186.928C301.509 187.565 304.501 200.911 305.09 214.143C305.679 227.375 297.082 247.389 297.082 247.389L296.066 199.191Z" fill="white"/>
<path opacity="0.15" d="M243.432 154.109C243.432 154.109 225.004 165.327 222.686 183.176C221.396 193.688 217.403 203.686 211.098 212.195C211.098 212.195 204.211 158.678 243.394 154.109" fill="white"/>
<path opacity="0.15" d="M210.671 223.993C210.671 223.993 216.569 217.239 218.887 219.139C221.205 221.039 218.051 254.931 212.779 254.285C207.507 253.639 210.671 223.993 210.671 223.993Z" fill="white"/>
<path opacity="0.15" d="M234.067 176.536C234.067 176.536 238.712 200.284 242.284 204.435C242.284 204.435 274.685 200.996 281.771 200.901C281.771 200.901 260.408 195.335 247.574 198.289L234.067 176.536Z" fill="white"/>
<path opacity="0.15" d="M236.593 255.53C236.593 255.53 243.309 221.656 242.074 211.777C242.074 211.777 268.339 210.979 278.389 208.215C278.389 208.215 262.184 217.334 248.439 217.923C248.439 217.923 248.818 236.988 246.539 242.193C246.539 242.193 269.849 240.436 278.427 233.273C278.427 233.273 257.918 249.707 244.848 249.916C244.848 249.916 251.545 254.323 257.918 254.323C257.88 254.285 246.33 257.99 236.593 255.53Z" fill="white"/>
</g>
<path d="M265.461 182.739C265.463 182.98 265.393 183.216 265.26 183.418C265.127 183.619 264.937 183.776 264.715 183.87C264.492 183.963 264.247 183.988 264.01 183.941C263.774 183.894 263.556 183.778 263.385 183.608C263.215 183.437 263.099 183.22 263.052 182.983C263.006 182.746 263.03 182.501 263.124 182.278C263.217 182.056 263.374 181.866 263.576 181.733C263.777 181.6 264.013 181.53 264.255 181.532C264.574 181.535 264.879 181.663 265.105 181.888C265.331 182.114 265.459 182.419 265.461 182.739Z" fill="#69C0E5"/>
<path d="M264.254 196.085C264.926 196.085 265.47 195.54 265.47 194.869C265.47 194.197 264.926 193.653 264.254 193.653C263.583 193.653 263.039 194.197 263.039 194.869C263.039 195.54 263.583 196.085 264.254 196.085Z" fill="#69C0E5"/>
<path d="M265.461 206.999C265.472 207.242 265.41 207.483 265.283 207.69C265.157 207.898 264.97 208.063 264.749 208.163C264.527 208.264 264.281 208.295 264.041 208.254C263.801 208.213 263.579 208.101 263.404 207.933C263.228 207.764 263.108 207.547 263.057 207.309C263.006 207.071 263.028 206.824 263.12 206.598C263.211 206.373 263.368 206.18 263.571 206.045C263.773 205.91 264.011 205.838 264.254 205.84C264.566 205.84 264.866 205.96 265.091 206.176C265.316 206.393 265.448 206.687 265.461 206.999Z" fill="#69C0E5"/>
<path d="M265.461 219.139C265.461 219.38 265.389 219.615 265.255 219.815C265.121 220.015 264.931 220.171 264.708 220.263C264.486 220.355 264.241 220.378 264.004 220.331C263.768 220.283 263.552 220.166 263.382 219.995C263.212 219.824 263.097 219.607 263.052 219.37C263.006 219.134 263.031 218.889 263.125 218.667C263.218 218.445 263.375 218.256 263.577 218.123C263.778 217.991 264.014 217.921 264.255 217.923C264.414 217.923 264.572 217.954 264.719 218.016C264.866 218.077 264.999 218.167 265.111 218.28C265.223 218.393 265.312 218.527 265.372 218.674C265.432 218.822 265.462 218.98 265.461 219.139Z" fill="#69C0E5"/>
<path d="M265.461 231.269C265.461 231.51 265.389 231.745 265.255 231.945C265.121 232.146 264.931 232.301 264.708 232.393C264.486 232.485 264.241 232.508 264.004 232.461C263.768 232.413 263.552 232.296 263.382 232.125C263.212 231.954 263.097 231.737 263.052 231.5C263.006 231.264 263.031 231.019 263.125 230.797C263.218 230.575 263.375 230.386 263.577 230.253C263.778 230.121 264.014 230.051 264.255 230.053C264.414 230.053 264.572 230.085 264.719 230.146C264.866 230.207 264.999 230.297 265.111 230.41C265.223 230.523 265.312 230.657 265.372 230.804C265.432 230.952 265.462 231.11 265.461 231.269Z" fill="#69C0E5"/>
<path d="M265.461 243.399C265.463 243.64 265.393 243.877 265.26 244.078C265.127 244.28 264.937 244.437 264.715 244.53C264.492 244.623 264.247 244.648 264.01 244.602C263.774 244.555 263.556 244.439 263.385 244.268C263.215 244.098 263.099 243.88 263.052 243.644C263.006 243.407 263.03 243.162 263.124 242.939C263.217 242.716 263.374 242.527 263.576 242.394C263.777 242.261 264.013 242.191 264.255 242.193C264.575 242.193 264.881 242.32 265.108 242.546C265.334 242.772 265.461 243.079 265.461 243.399Z" fill="#69C0E5"/>
<path d="M264.255 256.736C264.921 256.736 265.461 256.196 265.461 255.529C265.461 254.863 264.921 254.323 264.255 254.323C263.588 254.323 263.048 254.863 263.048 255.529C263.048 256.196 263.588 256.736 264.255 256.736Z" fill="#69C0E5"/>
<path d="M264.255 268.876C264.921 268.876 265.461 268.335 265.461 267.669C265.461 267.003 264.921 266.463 264.255 266.463C263.588 266.463 263.048 267.003 263.048 267.669C263.048 268.335 263.588 268.876 264.255 268.876Z" fill="#69C0E5"/>
<path d="M279.795 149.093C282.312 154.85 286.501 164.995 286.596 169.041L275.444 160.492C275.444 160.492 282.188 143.394 271.996 143.394H258.033C247.84 143.394 254.584 160.492 254.584 160.492L243.433 169.041C243.528 164.928 247.869 154.498 250.367 148.799C251.205 146.802 252.444 144.998 254.007 143.499C255.571 142.001 257.426 140.84 259.457 140.088C261.608 139.343 263.892 139.062 266.159 139.261C268.427 139.461 270.626 140.138 272.614 141.247C275.835 142.963 278.37 145.733 279.795 149.093Z" fill="#A4DEF6"/>
<mask id="mask7_4210_9551" style="mask-type:luminance" maskUnits="userSpaceOnUse" x="252" y="119" width="27" height="49">
<path d="M264.986 167.103C260.388 167.103 257.092 159.922 253.901 158.554C253.172 156.04 252.673 153.465 252.409 150.86C252.324 150.081 261.557 134.389 263.466 128.68H255.211C257.814 123.493 261.129 119.399 264.986 119.399C283.034 119.399 277.629 148.846 277.629 150.119C277.363 157.756 275.159 164.425 264.986 167.103Z" fill="white"/>
</mask>
<g mask="url(#mask7_4210_9551)">
<path d="M287.888 158.269H243.243C243.06 158.269 242.883 158.207 242.739 158.095C242.595 157.983 242.492 157.826 242.446 157.649C242.4 157.472 242.415 157.285 242.487 157.117C242.559 156.949 242.684 156.81 242.844 156.721L264.692 144.657V134.845C264.692 134.154 264.966 133.492 265.454 133.004C265.942 132.516 266.604 132.242 267.295 132.242C267.91 132.242 268.501 131.998 268.937 131.564C269.373 131.129 269.619 130.54 269.622 129.924C269.622 128.856 269.197 127.832 268.442 127.076C267.687 126.321 266.662 125.897 265.594 125.897C264.526 125.897 263.502 126.321 262.746 127.076C261.991 127.832 261.567 128.856 261.567 129.924C261.567 130.033 261.545 130.14 261.504 130.241C261.462 130.341 261.401 130.432 261.325 130.509C261.248 130.585 261.157 130.646 261.056 130.688C260.956 130.729 260.849 130.751 260.74 130.751C260.632 130.751 260.524 130.729 260.424 130.688C260.324 130.646 260.233 130.585 260.156 130.509C260.079 130.432 260.018 130.341 259.977 130.241C259.935 130.14 259.914 130.033 259.914 129.924C259.914 128.413 260.514 126.963 261.583 125.894C262.652 124.825 264.102 124.225 265.613 124.225C267.125 124.225 268.574 124.825 269.643 125.894C270.712 126.963 271.313 128.413 271.313 129.924C271.313 130.977 270.894 131.987 270.15 132.732C269.405 133.476 268.395 133.895 267.342 133.895C267.09 133.895 266.848 133.995 266.67 134.173C266.492 134.351 266.392 134.593 266.392 134.845V144.657L288.354 156.721C288.513 156.809 288.638 156.948 288.71 157.115C288.782 157.282 288.798 157.468 288.753 157.645C288.709 157.821 288.607 157.978 288.465 158.091C288.322 158.204 288.146 158.266 287.964 158.269H287.888ZM246.435 156.616H284.668L265.49 146.082L246.435 156.616Z" fill="#A3E4FF"/>
</g>
<mask id="mask8_4210_9551" style="mask-type:luminance" maskUnits="userSpaceOnUse" x="338" y="119" width="59" height="48">
<path d="M365.789 165.593C361.192 165.593 341.738 162.221 338.537 160.844C335.991 159.675 349.565 150.062 349.565 148.846C349.565 148.067 362.36 134.379 364.26 128.67H356.005C358.618 123.493 361.933 119.399 365.789 119.399C383.837 119.399 396.101 160.806 396.101 165.28C396.101 167.749 375.687 165.593 365.789 165.593Z" fill="white"/>
</mask>
<g mask="url(#mask8_4210_9551)">
<path d="M388.644 158.269H343.999C343.816 158.268 343.639 158.207 343.495 158.095C343.35 157.983 343.248 157.826 343.202 157.649C343.156 157.472 343.171 157.285 343.243 157.117C343.315 156.949 343.44 156.81 343.6 156.721L365.448 144.657V134.845C365.448 134.154 365.722 133.492 366.21 133.004C366.698 132.516 367.36 132.242 368.05 132.242C368.665 132.242 369.255 131.998 369.689 131.563C370.124 131.128 370.368 130.539 370.368 129.924C370.368 128.856 369.944 127.832 369.188 127.076C368.433 126.321 367.409 125.897 366.341 125.897C365.272 125.897 364.248 126.321 363.493 127.076C362.737 127.832 362.313 128.856 362.313 129.924C362.313 130.143 362.226 130.354 362.071 130.509C361.916 130.664 361.706 130.751 361.487 130.751C361.267 130.751 361.057 130.664 360.902 130.509C360.747 130.354 360.66 130.143 360.66 129.924C360.588 129.135 360.681 128.34 360.933 127.589C361.186 126.838 361.592 126.148 362.126 125.563C362.66 124.977 363.31 124.51 364.035 124.19C364.76 123.87 365.544 123.705 366.336 123.705C367.128 123.705 367.912 123.87 368.637 124.19C369.361 124.51 370.012 124.977 370.546 125.563C371.08 126.148 371.486 126.838 371.738 127.589C371.991 128.34 372.084 129.135 372.011 129.924C372.011 130.976 371.594 131.984 370.852 132.728C370.109 133.473 369.102 133.892 368.05 133.895C367.798 133.895 367.557 133.995 367.379 134.173C367.201 134.351 367.1 134.593 367.1 134.845V144.657L389.072 156.721C389.231 156.81 389.357 156.949 389.429 157.117C389.501 157.285 389.515 157.472 389.47 157.649C389.424 157.826 389.321 157.983 389.177 158.095C389.033 158.207 388.855 158.268 388.673 158.269H388.644ZM347.229 156.616H385.472L366.293 146.082L347.229 156.616Z" fill="#A3E4FF"/>
</g>
<path d="M351.122 159.362C351.01 159.364 350.899 159.393 350.8 159.447C350.701 159.5 350.616 159.577 350.552 159.669C350.488 159.762 350.447 159.868 350.432 159.98C350.417 160.092 350.429 160.205 350.467 160.312C352.87 166.011 363.614 195.515 340.873 218.645C317.011 242.924 322.644 271.469 323.366 274.622C323.387 274.714 323.425 274.8 323.479 274.877C323.532 274.953 323.601 275.019 323.68 275.069C326.767 276.969 358.228 295.169 403.31 275.648C403.808 275.435 404.228 275.072 404.509 274.608C404.79 274.145 404.919 273.605 404.877 273.065C404.336 265.541 401.467 236.693 386.668 219.082C368.619 197.586 379.002 166.695 379.838 160.131C379.85 160.031 379.841 159.929 379.81 159.832C379.78 159.736 379.729 159.647 379.662 159.571C379.595 159.496 379.512 159.435 379.419 159.394C379.327 159.353 379.227 159.332 379.125 159.333H375.326C375.191 159.331 375.059 159.367 374.944 159.438C374.83 159.509 374.738 159.611 374.68 159.732C373.246 162.762 363.842 181.181 355.843 159.799C355.793 159.661 355.7 159.542 355.58 159.459C355.459 159.376 355.316 159.332 355.169 159.333L351.122 159.362Z" fill="#CDF0FF"/>
<mask id="mask9_4210_9551" style="mask-type:luminance" maskUnits="userSpaceOnUse" x="322" y="159" width="83" height="126">
<path d="M351.122 159.362C351.01 159.364 350.899 159.393 350.8 159.447C350.701 159.5 350.616 159.577 350.552 159.669C350.488 159.762 350.447 159.868 350.432 159.98C350.417 160.092 350.429 160.205 350.467 160.312C352.87 166.011 363.614 195.515 340.873 218.645C317.011 242.924 322.644 271.469 323.366 274.622C323.387 274.714 323.425 274.8 323.479 274.877C323.532 274.953 323.601 275.019 323.68 275.069C326.767 276.969 358.228 295.169 403.31 275.648C403.808 275.435 404.228 275.072 404.509 274.608C404.79 274.145 404.919 273.605 404.877 273.065C404.336 265.541 401.467 236.693 386.668 219.082C368.619 197.586 379.002 166.695 379.838 160.131C379.85 160.031 379.841 159.929 379.81 159.832C379.78 159.736 379.729 159.647 379.662 159.571C379.595 159.496 379.512 159.435 379.419 159.394C379.327 159.353 379.227 159.332 379.125 159.333H375.326C375.191 159.331 375.059 159.367 374.944 159.438C374.83 159.509 374.738 159.611 374.68 159.732C373.246 162.762 363.842 181.181 355.843 159.799C355.793 159.661 355.7 159.542 355.58 159.459C355.459 159.376 355.316 159.332 355.169 159.333L351.122 159.362Z" fill="white"/>
</mask>
<g mask="url(#mask9_4210_9551)">
<g style="mix-blend-mode:multiply" opacity="0.2">
<path d="M320.849 256.517C320.849 256.517 321.799 268.306 332.799 272.495C343.799 276.684 386.734 276.513 390.363 264.895C393.991 253.278 390.363 245.347 390.363 245.347C390.363 245.347 378.08 261.789 363.585 264.43C349.09 267.071 333.549 257.914 333.549 257.914C333.549 257.914 353.184 262.882 364.896 259.614C376.608 256.346 385.547 235.031 385.547 235.031C385.547 235.031 369.56 254.029 360.251 254.494C354.893 254.825 349.52 254.125 344.426 252.433C344.426 252.433 358.237 252.433 362.426 250.305C366.615 248.177 381.348 225.608 381.348 225.608C378.865 221.983 376.737 218.127 374.993 214.095C372.942 208.823 364.753 210.865 357.297 208.69C352.238 206.996 347.518 204.424 343.352 201.091C343.352 201.091 368.05 203.418 370.035 197.681C372.02 191.943 371.935 179.737 371.935 179.737C368.924 182.877 364.927 184.889 360.612 185.436C360.612 185.436 372.98 178.16 374.395 173.192C375.81 168.224 378.897 159.951 372.068 161.527C365.238 163.104 377.311 155.192 377.311 155.192L385.167 156.446L404.165 228.733L407.214 275.553L396.49 283.817L347.798 298.55L324.05 280.36L315.055 271.554L320.849 256.517Z" fill="#A4DEF6"/>
</g>
<path opacity="0.15" d="M333.103 225.408C333.103 225.408 342.421 233.691 348.7 236.408C354.979 239.125 367.156 232.437 367.156 232.437C367.156 232.437 359.405 240.835 348.234 239.856C337.064 238.878 333.103 225.408 333.103 225.408Z" fill="white"/>
<path opacity="0.15" d="M335.449 220.345C335.449 220.345 340.883 228.894 344.806 230.053C348.729 231.212 359.558 228.638 359.558 228.638C359.558 228.638 348.767 229.588 344.777 226.681C340.788 223.774 335.449 220.345 335.449 220.345Z" fill="white"/>
</g>
<path d="M364.773 204.415C364.8 204.338 364.822 204.258 364.84 204.178C365.305 202.221 363.31 200.074 360.394 199.429C357.478 198.783 354.695 199.761 354.277 201.718C354.186 202.217 354.217 202.731 354.367 203.216C354.518 203.7 354.783 204.141 355.141 204.501C354.776 204.869 354.508 205.322 354.36 205.82C354.213 206.317 354.191 206.843 354.296 207.351C354.809 209.25 357.563 210.257 360.47 209.507C363.377 208.757 365.315 206.562 364.811 204.624C364.802 204.51 364.783 204.463 364.773 204.415Z" fill="#ADE4FB"/>
<mask id="mask10_4210_9551" style="mask-type:luminance" maskUnits="userSpaceOnUse" x="354" y="199" width="11" height="11">
<path d="M364.773 204.415C364.8 204.338 364.822 204.258 364.84 204.178C365.305 202.221 363.31 200.074 360.394 199.429C357.478 198.783 354.695 199.761 354.277 201.718C354.186 202.217 354.217 202.731 354.367 203.216C354.518 203.7 354.783 204.141 355.141 204.501C354.776 204.869 354.508 205.322 354.36 205.82C354.213 206.317 354.191 206.843 354.296 207.351C354.809 209.25 357.563 210.257 360.47 209.507C363.377 208.757 365.315 206.562 364.811 204.624C364.802 204.51 364.783 204.463 364.773 204.415Z" fill="white"/>
</mask>
<g mask="url(#mask10_4210_9551)">
<g style="mix-blend-mode:multiply" opacity="0.4">
<path d="M355.901 199.191C355.901 199.191 361.961 200.378 361.771 202.649C361.581 204.919 358.295 205.232 358.295 205.232C358.295 205.232 360.888 205.736 361.961 204.89C361.961 204.89 363.861 208.567 358.428 208.69C352.994 208.814 353.431 206.239 353.431 206.239C353.431 206.239 351.474 211.777 359.691 210.903C367.908 210.029 367.746 202.63 366.796 200.806C365.846 198.982 355.901 199.191 355.901 199.191Z" fill="#A4DEF6"/>
</g>
</g>
<path d="M376.381 201.67C375.916 199.713 373.17 198.697 370.254 199.381C367.338 200.065 365.343 202.231 365.809 204.13L365.875 204.368C365.875 204.368 365.875 204.463 365.875 204.51C365.372 206.41 367.319 208.642 370.216 209.393C373.113 210.143 375.916 209.184 376.39 207.237C376.496 206.729 376.473 206.203 376.326 205.706C376.178 205.208 375.91 204.755 375.545 204.387C375.888 204.032 376.142 203.6 376.288 203.128C376.433 202.656 376.465 202.157 376.381 201.67Z" fill="#ADE4FB"/>
<mask id="mask11_4210_9551" style="mask-type:luminance" maskUnits="userSpaceOnUse" x="365" y="199" width="12" height="11">
<path d="M376.381 201.67C375.916 199.713 373.17 198.697 370.254 199.381C367.338 200.065 365.343 202.231 365.809 204.13L365.875 204.368C365.875 204.368 365.875 204.463 365.875 204.51C365.372 206.41 367.319 208.642 370.216 209.393C373.113 210.143 375.916 209.184 376.39 207.237C376.496 206.729 376.473 206.203 376.326 205.706C376.178 205.208 375.91 204.755 375.545 204.387C375.888 204.032 376.142 203.6 376.288 203.128C376.433 202.656 376.465 202.157 376.381 201.67Z" fill="white"/>
</mask>
<g mask="url(#mask11_4210_9551)">
<g style="mix-blend-mode:multiply" opacity="0.4">
<path d="M367.034 200.141C367.034 200.141 373.493 198.688 373.835 201.366C374.177 204.045 369.884 205.318 369.884 205.318C369.884 205.318 374.301 205.033 374.301 206.268C374.301 207.503 373.437 210.257 368.953 209.022C364.469 207.788 375.992 214.123 378.452 209.706C380.912 205.289 378.081 199.647 376.41 199.182C374.738 198.716 369.361 197.738 367.034 200.141Z" fill="#A4DEF6"/>
</g>
</g>
<path d="M367.803 205.061C367.803 205.529 367.664 205.986 367.404 206.375C367.144 206.764 366.775 207.067 366.343 207.246C365.91 207.426 365.435 207.472 364.976 207.381C364.517 207.29 364.096 207.065 363.765 206.734C363.434 206.403 363.209 205.982 363.118 205.523C363.026 205.064 363.073 204.588 363.252 204.156C363.431 203.724 363.734 203.355 364.123 203.095C364.512 202.835 364.97 202.696 365.438 202.696C366.064 202.699 366.664 202.949 367.107 203.392C367.55 203.835 367.8 204.435 367.803 205.061Z" fill="#A4DEF6"/>
<mask id="mask12_4210_9551" style="mask-type:luminance" maskUnits="userSpaceOnUse" x="363" y="202" width="5" height="6">
<path d="M367.803 205.061C367.803 205.529 367.664 205.986 367.404 206.375C367.144 206.764 366.775 207.067 366.343 207.246C365.91 207.426 365.435 207.472 364.976 207.381C364.517 207.29 364.096 207.065 363.765 206.734C363.434 206.403 363.209 205.982 363.118 205.523C363.026 205.064 363.073 204.588 363.252 204.156C363.431 203.724 363.734 203.355 364.123 203.095C364.512 202.835 364.97 202.696 365.438 202.696C366.064 202.699 366.664 202.949 367.107 203.392C367.55 203.835 367.8 204.435 367.803 205.061Z" fill="white"/>
</mask>
<g mask="url(#mask12_4210_9551)">
<g style="mix-blend-mode:multiply" opacity="0.4">
<path d="M364.241 202.696C364.241 202.696 366.444 202.953 366.444 204.434C366.444 205.916 365.694 206.553 364.298 206.201C363.926 206.15 363.578 205.99 363.298 205.742C363.017 205.493 362.816 205.167 362.721 204.805C362.721 204.805 362.721 207.959 365.865 207.655C369.009 207.351 367.499 201.395 367.499 201.395L364.241 202.696Z" fill="#A4DEF6"/>
</g>
<path opacity="0.15" d="M363.072 203.466C363.096 203.806 363.211 204.134 363.404 204.415C363.598 204.695 363.864 204.919 364.174 205.061C365.229 205.508 366.388 203.466 364.003 202.696C361.619 201.927 363.072 203.466 363.072 203.466Z" fill="white"/>
</g>
<path d="M353.735 156.455H352.168V161.993H353.735V156.455Z" fill="#CDF0FF"/>
<mask id="mask13_4210_9551" style="mask-type:luminance" maskUnits="userSpaceOnUse" x="352" y="156" width="2" height="6">
<path d="M353.735 156.455H352.168V161.993H353.735V156.455Z" fill="white"/>
</mask>
<g mask="url(#mask13_4210_9551)">
<g style="mix-blend-mode:multiply" opacity="0.2">
<path d="M352.947 155.933C352.947 155.933 353.707 161.119 351.39 161.015C349.072 160.91 351.712 162.743 352.947 162.8C354.182 162.857 354.306 159.362 354.306 159.362L354.372 155.809L352.947 155.933Z" fill="#A4DEF6"/>
</g>
</g>
<path d="M353.203 157.443C353.203 157.511 353.176 157.576 353.128 157.624C353.08 157.672 353.015 157.699 352.947 157.699C352.879 157.699 352.814 157.672 352.766 157.624C352.717 157.576 352.69 157.511 352.69 157.443C352.69 157.375 352.717 157.31 352.766 157.262C352.814 157.214 352.879 157.187 352.947 157.187C353.015 157.187 353.08 157.214 353.128 157.262C353.176 157.31 353.203 157.375 353.203 157.443Z" fill="#A4DEF6"/>
<path d="M353.203 161.271C353.203 161.322 353.188 161.371 353.16 161.414C353.132 161.456 353.092 161.489 353.045 161.508C352.998 161.527 352.947 161.533 352.897 161.523C352.847 161.513 352.801 161.488 352.766 161.452C352.73 161.417 352.705 161.371 352.695 161.321C352.685 161.271 352.691 161.22 352.71 161.173C352.729 161.126 352.762 161.086 352.804 161.058C352.847 161.03 352.896 161.015 352.947 161.015C352.981 161.015 353.014 161.021 353.045 161.034C353.076 161.047 353.104 161.066 353.128 161.09C353.152 161.114 353.171 161.142 353.184 161.173C353.197 161.204 353.203 161.237 353.203 161.271Z" fill="#A4DEF6"/>
<path d="M377.814 156.455H376.247V161.993H377.814V156.455Z" fill="#CDF0FF"/>
<mask id="mask14_4210_9551" style="mask-type:luminance" maskUnits="userSpaceOnUse" x="376" y="156" width="2" height="6">
<path d="M377.814 156.455H376.247V161.993H377.814V156.455Z" fill="white"/>
</mask>
<g mask="url(#mask14_4210_9551)">
<g style="mix-blend-mode:multiply" opacity="0.2">
<path d="M377.026 155.933C377.026 155.933 377.786 161.119 375.469 161.015C373.151 160.91 375.792 162.743 377.026 162.8C378.261 162.857 378.385 159.362 378.385 159.362L378.451 155.809L377.026 155.933Z" fill="#A4DEF6"/>
</g>
</g>
<path d="M377.293 157.443C377.291 157.513 377.262 157.579 377.212 157.628C377.163 157.678 377.097 157.707 377.027 157.709C376.958 157.707 376.893 157.677 376.845 157.628C376.797 157.578 376.77 157.512 376.771 157.443C376.771 157.375 376.798 157.31 376.846 157.262C376.894 157.214 376.959 157.187 377.027 157.187C377.096 157.186 377.162 157.213 377.212 157.261C377.261 157.309 377.29 157.374 377.293 157.443Z" fill="#A4DEF6"/>
<path d="M377.293 161.271C377.29 161.34 377.261 161.405 377.212 161.453C377.162 161.501 377.096 161.528 377.027 161.528C376.959 161.528 376.894 161.501 376.846 161.452C376.798 161.404 376.771 161.339 376.771 161.271C376.771 161.203 376.798 161.138 376.846 161.09C376.894 161.042 376.959 161.015 377.027 161.015C377.096 161.015 377.162 161.041 377.212 161.089C377.261 161.137 377.29 161.202 377.293 161.271Z" fill="#A4DEF6"/>
<path opacity="0.15" d="M325.19 240.664C325.19 240.664 329.939 251.112 336.199 254.323C342.459 257.534 361.894 257.287 361.894 257.287C361.894 257.287 349.973 260.906 331.497 255.529C322.283 246.353 325.19 240.664 325.19 240.664Z" fill="white"/>
<path opacity="0.15" d="M351.73 165.869C351.73 165.869 356.613 177.695 361.039 178.16C365.466 178.626 371.631 175.016 371.631 175.016C371.631 175.016 365.988 180.488 359.558 180.022C353.127 179.557 351.73 165.869 351.73 165.869Z" fill="white"/>
<path d="M263.261 183.156V232.578L246.16 238.946H63.3101V192.599L76.166 181.625H79.3718V161.613L107.119 148.67H237.32V183.156H263.261Z" fill="url(#paint0_linear_4210_9551)"/>
<path d="M107.119 148.67V181.833H76.166V232.578L63.3101 238.957V192.599L76.166 181.625H79.3718V161.613L107.119 148.67Z" fill="url(#paint1_linear_4210_9551)" fill-opacity="0.5"/>
<path d="M191.914 232.578V182.927L176.246 187.708L172.022 148.67V232.578H191.914Z" fill="url(#paint2_linear_4210_9551)" fill-opacity="0.5"/>
<g style="mix-blend-mode:soft-light">
<path d="M76.166 181.625H172.022V232.578L168.357 184.666L76.166 181.625Z" fill="#7F6703"/>
</g>
<g style="mix-blend-mode:soft-light">
<path d="M191.914 182.927L263.261 185.126V183.157L191.914 182.927Z" fill="#7F6703"/>
</g>
<path d="M263.261 232.578L246.16 238.946H63.3101L76.166 232.578H263.261Z" fill="url(#paint3_linear_4210_9551)" fill-opacity="0.5"/>
<g style="mix-blend-mode:soft-light">
<path d="M90.1382 187.872H144.243L142.886 197.763L93.4534 196.439L90.1382 187.872Z" fill="#7F6703"/>
</g>
<g style="mix-blend-mode:soft-light">
<path d="M180.71 154.917L181.968 165.136H199.857L202.264 154.917H180.71Z" fill="#7F6703"/>
</g>
<g style="mix-blend-mode:multiply" opacity="0.1">
<path d="M107.119 148.67V160.738L172.023 158.768V148.67H107.119Z" fill="#AB5F65"/>
</g>
<g style="mix-blend-mode:multiply" opacity="0.1">
<path d="M193.971 216.735L195.032 229.394H259.542L260.8 220.488L193.971 216.735Z" fill="#AB5F65"/>
</g>
<path d="M63.934 323.533L66.4942 349.453L82.5997 356.127H132.754L160.075 360L249.005 356.127L252.649 323.675H249.301L249.312 323.664L251.281 322.231L253.546 291.475L222.593 289.735L224.278 278.488H218.807L220.624 255.894L153.849 252.054L133.312 259.548L81.4619 258.695L60.2905 270.752L69.1748 322.231L63.934 323.533Z" fill="url(#paint4_linear_4210_9551)"/>
<path d="M141.442 287.985L133.313 259.548L153.849 252.054L157.493 278.203L218.808 278.488L157.799 279.833V288.007H147.635L151.42 322.231H251.281L249.312 323.664L160.983 323.38L160.075 360L132.755 356.127L129.724 322.231H125.774L119.702 289.451L141.442 287.985Z" fill="url(#paint5_linear_4210_9551)" fill-opacity="0.5"/>
<path d="M63.934 323.533L66.4942 349.453L82.5997 356.127L83.5188 324.539L90.3352 321.662L87.3811 298.587L121.047 296.716H87.6108L81.4619 258.695L60.2905 270.752L69.1748 322.231L63.934 323.533Z" fill="url(#paint6_linear_4210_9551)" fill-opacity="0.5"/>
<g style="mix-blend-mode:multiply" opacity="0.5">
<path d="M121.047 296.716H87.6109L70.3784 305.316L87.3811 298.587L121.047 296.716Z" fill="#AB5F65"/>
</g>
<path d="M222.593 289.735L157.799 288.007L141.442 287.985L119.702 289.451L253.546 291.475L222.593 289.735Z" fill="#F5C34A"/>
<g style="mix-blend-mode:multiply" opacity="0.3">
<path d="M251.281 322.231H151.42H132.601L157.339 324.441L160.075 360L160.983 323.38L249.311 323.664L251.281 322.231Z" fill="#AB5F65"/>
</g>
<path d="M219.125 274.45L218.348 257.152L153.849 252.054L220.624 255.894L219.125 274.45Z" fill="#F5C34A"/>
<g style="mix-blend-mode:multiply" opacity="0.5">
<path d="M218.807 278.488L157.493 278.203L139.68 281.803L155.556 279.998V288.05L157.799 288.007V279.833L218.807 278.488Z" fill="#AB5F65"/>
</g>
<g style="mix-blend-mode:overlay">
<path d="M63.9336 323.533L69.1744 322.231L90.3348 321.662L129.723 322.231L83.5184 324.539L63.9336 323.533Z" fill="#F5C34A"/>
</g>
<g style="mix-blend-mode:multiply" opacity="0.3">
<path d="M198.15 278.947L196.443 289.035L189.846 288.86L190.305 279.122L198.15 278.947Z" fill="#AB5F65"/>
</g>
<g style="mix-blend-mode:multiply" opacity="0.3">
<path d="M218.654 264.012L155.414 263.246L136.267 269.855L137.218 273.192L155.928 269.428L218.807 268.225L218.654 264.012Z" fill="#AB5F65"/>
</g>
<g style="mix-blend-mode:multiply" opacity="0.3">
<path d="M191.345 255.456L191.946 260.916L181.99 260.489L182.81 254.931L191.345 255.456Z" fill="#AB5F65"/>
</g>
<g style="mix-blend-mode:multiply" opacity="0.5">
<path d="M125.774 322.231L121.671 290.632L147.832 289.878L119.702 289.451L125.774 322.231Z" fill="#AB5F65"/>
</g>
<g style="mix-blend-mode:multiply" opacity="0.3">
<path d="M216.105 305.316L149.407 304.09L122.382 303.926L123.224 308.478L150.129 310.578H216.105V305.316Z" fill="#AB5F65"/>
</g>
<g style="mix-blend-mode:multiply" opacity="0.3">
<path d="M194.813 294.812L198.095 322.231H206.072V294.812L203.807 296.366C203.635 296.79 203.373 297.171 203.039 297.483C202.704 297.795 202.305 298.03 201.87 298.171L201.279 301.016L199.977 299.232L201.071 297.361L199.977 296.18L200.448 294.812L199.025 296.059V296.803C198.872 297.624 198.369 297.657 197.548 296.978L196.367 294.79H195.535V295.698L194.813 294.812Z" fill="#AB5F65"/>
</g>
<g style="mix-blend-mode:multiply" opacity="0.3">
<path d="M252.495 305.841L243.501 305.622L244.935 311.443H252.079L252.495 305.841Z" fill="#AB5F65"/>
</g>
<g style="mix-blend-mode:multiply" opacity="0.3">
<path d="M251.029 338.15L160.589 337.494L131.19 338.654L131.518 342.253L160.447 342.549L250.428 343.479L251.029 338.15Z" fill="#AB5F65"/>
</g>
<g style="mix-blend-mode:multiply" opacity="0.5">
<path d="M133.312 259.548L141.442 287.985H142.667L134.21 259.22L133.312 259.548Z" fill="#AB5F65"/>
</g>
<g style="mix-blend-mode:multiply" opacity="0.3">
<path d="M63.9336 323.533L83.5184 324.539L82.5994 356.127L80.7284 326.049L63.9336 323.533Z" fill="#AB5F65"/>
</g>
<path d="M133.312 259.548H81.6041L60.2905 270.752L81.4619 258.695L133.312 259.548Z" fill="#F5C34A"/>
<g style="mix-blend-mode:multiply" opacity="0.3">
<path d="M111.999 274.45L83.9452 274.046L66.3188 282.503L68.5946 288.466L85.291 280.096L111.999 279.91V274.45Z" fill="#AB5F65"/>
</g>
<g style="mix-blend-mode:multiply" opacity="0.3">
<path d="M113.366 297.143L118.224 315.097L124.384 314.703L121.047 296.716L113.366 297.143Z" fill="#AB5F65"/>
</g>
<g style="mix-blend-mode:soft-light">
<path d="M89.1533 345.383L109.57 346.17L110.478 351.772L91.0571 352.254L89.1533 345.383Z" fill="#7F6703"/>
</g>
<g style="mix-blend-mode:soft-light">
<path d="M244.935 326.925H224.146L227.035 333.358H241.904L244.935 326.925Z" fill="#7F6703"/>
</g>
<g style="mix-blend-mode:multiply" opacity="0.2">
<path d="M79.6234 301.65L66.3188 306.826L67.3036 311.399L79.6234 301.65Z" fill="#AB5F65"/>
</g>
<path d="M38.5719 0L31.3179 7.94335V20.0991H32.1603L39.119 15.3506H50.2791L51.6139 15.0989V0H38.5719Z" fill="url(#paint7_linear_4210_9551)"/>
<path d="M38.5719 0L31.3179 7.94335V20.0991L38.5719 15.0989V0Z" fill="#A6A696"/>
<path d="M31.3179 20.099H43.7253L51.6139 15.0989H38.5719L31.3179 20.099Z" fill="#585747"/>
<g style="mix-blend-mode:soft-light">
<path d="M51.6139 0L39.3925 0.733064L38.5719 15.0989V0.70024L31.3179 7.94335L38.5719 0H51.6139Z" fill="#7F6703"/>
</g>
<g style="mix-blend-mode:soft-light" opacity="0.5">
<path d="M39.283 2.68066L51.6138 11.1273V15.099H47.2373L38.9985 7.64799L39.283 2.68066Z" fill="#7F6703"/>
</g>
<path d="M21.1644 25.1431L14.9717 31.9376V42.3208H15.6938L21.6349 38.2616H31.1757L32.3136 38.0537V25.1431H21.1644Z" fill="url(#paint8_linear_4210_9551)"/>
<path d="M21.1644 25.1431L14.9717 31.9376V42.3208L21.1644 38.0537V25.1431Z" fill="#A6A696"/>
<path d="M14.9717 42.3208H25.5738L32.3136 38.0537H21.1644L14.9717 42.3208Z" fill="#585747"/>
<g style="mix-blend-mode:soft-light">
<path d="M32.3136 25.1431L21.8647 25.7667L21.1644 38.0537V25.7448L14.9717 31.9376L21.1644 25.1431H32.3136Z" fill="#7F6703"/>
</g>
<g style="mix-blend-mode:soft-light" opacity="0.5">
<path d="M21.7768 27.4297L32.3133 34.6509V38.0536H28.5714L21.5361 31.6858L21.7768 27.4297Z" fill="#7F6703"/>
</g>
<path d="M265.461 25.1431L259.268 31.9376V42.3208H259.99L265.931 38.2616H275.472L276.61 38.0537V25.1431H265.461Z" fill="url(#paint9_linear_4210_9551)"/>
<path d="M265.461 25.1431L259.268 31.9376V42.3208L265.461 38.0537V25.1431Z" fill="#A6A696"/>
<path d="M259.268 42.3208H269.87L276.61 38.0537H265.461L259.268 42.3208Z" fill="#585747"/>
<g style="mix-blend-mode:soft-light">
<path d="M276.61 25.1431L266.161 25.7667L265.461 38.0537V25.7448L259.268 31.9376L265.461 25.1431H276.61Z" fill="#7F6703"/>
</g>
<g style="mix-blend-mode:soft-light" opacity="0.5">
<path d="M266.073 27.4297L276.61 34.6509V38.0536H272.868L265.833 31.6858L266.073 27.4297Z" fill="#7F6703"/>
</g>
<path d="M286.709 0L279.455 7.94335V20.0991H280.297L287.256 15.3506H298.416L299.751 15.0989V0H286.709Z" fill="url(#paint10_linear_4210_9551)"/>
<path d="M286.709 0L279.455 7.94335V20.0991L286.709 15.0989V0Z" fill="#A6A696"/>
<path d="M279.455 20.099H291.862L299.751 15.0989H286.709L279.455 20.099Z" fill="#585747"/>
<g style="mix-blend-mode:soft-light">
<path d="M299.751 0L287.529 0.733064L286.709 15.0989V0.70024L279.455 7.94335L286.709 0H299.751Z" fill="#7F6703"/>
</g>
<g style="mix-blend-mode:soft-light" opacity="0.5">
<path d="M287.409 2.68066L299.751 11.1273V15.099H295.374L287.135 7.64799L287.409 2.68066Z" fill="#7F6703"/>
</g>
<path d="M270.942 38.3491L269.575 348.359H268.524V348.315L266.413 347.221H264.892L262.791 346.148L261.369 42.1786L264.104 40.4389H264.848L264.859 40.428L267.594 38.3601V38.3491H270.942Z" fill="url(#paint11_radial_4210_9551)" fill-opacity="0.5"/>
<path d="M265.012 347.221H264.892L262.791 346.148L261.369 42.1786L264.104 40.439L265.012 347.221Z" fill="url(#paint12_radial_4210_9551)"/>
<path d="M274.454 38.3491L273.076 348.359H268.524V348.315L266.413 347.221H266.303L264.859 40.428L267.594 38.3601V38.3491H274.454Z" fill="url(#paint13_radial_4210_9551)"/>
<path style="mix-blend-mode:multiply" opacity="0.8" d="M268.524 348.315L266.413 347.221H266.303L264.859 40.428L267.594 38.3601L268.524 348.315Z" fill="url(#paint14_linear_4210_9551)"/>
<path d="M292.869 235.128L292.814 223.191L273.951 143.976L271.347 143.965V156.865L289.838 235.128H292.869Z" fill="url(#paint15_linear_4210_9551)" fill-opacity="0.5"/>
<path style="mix-blend-mode:color-dodge" opacity="0.2" d="M292.858 223.191H289.838V235.127H292.858V223.191Z" fill="url(#paint16_linear_4210_9551)"/>
<path style="mix-blend-mode:multiply" d="M289.838 223.191L271.347 143.965V156.865L289.838 235.128V223.191Z" fill="url(#paint17_linear_4210_9551)" fill-opacity="0.5"/>
<path d="M289.597 43.9839L271.26 143.965H268.688V133.002L286.577 32.2002H289.564L289.597 43.9839Z" fill="url(#paint18_linear_4210_9551)"/>
<path style="mix-blend-mode:color-dodge" opacity="0.2" d="M289.597 32.2002H286.578V43.9839H289.597V32.2002Z" fill="url(#paint19_linear_4210_9551)"/>
<path style="mix-blend-mode:multiply" d="M286.577 43.9839L268.688 143.965V133.002L286.577 32.2002V43.9839Z" fill="url(#paint20_linear_4210_9551)" fill-opacity="0.5"/>
<path d="M199.868 32.3095L195.842 76.2495H186.574L184.758 128.975L169.911 135.573H35.1255L34.5128 80.7464L38.1234 78.0877L33.9985 27.0248L44.7866 18.239H142.864L142.065 32.3095H199.868Z" fill="url(#paint21_linear_4210_9551)"/>
<path d="M43.9331 76.8076L186.574 76.2496L143.717 73.6128L142.065 32.3096L139.439 73.6347L43.9331 76.8076Z" fill="url(#paint22_linear_4210_9551)" fill-opacity="0.5"/>
<g style="mix-blend-mode:multiply" opacity="0.3">
<path d="M46.4277 47.2443L78.0151 46.1501L76.4286 58.0105L46.9857 56.9163L46.4277 47.2443Z" fill="#AB5F65"/>
</g>
<g style="mix-blend-mode:multiply" opacity="0.3">
<path d="M141.256 44.9795H118.782V56.6976L140.424 58.0105L141.256 44.9795Z" fill="#AB5F65"/>
</g>
<g style="mix-blend-mode:multiply" opacity="0.3">
<path d="M89.7768 18.25L88.6279 39.3338H102.053L98.4094 18.25H89.7768Z" fill="#AB5F65"/>
</g>
<g style="mix-blend-mode:soft-light">
<path d="M148.105 39.3337L149.013 51.5004H166.53L167.438 40.0559L148.105 39.3337Z" fill="#7F6703"/>
</g>
<g style="mix-blend-mode:multiply" opacity="0.1">
<path d="M142.065 32.3096H144.483L146.136 55.3737H197.756L195.842 76.8076L143.718 73.6128L142.065 32.3096Z" fill="#AB5F65"/>
</g>
<g style="mix-blend-mode:overlay">
<path d="M43.9331 76.8075L43.9878 79.1161L186.443 79.9367L186.574 76.2495L43.9331 76.8075Z" fill="#F5C34A"/>
</g>
<g style="mix-blend-mode:multiply" opacity="0.3">
<path d="M47.5767 66.9494L129.22 65.1003L47.6314 68.886L47.5767 66.9494Z" fill="#AB5F65"/>
</g>
<path d="M43.9441 76.8075L45.082 135.573H35.1255L34.5128 80.7464L38.1234 78.0877L33.9985 27.0248L44.7866 18.239L48.069 76.6762L43.9441 76.8075Z" fill="url(#paint23_linear_4210_9551)"/>
<path d="M184.758 128.976H44.9289L35.1255 135.573H169.911L184.758 128.976Z" fill="url(#paint24_linear_4210_9551)"/>
<g style="mix-blend-mode:multiply" opacity="0.3">
<path d="M44.5894 110.255L171.967 108.603L170.764 117.99L44.6988 115.857L44.5894 110.255Z" fill="#AB5F65"/>
</g>
<path d="M286.545 81.6763L282.792 83.9959H286.49L285.396 130.004L275.603 135.573H196.465L195.185 88.1207L202.789 84.7399L200.404 51.5004L216.291 45.428H290.604L286.545 81.6763Z" fill="url(#paint25_linear_4210_9551)"/>
<path d="M286.545 81.6656L282.792 83.9852H204.639V129.993L196.476 135.573L195.196 88.11L202.79 84.7292L200.404 51.4896L216.291 45.4172L218.403 81.6656H286.545Z" fill="url(#paint26_linear_4210_9551)" fill-opacity="0.5"/>
<path d="M285.396 130.004L275.603 135.573H196.465L204.638 130.004H285.396Z" fill="url(#paint27_linear_4210_9551)"/>
<g style="mix-blend-mode:soft-light">
<path d="M270.362 50.4282H284.663L282.649 57.4634L272.069 56.9164L270.362 50.4282Z" fill="#7F6703"/>
</g>
<g style="mix-blend-mode:soft-light">
<path d="M213.282 118.647H229.978L227.111 127.225H213.741L213.282 118.647Z" fill="#7F6703"/>
</g>
<g style="mix-blend-mode:multiply" opacity="0.1">
<path d="M204.638 112.607V83.9851L286.49 83.996L285.943 106.995L204.638 112.607Z" fill="#AB5F65"/>
</g>
<g style="mix-blend-mode:multiply" opacity="0.3">
<path d="M204.639 130.004V83.9851L195.196 88.11L202.735 86.5782L204.639 130.004Z" fill="#AB5F65"/>
</g>
<g style="mix-blend-mode:multiply" opacity="0.3">
<path d="M217.888 72.2341L281.938 72.9563L217.888 73.6893V72.2341Z" fill="#AB5F65"/>
</g>
<g style="mix-blend-mode:multiply" opacity="0.3">
<path d="M287.891 70.3961L260.789 69.674L287.891 68.9409V70.3961Z" fill="#AB5F65"/>
</g>
<path d="M293.153 15.4709L292.967 58.5248V58.5467L292.814 94.8826V94.8935L292.781 102.148L292.726 113.012L292.431 180.213L292.354 195.673V195.684L291.643 356.127H290.604L288.164 354.836H286.643L284.192 353.599L282.627 19.6833L285.636 17.5717H286.566L286.577 17.5607L289.575 15.4709H293.153Z" fill="url(#paint28_radial_4210_9551)" fill-opacity="0.5"/>
<path d="M286.643 354.836L284.192 353.599L282.627 19.6834L285.636 17.5718L286.643 354.836Z" fill="url(#paint29_radial_4210_9551)"/>
<path d="M25.8143 38.3491L25.497 107.673L25.4533 119.106L25.3876 134.085L25.3657 138.265V138.276L25.3548 143.057V143.976L25.322 151.241L25.2673 162.171L25.2125 174.622L24.9062 242.042V242.053L24.8843 246.78V247.097L24.5561 320.458L24.5123 331.99L24.4467 346.947L24.4357 348.359H24.206L21.9849 347.429H21.9739V346.553H19.8842L19.4684 346.389L17.6631 345.7V345.645L16.2407 42.2004L18.9542 40.0997H20.5516L23.2869 38.3491H25.8143Z" fill="url(#paint30_radial_4210_9551)" fill-opacity="0.5"/>
<path d="M19.8842 346.553L19.4684 346.389L17.6631 345.7V345.645L16.2407 42.2003L18.9542 40.0996L19.8842 346.553Z" fill="url(#paint31_radial_4210_9551)"/>
<path d="M30.1363 38.3491L29.9394 82.705L29.8846 94.3465L29.819 109.96L29.7096 135.004L29.6877 140.343V140.354L29.6658 143.976L29.5564 169.031L29.5017 180.345L29.447 192.588L29.2391 240.139V240.15L29.2172 245.434V245.445L29.2063 247.097L28.7686 348.359H24.2061L21.9851 347.429L21.9741 346.553L21.0988 157.237L21.0441 144.085L21.0332 143.965V143.823L21.0113 138.177L20.5518 40.0997L23.2871 38.3491H30.1363Z" fill="url(#paint32_radial_4210_9551)"/>
<path style="mix-blend-mode:multiply" opacity="0.8" d="M24.2061 348.359L21.9851 347.429L21.9741 346.553L21.0988 157.237L21.0441 144.085L21.0332 143.965V143.823L21.0113 138.177L20.5518 40.0997L23.2871 38.3491L23.5278 118.855L23.5497 129.741L23.6044 143.856V144.053L23.6263 155.18L23.67 168.112L24.2061 348.359Z" fill="url(#paint33_linear_4210_9551)"/>
<path d="M297.114 15.4709L296.841 77.0264V77.0374L296.72 102.804L296.698 110.605L295.604 356.127H290.604L288.164 354.836H288.153L286.578 17.5607L289.576 15.4709H297.114Z" fill="url(#paint34_radial_4210_9551)"/>
<path style="mix-blend-mode:multiply" opacity="0.8" d="M290.604 356.127L288.164 354.836H288.153L286.578 17.5607L289.576 15.4709L289.663 42.8241L289.794 88.7992L289.816 95.7688L289.86 107.049L290.112 191.33L290.604 356.127Z" fill="url(#paint35_linear_4210_9551)"/>
<g style="mix-blend-mode:soft-light">
<path d="M289.663 42.824L296.84 77.0373L296.731 102.804L289.805 88.8101L289.663 42.824Z" fill="white"/>
</g>
<g style="mix-blend-mode:soft-light">
<path d="M289.827 95.7578L296.698 110.605L296.633 121.142L289.871 107.049L289.827 95.7578Z" fill="white"/>
</g>
<g style="mix-blend-mode:soft-light">
<path d="M290.122 177.248L296.26 185.137V203.234L290.111 191.33L290.122 177.248Z" fill="white"/>
</g>
<path d="M23.9219 247.097H273.525L289.915 241.714V234.405H42.3688L23.9219 242.48V247.097Z" fill="url(#paint36_radial_4210_9551)"/>
<path d="M289.914 234.405V241.714L205.262 241.583L186.191 241.561L132.163 241.462H126.802L117.535 241.452L81.3413 241.386L42.3795 241.331L23.9106 247.097V242.48L42.3576 234.405H289.914Z" fill="url(#paint37_radial_4210_9551)"/>
<path style="mix-blend-mode:multiply" d="M42.3798 241.331L42.3688 234.405L23.9219 242.48V247.097L42.3798 241.331Z" fill="url(#paint38_linear_4210_9551)"/>
<path d="M23.9219 143.976H273.951L289.915 132.761V125.463H42.3688L23.9219 139.359V143.976Z" fill="url(#paint39_radial_4210_9551)" fill-opacity="0.5"/>
<path d="M289.914 125.463V132.761L206.575 132.63L196.312 132.608L153.05 132.553H150.337L143.685 132.531L126.868 132.51L42.3795 132.378L23.9106 143.965V139.37L42.3576 125.463H289.914Z" fill="url(#paint40_radial_4210_9551)"/>
<path style="mix-blend-mode:multiply" d="M42.3798 132.378L42.3688 125.463L23.9219 139.359V143.976L42.3798 132.378Z" fill="url(#paint41_linear_4210_9551)"/>
<g style="mix-blend-mode:soft-light">
<path d="M145.369 125.463L143.684 132.531L126.868 132.51L129.822 125.463H145.369Z" fill="white"/>
</g>
<g style="mix-blend-mode:soft-light">
<path d="M154.418 125.463L153.05 132.553H150.337L151.869 125.463H154.418Z" fill="white"/>
</g>
<g style="mix-blend-mode:soft-light">
<path d="M206.662 125.463L206.575 132.63L196.312 132.608L196.968 125.463H206.662Z" fill="white"/>
</g>
<path d="M44.1192 15.4709L43.9551 52.7806V52.7916L43.7801 92.1472L43.7472 99.9155V99.9265L43.6925 110.386V110.397L43.2768 207.205L43.2002 223.212L42.7625 320.885L42.6093 356.006L40.443 355.022H37.5982L35.1583 353.982L33.5938 19.8474L36.5917 17.703H38.8565L41.8544 15.4709H44.1192Z" fill="url(#paint42_radial_4210_9551)" fill-opacity="0.5"/>
<path d="M37.6092 355.022H37.5982L35.1583 353.982L33.5938 19.8476L36.5917 17.7031L37.6092 355.022Z" fill="url(#paint43_radial_4210_9551)"/>
<path d="M49.3929 15.4709L48.999 102.804L48.9662 110.605L48.5176 212.873L48.4519 228.53L47.883 356.127H42.8719L42.6093 356.006L40.4429 355.022L38.8564 17.703L41.8544 15.4709H49.3929Z" fill="url(#paint44_radial_4210_9551)"/>
<path style="mix-blend-mode:multiply" opacity="0.8" d="M42.8719 356.127L42.6093 356.006L40.4429 355.022L38.8564 17.703L41.8544 15.4709L41.9419 43.3602V43.3821L41.9747 57.0149L41.9856 60.2973L42.0951 96.5456L42.1279 107.159L42.4233 206.286L42.478 222.49L42.7625 320.885L42.8719 356.127Z" fill="url(#paint45_linear_4210_9551)"/>
<g style="mix-blend-mode:soft-light">
<path d="M41.9312 43.3164L49.1196 76.9389L48.9992 102.804L42.0843 88.6898L41.9312 43.3164Z" fill="white"/>
</g>
<g style="mix-blend-mode:soft-light">
<path d="M41.9312 96.2173L48.9664 110.605L48.9007 121.141L41.9312 106.754V96.2173Z" fill="white"/>
</g>
<g style="mix-blend-mode:soft-light">
<path d="M42.4233 206.286L48.5176 212.873L48.441 228.53L42.4233 222.436V206.286Z" fill="white"/>
</g>
<g style="mix-blend-mode:soft-light">
<path d="M119.242 234.405L117.535 241.452L81.3413 241.386L84.2517 234.405H119.242Z" fill="white"/>
</g>
<g style="mix-blend-mode:soft-light">
<path d="M133.531 234.405L132.163 241.462H126.802L128.323 234.405H133.531Z" fill="white"/>
</g>
<g style="mix-blend-mode:soft-light">
<path d="M205.35 234.405L205.262 241.583L186.191 241.561L186.848 234.405H205.35Z" fill="white"/>
</g>
<g style="mix-blend-mode:soft-light">
<path d="M290.123 195.192V199.251L296.239 214.744L296.261 208.814L290.123 195.192Z" fill="white"/>
</g>
<path d="M41.92 43.9839L23.5824 143.965H21.0112V133.002L38.9002 32.2002H41.8871L41.92 43.9839Z" fill="url(#paint46_linear_4210_9551)"/>
<path style="mix-blend-mode:color-dodge" opacity="0.2" d="M41.9202 32.2002H38.9004V43.9839H41.9202V32.2002Z" fill="url(#paint47_linear_4210_9551)"/>
<path style="mix-blend-mode:multiply" d="M38.9002 43.9839L21.0112 143.965V133.002L38.9002 32.2002V43.9839Z" fill="url(#paint48_linear_4210_9551)" fill-opacity="0.5"/>
<path d="M42.5327 235.128L42.478 223.191L23.5824 143.965H21.0112V156.865L39.5019 235.128H42.5327Z" fill="url(#paint49_linear_4210_9551)" fill-opacity="0.5"/>
<path style="mix-blend-mode:color-dodge" opacity="0.2" d="M42.5217 223.191H39.502V235.127H42.5217V223.191Z" fill="url(#paint50_linear_4210_9551)"/>
<path style="mix-blend-mode:multiply" d="M39.5019 223.191L21.0112 143.965V156.865L39.5019 235.128V223.191Z" fill="url(#paint51_linear_4210_9551)" fill-opacity="0.5"/>
<path d="M268.601 348.358H268.524V348.315L268.601 348.358Z" fill="url(#paint52_radial_4210_9551)"/>
<path d="M33.8344 348.359H19.6764L11 344.901L11.3611 342.844L16.4269 313.905H16.4487L21.3614 315.48H28.9108V315.031L29.8737 315.48L33.5171 345.765L33.8344 348.359Z" fill="url(#paint53_linear_4210_9551)"/>
<path d="M21.3832 315.48L19.6764 348.359L11 344.901L16.4269 313.905H17.4116L21.3614 315.48H21.3832Z" fill="#A6A696"/>
<g style="mix-blend-mode:multiply" opacity="0.3">
<path d="M33.8344 348.359H19.6764L11 344.901L11.3064 343.183L11.3611 342.844L19.8077 345.765H33.5171L33.5937 346.356L33.8344 348.359Z" fill="#AB5F65"/>
</g>
<g style="mix-blend-mode:multiply" opacity="0.3">
<path d="M33.5935 346.356H19.7856L11.3062 343.183L11.3609 342.844L19.8075 345.765H33.5169L33.5935 346.356Z" fill="#AB5F65"/>
</g>
<g style="mix-blend-mode:soft-light">
<path d="M16.4268 313.905L21.3613 315.994L19.6763 348.359L22.4226 316.049L29.8736 315.48H21.3613L17.4115 313.905H16.4268Z" fill="#7F6703"/>
</g>
<g style="mix-blend-mode:soft-light" opacity="0.5">
<path d="M22.2585 317.942L31.6243 330.065L32.6856 338.883L21.5474 326.257L22.2585 317.942Z" fill="#7F6703"/>
</g>
<g style="mix-blend-mode:soft-light" opacity="0.5">
<path d="M21.3176 328.96L33.167 342.844L33.2874 343.818L21.1426 331.137L21.3176 328.96Z" fill="#7F6703"/>
</g>
<path d="M53.627 356.127H37.5872L27.751 352.21L28.1667 349.868L33.9109 317.088H33.9328L39.4909 318.872H48.047V318.369L49.1302 318.872L53.266 353.184L53.627 356.127Z" fill="url(#paint54_linear_4210_9551)"/>
<path d="M39.5238 318.872L37.5872 356.127L27.751 352.21L33.9109 317.088H35.016L39.4909 318.872H39.5238Z" fill="#A6A696"/>
<g style="mix-blend-mode:multiply" opacity="0.3">
<path d="M53.627 356.127H37.5872L27.751 352.21L28.1011 350.262L28.1667 349.868L37.7403 353.184H53.266L53.3535 353.862L53.627 356.127Z" fill="#AB5F65"/>
</g>
<g style="mix-blend-mode:multiply" opacity="0.3">
<path d="M53.3535 353.862H37.6966L28.1011 350.262L28.1667 349.868L37.7403 353.184H53.266L53.3535 353.862Z" fill="#AB5F65"/>
</g>
<g style="mix-blend-mode:soft-light">
<path d="M33.9111 317.088L39.4912 319.452L37.5874 356.127L40.6947 319.506L49.1304 318.872H39.4912L35.0162 317.088H33.9111Z" fill="#7F6703"/>
</g>
<g style="mix-blend-mode:soft-light" opacity="0.5">
<path d="M40.5087 321.662L51.1217 335.393L52.3252 345.383L39.71 331.082L40.5087 321.662Z" fill="#7F6703"/>
</g>
<g style="mix-blend-mode:soft-light" opacity="0.5">
<path d="M39.4471 334.135L52.8721 349.868L53.0034 350.973L39.2393 336.608L39.4471 334.135Z" fill="#7F6703"/>
</g>
<path d="M277.78 348.359H264.64L256.598 345.153L256.937 343.238L261.631 316.399H261.653L266.205 317.865H273.207V317.439L274.104 317.865L277.485 345.952L277.78 348.359Z" fill="url(#paint55_linear_4210_9551)"/>
<path d="M266.226 317.865L264.64 348.359L256.598 345.153L261.631 316.399H262.539L266.205 317.865H266.226Z" fill="#A6A696"/>
<g style="mix-blend-mode:multiply" opacity="0.3">
<path d="M277.78 348.359H264.64L256.598 345.153L256.883 343.555L256.937 343.238L264.771 345.951H277.485L277.551 346.509L277.78 348.359Z" fill="#AB5F65"/>
</g>
<g style="mix-blend-mode:multiply" opacity="0.3">
<path d="M277.551 346.509H264.739L256.883 343.555L256.938 343.238L264.771 345.951H277.485L277.551 346.509Z" fill="#AB5F65"/>
</g>
<g style="mix-blend-mode:soft-light">
<path d="M261.631 316.399L266.205 318.336L264.64 348.359L267.189 318.38L274.104 317.865H266.205L262.539 316.399H261.631Z" fill="#7F6703"/>
</g>
<g style="mix-blend-mode:soft-light" opacity="0.5">
<path d="M267.036 320.141L275.724 331.389L276.708 339.562L266.38 327.855L267.036 320.141Z" fill="#7F6703"/>
</g>
<g style="mix-blend-mode:soft-light" opacity="0.5">
<path d="M266.172 330.36L277.157 343.238L277.267 344.146L265.997 332.384L266.172 330.36Z" fill="#7F6703"/>
</g>
<path d="M300.899 356.127H286.117L277.058 352.516L277.441 350.361L282.737 320.152H282.759L287.879 321.804H295.757V321.334L296.763 321.804L300.571 353.413L300.899 356.127Z" fill="url(#paint56_linear_4210_9551)"/>
<path d="M287.901 321.804L286.117 356.127L277.058 352.516L282.737 320.152H283.754L287.879 321.804H287.901Z" fill="#A6A696"/>
<g style="mix-blend-mode:multiply" opacity="0.3">
<path d="M300.899 356.127H286.117L277.058 352.516L277.386 350.722L277.441 350.361L286.26 353.413H300.571L300.647 354.037L300.899 356.127Z" fill="#AB5F65"/>
</g>
<g style="mix-blend-mode:multiply" opacity="0.3">
<path d="M300.648 354.037H286.227L277.387 350.722L277.441 350.361L286.26 353.413H300.571L300.648 354.037Z" fill="#AB5F65"/>
</g>
<g style="mix-blend-mode:soft-light">
<path d="M282.737 320.152L287.879 322.329L286.118 356.127L288.984 322.384L296.763 321.804H287.879L283.754 320.152H282.737Z" fill="#7F6703"/>
</g>
<g style="mix-blend-mode:soft-light" opacity="0.5">
<path d="M288.809 324.364L298.602 337.023L299.707 346.225L288.076 333.041L288.809 324.364Z" fill="#7F6703"/>
</g>
<g style="mix-blend-mode:soft-light" opacity="0.5">
<path d="M287.835 335.864L300.199 350.361L300.33 351.378L287.649 338.139L287.835 335.864Z" fill="#7F6703"/>
</g>
<path d="M39.5018 231.911L34.0093 235.762V244.986H34.6439L39.9176 243.552H48.3751L49.3927 243.366V231.911H39.5018Z" fill="url(#paint57_linear_4210_9551)"/>
<path d="M39.5018 231.911L34.0093 235.762V244.986L39.5018 243.366V231.911Z" fill="#A6A696"/>
<path d="M34.0093 244.986H34.6439L39.9176 243.552H48.3751L49.3927 243.366H39.5018L34.0093 244.986Z" fill="#585747"/>
<g style="mix-blend-mode:soft-light">
<path d="M49.3927 231.911L40.1254 232.469L39.5018 243.366V232.447L34.0093 235.762L39.5018 231.911H49.3927Z" fill="#7F6703"/>
</g>
<g style="mix-blend-mode:soft-light" opacity="0.5">
<path d="M40.038 233.946L49.3927 240.346V243.366H46.0775L39.8301 237.721L40.038 233.946Z" fill="#7F6703"/>
</g>
<path d="M21.4158 237.436L16.6235 240.795V248.826H17.1815L21.7769 247.579H29.1513L30.0375 247.415V237.436H21.4158Z" fill="url(#paint58_linear_4210_9551)"/>
<path d="M21.4158 237.436L16.6235 240.795V248.826L21.4158 247.415V237.436Z" fill="#A6A696"/>
<path d="M16.6235 248.826H17.1815L21.7769 247.579H29.1513L30.0375 247.415H21.4158L16.6235 248.826Z" fill="#585747"/>
<g style="mix-blend-mode:soft-light">
<path d="M30.0375 237.436L21.9629 237.918L21.4158 247.415V237.907L16.6235 240.795L21.4158 237.436H30.0375Z" fill="#7F6703"/>
</g>
<g style="mix-blend-mode:soft-light" opacity="0.5">
<path d="M21.8867 239.209L30.0379 244.789V247.415H27.1494L21.7007 242.491L21.8867 239.209Z" fill="#7F6703"/>
</g>
<path d="M39.3269 123.592L33.4077 127.728V137.641H34.097L39.7646 136.098H48.8677L49.9618 135.901V123.592H39.3269Z" fill="url(#paint59_linear_4210_9551)"/>
<path d="M39.3269 123.592L33.4077 127.728V137.641L39.3269 135.901V123.592Z" fill="#A6A696"/>
<path d="M33.4077 137.641H34.097L39.7646 136.098H48.8677L49.9618 135.901H39.3269L33.4077 137.641Z" fill="#585747"/>
<g style="mix-blend-mode:soft-light">
<path d="M49.9618 123.592L39.9943 124.183L39.3269 135.901V124.161L33.4077 127.728L39.3269 123.592H49.9618Z" fill="#7F6703"/>
</g>
<g style="mix-blend-mode:soft-light" opacity="0.5">
<path d="M39.8958 125.77L49.9617 132.663V135.901H46.3839L39.666 129.829L39.8958 125.77Z" fill="#7F6703"/>
</g>
<path d="M21.3065 133.177L16.1094 136.809V145.508H16.7111L21.0767 144.227L29.6875 144.162L30.6394 143.987V133.177H21.3065Z" fill="url(#paint60_linear_4210_9551)"/>
<path d="M21.3065 133.177L16.1094 136.809V145.508L21.3065 143.987V133.177Z" fill="#A6A696"/>
<path d="M16.1094 145.508H16.7111L21.0767 144.228L29.6875 144.162L30.6394 143.987H21.3065L16.1094 145.508Z" fill="#585747"/>
<g style="mix-blend-mode:soft-light">
<path d="M30.6394 133.177L21.8864 133.702L21.3065 143.987V133.68L16.1094 136.809L21.3065 133.177H30.6394Z" fill="#7F6703"/>
</g>
<g style="mix-blend-mode:soft-light" opacity="0.5">
<path d="M21.8099 135.092L30.6395 141.142V143.987H27.5103L21.6021 138.647L21.8099 135.092Z" fill="#7F6703"/>
</g>
<path d="M289.718 232.141L283.634 234.405H289.718L289.707 241.78L283.175 243.99V244.515L289.718 242.677H297.683V232.141H289.718Z" fill="url(#paint61_linear_4210_9551)"/>
<path d="M283.175 244.515H283.689L290.265 242.918H296.107L297.683 242.677H289.718L283.175 244.515Z" fill="#585747"/>
<path d="M289.718 232.141V242.677L283.175 244.515V243.99L289.575 241.813L289.543 234.405H283.634L289.718 232.141Z" fill="#A6A696"/>
<g style="mix-blend-mode:soft-light">
<path d="M297.682 232.141H289.717V242.677L290.428 232.775H297.114L297.682 242.677V232.141Z" fill="#7F6703"/>
</g>
<g style="mix-blend-mode:soft-light" opacity="0.5">
<path d="M290.363 233.716L297.595 241.178L297.683 242.677H294.017L290.111 237.261L290.363 233.716Z" fill="#7F6703"/>
</g>
<path d="M289.345 123.242L285.735 125.474H289.345L289.323 132.783L282.627 137.882V138.418L289.345 133.669H298.284V123.242H289.345Z" fill="url(#paint62_linear_4210_9551)"/>
<path d="M282.627 138.418H283.185L289.936 134.402H296.567L298.284 133.669H289.345L282.627 138.418Z" fill="#585747"/>
<path d="M289.345 123.242V133.669L282.627 138.418V137.882L289.137 132.772L289.148 125.474H285.68L289.345 123.242Z" fill="#A6A696"/>
<g style="mix-blend-mode:soft-light">
<path d="M298.284 123.242H289.345V133.669L290.111 123.855H297.672L298.284 133.669V123.242Z" fill="#7F6703"/>
</g>
<g style="mix-blend-mode:soft-light" opacity="0.5">
<path d="M290.035 124.796L298.197 132.17L298.284 133.669H294.028L289.761 128.297L290.035 124.796Z" fill="#7F6703"/>
</g>
<path d="M271.347 143.965V145.026H267.43H261.369V143.965H271.347Z" fill="#A6A696"/>
<path d="M261.369 145.026L261.85 145.256H267.912H271.347V145.026H261.369Z" fill="#585747"/>
<path d="M271.347 143.965H267.43V145.026H271.347V143.965Z" fill="url(#paint63_linear_4210_9551)"/>
<g style="mix-blend-mode:soft-light" opacity="0.7">
<path d="M267.912 145.256L267.43 145.026H271.347V145.256H267.912Z" fill="#7F6703"/>
</g>
<path d="M274.553 247.097V248.158H267.222H261.467V247.097H274.553Z" fill="#A6A696"/>
<path d="M261.467 248.159L262.342 248.388H268.228H273.513L274.553 248.159H261.467Z" fill="#585747"/>
<path d="M267.222 248.159V247.097H273.524L274.553 246.758V248.159H267.222Z" fill="url(#paint64_linear_4210_9551)"/>
<g style="mix-blend-mode:soft-light" opacity="0.7">
<path d="M268.229 248.388L267.222 248.159H274.553L273.513 248.388H268.229Z" fill="#7F6703"/>
</g>
<defs>
<linearGradient id="paint0_linear_4210_9551" x1="63.3101" y1="193.813" x2="263.261" y2="193.813" gradientUnits="userSpaceOnUse">
<stop stop-color="#FFC77D"/>
<stop offset="1" stop-color="#F99D6C"/>
</linearGradient>
<linearGradient id="paint1_linear_4210_9551" x1="63.3101" y1="193.813" x2="107.119" y2="193.813" gradientUnits="userSpaceOnUse">
<stop stop-color="#AF402B"/>
<stop offset="1" stop-color="#651120"/>
</linearGradient>
<linearGradient id="paint2_linear_4210_9551" x1="172.022" y1="190.629" x2="191.914" y2="190.629" gradientUnits="userSpaceOnUse">
<stop stop-color="#AF402B"/>
<stop offset="1" stop-color="#651120"/>
</linearGradient>
<linearGradient id="paint3_linear_4210_9551" x1="63.3101" y1="235.762" x2="263.261" y2="235.762" gradientUnits="userSpaceOnUse">
<stop offset="0.26" stop-color="#651120"/>
<stop offset="1" stop-color="#AF402B"/>
</linearGradient>
<linearGradient id="paint4_linear_4210_9551" x1="253.557" y1="306.027" x2="60.2905" y2="306.027" gradientUnits="userSpaceOnUse">
<stop stop-color="#FFC67A"/>
<stop offset="1" stop-color="#F99D6C"/>
</linearGradient>
<linearGradient id="paint5_linear_4210_9551" x1="251.281" y1="306.027" x2="119.702" y2="306.027" gradientUnits="userSpaceOnUse">
<stop offset="0.26" stop-color="#B8727E"/>
<stop offset="1" stop-color="#CB8679"/>
</linearGradient>
<linearGradient id="paint6_linear_4210_9551" x1="121.047" y1="307.405" x2="60.2905" y2="307.405" gradientUnits="userSpaceOnUse">
<stop offset="0.26" stop-color="#651120"/>
<stop offset="1" stop-color="#AF402B"/>
</linearGradient>
<linearGradient id="paint7_linear_4210_9551" x1="51.6139" y1="10.055" x2="31.3179" y2="10.055" gradientUnits="userSpaceOnUse">
<stop offset="1" stop-color="#7F6C18"/>
</linearGradient>
<linearGradient id="paint8_linear_4210_9551" x1="32.3136" y1="33.7319" x2="14.9717" y2="33.7319" gradientUnits="userSpaceOnUse">
<stop offset="1" stop-color="#7F6C18"/>
</linearGradient>
<linearGradient id="paint9_linear_4210_9551" x1="276.61" y1="33.7319" x2="259.268" y2="33.7319" gradientUnits="userSpaceOnUse">
<stop offset="1" stop-color="#7F6C18"/>
</linearGradient>
<linearGradient id="paint10_linear_4210_9551" x1="299.751" y1="10.055" x2="279.455" y2="10.055" gradientUnits="userSpaceOnUse">
<stop offset="1" stop-color="#7F6C18"/>
</linearGradient>
<radialGradient id="paint11_radial_4210_9551" cx="0" cy="0" r="1" gradientUnits="userSpaceOnUse" gradientTransform="translate(266.15 193.354) scale(109.653 109.653)">
<stop stop-color="#584B99"/>
<stop offset="0.99" stop-color="#6B3489"/>
</radialGradient>
<radialGradient id="paint12_radial_4210_9551" cx="0" cy="0" r="1" gradientUnits="userSpaceOnUse" gradientTransform="translate(263.196 193.824) scale(108.472 108.472)">
<stop stop-color="#8DADCF"/>
<stop offset="1" stop-color="#8472B2"/>
</radialGradient>
<radialGradient id="paint13_radial_4210_9551" cx="0" cy="0" r="1" gradientUnits="userSpaceOnUse" gradientTransform="translate(269.662 193.354) scale(109.653 109.653)">
<stop stop-color="#BAD5F1"/>
<stop offset="1" stop-color="#A898C9"/>
</radialGradient>
<linearGradient id="paint14_linear_4210_9551" x1="268.524" y1="193.343" x2="264.859" y2="193.343" gradientUnits="userSpaceOnUse">
<stop stop-color="#7464AA"/>
<stop offset="0.48" stop-color="#A398C8"/>
<stop offset="1" stop-color="#D2CCE6"/>
</linearGradient>
<linearGradient id="paint15_linear_4210_9551" x1="271.347" y1="189.546" x2="292.869" y2="189.546" gradientUnits="userSpaceOnUse">
<stop stop-color="#7464AA"/>
<stop offset="0.18" stop-color="#7767AC"/>
<stop offset="0.34" stop-color="#8172B2"/>
<stop offset="0.5" stop-color="#9184BC"/>
<stop offset="0.64" stop-color="#A79DC9"/>
<stop offset="0.78" stop-color="#C5BEDB"/>
<stop offset="0.92" stop-color="#E8E5F1"/>
<stop offset="1" stop-color="white"/>
</linearGradient>
<linearGradient id="paint16_linear_4210_9551" x1="292.869" y1="229.154" x2="289.838" y2="229.154" gradientUnits="userSpaceOnUse">
<stop offset="0.1" stop-color="white"/>
<stop offset="0.97" stop-color="#E8C2C2"/>
</linearGradient>
<linearGradient id="paint17_linear_4210_9551" x1="271.347" y1="189.546" x2="289.838" y2="189.546" gradientUnits="userSpaceOnUse">
<stop stop-color="#7464AA"/>
<stop offset="0.18" stop-color="#7767AC"/>
<stop offset="0.34" stop-color="#8172B2"/>
<stop offset="0.5" stop-color="#9184BC"/>
<stop offset="0.64" stop-color="#A79DC9"/>
<stop offset="0.78" stop-color="#C5BEDB"/>
<stop offset="0.92" stop-color="#E8E5F1"/>
<stop offset="1" stop-color="white"/>
</linearGradient>
<linearGradient id="paint18_linear_4210_9551" x1="268.688" y1="88.0881" x2="289.608" y2="88.0881" gradientUnits="userSpaceOnUse">
<stop stop-color="#7464AA"/>
<stop offset="0.18" stop-color="#7767AC"/>
<stop offset="0.34" stop-color="#8172B2"/>
<stop offset="0.5" stop-color="#9184BC"/>
<stop offset="0.64" stop-color="#A79DC9"/>
<stop offset="0.78" stop-color="#C5BEDB"/>
<stop offset="0.92" stop-color="#E8E5F1"/>
<stop offset="1" stop-color="white"/>
</linearGradient>
<linearGradient id="paint19_linear_4210_9551" x1="289.608" y1="38.0975" x2="286.578" y2="38.0975" gradientUnits="userSpaceOnUse">
<stop offset="0.1" stop-color="white"/>
<stop offset="0.97" stop-color="#E8C2C2"/>
</linearGradient>
<linearGradient id="paint20_linear_4210_9551" x1="286.577" y1="88.0881" x2="268.688" y2="88.0881" gradientUnits="userSpaceOnUse">
<stop stop-color="#7464AA"/>
<stop offset="0.18" stop-color="#7767AC"/>
<stop offset="0.34" stop-color="#8172B2"/>
<stop offset="0.5" stop-color="#9184BC"/>
<stop offset="0.64" stop-color="#A79DC9"/>
<stop offset="0.78" stop-color="#C5BEDB"/>
<stop offset="0.92" stop-color="#E8E5F1"/>
<stop offset="1" stop-color="white"/>
</linearGradient>
<linearGradient id="paint21_linear_4210_9551" x1="33.9985" y1="76.906" x2="199.868" y2="76.906" gradientUnits="userSpaceOnUse">
<stop stop-color="#F99D6C"/>
<stop offset="1" stop-color="#FCB04B"/>
</linearGradient>
<linearGradient id="paint22_linear_4210_9551" x1="43.9331" y1="54.5531" x2="186.574" y2="54.5531" gradientUnits="userSpaceOnUse">
<stop offset="0.26" stop-color="#651120"/>
<stop offset="1" stop-color="#AF402B"/>
</linearGradient>
<linearGradient id="paint23_linear_4210_9551" x1="33.9985" y1="76.906" x2="48.069" y2="76.906" gradientUnits="userSpaceOnUse">
<stop stop-color="#AF402B"/>
<stop offset="1" stop-color="#651120"/>
</linearGradient>
<linearGradient id="paint24_linear_4210_9551" x1="35.1255" y1="132.28" x2="184.758" y2="132.28" gradientUnits="userSpaceOnUse">
<stop stop-color="#AF402B"/>
<stop offset="1" stop-color="#651120"/>
</linearGradient>
<linearGradient id="paint25_linear_4210_9551" x1="195.185" y1="90.5059" x2="290.604" y2="90.5059" gradientUnits="userSpaceOnUse">
<stop stop-color="#F99D6C"/>
<stop offset="1" stop-color="#FDB75C"/>
</linearGradient>
<linearGradient id="paint26_linear_4210_9551" x1="286.556" y1="90.4952" x2="195.196" y2="90.4952" gradientUnits="userSpaceOnUse">
<stop stop-color="#AF402B"/>
<stop offset="1" stop-color="#651120"/>
</linearGradient>
<linearGradient id="paint27_linear_4210_9551" x1="285.396" y1="132.794" x2="196.465" y2="132.794" gradientUnits="userSpaceOnUse">
<stop stop-color="#AF402B"/>
<stop offset="1" stop-color="#651120"/>
</linearGradient>
<radialGradient id="paint28_radial_4210_9551" cx="0" cy="0" r="1" gradientUnits="userSpaceOnUse" gradientTransform="translate(287.89 185.793) scale(120.496 120.496)">
<stop stop-color="#584B99"/>
<stop offset="0.99" stop-color="#6B3489"/>
</radialGradient>
<radialGradient id="paint29_radial_4210_9551" cx="0" cy="0" r="1" gradientUnits="userSpaceOnUse" gradientTransform="translate(284.641 186.209) scale(119.249 119.249)">
<stop stop-color="#8DADCF"/>
<stop offset="1" stop-color="#8472B2"/>
</radialGradient>
<radialGradient id="paint30_radial_4210_9551" cx="0" cy="0" r="1" gradientUnits="userSpaceOnUse" gradientTransform="translate(21.0221 193.354) scale(109.653 109.653)">
<stop stop-color="#584B99"/>
<stop offset="0.99" stop-color="#6B3489"/>
</radialGradient>
<radialGradient id="paint31_radial_4210_9551" cx="0" cy="0" r="1" gradientUnits="userSpaceOnUse" gradientTransform="translate(18.057 193.321) scale(108.362 108.362)">
<stop stop-color="#8DADCF"/>
<stop offset="1" stop-color="#8472B2"/>
</radialGradient>
<radialGradient id="paint32_radial_4210_9551" cx="0" cy="0" r="1" gradientUnits="userSpaceOnUse" gradientTransform="translate(25.344 193.354) scale(109.653 109.653)">
<stop stop-color="#BAD5F1"/>
<stop offset="1" stop-color="#A898C9"/>
</radialGradient>
<linearGradient id="paint33_linear_4210_9551" x1="24.2061" y1="193.354" x2="20.5518" y2="193.354" gradientUnits="userSpaceOnUse">
<stop stop-color="#7464AA"/>
<stop offset="0.48" stop-color="#A398C8"/>
<stop offset="1" stop-color="#D2CCE6"/>
</linearGradient>
<radialGradient id="paint34_radial_4210_9551" cx="0" cy="0" r="1" gradientUnits="userSpaceOnUse" gradientTransform="translate(291.851 185.793) scale(120.496 120.496)">
<stop stop-color="#BAD5F1"/>
<stop offset="1" stop-color="#A898C9"/>
</radialGradient>
<linearGradient id="paint35_linear_4210_9551" x1="290.604" y1="185.793" x2="286.578" y2="185.793" gradientUnits="userSpaceOnUse">
<stop stop-color="#7464AA"/>
<stop offset="0.48" stop-color="#A398C8"/>
<stop offset="1" stop-color="#D2CCE6"/>
</linearGradient>
<radialGradient id="paint36_radial_4210_9551" cx="0" cy="0" r="1" gradientUnits="userSpaceOnUse" gradientTransform="translate(155.702 240.751) scale(93.6512 102.913)">
<stop stop-color="#584B99"/>
<stop offset="0.99" stop-color="#6B3489"/>
</radialGradient>
<radialGradient id="paint37_radial_4210_9551" cx="0" cy="0" r="1" gradientUnits="userSpaceOnUse" gradientTransform="translate(155.692 240.751) scale(93.6512 102.913)">
<stop stop-color="#BAD5F1"/>
<stop offset="1" stop-color="#A898C9"/>
</radialGradient>
<linearGradient id="paint38_linear_4210_9551" x1="42.3798" y1="240.751" x2="23.9219" y2="240.751" gradientUnits="userSpaceOnUse">
<stop stop-color="#7464AA"/>
<stop offset="0.18" stop-color="#7767AC"/>
<stop offset="0.34" stop-color="#8172B2"/>
<stop offset="0.5" stop-color="#9184BC"/>
<stop offset="0.64" stop-color="#A79DC9"/>
<stop offset="0.78" stop-color="#C5BEDB"/>
<stop offset="0.92" stop-color="#E8E5F1"/>
<stop offset="1" stop-color="white"/>
</linearGradient>
<radialGradient id="paint39_radial_4210_9551" cx="0" cy="0" r="1" gradientUnits="userSpaceOnUse" gradientTransform="translate(155.702 134.72) scale(93.7508 103.023)">
<stop stop-color="#584B99"/>
<stop offset="0.99" stop-color="#6B3489"/>
</radialGradient>
<radialGradient id="paint40_radial_4210_9551" cx="0" cy="0" r="1" gradientUnits="userSpaceOnUse" gradientTransform="translate(155.692 134.72) scale(93.7508 103.023)">
<stop stop-color="#BAD5F1"/>
<stop offset="1" stop-color="#A898C9"/>
</radialGradient>
<linearGradient id="paint41_linear_4210_9551" x1="42.3798" y1="134.72" x2="23.9219" y2="134.72" gradientUnits="userSpaceOnUse">
<stop stop-color="#7464AA"/>
<stop offset="0.18" stop-color="#7767AC"/>
<stop offset="0.34" stop-color="#8172B2"/>
<stop offset="0.5" stop-color="#9184BC"/>
<stop offset="0.64" stop-color="#A79DC9"/>
<stop offset="0.78" stop-color="#C5BEDB"/>
<stop offset="0.92" stop-color="#E8E5F1"/>
<stop offset="1" stop-color="white"/>
</linearGradient>
<radialGradient id="paint42_radial_4210_9551" cx="0" cy="0" r="1" gradientUnits="userSpaceOnUse" gradientTransform="translate(38.8565 185.739) scale(120.452 120.452)">
<stop stop-color="#584B99"/>
<stop offset="0.99" stop-color="#6B3489"/>
</radialGradient>
<radialGradient id="paint43_radial_4210_9551" cx="0" cy="0" r="1" gradientUnits="userSpaceOnUse" gradientTransform="translate(35.596 186.363) scale(119.271 119.271)">
<stop stop-color="#8DADCF"/>
<stop offset="1" stop-color="#8472B2"/>
</radialGradient>
<radialGradient id="paint44_radial_4210_9551" cx="0" cy="0" r="1" gradientUnits="userSpaceOnUse" gradientTransform="translate(44.1301 185.793) scale(120.496 120.496)">
<stop stop-color="#BAD5F1"/>
<stop offset="1" stop-color="#A898C9"/>
</radialGradient>
<linearGradient id="paint45_linear_4210_9551" x1="42.8719" y1="185.793" x2="38.8564" y2="185.793" gradientUnits="userSpaceOnUse">
<stop stop-color="#7464AA"/>
<stop offset="0.48" stop-color="#A398C8"/>
<stop offset="1" stop-color="#D2CCE6"/>
</linearGradient>
<linearGradient id="paint46_linear_4210_9551" x1="21.0112" y1="88.0881" x2="41.92" y2="88.0881" gradientUnits="userSpaceOnUse">
<stop stop-color="#7464AA"/>
<stop offset="0.18" stop-color="#7767AC"/>
<stop offset="0.34" stop-color="#8172B2"/>
<stop offset="0.5" stop-color="#9184BC"/>
<stop offset="0.64" stop-color="#A79DC9"/>
<stop offset="0.78" stop-color="#C5BEDB"/>
<stop offset="0.92" stop-color="#E8E5F1"/>
<stop offset="1" stop-color="white"/>
</linearGradient>
<linearGradient id="paint47_linear_4210_9551" x1="41.9202" y1="38.0975" x2="38.9004" y2="38.0975" gradientUnits="userSpaceOnUse">
<stop offset="0.1" stop-color="white"/>
<stop offset="0.97" stop-color="#E8C2C2"/>
</linearGradient>
<linearGradient id="paint48_linear_4210_9551" x1="38.9002" y1="88.0881" x2="21.0112" y2="88.0881" gradientUnits="userSpaceOnUse">
<stop stop-color="#7464AA"/>
<stop offset="0.18" stop-color="#7767AC"/>
<stop offset="0.34" stop-color="#8172B2"/>
<stop offset="0.5" stop-color="#9184BC"/>
<stop offset="0.64" stop-color="#A79DC9"/>
<stop offset="0.78" stop-color="#C5BEDB"/>
<stop offset="0.92" stop-color="#E8E5F1"/>
<stop offset="1" stop-color="white"/>
</linearGradient>
<linearGradient id="paint49_linear_4210_9551" x1="21.0112" y1="189.546" x2="42.5327" y2="189.546" gradientUnits="userSpaceOnUse">
<stop stop-color="#7464AA"/>
<stop offset="0.18" stop-color="#7767AC"/>
<stop offset="0.34" stop-color="#8172B2"/>
<stop offset="0.5" stop-color="#9184BC"/>
<stop offset="0.64" stop-color="#A79DC9"/>
<stop offset="0.78" stop-color="#C5BEDB"/>
<stop offset="0.92" stop-color="#E8E5F1"/>
<stop offset="1" stop-color="white"/>
</linearGradient>
<linearGradient id="paint50_linear_4210_9551" x1="42.5327" y1="229.154" x2="39.502" y2="229.154" gradientUnits="userSpaceOnUse">
<stop offset="0.1" stop-color="white"/>
<stop offset="0.97" stop-color="#E8C2C2"/>
</linearGradient>
<linearGradient id="paint51_linear_4210_9551" x1="21.0112" y1="189.546" x2="39.5019" y2="189.546" gradientUnits="userSpaceOnUse">
<stop stop-color="#7464AA"/>
<stop offset="0.18" stop-color="#7767AC"/>
<stop offset="0.34" stop-color="#8172B2"/>
<stop offset="0.5" stop-color="#9184BC"/>
<stop offset="0.64" stop-color="#A79DC9"/>
<stop offset="0.78" stop-color="#C5BEDB"/>
<stop offset="0.92" stop-color="#E8E5F1"/>
<stop offset="1" stop-color="white"/>
</linearGradient>
<radialGradient id="paint52_radial_4210_9551" cx="0" cy="0" r="1" gradientUnits="userSpaceOnUse" gradientTransform="translate(268.568 348.337) scale(0.0328272 0.0328308)">
<stop stop-color="#8DADCF"/>
<stop offset="1" stop-color="#8472B2"/>
</radialGradient>
<linearGradient id="paint53_linear_4210_9551" x1="33.8344" y1="331.137" x2="11" y2="331.137" gradientUnits="userSpaceOnUse">
<stop offset="1" stop-color="#7F6C18"/>
</linearGradient>
<linearGradient id="paint54_linear_4210_9551" x1="53.627" y1="336.608" x2="27.751" y2="336.608" gradientUnits="userSpaceOnUse">
<stop offset="1" stop-color="#7F6C18"/>
</linearGradient>
<linearGradient id="paint55_linear_4210_9551" x1="277.78" y1="332.384" x2="256.598" y2="332.384" gradientUnits="userSpaceOnUse">
<stop offset="1" stop-color="#7F6C18"/>
</linearGradient>
<linearGradient id="paint56_linear_4210_9551" x1="300.899" y1="338.139" x2="277.058" y2="338.139" gradientUnits="userSpaceOnUse">
<stop offset="1" stop-color="#7F6C18"/>
</linearGradient>
<linearGradient id="paint57_linear_4210_9551" x1="49.3927" y1="238.443" x2="34.0093" y2="238.443" gradientUnits="userSpaceOnUse">
<stop offset="1" stop-color="#7F6C18"/>
</linearGradient>
<linearGradient id="paint58_linear_4210_9551" x1="30.0375" y1="243.137" x2="16.6235" y2="243.137" gradientUnits="userSpaceOnUse">
<stop offset="1" stop-color="#7F6C18"/>
</linearGradient>
<linearGradient id="paint59_linear_4210_9551" x1="49.9618" y1="130.617" x2="33.4077" y2="130.617" gradientUnits="userSpaceOnUse">
<stop offset="1" stop-color="#7F6C18"/>
</linearGradient>
<linearGradient id="paint60_linear_4210_9551" x1="30.6394" y1="139.348" x2="16.1094" y2="139.348" gradientUnits="userSpaceOnUse">
<stop offset="1" stop-color="#7F6C18"/>
</linearGradient>
<linearGradient id="paint61_linear_4210_9551" x1="297.683" y1="238.333" x2="283.175" y2="238.333" gradientUnits="userSpaceOnUse">
<stop offset="1" stop-color="#7F6C18"/>
</linearGradient>
<linearGradient id="paint62_linear_4210_9551" x1="298.284" y1="130.824" x2="282.627" y2="130.824" gradientUnits="userSpaceOnUse">
<stop offset="1" stop-color="#7F6C18"/>
</linearGradient>
<linearGradient id="paint63_linear_4210_9551" x1="267.43" y1="144.501" x2="271.347" y2="144.501" gradientUnits="userSpaceOnUse">
<stop offset="1" stop-color="#7F6C18"/>
</linearGradient>
<linearGradient id="paint64_linear_4210_9551" x1="267.222" y1="247.458" x2="274.553" y2="247.458" gradientUnits="userSpaceOnUse">
<stop offset="1" stop-color="#7F6C18"/>
</linearGradient>
</defs>
</svg>
