<svg width="1920" height="1104" viewBox="0 0 1920 1104" fill="none" xmlns="http://www.w3.org/2000/svg">
<rect width="1920" height="1104" fill="#F5F1E8"/>
<path d="M1704.3 207.7C1705.1 207 1706.3 206.9 1707.3 207.4L1712.4 210.5L1716.9 206.6C1717.7 205.9 1718.9 205.8 1719.9 206.3C1720.8 206.9 1721.3 208 1721.1 209L1719.8 214.8L1724.9 217.9C1725.8 218.5 1726.3 219.6 1726.1 220.6C1725.9 221.7 1725 222.5 1723.9 222.5L1718 223L1716.7 228.8C1716.5 229.9 1715.6 230.7 1714.5 230.8C1713.4 230.9 1712.4 230.3 1712 229.3L1709.7 223.8L1703.8 224.3C1702.7 224.4 1701.7 223.8 1701.3 222.8C1700.9 221.8 1701.1 220.6 1702 219.9L1706.5 216L1704.2 210.5C1704 210 1703.9 209.5 1704.1 209C1703.6 208.5 1703.9 208.1 1704.3 207.7Z" fill="white"/>
<path d="M1694 785C1694.6 784.1 1695.8 783.7 1696.8 784.1L1702.5 785.9L1706 781.1C1706.6 780.2 1707.8 779.8 1708.8 780.2C1709.8 780.5 1710.5 781.5 1710.5 782.6L1710.5 788.6L1716.2 790.4C1717.2 790.7 1717.9 791.7 1717.9 792.8C1717.9 793.9 1717.2 794.9 1716.2 795.2L1710.5 797L1710.5 803C1710.5 804.1 1709.8 805.1 1708.8 805.4C1707.8 805.7 1706.6 805.4 1706 804.5L1702.5 799.7L1696.8 801.5C1695.8 801.8 1694.6 801.5 1694 800.6C1693.4 799.7 1693.4 798.5 1694 797.6L1697.5 792.8L1694 788C1693.7 787.6 1693.5 787 1693.5 786.5C1693.5 785.9 1693.7 785.4 1694 785Z" fill="white"/>
<path d="M491.3 111.4C491.5 110.3 492.4 109.5 493.4 109.3L499.3 108.5L500.4 102.6C500.6 101.5 501.5 100.7 502.5 100.6C503.6 100.5 504.6 101 505.1 102L507.7 107.4L513.6 106.6C514.7 106.5 515.7 107 516.2 108C516.7 109 516.5 110.2 515.7 110.9L511.4 115L514 120.4C514.5 121.4 514.3 122.6 513.5 123.3C512.7 124.1 511.5 124.2 510.6 123.7L505.4 120.9L501.1 125C500.3 125.8 499.1 125.9 498.2 125.4C497.2 124.9 496.7 123.8 496.9 122.7L498 116.8L492.7 114C492.2 113.7 491.9 113.3 491.6 112.9C491.2 112.5 491.2 112 491.3 111.4Z" fill="white"/>
<path d="M1822.8 657C1823 655.9 1823.9 655.1 1824.9 655L1830.8 654.2L1831.9 648.3C1832.1 647.2 1833 646.4 1834 646.3C1835.1 646.2 1836.1 646.7 1836.6 647.7L1839.2 653.1L1845.1 652.3C1846.2 652.2 1847.2 652.7 1847.7 653.7C1848.2 654.7 1848 655.9 1847.2 656.6L1842.9 660.7L1845.5 666.1C1846 667.1 1845.8 668.3 1845 669C1844.2 669.8 1843 669.9 1842.1 669.4L1836.9 666.6L1832.6 670.7C1831.8 671.5 1830.6 671.6 1829.7 671.1C1828.7 670.6 1828.2 669.5 1828.4 668.4L1829.5 662.5L1824.2 659.7C1823.7 659.4 1823.4 659 1823.1 658.6C1822.7 658.1 1822.7 657.5 1822.8 657Z" fill="white"/>
<path d="M1661 467.3C1662 466.8 1663.2 467 1663.9 467.7L1668.2 471.9L1673.5 469.2C1674.5 468.7 1675.7 468.9 1676.4 469.6C1677.2 470.4 1677.4 471.5 1676.9 472.5L1674.2 477.9L1678.4 482.1C1679.2 482.8 1679.4 484 1678.9 485C1678.4 486 1677.4 486.5 1676.3 486.4L1670.4 485.5L1667.7 490.8C1667.2 491.8 1666.1 492.3 1665.1 492.2C1664 492 1663.2 491.2 1663 490.1L1662 484.2L1656.1 483.3C1655 483.1 1654.2 482.3 1654 481.2C1653.8 480.1 1654.4 479.1 1655.3 478.5L1660.6 475.8L1659.6 469.9C1659.5 469.4 1659.6 468.8 1659.8 468.4C1660.1 467.9 1660.5 467.5 1661 467.3Z" fill="white"/>
<path d="M462.6 828C463.5 827.4 464.7 827.5 465.6 828.2L470.2 832L475.2 828.8C476.1 828.2 477.3 828.3 478.2 829C479 829.7 479.4 830.8 479 831.9L476.9 837.5L481.5 841.3C482.3 842 482.7 843.1 482.3 844.2C481.9 845.2 480.9 845.9 479.8 845.8L473.8 845.5L471.7 851.1C471.3 852.1 470.3 852.8 469.2 852.7C468.1 852.6 467.2 851.9 466.9 850.8L465.4 845L459.4 844.7C458.3 844.6 457.4 843.9 457.1 842.8C456.8 841.7 457.3 840.6 458.2 840L463.2 836.8L461.7 831C461.6 830.5 461.6 829.9 461.8 829.4C461.8 828.7 462.1 828.3 462.6 828Z" fill="white"/>
<path d="M1089.6 405.5C1090.2 404.6 1091.4 404.2 1092.4 404.6L1098.1 406.4L1101.6 401.6C1102.2 400.7 1103.4 400.3 1104.4 400.7C1105.4 401 1106.1 402 1106.1 403.1L1106.1 409.1L1111.8 410.9C1112.8 411.2 1113.5 412.2 1113.5 413.3C1113.5 414.4 1112.8 415.4 1111.8 415.7L1106.1 417.5L1106.1 423.5C1106.1 424.6 1105.4 425.6 1104.4 425.9C1103.4 426.2 1102.2 425.9 1101.6 425L1098.1 420.2L1092.4 422C1091.4 422.3 1090.2 422 1089.6 421.1C1089 420.2 1089 419 1089.6 418.1L1093.1 413.3L1089.6 408.5C1089.3 408.1 1089.1 407.5 1089.1 407C1089.1 406.5 1089.2 405.9 1089.6 405.5Z" fill="white"/>
<path d="M840.298 836.101C841.298 835.601 842.398 835.701 843.198 836.501L847.498 840.601L852.798 837.801C853.798 837.301 854.898 837.401 855.698 838.201C856.498 839.001 856.698 840.101 856.198 841.101L853.598 846.501L857.898 850.601C858.698 851.401 858.898 852.501 858.398 853.501C857.898 854.501 856.898 855.101 855.798 854.901L849.898 854.101L847.298 859.501C846.798 860.501 845.798 861.001 844.698 860.901C843.598 860.801 842.798 859.901 842.598 858.901L841.498 853.001L835.598 852.201C834.498 852.101 833.698 851.201 833.498 850.201C833.298 849.101 833.798 848.001 834.798 847.501L840.098 844.701L838.998 838.801C838.898 838.301 838.998 837.701 839.198 837.301C839.498 836.801 839.898 836.401 840.298 836.101Z" fill="white"/>
<path d="M109.398 194.8C109.698 193.8 110.698 193 111.798 193L117.798 192.9L119.598 187.2C119.898 186.2 120.898 185.4 121.998 185.4C123.098 185.4 124.098 186.1 124.398 187.1L126.298 192.7L132.298 192.6C133.398 192.6 134.398 193.3 134.698 194.3C135.098 195.3 134.698 196.5 133.798 197.1L128.998 200.7L130.898 206.3C131.298 207.3 130.898 208.5 129.998 209.1C129.098 209.8 127.898 209.8 126.998 209.1L122.198 206L117.398 209.6C116.498 210.3 115.298 210.3 114.398 209.6C113.498 209 113.098 207.8 113.398 206.8L115.198 201.1L110.298 197.7C109.898 197.4 109.498 196.9 109.398 196.5C109.198 195.9 109.198 195.4 109.398 194.8Z" fill="white"/>
<path d="M107.1 715C107.6 714 108.6 713.4 109.7 713.6L115.6 714.3L118.1 708.9C118.6 707.9 119.6 707.3 120.7 707.5C121.8 707.6 122.7 708.5 122.9 709.5L124 715.4L129.9 716.1C131 716.2 131.9 717.1 132.1 718.1C132.3 719.2 131.8 720.3 130.8 720.8L125.6 723.7L126.7 729.6C126.9 730.7 126.4 731.8 125.4 732.3C124.4 732.8 123.3 732.7 122.5 731.9L118.1 727.8L112.9 730.7C111.9 731.2 110.8 731.1 110 730.3C109.2 729.6 109 728.4 109.4 727.4L111.9 722L107.5 717.9C107.1 717.5 106.8 717 106.7 716.5C106.8 716 106.9 715.5 107.1 715Z" fill="white"/>
<path d="M227.296 446.712C228.096 446.012 229.296 445.912 230.296 446.412L235.396 449.512L239.796 445.612C240.596 444.912 241.796 444.813 242.796 445.313C243.696 445.913 244.196 447.012 243.996 448.012L242.696 453.813L247.796 456.912C248.696 457.512 249.196 458.612 248.996 459.612C248.796 460.712 247.896 461.512 246.796 461.612L240.896 462.112L239.596 467.912C239.396 469.012 238.396 469.813 237.396 469.813C236.296 469.913 235.296 469.313 234.896 468.313L232.596 462.813L226.696 463.313C225.596 463.413 224.596 462.813 224.196 461.813C223.796 460.813 223.996 459.612 224.896 458.912L229.396 455.012L227.096 449.512C226.896 449.012 226.796 448.512 226.996 447.912C226.596 447.512 226.796 447.112 227.296 446.712Z" fill="white"/>
<path d="M785.371 407.144C783.817 391.32 773.498 382.871 765.157 378.528C757.402 374.49 750.162 373.434 750.162 373.434C749.797 373.424 717.911 368.037 707.705 395.287C701.29 412.209 707.079 423.002 712.135 432.328C715.066 437.834 717.631 442.607 717.271 447.666C716.767 454.459 717.138 459.175 719.92 462.433C719.848 462.938 719.776 463.805 719.777 464.891C719.778 466.339 720.512 468.168 721.391 469.711C721.245 469.997 721.099 470.283 720.953 470.569C720.662 471.502 720.809 472.303 721.176 473.398L721.103 473.541C720.738 473.894 720.227 474.532 720.008 475.323C719.863 475.971 719.937 476.914 720.523 477.943L720.45 478.086C720.232 478.877 719.72 479.515 719.575 480.163C719.357 480.954 719.504 482.116 720.822 483.526C720.968 483.602 720.968 483.602 721.115 483.678C721.115 483.678 721.261 483.754 721.553 483.907C721.992 484.135 722.797 484.373 723.894 484.764C724.407 485.935 725.433 487.555 728.067 488.926C729.823 489.841 732.236 490.555 735.015 490.916C742.914 492.134 746.055 489.971 747.296 488.266C749.417 488.465 749.929 488.189 750.148 488.122C750.221 487.979 750.367 488.055 750.44 487.912C752.048 486.94 752.412 485.864 752.484 484.997C752.556 484.13 752.19 483.396 751.897 482.882L751.97 482.739C752.919 481.967 753.064 480.957 753.21 480.309C753.282 479.442 752.916 478.709 752.622 478.194L752.695 478.051C753.279 477.27 753.717 476.413 753.643 475.469C753.643 475.107 753.642 474.745 753.422 474.45C754.737 473.326 755.759 471.687 756.269 470.324C756.634 469.248 756.779 468.6 756.778 467.876C760.359 465.579 761.889 461.129 763.124 454.355C764.069 449.239 767.794 445.57 771.883 441.187C778.967 433.84 787.22 425.293 785.371 407.144ZM741.007 487.524C739.765 487.781 737.864 487.877 735.158 487.372C733.256 487.106 731.793 486.706 730.55 486.239C734.06 486.62 737.643 487.219 741.007 487.524ZM747.804 484.731C747.658 484.655 747.511 484.578 747.511 484.578C747.219 484.426 747.072 484.35 746.707 484.34C739.906 483.875 733.105 483.047 726.304 481.858C726.304 481.858 726.304 481.858 726.158 481.781C726.011 481.705 725.865 481.629 725.719 481.553C724.768 481.239 724.256 481.153 723.744 481.067C724.109 480.715 724.328 480.286 724.4 479.781L724.545 478.047C724.617 477.542 724.47 477.104 724.177 476.589C724.031 476.513 724.031 476.513 724.104 476.37C724.616 476.094 725.054 475.598 724.98 475.017L725.197 473.502C725.197 473.14 725.197 472.778 724.904 472.264C724.684 471.969 724.757 471.826 724.83 471.683L725.122 471.473C725.634 471.197 725.925 470.625 725.852 470.044C725.924 469.539 725.704 468.882 725.338 468.51C724.386 467.472 723.8 466.081 723.579 465.062C723.725 465.138 724.018 465.29 724.164 465.366C724.311 465.442 724.457 465.519 724.603 465.595C725.042 465.823 725.408 465.833 725.847 466.061C728.846 467.08 732.795 467.689 737.549 468.536C738.426 468.632 739.231 468.87 740.109 468.965C740.474 468.974 740.767 469.127 740.986 469.06C741.498 469.145 742.01 469.231 742.522 469.317C742.887 469.326 743.034 469.402 743.399 469.412C744.131 469.431 744.789 469.593 745.52 469.612C745.666 469.688 745.886 469.621 745.886 469.621C746.398 469.707 747.129 469.726 747.641 469.811C747.86 469.745 748.153 469.897 748.372 469.83C748.738 469.84 749.103 469.849 749.615 469.935C749.834 469.868 750.127 470.02 750.346 469.954C750.712 469.963 751.297 469.906 751.662 469.915C751.809 469.992 751.882 469.849 752.028 469.925C751.59 470.782 750.495 472.202 749.253 472.822C748.522 473.165 748.157 473.879 748.231 474.46C748.305 475.042 748.598 475.556 749.11 476.004C749.037 476.147 749.037 476.147 748.818 476.213C748.526 476.423 748.307 476.852 748.307 477.214L748.09 478.729C748.017 479.234 748.237 479.891 748.75 480.339C748.75 480.339 748.677 480.482 748.53 480.405C748.019 480.682 747.8 481.111 747.727 481.615L747.583 483.349C747.511 483.854 747.657 484.293 747.95 484.807L747.804 484.731ZM743.778 416.784C743.267 417.784 742.756 418.784 741.953 419.632C741.586 418.899 741.22 418.165 741.073 417.365C739.751 412.697 740.769 407.438 743.689 403.531C745.523 408.285 745.528 412.991 743.778 416.784ZM739.3 465.106C738.934 465.097 738.569 465.087 738.13 464.859C734.839 464.412 732.133 463.907 730.012 463.345L730.043 426.999C731.14 427.39 732.383 427.494 733.627 427.599C736.259 427.522 738.817 426.864 741.228 425.406C742.986 427.407 745.035 429.197 747.376 430.416C748.4 430.95 749.644 431.416 750.741 431.807C752.058 432.13 753.228 432.378 754.69 432.416C751.559 443.63 748.209 454.911 744.638 465.896C742.956 465.563 741.201 465.373 739.3 465.106ZM758.956 453.813C757.502 461.016 756.116 464.093 753.631 465.332C752.389 465.952 750.634 466.124 748.221 466.134C751.718 454.929 755.142 443.505 758.346 432.148C762.147 431.595 765.582 429.946 768.211 427.335C768.577 426.983 768.795 426.554 768.722 425.973C768.794 425.468 768.501 424.953 768.135 424.582C767.989 424.506 767.915 424.287 767.769 424.21C767.038 423.829 766.233 423.953 765.576 424.516C763.969 426.212 761.923 427.317 759.511 428.051C760.676 423.954 761.769 420 762.787 415.827C763.006 415.037 762.566 414.084 761.834 413.703C761.688 413.627 761.542 413.551 761.542 413.551C761.03 413.465 760.518 413.379 760.153 413.732C759.641 414.008 759.422 414.437 759.203 414.866C757.966 419.468 756.728 424.07 755.49 428.671C754.174 428.71 752.785 428.529 751.541 428.062C750.59 427.748 749.786 427.51 748.908 427.053C747.006 426.062 745.468 424.719 744.077 423.09C745.319 421.747 746.487 420.184 747.289 418.612C749.551 413.82 749.471 407.808 747.124 402.244C746.611 401.073 746.025 400.406 745.148 399.949C744.562 399.644 744.05 399.558 743.465 399.616C742.296 399.73 741.712 400.511 741.346 400.864C737.184 405.752 735.803 412.45 737.491 418.576C737.932 419.89 738.372 421.205 739.104 422.31C737.278 423.349 735.45 424.026 733.476 423.902C732.379 423.874 731.209 423.626 729.965 423.16L729.876 409.183C729.875 408.459 729.436 407.869 728.851 407.564C728.558 407.411 728.265 407.259 728.046 407.326C726.949 407.297 726.146 408.146 726.22 409.089L726.233 420.312C725.208 419.054 724.549 417.806 724.328 416.425C724.254 415.844 723.814 415.253 723.375 415.025C723.083 414.872 722.571 414.787 722.205 414.777C721.62 414.834 721.328 415.044 720.963 415.397C720.598 415.749 720.525 416.254 720.599 416.835C721.115 420.179 723.239 423.275 726.312 425.237L726.428 462.384C725.989 462.155 725.477 462.07 725.038 461.841C724.453 461.536 723.867 461.232 723.355 460.784C721.232 458.774 720.644 455.573 721.074 448.199C721.432 442.054 718.501 436.548 715.497 430.822C710.734 422.01 705.458 412.027 711.217 396.754C720.402 372.229 748.411 376.864 749.582 377.111C749.947 377.121 756.529 378.015 763.552 381.672C771.015 385.558 780.091 393.178 781.569 407.335C783.197 423.741 775.601 431.726 768.883 438.72C764.428 443.456 760.192 447.763 758.956 453.813Z" fill="white"/>
<path d="M823.336 390.051C823.263 389.472 822.826 388.884 822.389 388.656C822.098 388.504 821.589 388.419 821.225 388.41L789.368 393.063C788.932 393.196 788.495 393.329 788.06 393.822C787.842 394.249 787.624 394.676 787.698 395.255C787.771 395.833 788.208 396.421 788.645 396.649C788.936 396.801 789.445 396.886 789.809 396.895L821.666 392.242C822.102 392.109 822.538 391.977 822.974 391.483C823.265 390.914 823.337 390.411 823.336 390.051Z" fill="white"/>
<path d="M786.789 389.058C786.862 389.277 787.156 389.43 787.449 389.582C788.182 389.964 788.988 389.839 789.427 389.343L804.214 377.836C804.58 377.483 804.8 377.054 804.872 376.548C804.945 376.043 804.798 375.604 804.431 375.232C804.358 375.012 804.064 374.86 803.771 374.707C803.038 374.326 802.232 374.45 801.793 374.946L787.006 386.453C786.64 386.806 786.42 387.236 786.348 387.741C786.275 388.247 786.495 388.542 786.789 389.058Z" fill="white"/>
<path d="M781.654 384.287C782.54 384.746 783.793 384.488 784.235 383.626L789.385 373.941C789.826 373.08 789.53 371.836 788.496 371.301C787.611 370.841 786.357 371.1 785.916 371.961L780.913 381.723C780.324 382.508 780.769 383.828 781.654 384.287Z" fill="white"/>
<path d="M813.492 402.952C813.347 402.876 813.057 402.725 812.839 402.791L792.599 400.686C791.584 400.516 790.642 401.282 790.643 402.36C790.644 403.078 791.007 403.806 791.733 404.185C791.878 404.26 792.169 404.411 792.386 404.345L812.626 406.45C813.642 406.62 814.584 405.854 814.582 404.776C814.582 404.058 814.073 403.254 813.492 402.952Z" fill="white"/>
<path d="M801.743 413.952L791.255 408.321C790.387 407.87 789.304 408.199 788.726 408.971C788.51 409.394 788.438 409.893 788.583 410.325C788.729 410.758 789.09 411.125 789.524 411.35L800.012 416.981C800.88 417.433 801.964 417.103 802.541 416.332C802.758 415.908 802.829 415.41 802.684 414.977C802.539 414.545 802.177 414.178 801.743 413.952Z" fill="white"/>
<path d="M1189.49 775.753C1188.72 773.428 1187.56 771.232 1185.75 769.423C1184.71 768.39 1183.55 767.486 1182.39 766.84C1178.9 764.902 1174.9 764.515 1171.15 765.677C1167.41 766.84 1164.18 769.294 1162.24 772.782C1160.3 776.269 1159.91 780.274 1161.08 784.019C1161.85 786.345 1163.01 788.54 1164.82 790.349C1165.86 791.382 1167.02 792.286 1168.18 792.932C1171.67 794.87 1175.67 795.257 1179.42 794.095C1187.17 791.77 1191.82 783.503 1189.49 775.753ZM1182.78 772.394C1184.07 773.686 1184.97 775.107 1185.49 776.915C1186.39 779.628 1186.01 782.599 1184.59 785.053C1183.16 787.507 1180.97 789.445 1178.26 790.09C1175.54 790.995 1172.57 790.607 1170.12 789.186C1169.21 788.799 1168.44 788.024 1167.66 787.249C1166.37 785.957 1165.47 784.536 1164.95 782.728C1164.05 780.015 1164.44 777.044 1165.86 774.59C1167.28 772.136 1169.47 770.198 1172.19 769.552C1174.9 768.648 1177.87 769.036 1180.32 770.457C1181.23 771.102 1182 771.619 1182.78 772.394Z" fill="white"/>
<path d="M1182.13 810.757L1183.42 814.891C1183.55 815.278 1183.81 815.537 1183.94 815.666C1184.07 815.795 1184.2 815.924 1184.33 816.053C1184.84 816.312 1185.36 816.312 1186.01 816.182C1191.95 814.374 1197.63 811.016 1202.02 806.624C1202.41 806.236 1202.67 805.72 1202.67 805.203C1202.67 804.686 1202.41 804.17 1202.02 803.782L1198.92 800.682C1200.73 798.615 1202.28 796.29 1203.57 793.707L1207.58 795.386C1208.09 795.645 1208.61 795.645 1209.13 795.386C1209.64 795.128 1210.03 794.74 1210.29 794.224C1212.74 788.153 1213.65 781.565 1212.87 775.623C1212.87 775.107 1212.62 774.848 1212.23 774.461C1211.71 773.944 1211.07 773.815 1210.55 773.815L1206.29 774.202C1206.16 773.04 1205.77 771.877 1205.51 770.844C1204.99 769.294 1204.48 767.744 1203.7 766.194L1207.45 763.998C1207.97 763.74 1208.22 763.223 1208.48 762.706C1208.61 762.061 1208.61 761.544 1208.22 761.156C1206.42 758.056 1204.35 755.215 1201.89 752.76C1199.83 750.694 1197.63 749.015 1195.31 747.465C1194.4 746.819 1192.98 747.206 1192.34 748.11L1190.01 751.727C1187.56 750.306 1184.84 749.402 1182.13 748.756L1182.78 744.494C1182.91 743.848 1182.65 743.073 1182.26 742.685C1182 742.427 1181.49 742.169 1181.1 742.039C1174.9 741.006 1168.44 741.523 1162.37 743.719C1161.59 744.494 1160.95 745.656 1161.34 746.819L1162.76 750.823C1160.17 751.856 1157.72 753.277 1155.65 755.085L1152.68 751.856C1151.91 751.081 1150.61 751.081 1149.71 751.727C1145.06 755.86 1141.44 761.286 1139.25 767.357C1138.99 768.132 1139.12 769.036 1139.63 769.552C1139.89 769.811 1140.02 769.94 1140.41 770.069L1144.41 771.49C1143.64 774.073 1143.25 777.044 1143.25 779.886L1138.86 780.144C1138.08 780.144 1137.31 781.178 1137.31 782.211C1137.7 788.282 1139.51 794.482 1142.99 800.036C1143.12 800.165 1143.25 800.295 1143.38 800.424C1143.64 800.682 1144.03 800.811 1144.41 800.94C1145.06 801.07 1145.45 800.94 1145.96 800.682L1149.58 798.357C1150.61 799.649 1151.65 800.94 1152.81 802.103C1153.59 802.878 1154.49 803.782 1155.39 804.428L1152.94 807.916C1152.42 808.691 1152.55 809.853 1153.2 810.499C1153.33 810.628 1153.33 810.628 1153.46 810.757C1158.62 814.374 1164.56 816.699 1170.89 817.345C1171.41 817.345 1172.06 817.216 1172.44 816.828C1172.83 816.441 1173.09 815.924 1173.22 815.537L1173.74 811.145C1176.58 811.661 1179.42 811.403 1182.13 810.757ZM1172.06 807.141C1171.54 807.141 1170.89 807.27 1170.51 807.657C1170.12 808.045 1169.86 808.561 1169.73 808.949L1169.21 813.082C1165.08 812.307 1160.95 810.757 1157.46 808.561L1159.91 805.074C1160.17 804.557 1160.43 804.04 1160.17 803.524C1160.04 803.136 1159.91 802.749 1159.53 802.361C1159.4 802.232 1159.4 802.232 1159.27 802.103C1157.85 801.199 1156.81 800.165 1155.65 799.003C1154.23 797.582 1152.94 796.032 1151.91 794.224C1151.78 794.094 1151.65 793.965 1151.52 793.836C1150.87 793.19 1149.71 793.061 1148.93 793.578L1145.45 795.774C1143.38 791.899 1142.09 787.765 1141.57 783.89L1145.71 783.632C1146.22 783.632 1146.74 783.373 1147.13 782.986C1147.51 782.598 1147.64 781.953 1147.64 781.436C1147.38 777.819 1147.9 774.202 1149.06 770.715C1149.32 770.198 1149.19 769.552 1148.93 769.036C1148.81 768.907 1148.68 768.519 1148.55 768.39C1148.29 768.132 1148.16 768.002 1147.77 767.873L1143.77 766.452C1145.45 762.448 1147.77 758.831 1150.61 755.99L1153.46 759.09C1154.23 759.865 1155.52 759.865 1156.43 759.219C1159.14 756.765 1162.37 754.827 1165.86 753.665C1167.02 753.277 1167.54 751.985 1167.15 751.081L1165.73 747.077C1169.73 745.914 1173.99 745.527 1178.26 745.914L1177.48 750.048C1177.48 750.565 1177.48 751.081 1177.74 751.598C1177.87 751.727 1177.87 751.727 1178 751.856C1178.26 752.115 1178.77 752.373 1179.16 752.502C1182.78 753.019 1186.26 754.44 1189.24 756.377C1189.75 756.635 1190.27 756.894 1190.79 756.635C1191.43 756.506 1191.82 756.119 1192.08 755.602L1194.27 752.115C1195.82 753.148 1197.11 754.44 1198.28 755.602C1199.96 757.281 1201.51 759.09 1202.8 761.156L1199.83 763.611C1198.79 764.127 1198.54 765.419 1199.05 766.452C1200.09 768.261 1200.86 770.069 1201.38 772.136C1201.77 773.557 1202.15 775.236 1202.41 776.786C1202.41 777.303 1202.67 777.561 1203.06 777.948C1203.57 778.465 1204.22 778.594 1204.74 778.594L1208.87 778.078C1209 782.082 1208.48 786.474 1207.06 790.478L1203.19 788.928C1202.67 788.669 1202.15 788.669 1201.64 788.928C1201.12 789.186 1200.73 789.574 1200.47 790.09C1199.18 793.449 1197.11 796.549 1194.53 799.132C1194.14 799.52 1193.89 800.036 1193.89 800.553C1193.89 801.07 1194.14 801.586 1194.53 801.974L1197.5 804.945C1194.27 807.657 1190.66 809.982 1186.65 811.403L1185.49 807.399C1185.36 807.27 1185.36 807.011 1185.1 806.753C1184.59 806.236 1183.81 805.978 1183.04 806.236C1179.42 807.27 1175.8 807.528 1172.06 807.141Z" fill="white"/>
<path d="M1261.96 813.857C1261.18 811.274 1259.63 808.69 1257.69 806.753C1253.3 802.361 1246.97 800.682 1241.03 802.49C1236.64 803.782 1233.15 806.753 1231.09 810.628C1228.89 814.632 1228.5 819.153 1229.66 823.416C1230.57 826.128 1231.99 828.583 1233.93 830.52C1235.09 831.683 1236.38 832.716 1237.8 833.362C1241.81 835.558 1246.33 835.945 1250.59 834.783C1254.98 833.491 1258.47 830.52 1260.67 826.774C1262.73 822.641 1263.25 817.991 1261.96 813.857ZM1254.85 809.594C1256.27 811.015 1257.44 812.953 1258.08 814.89C1258.99 818.12 1258.6 821.607 1257.05 824.449C1255.37 827.42 1252.79 829.487 1249.43 830.52C1246.2 831.424 1242.71 831.037 1239.87 829.487C1238.84 828.97 1237.8 828.195 1236.9 827.291C1235.48 825.87 1234.31 823.932 1233.67 821.995C1232.76 818.766 1233.15 815.278 1234.7 812.436C1236.38 809.465 1239.09 807.269 1242.32 806.365C1246.72 805.073 1251.49 806.236 1254.85 809.594Z" fill="white"/>
<path d="M1268.42 839.174C1268.42 838.658 1268.16 838.141 1267.77 837.754L1265.57 835.558C1266.87 834.008 1268.03 832.328 1268.93 830.391L1271.9 831.553C1272.42 831.812 1272.94 831.812 1273.45 831.553C1273.97 831.295 1274.36 830.908 1274.62 830.391C1276.55 825.353 1277.33 819.928 1276.68 815.149C1276.68 814.632 1276.42 814.374 1276.04 813.986C1275.52 813.47 1274.87 813.341 1274.36 813.341L1271.26 813.599C1271.13 812.695 1270.87 811.92 1270.74 811.274C1270.48 809.982 1269.84 808.82 1269.45 807.657L1272.29 806.107C1272.81 805.849 1273.07 805.332 1273.32 804.815C1273.45 804.169 1273.45 803.653 1273.07 803.265C1271.52 800.682 1269.84 798.486 1267.77 796.419C1266.09 794.74 1264.28 793.19 1262.34 792.027C1261.44 791.382 1260.02 791.769 1259.37 792.673L1257.69 795.386C1255.89 794.353 1253.95 793.707 1251.88 793.19L1252.4 790.09C1252.66 789.573 1252.4 788.798 1251.88 788.282C1251.62 788.023 1251.11 787.765 1250.72 787.636C1245.68 786.732 1240.26 787.248 1235.35 789.057C1234.19 789.444 1233.67 790.736 1234.06 791.64L1234.96 794.611C1233.15 795.386 1231.34 796.419 1229.66 797.84L1227.6 795.515C1226.82 794.74 1225.53 794.74 1224.63 795.386C1220.75 798.744 1217.78 803.265 1216.1 808.303C1215.84 809.078 1215.97 809.982 1216.49 810.499C1216.75 810.757 1216.88 810.886 1217.26 811.015L1220.24 812.178C1219.72 814.245 1219.33 816.182 1219.33 818.249L1216.23 818.507C1215.07 818.636 1214.16 819.541 1214.29 820.703C1214.55 825.612 1216.1 830.778 1218.94 835.429C1219.07 835.558 1219.2 835.687 1219.33 835.816C1219.59 836.074 1219.98 836.204 1220.36 836.333C1221.01 836.462 1221.4 836.333 1221.91 836.074L1224.63 834.395C1225.4 835.429 1226.31 836.333 1227.08 837.108C1227.73 837.754 1228.24 838.27 1228.89 838.658L1227.08 841.241C1226.56 842.016 1226.69 843.179 1227.34 843.825C1227.47 843.954 1227.47 843.954 1227.6 844.083C1231.86 847.054 1236.77 848.862 1242.06 849.508C1242.58 849.508 1243.23 849.379 1243.61 848.991C1244 848.604 1244.26 848.087 1244.39 847.7L1244.65 844.6C1246.71 844.6 1248.65 844.47 1250.85 844.083L1251.75 847.054C1251.88 847.441 1252.14 847.7 1252.27 847.829C1252.4 847.958 1252.53 848.087 1252.66 848.216C1253.17 848.475 1253.69 848.475 1254.34 848.346C1259.24 846.796 1263.89 844.212 1267.64 840.466C1268.16 840.208 1268.42 839.691 1268.42 839.174ZM1253.56 839.562C1253.04 839.304 1252.53 839.304 1251.88 839.433C1249.04 840.208 1246.2 840.466 1243.36 840.208C1242.84 840.208 1242.19 840.337 1241.81 840.725C1241.42 841.112 1241.16 841.629 1241.03 842.016L1240.64 844.987C1237.54 844.47 1234.57 843.308 1231.99 841.758L1233.67 839.304C1233.93 838.787 1234.19 838.27 1233.93 837.754C1233.8 837.366 1233.67 836.979 1233.28 836.591C1233.15 836.462 1233.15 836.462 1233.02 836.333C1232.12 835.687 1231.21 834.783 1230.31 833.879C1229.15 832.716 1228.11 831.424 1227.34 830.133C1227.21 830.003 1227.08 829.874 1226.95 829.745C1226.31 829.099 1225.14 828.97 1224.37 829.487L1221.79 831.037C1220.36 828.324 1219.33 825.224 1218.94 822.253L1221.91 822.124C1222.43 822.124 1222.95 821.866 1223.34 821.478C1223.72 821.091 1223.85 820.445 1223.85 819.928C1223.72 816.957 1223.98 814.116 1225.14 811.403C1225.4 810.886 1225.27 810.24 1225.01 809.724C1224.89 809.595 1224.76 809.207 1224.63 809.078C1224.37 808.82 1224.24 808.69 1223.85 808.561L1221.01 807.528C1222.3 804.686 1223.98 801.974 1226.05 799.907L1228.11 802.232C1228.89 803.007 1230.18 803.007 1231.09 802.361C1233.28 800.424 1235.86 798.873 1238.58 797.969C1239.74 797.582 1240.26 796.29 1239.87 795.386L1238.84 792.544C1241.81 791.64 1245.04 791.511 1248.01 791.64L1247.49 794.482C1247.49 794.998 1247.62 795.644 1247.75 796.032C1247.88 796.161 1247.88 796.161 1248.01 796.29C1248.26 796.548 1248.78 796.807 1249.17 796.936C1252.01 797.453 1254.85 798.486 1257.18 800.036C1257.69 800.294 1258.21 800.553 1258.73 800.294C1259.37 800.165 1259.76 799.778 1260.02 799.261L1261.57 796.678C1262.6 797.453 1263.64 798.228 1264.54 799.132C1265.83 800.424 1266.87 801.715 1267.9 803.265L1265.32 804.815C1264.28 805.332 1264.02 806.624 1264.54 807.657C1265.32 809.207 1265.96 810.628 1266.48 812.178C1266.87 813.34 1267.12 814.632 1267.25 816.053C1267.51 816.57 1267.77 817.086 1268.03 817.345C1268.54 817.861 1269.19 817.991 1269.71 817.991L1272.68 817.603C1272.81 820.574 1272.29 823.674 1271.39 826.645L1268.67 825.482C1268.16 825.224 1267.64 825.224 1267.12 825.482C1266.61 825.741 1266.22 826.128 1265.96 826.645C1264.8 829.358 1263.25 831.683 1261.18 833.749C1260.79 834.137 1260.54 834.654 1260.54 835.17C1260.54 835.687 1260.79 836.204 1261.18 836.591L1263.25 838.658C1260.92 840.725 1258.08 842.275 1255.37 843.437L1254.59 840.595C1254.47 840.208 1254.21 839.95 1254.08 839.82C1253.82 839.82 1253.69 839.691 1253.56 839.562Z" fill="white"/>
<path d="M1193.5 848.216C1192.85 846.02 1191.69 844.082 1190.14 842.532C1189.24 841.628 1188.2 840.853 1187.04 840.207C1183.81 838.528 1180.19 838.011 1176.71 839.174C1173.35 840.207 1170.38 842.403 1168.7 845.632C1167.02 848.862 1166.5 852.478 1167.66 855.966C1168.31 858.162 1169.47 860.099 1171.02 861.649C1174.51 865.137 1179.68 866.429 1184.46 865.008C1187.81 863.974 1190.79 861.779 1192.46 858.549C1194.14 855.32 1194.53 851.574 1193.5 848.216ZM1173.86 858.549C1172.83 857.516 1171.93 856.095 1171.54 854.674C1170.76 852.349 1171.02 849.766 1172.31 847.699C1173.48 845.503 1175.54 843.953 1177.87 843.178C1180.19 842.403 1182.78 842.661 1184.84 843.953C1185.62 844.47 1186.39 844.986 1186.91 845.503C1187.94 846.536 1188.85 847.957 1189.24 849.378C1190.01 851.703 1189.75 854.287 1188.46 856.353C1187.3 858.549 1185.23 860.099 1182.91 860.874C1179.81 861.908 1176.32 861.004 1173.86 858.549Z" fill="white"/>
<path d="M1197.89 866.299L1196.47 864.878C1197.24 863.845 1198.02 862.812 1198.66 861.649L1200.47 862.424C1200.99 862.683 1201.51 862.683 1202.02 862.424C1202.54 862.166 1202.93 861.778 1203.19 861.262C1204.87 857.258 1205.38 853.124 1204.87 849.249C1204.87 848.732 1204.61 848.474 1204.22 848.087C1203.7 847.57 1203.06 847.441 1202.54 847.441L1200.6 847.57C1200.47 847.182 1200.34 846.536 1200.21 846.149C1199.96 845.374 1199.7 844.599 1199.44 843.824L1201.12 842.92C1201.64 842.661 1201.89 842.145 1202.15 841.628C1202.28 840.982 1202.28 840.466 1201.89 840.078C1200.73 838.141 1199.44 836.332 1197.76 834.653C1196.47 833.361 1195.05 832.199 1193.5 831.165C1192.59 830.52 1191.17 830.907 1190.53 831.811L1189.36 833.49C1188.2 832.845 1186.91 832.328 1185.62 832.07L1186.01 830.132C1186.14 829.486 1185.88 828.711 1185.49 828.324C1185.23 828.065 1184.71 827.807 1184.33 827.678C1180.32 827.032 1176.06 827.42 1172.19 828.711C1171.02 829.099 1170.51 830.39 1170.89 831.295L1171.54 833.232C1170.38 833.878 1169.21 834.524 1168.18 835.299L1166.89 833.749C1166.11 832.974 1164.82 832.974 1163.92 833.62C1160.95 836.332 1158.49 839.82 1157.2 843.695C1156.94 844.47 1157.07 845.374 1157.59 845.891C1157.85 846.149 1157.98 846.278 1158.36 846.407L1160.3 847.053C1160.04 848.345 1159.79 849.637 1159.79 850.928L1157.85 851.057C1156.69 851.187 1155.78 852.091 1155.91 853.253C1156.17 857.128 1157.33 861.133 1159.66 864.749C1159.79 864.878 1159.91 865.008 1160.04 865.137C1160.3 865.395 1160.69 865.524 1161.08 865.653C1161.72 865.783 1162.11 865.653 1162.63 865.395L1164.31 864.233C1164.82 865.008 1165.34 865.524 1165.99 866.17C1166.37 866.558 1166.76 866.945 1167.02 867.204L1165.86 868.883C1165.34 869.658 1165.47 870.82 1166.11 871.466C1166.24 871.595 1166.24 871.595 1166.37 871.724C1169.73 874.049 1173.61 875.599 1177.61 875.987C1178.13 875.987 1178.77 875.858 1179.16 875.47C1179.55 875.083 1179.81 874.566 1179.94 874.179L1180.19 872.112C1181.49 872.112 1182.91 871.983 1184.2 871.724L1184.84 873.662C1184.97 874.049 1185.23 874.308 1185.36 874.437C1185.49 874.566 1185.62 874.695 1185.75 874.824C1186.26 875.083 1186.78 875.083 1187.43 874.954C1191.43 873.791 1194.92 871.595 1197.76 868.754C1198.15 868.366 1198.41 867.849 1198.41 867.333C1198.41 867.333 1198.28 866.687 1197.89 866.299ZM1185.1 867.72C1182.91 868.366 1180.84 868.624 1178.64 868.237C1178.13 868.237 1177.48 868.366 1177.09 868.754C1176.71 869.141 1176.45 869.658 1176.32 870.045L1176.06 871.854C1174.12 871.466 1172.31 870.691 1170.51 869.658L1171.54 868.108C1171.8 867.591 1172.06 867.074 1171.8 866.558C1171.67 866.17 1171.54 865.783 1171.15 865.395C1171.02 865.266 1171.02 865.266 1170.89 865.137C1170.12 864.62 1169.47 863.974 1168.7 863.199C1167.79 862.295 1167.15 861.391 1166.37 860.358C1166.24 860.228 1166.11 860.099 1165.99 859.97C1165.34 859.324 1164.18 859.195 1163.4 859.712L1161.98 860.616C1161.08 858.678 1160.56 856.87 1160.17 854.932L1161.85 854.803C1162.37 854.803 1162.89 854.545 1163.27 854.157C1163.66 853.77 1163.79 853.124 1163.79 852.607C1163.66 850.412 1163.92 848.345 1164.69 846.278C1164.95 845.761 1164.82 845.116 1164.56 844.599C1164.44 844.47 1164.31 844.082 1164.18 843.953C1163.92 843.695 1163.79 843.566 1163.4 843.436L1161.72 842.791C1162.5 840.982 1163.66 839.303 1165.08 837.882L1166.24 839.303C1167.02 840.078 1168.31 840.078 1169.21 839.432C1170.89 838.011 1172.83 836.849 1174.77 836.203C1175.93 835.815 1176.45 834.524 1176.06 833.62L1175.41 831.94C1177.35 831.553 1179.42 831.295 1181.36 831.424L1181.1 833.232C1181.1 833.749 1181.1 834.265 1181.36 834.782C1181.49 834.911 1181.49 834.911 1181.61 835.04C1181.87 835.299 1182.39 835.557 1182.78 835.686C1184.97 836.074 1187.04 836.849 1188.85 837.882C1189.36 838.141 1189.88 838.399 1190.4 838.141C1191.04 838.011 1191.43 837.624 1191.69 837.107L1192.59 835.686C1193.24 836.074 1193.89 836.72 1194.4 837.236C1195.18 838.011 1195.95 839.045 1196.6 839.949L1195.05 840.724C1194.01 841.241 1193.76 842.532 1194.27 843.566C1194.92 844.728 1195.44 845.761 1195.69 847.053C1195.95 847.828 1196.21 848.862 1196.21 849.895C1196.21 850.412 1196.47 850.67 1196.86 851.057C1197.37 851.574 1198.02 851.703 1198.54 851.703L1200.34 851.445C1200.47 853.382 1200.09 855.32 1199.57 857.387L1197.89 856.741C1197.37 856.482 1196.86 856.482 1196.34 856.741C1195.82 856.999 1195.44 857.387 1195.18 857.903C1194.4 859.97 1193.11 861.778 1191.56 863.328C1191.17 863.716 1190.91 864.233 1190.91 864.749C1190.91 865.266 1191.17 865.783 1191.56 866.17L1192.85 867.462C1191.3 868.754 1189.62 869.658 1187.81 870.433L1187.3 868.624C1187.69 868.754 1187.43 868.495 1187.17 868.237C1186.65 867.72 1185.88 867.462 1185.1 867.72Z" fill="white"/>
</svg>
