<svg width="200" height="200" viewBox="0 0 200 200" fill="none" xmlns="http://www.w3.org/2000/svg">
<mask id="mask0_4437_16406" style="mask-type:alpha" maskUnits="userSpaceOnUse" x="0" y="0" width="200" height="200">
<rect width="200" height="200" fill="#D9D9D9"/>
</mask>
<g mask="url(#mask0_4437_16406)">
<path d="M198.2 82.0673C198.2 48.0843 170.651 20.5357 136.668 20.5357C102.685 20.5357 75.1367 48.0843 75.1367 82.0673C75.1367 116.05 102.685 143.599 136.668 143.599C170.651 143.599 198.2 116.05 198.2 82.0673Z" fill="#4FBC8E"/>
<path d="M136.725 44.7169V189.397" stroke="#501919" stroke-width="1.0658" stroke-miterlimit="10"/>
<path d="M110.039 92.7966L136.725 117.057" stroke="#501919" stroke-width="1.0658" stroke-miterlimit="10"/>
<path d="M166.94 52.6569L136.725 94.3405" stroke="#501919" stroke-width="1.0658" stroke-miterlimit="10"/>
<path opacity="0.3" d="M158 191.214C158 194.429 123.084 197.04 80.0201 197.04C36.9565 197.04 2 194.388 2 191.214C2 188.04 36.9164 185.388 79.9799 185.388C123.043 185.388 158 188 158 191.214Z" fill="#756254"/>
<path d="M135.205 79.3939H131.232L112.811 145.007H116.784L135.205 79.3939Z" fill="#B3694F"/>
<path d="M81.9073 79.3939H77.934L59.5527 145.007H63.4858L81.9073 79.3939Z" fill="#B3694F"/>
<path d="M120.717 117.283C102.937 123.15 85.158 123.15 70.75 117.283C74.4022 104.667 78.0543 92.0104 81.6664 79.3939C96.0744 85.2602 113.854 85.2602 131.633 79.3939C127.981 92.0104 124.329 104.667 120.717 117.283Z" fill="#FEBF4A"/>
<path d="M115.659 139.422H51.2845C49.8397 139.422 48.6758 140.588 48.6758 142.034V144.967H118.228V142.034C118.268 140.588 117.104 139.422 115.659 139.422Z" fill="#FEBF4A"/>
<path d="M118.228 145.007H48.6758V148.101H118.228V145.007Z" fill="#B3694F"/>
<path d="M109.158 148.061L123.887 189.004H127.138L118.269 148.061H109.158Z" fill="#B3694F"/>
<path opacity="0.4" d="M111.927 155.735L118.269 148.061H109.158L111.927 155.735Z" fill="#756254"/>
<path d="M80.8633 148.061L85.7997 187.036H89.0506L89.9736 148.061H80.8633Z" fill="#B3694F"/>
<path opacity="0.4" d="M80.8633 148.061L85.7997 187.036H89.0506L89.9736 148.061H80.8633Z" fill="#756254"/>
<path d="M58.188 148.061L43.4188 189.004H40.168L49.0777 148.061H58.188Z" fill="#B3694F"/>
<path opacity="0.4" d="M58.188 148.061L43.4188 189.004H40.168L49.0777 148.061H58.188Z" fill="#756254"/>
<path d="M86.4815 148.061L81.5049 189.286H78.2942L77.3711 148.061H86.4815Z" fill="#B3694F"/>
<path opacity="0.4" d="M86.4815 148.061L81.5049 189.286H78.2942L77.3711 148.061H86.4815Z" fill="#756254"/>
<path d="M56.4223 85.1396C55.0979 87.1085 54.4958 89.1174 53.7734 91.6488L55.7801 93.3765H63.4055V85.1396H56.4223Z" fill="#728761"/>
<path opacity="0.4" d="M56.4223 85.1396C55.0979 87.1085 54.4958 89.1174 53.7734 91.6488L55.7801 93.3765H63.4055V85.1396H56.4223Z" fill="#756254"/>
<path d="M56.0605 82.6083C56.5823 86.5861 57.706 92.9345 57.706 92.9345L65.1308 91.2871L64.6893 84.2556L64.1676 82.8895L56.0605 82.6083Z" fill="#E38568"/>
<path d="M64.6489 84.2557C62.4416 86.0638 60.3546 87.2692 56.7426 87.3496L56.5018 85.7826C56.5018 85.7826 55.4984 87.6308 55.3379 87.9925L56.5419 93.4167H65.1305L64.6489 84.2557Z" fill="#F5F5F5"/>
<path d="M76.5285 81.8851C73.1171 86.4656 68.1405 95.3453 68.1405 95.3453L64.6087 84.2959C64.6087 84.2959 63.3646 86.7871 61.0769 88.3139C58.7893 89.8407 53.8127 91.4479 53.6923 91.689C53.5719 91.9301 57.2642 100.85 57.2642 100.85C59.0301 106.957 61.8395 112.181 63.204 114.31C64.5686 116.44 70.388 117.605 73.2375 113.908C76.087 110.212 78.5753 105.993 78.5753 105.993V81.8851H76.5285Z" fill="#728761"/>
<path opacity="0.4" d="M75.7659 87.0682C74.4415 92.2514 73.2375 96.9926 73.2375 96.9926C72.6756 98.2382 71.7927 99.8052 70.7894 101.533C69.9465 99.8454 68.6623 96.8721 68.7024 94.381L68.1807 95.3453C68.7024 97.7159 69.2643 101.131 69.3445 103.863C67.097 107.399 64.5285 111.136 62.8027 113.587C62.9633 113.828 63.1238 114.069 63.2442 114.31C64.6088 116.399 70.4282 117.605 73.2777 113.908C76.1272 110.212 78.6154 105.993 78.6154 105.993V87.1084H75.7659V87.0682Z" fill="#756254"/>
<path d="M55.9798 77.9877C55.7791 78.8314 55.9798 82.4878 56.1002 82.9298C56.1805 83.7334 57.6654 85.0995 60.234 84.9388C62.8025 84.778 63.6454 83.7334 63.6454 83.7334C64.9296 83.6932 65.5718 83.5726 65.9731 83.2512C66.3343 82.8896 66.7758 81.9253 66.4547 81.3628C67.1771 80.8806 67.5785 79.5948 67.1771 79.0323C67.9798 78.4698 67.9798 77.1037 67.6989 76.6215C66.9765 75.6974 66.3343 75.0947 66.3343 75.0947L64.0467 73.7286C64.0467 73.7286 67.0567 73.3268 67.2975 73.3268C68.1403 73.3268 70.1872 73.9295 70.9898 74.05C71.7925 74.1706 72.7959 73.9295 72.9163 73.4875C73.0367 73.0455 72.9564 72.8848 72.7557 72.7241C72.5551 72.5634 69.8661 71.1973 69.0233 70.8357C68.1805 70.474 67.3377 70.3133 66.0534 70.4339C64.7691 70.5544 62.4413 70.6749 61.5985 70.8357C60.7557 70.9964 59.9932 71.8402 59.4714 72.5232C58.9898 73.2464 56.4213 75.9787 55.9798 77.9877Z" fill="#F5AF7D"/>
<path d="M63.2043 76.3C63.2043 76.3 63.2846 76.3 63.405 76.3402C63.5254 76.3804 63.7261 76.4206 63.9267 76.4608C64.1274 76.5411 64.3682 76.6215 64.609 76.742C64.8498 76.8626 65.1307 76.9831 65.3715 77.1438C65.4919 77.2242 65.6123 77.3045 65.7327 77.3849C65.8531 77.4653 65.9735 77.5456 66.0939 77.626C66.2143 77.7063 66.2946 77.7867 66.415 77.8671C66.4953 77.9474 66.6157 78.0278 66.696 78.1081C67.017 78.4296 67.1776 78.6305 67.1776 78.6305C67.2177 78.6707 67.2177 78.751 67.1776 78.7912C67.1374 78.8314 67.0973 78.8314 67.0572 78.7912C67.0572 78.7912 66.8164 78.6707 66.4552 78.4296C66.2946 78.309 66.0538 78.1885 65.8531 78.068C65.6525 77.9474 65.3715 77.7867 65.1307 77.6662C64.8899 77.5054 64.6491 77.3849 64.4083 77.2644C64.1675 77.1438 63.9669 77.0233 63.7662 76.9027C63.5655 76.7822 63.4451 76.7018 63.3247 76.6617C63.2043 76.5813 63.1642 76.5411 63.1642 76.5411C63.124 76.5009 63.0839 76.4206 63.124 76.3804C63.0839 76.3402 63.124 76.3 63.2043 76.3Z" fill="#E38568"/>
<path d="M63.0031 80.0369C63.0031 80.0369 63.2038 80.0369 63.5249 80.077C63.6854 80.077 63.8861 80.1172 64.0466 80.1574C64.2473 80.1976 64.4479 80.2779 64.6486 80.3181C64.8493 80.3985 65.0499 80.4387 65.2506 80.519C65.4513 80.5994 65.6118 80.6797 65.7322 80.7601C66.0131 80.9208 66.2138 81.0414 66.2138 81.0414C66.254 81.0815 66.254 81.1619 66.254 81.2021C66.2138 81.2423 66.2138 81.2423 66.1737 81.2423C66.1737 81.2423 65.973 81.2423 65.6519 81.1619C65.4914 81.1217 65.3309 81.0815 65.1302 81.0414C64.9295 81.0012 64.7289 80.961 64.5282 80.8806C64.1269 80.7601 63.7255 80.6396 63.4446 80.4788C63.1637 80.3583 62.963 80.2378 62.963 80.2378C62.8827 80.1976 62.8827 80.1172 62.9228 80.077C62.9228 80.077 62.963 80.077 63.0031 80.0369Z" fill="#E38568"/>
<path d="M71.9531 119.333L97.2775 133.757L109.839 81.3225H85.1571L71.9531 119.333Z" fill="#756254"/>
<path d="M32.9039 163.932L31.1381 175.946C30.3755 178.517 28.0879 181.531 28.0879 181.531V186.433H41.8136V177.433C42.536 173.495 44.5427 163.932 44.5427 163.932H32.9039Z" fill="#756254"/>
<path d="M69.1049 163.932L68.1016 181.41H78.8574L83.3925 163.932H69.1049Z" fill="#756254"/>
<path d="M32.8635 183.178C32.7431 181.571 32.0207 180.567 31.3384 180.004C30.616 179.441 30.014 179 29.3718 179.12C28.7297 179.241 21.3049 184.424 21.3049 184.424C17.0508 185.83 14.6026 186.553 13.1578 187.317C11.6728 188.04 11.6327 188.964 11.3116 189.808C10.9906 190.692 10.509 192.299 11.7531 192.299C12.9972 192.299 41.9738 192.299 42.335 192.299C42.6561 192.299 43.0976 191.295 43.0574 190.772C43.0173 190.25 42.5357 184.102 42.4554 183.701C42.3752 183.259 42.0541 182.977 41.8133 182.977C40.9304 183.017 35.8735 184.062 34.5491 184.223C33.1845 184.384 32.5825 183.701 32.8635 183.178Z" fill="#B3694F"/>
<path d="M38.0013 191.214C38.9645 191.214 43.0181 191.214 43.0181 191.214C43.0181 191.214 43.0582 192.741 43.0582 193.063C43.0582 193.384 42.8977 193.464 42.697 193.464C42.5365 193.464 11.513 193.464 11.2722 193.464C11.0314 193.464 10.9512 193.263 10.9512 193.063C10.9512 192.902 10.9512 192.821 10.9512 192.661C10.9512 192.5 11.2321 192.339 11.5933 192.339C11.5933 192.339 32.3023 192.339 34.0281 192.339C35.7538 192.339 38.0013 191.214 38.0013 191.214Z" fill="#4D4641"/>
<path d="M81.7867 193.464C82.0676 193.464 82.1077 193.263 82.1077 193.062C82.1077 192.902 82.1077 192.821 82.1077 192.661C82.1077 192.5 81.8268 192.339 81.4656 192.339H61.5191C61.1579 192.339 60.877 192.5 60.877 192.661C60.877 192.821 60.877 192.902 60.877 193.062C60.877 193.223 60.9171 193.464 61.198 193.464H81.7867Z" fill="#4D4641"/>
<path d="M70.7488 179.12C68.3007 179.12 67.1368 180.004 66.8559 180.928C66.5749 181.812 62.2405 189.044 61.8392 189.728C61.4378 190.411 60.5549 192.339 61.5181 192.339C63.6452 192.339 80.6619 192.339 81.7455 192.339C82.1067 192.098 82.1067 191.536 82.1067 190.732C82.1067 189.928 79.9796 181.491 79.9796 180.888C79.9796 180.285 77.9729 179.2 77.09 179.12C76.207 179.04 70.7488 179.12 70.7488 179.12Z" fill="#B3694F"/>
<path d="M71.9541 119.333C71.9541 119.333 48.4758 118.368 43.7401 118.489C39.0043 118.609 35.7936 120.618 35.031 126.002C34.3086 131.346 29.332 168.713 29.332 168.713H45.4658L53.613 139.463H89.6531V118.167L71.9541 119.333Z" fill="#4D4641"/>
<path opacity="0.4" d="M89.6925 118.127L71.9533 119.292C71.9533 119.292 71.5119 119.292 70.7092 119.252L53.6523 139.422H89.6925V118.127Z" fill="#756254"/>
<path d="M95.9132 119.333C95.9132 119.333 82.6691 117.484 79.9801 117.404C77.2911 117.324 71.2309 118.047 69.746 127.168C68.261 136.288 65.6523 168.714 65.6523 168.714H85.2376L89.6523 139.463C89.6523 139.463 100.609 139.463 103.097 139.463C105.585 139.463 111.325 137.574 114.014 128.132V121.422L95.9132 119.333Z" fill="#4D4641"/>
<path opacity="0.4" d="M103.137 139.422C105.304 139.422 110.08 137.976 112.97 131.105C104.782 128.976 91.4981 125.52 88.5684 124.717C89.9329 128.333 90.6152 135.967 89.6921 139.382C89.6921 139.422 100.649 139.422 103.137 139.422Z" fill="#756254"/>
<path d="M107.874 74.2911C107.874 74.2911 100.008 94.2605 97.2787 102.819C94.5496 111.377 93.9877 114.19 94.5095 118.69C95.0312 123.19 96.155 129.699 96.757 132.19C97.359 134.681 97.9209 135.605 101.091 135.605C104.262 135.605 113.533 135.605 115.018 135.605C116.503 135.605 117.105 134.681 117.145 133.878C117.225 133.074 117.948 124.034 117.827 121.623C120.356 113.868 121.158 91.8095 121.078 89.5996C120.998 87.3897 120.035 85.3406 118.71 83.9343C117.426 82.528 107.874 74.2911 107.874 74.2911Z" fill="#728761"/>
<path opacity="0.4" d="M120.917 88.1933C120.676 87.0281 120.235 85.9834 119.633 85.0593C117.345 84.6173 111.686 90.2826 109.68 92.372C107.472 92.9345 103.419 94.0595 99.7265 95.7873C98.7633 98.4391 97.9204 100.89 97.3184 102.779C95.392 108.846 94.5492 112.02 94.3887 114.953C98.2014 116.319 108.235 119.775 117.987 121.261C119.512 116.319 120.355 106.355 120.797 98.8811L113.854 93.8184L120.917 88.1933Z" fill="#756254"/>
<path d="M89.3312 74.6527L80.0202 106.837C78.9366 110.654 71.9934 119.333 71.9934 119.333H66.0938C66.0938 119.333 71.9131 104.828 75.3245 98.3989C75.2844 93.0149 76.0469 83.3717 76.1272 82.9297C76.2075 82.4878 76.6088 81.5234 77.4115 80.9609C78.174 80.3582 83.873 77.1037 89.3312 74.6527Z" fill="#728761"/>
<path d="M86.5622 61.6746C86.1608 66.456 85.8397 68.0632 87.6458 72.041C89.4919 76.0188 91.2979 78.6707 95.3916 78.6707C99.4852 78.6707 103.659 77.2242 106.107 74.5723C108.555 71.9205 109.8 71.0365 111.325 66.456C112.85 61.9157 113.612 55.3664 111.646 51.2279C109.679 47.0894 104.301 44.0759 96.2745 45.2009C88.1675 46.3662 85.6792 55.6477 86.5622 61.6746Z" fill="#F5AF7D"/>
<path d="M98.522 58.7014C98.0805 59.0228 98.0404 59.8264 98.2812 60.2282C98.522 60.63 99.0036 60.5898 99.726 60.5497C100.448 60.5095 101.693 60.4291 102.415 60.4291C103.137 60.4291 103.619 60.1077 103.539 59.8666C103.418 59.6255 102.214 58.7014 101.05 58.4603C99.8866 58.2192 99.1641 58.2594 98.522 58.7014Z" fill="#F5F5F5"/>
<path d="M101.25 62.1166C101.25 62.7997 100.849 63.322 100.367 63.322C99.8857 63.322 99.4844 62.7997 99.4844 62.1166C99.4844 61.4336 99.8857 60.9113 100.367 60.9113C100.889 60.9113 101.25 61.4738 101.25 62.1166Z" fill="#383534"/>
<path d="M92.0606 58.7014C92.5021 59.0228 92.5422 59.8264 92.3014 60.2282C92.0606 60.63 91.579 60.5898 90.8566 60.5497C90.1342 60.5095 88.89 60.4291 88.1676 60.4291C87.4452 60.4291 86.9636 60.1077 87.0439 59.8666C87.1643 59.6255 88.3683 58.7014 89.5322 58.4603C90.6961 58.2192 91.4185 58.2594 92.0606 58.7014Z" fill="#F5F5F5"/>
<path d="M89.332 62.1166C89.332 62.7997 89.7334 63.322 90.215 63.322C90.6966 63.322 91.0979 62.7997 91.0979 62.1166C91.0979 61.4336 90.6966 60.9113 90.215 60.9113C89.6932 60.9113 89.332 61.4738 89.332 62.1166Z" fill="#383534"/>
<path d="M86.4417 63.0407C85.4384 63.6836 85.1575 64.7283 84.9969 66.8176C84.4351 67.34 84.0337 67.9426 83.7528 68.0632C83.9133 68.5453 84.4752 68.7462 84.716 68.7462C84.4351 69.1882 83.9133 70.4338 84.2745 71.4383C83.4718 72.6437 83.3514 73.2464 82.9902 73.3267C83.0705 73.6884 83.7929 73.8491 83.9936 73.7285C83.2712 75.0545 83.3514 76.4206 83.9534 77.0635C83.4718 78.2287 83.3514 79.9162 83.9534 80.4385C83.512 81.1618 83.3916 81.443 83.0304 81.443C83.6324 82.1663 84.0337 82.1663 84.4752 82.0457C83.7528 83.5726 85.2377 85.7021 86.2812 86.0235C86.5621 86.9075 86.1207 87.47 85.8799 87.6307C86.2411 87.912 87.0839 87.912 87.3247 87.7513C87.6458 88.5549 88.93 90.1621 90.4952 90.7246C91.8999 91.2067 93.0237 91.4076 93.1441 91.2469C93.2243 91.0862 93.1441 92.2916 93.1441 92.2916C93.1441 92.2916 94.8297 92.0907 95.1909 91.4076C96.6357 91.2871 99.2043 90.6844 99.726 89.9612C100.007 90.3228 101.01 90.5639 101.01 90.5639C101.01 90.5639 101.05 89.479 101.372 88.7156C101.813 89.1576 102.696 89.1576 102.696 89.1576C102.696 89.1576 102.776 87.912 103.338 86.9879C104.462 86.4253 107.231 84.8583 107.351 83.1306C108.234 82.769 109.599 81.0412 109.519 79.5546C110.321 79.7153 110.803 79.0724 110.803 79.0724C110.803 79.0724 110.321 78.9117 110.161 77.8269C110 76.742 110.522 75.175 110.161 74.2509C110.602 73.8893 110.683 72.2017 110.161 71.599C110.763 71.3981 111.686 71.4383 111.846 71.1168C112.729 71.5186 113.331 71.3177 113.733 71.0365C114.535 71.0767 115.178 70.2329 115.178 70.2329C114.856 70.0722 114.335 69.59 114.335 69.59C114.977 68.7864 115.137 67.8623 114.937 67.1391C115.78 67.1391 116.622 66.4158 116.622 66.0944C115.9 65.6524 115.499 64.8086 115.499 64.7684C115.579 64.3265 115.659 63.5229 115.418 63.2014C115.98 63.0005 116.662 63.0005 116.823 62.4782C116.301 61.9559 116.02 61.5541 115.9 60.8308C115.739 60.0674 115.619 59.5049 115.499 59.2638C115.98 58.9424 116.261 58.7013 116.261 58.7013C116.261 58.7013 115.378 57.8173 114.776 57.6968C115.579 57.0539 115.9 56.0093 115.9 56.0093C115.9 56.0093 114.816 56.0494 114.214 55.7682C114.214 55.3262 114.214 54.9646 114.214 54.9646C114.214 54.9646 113.452 55.4066 113.131 55.4869C113.131 55.3262 113.171 55.0449 113.171 55.0449C113.171 55.0449 112.569 55.1253 112.248 55.286C111.766 54.7637 110.963 54.2012 110.963 54.2012C110.963 54.2012 110.442 54.9244 110.081 55.0449C109.92 54.6833 108.877 54.3217 108.877 54.3217C108.877 54.3217 108.435 54.844 108.234 55.728C108.034 56.612 107.432 59.7058 107.392 61.7951C107.351 63.8845 107.07 66.7373 106.95 67.2596C106.83 67.7819 105.545 69.8713 104.863 70.5945C104.181 71.3177 102.455 71.9204 101.372 71.7195C101.091 70.8356 99.1641 68.5052 96.9969 68.1837C96.5153 68.3444 95.6725 68.5052 94.5086 68.5052C93.3849 68.5052 92.9434 68.2239 92.7026 68.1034C92.4618 68.023 89.9334 68.9471 89.0504 70.7954C87.6859 70.6347 87.0437 69.9516 86.8832 68.7061C86.7227 67.4605 86.4417 63.0407 86.4417 63.0407Z" fill="#F5F5F5"/>
<path d="M94.5894 91.9301C94.8302 91.8095 95.0308 91.6488 95.1513 91.4881C96.5961 91.3675 99.1646 90.7648 99.6864 90.0416C99.9673 90.4032 100.971 90.6443 100.971 90.6443C100.971 90.6443 101.011 89.5594 101.332 88.796C101.773 89.238 102.656 89.238 102.656 89.238C102.656 89.238 102.737 88.0326 103.298 87.1085C97.479 86.8272 91.4589 88.2335 88.168 89.0773C88.77 89.7603 89.5727 90.4434 90.4957 90.7648C91.9004 91.247 93.0242 91.4479 93.1446 91.2872C93.2248 91.1666 93.1847 91.7693 93.1446 92.131L94.5894 91.9301Z" fill="#CFCFCF"/>
<path d="M114.455 66.0141C114.777 66.0945 115.218 65.8936 115.218 65.8936C115.218 65.8936 114.656 65.1302 114.496 64.206C114.335 63.2819 113.653 62.5587 113.653 62.5587C113.653 62.5587 113.894 62.5185 114.094 62.1167C113.412 61.6747 112.449 61.8756 111.686 61.8354C111.686 61.8354 110.522 68.0231 109.318 69.4696C109.318 69.4696 110.161 70.9562 110.081 71.7196C110.683 71.5187 111.606 71.5589 111.767 71.2375C112.649 71.6393 113.251 71.4384 113.653 71.1571C114.455 71.1973 115.098 70.3535 115.098 70.3535C114.777 70.1928 114.255 69.7106 114.255 69.7106C114.897 68.9071 115.057 67.9829 114.857 67.2597C114.536 66.9784 114.536 66.657 114.455 66.0141Z" fill="#CFCFCF"/>
<path d="M110.763 61.996C109.96 63.1211 109.157 64.5274 108.957 66.4962C108.756 68.5052 108.836 69.3891 109.358 69.4293C109.88 69.4695 111.686 69.1882 112.609 67.4203C113.532 65.6524 113.532 64.4872 113.371 63.4827C113.171 62.5586 111.405 61.2326 110.763 61.996Z" fill="#F5AF7D"/>
<path d="M109.718 66.4963C109.357 66.7775 109.438 67.7017 109.799 67.7418C110.16 67.782 111.003 67.6213 110.963 67.4204C110.922 67.2195 110.361 67.2195 110.561 66.9382C110.762 66.6168 111.725 66.4561 111.645 65.8936C111.565 65.331 111.244 65.0498 111.083 64.7685C110.922 64.4873 111.284 64.1658 111.645 64.6078C112.006 65.0498 112.247 65.0096 112.086 64.648C111.926 64.2864 111.524 63.764 111.123 63.764C110.722 63.764 110.12 64.4873 110.2 64.8489C110.28 65.2105 110.682 65.4114 110.561 65.8132C110.441 66.1346 109.999 66.2552 109.718 66.4963Z" fill="#E38568"/>
<path d="M111.846 63.4426C111.566 63.1614 111.365 62.639 111.726 62.6792C112.047 62.7194 112.529 63.6435 112.448 63.8444C112.368 64.0453 111.967 63.5631 111.846 63.4426Z" fill="#E38568"/>
<path d="M88.4894 70.7954C88.2486 71.3579 88.0881 72.1213 88.5697 72.2419C89.1315 72.3624 90.2954 72.1615 90.2954 72.1615C90.2954 72.1615 90.0948 72.3624 90.4961 72.5633C90.8974 72.7642 91.7001 72.3624 91.7001 72.3624C91.7001 72.3624 91.6198 72.5231 91.66 72.7642C91.7001 73.0053 92.7035 72.8848 93.0647 72.2821C93.1449 72.6035 93.5864 73.1258 93.8673 73.166C94.1884 73.166 94.3088 72.6035 94.3088 72.6035C94.3088 72.6035 94.5897 72.9651 95.1516 73.2062C95.7536 73.4473 96.0747 72.8044 96.0747 72.8044C96.0747 72.8044 96.757 73.166 96.9978 73.2062C97.2386 73.2866 97.1984 72.8044 97.1984 72.8044C97.1984 72.8044 97.961 73.166 98.3222 73.2062C98.6834 73.2464 99.1249 73.1258 99.1249 72.8848C99.1249 72.8848 100.208 73.2062 100.489 73.2062C100.77 73.2062 100.65 72.7642 100.65 72.7642C100.65 72.7642 101.292 73.0455 101.854 73.0857C102.416 73.0857 102.616 72.3624 102.616 72.3624L102.215 71.9606C101.894 72.0008 101.573 72.0008 101.292 71.9606C101.493 72.6437 100.128 72.0812 100.128 72.0812C100.128 72.0812 100.289 72.4428 99.8874 72.3624C99.4861 72.3222 98.6031 72.041 98.6031 72.041C98.6031 72.041 98.6433 72.5231 97.7202 72.3222C96.7971 72.1213 96.3155 71.6794 96.3155 71.6794C96.3155 71.6794 96.3556 72.1615 95.9543 72.3222C95.553 72.483 94.4292 71.8803 94.4292 71.8803C94.4292 71.8803 94.3891 72.2419 93.9877 72.1213C93.5864 72.0008 93.4259 71.5186 93.4259 71.5186C93.4259 71.5186 92.6633 71.7195 91.981 71.9204C91.2988 72.0812 91.2586 71.7999 91.2988 71.4785C91.2988 71.4785 90.3757 71.9204 89.6132 71.9204C88.8506 71.9204 88.7302 71.6794 88.971 71.0767C88.7703 70.8356 88.6098 70.7954 88.4894 70.7954Z" fill="#CFCFCF"/>
<path d="M108.395 77.4251C108.395 77.4251 108.395 77.8269 108.275 78.3492C108.195 78.6305 108.114 78.9519 107.994 79.2734C107.874 79.5948 107.673 79.9564 107.512 80.2779C107.392 80.4386 107.312 80.5993 107.191 80.76C107.071 80.9207 106.951 81.0413 106.83 81.202C106.71 81.3225 106.589 81.4431 106.469 81.5636C106.349 81.6842 106.228 81.7645 106.108 81.8449C105.987 81.9252 105.867 82.0056 105.787 82.0458C105.666 82.086 105.586 82.1261 105.506 82.1663C105.345 82.2467 105.265 82.2467 105.265 82.2467C105.225 82.2869 105.145 82.2467 105.145 82.2065C105.145 82.1663 105.145 82.1261 105.185 82.086C105.185 82.086 105.265 82.0458 105.385 81.9252C105.466 81.8851 105.506 81.8047 105.626 81.7645C105.706 81.6842 105.787 81.6038 105.907 81.5234C106.027 81.4431 106.108 81.3225 106.188 81.202C106.308 81.0815 106.389 80.9609 106.509 80.8404C106.629 80.7198 106.71 80.5591 106.83 80.4386C106.951 80.318 107.031 80.1573 107.111 79.9966C107.272 79.6752 107.472 79.3939 107.593 79.0725C107.753 78.751 107.874 78.4698 107.954 78.2287C108.155 77.7064 108.275 77.3849 108.275 77.3849C108.315 77.3046 108.355 77.3046 108.436 77.3046C108.355 77.3447 108.395 77.3849 108.395 77.4251Z" fill="#CFCFCF"/>
<path d="M107.19 77.0636C107.19 77.0636 107.19 77.385 107.07 77.8672C107.03 78.1082 106.95 78.3895 106.829 78.6708C106.709 78.952 106.588 79.2735 106.428 79.5547C106.267 79.836 106.067 80.1172 105.826 80.3583C105.705 80.4788 105.625 80.5994 105.505 80.6797C105.384 80.7601 105.304 80.8806 105.184 80.9208C104.983 81.0815 104.782 81.1619 104.662 81.2021C104.542 81.2423 104.461 81.2824 104.461 81.2824C104.421 81.3226 104.341 81.2824 104.301 81.2423C104.301 81.2021 104.301 81.1619 104.341 81.1217C104.341 81.1217 104.381 81.0815 104.501 80.961C104.542 80.9208 104.622 80.8806 104.702 80.8003C104.782 80.7199 104.863 80.6797 104.943 80.5592C105.023 80.4788 105.103 80.3583 105.184 80.2779C105.264 80.1976 105.344 80.077 105.425 79.9565C105.505 79.836 105.585 79.7154 105.665 79.5949C105.746 79.4744 105.826 79.3538 105.906 79.1931C106.067 78.9118 106.187 78.6708 106.307 78.3895C106.428 78.1082 106.548 77.8672 106.629 77.6663C106.829 77.2243 106.95 76.943 106.95 76.943C106.99 76.8627 107.03 76.8627 107.11 76.8627C107.15 76.943 107.19 77.0234 107.19 77.0636Z" fill="#CFCFCF"/>
<path d="M106.027 76.6617C106.027 76.6617 106.027 76.9429 105.947 77.3447C105.907 77.5456 105.827 77.7867 105.746 78.0278C105.666 78.2689 105.546 78.5501 105.385 78.7912C105.225 79.0323 105.064 79.2734 104.904 79.4743C104.823 79.5948 104.743 79.6752 104.623 79.7555C104.542 79.8359 104.462 79.9162 104.342 79.9966C104.181 80.1171 104.021 80.1975 103.9 80.2779C103.78 80.318 103.7 80.3582 103.7 80.3582C103.659 80.3984 103.579 80.3582 103.539 80.318C103.539 80.2779 103.539 80.2377 103.579 80.1975C103.579 80.1975 103.619 80.1573 103.7 80.077C103.78 79.9966 103.9 79.8761 104.021 79.7555C104.101 79.6752 104.141 79.5948 104.221 79.5144C104.302 79.4341 104.342 79.3135 104.422 79.2332C104.502 79.1528 104.542 79.0323 104.623 78.9117C104.703 78.7912 104.743 78.6707 104.823 78.5903C104.863 78.4698 104.944 78.3492 104.984 78.2287C105.024 78.1082 105.104 77.9876 105.144 77.9073C105.265 77.6662 105.345 77.4653 105.425 77.3046C105.586 76.9429 105.706 76.7019 105.706 76.7019C105.746 76.6215 105.827 76.6215 105.867 76.6215C105.987 76.5813 106.027 76.6215 106.027 76.6617Z" fill="#CFCFCF"/>
<path d="M104.823 76.2599C104.823 76.2599 104.823 76.501 104.783 76.8626C104.743 77.2242 104.582 77.6662 104.381 78.068C104.341 78.1886 104.261 78.2689 104.221 78.3895C104.141 78.4698 104.1 78.5904 104.02 78.6707C103.86 78.8314 103.739 78.9922 103.579 79.1127C103.498 79.1529 103.418 79.2332 103.378 79.2734C103.338 79.3136 103.258 79.3538 103.218 79.3538C103.137 79.394 103.057 79.4341 103.057 79.4341C103.017 79.4743 102.937 79.4341 102.896 79.3538C102.896 79.3136 102.896 79.2734 102.896 79.2332C102.896 79.2332 102.937 79.1931 102.977 79.1127C103.057 79.0323 103.137 78.952 103.218 78.8314C103.258 78.7511 103.298 78.7109 103.378 78.6305C103.418 78.5502 103.458 78.4698 103.539 78.3895C103.619 78.2287 103.739 78.0278 103.82 77.8269C104.02 77.4653 104.181 77.0635 104.341 76.7421C104.462 76.4608 104.582 76.2599 104.582 76.2599C104.622 76.1796 104.703 76.1796 104.743 76.2198C104.783 76.1796 104.823 76.2198 104.823 76.2599Z" fill="#CFCFCF"/>
<path d="M85.6384 81.4834C85.6384 81.4834 85.7588 81.7646 85.9193 82.1664C85.9996 82.3673 86.12 82.6084 86.2404 82.8495C86.3608 83.0905 86.4812 83.3316 86.6417 83.5727C86.722 83.6932 86.8022 83.8138 86.8825 83.9343C86.9628 84.0549 87.043 84.1754 87.1233 84.2558C87.2036 84.3763 87.2838 84.4567 87.3641 84.537C87.4444 84.6174 87.5246 84.7379 87.6049 84.7781C87.6852 84.8584 87.7655 84.9388 87.8056 84.979C87.8859 85.0192 87.926 85.0995 87.9661 85.1397C88.0464 85.2201 88.1267 85.2602 88.1267 85.2602C88.1668 85.3004 88.1668 85.3808 88.1267 85.421C88.0865 85.4611 88.0464 85.4611 88.0063 85.4611C88.0063 85.4611 87.926 85.421 87.8056 85.3808C87.6852 85.3406 87.4845 85.2602 87.2838 85.0995C87.1634 85.0593 87.0832 84.9388 86.9628 84.8584C86.8424 84.7781 86.7621 84.6576 86.6417 84.5772C86.5213 84.4567 86.441 84.3361 86.3608 84.2156C86.2805 84.095 86.2002 83.9745 86.0798 83.8138C85.7588 83.2914 85.5581 82.6887 85.4377 82.2066C85.3574 81.7646 85.3574 81.4432 85.3574 81.4432C85.3574 81.3628 85.3976 81.3226 85.4778 81.3226C85.5581 81.403 85.5982 81.4432 85.6384 81.4834Z" fill="#CFCFCF"/>
<path d="M86.6012 81.1619C86.6012 81.1619 86.7216 81.403 86.8822 81.7646C86.9625 81.9253 87.0427 82.1262 87.1631 82.3673C87.2835 82.5682 87.3638 82.8093 87.4842 83.0102C87.5645 83.1307 87.6046 83.2111 87.6849 83.3316C87.7651 83.412 87.8053 83.5325 87.8855 83.6129C87.9658 83.6932 88.0059 83.8138 88.0862 83.8941C88.1665 83.9745 88.2066 84.0549 88.2869 84.1352C88.4073 84.2558 88.5277 84.3763 88.6079 84.4567C88.6882 84.537 88.7283 84.5772 88.7283 84.5772C88.7685 84.6174 88.7685 84.6977 88.7283 84.7379C88.6882 84.7781 88.6481 84.7781 88.6079 84.7781C88.6079 84.7781 88.5277 84.7379 88.4474 84.6977C88.327 84.6576 88.1665 84.5772 88.0059 84.4567C87.9257 84.4165 87.8454 84.3361 87.725 84.2558C87.6447 84.1754 87.5243 84.095 87.4441 83.9745C87.2835 83.7736 87.123 83.5727 86.9624 83.3316C86.842 83.0906 86.7216 82.8495 86.6012 82.6084C86.521 82.3673 86.4407 82.1262 86.4006 81.9253C86.3203 81.5235 86.3203 81.2423 86.3203 81.2423C86.3203 81.1619 86.4006 81.1217 86.4407 81.1217C86.521 81.0816 86.5611 81.1217 86.6012 81.1619Z" fill="#CFCFCF"/>
<path d="M87.5252 80.8404C87.5252 80.8404 87.6456 81.0413 87.766 81.3226C87.9265 81.6039 88.087 82.0057 88.2877 82.3673C88.368 82.5682 88.4884 82.7289 88.6088 82.8896C88.6489 82.97 88.689 83.0503 88.7693 83.1307C88.8094 83.211 88.8496 83.2914 88.9298 83.3316C89.0101 83.4521 89.1305 83.5325 89.1706 83.6128C89.2509 83.6932 89.291 83.7334 89.291 83.7334C89.3312 83.7736 89.3312 83.8539 89.291 83.8941C89.2509 83.9343 89.2108 83.9343 89.1706 83.9343C89.1706 83.9343 89.1305 83.9343 89.0101 83.8941C88.9298 83.8539 88.7693 83.7736 88.6489 83.6932C88.4884 83.5727 88.3278 83.4521 88.2074 83.2914C88.0469 83.1307 87.9265 82.9298 87.8061 82.7289C87.5653 82.3271 87.4449 81.8851 87.3646 81.5235C87.2844 81.2021 87.3245 80.961 87.3245 80.961C87.3245 80.8806 87.4048 80.8404 87.4449 80.8404C87.485 80.8003 87.5252 80.8003 87.5252 80.8404Z" fill="#CFCFCF"/>
<path d="M92.0208 74.6928C92.0208 74.6928 92.1011 74.733 92.2215 74.7732C92.3018 74.8134 92.382 74.8536 92.4623 74.8937C92.5426 74.9339 92.663 74.9741 92.7834 75.0143C92.9038 75.0545 93.0242 75.0946 93.1446 75.1348C93.265 75.175 93.4255 75.175 93.5459 75.2152C93.7064 75.2554 93.8268 75.2554 93.9874 75.2955C94.1479 75.2955 94.3084 75.3357 94.469 75.3357C94.6295 75.3357 94.7901 75.3759 94.9506 75.3357C95.1111 75.3357 95.2717 75.3357 95.4322 75.3357C95.5927 75.3357 95.7533 75.3357 95.8737 75.3357C96.0342 75.3357 96.1546 75.3357 96.275 75.2955C96.5158 75.2955 96.7566 75.2554 96.877 75.2554C97.0375 75.2554 97.1178 75.2554 97.1178 75.2554C97.1981 75.2554 97.2783 75.3357 97.2783 75.4161C97.2783 75.4563 97.2382 75.5366 97.1981 75.5366C97.1981 75.5366 97.1178 75.5768 96.9573 75.6572C96.7967 75.6973 96.5961 75.8179 96.3553 75.8982C96.1145 75.9786 95.7934 76.0589 95.4723 76.0991C95.1513 76.1393 94.7901 76.1795 94.3887 76.1393C94.188 76.1393 94.0275 76.0991 93.8268 76.0991C93.6262 76.0589 93.4656 76.0188 93.3051 75.9786C92.984 75.858 92.663 75.7375 92.4222 75.5768C92.1814 75.4161 92.0208 75.2554 91.9004 75.1348C91.78 75.0143 91.7399 74.9339 91.7399 74.9339C91.6596 74.8536 91.6596 74.7732 91.7399 74.6928C91.8603 74.6125 91.9406 74.6125 92.0208 74.6928Z" fill="#CFCFCF"/>
<path d="M93.7065 62.9604C93.7065 62.9604 93.5861 63.1212 93.4255 63.4024C93.3453 63.5631 93.1847 63.7239 93.1045 63.9248C93.0242 64.1257 92.9038 64.3667 92.7834 64.6078C92.663 64.8489 92.5827 65.1302 92.4623 65.4516C92.4222 65.6123 92.3821 65.773 92.3419 65.9337C92.3018 66.0141 92.3018 66.0945 92.2616 66.1748V66.215V66.2552L92.2215 66.3757C92.1814 66.657 92.2215 66.9784 92.3419 67.2597C92.4623 67.5409 92.663 67.7418 92.9038 67.9026C93.1847 68.0633 93.5058 68.1436 93.8269 68.1838C94.1479 68.224 94.5091 68.224 94.8703 68.224C95.2315 68.224 95.5526 68.224 95.8737 68.1838C96.1948 68.1436 96.4757 68.1035 96.6362 68.0231C96.7968 67.9427 96.8369 67.9026 96.877 67.7017C96.877 67.5008 96.877 67.3802 96.8369 67.2597C96.7968 67.1391 96.7566 67.0186 96.7165 66.9382C96.6764 66.8579 96.6362 66.8177 96.6362 66.8177C96.5961 66.7373 96.6362 66.6972 96.6764 66.657C96.7165 66.657 96.7566 66.657 96.7566 66.657C96.7566 66.657 96.7968 66.657 96.877 66.7373C96.9573 66.7775 97.0777 66.8981 97.1981 67.0588C97.2784 67.1391 97.3185 67.2597 97.3586 67.3802C97.3586 67.4606 97.3988 67.5409 97.3988 67.5811C97.3988 67.6615 97.3988 67.6615 97.3988 67.782C97.3988 67.9026 97.3988 68.1035 97.2784 68.2642C97.1981 68.4651 96.9974 68.5856 96.8369 68.666C96.5158 68.8267 96.1948 68.9071 95.8336 68.9472C95.4724 68.9874 95.1513 69.0276 94.7901 69.0276C94.1078 69.0678 93.1847 69.0678 92.4222 68.6258C92.0208 68.3847 91.6998 68.0231 91.5392 67.5811C91.3787 67.1391 91.3787 66.6972 91.459 66.2954C91.5392 65.9337 91.6998 65.5721 91.8202 65.2909C91.9807 64.9694 92.1011 64.6882 92.2616 64.4471C92.4222 64.206 92.5827 63.9649 92.7031 63.764C92.8235 63.5631 92.9841 63.4426 93.1045 63.3221C93.3453 63.081 93.4657 62.9203 93.4657 62.9203C93.5058 62.8801 93.5861 62.8801 93.6663 62.9203C93.7466 62.8399 93.7466 62.8801 93.7065 62.9604Z" fill="#E38568"/>
<path d="M92.7825 56.1299C92.7825 56.1299 93.1437 56.1299 93.6655 56.1701C93.9464 56.1701 94.2273 56.1701 94.5885 56.2102C94.9096 56.2102 95.2708 56.2102 95.632 56.2504C95.9932 56.2504 96.3544 56.2504 96.6755 56.2504C96.836 56.2504 96.9966 56.2504 97.1571 56.2504C97.3176 56.2504 97.438 56.2504 97.5986 56.2504C98.1203 56.2102 98.4815 56.2102 98.4815 56.2102C98.5216 56.2102 98.6019 56.2504 98.6019 56.3308C98.6019 56.371 98.5618 56.4111 98.5216 56.4513C98.5216 56.4513 98.1604 56.5719 97.6387 56.7326C97.5183 56.7728 97.3578 56.7728 97.1972 56.8129C97.0367 56.8531 96.8762 56.8531 96.7156 56.8933C96.3544 56.9335 95.9932 56.9335 95.632 56.9335C95.4313 56.9335 95.2708 56.9335 95.0701 56.8933C94.8695 56.8933 94.7089 56.8933 94.5484 56.8531C94.1872 56.8129 93.9063 56.7728 93.6253 56.6924C93.3444 56.6522 93.1437 56.5719 92.9832 56.5317C92.8226 56.4915 92.7424 56.4513 92.7424 56.4513C92.6621 56.4111 92.6621 56.371 92.6621 56.2906C92.7022 56.1299 92.7424 56.1299 92.7825 56.1299Z" fill="#E38568"/>
<path d="M93.5053 54.7235C93.5053 54.7235 93.7863 54.7235 94.1876 54.7235C94.3883 54.7235 94.6291 54.7235 94.8699 54.7637C95.1107 54.7637 95.3916 54.7637 95.6725 54.8039C95.9535 54.8039 96.1943 54.8039 96.4752 54.8039C96.5956 54.8039 96.716 54.8039 96.8364 54.8039C96.9568 54.8039 97.0772 54.8039 97.1575 54.8039C97.5588 54.7637 97.8398 54.7637 97.8398 54.7637C97.8799 54.7637 97.92 54.8039 97.92 54.844C97.92 54.8842 97.8799 54.9244 97.8799 54.9244C97.8799 54.9244 97.6391 55.0048 97.1976 55.1253C97.0772 55.1655 96.997 55.1655 96.8766 55.1655C96.7562 55.1655 96.6358 55.2057 96.5154 55.2057C96.2746 55.2458 95.9936 55.2458 95.7127 55.2458C95.5923 55.2458 95.4317 55.2458 95.3113 55.2458C95.1909 55.2458 95.0304 55.2458 94.91 55.2057C94.6692 55.1655 94.4284 55.1253 94.2277 55.0851C94.0271 55.0449 93.8665 55.0048 93.7461 54.9646C93.6257 54.9244 93.5455 54.9244 93.5455 54.9244C93.5053 54.9244 93.4652 54.844 93.5053 54.8039C93.4251 54.7235 93.4652 54.7235 93.5053 54.7235Z" fill="#E38568"/>
<path d="M76.248 85.5012L77.7731 84.4967C77.7731 84.4967 82.5892 86.8271 86.3216 90.0817C89.5323 89.1977 95.9136 87.6307 102.014 87.9522L102.857 91.5282L84.636 93.8988L76.248 85.5012Z" fill="#F5F5F5"/>
<path d="M106.309 110.493L89.0515 111.739L78.6167 105.953L75.9277 85.0592L86.3224 90.8451L103.58 89.5995L106.309 110.493Z" fill="#B3694F"/>
<path opacity="0.4" d="M89.0515 111.739L78.6167 105.953L75.9277 85.0592L86.3224 90.8451L89.0515 111.739Z" fill="#756254"/>
<path d="M101.934 104.104L97.2388 101.613C96.9177 101.332 95.513 97.6757 94.911 96.9926C94.3491 96.2694 93.3458 95.2649 93.105 95.0238C92.8642 94.7426 91.3793 93.7783 91.0983 93.6175C90.8174 93.497 90.3759 93.8184 90.3358 94.5417C90.2956 95.2649 90.8174 96.0685 91.3391 96.5908C91.8207 97.1132 91.9411 97.515 91.9411 97.7159C91.9411 97.9168 91.9411 98.2382 91.9411 98.2382C91.9411 98.2382 87.9679 96.5507 87.7271 96.3899C87.0047 96.0685 85.3993 95.5462 84.3558 95.1845C83.3124 94.8229 82.7505 94.6622 82.59 94.9033C82.3893 95.1042 82.3893 96.1087 82.59 96.5507C82.7906 96.9926 83.4729 97.3543 83.5933 97.4748C82.7906 97.3543 82.6702 97.3944 82.59 97.5551C82.5498 97.756 82.5097 98.7204 82.9512 99.2427C83.3926 99.7249 83.9545 100.046 83.9545 100.046C83.9545 100.046 83.2722 99.9659 83.2321 100.287C83.2321 100.609 83.2722 101.453 83.7137 101.975C84.1953 102.537 84.717 102.899 84.717 102.899C84.717 102.899 84.2354 103.06 84.4361 103.703C84.6368 104.346 87.7271 106.676 88.6903 107.158C89.6535 107.64 94.6702 109.047 95.0716 109.167C96.4361 109.689 100.048 111.176 100.048 111.176L101.934 104.104Z" fill="#F5AF7D"/>
<path d="M83.8734 97.4346C83.8734 97.4346 83.9938 97.4748 84.1543 97.5551C84.3148 97.6355 84.5958 97.7158 84.8767 97.8766C85.4787 98.1578 86.2814 98.5596 87.0439 98.9614C87.8065 99.4034 88.569 99.8454 89.1309 100.207C89.6928 100.569 90.054 100.81 90.054 100.81C90.0941 100.85 90.0941 100.93 90.0941 100.97C90.054 101.011 90.0138 101.011 89.9737 101.011C89.9737 101.011 89.5723 100.85 88.9703 100.569C88.3683 100.287 87.5657 99.9257 86.8031 99.4838C86.0406 99.082 85.278 98.64 84.7162 98.2784C84.4352 98.1176 84.1944 97.9569 84.0339 97.8364C83.8734 97.7158 83.7931 97.6757 83.7931 97.6757C83.753 97.6355 83.7128 97.5551 83.753 97.5149C83.7931 97.4346 83.8332 97.3944 83.8734 97.4346Z" fill="#E38568"/>
<path d="M84.0344 99.9659C84.0344 99.9659 84.1147 100.006 84.2752 100.086C84.4357 100.167 84.6765 100.287 84.9575 100.408C85.5193 100.689 86.2417 101.091 86.924 101.533C87.6063 101.975 88.2886 102.417 88.8103 102.779C89.2919 103.14 89.613 103.381 89.613 103.381C89.6531 103.421 89.6531 103.502 89.613 103.542C89.5728 103.582 89.5327 103.582 89.4926 103.582C89.4926 103.582 89.1314 103.421 88.5695 103.14C88.0076 102.859 87.2852 102.457 86.6029 102.055C85.8805 101.653 85.1983 101.171 84.7167 100.81C84.4759 100.649 84.2752 100.488 84.1147 100.368C83.9541 100.247 83.8739 100.207 83.8739 100.207C83.8337 100.167 83.8337 100.086 83.8739 100.046C83.914 99.9257 83.9541 99.9257 84.0344 99.9659Z" fill="#E38568"/>
<path d="M84.8382 102.819C84.8382 102.819 85.1191 102.939 85.5205 103.14C85.9218 103.341 86.4034 103.622 86.885 103.944C87.3666 104.265 87.8482 104.627 88.1693 104.908C88.5305 105.189 88.7312 105.39 88.7312 105.39C88.7713 105.43 88.7713 105.511 88.7312 105.551C88.691 105.591 88.6509 105.591 88.6108 105.591C88.6108 105.591 88.3298 105.471 87.9285 105.27C87.5272 105.069 87.0456 104.788 86.5238 104.466C86.0422 104.145 85.5606 103.823 85.1994 103.542C84.8382 103.261 84.6375 103.06 84.6375 103.06C84.5974 103.02 84.5974 102.939 84.6375 102.899C84.7579 102.819 84.7981 102.779 84.8382 102.819Z" fill="#E38568"/>
<path d="M99.6075 102.377L97.4804 101.613L94.1895 109.448L99.4068 112.261L99.6075 102.377Z" fill="#F5F5F5"/>
<path d="M99.3666 101.613C99.0857 101.573 98.9251 101.694 98.8047 102.095C98.6843 102.457 96.2362 111.297 96.1158 111.739C95.9954 112.181 96.0756 112.582 96.477 112.743C96.8783 112.904 108.597 116.882 113.413 117.806C118.189 118.73 121.039 118.167 121.681 116.319C122.323 114.471 122.323 99.1222 122.122 95.1042C121.922 91.0862 121.159 87.1888 120.156 85.9432C119.112 84.6575 111.447 90.6442 109.32 94.9836C108.196 98.198 107.755 102.819 107.755 102.819L99.3666 101.613Z" fill="#728761"/>
<path opacity="0.4" d="M108.034 102.819C110.843 103.823 113.532 105.792 115.298 108.524C117.024 111.256 117.184 112.663 117.345 112.623C117.506 112.542 118.148 109.85 116.783 107.56C115.419 105.27 113.171 105.27 112.368 104.587C111.566 103.904 108.756 102.256 107.833 101.774L107.713 102.819H108.034Z" fill="#756254"/>
<path d="M64.008 70.7955C63.2856 71.1169 62.5632 71.8402 64.008 71.7598C65.4528 71.6795 67.2187 71.2777 68.7036 71.1571C70.1886 71.0366 70.5899 70.7152 70.5498 70.4741C70.5498 70.2732 69.9879 69.5901 68.3826 69.6705C66.8174 69.8312 64.9712 70.3937 64.008 70.7955Z" fill="#383534"/>
<path d="M67.9 70.2732C70.6693 68.4651 71.3114 65.2105 69.1041 61.514C66.8967 57.8174 65.0506 56.6522 64.0873 56.6522C63.1241 56.6522 56.3817 58.4201 61.1576 66.6972C57.3449 64.2864 55.1776 64.7685 54.5756 65.5319C53.9736 66.3355 53.8131 66.4963 52.2479 65.8936C50.6827 65.331 49.88 64.5275 48.7161 64.5676C47.5924 64.6078 46.9904 65.0096 47.9536 65.5721C48.8766 66.0945 49.9603 65.773 51.5656 66.215C53.171 66.657 53.4118 66.4963 54.1342 67.5811C54.8566 68.666 56.0606 70.7151 58.0271 70.8357C59.9536 70.9562 62.4017 71.1973 63.4853 71.1169C64.4887 71.0366 66.8967 70.4741 67.9 70.2732Z" fill="#FEBF4A"/>
<path d="M67.9 70.2732C70.6693 68.4651 71.3114 65.2105 69.1041 61.514C66.8967 57.8174 65.0506 56.6522 64.0873 56.6522C63.1241 56.6522 56.3817 58.4201 61.1576 66.6972C57.3449 64.2864 55.1776 64.7685 54.5756 65.5319C53.9736 66.3355 53.8131 66.4963 52.2479 65.8936C50.6827 65.331 49.88 64.5275 48.7161 64.5676C47.5924 64.6078 46.9904 65.0096 47.9536 65.5721C48.8766 66.0945 49.9603 65.773 51.5656 66.215C53.171 66.657 53.4118 66.4963 54.1342 67.5811C54.8566 68.666 56.0606 70.7151 58.0271 70.8357C59.9536 70.9562 62.4017 71.1973 63.4853 71.1169C64.4887 71.0366 66.8967 70.4741 67.9 70.2732Z" fill="#FEBF4A"/>
<path d="M68.1008 70.1928C71.6727 68.224 73.9202 64.5676 73.7195 60.3487C73.5189 56.17 72.355 54.8441 71.4721 54.8441C70.549 54.8441 63.2446 56.7326 63.5256 66.0944C61.1577 63.322 58.8299 63.8444 57.8667 64.7283C56.9035 65.6123 56.6627 65.773 55.4587 65.1301C54.2547 64.4873 53.8935 63.5631 52.7697 63.6033C51.646 63.6435 50.8834 64.0855 51.5256 64.7283C52.1276 65.331 53.3316 64.9694 54.6159 65.4918C55.9001 66.0141 56.2212 65.8534 56.3416 67.0588C56.462 68.2642 56.5824 70.6348 58.3483 70.7553C60.1142 70.916 62.3215 71.2375 63.365 71.1169C64.4888 71.0366 67.0172 70.4339 68.1008 70.1928Z" fill="#FEBF4A"/>
</g>
</svg>
