<svg width="60" height="60" viewBox="0 0 60 60" fill="none" xmlns="http://www.w3.org/2000/svg">
<circle cx="30" cy="30" r="30" fill="#F3F3F3"/>
<g clip-path="url(#clip0_751_9551)">
<path d="M18.3621 40.0722H42.8448C42.8448 40.0722 50.8621 7.5 29.7793 7.5C9.69312 7.5 18.3621 40.0722 18.3621 40.0722Z" fill="#CC4E60"/>
<path d="M21.2068 23.4301C19.8896 21.7243 17.5413 22.5705 17.4758 24.5852C17.431 25.9284 18.2793 27.7014 19.631 28.232C21.2068 28.8465 22.6896 27.6477 22.3586 26.0057C22.1631 25.0784 21.7708 24.2011 21.2068 23.4301Z" fill="#F9D8D4"/>
<path d="M39.4036 23.4301C40.7208 21.7243 43.0691 22.5705 43.1346 24.5852C43.1795 25.9284 42.3312 27.7014 40.9795 28.232C39.4139 28.8465 37.9346 27.6544 38.2622 26.0057C38.4548 25.0792 38.8435 24.2021 39.4036 23.4301Z" fill="#F9D8D4"/>
<path d="M41.0892 45.6833C37.9168 43.6988 33.0134 40.3878 34.7789 36.0023C35.5444 34.1017 37.3065 32.3858 38.3375 30.596C39.249 29.019 39.731 27.2411 39.7375 25.4315C39.8271 20.7639 38.8168 14.7297 33.5754 13.0843C31.5065 12.4328 28.6168 12.5738 26.5099 13.2186C24.1237 13.954 22.4961 16.0695 21.6168 18.2992C20.7616 20.4617 20.6409 23.1145 20.6754 25.408C20.6825 27.2101 21.1646 28.9803 22.0754 30.549C23.1099 32.3388 24.8685 34.0077 25.634 35.9217C27.3996 40.3039 22.4961 43.7122 19.3237 45.6968C19.3237 45.6968 16.1513 47.1407 16.3789 52.5134H44.034C44.2616 47.1239 41.0892 45.6833 41.0892 45.6833Z" fill="#F9D8D4"/>
<path d="M21.0342 19.9244L30.3652 15.5591L39.5514 19.9244C39.5514 19.9244 39.2066 12.1004 30.379 11.8989C21.5514 11.6974 21.0342 19.9244 21.0342 19.9244Z" fill="#CC4E60"/>
<path d="M31.6724 31.5931C30.7152 31.736 29.7392 31.7064 28.7931 31.5058C28.7406 31.4965 28.6864 31.5067 28.6412 31.5343C28.596 31.5619 28.563 31.6049 28.5488 31.655C28.5345 31.7051 28.54 31.7585 28.5642 31.8048C28.5883 31.8512 28.6294 31.887 28.6793 31.9054C29.6609 32.1184 30.6745 32.1526 31.6689 32.0061C31.9413 31.9793 31.9448 31.5662 31.6724 31.5931Z" fill="#CC847D"/>
<path d="M26.6864 24.1654C26.6871 24.3842 26.6211 24.5982 26.4967 24.7804C26.3723 24.9626 26.1951 25.1047 25.9877 25.1888C25.7803 25.2728 25.5519 25.295 25.3315 25.2524C25.1111 25.2099 24.9086 25.1046 24.7498 24.9499C24.5909 24.7952 24.4828 24.5981 24.4391 24.3834C24.3954 24.1688 24.4182 23.9464 24.5045 23.7444C24.5908 23.5424 24.7367 23.3699 24.9238 23.2488C25.1109 23.1276 25.3307 23.0633 25.5554 23.064C25.8554 23.064 26.1431 23.18 26.3552 23.3866C26.5673 23.5931 26.6864 23.8733 26.6864 24.1654Z" fill="#683B1C"/>
<path d="M35.8622 24.1654C35.8629 24.384 35.7969 24.5979 35.6727 24.7801C35.5485 24.9622 35.3715 25.1043 35.1643 25.1884C34.957 25.2726 34.7288 25.2949 34.5085 25.2527C34.2882 25.2104 34.0858 25.1055 33.9268 24.9511C33.7678 24.7967 33.6594 24.5999 33.6153 24.3855C33.5713 24.1711 33.5935 23.9488 33.6793 23.7467C33.7651 23.5447 33.9105 23.3719 34.0971 23.2504C34.2837 23.1288 34.5032 23.064 34.7277 23.064C35.028 23.064 35.3161 23.1799 35.5287 23.3864C35.7414 23.5928 35.8613 23.873 35.8622 24.1654Z" fill="#683B1C"/>
<path d="M32.7411 29.2731C31.4549 30.67 29.0963 30.67 27.6549 29.4813C27.4066 29.2798 27.0342 29.619 27.2859 29.8171C28.9273 31.1603 31.6066 31.2442 33.0928 29.629C33.3101 29.3973 32.9583 29.0347 32.7411 29.2731Z" fill="#CC4E60"/>
<path d="M27.041 21.1197C26.5524 20.824 25.9748 20.6994 25.4036 20.7665C24.8325 20.8337 24.3019 21.0886 23.8996 21.4891C23.6755 21.7242 24.0376 22.0768 24.2617 21.8417C24.5822 21.5165 25.0087 21.3096 25.4683 21.2563C25.928 21.203 26.3924 21.3067 26.7824 21.5496C26.8409 21.583 26.9107 21.5923 26.9763 21.5757C27.042 21.559 27.0981 21.5176 27.1324 21.4606C27.1667 21.4036 27.1763 21.3356 27.1592 21.2717C27.142 21.2078 27.0995 21.1531 27.041 21.1197Z" fill="#683B1C"/>
<path d="M33.4692 21.1199C33.9577 20.8236 34.5354 20.6986 35.1067 20.7658C35.6781 20.833 36.2087 21.0882 36.6106 21.4893C36.8348 21.7244 36.4727 22.0769 36.2486 21.8419C35.928 21.5166 35.5016 21.3097 35.0419 21.2565C34.5822 21.2032 34.1178 21.3068 33.7279 21.5497C33.6989 21.5663 33.6668 21.5771 33.6336 21.5816C33.6003 21.5861 33.5664 21.5841 33.5339 21.5758C33.5014 21.5676 33.4709 21.5532 33.4442 21.5334C33.4174 21.5137 33.3948 21.489 33.3779 21.4608C33.3609 21.4325 33.3498 21.4013 33.3452 21.3689C33.3406 21.3365 33.3426 21.3036 33.3511 21.2719C33.3596 21.2403 33.3744 21.2106 33.3946 21.1845C33.4149 21.1584 33.4403 21.1365 33.4692 21.1199Z" fill="#683B1C"/>
<path d="M22.4518 28.8332C21.2862 27.1542 23.8138 24.9379 25.1449 26.7344C26.338 28.3429 23.7656 30.6532 22.4552 28.8399L22.4518 28.8332Z" fill="#EF8E9C"/>
<path d="M38.0651 28.8332C39.2307 27.1542 36.6858 24.9379 35.372 26.7344C34.1789 28.3429 36.7514 30.6532 38.0617 28.8399L38.0651 28.8332Z" fill="#EF8E9C"/>
<path d="M31.2067 27.6276C30.8721 27.7656 30.5102 27.8297 30.1471 27.8152C29.7839 27.8007 29.4286 27.7079 29.1067 27.5437C30.2205 25.9688 29.8516 23.4872 28.3378 22.275C28.0895 22.0735 27.724 22.4228 27.9929 22.6108C29.3723 23.7156 29.7412 26.0796 28.5585 27.4429C28.5316 27.4701 28.5114 27.5028 28.4993 27.5386C28.4872 27.5744 28.4835 27.6124 28.4884 27.6498C28.4934 27.6871 28.5069 27.723 28.528 27.7546C28.549 27.7862 28.5771 27.8128 28.6102 27.8324C29.0308 28.098 29.5127 28.2573 30.0124 28.296C30.5121 28.3347 31.0138 28.2516 31.4723 28.0541C31.7585 27.9298 31.4998 27.5034 31.2067 27.6276Z" fill="#CC847D"/>
<path d="M20.4754 26.0127C20.4284 25.6537 20.2814 25.3141 20.0505 25.0306C19.8195 24.7471 19.5133 24.5305 19.1651 24.4042C18.8548 24.2968 18.7203 24.777 19.0306 24.8844C19.2932 24.9883 19.5211 25.1609 19.6891 25.3832C19.8571 25.6054 19.9586 25.8687 19.9823 26.1437C20.041 26.4593 20.5341 26.325 20.4754 26.0127Z" fill="#CC847D"/>
<path d="M41.3446 24.4041C40.9489 24.4845 40.5886 24.6824 40.3132 24.9704C40.0378 25.2585 39.8608 25.6225 39.8066 26.0126C39.748 26.3248 40.2377 26.4592 40.2963 26.1435C40.3294 25.8381 40.4621 25.5511 40.675 25.3244C40.8878 25.0978 41.1696 24.9436 41.479 24.8843C41.8032 24.8305 41.6652 24.3504 41.3446 24.4041Z" fill="#CC847D"/>
<path d="M41.0892 45.6832C39.6329 44.7831 38.2619 43.7582 36.9927 42.6207C28.9685 46.2641 23.4409 42.5872 23.4203 42.5737C22.1505 43.7326 20.7798 44.782 19.3237 45.7101C19.3237 45.7101 16.1513 47.1238 16.3789 52.4965H44.034C44.2616 47.1238 41.0892 45.6832 41.0892 45.6832Z" fill="#A6C7E2"/>
<mask id="mask0_751_9551" style="mask-type:luminance" maskUnits="userSpaceOnUse" x="16" y="42" width="29" height="11">
<path d="M41.0902 45.6837C39.6339 44.7836 38.2629 43.7587 36.9936 42.6212C28.9695 46.2646 23.4419 42.5877 23.4212 42.5742C22.1515 43.7331 20.7808 44.7825 19.3247 45.7106C19.3247 45.7106 16.1523 47.1243 16.3798 52.497H44.035C44.2626 47.1243 41.0902 45.6837 41.0902 45.6837Z" fill="white"/>
</mask>
<g mask="url(#mask0_751_9551)">
<path d="M45.0005 49.8137H15.0005V50.8211H45.0005V49.8137Z" fill="#D3E7F4"/>
<path d="M45.0005 47.1274H15.0005V48.1348H45.0005V47.1274Z" fill="#D3E7F4"/>
<path d="M45.0005 44.7769H15.0005V45.7842H45.0005V44.7769Z" fill="#D3E7F4"/>
</g>
<path d="M22.4072 43.0946L23.7072 41.9697C23.7072 41.9697 29.2245 45.9993 36.8969 42.1914L38.1831 43.3129C38.1831 43.3129 30.6521 48.1954 22.4072 43.0946Z" fill="#EAF4F9"/>
</g>
<defs>
<clipPath id="clip0_751_9551">
<rect width="30" height="45" fill="white" transform="translate(15 7.5)"/>
</clipPath>
</defs>
</svg>
