<svg width="201" height="200" viewBox="0 0 201 200" fill="none" xmlns="http://www.w3.org/2000/svg">
<circle cx="100.5" cy="100" r="100" fill="white"/>
<g clip-path="url(#clip0_4434_13789)">
<path d="M61.7021 133.574H143.311C143.311 133.574 170.035 25 99.7595 25C32.8055 25 61.7021 133.574 61.7021 133.574Z" fill="#CC4E60"/>
<path d="M71.1944 78.1003C66.8036 72.4142 58.976 75.2349 58.7576 81.9508C58.6082 86.4281 61.4358 92.3381 65.9415 94.1066C71.1944 96.155 76.1369 92.159 75.0335 86.6855C74.382 83.5946 73.0744 80.6703 71.1944 78.1003Z" fill="#F9D8D4"/>
<path d="M131.84 78.1003C136.231 72.4142 144.059 75.2349 144.277 81.9508C144.427 86.4281 141.599 92.3381 137.093 94.1066C131.875 96.155 126.944 92.1814 128.036 86.6855C128.678 83.5975 129.974 80.6736 131.84 78.1003Z" fill="#F9D8D4"/>
<path d="M137.467 152.278C126.893 145.663 110.548 134.626 116.433 120.008C118.985 113.672 124.858 107.953 128.295 101.987C131.333 96.7301 132.94 90.8037 132.962 84.7716C133.26 69.213 129.893 49.0989 112.421 43.6142C105.525 41.4427 95.8926 41.9128 88.8696 44.0619C80.9156 46.5132 75.4903 53.5649 72.5593 60.9972C69.7087 68.2056 69.3064 77.0483 69.4213 84.6932C69.445 90.7003 71.0518 96.6009 74.088 101.83C77.5363 107.796 83.3983 113.359 85.9501 119.739C91.8351 134.346 75.4903 145.707 64.9156 152.323C64.9156 152.323 54.3409 157.136 55.0995 175.045H147.283C148.042 157.08 137.467 152.278 137.467 152.278Z" fill="#F9D8D4"/>
<path d="M70.6172 66.4148L101.721 51.8636L132.341 66.4148C132.341 66.4148 131.192 40.3346 101.767 39.663C72.3413 38.9914 70.6172 66.4148 70.6172 66.4148Z" fill="#CC4E60"/>
<path d="M106.075 105.311C102.884 105.787 99.6308 105.688 96.4769 105.02C96.3019 104.989 96.1213 105.023 95.9707 105.115C95.82 105.207 95.7102 105.35 95.6626 105.517C95.6151 105.684 95.6334 105.862 95.7139 106.017C95.7943 106.171 95.9312 106.291 96.0975 106.352C99.3696 107.062 102.748 107.176 106.063 106.688C106.971 106.598 106.983 105.221 106.075 105.311Z" fill="#CC847D"/>
<path d="M89.4499 80.5513C89.4522 81.2806 89.232 81.9941 88.8174 82.6014C88.4027 83.2087 87.8123 83.6824 87.1208 83.9625C86.4293 84.2427 85.668 84.3165 84.9334 84.1748C84.1988 84.0331 83.5239 83.6821 82.9943 83.1664C82.4648 82.6507 82.1044 81.9935 81.9588 81.2781C81.8133 80.5627 81.8891 79.8214 82.1768 79.148C82.4644 78.4747 82.9509 77.8997 83.5745 77.4959C84.1982 77.0921 84.9309 76.8777 85.6798 76.8799C86.6797 76.8799 87.6386 77.2667 88.3457 77.9552C89.0527 78.6437 89.4499 79.5776 89.4499 80.5513Z" fill="#683B1C"/>
<path d="M120.036 80.5513C120.038 81.2801 119.818 81.9931 119.404 82.6002C118.99 83.2073 118.4 83.681 117.709 83.9615C117.019 84.2419 116.258 84.3164 115.524 84.1756C114.789 84.0348 114.114 83.6849 113.584 83.1704C113.054 82.6558 112.693 81.9997 112.546 81.285C112.399 80.5704 112.474 79.8293 112.759 79.1558C113.045 78.4822 113.53 77.9064 114.152 77.5013C114.774 77.0962 115.506 76.8799 116.254 76.8799C117.255 76.8799 118.215 77.2663 118.924 77.9545C119.633 78.6427 120.033 79.5765 120.036 80.5513Z" fill="#683B1C"/>
<path d="M109.637 97.577C105.35 102.233 97.4876 102.233 92.683 98.271C91.8554 97.5994 90.614 98.7299 91.4531 99.3903C96.9243 103.868 105.855 104.147 110.809 98.7635C111.534 97.9911 110.361 96.7823 109.637 97.577Z" fill="#CC4E60"/>
<path d="M90.6399 70.3991C89.0112 69.4132 87.0859 68.9979 85.182 69.2218C83.2781 69.4456 81.5096 70.2953 80.1687 71.6304C79.4216 72.4139 80.6285 73.5892 81.3756 72.8057C82.444 71.7215 83.8655 71.0319 85.3977 70.8543C86.93 70.6767 88.478 71.0222 89.7779 71.8319C89.973 71.9432 90.2055 71.9745 90.4243 71.9189C90.6431 71.8632 90.8302 71.7252 90.9445 71.5353C91.0589 71.3453 91.091 71.1188 91.0339 70.9058C90.9767 70.6927 90.835 70.5105 90.6399 70.3991Z" fill="#683B1C"/>
<path d="M112.064 70.3998C113.692 69.4118 115.618 68.9953 117.522 69.2193C119.427 69.4432 121.196 70.2941 122.535 71.631C123.283 72.4145 122.076 73.5898 121.329 72.8063C120.26 71.7222 118.839 71.0325 117.306 70.8549C115.774 70.6773 114.226 71.0228 112.926 71.8325C112.83 71.8876 112.723 71.9237 112.612 71.9386C112.501 71.9535 112.388 71.947 112.28 71.9195C112.171 71.8919 112.07 71.8439 111.981 71.7781C111.891 71.7122 111.816 71.63 111.76 71.5359C111.703 71.4418 111.666 71.3378 111.651 71.2298C111.635 71.1218 111.642 71.0119 111.67 70.9064C111.699 70.8009 111.748 70.7019 111.815 70.6149C111.883 70.528 111.968 70.4549 112.064 70.3998Z" fill="#683B1C"/>
<path d="M75.3343 96.1105C71.4493 90.5139 79.8746 83.1264 84.3113 89.1148C88.2884 94.4763 79.7136 102.177 75.3458 96.1329L75.3343 96.1105Z" fill="#EF8E9C"/>
<path d="M127.387 96.1105C131.272 90.5139 122.789 83.1264 118.41 89.1148C114.433 94.4763 123.008 102.177 127.376 96.1329L127.387 96.1105Z" fill="#EF8E9C"/>
<path d="M104.526 92.092C103.41 92.5521 102.204 92.7656 100.993 92.7172C99.7831 92.6689 98.5987 92.3598 97.5257 91.8122C101.238 86.5626 100.008 78.2908 94.9625 74.2501C94.1349 73.5785 92.9165 74.7426 93.8131 75.3694C98.4108 79.052 99.6407 86.932 95.6981 91.4764C95.6087 91.567 95.5413 91.676 95.5009 91.7953C95.4605 91.9146 95.4481 92.0413 95.4646 92.1659C95.4812 92.2905 95.5262 92.4099 95.5965 92.5153C95.6668 92.6207 95.7604 92.7094 95.8705 92.7748C97.2726 93.66 98.879 94.1911 100.545 94.3201C102.21 94.449 103.883 94.1719 105.411 93.5136C106.365 93.0994 105.503 91.6779 104.526 92.092Z" fill="#CC847D"/>
<path d="M68.7547 86.7086C68.5979 85.5121 68.108 84.38 67.3381 83.435C66.5683 82.49 65.5478 81.768 64.3869 81.3471C63.3524 80.9889 62.9042 82.5895 63.9386 82.9477C64.8139 83.2938 65.5736 83.8692 66.1336 84.6101C66.6935 85.351 67.0319 86.2284 67.1111 87.1451C67.3065 88.1973 68.9501 87.7496 68.7547 86.7086Z" fill="#CC847D"/>
<path d="M138.318 81.347C137 81.6151 135.799 82.2746 134.881 83.2347C133.963 84.1949 133.373 85.4084 133.192 86.7085C132.997 87.7495 134.629 88.1972 134.824 87.145C134.935 86.127 135.377 85.1702 136.086 84.4148C136.796 83.6594 137.735 83.1452 138.767 82.9476C139.847 82.7685 139.387 81.1679 138.318 81.347Z" fill="#CC847D"/>
<path d="M137.467 152.278C132.613 149.277 128.043 145.861 123.812 142.07C97.065 154.214 78.6397 141.958 78.5708 141.913C74.3382 145.776 69.7693 149.274 64.9156 152.367C64.9156 152.367 54.3409 157.08 55.0995 174.989H147.283C148.042 157.08 137.467 152.278 137.467 152.278Z" fill="#A6C7E2"/>
<mask id="mask0_4434_13789" style="mask-type:luminance" maskUnits="userSpaceOnUse" x="55" y="141" width="93" height="34">
<path d="M137.467 152.278C132.613 149.277 128.043 145.861 123.812 142.07C97.065 154.214 78.6397 141.958 78.5708 141.913C74.3382 145.776 69.7693 149.274 64.9156 152.367C64.9156 152.367 54.3409 157.08 55.0995 174.989H147.283C148.042 157.08 137.467 152.278 137.467 152.278Z" fill="white"/>
</mask>
<g mask="url(#mask0_4434_13789)">
<path d="M150.5 166.045H50.5V169.403H150.5V166.045Z" fill="#D3E7F4"/>
<path d="M150.5 157.091H50.5V160.449H150.5V157.091Z" fill="#D3E7F4"/>
<path d="M150.5 149.255H50.5V152.613H150.5V149.255Z" fill="#D3E7F4"/>
</g>
<path d="M75.1875 143.648L79.5208 139.899C79.5208 139.899 97.9116 153.331 123.486 140.637L127.774 144.376C127.774 144.376 102.67 160.651 75.1875 143.648Z" fill="#EAF4F9"/>
</g>
<defs>
<clipPath id="clip0_4434_13789">
<rect width="100" height="150" fill="white" transform="translate(50.5 25)"/>
</clipPath>
</defs>
</svg>
