<svg width="200" height="200" viewBox="0 0 200 200" fill="none" xmlns="http://www.w3.org/2000/svg">
<mask id="mask0_4437_16402" style="mask-type:alpha" maskUnits="userSpaceOnUse" x="0" y="0" width="200" height="200">
<rect width="200" height="200" fill="#DCC09B"/>
</mask>
<g mask="url(#mask0_4437_16402)">
<path d="M93.6426 37.408C93.6957 36.4512 94.3335 35.7603 95.2902 35.4414C96.0875 35.1756 97.0442 35.2819 97.7351 35.7071C98.2666 36.026 98.6918 36.6638 98.6387 37.3017" fill="#9AB6DB"/>
<path d="M132.758 65.6838C134.14 71.7429 134.777 77.9615 134.671 84.2333C133.821 84.3927 132.97 84.5522 132.173 84.7116C132.014 84.7648 131.854 84.7648 131.695 84.7116C131.482 84.6053 131.376 84.3927 131.269 84.1801C128.771 77.5895 126.22 70.5736 127.443 63.611C127.655 63.611 127.868 63.611 128.08 63.611" fill="#9AB6DB"/>
<path d="M139.136 94.5444C143.866 96.3515 145.886 101.879 146.842 106.822C148.862 116.814 149.022 127.126 149.234 137.33C149.553 154.285 149.819 171.347 147.268 188.089C146.736 191.49 146.045 194.998 144.185 197.922C142.325 200.845 138.976 203.077 135.521 202.652" fill="#9AB6DB"/>
<path d="M105.066 173.154C103.844 162.471 103.578 151.734 103.631 140.998C103.738 125 104.694 108.523 111.604 94.1194C112.295 92.6311 113.145 91.1429 114.527 90.2925C115.75 89.5484 117.291 89.389 118.726 89.3358C125.742 89.1232 137.063 90.3988 141.474 96.7237C143.76 100.019 143.972 104.218 144.079 108.204C144.929 134.939 144.61 161.726 142.59 188.408C142.325 191.863 141.953 195.53 139.827 198.294C137.063 201.855 132.226 202.865 127.762 203.503" fill="#9AB6DB"/>
<path d="M148.384 117.133C147.055 117.558 145.673 117.877 144.291 118.037C144.345 118.409 144.291 118.781 144.238 119.153C145.78 119.312 147.374 118.993 148.809 118.302" fill="#9AB6DB"/>
<path d="M149.446 140.201C147.958 140.626 146.363 140.892 144.769 140.892C144.716 141.21 144.61 141.529 144.556 141.848C144.503 141.955 144.503 142.114 144.61 142.167C144.663 142.22 144.716 142.22 144.769 142.22C146.257 142.273 147.745 142.114 149.234 141.795" fill="#9AB6DB"/>
<path d="M149.338 160.823C147.691 161.355 145.937 161.514 144.183 161.355C144.129 161.62 144.076 161.886 144.023 162.152C143.97 162.258 143.97 162.471 144.076 162.524C144.129 162.577 144.236 162.577 144.289 162.577C146.096 162.683 148.009 162.736 149.604 161.992" fill="#9AB6DB"/>
<path d="M144.08 108.789C131.27 111.074 118.195 112.19 105.174 112.244C105.014 113.36 104.855 114.476 104.695 115.592C117.77 117.399 131.164 116.921 144.08 114.21C144.08 112.509 144.08 110.809 144.08 109.108" fill="#9AB6DB"/>
<path d="M144.719 130.421C132.495 132.866 119.898 133.397 107.461 132.069C107.195 133.769 106.983 135.417 106.717 137.118C110.065 138.075 113.573 138.34 117.081 138.447C126.223 138.765 135.418 138.34 144.56 137.118C144.56 136.321 144.56 135.47 144.56 134.673" fill="#9AB6DB"/>
<path d="M60.3662 94.5444C55.6358 96.3515 53.6161 101.879 52.6594 106.822C50.6397 116.814 50.4802 127.126 50.2676 137.33C49.9487 154.285 49.683 171.347 52.2342 188.089C52.7657 191.49 53.4566 194.998 55.3169 197.922C57.1771 200.845 60.5256 203.077 63.9804 202.652" fill="#9AB6DB"/>
<path d="M94.4396 173.154C95.6621 162.471 95.9278 151.734 95.8747 140.998C95.7684 125 94.8117 108.523 87.9022 94.1194C87.2112 92.6311 86.3608 91.1429 84.9789 90.2925C83.7564 89.5484 82.2151 89.389 80.78 89.3358C73.7642 89.1232 62.4432 90.3988 58.0317 96.7237C55.7463 100.019 55.5337 104.218 55.4274 108.204C54.577 134.939 54.8959 161.726 56.9156 188.408C57.1813 191.863 57.5534 195.53 59.6794 198.294C62.4432 201.855 67.2799 202.865 71.7445 203.503" fill="#9AB6DB"/>
<path d="M51.1205 117.133C52.4493 117.558 53.8312 117.877 55.2131 118.037C55.1599 118.409 55.2131 118.781 55.2662 119.153C53.7249 119.312 52.1304 118.993 50.6953 118.302" fill="#9AB6DB"/>
<path d="M50.0566 140.201C51.5448 140.626 53.1394 140.892 54.7339 140.892C54.787 141.21 54.8933 141.529 54.9465 141.848C54.9996 141.955 54.9996 142.114 54.8933 142.167C54.8402 142.22 54.787 142.22 54.7339 142.22C53.2457 142.273 51.7574 142.114 50.2692 141.795" fill="#9AB6DB"/>
<path d="M50.2169 160.823C51.8646 161.355 53.6185 161.514 55.3725 161.355C55.4256 161.62 55.4788 161.886 55.5319 162.152C55.5851 162.258 55.5851 162.471 55.4788 162.524C55.4256 162.577 55.3193 162.577 55.2662 162.577C53.4591 162.683 51.5457 162.736 49.9512 161.992" fill="#9AB6DB"/>
<path d="M55.4238 108.789C68.233 111.074 81.308 112.19 94.3298 112.244C94.4893 113.36 94.6487 114.476 94.8082 115.592C81.7332 117.399 68.3393 116.921 55.4238 114.21C55.4238 112.509 55.4238 110.809 55.4238 109.108" fill="#9AB6DB"/>
<path d="M54.7871 130.421C67.0117 132.866 79.6083 133.397 92.0454 132.069C92.3112 133.769 92.5238 135.417 92.7895 137.118C89.4411 138.075 85.9332 138.34 82.4252 138.447C73.2834 138.765 64.0884 138.34 54.9466 137.118C54.9466 136.321 54.9466 135.47 54.9466 134.673" fill="#9AB6DB"/>
<path d="M92.3654 110.861C91.4618 117.718 92.2591 125.053 92.4185 131.962C92.4185 132.334 92.4185 132.759 92.6843 133.078C92.8969 133.344 93.2158 133.503 93.5347 133.663C97.9461 135.417 103.102 134.939 107.407 132.866C106.982 127.923 106.556 123.033 106.078 118.09C105.919 116.23 105.759 114.369 105.972 112.509" fill="#9AB6DB"/>
<path d="M107.619 123.617C107.194 121.704 107.406 119.684 108.204 117.93C109.001 116.176 110.33 114.741 111.924 113.838C112.615 117.824 110.914 122.182 107.778 124.521" fill="#9AB6DB"/>
<path d="M107.036 123.352C109.215 121.97 111.872 121.598 114.37 121.81C116.868 122.023 119.367 122.82 121.758 123.617C121.067 124.68 119.898 125.212 118.729 125.425C116.018 126.009 113.201 125.637 110.49 124.999C109.109 124.68 107.567 124.255 106.717 123.033" fill="#9AB6DB"/>
<path d="M67.7033 67.4909C62.6008 67.2783 57.4984 66.4279 52.6617 64.8334C50.1105 64.0361 48.516 62.6011 51.1735 60.6345C54.15 58.4022 59.5181 57.7644 63.0792 56.914C75.1974 53.9907 87.3157 53.4592 99.7529 53.2466C107.406 53.1403 115.007 53.4061 122.607 54.097C129.464 54.7348 136.905 55.5852 143.549 57.4986C145.568 58.0833 150.883 60.8471 146.897 62.6542C140.997 65.3649 134.247 65.3649 127.763 65.3117" fill="#9AB6DB"/>
<path d="M128.614 140.785C127.604 136.639 124.787 133.131 121.492 130.474C117.931 127.604 113.572 127.232 109.161 126.594C106.131 126.169 103.102 125.903 100.072 125.744V125.69C99.9657 125.69 99.8594 125.69 99.7531 125.69C99.6468 125.69 99.5405 125.69 99.4342 125.69V125.744C96.4047 125.85 93.322 126.169 90.3455 126.594C85.9341 127.179 81.5757 127.604 78.0147 130.474C74.7194 133.078 71.9024 136.639 70.8925 140.785C66.9594 156.783 63.5047 173.313 61.1661 189.736C60.0499 197.709 58.4554 206.213 58.5617 214.292C72.0619 219.66 86.7313 222.583 102.145 222.583C115.645 222.583 128.667 220.298 140.732 216.099C140.838 215.621 140.891 215.089 140.891 214.558C141.104 206.426 139.456 197.762 138.34 189.736C136.002 173.26 132.547 156.783 128.614 140.785Z" fill="#9AB6DB"/>
<g opacity="0.61">
<path opacity="0.25" d="M59.9956 197.868C59.7299 199.569 59.5173 201.27 59.3047 203.024C85.3483 212.325 114.262 211.953 140.146 202.333C139.934 200.632 139.668 198.931 139.455 197.231C114.049 207.063 85.5078 207.17 59.9956 197.868Z" fill="#9AB6DB"/>
<g opacity="0.25">
<path d="M136.583 178.575C112.878 187.026 86.6754 187.132 62.8641 179.16C62.5983 180.86 62.2794 182.561 62.0137 184.262C86.4096 192.288 113.144 191.969 137.434 183.624C137.168 181.923 136.849 180.276 136.583 178.575Z" fill="#9AB6DB"/>
</g>
<g opacity="0.25">
<path d="M133.343 161.46C111.604 168.423 87.9523 168.529 66.1075 161.992C65.7355 163.64 65.4166 165.34 65.0977 166.988C87.6334 173.685 111.923 173.419 134.352 166.403C133.98 164.756 133.661 163.108 133.343 161.46Z" fill="#9AB6DB"/>
</g>
<g opacity="0.25">
<path d="M69.9349 144.771C69.5629 146.419 69.1377 148.067 68.7656 149.714C88.8033 156.518 110.701 156.252 130.579 149.183C130.207 147.535 129.835 145.887 129.41 144.293C110.329 151.256 89.1753 151.309 69.9349 144.771Z" fill="#9AB6DB"/>
</g>
<path opacity="0.25" d="M123.509 132.281C107.936 136.692 91.3535 136.746 75.6742 132.547C74.3986 133.876 73.2825 135.311 72.3789 136.905C90.1311 142.114 109.106 141.901 126.805 136.48C125.901 134.992 124.785 133.557 123.509 132.281Z" fill="#9AB6DB"/>
</g>
<g opacity="0.42">
<path d="M91.9915 120.11C92.7356 120.163 93.4265 120.216 94.1706 120.269C98.21 120.588 102.356 120.854 106.289 120.056C106.236 119.419 106.183 118.781 106.129 118.196C105.97 116.336 105.811 114.476 106.023 112.615L93.7454 111.074C93.3202 111.074 92.8419 111.074 92.4167 111.074C91.9915 113.997 91.8852 117.027 91.9915 120.11Z" fill="#9AB6DB"/>
</g>
<path d="M69.5641 83.8405C67.7417 82.9799 65.4636 83.0306 63.6918 83.9924C61.8694 84.9543 60.6038 86.7767 60.2494 88.8016C59.9457 90.6747 60.5026 92.649 61.4138 94.3196C64.7043 100.192 71.2853 101.154 77.3601 100.091" fill="#9AB6DB"/>
<path d="M129.425 85.7644C132.563 81.0565 140.056 83.6889 140.916 88.8018C141.22 90.6749 140.663 92.6492 139.752 94.3198C136.411 100.243 130.083 100.951 124.059 99.9896" fill="#9AB6DB"/>
<path d="M128.825 97.5738C134.034 83.9674 131.855 71.4239 128.613 57.8175C128.294 56.4356 127.922 54.9473 126.965 53.8843C125.583 52.343 123.244 51.9709 121.172 51.7052C113.305 50.6953 106.768 49.2071 98.689 49.7386C88.9094 50.3233 79.236 52.2898 69.8285 54.9473C66.852 66.481 66.7989 78.9181 69.8285 90.3986C73.3895 103.952 81.5215 114.741 96.8819 115.964C110.701 117.08 123.829 110.596 128.825 97.5738Z" fill="#9AB6DB"/>
<path d="M111.551 90.7706C112.614 88.9635 113.411 86.9438 113.783 84.8709C113.89 84.3394 114.368 79.7153 114.102 79.6622C109.372 78.7586 104.588 78.5992 99.8047 78.7586C94.9149 78.9181 90.1845 78.9712 85.401 80.1405C85.2947 83.5422 86.1982 87.369 88.0053 90.2922C89.8656 93.3749 92.8952 95.7667 96.2968 96.8829C97.8913 97.4144 99.5921 97.6801 101.293 97.5738C105.545 97.2549 109.372 94.438 111.551 90.7706Z" fill="#9AB6DB"/>
<path d="M111.126 91.4084C108.256 89.1761 104.695 87.8473 101.027 87.7942C96.8283 87.7942 92.6826 89.6013 89.8125 92.5777C91.5665 94.4911 93.8519 95.9793 96.2968 96.8297C97.8913 97.3612 99.5921 97.627 101.293 97.5207C105.279 97.2549 108.893 94.7569 111.126 91.4084Z" fill="#9AB6DB"/>
<g opacity="0.19">
<path d="M80.7782 91.8867C82.0538 91.2489 83.1168 90.0264 83.5951 88.6445C85.7743 82.1071 72.4336 81.2035 72.4336 87.9536C72.4867 91.993 77.5892 93.4812 80.7782 91.8867Z" fill="#9AB6DB"/>
</g>
<g opacity="0.19">
<path d="M124.255 91.8867C125.53 91.2489 126.593 90.0264 127.072 88.6445C129.251 82.1071 115.91 81.2035 115.91 87.9536C115.963 91.993 121.066 93.4812 124.255 91.8867Z" fill="#9AB6DB"/>
</g>
<path d="M66.9588 77.43C72.9648 75.1446 79.0239 72.7528 84.1264 68.8197C89.2288 64.8866 93.2151 59.0932 93.534 52.7152C86.3587 52.3431 79.1302 52.5557 71.955 53.353C71.2109 53.4061 70.4668 53.5124 69.829 53.9376C68.8191 54.5754 68.5002 55.851 68.2344 57.0203C66.9057 63.611 66.4273 70.361 66.9057 77.058" fill="#9AB6DB"/>
<path d="M69.1921 53.3529C63.877 62.5479 62.3357 73.8689 65.0463 84.1269C66.694 84.4989 68.3948 84.871 70.0425 85.2962C72.7 81.5225 74.135 76.8453 74.0287 72.2212" fill="#9AB6DB"/>
<path d="M87.4771 70.733C87.2645 70.733 87.105 71.9555 86.6798 73.8689C86.4672 74.7725 86.0952 75.8886 85.4042 76.8453C84.7133 77.7489 83.5971 78.5993 82.3747 78.7056C81.7369 78.7587 81.2054 78.6524 80.6739 78.3335C80.1424 78.0146 79.664 77.5894 79.292 77.1642C78.4947 76.2607 77.9632 75.2508 77.6443 74.4004C77.0065 72.6464 77.1659 71.3708 76.9533 71.3708C76.847 71.3708 76.6876 71.6366 76.5813 72.2212C76.475 72.8059 76.4218 73.6563 76.6344 74.7193C76.847 75.7292 77.3254 76.9516 78.229 78.0678C78.7073 78.5993 79.2388 79.1308 79.9298 79.6091C80.6207 80.0343 81.6306 80.3001 82.481 80.1938C84.2881 79.9812 85.67 78.8119 86.4672 77.5894C87.2645 76.3138 87.5302 75.0914 87.6365 74.0283C87.7428 73.0185 87.6897 72.1681 87.6897 71.6366C87.6365 71.0519 87.5834 70.733 87.4771 70.733Z" fill="#9AB6DB"/>
<path d="M120.537 68.9791C120.324 69.0323 120.537 70.361 120.005 72.2744C119.74 73.2311 119.261 74.3473 118.464 75.3572C117.667 76.3139 116.444 77.1111 115.062 77.1643C113.68 77.2706 112.511 76.5265 111.767 75.5166C111.023 74.5067 110.704 73.3374 110.491 72.3807C110.332 71.3709 110.226 70.5205 110.172 69.9358C110.119 69.3512 110.013 69.0323 109.907 69.0323C109.8 69.0323 109.694 69.3512 109.588 69.9358C109.482 70.5205 109.375 71.424 109.482 72.5402C109.535 73.6563 109.8 75.0383 110.704 76.367C111.129 77.0048 111.714 77.6426 112.511 78.0678C113.308 78.5462 114.265 78.7588 115.169 78.6525C116.125 78.5993 116.976 78.2804 117.72 77.8552C118.464 77.3769 119.049 76.7922 119.527 76.2076C120.43 74.9851 120.856 73.6032 121.015 72.487C121.175 71.3709 121.068 70.4673 120.962 69.8295C120.803 69.298 120.643 68.9791 120.537 68.9791Z" fill="#9AB6DB"/>
<path d="M90.6112 50.8549C92.5777 55.0006 96.6703 57.7112 100.71 59.7841C110.861 64.9928 122.501 66.4279 133.397 69.4043C133.716 69.5106 132.015 61.5912 131.696 60.8471C130.58 58.4022 129.677 55.6915 128.135 53.4061C127.923 53.0872 127.71 52.8214 127.444 52.6088C126.966 52.2368 126.381 52.0773 125.743 51.9179C122.129 51.0675 118.568 50.6954 114.901 50.4297C107.885 49.9513 100.869 49.4198 93.9065 48.9415C91.7273 48.782 89.3356 48.6757 87.6348 50.1108" fill="#9AB6DB"/>
<path d="M67.1191 54.1501C68.3947 49.9513 69.7235 45.5398 72.6999 42.3508C74.0818 40.8626 75.7295 39.6933 77.3771 38.6303C87.2631 32.0396 96.2986 26.5652 108.204 31.7207C114.848 34.5909 120.216 37.6736 125.638 42.6165C126.807 43.6795 127.923 44.7426 128.667 46.1245C130.049 48.5162 130.155 51.4926 130.208 54.3096" fill="#9AB6DB"/>
<path d="M97.7849 49.845C97.9443 49.845 98.1038 45.4335 98.1569 39.9591C98.2101 34.4846 98.1038 30.0731 97.9974 30.0731C97.838 30.0731 97.6786 34.4846 97.6254 39.9591C97.5722 45.3804 97.6254 49.845 97.7849 49.845Z" fill="#9AB6DB"/>
<path d="M77.8535 51.9711C77.9598 51.9711 78.0661 50.3234 78.8102 47.8254C78.9165 47.5065 79.0228 47.1876 79.1291 46.8687C79.2354 46.5498 79.3949 46.1777 79.5012 45.8057C79.7669 45.0616 80.139 44.3175 80.4579 43.5734C81.2551 42.032 82.2118 40.3843 83.4343 38.843C84.6567 37.3016 86.0386 35.9197 87.3674 34.8036C88.0584 34.2721 88.6962 33.7406 89.334 33.3154C89.6529 33.1028 89.9718 32.8902 90.2375 32.6776C90.5564 32.5181 90.8222 32.3587 91.1411 32.1461C93.4265 30.8705 94.9679 30.3389 94.9679 30.2326C94.9679 30.1795 94.5427 30.2858 93.8517 30.5515C93.6391 30.6047 93.4797 30.6578 93.2671 30.7642C93.0545 30.8173 92.8419 30.9236 92.5761 31.0299C92.0978 31.2425 91.5131 31.4551 90.9816 31.774C90.6627 31.9335 90.3438 32.0929 90.0781 32.2524C89.7592 32.4118 89.4403 32.6244 89.1214 32.837C88.4304 33.2622 87.7926 33.7406 87.1017 34.2721C85.7197 35.3882 84.3378 36.7701 83.0622 38.3646C81.7866 39.9591 80.8299 41.66 80.0327 43.2545C79.6606 44.0517 79.3417 44.7958 79.076 45.5931C78.9697 45.9651 78.8102 46.3372 78.7039 46.6561C78.5976 46.975 78.5445 47.347 78.4382 47.6659C78.2256 48.3037 78.1724 48.8884 78.0661 49.4199C77.9598 49.9514 77.9067 50.3766 77.9067 50.7486C77.8535 51.5459 77.8535 51.9711 77.8535 51.9711Z" fill="#9AB6DB"/>
<path d="M117.292 51.1205C117.345 51.1205 117.345 50.6953 117.345 50.0044C117.345 49.2603 117.239 48.1973 116.973 46.9217C116.707 45.646 116.229 44.1047 115.538 42.5633C114.794 40.9688 113.784 39.3212 112.402 37.833C109.691 34.8034 106.502 32.9963 104.217 31.7207C103.048 31.0829 102.091 30.6577 101.453 30.3388C100.815 30.0199 100.39 29.9136 100.39 29.9136C100.337 29.9667 101.772 30.764 104.004 32.0396C106.237 33.3683 109.319 35.2286 111.977 38.1519C114.634 41.0751 116.016 44.4767 116.601 46.9748C117.239 49.4729 117.186 51.1205 117.292 51.1205Z" fill="#9AB6DB"/>
<path d="M83.5435 142.964C84.6597 136.958 87.6893 131.271 88.7523 125.531C78.388 122.767 72.8072 132.334 71.1064 140.945C66.1634 165.872 66.0039 191.969 72.4351 216.578C72.6477 217.428 72.8603 218.278 73.2324 219.022C77.0592 219.979 80.9923 220.776 84.9786 221.361C82.0022 202.014 80.886 182.349 81.6301 162.789C81.8959 156.146 82.3742 149.502 83.5435 142.964Z" fill="#9AB6DB"/>
<path d="M111.289 125.531C112.352 131.325 115.382 136.958 116.498 142.964C117.667 149.502 118.145 156.146 118.411 162.789C119.155 182.561 117.986 202.386 115.01 221.893C118.836 221.467 122.557 220.883 126.224 220.139C126.968 219.076 127.287 217.8 127.606 216.578C134.037 191.969 133.878 165.925 128.935 140.945C127.234 132.334 121.653 122.767 111.289 125.531Z" fill="#9AB6DB"/>
<path d="M101.666 55.3197C116.867 55.1071 132.387 56.7547 147.322 59.5717C147.641 59.6248 147.269 59.8374 147.641 59.8374C142.698 55.7449 136.533 53.7252 130.208 52.6622C119.259 50.8019 108.204 49.9515 97.1487 50.0578C89.0167 50.1109 80.8315 50.9082 72.859 52.6622C68.8196 53.5657 64.8865 54.6819 61.0065 56.1701C57.7643 57.3925 54.2033 58.6681 51.4395 60.8473C67.8097 57.0205 84.9241 55.5323 101.666 55.3197Z" fill="#9AB6DB"/>
<path d="M90.0792 129.889C92.152 131.484 94.8627 131.643 97.4139 131.643C99.3805 131.643 101.347 131.537 103.207 130.952C105.918 130.102 108.363 127.763 109.904 125.265C109.054 124.361 108.257 123.458 107.406 122.554C107.353 122.501 107.3 122.448 107.194 122.395C107.087 122.342 106.928 122.448 106.822 122.554C104.749 124.149 101.241 123.777 98.7427 123.724C96.1383 123.67 93.1087 123.139 91.2485 120.96C90.1855 123.458 89.9197 126.062 89.5477 128.72C89.4945 128.932 89.4945 129.145 89.5477 129.358C89.7071 129.57 89.9197 129.73 90.0792 129.889Z" fill="#9AB6DB"/>
<path d="M94.8114 71.6368C94.0142 63.7706 88.6992 57.9241 80.5672 57.6583C71.7442 57.3394 65.8977 64.4084 65.6851 72.753C65.4193 81.4696 72.382 87.954 80.9392 87.954C89.709 87.8477 95.2366 79.7688 94.8114 71.6368C94.7583 69.9892 92.2071 69.9892 92.2602 71.6368C92.5791 78.3338 88.8055 84.3929 81.7896 85.2965C74.4549 86.2532 68.7678 80.6192 68.2363 73.6034C67.6517 66.375 72.5415 60.7411 79.6636 60.1564C86.6263 59.6249 91.5693 65.0462 92.2071 71.5837C92.4197 73.2314 94.9709 73.2314 94.8114 71.6368Z" fill="#9AB6DB"/>
<path d="M132.864 71.637C132.067 63.7707 126.752 57.9242 118.62 57.6585C109.797 57.3396 103.95 64.4085 103.738 72.7531C103.472 81.4698 110.435 87.9541 118.992 87.9541C127.762 87.8478 133.236 79.769 132.864 71.637C132.811 69.9893 130.26 69.9893 130.313 71.637C130.632 78.3339 126.858 84.393 119.842 85.2966C112.508 86.2533 106.821 80.6194 106.289 73.6035C105.704 66.3751 110.594 60.7412 117.716 60.1565C124.679 59.625 129.622 65.0463 130.26 71.5838C130.472 73.2315 133.024 73.2315 132.864 71.637Z" fill="#9AB6DB"/>
<path d="M95.0228 70.2019C97.8929 67.3849 101.932 67.8101 104.377 70.8928C105.387 72.1684 107.194 70.3613 106.184 69.0857C102.889 64.94 96.9893 64.7274 93.2688 68.3948C92.0464 69.5641 93.8535 71.3712 95.0228 70.2019Z" fill="#9AB6DB"/>
<path d="M65.1517 73.0188C63.4509 76.5267 61.8032 80.0877 60.1024 83.5957C59.4114 85.0839 61.5906 86.3595 62.2816 84.8713C63.9824 81.3634 65.63 77.8023 67.3308 74.2944C68.0749 72.8593 65.8958 71.5837 65.1517 73.0188Z" fill="#9AB6DB"/>
<path d="M130.791 75.7825C133.236 78.2274 134.458 81.5227 136 84.5523C136.744 85.9874 138.923 84.7118 138.179 83.2767C136.531 80.0345 135.149 76.6329 132.545 74.0286C131.429 72.8593 129.675 74.6132 130.791 75.7825Z" fill="#9AB6DB"/>
<path d="M95.2344 71.9022C95.7127 73.3904 97.7856 76.6858 99.699 76.6326C101.559 76.5263 102.888 73.231 102.994 71.7959C102.994 71.5302 103.047 71.3176 102.941 71.0518C102.835 70.8392 102.675 70.6266 102.516 70.4672C101.4 69.2979 100.549 67.7565 98.9018 67.3845C97.4136 67.0656 95.6596 67.7565 95.1281 69.1916C94.8092 70.0951 94.9686 71.0518 95.2344 71.9022Z" fill="#9AB6DB"/>
<path d="M79.6631 221.095C79.982 220.989 77.9623 215.886 76.4741 207.223C75.73 202.918 75.1985 197.709 74.8796 191.916C74.6139 186.122 74.5076 179.691 74.6139 172.994C74.7733 166.297 75.2517 159.919 76.0489 154.179C76.8462 148.439 77.9623 143.336 79.1316 139.084C80.2478 134.832 81.5234 131.537 82.3738 129.198C83.2773 126.913 83.7557 125.637 83.6494 125.584C83.5431 125.531 82.8521 126.7 81.736 128.933C80.7261 131.165 79.2379 134.46 77.9092 138.712C76.5804 142.964 75.3048 148.12 74.4013 153.913C73.4977 159.707 72.9662 166.191 72.8067 172.941C72.6473 179.691 72.8067 186.122 73.2319 192.022C73.604 197.868 74.3481 203.13 75.1985 207.489C76.1021 211.847 77.1651 215.302 78.0686 217.64C78.4938 218.81 78.8659 219.713 79.1848 220.298C79.4505 220.776 79.61 221.095 79.6631 221.095Z" fill="#9AB6DB"/>
<path d="M120.96 221.521C121.067 221.574 121.598 220.298 122.342 217.906C123.086 215.515 124.096 212.06 125 207.701C125.478 205.522 125.903 203.131 126.222 200.473C126.541 197.869 126.754 195.052 127.02 192.128C127.551 186.282 128.029 179.851 128.242 173.048C128.401 166.244 128.136 159.76 127.338 153.86C126.541 148.014 125.159 142.752 123.459 138.606C121.811 134.407 119.844 131.325 118.356 129.305C117.984 128.827 117.665 128.401 117.346 127.976C117.027 127.604 116.762 127.338 116.549 127.073C116.071 126.594 115.858 126.382 115.805 126.382C115.752 126.435 115.911 126.754 116.283 127.285C116.443 127.551 116.708 127.87 116.974 128.295C117.24 128.72 117.506 129.199 117.825 129.677C119.1 131.75 120.854 134.886 122.289 139.031C123.777 143.124 125 148.279 125.691 154.02C126.382 159.813 126.594 166.191 126.435 172.941C126.275 179.691 125.797 186.122 125.372 191.969C125.159 194.892 125 197.709 124.734 200.26C124.468 202.812 124.096 205.203 123.724 207.383C122.98 211.741 122.183 215.249 121.651 217.641C121.067 220.139 120.801 221.467 120.96 221.521Z" fill="#9AB6DB"/>
</g>
<g clip-path="url(#clip0_4437_16402)">
<path d="M115 90H112.5V85C112.5 78.1 106.9 72.5 100 72.5C93.1 72.5 87.5 78.1 87.5 85V90H85C82.25 90 80 92.25 80 95V120C80 122.75 82.25 125 85 125H115C117.75 125 120 122.75 120 120V95C120 92.25 117.75 90 115 90ZM100 112.5C97.25 112.5 95 110.25 95 107.5C95 104.75 97.25 102.5 100 102.5C102.75 102.5 105 104.75 105 107.5C105 110.25 102.75 112.5 100 112.5ZM107.75 90H92.25V85C92.25 80.725 95.725 77.25 100 77.25C104.275 77.25 107.75 80.725 107.75 85V90Z" fill="#3D3D3D"/>
</g>
<defs>
<clipPath id="clip0_4437_16402">
<rect width="60" height="60" fill="white" transform="translate(70 70)"/>
</clipPath>
</defs>
</svg>
