<svg width="205" height="143" viewBox="0 0 205 143" fill="none" xmlns="http://www.w3.org/2000/svg">
<path d="M107.842 22.3792L27.7224 40.6809V124.698L107.842 106.396V22.3792Z" fill="#F0CD94"/>
<path d="M107.842 22.3792L187.961 40.6809V124.698L107.842 106.396V22.3792Z" fill="#DCB080"/>
<path d="M187.96 40.681L107.84 22.3793L119.611 0L200.016 19.1551L187.96 40.681Z" fill="#F3D7A9"/>
<path d="M27.7205 40.681L107.84 22.3793L96.0687 0L15.6646 19.1551L27.7205 40.681Z" fill="#F3D7A9"/>
<path d="M107.845 143L187.965 124.699V40.6816L107.845 59.0782V143Z" fill="#F0CD94"/>
<path d="M107.844 143L27.7244 124.699V40.6816L107.844 59.0782V143Z" fill="#DCB080"/>
<path d="M107.844 58.8884L187.963 40.6816L204.766 24.4661L124.646 44.6643L107.844 58.8884Z" fill="#F9EBD4"/>
<path d="M83.9218 76.1471L27.7244 61.7333V40.6816L107.844 59.0782L83.9218 76.1471Z" fill="#CB915E"/>
<path d="M107.844 58.8885L27.7244 40.6816L0.479973 51.9661L80.5044 72.1644L107.844 58.8885Z" fill="#F3D7A9"/>
<path d="M107.844 62.3022V140.061" stroke="#F3D7A9" stroke-width="2" stroke-miterlimit="10" stroke-linecap="round" stroke-linejoin="round"/>
<path d="M78.388 94.6382C75.6617 94.6382 73.4517 92.4305 73.4517 89.7071C73.4517 86.9838 75.6617 84.7761 78.388 84.7761C81.1142 84.7761 83.3242 86.9838 83.3242 89.7071C83.3242 92.4305 81.1142 94.6382 78.388 94.6382Z" fill="#5F4C42"/>
<path d="M44.024 83.1642C44.024 85.8193 46.2073 88.0952 48.9602 88.0952C51.6182 88.0952 53.8965 85.9142 53.8965 83.1642C53.8965 80.509 51.7131 78.2332 48.9602 78.2332C46.2073 78.328 44.024 80.509 44.024 83.1642Z" fill="#5F4C42"/>
<path d="M71.0586 106.776C71.0586 106.776 70.1556 109.874 58.0997 106.935C46.5184 104.09 47.62 104.057 47.62 104.057" stroke="#5F4C42" stroke-width="3" stroke-miterlimit="10" stroke-linecap="round"/>
</svg>
