<svg width="292" height="152" viewBox="0 0 292 152" fill="none" xmlns="http://www.w3.org/2000/svg">
<path d="M291.649 88.0158C290.271 62.9606 285.795 34.3204 270.424 23.0819C264.915 19.0537 258.579 17.8453 252.409 16.7576C180.638 4.12937 121.577 -4.1209 49.406 2.14287C38.4565 3.10963 24.4415 4.37299 14.9243 12.3689C5.40721 20.3648 -1.71341 36.6989 0.986143 52.2879C3.89233 69.0652 10.9422 77.614 22.3188 82.4477C33.6953 87.2815 40.9794 90.5736 48.6097 103.826C54.8076 114.541 51.0025 133.805 45.88 151.948C57.7827 144.573 77.9284 122.718 89.8488 107.027C94.2149 104.852 98.9804 105.235 103.622 105.617C161.493 110.274 212.15 116.633 269.612 105.558C274.859 104.531 280.314 103.363 284.762 99.1939C289.211 95.0247 292.585 87.0087 291.222 79.476" fill="#806049"/>
</svg>
