<svg width="122" height="120" viewBox="0 0 122 120" fill="none" xmlns="http://www.w3.org/2000/svg">
<path d="M73.5269 95.9338C74.3534 92.0754 82.0799 83.6737 92.6453 81.3659C95.5203 80.7529 101.234 82.0871 103.606 78.4812C105.834 75.0916 105.583 71.8463 108.314 72.7117C110.075 73.2887 114.854 78.8778 108.709 85.0079C107.38 86.306 105.223 87.9287 104.397 90.4889C109.176 93.2293 115.178 99.3954 112.95 103.11C107.811 111.692 96.8859 107.869 87.6501 111.728C86.2126 112.341 80.3549 111.944 78.8455 111.619C76.869 111.187 75.5393 109.348 74.6769 107.473C73.1316 103.903 72.7003 99.7921 73.5269 95.9338Z" fill="url(#paint0_radial_4207_6937)"/>
<path d="M75.791 101.883C78.3785 99.0709 79.6722 95.5731 80.6425 91.9312C81.9003 90.4527 83.4456 89.1907 85.0268 88.2171C88.1174 86.2699 91.4595 85.9814 95.0173 85.4766C98.5032 85.0078 101.773 84.0703 104.577 81.8707C107.236 79.7793 109.033 77.0388 109.787 73.7935C111.656 75.8128 113.489 80.248 108.709 85.0078C107.38 86.3059 105.223 87.9286 104.397 90.4888C109.176 93.2293 115.178 99.3954 112.95 103.109C107.811 111.692 96.886 107.869 87.6502 111.728C86.2127 112.341 80.355 111.944 78.8456 111.619C77.0129 111.223 75.7551 109.6 74.8926 107.905C75.6832 105.958 75.7191 103.939 75.791 101.883Z" fill="#F3C2A3"/>
<path d="M48.5153 95.9338C47.6887 92.0754 39.9623 83.6737 29.3968 81.3659C26.5218 80.7529 20.8079 82.0871 18.436 78.4812C16.2079 75.0916 16.4595 71.8463 13.7283 72.7117C11.9674 73.2887 7.18775 78.8778 13.333 85.0079C14.6626 86.306 16.8189 87.9287 17.6454 90.4889C12.8658 93.2293 6.86432 99.3954 9.09241 103.11C14.2314 111.692 25.1562 107.869 34.3561 111.728C35.7936 112.341 41.6513 111.944 43.1607 111.619C45.1372 111.187 46.4669 109.348 47.3294 107.473C48.9465 103.903 49.3778 99.7921 48.5153 95.9338Z" fill="url(#paint1_radial_4207_6937)"/>
<path d="M46.2512 101.883C43.6638 99.0709 42.3701 95.5731 41.3998 91.9312C40.142 90.4527 38.5967 89.1907 37.0154 88.2171C33.9249 86.2699 30.5827 85.9814 27.025 85.4766C23.5391 85.0078 20.2688 84.0703 17.4657 81.8707C14.8064 79.7793 13.0095 77.0388 12.2549 73.7935C10.3861 75.8128 8.55336 80.248 13.333 85.0078C14.6626 86.3059 16.8189 87.9286 17.6454 90.4888C12.8658 93.2293 6.86432 99.3954 9.09241 103.109C14.2314 111.692 25.1562 107.869 34.3561 111.728C35.7936 112.341 41.6513 111.944 43.1607 111.619C44.9935 111.223 46.2512 109.6 47.1137 107.905C46.395 105.958 46.3591 103.939 46.2512 101.883Z" fill="#F3C2A3"/>
<path d="M92.9335 34.3088H28.5344L19.2627 39.934H102.241L92.9335 34.3088Z" fill="url(#paint2_linear_4207_6937)"/>
<path d="M98.863 25.1498H22.6406L28.5343 34.453H92.9334L98.863 25.1498Z" fill="url(#paint3_linear_4207_6937)"/>
<path d="M16.1716 27.2776L0 32.0374L19.2622 39.9343L28.534 34.3091L16.1716 27.2776Z" fill="url(#paint4_linear_4207_6937)"/>
<path d="M105.331 27.2776L121.467 32.0374L102.24 39.9343L92.9326 34.3091L105.331 27.2776Z" fill="url(#paint5_linear_4207_6937)"/>
<path d="M83.5179 13.1423C79.7805 2.93758 65.4057 4.05541 61.2011 14.7289C57.0324 4.05541 42.6216 2.93758 38.8842 13.1423C32.6671 30.1261 61.2011 44.2252 61.2011 44.2252C61.2011 44.2252 89.735 30.1261 83.5179 13.1423Z" fill="url(#paint6_radial_4207_6937)"/>
<path opacity="0.2" d="M59.7995 36.9412C48.5512 33.3713 38.0217 25.1499 38.8842 13.1422C32.6671 30.126 61.2011 44.2251 61.2011 44.2251C61.2011 44.2251 65.7291 41.9895 70.7962 38.2033C67.9572 38.3475 62.5307 37.8066 59.7995 36.9412Z" fill="url(#paint7_radial_4207_6937)"/>
<path d="M102.241 39.9343H19.2627V104.3H102.241V39.9343Z" fill="url(#paint8_linear_4207_6937)"/>
<path d="M28.5344 39.9343H19.2627V104.3H28.5344V39.9343Z" fill="#DEC49E"/>
<path d="M102.205 39.9344H92.9336V104.3H102.205V39.9344Z" fill="#DEC49E"/>
<path d="M11.8596 109.312C8.4815 107.797 7.83463 104.155 8.22994 101.199C8.58931 98.5663 10.1346 95.357 11.3565 93.518C14.9502 88.1452 18.9392 88.7582 19.2985 92.9411C19.586 96.2585 17.9689 99.4317 17.2501 103.47C16.3876 108.158 15.8486 111.115 11.8596 109.312Z" fill="url(#paint9_radial_4207_6937)"/>
<path d="M13.2611 105.237C12.3627 103.867 11.5361 102.1 11.033 100.513C10.5658 98.9629 10.2783 97.3042 10.1346 95.6454C9.27211 97.3402 8.4815 99.3956 8.22994 101.199C7.83463 104.155 8.4815 107.797 11.8596 109.312C14.0877 110.321 15.2377 109.817 15.9923 108.374C14.9861 107.473 14.0877 106.499 13.2611 105.237Z" fill="#F3C2A3"/>
<path d="M13.5489 94.708C12.0396 93.2296 13.3333 91.8593 14.3396 90.9939C16.6036 88.9746 18.7598 90.8136 18.3645 93.7704C18.1129 95.8619 16.352 97.4485 13.5489 94.708Z" fill="#F4E8DA"/>
<path d="M21.2755 112.557C17.574 111.187 16.6397 107.365 16.8553 104.191C17.0709 101.343 18.4724 97.8451 19.6584 95.7897C23.0724 89.84 27.3489 90.2005 28.0317 94.5997C28.5707 98.0975 27.0614 101.595 26.5942 105.958C26.0192 110.971 25.6598 114.18 21.2755 112.557Z" fill="url(#paint10_radial_4207_6937)"/>
<path d="M22.4978 108.086C21.4197 106.679 20.4135 104.876 19.8025 103.218C19.1916 101.595 18.7604 99.8641 18.5088 98.1333C17.7182 100.008 17.0354 102.244 16.8916 104.191C16.676 107.364 17.6463 111.187 21.3119 112.557C23.7556 113.458 24.9415 112.845 25.6243 111.259C24.5103 110.357 23.4681 109.348 22.4978 108.086Z" fill="#F3C2A3"/>
<path d="M22.0665 96.8715C20.3415 95.3931 21.6712 93.8786 22.6415 92.8689C24.9055 90.5611 27.3492 92.3641 27.1336 95.5373C26.9898 97.809 25.2649 99.5759 22.0665 96.8715Z" fill="#F4E8DA"/>
<path d="M30.0435 114.612C26.4498 114.252 26.2342 112.124 25.767 109.42C25.3358 107.004 25.9826 103.29 26.5936 101.307C28.3545 95.5732 32.8106 95.1765 34.1763 98.7824C35.1106 101.234 34.5716 103.939 34.7153 108.266C34.8591 112.665 34.32 115.009 30.0435 114.612Z" fill="url(#paint11_radial_4207_6937)"/>
<path d="M26.594 106.138C26.3065 105.201 26.1628 104.119 26.1268 102.965C25.6956 104.985 25.4081 107.545 25.7315 109.384C26.2346 112.088 26.4143 114.252 30.008 114.576C33.7095 114.937 34.608 113.206 34.7158 109.889C31.5893 111.583 27.6362 109.636 26.594 106.138Z" fill="#F3C2A3"/>
<path d="M29.2175 101.775C27.3488 100.91 28.1753 99.3592 28.8581 98.3135C30.3675 95.8976 32.955 96.8711 33.4581 99.5756C33.8174 101.487 32.6675 103.362 29.2175 101.775Z" fill="#F4E8DA"/>
<path d="M36.5128 113.314C35.1831 112.413 34.2488 110.358 34.1409 108.302C33.8894 102.28 37.9862 100.441 40.4659 103.398C42.1549 105.381 43.4127 109.889 43.1252 110.682C41.8674 114.144 38.4174 114.576 36.5128 113.314Z" fill="url(#paint12_radial_4207_6937)"/>
<path d="M34.1406 107.545C34.1406 107.797 34.1406 108.05 34.1406 108.302C34.2125 110.357 35.1828 112.449 36.5125 113.314C38.3453 114.54 41.6155 114.18 42.9811 111.007C39.7109 111.367 35.9375 110.033 34.1406 107.545Z" fill="#F3C2A3"/>
<path d="M36.8004 107.833C34.752 107.653 35.0395 105.886 35.2911 104.696C35.9379 101.92 38.6691 101.956 40.0707 104.336C41.041 106.03 40.5738 108.194 36.8004 107.833Z" fill="#F4E8DA"/>
<path d="M110.218 109.312C113.596 107.797 114.243 104.156 113.848 101.199C113.488 98.5664 111.943 95.3571 110.721 93.5181C107.127 88.1453 103.138 88.7583 102.779 92.9411C102.491 96.2586 104.109 99.4318 104.827 103.47C105.69 108.158 106.229 111.115 110.218 109.312Z" fill="url(#paint13_radial_4207_6937)"/>
<path d="M108.816 105.237C109.715 103.867 110.541 102.1 111.044 100.513C111.511 98.9629 111.799 97.3042 111.943 95.6455C112.805 97.3403 113.596 99.3956 113.847 101.199C114.243 104.155 113.596 107.797 110.218 109.312C107.99 110.322 106.84 109.817 106.085 108.374C107.091 107.473 107.99 106.499 108.816 105.237Z" fill="#F3C2A3"/>
<path d="M108.493 94.708C110.002 93.2296 108.708 91.8594 107.702 90.994C105.438 88.9746 103.282 90.8137 103.677 93.7705C103.965 95.8619 105.689 97.4485 108.493 94.708Z" fill="#F4E8DA"/>
<path d="M100.767 112.557C104.469 111.187 105.403 107.365 105.188 104.191C104.972 101.343 103.57 97.8451 102.385 95.7897C98.9705 89.84 94.694 90.2005 94.0112 94.5997C93.4722 98.0975 94.9815 101.595 95.4487 105.958C96.0237 110.971 96.419 114.18 100.767 112.557Z" fill="url(#paint14_radial_4207_6937)"/>
<path d="M99.5816 108.086C100.66 106.679 101.666 104.876 102.277 103.218C102.888 101.595 103.319 99.8641 103.571 98.1333C104.361 100.008 105.044 102.244 105.188 104.191C105.403 107.364 104.433 111.187 100.768 112.557C98.3238 113.458 97.1379 112.845 96.4551 111.259C97.5691 110.357 98.6113 109.348 99.5816 108.086Z" fill="#F3C2A3"/>
<path d="M100.013 96.8715C101.738 95.3931 100.408 93.8786 99.438 92.8689C97.174 90.5611 94.7303 92.3641 94.9459 95.5373C95.0897 97.809 96.8146 99.5759 100.013 96.8715Z" fill="#F4E8DA"/>
<path d="M92.0341 114.612C95.6278 114.252 95.8434 112.124 96.3106 109.42C96.7419 107.004 96.095 103.29 95.4841 101.307C93.7232 95.5732 89.267 95.1765 87.9014 98.7824C86.967 101.234 87.5061 103.939 87.3623 108.266C87.1826 112.665 87.7576 115.009 92.0341 114.612Z" fill="url(#paint15_radial_4207_6937)"/>
<path d="M95.4479 106.138C95.7354 105.201 95.8792 104.119 95.9151 102.965C96.3464 104.985 96.6338 107.545 96.3104 109.384C95.8073 112.088 95.6276 114.252 92.0339 114.576C88.3324 114.937 87.434 113.206 87.3262 109.889C90.4886 111.583 94.4058 109.636 95.4479 106.138Z" fill="#F3C2A3"/>
<path d="M92.8601 101.775C94.7288 100.91 93.9023 99.3592 93.2195 98.3135C91.7101 95.8976 89.1227 96.8711 88.6195 99.5756C88.2602 101.487 89.4101 103.362 92.8601 101.775Z" fill="#F4E8DA"/>
<path d="M85.5656 113.314C86.8952 112.413 87.8296 110.358 87.9374 108.302C88.189 102.28 84.0922 100.441 81.6125 103.398C79.9235 105.381 78.6657 109.889 78.9532 110.682C80.211 114.144 83.6609 114.576 85.5656 113.314Z" fill="url(#paint16_radial_4207_6937)"/>
<path d="M87.901 107.545C87.901 107.797 87.901 108.05 87.901 108.302C87.8292 110.357 86.8589 112.449 85.5292 113.314C83.6964 114.54 80.4262 114.18 79.0605 111.007C82.3667 111.367 86.1401 110.033 87.901 107.545Z" fill="#F3C2A3"/>
<path d="M85.2776 107.833C87.326 107.653 87.0385 105.886 86.787 104.696C86.1401 101.92 83.4089 101.956 82.0074 104.336C81.0371 106.03 81.5042 108.194 85.2776 107.833Z" fill="#F4E8DA"/>
<g clip-path="url(#clip0_4207_6937)">
<path d="M60.7332 62.1465V66.744L66.8425 60.614L60.7332 54.4839V59.0815C53.9825 59.0815 48.5146 64.5679 48.5146 71.3416C48.5146 73.7476 49.2172 75.9851 50.4085 77.8701L52.6384 75.6326C51.9511 74.3606 51.5693 72.8894 51.5693 71.3416C51.5693 66.269 55.6778 62.1465 60.7332 62.1465ZM71.0579 64.8131L68.828 67.0505C69.5 68.3378 69.8972 69.7937 69.8972 71.3416C69.8972 76.4142 65.7887 80.5366 60.7332 80.5366V75.9391L54.6239 82.0691L60.7332 88.1992V83.6016C67.484 83.6016 72.9518 78.1153 72.9518 71.3416C72.9518 68.9355 72.2492 66.6981 71.0579 64.8131Z" fill="white"/>
</g>
<defs>
<radialGradient id="paint0_radial_4207_6937" cx="0" cy="0" r="1" gradientUnits="userSpaceOnUse" gradientTransform="translate(93.2941 92.3166) rotate(180) scale(19.92 19.9876)">
<stop stop-color="#FBD7BC"/>
<stop offset="0.4081" stop-color="#FAD4B9"/>
<stop offset="0.7689" stop-color="#F9CCB0"/>
<stop offset="1" stop-color="#F8C3A8"/>
</radialGradient>
<radialGradient id="paint1_radial_4207_6937" cx="0" cy="0" r="1" gradientUnits="userSpaceOnUse" gradientTransform="translate(28.7762 92.3166) scale(19.92 19.9876)">
<stop stop-color="#FBD7BC"/>
<stop offset="0.4081" stop-color="#FAD4B9"/>
<stop offset="0.7689" stop-color="#F9CCB0"/>
<stop offset="1" stop-color="#F8C3A8"/>
</radialGradient>
<linearGradient id="paint2_linear_4207_6937" x1="60.8577" y1="42.4335" x2="59.999" y2="24.6042" gradientUnits="userSpaceOnUse">
<stop stop-color="#BE956C"/>
<stop offset="0.3344" stop-color="#C29B6F"/>
<stop offset="0.7806" stop-color="#CFAB77"/>
<stop offset="1" stop-color="#D8B57C"/>
</linearGradient>
<linearGradient id="paint3_linear_4207_6937" x1="61.1883" y1="44.0286" x2="59.5437" y2="27.0186" gradientUnits="userSpaceOnUse">
<stop stop-color="#C89E71"/>
<stop offset="0.2749" stop-color="#D3AC78"/>
<stop offset="0.6653" stop-color="#DEB97F"/>
<stop offset="1" stop-color="#E2BE82"/>
</linearGradient>
<linearGradient id="paint4_linear_4207_6937" x1="14.6347" y1="40.8613" x2="13.978" y2="27.2268" gradientUnits="userSpaceOnUse">
<stop stop-color="#C89E71"/>
<stop offset="1" stop-color="#E2BE82"/>
</linearGradient>
<linearGradient id="paint5_linear_4207_6937" x1="88.7273" y1="53.3506" x2="108.775" y2="31.6179" gradientUnits="userSpaceOnUse">
<stop stop-color="#C89E71"/>
<stop offset="1" stop-color="#E2BE82"/>
</linearGradient>
<radialGradient id="paint6_radial_4207_6937" cx="0" cy="0" r="1" gradientUnits="userSpaceOnUse" gradientTransform="translate(68.3603 12.989) scale(36.3588 30.6524)">
<stop offset="1" stop-color="#E75477"/>
</radialGradient>
<radialGradient id="paint7_radial_4207_6937" cx="0" cy="0" r="1" gradientUnits="userSpaceOnUse" gradientTransform="translate(68.3602 17.0313) scale(31.6855 26.7126)">
<stop stop-color="#ED99B0"/>
<stop offset="0.198" stop-color="#EC8AA2"/>
<stop offset="0.7261" stop-color="#E86482"/>
<stop offset="1" stop-color="#E75477"/>
</radialGradient>
<linearGradient id="paint8_linear_4207_6937" x1="40.9042" y1="114.612" x2="78.9101" y2="33.7659" gradientUnits="userSpaceOnUse">
<stop stop-color="#C89E71"/>
<stop offset="1" stop-color="#E2BE82"/>
</linearGradient>
<radialGradient id="paint9_radial_4207_6937" cx="0" cy="0" r="1" gradientUnits="userSpaceOnUse" gradientTransform="translate(18.6304 95.7899) rotate(-64.4633) scale(13.8341 9.11997)">
<stop stop-color="#FBD7BC"/>
<stop offset="0.4081" stop-color="#FAD4B9"/>
<stop offset="0.7689" stop-color="#F9CCB0"/>
<stop offset="1" stop-color="#F8C3A8"/>
</radialGradient>
<radialGradient id="paint10_radial_4207_6937" cx="0" cy="0" r="1" gradientUnits="userSpaceOnUse" gradientTransform="translate(27.5285 97.6709) rotate(-68.2929) scale(14.7391 9.714)">
<stop stop-color="#FBD7BC"/>
<stop offset="0.4081" stop-color="#FAD4B9"/>
<stop offset="0.7689" stop-color="#F9CCB0"/>
<stop offset="1" stop-color="#F8C3A8"/>
</radialGradient>
<radialGradient id="paint11_radial_4207_6937" cx="0" cy="0" r="1" gradientUnits="userSpaceOnUse" gradientTransform="translate(33.5479 101.001) rotate(-81.4994) scale(11.9475 8.32746)">
<stop stop-color="#FBD7BC"/>
<stop offset="0.4081" stop-color="#FAD4B9"/>
<stop offset="0.7689" stop-color="#F9CCB0"/>
<stop offset="1" stop-color="#F8C3A8"/>
</radialGradient>
<radialGradient id="paint12_radial_4207_6937" cx="0" cy="0" r="1" gradientUnits="userSpaceOnUse" gradientTransform="translate(39.309 104.396) rotate(-100.903) scale(8.70905 6.07129)">
<stop stop-color="#FBD7BC"/>
<stop offset="0.4081" stop-color="#FAD4B9"/>
<stop offset="0.7689" stop-color="#F9CCB0"/>
<stop offset="1" stop-color="#F8C3A8"/>
</radialGradient>
<radialGradient id="paint13_radial_4207_6937" cx="0" cy="0" r="1" gradientUnits="userSpaceOnUse" gradientTransform="translate(103.442 95.788) rotate(-115.537) scale(13.8341 9.11997)">
<stop stop-color="#FBD7BC"/>
<stop offset="0.4081" stop-color="#FAD4B9"/>
<stop offset="0.7689" stop-color="#F9CCB0"/>
<stop offset="1" stop-color="#F8C3A8"/>
</radialGradient>
<radialGradient id="paint14_radial_4207_6937" cx="0" cy="0" r="1" gradientUnits="userSpaceOnUse" gradientTransform="translate(94.5379 97.6702) rotate(-111.707) scale(14.7391 9.714)">
<stop stop-color="#FBD7BC"/>
<stop offset="0.4081" stop-color="#FAD4B9"/>
<stop offset="0.7689" stop-color="#F9CCB0"/>
<stop offset="1" stop-color="#F8C3A8"/>
</radialGradient>
<radialGradient id="paint15_radial_4207_6937" cx="0" cy="0" r="1" gradientUnits="userSpaceOnUse" gradientTransform="translate(88.5155 100.999) rotate(-98.5006) scale(11.9475 8.32746)">
<stop stop-color="#FBD7BC"/>
<stop offset="0.4081" stop-color="#FAD4B9"/>
<stop offset="0.7689" stop-color="#F9CCB0"/>
<stop offset="1" stop-color="#F8C3A8"/>
</radialGradient>
<radialGradient id="paint16_radial_4207_6937" cx="0" cy="0" r="1" gradientUnits="userSpaceOnUse" gradientTransform="translate(82.7647 104.395) rotate(-79.0973) scale(8.70902 6.07127)">
<stop stop-color="#FBD7BC"/>
<stop offset="0.4081" stop-color="#FAD4B9"/>
<stop offset="0.7689" stop-color="#F9CCB0"/>
<stop offset="1" stop-color="#F8C3A8"/>
</radialGradient>
<clipPath id="clip0_4207_6937">
<rect width="36.6557" height="36.7802" fill="white" transform="translate(42.4053 52.9514)"/>
</clipPath>
</defs>
</svg>
