<svg width="122" height="120" viewBox="0 0 122 120" fill="none" xmlns="http://www.w3.org/2000/svg">
<path d="M94.7188 39.7822L106.091 12.9027C106.643 11.6106 105.216 10.3723 104.018 11.0856L95.4052 16.2004L91.3005 9.43007C88.878 5.47286 84.5714 3.05008 79.9284 3.05008H47.8039C43.1339 3.05008 38.8004 5.48632 36.3645 9.48391L25.1539 27.9509C24.4003 29.1892 24.804 30.8179 26.0556 31.5716L45.1123 42.8914C46.3504 43.6317 47.9385 43.2279 48.6921 42.003L63.8325 17.0753L71.8266 30.2256L62.2579 35.8922C61.0332 36.6191 61.4773 38.49 62.9039 38.5842L93.2923 40.657C93.8979 40.6974 94.4766 40.3475 94.7188 39.7822Z" fill="#86B459"/>
<path d="M55.6235 79.9869L26.4598 79.7446L33.6599 66.1501L43.4439 71.4533C44.6955 72.1263 46.0683 70.7938 45.4223 69.5285L31.6412 42.3664C31.3586 41.8146 30.7664 41.505 30.1473 41.5858L1.2528 45.5834C-0.133388 45.7718 -0.46984 47.6293 0.754847 48.2888L9.55644 53.0671L5.85546 60.0662C3.67525 64.1715 3.80983 69.1113 6.17846 73.0954L22.6243 100.688C25.0198 104.699 29.3264 107.176 34.0098 107.216L55.61 107.391C57.0635 107.405 58.2478 106.22 58.2478 104.767L58.2209 82.5981C58.2209 81.1579 57.0635 80.0003 55.6235 79.9869Z" fill="#86B459"/>
<path d="M119.967 59.9317L110.048 40.7514C109.375 39.4592 107.787 38.9612 106.495 39.6342L86.9004 50.0252C85.6218 50.6982 85.1373 52.273 85.7968 53.5517L99.201 79.462L83.8184 79.4351L83.953 68.3038C83.9665 66.877 82.1362 66.2848 81.3152 67.4558L63.7255 92.3162C63.3621 92.8277 63.3756 93.5007 63.7255 93.9987L80.75 117.702C81.5709 118.832 83.3609 118.267 83.3743 116.867L83.4955 106.839L91.4088 106.853C96.0519 106.866 100.372 104.444 102.781 100.486L119.469 73.1224C119.482 73.0955 119.496 73.082 119.509 73.0551C121.945 69.0575 122.12 64.0908 119.967 59.9317Z" fill="#86B459"/>
<path d="M63.8332 17.062L48.6929 41.9897C47.9527 43.2146 46.3512 43.6183 45.113 42.8781L26.0429 31.5583C24.7913 30.818 24.3876 29.1893 25.1412 27.9376L36.3518 9.47058C38.7743 5.47299 43.1078 3.03674 47.7912 3.03674C50.1329 3.03674 52.3804 3.64244 54.3588 4.75961C56.3371 5.87678 58.0194 7.47851 59.2306 9.47058L63.8332 17.062Z" fill="#719E40"/>
<path d="M58.2615 104.78C58.2615 106.234 57.0772 107.418 55.6238 107.405L34.0235 107.23C29.3535 107.189 25.0335 104.713 22.638 100.702C22.2611 100.069 21.9516 99.423 21.6824 98.7635C21.1037 97.3098 20.7942 95.7484 20.7538 94.1871C20.6865 91.8182 21.3325 89.705 22.315 87.5783L26.4601 79.7446L55.6238 79.9869C57.0638 80.0004 58.2212 81.1714 58.2212 82.5981L58.2615 104.78Z" fill="#719E40"/>
<path d="M119.509 73.055C119.496 73.0685 119.482 73.0954 119.469 73.1223C118.904 74.0376 118.244 74.8586 117.504 75.5989C115.001 78.0756 111.569 79.4888 108.057 79.4754L99.1876 79.4619L85.7834 53.5516C85.1239 52.2729 85.6084 50.6981 86.8869 50.0251L106.482 39.6475C107.774 38.9611 109.362 39.4591 110.035 40.7647L119.953 59.9451C122.12 64.0907 121.945 69.0574 119.509 73.055Z" fill="#719E40"/>
</svg>
