<svg width="120" height="122" viewBox="0 0 120 122" fill="none" xmlns="http://www.w3.org/2000/svg">
<path d="M89.7907 9.40132C89.14 9.20326 87.0745 8.35443 87.2443 7.47731C87.4423 6.51531 88.7721 6.68507 89.4795 6.79825C89.3097 6.14748 88.5458 5.01572 89.1683 4.33665C89.819 3.65759 90.9508 4.39324 91.4884 4.76107C91.3752 3.96883 90.9508 2.69559 91.3752 1.93165C91.9128 0.941351 93.0729 1.95994 93.6387 2.44094C93.8934 1.73359 93.8651 0.573526 94.7705 0.318879C95.6193 0.0642307 95.874 0.856468 96.2135 1.45065C96.4965 0.743291 97.3453 0.290584 98.0526 0.46035C98.9298 0.714997 98.958 1.70529 98.9015 2.44094C99.6088 2.01653 100.769 1.677 101.448 2.38436C102.07 3.06342 101.448 3.96883 100.995 4.53471C102.948 4.33665 103.711 6.82654 101.618 7.16607C103.627 8.0432 103.004 10.3916 100.825 10.1087C102.495 11.0141 101.703 12.8815 99.9766 12.1459C100.288 13.0796 100.543 14.3811 99.0429 14.1547C98.3073 14.0982 97.7414 13.3625 97.2321 12.9381L89.7907 9.40132Z" fill="#3BBDE5"/>
<path d="M99.3539 29.2354C99.3539 29.2354 105.409 15.1732 94.7703 9.62754C83.3677 5.89271 77.5674 20.0681 77.5674 20.0681L99.3539 29.2354Z" fill="#007A9B"/>
<path d="M90.9508 9.88231C89.3097 9.79743 86.8198 11.297 88.6024 12.9664C88.8853 13.2493 89.5078 13.3059 89.6493 12.8249C89.8756 11.9761 88.9985 11.778 88.3477 11.778C86.5935 11.7214 84.3299 13.1361 85.6032 15.0602C86.5652 16.4749 87.8101 14.8338 86.6218 14.2113C85.1222 13.4474 82.7455 14.0416 82.4059 15.8807C82.123 17.4369 84.8392 17.7481 84.4714 16.7861C83.7358 14.8904 80.8498 16.5032 80.2839 17.7481C79.5482 19.2477 82.2645 20.6341 82.4342 19.2477C82.604 17.9179 80.3971 18.6252 79.9443 18.993C79.0955 19.6721 78.4448 21.0302 79.3785 21.9073C79.6331 22.1337 79.9443 21.7093 79.718 21.4829C79.0389 20.8605 79.8029 19.8985 80.2839 19.4175C80.5668 19.1345 80.9346 19.0496 81.3308 18.9648C80.5102 19.1062 80.7366 17.9462 80.9912 17.55C81.4156 16.8993 82.2362 16.6163 82.9718 16.5032C83.1982 16.588 83.4245 16.7012 83.6509 16.7861C83.0284 16.588 82.8869 16.0787 83.2265 15.2865C83.4811 14.8904 83.9621 14.664 84.3865 14.4943C85.0373 14.2113 85.6315 14.2962 86.254 14.5509C86.2257 14.664 86.2257 14.7772 86.1974 14.8904C86.0559 14.6923 85.9427 14.4943 85.8578 14.2396C85.5466 13.4757 86.1408 12.9098 86.8198 12.542C87.414 12.2307 88.178 12.2024 88.8287 12.259C88.8853 12.3156 88.9136 12.4005 88.9702 12.4571C88.376 11.9761 88.4326 11.4102 89.14 10.7311C89.621 10.335 90.3283 10.2784 90.9225 10.3067C91.2054 10.4482 91.2903 9.91061 90.9508 9.88231Z" fill="#0096B9"/>
<path d="M96.864 12.938C97.5997 13.6171 98.59 15.9089 96.6942 15.824C97.2884 15.8523 97.7128 16.5031 97.9958 17.0407C98.7031 18.3139 98.1655 19.2476 96.9206 19.474C96.9772 19.3891 97.0621 19.2759 97.1187 19.191C97.3167 19.2759 97.4865 19.3608 97.6562 19.474C97.8826 19.6154 98.0524 19.8135 98.2221 20.0115C98.8163 20.7755 99.071 23.2937 97.345 22.6146C98.2787 22.9824 98.59 23.5766 98.7031 24.5669C98.7597 25.1611 98.5334 25.7836 97.8826 25.9816C97.7411 25.925 97.5997 25.8401 97.4582 25.7836C97.6562 26.0099 97.7977 26.2929 97.8543 26.6041C98.0241 27.3114 97.7411 28.7262 96.8074 28.6979C96.4679 28.6696 96.383 29.2072 96.7508 29.2355C98.6465 29.3203 98.7031 26.6324 97.9109 25.5006C97.6562 25.1328 96.7791 24.6801 96.4679 25.2743C96.0718 26.0099 97.0055 26.5192 97.6279 26.5758C99.6934 26.8022 99.4105 24.001 98.7031 22.8976C98.3353 22.3034 97.5148 21.4828 96.7791 22.0487C96.2415 22.4448 96.8074 22.9258 97.1752 23.1522C97.8543 23.5483 98.6465 23.2371 99.071 22.6429C99.5803 21.9356 99.2407 20.6623 98.8446 20.0115C98.3636 19.2193 96.0435 17.6631 96.0718 19.5588C96.0718 20.153 97.0055 20.0964 97.345 20.0115C98.2504 19.7569 99.0144 19.1627 98.8729 18.0875C98.7314 17.0689 98.2504 16.305 97.5148 15.5977C97.0621 15.1732 96.2981 14.9469 96.0152 15.6542C95.6474 16.5597 97.4016 16.5597 97.826 16.1918C98.9861 15.1166 98.2504 13.5322 97.2601 12.5985C96.9206 12.2589 96.6094 12.6833 96.864 12.938Z" fill="#0096B9"/>
<path d="M94.6295 10.7591C93.2714 10.7309 91.8284 12.3719 92.1113 13.73C92.4226 15.2862 94.7144 14.013 93.6392 13.3622C91.9699 12.3719 89.5649 14.5223 90.8098 16.2482C91.0644 16.616 91.8284 17.3234 92.3377 17.0405C92.8753 16.7575 93.0167 16.1633 92.5075 15.7955C90.923 14.6072 88.6594 17.2385 89.0839 18.7664C89.2819 19.5021 89.7063 20.266 90.5269 20.4641C91.0644 20.6055 91.5737 20.2094 91.3191 19.6152C91.0927 19.0776 90.0742 19.0493 89.6214 19.2191C88.518 19.6435 87.6974 20.4641 87.8955 21.709C88.0936 23.152 90.8381 23.6896 90.2439 22.19C89.5931 20.5206 85.2076 23.152 87.6692 25.1892C87.9238 25.4155 88.2633 24.9911 88.0087 24.7648C86.7071 23.6896 88.0653 22.2466 89.2253 22.3032C89.6497 22.671 89.5931 22.7559 89.1121 22.5295C87.8106 22.0485 88.5746 20.3509 89.4517 19.8982C89.7629 19.7567 90.0742 19.7001 90.3854 19.7284C90.1307 19.7284 90.0459 19.7001 89.7912 19.2757C89.1122 18.0873 89.9327 16.9556 90.9513 16.3614C91.2342 16.2199 91.5172 16.1633 91.8284 16.1916C91.6303 16.418 91.4323 16.3897 91.2908 16.0785C90.9796 15.6258 90.923 15.1165 91.1493 14.5789C91.3474 14.3525 91.5172 14.1262 91.7152 13.8998C92.8753 13.8432 93.1582 13.7017 92.564 13.4754C92.366 12.5417 93.6675 11.2684 94.5163 11.2684C94.9125 11.2967 94.969 10.7591 94.6295 10.7591Z" fill="#0096B9"/>
<path d="M77.5113 18.6251C76.8322 18.7666 73.7764 25.925 74.2291 26.4343C74.7101 26.9153 96.7513 36.2807 97.3738 36.1393C97.9963 36.0261 100.401 28.4432 100.062 28.1037C99.7505 27.7642 78.7562 18.3705 77.5113 18.6251Z" fill="#3BBDE5"/>
<path d="M75.1058 26.4061C74.9926 26.3495 74.9077 26.2363 74.9643 26.0948C75.9829 22.077 77.7371 19.4457 77.7937 19.3608C77.8786 19.2476 78.0484 19.2193 78.1615 19.2759C78.2747 19.3608 78.3313 19.5306 78.2464 19.6437C78.2181 19.672 76.4922 22.3034 75.4736 26.2363C75.4453 26.3778 75.3038 26.4626 75.1341 26.4343C75.1341 26.4343 75.1058 26.4343 75.1058 26.4061Z" fill="#7FCDEB"/>
<path d="M76.1243 26.8588C76.0112 26.8022 75.9263 26.6608 75.9829 26.5476C76.9732 22.8976 78.4727 20.3229 78.784 19.8419C78.8406 19.7287 78.9537 19.6721 79.0952 19.7004C79.2367 19.7287 79.3216 19.8702 79.2933 20.0116C79.2933 20.0399 79.265 20.0965 79.2367 20.1248C78.9537 20.6058 77.4542 23.124 76.4922 26.7173C76.4639 26.8588 76.2941 26.9437 76.1526 26.9154C76.1526 26.8588 76.1243 26.8588 76.1243 26.8588Z" fill="#7FCDEB"/>
<path d="M77.1712 27.2832C77.058 27.2266 76.9731 27.0851 77.0297 26.972C77.9634 23.6049 79.265 21.1716 79.8026 20.2662C79.8309 20.1248 79.9723 20.0399 80.1138 20.0682C80.2553 20.0965 80.3402 20.2662 80.3119 20.4077C80.3119 20.436 80.2836 20.4926 80.2553 20.5209C79.746 21.398 78.4727 23.7747 77.539 27.0851C77.5107 27.2266 77.341 27.3115 77.1995 27.2832C77.1712 27.2832 77.1712 27.2832 77.1712 27.2832Z" fill="#7FCDEB"/>
<path d="M78.1898 27.7074C78.0766 27.6508 77.9917 27.5094 78.0483 27.3962C79.0103 24.1141 80.2835 21.6242 80.7645 20.7188L80.7928 20.6622C80.8494 20.549 80.9626 20.4924 81.1041 20.5207C81.2455 20.549 81.3304 20.6905 81.3021 20.8319C81.3021 20.8602 81.2738 20.8885 81.2455 20.9734C80.7645 21.8788 79.5196 24.2838 78.5576 27.5377C78.5293 27.6791 78.3595 27.764 78.2181 27.7074C78.2181 27.7357 78.1898 27.7074 78.1898 27.7074Z" fill="#7FCDEB"/>
<path d="M79.2083 28.1602C79.0951 28.1036 79.0103 27.9621 79.0668 27.8206C79.7742 25.5005 80.7362 23.1521 81.7548 21.1715L81.8114 21.0866C81.8397 20.9452 81.9811 20.8886 82.1226 20.9169C82.2641 20.9452 82.349 21.1149 82.3207 21.2564C82.3207 21.2847 82.3207 21.313 82.2358 21.4262C81.2172 23.3785 80.2835 25.6986 79.5761 27.9621C79.5195 28.1319 79.3781 28.2168 79.2083 28.1602C79.2366 28.1602 79.2366 28.1602 79.2083 28.1602Z" fill="#7FCDEB"/>
<path d="M80.2552 28.5846C80.142 28.528 80.0571 28.3866 80.1137 28.2451C80.623 26.6606 81.5001 24.199 82.7734 21.6242C82.8017 21.5677 82.83 21.5111 82.83 21.5111C82.8583 21.3696 82.9997 21.313 83.1412 21.3413C83.2827 21.3696 83.3675 21.5394 83.3393 21.6808C83.3393 21.7091 83.3393 21.7374 83.2544 21.8789C81.9811 24.4254 81.1323 26.8304 80.623 28.4149C80.5664 28.5563 80.3967 28.6412 80.2552 28.5846Z" fill="#7FCDEB"/>
<path d="M81.2737 29.009C81.1606 28.9524 81.0757 28.8109 81.1323 28.6694C81.8679 26.4059 82.745 24.199 83.7636 22.1052C83.7919 22.0203 83.8202 21.9637 83.8485 21.9354C83.8768 21.7939 84.0183 21.7091 84.1597 21.7657C84.3012 21.7939 84.3861 21.9637 84.3578 22.1052C84.3578 22.1335 84.3295 22.1618 84.2446 22.3315C83.2543 24.397 82.3772 26.5757 81.6416 28.8392C81.585 28.9807 81.4435 29.0656 81.2737 29.009Z" fill="#7FCDEB"/>
<path d="M82.2921 29.4337C82.1506 29.3771 82.094 29.2356 82.1506 29.0941C82.9145 26.8872 83.7634 24.7085 84.7254 22.5865C84.7819 22.4733 84.8102 22.4167 84.8102 22.3884C84.8385 22.2469 84.98 22.1621 85.1215 22.1904C85.263 22.2187 85.3478 22.3884 85.3195 22.5299C85.3195 22.5582 85.2629 22.6431 85.2064 22.8128C84.2444 24.9066 83.3955 27.0853 82.6599 29.2639C82.6033 29.4337 82.4618 29.4903 82.2921 29.4337C82.3204 29.462 82.3204 29.462 82.2921 29.4337Z" fill="#7FCDEB"/>
<path d="M83.3389 29.8863C83.1975 29.8297 83.1409 29.6882 83.1975 29.5468C84.3292 26.3495 85.3761 23.9162 85.7156 23.124C85.7722 22.9542 85.8288 22.8693 85.8288 22.8411C85.8571 22.6996 85.9986 22.6147 86.1401 22.643C86.2815 22.6713 86.3664 22.8411 86.3381 22.9825C86.3381 23.0108 86.2815 23.124 86.1967 23.3503C85.8571 24.1426 84.8102 26.5476 83.6785 29.7448C83.6502 29.858 83.4804 29.9429 83.3389 29.8863Z" fill="#7FCDEB"/>
<path d="M84.3575 30.3107C84.216 30.2541 84.1594 30.1126 84.216 29.9712C85.3195 26.9437 86.2532 24.6518 86.6776 23.6898C86.7908 23.4352 86.8474 23.2937 86.8474 23.2654C86.904 23.124 87.0454 23.0391 87.1869 23.0957C87.3284 23.124 87.4133 23.2654 87.385 23.4069C87.385 23.4352 87.3567 23.4918 87.1869 23.9162C86.7908 24.8782 85.8571 27.17 84.7536 30.1692C84.6687 30.2824 84.5273 30.3673 84.3575 30.3107Z" fill="#7FCDEB"/>
<path d="M85.4053 30.7352C85.2639 30.6786 85.2073 30.5372 85.2639 30.3957C86.2825 27.7077 87.103 25.614 87.5557 24.4822C87.7538 24.0012 87.8669 23.7183 87.8669 23.6617C87.9235 23.5202 88.065 23.4353 88.2065 23.4919C88.3479 23.5202 88.4328 23.6617 88.4045 23.8031C88.4045 23.8597 88.3479 23.9446 88.065 24.6803C87.6123 25.812 86.7918 27.9058 85.7732 30.5938C85.6883 30.7352 85.5468 30.7918 85.4053 30.7352Z" fill="#7FCDEB"/>
<path d="M86.4239 31.1878C86.2824 31.1312 86.2258 30.9897 86.2824 30.8482C88.4611 25.2177 88.8572 24.2274 88.8855 24.1425C88.9138 24.001 89.0836 23.9162 89.225 23.9444C89.3665 23.9727 89.4514 24.1142 89.4231 24.2557C89.4231 24.3123 89.3665 24.4255 86.82 31.0463C86.7351 31.1595 86.5654 31.2444 86.4239 31.1878Z" fill="#7FCDEB"/>
<path d="M87.4425 31.6124C87.301 31.5558 87.2444 31.4143 87.301 31.2728C88.8855 27.3116 89.8192 24.7086 89.8758 24.5388C89.904 24.3973 90.0738 24.3125 90.187 24.3407C90.3285 24.369 90.4133 24.5105 90.385 24.652C90.3568 24.8217 89.3099 27.6512 87.782 31.4426C87.7537 31.5841 87.5839 31.6689 87.4425 31.6124Z" fill="#7FCDEB"/>
<path d="M88.4893 32.0368C88.3479 31.9802 88.2913 31.8387 88.3479 31.6973C89.9889 27.7644 90.866 25.1047 90.8943 24.9632C90.9226 24.8218 91.0641 24.7369 91.2056 24.7652C91.347 24.7935 91.4319 24.935 91.4036 25.0764C91.347 25.2745 90.4133 28.0756 88.8289 31.867C88.7723 32.0368 88.6308 32.0934 88.4893 32.0368Z" fill="#7FCDEB"/>
<path d="M89.5079 32.4609C89.3664 32.4043 89.3098 32.2345 89.3664 32.1213C90.9792 28.3299 91.8563 25.5854 91.8846 25.3873C91.9129 25.2458 92.0544 25.161 92.1958 25.1893C92.3373 25.2176 92.4222 25.359 92.3939 25.5005C92.3373 25.6703 91.4602 28.4714 89.8474 32.3194C89.7908 32.4609 89.6494 32.5175 89.5079 32.4609Z" fill="#7FCDEB"/>
<path d="M90.5548 32.9138C90.5265 32.9138 90.5265 32.9138 90.5548 32.9138C90.4133 32.8572 90.3567 32.6875 90.4133 32.5743C92.1675 28.5565 92.9315 25.8686 92.9315 25.8403C92.9598 25.6988 93.1012 25.6139 93.2427 25.6422C93.3842 25.6705 93.4691 25.812 93.4408 25.9534C93.4408 25.9817 92.6768 28.7263 90.8943 32.7723C90.8377 32.8855 90.6679 32.9704 90.5548 32.9138Z" fill="#7FCDEB"/>
<path d="M91.5733 33.338C91.4318 33.2815 91.3753 33.1117 91.4318 32.9702C93.2144 29.0373 93.9217 26.2645 93.9217 26.2362C93.95 26.0947 94.0915 26.0098 94.233 26.0381C94.3744 26.0664 94.4593 26.2079 94.431 26.3494C94.431 26.3777 93.6954 29.2071 91.9128 33.1966C91.8563 33.338 91.7148 33.3946 91.5733 33.338Z" fill="#7FCDEB"/>
<path d="M92.5919 33.7625C92.4504 33.7059 92.3938 33.5361 92.4504 33.3947C94.2046 29.6315 94.8554 26.9436 94.912 26.6606C94.9403 26.5192 95.0818 26.4343 95.2232 26.4626C95.3647 26.4909 95.4496 26.6323 95.4213 26.7738C95.3364 27.085 94.6856 29.8013 92.9031 33.621C92.8748 33.7625 92.7333 33.8191 92.5919 33.7625Z" fill="#7FCDEB"/>
<path d="M93.6387 34.1868C93.4973 34.1302 93.4407 33.9604 93.4973 33.8189C95.11 30.4236 95.7891 27.8206 95.9306 27.1132L96.1852 27.1415L96.4399 27.2264C96.2701 27.962 95.591 30.6217 93.95 34.0453C93.9217 34.1868 93.7519 34.2434 93.6387 34.1868Z" fill="#7FCDEB"/>
<path d="M94.6573 34.6395C94.5158 34.5546 94.4592 34.4131 94.5158 34.2717C96.1003 31.0461 96.7228 28.5279 96.9491 27.5942V27.5376C96.9774 27.3962 97.1189 27.3113 97.2604 27.3396C97.4018 27.3679 97.4867 27.5094 97.4584 27.6508V27.7074C97.2604 28.6694 96.6096 31.2442 94.9968 34.5263C94.9402 34.6395 94.7988 34.6961 94.6573 34.6395Z" fill="#7FCDEB"/>
<path d="M95.6759 35.064C95.5344 34.9791 95.4778 34.8377 95.5344 34.6962C96.6661 32.461 97.515 30.0842 97.9394 28.0471L97.9677 27.9339C97.996 27.7924 98.1374 27.7075 98.2789 27.7358C98.4204 27.7641 98.5053 27.9056 98.477 28.0471L98.4487 28.1319C98.0243 30.2257 97.1472 32.6307 96.0154 34.9226C95.9588 35.064 95.8173 35.1206 95.6759 35.064Z" fill="#7FCDEB"/>
<path d="M96.7227 35.4885C96.5813 35.4036 96.5247 35.2621 96.5813 35.1206C97.7413 32.8854 98.5618 30.5936 98.958 28.4715C98.958 28.4149 98.9863 28.3583 98.9863 28.3583C99.0146 28.2169 99.156 28.132 99.2975 28.1603C99.439 28.1886 99.5238 28.33 99.4956 28.4715L99.4673 28.5847C99.0711 30.735 98.2223 33.0835 97.034 35.3753C97.0057 35.4885 96.8359 35.5451 96.7227 35.4885Z" fill="#7FCDEB"/>
<path d="M35.6925 10.1654C45.0013 8.12823 51.226 11.4104 51.226 11.4104C51.226 11.4104 50.7733 20.125 56.8283 25.2179C56.8283 25.2179 62.572 47.1176 59.9972 50.1734C57.4225 53.2575 49.585 55.6908 45.7935 56.5113C42.0021 57.3318 33.8534 58.3787 30.2317 56.6528C26.6101 54.9268 22.7338 32.631 22.7338 32.631C26.1291 25.4726 22.083 17.7483 22.083 17.7483C22.083 17.7483 26.412 12.2026 35.6925 10.1654Z" fill="#0096B9"/>
<path d="M39.4271 28.6699C33.4005 29.9714 26.4118 29.4621 26.3552 29.4621C26.1854 29.4621 26.0723 29.3206 26.0723 29.1509C26.0723 28.9811 26.2137 28.8679 26.3835 28.8679C26.4401 28.8679 33.3439 29.3772 39.2857 28.0757C45.2274 26.7742 51.8766 23.3223 51.9332 23.294C52.0746 23.2091 52.2727 23.2657 52.3293 23.4071C52.4142 23.5486 52.3576 23.7467 52.2161 23.8033C52.1595 23.8881 45.4538 27.3683 39.4271 28.6699Z" fill="#007A9B"/>
<path d="M44.5199 52.0127C38.4932 53.3142 31.5046 52.8332 31.448 52.8049C31.2782 52.8049 31.165 52.6634 31.165 52.4937C31.165 52.3239 31.3065 52.2107 31.4763 52.2107C31.5329 52.2107 38.4366 52.72 44.3784 51.4185C50.3202 50.117 56.9693 46.6651 57.0259 46.6368C57.1674 46.5519 57.3655 46.6085 57.4221 46.7782C57.5069 46.9197 57.4503 47.1178 57.3089 47.1744C57.2523 47.2027 50.5466 50.6828 44.5199 52.0127Z" fill="#007A9B"/>
<path d="M41.2382 36.6204C33.9949 38.2049 25.6198 37.5824 25.5349 37.5824C25.3651 37.5824 25.252 37.4409 25.252 37.2712C25.252 37.1014 25.3934 36.9882 25.5632 36.9882C25.6481 36.9882 33.9383 37.5824 41.0967 36.0262C48.2551 34.47 56.2341 30.3108 56.319 30.2825C56.4605 30.1976 56.6585 30.2542 56.7151 30.3957C56.8 30.5371 56.7434 30.7352 56.6019 30.7918C56.517 30.8767 48.4532 35.0642 41.2382 36.6204Z" fill="#007A9B"/>
<path d="M42.9354 44.4015C35.6921 45.986 27.317 45.3635 27.2322 45.3635C27.0624 45.3635 26.9492 45.2221 26.9492 45.0523C26.9492 44.8825 27.0907 44.7693 27.2605 44.7693C27.3453 44.7693 35.6355 45.3635 42.794 43.8073C49.9524 42.2512 57.9314 38.0919 58.0162 38.0636C58.1577 37.9787 58.3558 38.0353 58.4124 38.1768C58.4972 38.3183 58.4407 38.5163 58.2992 38.5729C58.2143 38.6578 50.1505 42.8453 42.9354 44.4015Z" fill="#007A9B"/>
<path d="M37.7299 20.804C32.2125 22.0207 25.818 21.5397 25.7331 21.5397C25.5634 21.5397 25.4502 21.3982 25.4502 21.2284C25.4502 21.0587 25.5917 20.9455 25.7614 20.9455C25.818 20.9455 32.1276 21.3982 37.5884 20.2098C43.0209 19.0215 49.1041 15.8525 49.1607 15.8242C49.3022 15.7394 49.5003 15.796 49.5569 15.9374C49.6417 16.0789 49.5851 16.277 49.4437 16.3335C49.4154 16.4184 43.2755 19.6157 37.7299 20.804Z" fill="#007A9B"/>
<path d="M22.9884 33.8194C22.7337 33.8759 22.4791 33.8477 22.2244 33.7345C21.6302 33.4515 21.3756 32.7442 21.6585 32.15C24.7709 25.614 21.0643 18.399 21.0361 18.3424C20.7248 17.7483 20.9512 17.0409 21.5454 16.7297C22.1395 16.4184 22.8469 16.6448 23.1581 17.239C23.3279 17.5785 27.4305 25.5857 23.8089 33.1686C23.6391 33.5081 23.3279 33.7345 22.9884 33.8194Z" fill="#3BBDE5"/>
<path d="M26.8368 52.0408C26.5255 52.1257 26.1577 52.0408 25.8748 51.8428C25.3372 51.4467 25.224 50.711 25.6201 50.1734L31.9297 41.6569C32.3258 41.1193 33.0615 41.0061 33.5991 41.4022C34.1367 41.7983 34.2498 42.534 33.8537 43.0716L27.5441 51.5881C27.3461 51.8428 27.0914 51.9842 26.8368 52.0408Z" fill="#3BBDE5"/>
<path d="M57.0825 26.3779C57.3372 26.3213 57.5635 26.1798 57.7333 25.9818C58.1577 25.4725 58.1011 24.7368 57.5918 24.3124C52.0462 19.6439 52.414 11.58 52.414 11.4952C52.4423 10.8444 51.933 10.2785 51.2822 10.2502C50.6315 10.2219 50.0656 10.7312 50.0373 11.382C50.009 11.7498 49.6129 20.7474 56.0639 26.1515C56.3752 26.3779 56.743 26.4628 57.0825 26.3779Z" fill="#3BBDE5"/>
<path d="M61.1851 44.5711C61.4964 44.5145 61.8076 44.2882 61.9774 43.9769C62.2886 43.4111 62.0905 42.6754 61.4964 42.3642L52.2159 37.2429C51.65 36.9317 50.9143 37.1297 50.6031 37.7239C50.2919 38.2898 50.4899 39.0255 51.0841 39.3367L60.3646 44.4579C60.6192 44.5994 60.9305 44.6277 61.1851 44.5711Z" fill="#3BBDE5"/>
<path d="M45.6802 56.0302C45.0294 56.1717 44.4069 55.7756 44.2655 55.1248L34.2776 9.25993C34.1362 8.60917 34.5323 7.98669 35.183 7.84522C35.8338 7.70375 36.4563 8.09987 36.5977 8.75064L46.5856 54.6155C46.7554 55.2663 46.331 55.8888 45.6802 56.0302Z" fill="#3BBDE5"/>
<path d="M45.5105 55.1533C45.3407 55.1816 45.1992 55.0967 45.1426 54.9269L35.1548 9.06203C35.1265 8.89226 35.2114 8.75079 35.3811 8.6942C35.5509 8.66591 35.6924 8.75079 35.749 8.92056L45.7368 54.7855C45.7651 54.9552 45.6519 55.125 45.5105 55.1533Z" fill="white"/>
<path d="M36.6257 14.4378C41.9733 13.2777 43.3597 10.3634 43.1899 9.54287C43.1899 9.54287 42.4543 5.86462 42.2279 5.10068C42.0016 4.33673 38.5214 4.05379 34.5602 4.90262C30.599 5.75144 27.5715 7.47739 27.6847 8.26963C27.7696 9.06186 28.6467 12.7118 28.6467 12.7118C28.8165 13.5323 31.2781 15.5978 36.6257 14.4378Z" fill="#3BBDE5"/>
<path d="M41.0403 5.49668C41.1817 6.17574 38.607 7.3358 35.2399 8.07145C31.9012 8.8071 29.0435 8.83539 28.902 8.12804C28.7606 7.44898 31.3353 6.28891 34.7024 5.55326C38.0411 4.84591 40.8988 4.81762 41.0403 5.49668Z" fill="#3BBDE5"/>
<path d="M94.686 65.3109H14.7266V118.844H94.686V65.3109Z" fill="#F4B33D"/>
<path d="M94.6574 65.3109H54.6777V118.844H94.6574V65.3109Z" fill="#EE9516"/>
<path d="M102.552 47.033H62.5718L54.6777 65.3111H94.6574L102.552 47.033Z" fill="#F4B33D"/>
<path d="M46.8117 47.0328H6.83203L14.7261 65.3108H54.6775L46.8117 47.0328Z" fill="#FBD66F"/>
<path d="M39.342 107.583H33.2588V118.844H39.342V107.583Z" fill="#FBD66F"/>
<path d="M60.9309 71.1963H48.4531V75.3838H60.9309V71.1963Z" fill="#FBD66F"/>
<path d="M54.6777 80.9576H44.0391V85.3149H54.6777V80.9576Z" fill="#FBD66F"/>
<path opacity="0.3" d="M54.6777 81.3538L58.554 88.6254V118.815H88.1781H94.6574V80.0806H92.7334L88.1781 88.6254H82.0948L77.5394 80.0806H54.6777V81.3538Z" fill="#B4B5A7"/>
<path d="M85.8298 87.3237C85.66 87.2671 85.5751 87.1256 85.6317 86.9558L87.1313 81.4951C87.1596 81.3253 87.3294 81.2404 87.4991 81.297C87.6406 81.3536 87.7538 81.4951 87.6972 81.6648L86.1976 87.1256C86.141 87.2671 85.9713 87.352 85.8298 87.3237Z" fill="#3BBDE5"/>
<path d="M86.6221 87.5498C86.4807 87.4932 86.3675 87.3517 86.4241 87.1819C86.9334 85.3428 87.8671 81.8909 87.9237 81.7212C87.952 81.5797 88.0651 81.4948 88.2066 81.4948C88.3764 81.4948 88.4895 81.6363 88.4895 81.7778C88.4895 81.8343 88.4895 81.8343 86.9899 87.3234C86.9334 87.4932 86.7636 87.5781 86.6221 87.5498Z" fill="#3BBDE5"/>
<path d="M87.4141 87.7481C87.2726 87.7198 87.1595 87.55 87.2161 87.3803C87.6971 85.5694 88.6308 82.0892 88.6873 81.9195C88.7156 81.8063 88.8288 81.6931 88.942 81.6931C89.1118 81.6931 89.2532 81.8063 89.2532 81.9761C89.2532 82.0326 89.2532 82.0326 87.7819 87.55C87.7253 87.7198 87.5556 87.8047 87.4141 87.7481Z" fill="#3BBDE5"/>
<path d="M88.1778 87.9743C88.0363 87.946 87.9231 87.7762 87.9797 87.6065C88.3758 86.1352 89.3944 82.3438 89.4227 82.1174C89.451 81.9759 89.5642 81.8911 89.7057 81.8911C89.8754 81.8911 90.0169 82.0042 90.0169 82.174C90.0169 82.2306 90.0169 82.2306 88.5456 87.7762C88.5173 87.9177 88.3476 88.0309 88.1778 87.9743Z" fill="#3BBDE5"/>
<path d="M88.9707 88.2008C88.8293 88.1442 88.7161 88.0028 88.7727 87.833C89.3386 85.7109 90.1591 82.542 90.2157 82.3439C90.244 82.2024 90.3572 82.1176 90.4986 82.1176C90.6684 82.1176 90.8099 82.2307 90.8099 82.4005C90.8099 82.4571 90.8099 82.4854 89.3669 88.0028C89.3103 88.1442 89.1405 88.2291 88.9707 88.2008Z" fill="#3BBDE5"/>
<path d="M89.7627 88.4272C89.6213 88.3706 89.5081 88.2291 89.5647 88.0594C90.1023 85.9373 90.9228 82.7684 90.9794 82.542C91.0077 82.4005 91.1209 82.3156 91.2623 82.2874C91.4321 82.2874 91.5736 82.4005 91.5736 82.5703C91.5736 82.6269 91.5736 82.6552 90.1306 88.2008C90.074 88.3706 89.9325 88.4555 89.7627 88.4272Z" fill="#3BBDE5"/>
<path d="M90.5547 88.6251C90.4133 88.5685 90.3001 88.4271 90.3567 88.2573C90.8943 86.1352 91.7148 82.9663 91.7431 82.7399C91.7714 82.5985 91.8846 82.5136 92.026 82.4853C92.1958 82.4853 92.3373 82.5985 92.3373 82.7682C92.3373 82.8248 92.3373 82.8531 90.9226 88.3988C90.866 88.5685 90.7245 88.6817 90.5547 88.6251Z" fill="#3BBDE5"/>
<path d="M91.3467 88.8516C91.2053 88.8233 91.0921 88.6536 91.1487 88.5121C91.6863 86.39 92.4785 83.1928 92.5351 82.9664C92.5634 82.825 92.6766 82.7118 92.818 82.7118C92.9878 82.7118 93.1293 82.825 93.1293 82.9947C93.1293 83.0513 93.1293 83.0796 91.7429 88.6536C91.658 88.795 91.5165 88.8799 91.3467 88.8516Z" fill="#3BBDE5"/>
<path d="M92.1397 89.0778C91.9982 89.0495 91.8851 88.8797 91.9416 88.7382C92.4792 86.6162 93.2432 83.4189 93.2998 83.1926C93.3281 83.0511 93.4412 82.9379 93.5827 82.9379C93.7525 82.9379 93.8939 83.0511 93.8939 83.2209C93.8939 83.2775 93.8939 83.334 92.5358 88.8797C92.4509 89.0212 92.2812 89.1061 92.1397 89.0778Z" fill="#3BBDE5"/>
<path d="M92.9317 89.276C92.7902 89.2194 92.677 89.0779 92.7336 88.9364C93.2429 86.7861 94.0352 83.5605 94.0635 83.3625C94.0635 83.1927 94.1766 83.0795 94.3464 83.0795C94.5162 83.0795 94.6576 83.221 94.6576 83.3908C94.6576 83.4473 94.6576 83.5039 93.2995 89.0779C93.2429 89.2477 93.1015 89.3325 92.9317 89.276C92.9317 89.3043 92.9317 89.3043 92.9317 89.276Z" fill="#3BBDE5"/>
<path d="M93.6954 89.502C93.5539 89.4737 93.4407 89.304 93.4973 89.1625C94.0066 87.0121 94.7988 83.7583 94.8271 83.5885C94.8271 83.4188 94.9403 83.3056 95.1101 83.3056C95.2798 83.3056 95.4213 83.4471 95.4213 83.6168C95.4213 83.6734 95.4213 83.73 94.0915 89.304C94.0349 89.4454 93.8651 89.5586 93.6954 89.502C93.7237 89.502 93.7237 89.502 93.6954 89.502Z" fill="#3BBDE5"/>
<path d="M94.4874 89.7287C94.3459 89.7004 94.2327 89.5306 94.2893 89.3892C94.7986 87.2388 95.5625 83.985 95.5908 83.7869C95.5908 83.6171 95.704 83.504 95.8738 83.504C96.0435 83.504 96.185 83.6454 96.185 83.8152C96.185 83.8718 96.185 83.9284 94.8552 89.5306C94.8269 89.6721 94.6571 89.757 94.4874 89.7287Z" fill="#3BBDE5"/>
<path d="M95.2803 89.9549C95.1389 89.9266 95.0257 89.7569 95.0823 89.6154C95.5916 87.465 96.3272 84.2112 96.3555 83.9848C96.3555 83.8151 96.4687 83.7019 96.6384 83.7019C96.8082 83.7019 96.9497 83.8434 96.9497 84.0131C96.9497 84.0697 96.9497 84.1263 95.6481 89.7569C95.6199 89.8983 95.4501 89.9832 95.2803 89.9549Z" fill="#3BBDE5"/>
<path d="M96.0723 90.1529C95.9308 90.1246 95.8177 89.9548 95.8743 89.8133C96.3553 87.663 97.1192 84.3808 97.1475 84.1828C97.1475 84.013 97.2607 83.8998 97.4304 83.8998C97.6002 83.8998 97.7417 84.0413 97.7417 84.2111C97.7417 84.2677 97.7417 84.3525 96.4684 89.9548C96.4118 90.0963 96.2421 90.2094 96.0723 90.1529Z" fill="#3BBDE5"/>
<path d="M96.8643 90.3795C96.7228 90.3512 96.6097 90.1814 96.6662 90.0399C97.1472 87.8896 97.8829 84.6074 97.9112 84.3811C97.9112 84.2113 98.0244 84.0981 98.1941 84.0981C98.3639 84.0981 98.5054 84.2396 98.5054 84.4094C98.5054 84.466 98.5054 84.5509 97.2321 90.1814C97.1755 90.3229 97.0341 90.4078 96.8643 90.3795Z" fill="#3BBDE5"/>
<path d="M97.6563 90.6056C97.5148 90.5773 97.4017 90.4075 97.4582 90.2661C97.9392 88.1157 98.6466 84.8053 98.7032 84.6072C98.7032 84.4375 98.8164 84.3243 98.9861 84.3243C99.1559 84.3243 99.2974 84.4658 99.2974 84.6355C99.2974 84.6921 99.2974 84.777 98.0524 90.4075C97.9675 90.549 97.8261 90.6339 97.6563 90.6056Z" fill="#3BBDE5"/>
<path d="M98.4203 90.8322C98.2788 90.8039 98.1939 90.6341 98.2222 90.4927C98.7032 88.3423 99.4106 85.0319 99.4389 84.8055C99.4389 84.6358 99.552 84.5226 99.7218 84.5226C99.8916 84.5226 100.033 84.6641 100.033 84.8055C100.033 84.8621 100.033 84.947 98.8164 90.6058C98.7598 90.7473 98.6183 90.8605 98.4203 90.8322C98.4486 90.8322 98.4486 90.8322 98.4203 90.8322Z" fill="#3BBDE5"/>
<path d="M99.2132 91.0301C99.0718 91.0018 98.9869 90.8321 99.0152 90.6906C99.4679 88.5119 100.175 85.2298 100.204 85.0035C100.204 84.8337 100.317 84.7205 100.486 84.7205C100.656 84.7205 100.798 84.862 100.798 85.0035C100.798 85.0601 100.798 85.1732 99.5811 90.8038C99.5528 90.9735 99.383 91.0867 99.2132 91.0301Z" fill="#3BBDE5"/>
<path d="M70.4659 83.0514C70.3244 82.9948 70.2112 82.8533 70.2678 82.6836L71.8806 77.2511C71.9372 77.1096 72.0786 76.9964 72.2484 77.053C72.3899 77.1096 72.5031 77.2511 72.4465 77.4209L70.8337 82.8533C70.7771 82.9948 70.6073 83.0797 70.4659 83.0514Z" fill="#3BBDE5"/>
<path d="M71.2295 83.2778C71.0881 83.2212 70.9749 83.0797 71.0315 82.9099C71.5691 81.0991 72.5594 77.6472 72.616 77.4774C72.6443 77.336 72.7574 77.2511 72.8989 77.2511C73.0687 77.2511 73.1818 77.3926 73.1818 77.534C73.1818 77.5906 73.1818 77.5906 71.5691 83.0514C71.5408 83.2212 71.3993 83.3061 71.2295 83.2778Z" fill="#3BBDE5"/>
<path d="M71.9942 83.5043C71.8527 83.4477 71.7395 83.3062 71.7961 83.1364C72.3054 81.3256 73.324 77.8737 73.3523 77.704C73.3806 77.5908 73.4938 77.4776 73.6353 77.4776C73.805 77.4776 73.9465 77.5908 73.9465 77.7605C73.9465 77.8171 73.9465 77.8171 72.362 83.3062C72.3337 83.4477 72.164 83.5326 71.9942 83.5043Z" fill="#3BBDE5"/>
<path d="M72.7579 83.7305C72.6164 83.6739 72.5032 83.5324 72.5598 83.3627C72.9842 81.9197 74.0594 78.1282 74.116 77.9019C74.1443 77.7604 74.2575 77.6755 74.3989 77.6755C74.5687 77.6755 74.7102 77.7887 74.7102 77.9585C74.7102 78.0151 74.7102 78.0151 73.154 83.5324C73.0974 83.6739 72.9276 83.7588 72.7579 83.7305Z" fill="#3BBDE5"/>
<path d="M73.5215 83.957C73.3801 83.9004 73.2669 83.7589 73.3235 83.5892C73.9177 81.4954 74.7948 78.3265 74.8514 78.1284C74.8797 77.9869 74.9928 77.902 75.1343 77.902C75.3041 77.902 75.4172 78.0152 75.4455 78.185C75.4455 78.2416 75.4455 78.2699 73.8894 83.7589C73.8611 83.9004 73.6913 83.9853 73.5215 83.957Z" fill="#3BBDE5"/>
<path d="M74.2852 84.1832C74.1437 84.1266 74.0306 83.9852 74.0871 83.8154C74.6813 81.7216 75.5584 78.5527 75.5867 78.3263C75.615 78.1849 75.7282 78.1 75.8697 78.1C76.0394 78.1 76.1526 78.2132 76.1809 78.3829C76.1809 78.4395 76.1809 78.4678 74.653 83.9852C74.6247 84.1266 74.455 84.2398 74.2852 84.1832C74.3135 84.1832 74.3135 84.1832 74.2852 84.1832Z" fill="#3BBDE5"/>
<path d="M75.0782 84.4098C74.9367 84.3532 74.8235 84.2118 74.8801 84.042C75.446 81.9482 76.3231 78.751 76.3797 78.5529C76.408 78.4115 76.5212 78.3266 76.6627 78.2983C76.8324 78.2983 76.9456 78.4115 76.9739 78.5812C76.9739 78.6378 76.9739 78.6661 75.4743 84.1835C75.3894 84.3532 75.2196 84.4664 75.0782 84.4098Z" fill="#3BBDE5"/>
<path d="M75.8418 84.6361C75.7004 84.5795 75.5872 84.4381 75.6438 84.2683C76.2097 82.1745 77.0585 78.9773 77.1151 78.7509C77.1434 78.6095 77.2566 78.4963 77.398 78.4963C77.5678 78.4963 77.681 78.6095 77.7093 78.7792C77.7093 78.8358 77.7093 78.8641 76.2097 84.4098C76.1531 84.5795 75.9833 84.6927 75.8418 84.6361Z" fill="#3BBDE5"/>
<path d="M76.6058 84.8626C76.4644 84.806 76.3795 84.6645 76.4078 84.4947C76.9736 82.3727 77.8225 79.2037 77.8508 78.9774C77.8791 78.8359 77.9922 78.7227 78.1337 78.7227C78.3035 78.7227 78.4167 78.8359 78.445 79.0057C78.445 79.0622 78.4449 79.0905 76.9736 84.6362C76.9171 84.806 76.7756 84.9191 76.6058 84.8626Z" fill="#3BBDE5"/>
<path d="M77.3695 85.0889C77.228 85.0324 77.1431 84.8909 77.1714 84.7211C77.7373 82.5991 78.5861 79.3452 78.6144 79.1755C78.6144 79.0057 78.7276 78.9208 78.8974 78.8925C79.0671 78.8925 79.1803 79.034 79.2086 79.2038C79.2086 79.2603 79.2086 79.3169 77.7656 84.8626C77.709 85.0324 77.5393 85.1455 77.3695 85.0889Z" fill="#3BBDE5"/>
<path d="M78.1332 85.3152C77.9917 85.2586 77.9068 85.1171 77.9351 84.9473C78.4727 82.8253 79.3215 79.5715 79.3498 79.3734C79.3498 79.2036 79.463 79.0905 79.6328 79.0905C79.8025 79.0905 79.9157 79.2319 79.944 79.4017C79.944 79.4583 79.944 79.5149 78.501 85.0888C78.4727 85.2586 78.3029 85.3718 78.1332 85.3152Z" fill="#3BBDE5"/>
<path d="M78.8978 85.5416C78.7563 85.485 78.6715 85.3435 78.6998 85.2021C79.2373 83.08 80.0579 79.8262 80.1145 79.6281C80.1145 79.4583 80.2276 79.3452 80.3974 79.3452C80.5672 79.3452 80.6804 79.4866 80.7086 79.6564C80.7086 79.713 80.7086 79.7696 79.2939 85.3435C79.2373 85.485 79.0676 85.5982 78.8978 85.5416Z" fill="#3BBDE5"/>
<path d="M79.6615 85.7678C79.52 85.7112 79.4351 85.5698 79.4634 85.4283C80.001 83.2779 80.8215 80.0241 80.8498 79.826C80.8498 79.6563 80.963 79.5431 81.1328 79.5431C81.3026 79.5431 81.4157 79.6846 81.444 79.8543C81.444 79.9109 81.444 79.9675 80.0576 85.5698C80.001 85.7112 79.8312 85.8244 79.6615 85.7678Z" fill="#3BBDE5"/>
<path d="M80.4252 85.9943C80.2837 85.9377 80.1988 85.7963 80.2271 85.6548C80.7647 83.5044 81.5569 80.2506 81.5852 80.0525C81.5852 79.8828 81.6984 79.7696 81.8682 79.7696C82.0379 79.7696 82.1511 79.9111 82.1794 80.0808C82.1794 80.1374 82.1794 80.2223 80.793 85.7963C80.7647 85.9377 80.5949 86.0509 80.4252 85.9943Z" fill="#3BBDE5"/>
<path d="M81.1898 86.2205C81.0483 86.164 80.9635 86.0225 80.9917 85.881C81.501 83.7307 82.2933 80.4768 82.3499 80.2505C82.3499 80.0807 82.463 79.9675 82.6328 79.9675C82.8026 79.9675 82.9158 80.109 82.944 80.2788C82.944 80.3353 82.9441 80.4202 81.5859 86.0225C81.5293 86.164 81.3596 86.2771 81.1898 86.2205C81.2181 86.2205 81.2181 86.2205 81.1898 86.2205Z" fill="#3BBDE5"/>
<path d="M81.9818 86.4471C81.8403 86.3905 81.7554 86.249 81.7837 86.1075C82.293 83.9572 83.0853 80.675 83.1136 80.477C83.1136 80.3072 83.2267 80.194 83.3965 80.194C83.5663 80.194 83.6795 80.3355 83.7078 80.5053C83.7078 80.5619 83.7077 80.6467 82.3779 86.249C82.293 86.3905 82.1516 86.5036 81.9818 86.4471Z" fill="#3BBDE5"/>
<path d="M82.7455 86.6733C82.604 86.6167 82.5191 86.4752 82.5474 86.3337C83.0567 84.1834 83.8207 80.9013 83.8489 80.6749C83.8489 80.5051 83.9621 80.392 84.1319 80.392C84.3017 80.392 84.4148 80.5334 84.4431 80.7032C84.4431 80.7598 84.4431 80.8447 83.1133 86.4752C83.0567 86.6167 82.9152 86.7016 82.7455 86.6733Z" fill="#3BBDE5"/>
<path d="M107.729 56.4831C108.946 43.3263 89.1118 38.5446 82.4627 46.184C75.8418 53.8518 71.626 77.8735 71.626 77.8735L84.2735 81.863L88.8006 59.8784L92.6486 63.104L86.6219 82.5138L100.769 85.9374C100.769 85.9374 106.513 69.6682 107.729 56.4831ZM96.157 54.446C94.035 56.9075 90.2153 55.1533 89.8757 53.5405C89.5645 51.8995 94.4594 49.0701 94.997 49.5511C95.5346 50.0038 97.3737 53.0312 96.157 54.446Z" fill="#0096B9"/>
<path d="M100.685 83.0801C100.317 83.0518 99.9207 83.0235 99.5246 82.9669C99.8359 81.3541 100.09 79.7697 100.289 78.1569C101.279 78.2418 102.213 78.2701 103.146 78.2984C103.146 78.2418 103.175 78.2135 103.175 78.1569C102.241 78.1286 101.279 78.1003 100.289 78.0154C100.543 76.0348 100.741 74.0542 100.883 72.1019C102.213 72.0453 103.542 71.9039 104.901 71.7058C104.901 71.6492 104.929 71.5926 104.929 71.5643C103.542 71.7624 102.213 71.9039 100.854 71.9605C100.968 70.2062 101.024 68.452 101.024 66.7543C102.694 66.6695 104.363 66.3865 106.032 65.9904C106.004 66.4148 105.947 66.8392 105.919 67.2353C106.004 66.8392 106.089 66.4431 106.174 66.047C106.174 66.0187 106.174 65.9621 106.174 65.9338C106.174 65.9338 106.174 65.9338 106.202 65.9338C106.202 65.8772 106.23 65.8206 106.23 65.7923H106.202C106.344 64.0098 106.428 62.1424 106.315 60.3316C106.626 60.1335 106.938 59.9637 107.249 59.7657C107.249 59.7091 107.277 59.6525 107.277 59.5959C106.966 59.794 106.626 59.992 106.287 60.1901C106.145 58.068 105.721 56.1157 104.759 54.6444C105.749 53.8239 106.457 52.2677 106.683 50.7115C106.655 50.6266 106.598 50.5701 106.57 50.4852C106.372 52.0413 105.664 53.6824 104.674 54.5312C104.589 54.4181 104.533 54.3049 104.448 54.1917C104.42 54.1634 104.391 54.1634 104.335 54.1917C104.306 54.22 104.306 54.2483 104.335 54.3049C105.523 55.8045 106.004 57.9548 106.145 60.3033C104.504 61.237 102.75 62.1141 100.911 62.7648C100.826 61.2087 100.713 59.6525 100.515 58.1812C100.515 58.1529 100.487 58.1246 100.43 58.1246C100.402 58.1246 100.373 58.1529 100.373 58.2095C100.572 59.7091 100.685 61.2653 100.77 62.8497C99.6944 63.2459 98.6192 63.5571 97.5157 63.7551C97.346 62.68 97.0913 61.6614 96.6669 60.756C96.6386 60.7277 96.6103 60.6994 96.582 60.7277C96.5537 60.756 96.5254 60.7843 96.5537 60.8126C96.9781 61.718 97.2328 62.7366 97.4026 63.7834C96.2708 63.9815 95.1673 64.0947 94.0355 64.0381C93.979 63.5005 93.8941 62.9629 93.7243 62.4819C93.7526 62.4819 93.7809 62.4819 93.7809 62.4536C93.8375 62.397 93.979 62.2838 94.1487 62.199C94.177 62.1707 94.2053 62.1424 94.177 62.1141C94.1487 62.0858 94.1204 62.0575 94.0921 62.0858C93.9224 62.1707 93.7809 62.3121 93.7243 62.3687C93.696 62.397 93.696 62.4253 93.7243 62.4536H93.696C93.6677 62.4536 93.6394 62.5102 93.6394 62.5385C93.7809 63.0195 93.8658 63.5288 93.9224 64.0381C93.3848 64.0098 92.8755 63.9532 92.3379 63.8683L92.3096 64.0098C92.8472 64.0947 93.3848 64.1513 93.9507 64.1796C94.0355 65.0001 94.0355 65.8772 93.9507 66.7826C93.1584 66.6977 92.3662 66.5846 91.6022 66.3582L91.5457 66.4997C91.5739 66.4997 91.6022 66.528 91.6022 66.528C92.3379 66.726 93.1301 66.8675 93.9224 66.9241C93.7809 68.5086 93.4414 70.1213 93.1018 71.6492C92.1115 71.4229 91.1212 71.1116 90.2441 70.6589L90.2158 70.8004C90.8383 71.1399 91.5457 71.3946 92.253 71.5926C92.5359 71.6775 92.7906 71.7341 93.0735 71.7907C93.0735 71.819 93.0452 71.8473 93.0452 71.9039C92.9038 72.5829 92.7623 73.2337 92.6491 73.8279C92.4511 74.8465 92.2247 75.8368 91.9984 76.7705C90.8666 76.4592 89.7631 76.0631 88.7162 75.5538L88.6879 75.6953C89.7065 76.1763 90.81 76.5724 91.9418 76.8837H91.9701C91.5457 78.6662 91.1212 80.3073 90.6402 81.8917C89.3953 81.6371 88.1786 81.2975 87.0752 80.8448L87.0469 80.9863C87.6693 81.241 88.3201 81.439 88.9709 81.6371C89.5085 81.7786 90.0461 81.92 90.5836 82.0332C90.4422 82.5142 90.3007 82.9669 90.1592 83.4196L90.3007 83.4479C90.4422 82.9952 90.5837 82.5142 90.7534 82.0332C92.1115 82.3161 93.498 82.5142 94.8844 82.684C94.7146 83.2498 94.5165 83.844 94.3185 84.4099L94.46 84.4382C94.658 83.844 94.8561 83.2781 95.0258 82.684C96.3274 82.8254 97.6006 82.9386 98.789 83.0518C98.9587 83.0801 99.1285 83.0801 99.2983 83.1084C99.1568 83.9006 98.987 84.6929 98.8173 85.5134L98.9587 85.5417C99.1285 84.7494 99.2983 83.9289 99.4397 83.1367C99.8358 83.165 100.232 83.1933 100.6 83.2498C100.911 83.2781 101.251 83.3064 101.562 83.3347C101.59 83.2781 101.59 83.2499 101.618 83.1933C101.364 83.1367 101.024 83.1084 100.685 83.0801ZM100.798 71.9888C100.487 72.0171 100.147 72.0171 99.8359 72.0453C99.1851 72.0736 98.2797 72.0736 97.3177 72.0736C97.5723 70.4326 97.7704 68.6783 97.7987 66.9524C98.1665 66.9241 98.5343 66.9241 98.8738 66.8958C99.3831 66.8675 99.8641 66.8392 100.345 66.8392C100.543 66.8392 100.77 66.8109 100.996 66.8109C100.968 68.4803 100.911 70.2345 100.798 71.9888ZM106.259 60.4447C106.372 62.2273 106.259 64.0947 106.117 65.8489C104.476 66.2733 102.778 66.528 101.109 66.6412C101.109 65.3679 101.081 64.1513 101.024 62.9063C102.835 62.2273 104.618 61.3784 106.259 60.4447ZM100.883 62.9629C100.939 64.1796 100.968 65.3962 100.968 66.6412C100.741 66.6412 100.543 66.6695 100.317 66.6695C99.8359 66.6977 99.3549 66.6977 98.8456 66.726C98.506 66.7543 98.1382 66.7543 97.7704 66.7826C97.7987 65.7923 97.7421 64.802 97.6289 63.84C98.7324 63.642 99.8076 63.3307 100.883 62.9629ZM94.1204 64.1513C95.2239 64.1796 96.3557 64.0947 97.4874 63.8966C97.6289 64.8303 97.6572 65.8206 97.6289 66.8109C96.4688 66.8675 95.2805 66.8675 94.1204 66.7543C94.2053 65.8489 94.2053 64.9718 94.1204 64.1513ZM93.2999 71.6209C93.6394 70.093 93.979 68.452 94.1204 66.8675C95.2805 66.9524 96.4971 66.9524 97.6572 66.8958C97.6289 68.6217 97.4025 70.376 97.1762 72.0171C95.9595 72.0171 94.6014 71.9039 93.2999 71.6209ZM92.8472 73.7996C92.9604 73.2054 93.1018 72.5546 93.2433 71.8756C93.2433 71.8473 93.2433 71.819 93.2716 71.7624C94.6014 72.0453 95.9313 72.1302 97.1196 72.1868C97.0064 72.8376 96.9216 73.4884 96.8084 74.0825C96.7518 74.4221 96.6952 74.7333 96.6386 75.0728C96.5254 75.9217 96.384 76.7422 96.2425 77.5627C94.8844 77.3647 93.498 77.11 92.1964 76.7422C92.4228 75.8085 92.6491 74.8182 92.8472 73.7996ZM94.9693 82.5425C93.5828 82.3727 92.1964 82.1747 90.8383 81.8917C91.291 80.3355 91.7437 78.6662 92.1681 76.8837C93.498 77.2515 94.8561 77.5061 96.2142 77.7042C95.903 79.3453 95.4785 80.9297 94.9693 82.5425ZM96.8084 75.1011C96.865 74.7899 96.9216 74.4504 96.9781 74.1391C97.0913 73.5166 97.1762 72.8659 97.2894 72.2151C98.2797 72.2434 99.1851 72.2151 99.8359 72.2151C100.147 72.2151 100.487 72.1868 100.798 72.1585C100.656 74.1108 100.458 76.0631 100.204 78.0437C99.6378 77.9871 99.1002 77.9305 98.5343 77.874C97.8553 77.7891 97.1479 77.7042 96.4406 77.6193C96.5537 76.7705 96.6952 75.9217 96.8084 75.1011ZM98.8738 82.9103C97.6855 82.7971 96.4123 82.684 95.139 82.5425C95.62 80.9297 96.0444 79.3453 96.384 77.7042C97.0913 77.8174 97.7987 77.9023 98.506 77.9871C99.0719 78.0437 99.6378 78.1003 100.175 78.1569C99.949 79.7414 99.6944 81.3541 99.4114 82.9386C99.2134 82.9386 99.0436 82.9386 98.8738 82.9103Z" fill="#3BBDE5"/>
<path d="M84.3586 79.3451C84.4718 78.4962 84.5849 77.6474 84.6698 76.7986C84.6981 76.6854 84.6981 76.5439 84.7264 76.4308C84.9528 76.4874 85.1508 76.5156 85.3489 76.5439L85.3772 76.4025C85.1508 76.3742 84.9528 76.3176 84.7264 76.2893C84.9528 74.3653 85.2074 72.413 85.5187 70.4607C85.8582 70.6022 86.1694 70.7436 86.509 70.8851L86.5372 70.7436C86.1977 70.6022 85.8865 70.4607 85.5469 70.3192C85.8016 68.7913 86.0845 67.2634 86.4524 65.7356C86.7636 65.9902 87.0748 66.1883 87.4144 66.3863L87.4427 66.2448C87.1031 66.0468 86.7919 65.8204 86.4807 65.5941C86.7353 64.5755 87.0182 63.5569 87.3578 62.5666C87.5841 62.8778 87.8105 63.1608 88.0368 63.4437L88.0651 63.274C87.8388 62.991 87.6124 62.7081 87.4144 62.3968C87.7539 61.35 88.15 60.3031 88.6027 59.2845C88.631 59.2562 88.6027 59.1996 88.5744 59.1996C88.5461 59.1713 88.4895 59.1996 88.4895 59.2279C88.0368 60.2182 87.669 61.2368 87.3295 62.2554C86.3958 60.9538 85.5187 59.5108 84.783 57.9546C85.2074 57.3605 85.6601 56.7946 86.226 56.3136C86.2543 56.2853 86.2543 56.2287 86.226 56.2004C86.1977 56.1721 86.1411 56.1721 86.1128 56.2004C85.5752 56.6814 85.1225 57.2473 84.6981 57.8132C84.2454 56.8512 83.8493 55.8609 83.5098 54.8423C83.8776 54.4745 84.2454 54.0783 84.6698 53.7105C84.6981 53.6822 84.6981 53.6256 84.6698 53.5973C84.6415 53.569 84.6132 53.569 84.5849 53.5973C84.1888 53.9369 83.821 54.3047 83.4815 54.6725C82.859 52.6636 82.5195 50.5699 82.6326 48.5044C83.9625 47.5141 85.5469 46.835 87.5275 46.4955C87.5558 46.5238 87.5841 46.5238 87.5841 46.5238C87.8954 46.4106 88.2349 46.3823 88.5744 46.4672C87.7256 47.1463 87.1031 48.1932 86.707 49.3532C86.3392 49.3532 85.9714 49.4098 85.6318 49.4664C85.3206 49.523 84.9811 49.5796 84.6698 49.6079C84.6415 49.6079 84.6132 49.6362 84.6132 49.6927C84.6132 49.721 84.6415 49.7493 84.6698 49.7493H84.6981C85.0377 49.721 85.3772 49.6644 85.6884 49.6079C86.028 49.5513 86.3675 49.4947 86.707 49.4947C86.2826 50.8528 86.1694 52.3241 86.3675 53.5408C86.4241 53.8803 86.5089 54.2198 86.5938 54.5593C86.2543 54.6442 85.9148 54.814 85.6601 55.0121C85.6318 55.0403 85.6318 55.0686 85.6601 55.1252L85.6884 55.1535C85.7167 55.1535 85.745 55.1535 85.745 55.1535C85.9714 54.9555 86.2826 54.814 86.5938 54.7291C86.9334 56.0589 87.4709 57.2756 87.9802 58.4639C87.9802 58.4922 88.0085 58.4922 88.0368 58.4922C88.0651 58.4922 88.0651 58.4922 88.0934 58.4922C88.1217 58.4922 88.1217 58.4639 88.1217 58.4357C88.15 58.4357 88.1783 58.4074 88.1783 58.3791C88.2349 58.0112 88.5178 57.7 88.9423 57.4171C89.1969 57.2473 89.5364 57.1058 89.876 57.0209C89.9608 58.6054 90.4418 60.3031 91.2058 61.6895C91.1209 61.6895 91.0077 61.6895 90.9228 61.6895L91.0926 61.831C91.1492 61.831 91.2341 61.831 91.2907 61.831C91.3756 61.9724 91.4604 62.0856 91.517 62.1988L91.9131 62.5383C91.7434 62.312 91.5736 62.0856 91.4321 61.831C92.6771 61.7461 93.9503 61.4631 95.1953 60.9821C94.9406 61.2934 94.6577 61.6046 94.3182 61.8875C94.2899 61.9158 94.2899 61.9724 94.3182 62.0007L94.3464 62.029C94.3747 62.029 94.403 62.029 94.403 62.029C96.2987 60.3314 96.8929 58.3508 97.6003 56.0589C97.6569 55.8326 97.7417 55.6062 97.7983 55.3799C97.8266 55.295 97.8549 55.2384 97.8549 55.1535C98.3642 54.8989 98.8735 54.5876 99.4111 54.1349C99.7223 53.8803 100.118 53.6822 100.571 53.569C100.571 53.5973 100.571 53.6256 100.599 53.6539C100.854 55.5213 100.939 57.8132 99.496 58.9732C99.4677 59.0015 99.4677 59.0298 99.496 59.0864L99.5243 59.1147C99.5526 59.1147 99.5809 59.1147 99.5809 59.1147C101.08 57.8981 100.996 55.5496 100.741 53.6539C100.741 53.6256 100.741 53.569 100.713 53.5408C101.222 53.4276 101.731 53.4276 102.212 53.5973H102.241H102.269C102.806 53.5408 103.259 53.5125 103.684 53.5408C103.655 53.6539 103.655 53.7671 103.627 53.852C103.599 53.9652 103.57 54.1066 103.542 54.2198C103.316 55.1535 103.061 56.3136 102.41 56.9361C102.382 56.9644 102.382 57.0209 102.41 57.0492L102.439 57.0775C102.467 57.0775 102.495 57.0775 102.495 57.0492C103.174 56.3702 103.457 55.2101 103.655 54.2481C103.684 54.1066 103.712 53.9935 103.74 53.8803C103.768 53.7671 103.768 53.6539 103.797 53.5408C104.051 53.569 104.334 53.5973 104.589 53.6822C104.617 53.6822 104.674 53.6822 104.674 53.6256C104.674 53.5973 104.674 53.5408 104.617 53.5408C104.334 53.4559 104.08 53.4276 103.797 53.3993C103.966 52.3524 103.966 51.2206 103.797 50.0889C104.023 50.0889 104.221 50.0889 104.447 50.0889C105.042 50.3152 105.749 50.2869 106.4 50.2586C106.371 50.202 106.343 50.1737 106.343 50.1172C105.692 50.1455 105.07 50.1737 104.504 49.9757H104.476C104.249 49.9757 104.023 49.9757 103.797 49.9757C103.655 48.9854 103.372 47.9951 103.004 47.0614C103.089 47.118 103.174 47.1463 103.259 47.2029C103.429 47.316 103.627 47.4292 103.825 47.4858C104.023 47.5424 104.249 47.5707 104.447 47.6273C104.391 47.5707 104.334 47.5141 104.278 47.4575C104.136 47.4292 103.995 47.4009 103.853 47.3726C103.684 47.316 103.514 47.2312 103.344 47.118C103.203 47.0331 103.061 46.9482 102.92 46.8916C102.778 46.5804 102.637 46.2691 102.495 45.9579C102.41 45.9013 102.325 45.8447 102.241 45.7881C102.439 46.1277 102.608 46.4955 102.75 46.8633C102.41 46.7501 101.986 46.6653 101.59 46.6087C101.307 46.5804 100.996 46.637 100.684 46.6936C100.345 46.7501 100.005 46.8067 99.7789 46.7501C99.6092 46.7219 99.4394 46.637 99.2413 46.5238C99.0716 46.4389 98.9018 46.354 98.732 46.2974C98.2227 46.156 97.7417 46.0711 97.1193 46.1277C96.2422 44.8827 95.2801 43.7793 94.2616 42.8173C94.1767 42.8173 94.0918 42.789 94.0352 42.789C95.0821 43.751 96.0724 44.8827 96.9495 46.156C95.8743 46.2126 95.0538 46.3823 94.2899 46.6653C94.0918 46.7501 93.8654 46.8633 93.6391 47.0048C93.6108 47.0331 93.5825 47.0331 93.5542 47.0614C93.0449 46.6087 92.5073 46.1843 91.9697 45.7599C91.1492 45.1374 90.2438 44.5432 89.3101 44.0056C89.6496 43.6661 90.1023 43.4114 90.6399 43.1285H90.6682C90.9511 42.987 91.2624 42.8173 91.5453 42.6758C91.4321 42.6758 91.319 42.6758 91.2058 42.6758C91.0077 42.789 90.8097 42.8738 90.6116 42.987H90.5833C90.074 43.2417 89.593 43.5246 89.1969 43.8924C88.7442 43.6378 88.2915 43.3831 87.8388 43.1285C87.7822 43.1568 87.6973 43.1568 87.6407 43.1851C88.1217 43.4397 88.6027 43.7227 89.0837 43.9773C88.9423 44.1471 88.8008 44.3168 88.6876 44.5149C88.6593 44.5432 88.6876 44.5998 88.7159 44.5998C88.7442 44.5998 88.7725 44.5998 88.8008 44.5715C88.914 44.3734 89.0554 44.2037 89.1969 44.0339C90.1306 44.5715 91.036 45.1657 91.8848 45.8164C92.4224 46.2126 92.9317 46.637 93.4127 47.0614C93.0732 47.2311 92.7337 47.4009 92.4507 47.4292C92.1678 47.4575 91.8848 47.4292 91.6019 47.4009C91.4887 47.4009 91.4038 47.3726 91.2907 47.3726C91.2624 47.2029 91.2341 47.0331 91.2058 46.8916L91.1492 46.637C91.1492 46.6087 91.0926 46.5804 91.0643 46.5804C91.036 46.5804 91.0077 46.637 91.0077 46.6653L91.0643 46.9199C91.0926 47.0614 91.1209 47.2311 91.1492 47.3726C90.8097 47.3726 90.4418 47.4009 90.074 47.599C89.7911 47.0331 89.2818 46.6087 88.7159 46.4389C88.6876 46.4106 88.6593 46.4106 88.631 46.4106C88.2915 46.3257 87.8954 46.2974 87.5558 46.4106C87.5275 46.4106 87.5275 46.3823 87.4992 46.3823C85.4904 46.6936 83.8776 47.3726 82.5478 48.3629C82.6326 47.4009 82.8024 46.4389 83.0854 45.5335C83.0005 45.5901 82.9439 45.675 82.859 45.7599C82.6044 46.6653 82.4346 47.5707 82.378 48.5044C80.5955 49.8625 79.2939 51.7582 78.2187 54.0783C78.1905 54.0218 78.1622 53.9369 78.1339 53.8803C78.1056 53.9369 78.0773 54.0218 78.049 54.0783C78.0773 54.1349 78.1056 54.1915 78.1339 54.2764C77.8226 54.9272 77.5397 55.6345 77.2567 56.3419C76.9455 57.1624 76.6343 57.9829 76.323 58.8318C75.9835 59.9069 75.644 60.9821 75.3044 62.0573C75.9552 60.1616 76.6343 58.2942 77.3699 56.3985C77.6246 55.7194 77.9075 55.0686 78.1905 54.4462C78.8412 55.9175 79.6618 57.3322 80.454 58.5488C79.1525 60.6992 78.2187 63.1042 77.3699 65.9053C76.4079 65.198 75.5874 64.4623 74.8234 63.6984C74.7952 63.755 74.7952 63.8115 74.7669 63.8681C75.5025 64.6038 76.323 65.3394 77.2567 66.0468L77.285 66.0751C77.1153 66.6127 76.9455 67.1786 76.804 67.7444C76.3796 69.3006 75.9552 70.8568 75.5591 72.4413C74.7669 71.9886 73.8614 71.451 72.956 70.8285C72.956 70.8851 72.9277 70.9134 72.9277 70.97C73.8331 71.5642 74.7386 72.1017 75.5308 72.5828C75.0215 74.5916 74.5405 76.6571 74.0878 78.8075L74.2293 78.8358C74.682 76.7137 75.163 74.6482 75.6723 72.6393C75.9552 72.8091 76.2099 72.9506 76.4645 73.092C77.6246 73.7994 78.8129 74.4219 79.973 74.9312C79.69 76.8552 79.5203 78.6943 79.4071 80.4485L79.5486 80.5051C79.6618 78.7509 79.8315 76.9401 80.1145 75.0161C81.3311 75.5536 82.5478 76.0063 83.7078 76.3176C83.9625 76.4025 84.2171 76.4591 84.4718 76.5156C84.4435 76.6571 84.4435 76.7703 84.4152 76.9118C84.302 77.7606 84.2171 78.5811 84.1039 79.4299C84.1039 79.4299 84.1039 79.4299 84.0756 79.4299C84.0474 79.4582 84.0756 79.4865 84.0756 79.5148C83.9625 80.2788 83.8776 81.071 83.7644 81.8349L83.9059 81.8915C84.0191 81.1276 84.1322 80.3637 84.2171 79.628C84.3303 79.7129 84.4718 79.7695 84.5849 79.8544L84.6132 79.7129C84.5849 79.5148 84.4718 79.4299 84.3586 79.3451ZM97.7135 55.2667C97.6286 55.4931 97.572 55.7477 97.5154 55.9458C96.9495 57.7566 96.4402 59.3411 95.3367 60.7841C95.3084 60.7558 95.2802 60.7558 95.2519 60.7558C93.9503 61.2651 92.6488 61.5763 91.3473 61.6329C90.555 60.2465 90.074 58.5205 89.9891 56.9361C90.7814 56.7097 91.6302 56.6248 92.1112 56.7663C92.1395 56.7663 92.1678 56.7663 92.1961 56.7946C93.4976 57.1624 95.3084 56.5965 96.1856 55.5779C96.7232 55.5213 97.2607 55.3799 97.77 55.1535C97.7417 55.2101 97.7135 55.2384 97.7135 55.2667ZM103.768 53.3427C103.316 53.3144 102.863 53.3427 102.325 53.3993C101.844 53.2012 101.279 53.2012 100.769 53.3144C100.543 51.8997 100.034 50.7679 99.3828 49.6079C99.8638 49.6079 100.317 49.6927 100.769 49.7776C100.939 49.8059 101.109 49.8625 101.307 49.8908C102.071 50.0323 102.92 50.0323 103.768 50.0323C103.938 51.164 103.938 52.2958 103.768 53.3427ZM98.7886 46.3257C98.9301 46.354 99.0999 46.4389 99.2696 46.5238C99.4677 46.637 99.6658 46.7219 99.8355 46.7501C100.09 46.8067 100.43 46.7501 100.798 46.6936C101.109 46.637 101.42 46.5804 101.675 46.6087C102.127 46.6653 102.58 46.7501 102.92 46.8916C103.316 47.8536 103.599 48.8722 103.74 49.8908C102.92 49.8908 102.071 49.8625 101.335 49.7493C101.165 49.721 100.967 49.6927 100.798 49.6362C100.288 49.523 99.8355 49.4381 99.2979 49.4664C99.0999 49.1269 98.9301 48.8156 98.732 48.4761L98.5623 48.1649C98.1662 47.4575 97.7417 46.8067 97.289 46.156C97.7983 46.1277 98.2227 46.1843 98.7886 46.3257ZM93.7806 47.0048C94.0069 46.8916 94.2333 46.7501 94.4313 46.6936C95.167 46.3823 95.9875 46.2409 97.0344 46.1843C97.0627 46.1843 97.091 46.1843 97.1193 46.1843C97.572 46.835 97.9964 47.5141 98.4208 48.2497L98.5906 48.561C98.7886 48.8722 98.9584 49.1834 99.1282 49.4947C98.251 49.5513 97.4022 49.8059 96.5817 50.0606C96.3553 50.1172 96.129 50.202 95.9026 50.2586C95.846 49.8342 95.5348 49.3249 95.2802 48.9288C95.2236 48.8722 95.1953 48.7873 95.167 48.7307C94.7426 48.1083 94.2616 47.5424 93.7523 47.0614C93.724 47.0048 93.7523 47.0048 93.7806 47.0048ZM91.6585 47.4858C91.9414 47.5141 92.2244 47.5424 92.5356 47.5141C92.8751 47.4858 93.243 47.2877 93.6108 47.0897C94.1484 47.5707 94.6294 48.1366 95.0538 48.759C95.0821 48.8156 95.1387 48.8722 95.167 48.9571C95.4499 49.3815 95.8177 49.9474 95.7894 50.3435C95.7894 50.3718 95.8177 50.4001 95.846 50.4284C95.846 50.4284 95.846 50.4284 95.8743 50.4284C95.9026 50.4284 95.9592 50.4001 95.9592 50.3718C96.1856 50.3152 96.4402 50.2303 96.6949 50.1737C97.5154 49.9474 98.3642 49.6927 99.213 49.6079C99.2413 49.6079 99.2696 49.6079 99.2979 49.6079C99.9487 50.7962 100.486 51.928 100.684 53.3427C100.203 53.4559 99.7789 53.6822 99.4394 53.9369C98.9584 54.333 98.4774 54.6442 98.0247 54.8706C98.251 54.1349 98.4208 53.3993 98.3642 52.7202C98.3642 52.6919 98.3359 52.6636 98.2793 52.6636C98.251 52.6636 98.2227 52.6919 98.2227 52.7485C98.2793 53.4276 98.0813 54.1915 97.8549 54.9555C97.3173 55.2101 96.7797 55.3516 96.1856 55.4082C96.1573 55.4082 96.1573 55.4082 96.129 55.4365C95.3084 56.4551 93.4693 56.9926 92.2244 56.6248C91.7434 56.4833 90.8946 56.5399 90.074 56.7946C90.0457 55.9458 90.1306 55.1535 90.357 54.4745C90.357 54.4462 90.357 54.3896 90.3004 54.3896C90.2721 54.3896 90.2155 54.3896 90.2155 54.4462C89.9891 55.1535 89.9043 55.9741 89.9326 56.8512C89.5647 56.9644 89.2252 57.1058 88.9423 57.2756C88.4895 57.5585 88.2349 57.8698 88.1217 58.2376C87.6124 57.1058 87.1314 55.9175 86.7919 54.6725C87.0465 54.6159 87.2729 54.6159 87.4992 54.6442C87.5275 54.6442 87.5841 54.6159 87.5841 54.5876C87.5841 54.5593 87.5558 54.5028 87.5275 54.5028C87.3012 54.4745 87.0465 54.4745 86.7919 54.5311C86.707 54.1915 86.6221 53.8803 86.5655 53.5408C86.3392 52.126 86.5089 50.7396 86.9051 49.523C87.1597 49.523 87.4144 49.5513 87.669 49.6362C87.7539 49.6644 87.8671 49.721 87.9802 49.7776C88.15 49.8625 88.3481 49.9757 88.5178 49.9757C88.7442 49.9757 89.0837 49.8625 89.4233 49.7776C89.6779 49.6927 89.9325 49.6362 90.1306 49.5796C90.8945 49.4947 91.7151 49.4947 92.5073 49.4947C93.2713 49.4947 94.0069 49.4947 94.7143 49.4098C94.7426 49.4098 94.7709 49.3815 94.7709 49.3249C94.7709 49.2966 94.7426 49.2683 94.686 49.2683C93.9786 49.3532 93.2713 49.3532 92.479 49.3532C92.1395 49.3532 91.7717 49.3532 91.4321 49.3532C91.6302 48.7307 91.5736 48.1083 91.4887 47.4858C91.4887 47.4858 91.5736 47.4858 91.6585 47.4858ZM88.7442 46.5238C89.3101 46.6936 89.7911 47.118 90.0457 47.6839C90.0457 47.7122 90.074 47.7121 90.1023 47.7121C90.1306 47.7121 90.1306 47.7121 90.1589 47.7121C90.5267 47.4858 90.8945 47.4575 91.2624 47.4575C91.3755 48.08 91.4038 48.7307 91.2058 49.3249C90.8097 49.3249 90.4135 49.3532 90.0174 49.4098C89.7911 49.4381 89.5364 49.523 89.2818 49.6079C88.9705 49.721 88.631 49.8059 88.4047 49.8059C88.2632 49.8059 88.0934 49.721 87.9237 49.6362C87.8105 49.5796 87.6973 49.523 87.5841 49.4947C87.3295 49.4098 87.0748 49.3815 86.8202 49.3815C87.3012 48.1083 87.9802 47.0897 88.7442 46.5238ZM85.4338 70.2626C84.0756 69.6402 82.7175 68.9894 81.3877 68.282C81.3877 68.2254 81.416 68.1406 81.416 68.084C81.8121 65.9619 82.2082 63.8115 82.859 61.8027C83.8493 63.1325 84.9811 64.5755 86.3392 65.6507C85.9714 67.1786 85.6601 68.7064 85.4338 70.2626ZM84.6698 58.0678C85.4338 59.624 86.3109 61.0953 87.2729 62.3968C86.9334 63.4154 86.6504 64.434 86.3958 65.4809C85.0659 64.4057 83.9342 62.9627 82.9439 61.6329C83.3683 60.3597 83.9342 59.143 84.6698 58.0678ZM83.3966 54.9272C83.7361 55.9458 84.1322 56.9644 84.6132 57.9264C83.8493 59.0015 83.2834 60.2182 82.859 61.5197C82.7175 61.3217 82.5478 61.0953 82.4063 60.8972L82.1799 60.5577C81.7555 59.9352 81.2745 59.2279 80.7652 58.4357C81.4726 57.1907 82.3497 56.0306 83.3966 54.9272ZM78.3885 54.1632C79.4637 51.8714 80.7369 49.9757 82.4912 48.6176C82.378 50.683 82.7458 52.7768 83.3683 54.7857C82.2931 55.8892 81.416 57.0775 80.652 58.3225C79.8598 57.0775 79.0393 55.6628 78.3885 54.1632ZM80.652 58.5771C81.1613 59.3411 81.6423 60.0484 82.0385 60.6426L82.2648 60.9821C82.4346 61.2085 82.6043 61.4348 82.7741 61.6895C82.0668 63.755 81.6423 65.9902 81.2745 68.0557C81.2745 68.1123 81.2462 68.1689 81.2462 68.1971C79.973 67.4898 78.728 66.7258 77.568 65.877C78.4168 63.1042 79.3505 60.6992 80.652 58.5771ZM76.6343 72.8657C76.3796 72.7242 76.0967 72.5545 75.8137 72.3847C76.2099 70.7719 76.6343 69.2157 77.0587 67.6313C77.2285 67.0654 77.3699 66.5278 77.5397 65.9902C78.6997 66.839 79.9447 67.603 81.2179 68.3103C81.133 68.7347 81.0482 69.1592 80.9916 69.5836C80.6238 71.3661 80.3408 73.0355 80.1145 74.6482C78.9544 74.1672 77.7943 73.5448 76.6343 72.8657ZM80.2276 74.7614C80.454 73.1486 80.7652 71.451 81.1048 69.6684C81.1896 69.2723 81.2462 68.8479 81.3311 68.4235C82.6609 69.1309 84.0191 69.8099 85.3772 70.4041C85.0659 72.3564 84.8113 74.3087 84.5849 76.261C83.2268 75.9215 81.7555 75.4122 80.2276 74.7614Z" fill="#3BBDE5"/>
<path d="M100.033 55.0964C100.005 55.0964 99.9768 55.0681 99.9485 55.0398C97.4869 50.824 87.0463 43.4675 86.9332 43.4109C86.8766 43.3543 86.8483 43.2694 86.9049 43.2128C86.9615 43.1562 87.0463 43.1279 87.1029 43.1845C87.5273 43.4958 97.7133 50.6259 100.203 54.8983C100.231 54.9549 100.231 55.0398 100.147 55.0964C100.09 55.0964 100.062 55.1247 100.033 55.0964Z" fill="#007A9B"/>
<path d="M92.5921 63.2167C92.5638 63.2167 92.5355 63.1884 92.5072 63.1601C92.4789 63.1035 92.5072 63.0187 92.5638 62.9621C92.6487 62.9055 101.476 58.0389 103.627 55.8885C105.721 53.7947 104.391 48.532 103.485 46.6646C103.457 46.608 103.485 46.5231 103.542 46.4665C103.599 46.4383 103.683 46.4665 103.74 46.5231C104.561 48.1642 106.145 53.7382 103.825 56.0583C101.618 58.2652 93.0448 62.9904 92.677 63.1884C92.6487 63.245 92.6204 63.245 92.5921 63.2167Z" fill="#007A9B"/>
<path d="M100.855 56.9354C100.77 56.8788 100.741 56.7939 100.77 56.7373C100.77 56.709 102.043 54.1343 102.043 53.0591C102.043 51.8424 101.194 47.4568 97.2895 43.4391C97.2329 43.3825 97.2329 43.2976 97.2895 43.241C97.3461 43.1844 97.431 43.1844 97.4876 43.241C102.213 48.0793 102.326 53.0025 102.326 53.0591C102.326 54.2191 101.053 56.7656 101.024 56.8788C100.996 56.9071 100.911 56.9354 100.855 56.9354Z" fill="#007A9B"/>
<path d="M88.7444 59.9914C88.7161 59.9914 88.6878 59.9631 88.6595 59.9348C88.6312 59.8782 85.2925 55.1814 84.0475 52.6066C82.6611 49.664 89.1122 45.1652 89.3951 44.9672C89.4517 44.9106 89.5366 44.9389 89.5932 44.9955C89.6498 45.0521 89.6215 45.137 89.5649 45.1935C89.5083 45.2501 83.0289 49.7772 84.3022 52.4934C85.5188 55.0682 88.8576 59.7368 88.8858 59.7651C88.9424 59.8216 88.9141 59.9065 88.8576 59.9631C88.8293 60.0197 88.7727 60.0197 88.7444 59.9914Z" fill="#007A9B"/>
<path d="M88.1499 59.1423C88.0933 59.1423 88.065 59.0857 88.0367 59.0291C88.0084 58.7745 87.103 52.9176 87.2445 51.9839C87.386 50.9653 89.8475 47.5417 91.234 46.4099C91.2906 46.3533 91.3754 46.3816 91.432 46.4382C91.4886 46.4948 91.4603 46.5797 91.4037 46.6363C90.0173 47.7681 87.6406 51.1917 87.5274 52.0405C87.4143 52.9459 88.2914 58.9443 88.3197 59.0291C88.3197 59.114 88.2914 59.1706 88.2065 59.1989C88.1782 59.1706 88.1499 59.1706 88.1499 59.1423Z" fill="#007A9B"/>
<path d="M94.4882 60.6139C93.9223 60.4441 91.97 57.0771 90.8382 54.9833C88.0654 53.2857 88.0088 50.4563 88.0088 50.428C88.0088 50.3431 88.0654 50.2865 88.1503 50.2865C88.2351 50.2865 88.2917 50.3431 88.2917 50.428C88.2917 50.4563 88.3483 53.1725 91.008 54.757C91.0363 54.757 91.0363 54.7853 91.0646 54.8136C92.4793 57.3883 94.1203 60.0763 94.5165 60.3026C94.856 59.9631 95.7048 56.5961 96.3839 53.4554C96.4122 53.3706 96.4688 53.3423 96.5536 53.3423C96.6385 53.3706 96.6668 53.4272 96.6668 53.512C95.9878 56.7376 95.0823 60.5856 94.5448 60.5856C94.5165 60.6139 94.5165 60.6139 94.4882 60.6139Z" fill="#007A9B"/>
<path d="M110.7 92.1903H62.7412V121.729H110.7V92.1903Z" fill="#F4B33D"/>
<path d="M110.7 92.1903H89.4512V121.729H110.7V92.1903Z" fill="#EE9516"/>
<path d="M114.803 83.8436H93.5538L89.4512 92.1904H110.7L114.803 83.8436Z" fill="#F4B33D"/>
<path d="M79.8593 83.8436H58.6104L62.7413 92.1904H83.962L79.8593 83.8436Z" fill="#FBD66F"/>
<path d="M93.6388 106.366H85.292V109.987H93.6388V106.366Z" fill="#FBD66F"/>
</svg>
