<svg width="1920" height="1104" viewBox="0 0 1920 1104" fill="none" xmlns="http://www.w3.org/2000/svg">
<rect width="1920" height="1104" fill="#F5F1E8"/>
<path d="M1704.3 207.7C1705.1 207 1706.3 206.9 1707.3 207.4L1712.4 210.5L1716.9 206.6C1717.7 205.9 1718.9 205.8 1719.9 206.3C1720.8 206.9 1721.3 208 1721.1 209L1719.8 214.8L1724.9 217.9C1725.8 218.5 1726.3 219.6 1726.1 220.6C1725.9 221.7 1725 222.5 1723.9 222.5L1718 223L1716.7 228.8C1716.5 229.9 1715.6 230.7 1714.5 230.8C1713.4 230.9 1712.4 230.3 1712 229.3L1709.7 223.8L1703.8 224.3C1702.7 224.4 1701.7 223.8 1701.3 222.8C1700.9 221.8 1701.1 220.6 1702 219.9L1706.5 216L1704.2 210.5C1704 210 1703.9 209.5 1704.1 209C1703.6 208.5 1703.9 208.1 1704.3 207.7Z" fill="white"/>
<path d="M1694 785C1694.6 784.1 1695.8 783.7 1696.8 784.1L1702.5 785.9L1706 781.1C1706.6 780.2 1707.8 779.8 1708.8 780.2C1709.8 780.5 1710.5 781.5 1710.5 782.6L1710.5 788.6L1716.2 790.4C1717.2 790.7 1717.9 791.7 1717.9 792.8C1717.9 793.9 1717.2 794.9 1716.2 795.2L1710.5 797L1710.5 803C1710.5 804.1 1709.8 805.1 1708.8 805.4C1707.8 805.7 1706.6 805.4 1706 804.5L1702.5 799.7L1696.8 801.5C1695.8 801.8 1694.6 801.5 1694 800.6C1693.4 799.7 1693.4 798.5 1694 797.6L1697.5 792.8L1694 788C1693.7 787.6 1693.5 787 1693.5 786.5C1693.5 785.9 1693.7 785.4 1694 785Z" fill="white"/>
<path d="M491.3 111.4C491.5 110.3 492.4 109.5 493.4 109.3L499.3 108.5L500.4 102.6C500.6 101.5 501.5 100.7 502.5 100.6C503.6 100.5 504.6 101 505.1 102L507.7 107.4L513.6 106.6C514.7 106.5 515.7 107 516.2 108C516.7 109 516.5 110.2 515.7 110.9L511.4 115L514 120.4C514.5 121.4 514.3 122.6 513.5 123.3C512.7 124.1 511.5 124.2 510.6 123.7L505.4 120.9L501.1 125C500.3 125.8 499.1 125.9 498.2 125.4C497.2 124.9 496.7 123.8 496.9 122.7L498 116.8L492.7 114C492.2 113.7 491.9 113.3 491.6 112.9C491.2 112.5 491.2 112 491.3 111.4Z" fill="white"/>
<path d="M1822.8 657C1823 655.9 1823.9 655.1 1824.9 655L1830.8 654.2L1831.9 648.3C1832.1 647.2 1833 646.4 1834 646.3C1835.1 646.2 1836.1 646.7 1836.6 647.7L1839.2 653.1L1845.1 652.3C1846.2 652.2 1847.2 652.7 1847.7 653.7C1848.2 654.7 1848 655.9 1847.2 656.6L1842.9 660.7L1845.5 666.1C1846 667.1 1845.8 668.3 1845 669C1844.2 669.8 1843 669.9 1842.1 669.4L1836.9 666.6L1832.6 670.7C1831.8 671.5 1830.6 671.6 1829.7 671.1C1828.7 670.6 1828.2 669.5 1828.4 668.4L1829.5 662.5L1824.2 659.7C1823.7 659.4 1823.4 659 1823.1 658.6C1822.7 658.1 1822.7 657.5 1822.8 657Z" fill="white"/>
<path d="M1661 467.3C1662 466.8 1663.2 467 1663.9 467.7L1668.2 471.9L1673.5 469.2C1674.5 468.7 1675.7 468.9 1676.4 469.6C1677.2 470.4 1677.4 471.5 1676.9 472.5L1674.2 477.9L1678.4 482.1C1679.2 482.8 1679.4 484 1678.9 485C1678.4 486 1677.4 486.5 1676.3 486.4L1670.4 485.5L1667.7 490.8C1667.2 491.8 1666.1 492.3 1665.1 492.2C1664 492 1663.2 491.2 1663 490.1L1662 484.2L1656.1 483.3C1655 483.1 1654.2 482.3 1654 481.2C1653.8 480.1 1654.4 479.1 1655.3 478.5L1660.6 475.8L1659.6 469.9C1659.5 469.4 1659.6 468.8 1659.8 468.4C1660.1 467.9 1660.5 467.5 1661 467.3Z" fill="white"/>
<path d="M462.6 828C463.5 827.4 464.7 827.5 465.6 828.2L470.2 832L475.2 828.8C476.1 828.2 477.3 828.3 478.2 829C479 829.7 479.4 830.8 479 831.9L476.9 837.5L481.5 841.3C482.3 842 482.7 843.1 482.3 844.2C481.9 845.2 480.9 845.9 479.8 845.8L473.8 845.5L471.7 851.1C471.3 852.1 470.3 852.8 469.2 852.7C468.1 852.6 467.2 851.9 466.9 850.8L465.4 845L459.4 844.7C458.3 844.6 457.4 843.9 457.1 842.8C456.8 841.7 457.3 840.6 458.2 840L463.2 836.8L461.7 831C461.6 830.5 461.6 829.9 461.8 829.4C461.8 828.7 462.1 828.3 462.6 828Z" fill="white"/>
<path d="M1089.6 405.5C1090.2 404.6 1091.4 404.2 1092.4 404.6L1098.1 406.4L1101.6 401.6C1102.2 400.7 1103.4 400.3 1104.4 400.7C1105.4 401 1106.1 402 1106.1 403.1L1106.1 409.1L1111.8 410.9C1112.8 411.2 1113.5 412.2 1113.5 413.3C1113.5 414.4 1112.8 415.4 1111.8 415.7L1106.1 417.5L1106.1 423.5C1106.1 424.6 1105.4 425.6 1104.4 425.9C1103.4 426.2 1102.2 425.9 1101.6 425L1098.1 420.2L1092.4 422C1091.4 422.3 1090.2 422 1089.6 421.1C1089 420.2 1089 419 1089.6 418.1L1093.1 413.3L1089.6 408.5C1089.3 408.1 1089.1 407.5 1089.1 407C1089.1 406.5 1089.2 405.9 1089.6 405.5Z" fill="white"/>
<path d="M840.298 836.101C841.298 835.601 842.398 835.701 843.198 836.501L847.498 840.601L852.798 837.801C853.798 837.301 854.898 837.401 855.698 838.201C856.498 839.001 856.698 840.101 856.198 841.101L853.598 846.501L857.898 850.601C858.698 851.401 858.898 852.501 858.398 853.501C857.898 854.501 856.898 855.101 855.798 854.901L849.898 854.101L847.298 859.501C846.798 860.501 845.798 861.001 844.698 860.901C843.598 860.801 842.798 859.901 842.598 858.901L841.498 853.001L835.598 852.201C834.498 852.101 833.698 851.201 833.498 850.201C833.298 849.101 833.798 848.001 834.798 847.501L840.098 844.701L838.998 838.801C838.898 838.301 838.998 837.701 839.198 837.301C839.498 836.801 839.898 836.401 840.298 836.101Z" fill="white"/>
<path d="M109.398 194.8C109.698 193.8 110.698 193 111.798 193L117.798 192.9L119.598 187.2C119.898 186.2 120.898 185.4 121.998 185.4C123.098 185.4 124.098 186.1 124.398 187.1L126.298 192.7L132.298 192.6C133.398 192.6 134.398 193.3 134.698 194.3C135.098 195.3 134.698 196.5 133.798 197.1L128.998 200.7L130.898 206.3C131.298 207.3 130.898 208.5 129.998 209.1C129.098 209.8 127.898 209.8 126.998 209.1L122.198 206L117.398 209.6C116.498 210.3 115.298 210.3 114.398 209.6C113.498 209 113.098 207.8 113.398 206.8L115.198 201.1L110.298 197.7C109.898 197.4 109.498 196.9 109.398 196.5C109.198 195.9 109.198 195.4 109.398 194.8Z" fill="white"/>
<path d="M107.1 715C107.6 714 108.6 713.4 109.7 713.6L115.6 714.3L118.1 708.9C118.6 707.9 119.6 707.3 120.7 707.5C121.8 707.6 122.7 708.5 122.9 709.5L124 715.4L129.9 716.1C131 716.2 131.9 717.1 132.1 718.1C132.3 719.2 131.8 720.3 130.8 720.8L125.6 723.7L126.7 729.6C126.9 730.7 126.4 731.8 125.4 732.3C124.4 732.8 123.3 732.7 122.5 731.9L118.1 727.8L112.9 730.7C111.9 731.2 110.8 731.1 110 730.3C109.2 729.6 109 728.4 109.4 727.4L111.9 722L107.5 717.9C107.1 717.5 106.8 717 106.7 716.5C106.8 716 106.9 715.5 107.1 715Z" fill="white"/>
<path d="M227.296 446.712C228.096 446.012 229.296 445.912 230.296 446.412L235.396 449.512L239.796 445.612C240.596 444.912 241.796 444.813 242.796 445.313C243.696 445.913 244.196 447.012 243.996 448.012L242.696 453.813L247.796 456.912C248.696 457.512 249.196 458.612 248.996 459.612C248.796 460.712 247.896 461.512 246.796 461.612L240.896 462.112L239.596 467.912C239.396 469.012 238.396 469.813 237.396 469.813C236.296 469.913 235.296 469.313 234.896 468.313L232.596 462.813L226.696 463.313C225.596 463.413 224.596 462.813 224.196 461.813C223.796 460.813 223.996 459.612 224.896 458.912L229.396 455.012L227.096 449.512C226.896 449.012 226.796 448.512 226.996 447.912C226.596 447.512 226.796 447.112 227.296 446.712Z" fill="white"/>
<path d="M1282.82 196.411C1282.81 210.895 1297.11 222.044 1311.08 217.898C1311.26 217.946 1311.47 217.827 1311.47 217.827C1304.75 230.436 1293.63 240.029 1280.08 243.938C1274.88 245.526 1270.37 248.738 1267.72 253.361C1211.28 350.099 1062.4 288.13 1092.43 173.466C1122.49 55.7709 1282.49 85.7877 1282.82 196.411Z" fill="white"/>
<path d="M1179.13 284.201C1176.84 284.201 1174.56 284.025 1172.28 283.849C1163.15 283.147 1154.38 280.862 1146.48 277.524C1140.86 279.105 1134.72 276.645 1130.86 273.131C1126.99 269.616 1124.54 265.048 1122.25 260.128C1107.69 243.611 1101.19 219.186 1105.23 195.289C1106.63 187.382 1109.09 180.177 1112.25 173.5C1112.07 171.216 1112.6 169.283 1113.83 167.701C1114.71 166.647 1115.76 165.769 1116.81 165.241C1121.73 157.51 1127.52 150.481 1133.66 143.98C1145.6 127.99 1168.42 122.894 1186.32 126.408C1197.91 128.693 1209.32 133.964 1221.08 142.75C1227.39 142.398 1234.59 143.628 1242.31 146.44C1253.2 150.481 1261.62 155.928 1267.06 162.957C1273.91 171.567 1276.37 182.637 1273.21 191.774C1271.98 195.289 1269.87 198.803 1267.24 201.615C1267.94 204.602 1268.47 207.589 1268.64 210.752C1269.35 223.755 1264.61 237.812 1255.48 249.409C1254.07 251.166 1252.5 252.923 1250.92 254.681C1251.27 255.032 1251.44 255.735 1251.09 256.438C1247.05 262.412 1240.73 266.629 1233.71 268.386C1230.2 270.495 1226.69 272.428 1222.83 274.185C1208.44 280.687 1193.34 284.201 1179.13 284.201ZM1149.64 275.942C1156.66 278.754 1164.38 280.511 1172.46 281.214C1175.61 281.389 1178.77 281.565 1182.11 281.389C1174.74 279.984 1168.77 274.185 1164.91 269.616C1162.1 266.454 1159.47 263.115 1157.18 259.601C1156.83 266.102 1154.9 272.604 1149.64 275.942ZM1204.05 267.508C1204.05 267.684 1203.87 267.859 1203.87 268.035C1201.59 273.306 1197.03 278.402 1191.06 280.687C1201.24 279.281 1211.6 276.294 1221.6 271.549C1223.36 270.671 1225.11 269.792 1226.87 268.914C1225.99 268.914 1224.94 268.914 1224.06 268.738C1219.85 268.211 1215.81 266.805 1212.3 264.696C1209.67 266.102 1206.86 267.156 1204.05 267.508ZM1157.18 255.208C1159.99 259.776 1163.33 263.994 1166.66 268.035C1173.16 275.591 1178.95 279.105 1184.92 279.105C1184.92 279.105 1184.92 279.105 1185.09 279.105C1191.24 279.105 1197.73 274.712 1200.89 268.035C1185.97 269.616 1171.58 263.466 1157.18 255.208ZM1128.57 266.278C1129.8 268.035 1131.03 269.616 1132.61 271.022C1135.07 273.131 1138.4 274.888 1141.91 275.239C1137 272.779 1132.61 269.792 1128.57 266.278ZM1124.54 258.546C1125.41 259.425 1126.29 260.304 1126.99 261.182C1132.61 266.629 1139.11 271.198 1146.48 274.536C1146.65 274.536 1146.83 274.361 1146.83 274.361C1153.5 271.374 1154.9 262.412 1154.02 255.208C1153.5 254.329 1152.8 253.275 1152.27 252.396C1151.04 251.693 1149.81 250.991 1148.76 250.288L1115.58 230.08C1116.29 239.745 1120.15 249.058 1123.66 257.141C1124.01 257.668 1124.36 258.019 1124.54 258.546ZM1214.76 263.115C1217.74 264.696 1221.08 265.751 1224.41 266.278C1227.22 266.629 1230.03 266.454 1232.84 265.751C1241.26 260.655 1248.11 254.505 1253.55 247.828C1262.32 236.933 1266.89 223.403 1266.19 211.103C1266.01 208.643 1265.66 206.183 1265.13 203.899C1260.22 208.292 1253.72 211.63 1246 213.563C1246.35 215.672 1246.53 217.78 1246.7 219.889C1247.4 228.148 1246.35 234.649 1243.72 239.921C1240.21 246.773 1233.36 251.166 1226.69 250.639C1224.41 250.463 1222.48 249.936 1220.55 249.058C1220.9 250.815 1220.9 252.572 1220.55 254.329C1220.02 258.019 1217.74 261.006 1214.76 263.115ZM1156.31 251.518C1171.58 260.479 1186.67 267.332 1202.12 265.224C1203 262.764 1203.52 259.952 1203.7 256.965C1202.29 255.032 1201.07 253.099 1200.19 250.815C1198.43 246.598 1197.91 242.029 1197.56 237.636C1192.99 236.055 1188.6 233.77 1184.22 231.486C1181.93 230.256 1179.48 229.026 1177.02 227.796C1167.01 223.052 1155.96 220.768 1144.9 220.592C1149.81 230.432 1154.38 240.623 1156.31 251.518ZM1206.16 259.776C1205.98 261.534 1205.63 263.115 1205.1 264.696C1206.68 264.345 1208.26 263.818 1209.84 263.115C1208.44 262.061 1207.21 261.006 1206.16 259.776ZM1206.51 256.086C1208.26 258.195 1210.19 260.128 1212.48 261.534C1215.28 259.601 1217.57 257.141 1218.27 253.626C1218.62 251.518 1218.44 249.233 1217.39 246.773C1214.76 244.841 1212.48 242.205 1210.37 239.393C1209.49 239.393 1208.61 239.393 1207.74 239.393C1206.68 239.393 1205.81 239.218 1204.75 239.218C1205.1 240.975 1205.45 242.732 1205.81 244.489C1206.33 248.706 1206.68 252.572 1206.51 256.086ZM1200.54 238.339C1200.89 242.381 1201.42 246.071 1202.82 249.761C1203.17 250.463 1203.52 251.166 1203.87 251.869C1203.7 249.585 1203.52 247.301 1203.17 244.841C1202.82 242.732 1202.47 240.623 1201.94 238.515C1201.42 238.691 1200.89 238.515 1200.54 238.339ZM1113.3 177.541C1110.85 183.164 1108.91 189.139 1107.86 195.64C1104.7 214.969 1108.39 234.473 1117.87 249.761C1115.23 243.083 1113.13 235.703 1112.95 228.323L1111.2 227.269C1110.85 227.093 1110.49 226.566 1110.49 226.039C1110.49 225.512 1110.85 225.16 1111.2 224.985C1111.72 224.809 1112.25 224.458 1112.95 224.282C1113.83 213.387 1119.27 203.899 1127.52 199.506C1123.31 194.234 1119.45 188.612 1115.94 182.989C1114.88 181.056 1113.83 179.299 1113.3 177.541ZM1219.32 245.192C1221.6 246.773 1224.06 247.828 1226.87 248.003C1233.36 248.531 1238.8 243.611 1241.44 238.691C1243.89 233.946 1244.77 227.796 1244.07 220.065C1243.89 218.132 1243.72 216.023 1243.37 214.09C1242.31 214.266 1241.26 214.442 1240.21 214.617C1235.82 225.512 1226.87 235.703 1215.28 238.515C1216.86 240.448 1218.27 242.732 1219.32 245.192ZM1115.58 226.742L1149.81 247.652C1147.18 242.732 1145.07 237.636 1143.14 232.365C1141.91 229.026 1140.68 224.985 1140.33 220.592C1131.91 220.943 1123.48 222.7 1115.58 225.863C1115.58 226.215 1115.58 226.566 1115.58 226.742ZM1143.49 223.403C1144.02 226.39 1144.9 229.202 1145.78 231.662C1147.71 237.109 1149.99 242.381 1152.8 247.476C1150.69 239.218 1147.18 231.135 1143.49 223.403ZM1204.05 236.406C1205.28 236.582 1206.51 236.758 1207.74 236.758C1207.91 236.758 1208.26 236.758 1208.44 236.758C1207.74 235.703 1207.03 234.825 1206.51 233.77L1205.28 232.013C1205.1 231.662 1204.75 231.31 1204.58 230.959C1203.7 230.08 1202.82 229.378 1201.94 228.499C1202.65 231.31 1203.35 233.946 1204.05 236.406ZM1206.51 229.378C1208.79 231.486 1210.9 233.595 1213 235.879C1213.18 236.055 1213.18 236.055 1213.35 236.23C1224.24 234.122 1232.84 224.985 1237.22 214.969C1224.24 216.55 1211.07 214.442 1198.08 211.455C1198.96 214.617 1199.49 217.605 1199.84 220.768C1202.12 223.579 1204.4 226.566 1206.51 229.378ZM1200.36 235.528C1200.71 235.528 1200.89 235.703 1201.24 235.703C1200.89 234.473 1200.54 233.243 1200.36 232.189C1200.19 233.419 1200.19 234.473 1200.36 235.528ZM1144.37 217.956C1156.13 217.956 1167.72 220.416 1178.42 225.336C1180.88 226.39 1183.34 227.796 1185.62 229.026C1189.48 231.135 1193.52 233.068 1197.56 234.649C1197.56 233.243 1197.56 232.013 1197.38 230.608C1197.38 228.499 1197.38 226.566 1197.2 224.458C1196.5 223.755 1195.62 223.052 1194.92 222.349C1191.59 219.362 1188.25 216.199 1184.92 213.212C1182.46 210.927 1180.18 208.643 1178.25 206.359C1169.82 204.075 1161.22 201.79 1152.62 200.209C1152.45 200.209 1152.27 200.209 1152.09 200.033C1151.39 200.384 1150.69 200.736 1150.16 201.087C1149.64 201.439 1149.29 201.79 1148.76 202.142C1148.41 203.547 1148.06 204.953 1147.53 206.359C1146.48 209.17 1145.07 210.927 1143.32 211.806C1143.14 212.86 1142.97 213.915 1142.79 214.969C1142.79 215.32 1142.79 215.672 1142.79 216.023C1143.14 216.726 1143.49 217.253 1143.67 217.956C1144.02 217.956 1144.2 217.956 1144.37 217.956ZM1129.28 201.439C1121.9 205.129 1116.99 213.387 1115.76 223.052C1123.48 220.065 1131.73 218.483 1140.16 218.132C1140.16 217.605 1140.16 217.077 1140.16 216.726C1139.28 214.793 1138.23 212.86 1137.17 210.752C1136.12 210.049 1135.42 208.995 1134.89 208.467C1133.14 206.183 1131.21 203.899 1129.28 201.439ZM1186.67 208.643C1189.66 211.103 1192.64 213.563 1195.45 216.375C1194.92 214.442 1194.22 212.509 1193.69 210.4C1191.24 209.873 1188.95 209.346 1186.67 208.643ZM1197.2 208.643C1210.9 211.982 1224.76 214.09 1238.28 212.333C1238.63 211.103 1238.98 210.049 1239.33 208.819C1239.86 206.535 1240.21 204.25 1240.56 201.966C1235.29 185.273 1225.64 169.81 1215.46 155.226C1213.7 152.766 1211.95 150.306 1210.19 148.021C1201.07 152.414 1194.4 162.43 1192.29 174.379C1190.89 182.813 1191.76 191.423 1193.34 199.154C1194.92 202.142 1196.15 205.305 1197.2 208.643ZM1242.14 207.94C1241.96 208.467 1241.96 208.819 1241.79 209.346C1241.61 210.225 1241.44 210.927 1241.09 211.806C1241.61 211.63 1242.31 211.63 1242.84 211.455C1242.67 210.225 1242.49 209.17 1242.14 207.94ZM1243.19 201.615C1244.07 204.602 1244.95 207.765 1245.47 210.927C1253.2 208.995 1259.69 205.48 1264.43 200.912C1260.04 185.273 1248.81 172.094 1239.86 162.957C1233.19 155.928 1226.69 150.13 1220.37 145.386C1218.62 145.561 1217.04 145.737 1215.46 146.264C1222.83 151.184 1229.15 157.51 1233.71 164.714C1241.09 175.609 1244.42 188.963 1243.19 201.615ZM1139.46 208.995C1139.98 209.346 1140.68 209.697 1141.39 209.697C1142.44 206.183 1144.2 203.196 1146.65 200.912C1146.83 200.384 1146.83 199.857 1147 199.33C1143.14 198.979 1139.28 198.803 1135.42 199.682C1135.95 201.087 1136.47 202.317 1137.17 203.723C1137.7 205.305 1138.58 207.237 1139.46 208.995ZM1180.53 204.25H1180.7C1184.57 205.305 1188.6 206.359 1192.64 207.413C1191.94 204.953 1191.24 202.317 1190.71 199.682C1186.32 190.896 1180 183.164 1172.28 177.19C1169.3 175.081 1166.31 173.149 1162.98 171.391C1163.5 175.257 1164.56 179.123 1165.96 182.989C1168.77 189.666 1172.81 196.167 1178.95 203.02C1179.65 203.547 1180.18 203.899 1180.53 204.25ZM1131.91 200.384C1132.44 201.087 1133.14 201.79 1133.66 202.493C1133.31 201.615 1132.96 200.912 1132.61 200.209C1132.26 200.209 1132.08 200.384 1131.91 200.384ZM1158.94 198.803C1162.8 199.682 1166.49 200.56 1170.35 201.615C1167.01 200.033 1162.98 198.803 1158.94 198.803ZM1158.76 196.167C1163.85 196.167 1168.94 197.924 1172.81 199.857C1168.77 194.586 1165.96 189.666 1163.68 184.394C1161.75 179.826 1160.69 175.081 1160.34 170.513C1156.66 168.931 1152.8 167.526 1148.93 166.647C1148.76 170.864 1149.11 175.257 1149.46 179.826C1149.81 185.624 1150.34 191.423 1149.81 197.222C1150.51 197.397 1151.22 197.397 1152.09 197.573C1154.2 196.519 1156.48 196.167 1158.76 196.167ZM1224.59 145.034C1230.2 149.603 1236 154.874 1241.79 160.848C1250.56 169.986 1261.8 182.989 1266.54 198.452C1268.47 195.992 1270.05 193.532 1270.93 190.72C1273.73 182.461 1271.45 172.27 1265.13 164.363C1259.87 157.686 1251.97 152.414 1241.44 148.724C1235.29 146.44 1229.68 145.21 1224.59 145.034ZM1115.06 173.851C1115.41 175.96 1116.46 178.596 1118.39 181.407C1122.08 187.206 1126.12 192.829 1130.33 198.276C1130.86 198.1 1131.38 197.924 1131.73 197.749C1127.17 185.8 1125.24 174.906 1125.94 165.417C1124.89 165.593 1123.66 165.769 1122.61 165.944C1121.38 166.12 1119.97 166.471 1118.92 166.999C1117.52 169.283 1116.11 171.567 1115.06 173.851ZM1128.57 165.066C1127.7 174.379 1129.63 185.097 1134.19 197.046C1138.4 196.167 1142.79 196.167 1147.18 196.694C1147.71 191.247 1147.35 185.449 1146.83 179.826C1146.48 175.257 1146.13 170.513 1146.3 165.944C1140.33 164.89 1134.37 164.539 1128.57 165.066ZM1213.35 147.67C1214.76 149.603 1216.16 151.536 1217.57 153.468C1226.52 166.296 1235.12 179.826 1240.73 194.41C1240.38 184.394 1237.22 174.379 1231.61 165.769C1227.04 158.74 1220.72 152.59 1213.35 147.67ZM1162.8 168.58C1166.66 170.513 1170.52 172.621 1173.86 175.257C1180 179.826 1185.27 185.624 1189.48 192.126C1188.78 186.152 1188.6 179.826 1189.66 173.676C1191.76 161.2 1198.78 150.657 1208.44 145.737C1207.74 145.034 1207.03 144.331 1206.33 143.628C1203.17 142.047 1199.84 140.641 1196.33 139.587C1191.59 138.005 1187.02 137.127 1182.64 136.951C1176.32 138.884 1170.35 143.453 1166.84 149.778C1163.85 155.226 1162.45 161.727 1162.8 168.58ZM1148.93 163.836C1152.8 164.714 1156.48 165.944 1160.17 167.35C1159.99 160.497 1161.4 153.996 1164.56 148.373C1167.19 143.628 1171.23 139.587 1175.79 136.951C1174.74 137.127 1173.51 137.303 1172.46 137.478C1164.03 139.06 1157.01 143.804 1153.15 150.13C1150.51 154.347 1149.46 158.916 1148.93 163.836ZM1128.4 153.82C1125.76 156.983 1123.31 160.146 1121.03 163.484C1121.38 163.484 1121.73 163.309 1122.08 163.309C1123.48 162.957 1124.89 162.781 1126.12 162.606C1126.64 159.618 1127.34 156.631 1128.4 153.82ZM1134.37 162.254C1138.4 162.254 1142.44 162.606 1146.3 163.309C1146.83 158.213 1148.06 153.293 1150.69 148.9C1154.9 141.871 1162.63 136.775 1171.75 135.018C1175.09 134.315 1178.6 134.14 1182.11 134.315C1186.67 132.91 1191.59 132.91 1195.98 134.315C1200.54 135.721 1204.4 138.357 1207.74 141.52C1209.32 142.398 1210.9 143.101 1212.48 144.155C1214.05 143.628 1215.63 143.277 1217.21 142.925C1206.68 135.545 1196.33 130.801 1185.97 128.693C1172.1 125.881 1155.25 128.693 1143.32 137.83L1143.14 138.005C1140.68 140.465 1138.23 142.75 1135.95 145.386C1134.37 147.494 1132.96 149.778 1131.91 152.238C1130.5 155.401 1129.45 158.74 1128.92 162.254C1130.68 162.254 1132.61 162.254 1134.37 162.254Z" fill="#D1BCA1"/>
<path d="M1191.25 200.083C1139.6 213.592 890.356 262.123 865.365 242.11C824.696 209.542 956.332 185.574 901.852 218.595C879.488 232.15 715.919 351.681 569.971 383.702C456.012 421.227 491.512 506.809 514.492 559.817" stroke="#D1BCA1" stroke-width="3" stroke-linecap="round"/>
<path d="M1183.26 203.085C1212.24 233.605 1243.88 208.586 1247.73 250.115C1252.54 302.027 1295.32 330.236 1277.72 393.208C1263.63 443.586 1382.47 519.186 1382.68 565.821" stroke="#D1BCA1" stroke-width="3" stroke-linecap="round"/>
<path d="M1231.73 179.57C1184.99 205.383 1163.74 248.021 1137.77 280.635C1105.3 321.403 1020.59 348.898 1000.82 411.22C984.992 461.078 986.052 569.465 960.33 608.348" stroke="#D1BCA1" stroke-width="3" stroke-linecap="round"/>
<mask id="mask0_4210_10159" style="mask-type:luminance" maskUnits="userSpaceOnUse" x="1255" y="101" width="353" height="575">
<path d="M1607.6 101.019H1255.72V675.443H1607.6V101.019Z" fill="white"/>
</mask>
<g mask="url(#mask0_4210_10159)">
<path d="M1500.26 264.231C1500.26 264.231 1493.84 291.969 1467.39 297.767C1465.35 293.536 1463.47 289.618 1463.32 288.835C1462.69 286.954 1460.34 286.641 1460.34 286.641L1461.12 285.23C1461.12 285.23 1481.48 284.133 1485.23 282.096C1488.99 280.059 1490.24 277.081 1490.09 275.514C1493.84 272.223 1497.29 268.305 1500.26 264.231Z" fill="#6D263B"/>
<path d="M1509.5 192.143C1510.91 191.986 1512.47 191.986 1513.88 192.143C1518.26 192.927 1522.02 195.748 1524.21 199.509C1525.15 201.076 1525.93 202.8 1526.4 204.68C1527.03 207.031 1527.19 209.538 1527.03 212.046C1526.56 218.471 1523.74 224.583 1519.05 228.97C1517.79 230.224 1516.54 231.164 1514.98 232.105C1514.04 232.732 1513.1 233.202 1512.16 233.672L1510.59 243.545C1509.5 248.559 1506.84 254.515 1502.77 260.626C1501.98 261.88 1501.2 262.977 1500.26 264.231C1497.29 268.305 1493.84 272.223 1489.93 275.671C1489.62 274.104 1482.41 274.104 1473.49 274.104C1464.57 274.104 1448.29 275.357 1445.31 276.924C1445 277.081 1444.84 277.238 1444.37 277.395C1433.57 270.186 1425.12 260.47 1421.68 252.947L1418.08 243.701C1416.98 243.388 1415.88 243.075 1414.94 242.761C1413.38 242.134 1411.81 241.507 1410.4 240.567C1404.93 237.276 1400.86 231.791 1399.13 225.68C1397.88 221.448 1397.88 216.904 1399.29 212.829C1400.7 208.755 1403.83 205.15 1407.9 203.426C1409.31 202.956 1410.72 202.486 1412.28 202.486C1431.38 193.083 1445.47 172.397 1457.05 154.532C1457.68 160.957 1455.8 167.696 1451.89 172.868C1465.19 167.539 1476.15 156.413 1481.48 142.936C1484.92 161.584 1494.94 179.293 1509.5 192.143Z" fill="#FFD1B8"/>
<path d="M1502.77 260.626C1502.77 260.626 1505.58 282.88 1508.09 296.984C1508.56 299.648 1509.03 302.155 1509.5 304.036C1509.5 304.036 1489.77 340.079 1472.08 346.191C1460.03 350.266 1452.83 346.505 1449.38 343.684C1450.32 338.669 1450.79 332.714 1450.01 326.759L1455.02 316.416C1455.02 316.416 1455.65 323.625 1460.03 328.013C1464.41 332.401 1469.42 330.99 1469.42 330.99L1472.55 330.207C1472.55 330.207 1472.87 312.185 1472.55 310.147C1472.4 308.894 1469.73 303.252 1467.39 298.081C1493.84 292.126 1500.26 264.544 1500.26 264.544C1501.2 263.134 1501.98 261.88 1502.77 260.626Z" fill="#FFD1B8"/>
<path d="M1444.53 277.395C1444.84 277.238 1445.16 277.081 1445.47 276.924C1448.44 275.514 1464.72 274.26 1473.65 274.104C1482.41 274.104 1489.77 274.26 1490.08 275.671C1490.24 277.238 1489.15 280.215 1485.23 282.253C1481.47 284.29 1461.12 285.387 1461.12 285.387L1460.34 286.797C1460.34 286.797 1462.69 287.111 1463.32 288.991C1463.63 289.775 1465.51 293.693 1467.39 297.924C1469.89 303.095 1472.4 308.737 1472.55 309.991C1472.86 312.185 1472.55 330.05 1472.55 330.05L1469.42 330.833C1469.42 330.833 1464.41 332.244 1460.03 327.856C1455.65 323.468 1455.02 316.259 1455.02 316.259L1450.01 326.602C1450.79 332.714 1450.32 338.512 1449.38 343.527C1447.35 354.34 1442.81 362.019 1442.81 362.019C1442.81 362.019 1397.88 467.957 1385.2 486.135C1379.56 494.284 1369.23 503.53 1359.06 511.052C1346.53 520.298 1334.01 527.037 1329.47 527.037C1325.24 527.037 1318.36 527.507 1312.09 522.179C1306.46 517.321 1301.29 507.761 1299.41 488.642C1295.34 448.681 1303.64 419.689 1303.64 419.689C1308.81 421.57 1319.45 424.704 1339.02 426.585L1413.22 347.758C1413.22 347.758 1414.32 322.371 1413.22 305.289C1413.22 304.192 1413.22 303.095 1413.38 301.998C1413.85 297.924 1415.73 294.79 1418.23 292.439C1424.18 286.954 1433.1 285.857 1433.1 285.857C1433.1 285.857 1441.09 279.589 1444.53 277.395Z" fill="#FFD1B8"/>
<path d="M1599.98 451.815C1599.98 451.815 1585.26 526.723 1578.06 539.887C1570.86 553.051 1554.74 558.223 1541.27 561.67C1527.81 564.961 1374.87 564.961 1374.87 564.961C1374.87 564.961 1337.14 565.118 1331.19 549.29C1331.19 549.29 1309.43 541.454 1308.34 536.596C1307.24 531.738 1307.24 526.097 1309.59 524.059C1310.69 523.119 1311.63 522.649 1312.25 522.336C1318.51 527.664 1325.4 527.194 1329.63 527.194C1334.17 527.194 1346.69 520.298 1359.21 511.209C1362.66 514.343 1372.52 522.962 1378.94 524.686C1386.61 526.88 1504.96 492.56 1524.99 496.321L1536.11 452.129C1536.11 452.129 1548.48 455.89 1562.41 455.89C1573.37 455.89 1592.46 453.069 1599.98 451.815Z" fill="#FFD1B8"/>
<path d="M1531.1 203.74C1531.88 207.344 1532.82 210.792 1533.76 214.24C1537.05 225.21 1542.06 235.866 1544.88 246.993C1547.54 258.276 1547.85 270.656 1542.06 280.686C1540.81 276.768 1538.77 273.163 1535.95 270.029C1536.58 283.036 1528.12 295.887 1516.23 300.901C1511.69 298.237 1507.93 297.14 1507.93 297.14C1505.43 282.88 1502.61 260.783 1502.61 260.783C1506.68 254.671 1509.34 248.56 1510.44 243.702L1512 233.829C1512.94 233.359 1514.04 232.888 1514.82 232.262C1516.23 231.321 1517.64 230.381 1518.89 229.127C1523.43 224.739 1526.4 218.628 1526.87 212.202C1527.03 209.695 1526.87 207.188 1526.25 204.837L1531.1 203.74Z" fill="#6D263B"/>
<path d="M1457.21 154.376C1445.63 172.241 1431.54 192.927 1412.44 202.33C1411.03 202.486 1409.46 202.8 1408.06 203.27C1403.99 204.994 1400.85 208.598 1399.45 212.673C1398.04 216.747 1398.04 221.448 1399.29 225.523C1401.01 231.635 1405.08 237.12 1410.56 240.411C1411.97 241.351 1413.53 241.978 1415.1 242.605C1416.2 242.918 1417.14 243.231 1418.23 243.545L1421.83 252.791C1425.12 260.313 1433.73 270.029 1444.53 277.238C1440.93 279.432 1433.26 286.17 1433.26 286.17C1433.26 286.17 1424.18 287.111 1418.39 292.752C1405.71 289.461 1395.06 278.492 1392.56 265.484C1392.09 269.559 1391.46 273.633 1390.99 277.708C1381.13 266.581 1380.35 249.97 1383.32 235.239C1386.3 220.665 1392.4 206.717 1394.75 192.143C1396.94 178.666 1396 164.405 1400.85 151.555C1405.71 138.704 1416.2 128.361 1428.56 122.563C1440.93 116.608 1455.96 115.511 1469.58 117.078C1483.67 113.944 1498.69 121.153 1508.09 132.122C1517.48 143.092 1522.18 157.51 1525.15 171.614C1527.34 182.27 1528.75 193.083 1531.1 203.74L1526.56 204.837C1526.09 202.956 1525.31 201.233 1524.37 199.665C1522.02 195.904 1518.26 193.083 1514.04 192.3C1512.63 191.987 1511.06 191.987 1509.65 192.3C1509.65 192.3 1509.65 192.3 1509.65 192.143C1495.09 179.45 1485.23 161.741 1481.79 142.779C1476.47 156.256 1465.66 167.383 1452.2 172.711C1455.96 167.383 1457.84 160.801 1457.21 154.376Z" fill="#6D263B"/>
<path d="M1541.27 561.67C1575.87 625.766 1573.84 707.413 1573.84 707.413H1272.96C1276.4 624.198 1331.19 549.447 1331.19 549.447C1337.14 565.118 1374.87 565.118 1374.87 565.118C1374.87 565.118 1527.81 564.961 1541.27 561.67Z" fill="#7A84BD"/>
<path d="M1413.54 302.312C1413.38 303.252 1413.38 304.349 1413.38 305.603C1414.47 322.528 1413.38 348.072 1413.38 348.072L1339.18 426.898C1319.61 424.861 1308.96 421.883 1303.8 420.003C1300.67 418.906 1299.57 417.965 1299.57 417.965C1299.57 417.965 1317.89 331.147 1329.31 318.767C1340.59 306.23 1413.54 302.312 1413.54 302.312Z" fill="#9F815B"/>
<path d="M1516.38 300.901C1521.08 303.722 1526.56 308.11 1529.69 315.005C1529.69 315.005 1582.45 328.012 1596.85 344.781C1611.25 361.549 1603.11 451.345 1603.11 451.345C1603.11 451.345 1601.86 451.502 1599.98 451.815C1592.46 453.069 1573.37 455.733 1562.41 455.733C1548.48 455.733 1536.11 451.972 1536.11 451.972L1524.99 496.165C1504.96 492.403 1386.77 526.723 1378.94 524.529C1372.68 522.649 1362.66 514.03 1359.21 511.052C1369.39 503.53 1379.72 494.441 1385.36 486.135C1398.04 467.956 1442.97 362.019 1442.97 362.019C1442.97 362.019 1447.35 354.497 1449.54 343.527C1452.98 346.348 1460.19 350.109 1472.24 346.034C1490.09 340.079 1509.65 303.879 1509.65 303.879C1509.18 301.998 1508.71 299.491 1508.24 296.827C1508.09 297.14 1511.84 298.237 1516.38 300.901Z" fill="#9F815B"/>
<path d="M1444.53 278.492C1444.37 278.492 1444.22 278.492 1444.22 278.492C1443.59 278.335 1443.28 277.708 1443.44 277.081C1443.59 276.454 1444.06 274.887 1455.33 273.947C1488.68 271.44 1490.4 274.104 1491.02 275.044C1491.34 275.671 1491.18 276.298 1490.71 276.611C1490.09 276.924 1489.46 276.768 1489.15 276.298C1487.89 275.201 1476.94 274.731 1455.65 276.298C1447.82 276.924 1445.94 277.865 1445.78 278.021C1445.31 278.335 1445 278.492 1444.53 278.492Z" fill="#6D263B"/>
<path d="M1448.6 348.072C1448.44 348.072 1448.29 348.072 1448.13 347.915C1447.51 347.602 1447.35 346.975 1447.51 346.348C1451.73 337.259 1448.91 327.072 1448.91 326.916C1448.91 326.602 1448.91 326.289 1448.91 326.132L1453.92 315.789C1454.08 315.319 1454.71 315.006 1455.18 315.162C1455.65 315.319 1456.12 315.789 1456.12 316.259C1456.43 322.841 1460.66 327.856 1463.32 328.796C1465.82 329.736 1467.54 328.953 1467.54 328.953C1467.86 328.796 1468.17 328.796 1468.33 328.953C1469.58 329.423 1470.99 329.58 1471.46 329.423C1471.77 328.013 1471.46 322.058 1471.46 317.983C1471.3 312.655 1471.3 310.461 1471.46 309.677C1471.46 308.424 1467.07 299.648 1465.04 295.573C1464.26 293.849 1463.47 292.439 1463 291.499C1461.44 288.208 1460.03 287.894 1460.03 287.894C1452.36 286.954 1433.42 287.268 1433.26 287.268C1432.63 287.268 1432.01 286.797 1432.01 286.171C1432.01 285.544 1432.48 284.917 1433.1 284.917C1433.89 284.917 1452.36 284.603 1460.19 285.544C1460.5 285.544 1462.85 285.857 1465.04 290.402C1465.51 291.342 1466.13 292.752 1467.07 294.476C1472.55 305.446 1473.96 308.894 1473.65 310.147C1473.49 310.774 1473.65 314.692 1473.8 317.826C1474.12 326.759 1474.12 329.58 1473.65 330.52C1472.71 332.401 1469.73 331.774 1468.01 331.147C1467.07 331.46 1465.04 331.774 1462.53 330.99C1459.87 330.05 1455.96 326.132 1454.39 320.177L1451.26 326.759C1451.73 328.953 1453.77 338.512 1449.7 347.288C1449.54 347.915 1449.07 348.072 1448.6 348.072Z" fill="#6D263B"/>
<path d="M1468.17 331.304C1467.54 331.304 1466.92 330.833 1466.92 330.05C1467.07 322.841 1466.92 310.774 1466.13 308.737C1460.81 295.417 1458.46 294.006 1457.99 293.849C1455.96 293.066 1442.18 292.282 1433.26 292.126C1432.63 292.126 1432.16 291.499 1432.16 290.872C1432.16 290.245 1432.63 289.775 1433.42 289.775C1435.76 289.932 1455.8 290.558 1458.78 291.655C1460.34 292.282 1462.85 294.476 1468.33 307.954C1469.58 311.088 1469.42 328.169 1469.26 330.207C1469.42 330.677 1468.8 331.304 1468.17 331.304Z" fill="#6D263B"/>
<path d="M1450.17 327.856C1449.7 327.856 1449.23 327.542 1449.07 327.072C1447.04 320.49 1443.59 313.125 1443.59 313.125C1443.44 312.655 1443.44 312.028 1443.9 311.715C1445.31 310.618 1450.01 305.916 1450.01 305.916C1450.32 305.603 1450.64 305.603 1450.95 305.603C1451.26 305.603 1451.58 305.759 1451.73 306.073L1455.96 312.028C1456.12 312.185 1456.12 312.498 1456.12 312.655V316.416C1456.12 317.043 1455.65 317.67 1454.86 317.67C1454.24 317.67 1453.61 317.199 1453.61 316.416V313.125L1450.32 308.58C1449.07 309.834 1447.04 311.871 1445.63 312.968C1446.57 315.006 1449.23 320.961 1450.79 326.445C1450.95 327.072 1450.64 327.699 1450.01 327.856C1450.32 327.856 1450.17 327.856 1450.17 327.856Z" fill="#6D263B"/>
<path d="M1312.72 462.158C1312.09 462.158 1311.63 461.688 1311.63 461.061C1310.37 449.935 1337.45 426.898 1338.55 425.801C1339.02 425.331 1339.8 425.488 1340.27 425.958C1340.74 426.428 1340.59 427.211 1340.12 427.681C1332.45 434.107 1313.03 452.599 1313.97 460.904C1313.97 461.531 1313.5 462.158 1312.72 462.158C1312.88 462.158 1312.88 462.158 1312.72 462.158Z" fill="#6D263B"/>
<path d="M1544.56 509.642C1544.25 509.642 1543.94 509.485 1543.62 509.172C1532.51 495.538 1525.15 497.418 1525.15 497.418C1524.52 497.575 1523.9 497.262 1523.74 496.635C1523.59 496.008 1523.9 495.381 1524.52 495.224C1524.84 495.068 1533.29 492.56 1545.5 507.605C1545.97 508.075 1545.81 508.858 1545.35 509.328C1545.19 509.485 1544.88 509.642 1544.56 509.642Z" fill="#6D263B"/>
<path d="M1328.38 528.447C1316.48 528.447 1311.62 523.432 1311.47 523.276C1311 522.806 1311 522.022 1311.47 521.552C1311.94 521.082 1312.72 521.082 1313.19 521.552C1313.19 521.552 1317.89 526.41 1329.63 525.94C1341.52 525.626 1358.27 510.425 1358.43 510.269C1358.9 509.798 1359.68 509.798 1360.15 510.269C1360.62 510.739 1360.62 511.522 1360.15 511.992C1359.37 512.619 1342.62 527.977 1329.94 528.291C1329.16 528.291 1328.84 528.447 1328.38 528.447Z" fill="#6D263B"/>
<path d="M1331.19 550.544C1330.88 550.544 1330.41 550.387 1330.25 550.073L1321.49 538.007H1314.6C1313.97 538.007 1313.35 537.537 1313.35 536.753C1313.35 535.969 1313.82 535.499 1314.6 535.499H1322.11C1322.43 535.499 1322.9 535.656 1323.05 535.969L1332.29 548.506C1332.6 548.976 1332.6 549.76 1331.98 550.073C1331.66 550.544 1331.35 550.544 1331.19 550.544Z" fill="#6D263B"/>
<path d="M1293.62 619.967C1293 619.967 1292.53 619.497 1292.53 618.87C1292.53 618.243 1293 617.616 1293.62 617.616C1293.94 617.616 1320.08 615.579 1330.1 599.595C1340.43 583.296 1348.26 561.514 1348.26 561.2C1348.41 560.573 1349.2 560.26 1349.82 560.417C1350.45 560.573 1350.76 561.357 1350.61 561.984C1350.61 562.14 1342.62 584.393 1332.13 600.848C1321.33 617.93 1294.88 619.967 1293.62 619.967C1293.78 619.967 1293.78 619.967 1293.62 619.967Z" fill="#6D263B"/>
<path d="M1417.76 617.773C1417.45 617.773 1417.14 617.616 1416.98 617.46C1416.67 617.146 1416.67 616.833 1416.67 616.519L1420.42 564.961C1420.42 564.334 1421.05 563.864 1421.68 563.864C1422.3 563.864 1422.77 564.491 1422.77 565.118L1419.17 615.266L1428.56 614.169L1437.33 564.648C1437.49 564.021 1438.11 563.551 1438.74 563.707C1439.36 563.864 1439.83 564.491 1439.68 565.118L1430.75 615.579C1430.6 616.049 1430.29 616.519 1429.82 616.519L1417.76 617.773Z" fill="#6D263B"/>
<path d="M1563.82 706.472H1563.66C1563.03 706.315 1562.56 705.845 1562.72 705.062C1568.98 663.376 1557.56 622.161 1556.15 617.146C1513.57 595.363 1511.38 564.648 1511.38 563.394C1511.38 562.767 1511.84 562.14 1512.47 562.14C1513.1 562.14 1513.72 562.61 1513.72 563.237C1513.72 563.551 1515.91 594.11 1557.71 615.266C1558.03 615.422 1558.18 615.736 1558.34 616.049C1558.49 616.519 1571.64 660.712 1565.07 705.375C1564.91 706.159 1564.44 706.472 1563.82 706.472Z" fill="#6D263B"/>
<path d="M1425.75 672.152C1425.59 672.152 1425.43 672.152 1425.28 671.996L1377.84 650.84C1377.22 650.526 1377.06 649.899 1377.22 649.272C1377.53 648.646 1378.16 648.489 1378.78 648.646L1425.9 669.645L1483.82 653.817C1484.45 653.66 1485.08 653.974 1485.23 654.601C1485.39 655.228 1485.08 655.854 1484.45 656.011L1426.21 671.996C1426.06 672.152 1425.9 672.152 1425.75 672.152Z" fill="#6D263B"/>
<path d="M1445 672.153C1444.37 672.153 1443.9 671.682 1443.9 671.056C1443.9 670.429 1444.37 669.802 1445 669.802L1489.93 667.608C1490.55 667.608 1491.18 668.078 1491.18 668.705C1491.18 669.332 1490.71 669.959 1490.08 669.959L1445 672.153C1445.16 672.153 1445.16 672.153 1445 672.153Z" fill="#6D263B"/>
<path d="M1425.75 706.473C1425.12 706.473 1424.49 706.002 1424.49 705.219V670.742C1424.49 670.115 1424.96 669.489 1425.75 669.489C1426.37 669.489 1427 669.959 1427 670.742V705.219C1427 706.002 1426.37 706.473 1425.75 706.473Z" fill="#6D263B"/>
<path d="M1414 468.113C1413.54 468.113 1413.07 467.8 1412.91 467.33C1412.75 466.703 1413.07 466.076 1413.54 465.763C1414 465.606 1458.93 448.994 1489.77 444.293C1490.4 444.136 1491.02 444.606 1491.18 445.233C1491.34 445.86 1490.87 446.487 1490.24 446.644C1459.56 451.345 1414.94 467.8 1414.47 468.113C1414.16 468.113 1414 468.113 1414 468.113Z" fill="#6D263B"/>
<path d="M1433.57 469.21C1432.95 469.21 1432.48 468.74 1432.48 468.27C1432.32 467.643 1432.79 467.016 1433.42 466.86C1434.83 466.703 1468.48 461.688 1479.44 463.725C1480.07 463.882 1480.54 464.509 1480.38 465.136C1480.22 465.763 1479.6 466.233 1478.97 466.076C1468.48 464.039 1434.04 469.053 1433.73 469.21H1433.57Z" fill="#6D263B"/>
<path d="M1354.2 412.167C1353.42 412.01 1352.95 411.54 1353.11 410.913C1354.05 402.764 1363.91 375.966 1364.22 374.869C1364.38 374.243 1365.16 373.929 1365.79 374.243C1366.42 374.399 1366.73 375.183 1366.42 375.81C1366.26 376.123 1356.24 403.391 1355.3 411.383C1355.3 411.697 1354.83 412.167 1354.2 412.167Z" fill="#6D263B"/>
<path d="M1558.49 456.83C1538.14 455.106 1527.5 449.935 1527.03 449.778C1526.56 449.621 1526.4 449.151 1526.4 448.681L1531.1 390.697C1531.1 390.071 1531.73 389.6 1532.35 389.6C1532.98 389.6 1533.45 390.227 1533.45 390.854L1528.75 448.054C1531.41 449.151 1541.59 453.226 1558.49 454.636C1559.12 454.636 1559.59 455.263 1559.59 455.89C1559.75 456.517 1559.12 456.83 1558.49 456.83Z" fill="#6D263B"/>
<path d="M1443.05 224.719C1443.17 227.723 1439.3 230.476 1434.17 230.727C1429.17 230.977 1424.92 228.849 1424.67 225.72C1424.54 222.716 1428.42 219.963 1433.54 219.712C1438.54 219.462 1442.8 221.715 1443.05 224.719Z" fill="#DA837E"/>
<path d="M1503.63 221.119C1503.76 224.123 1499.88 226.876 1494.76 227.126C1489.75 227.377 1485.5 225.249 1485.25 222.12C1485.13 219.116 1489 216.363 1494.13 216.112C1499.26 215.862 1503.51 218.115 1503.63 221.119Z" fill="#DA837E"/>
</g>
<path d="M1412.39 223.677C1412.07 223.677 1411.64 223.845 1411.4 223.864C1411.21 223.89 1411.02 223.89 1410.83 223.864C1410.71 223.833 1410.6 223.781 1410.5 223.709C1410.4 223.637 1410.32 223.547 1410.25 223.445C1410.19 223.342 1410.15 223.229 1410.14 223.112C1410.12 222.995 1410.13 222.876 1410.16 222.762C1410.25 222.418 1410.42 222.098 1410.67 221.829C1410.91 221.56 1411.21 221.349 1411.56 221.212C1412 221.051 1412.43 220.851 1412.84 220.615C1413.11 220.406 1413.33 220.141 1413.47 219.839C1413.61 219.538 1413.68 219.209 1413.67 218.879C1413.55 217.663 1413.3 216.462 1412.92 215.294C1412.7 214.141 1412.37 213.009 1411.93 211.914C1411.62 210.994 1410.95 210.224 1410.06 209.764C1409.16 209.304 1408.11 209.192 1407.13 209.45C1405.32 210.141 1404.47 212.176 1403.74 213.744C1403.45 214.379 1404.14 215.387 1404.9 214.846C1405.58 214.337 1406.13 213.701 1406.54 212.979C1406.85 212.456 1407.23 211.709 1407.84 211.466C1408.45 211.224 1409.26 211.784 1409.55 212.381C1409.92 213.406 1410.15 214.474 1410.22 215.555C1410.22 216.134 1410.42 216.713 1410.5 217.292C1410.5 217.553 1410.5 217.814 1410.63 218.076C1410.77 218.337 1410.63 218.225 1410.63 218.318C1410.34 218.455 1410.06 218.611 1409.79 218.785C1409.35 219.062 1408.94 219.388 1408.59 219.756C1407.84 220.476 1407.41 221.438 1407.39 222.447C1407.36 223.456 1407.74 224.436 1408.45 225.189C1409.71 226.421 1412.74 227.056 1413.49 224.946C1413.53 224.791 1413.54 224.628 1413.5 224.47C1413.47 224.313 1413.39 224.166 1413.28 224.041C1413.18 223.917 1413.04 223.819 1412.88 223.756C1412.73 223.692 1412.56 223.665 1412.39 223.677Z" fill="#EDACAD"/>
<path d="M1510.93 219.585C1511.25 219.585 1511.66 219.754 1511.91 219.773C1512.1 219.801 1512.28 219.801 1512.46 219.773C1512.71 219.711 1512.92 219.561 1513.04 219.354C1513.17 219.147 1513.21 218.9 1513.15 218.666C1513.06 218.319 1512.88 217.997 1512.64 217.726C1512.39 217.456 1512.08 217.244 1511.74 217.108C1511.3 216.95 1510.88 216.748 1510.48 216.507C1510.2 216.302 1509.98 216.036 1509.84 215.732C1509.69 215.429 1509.62 215.096 1509.64 214.762C1509.78 213.598 1510.04 212.448 1510.4 211.327C1510.62 210.168 1510.95 209.031 1511.38 207.93C1511.69 207.001 1512.37 206.223 1513.26 205.761C1514.16 205.299 1515.21 205.188 1516.2 205.453C1518 206.148 1518.83 208.193 1519.55 209.77C1519.87 210.408 1519.16 211.421 1518.39 210.877C1517.72 210.371 1517.17 209.73 1516.78 209C1516.45 208.475 1516.08 207.724 1515.47 207.48C1514.86 207.236 1514.05 207.799 1513.78 208.4C1513.4 209.429 1513.17 210.502 1513.09 211.59C1513.09 212.172 1512.92 212.754 1512.82 213.336L1512.7 214.124C1512.7 214.205 1512.7 214.287 1512.7 214.368C1513.03 214.518 1513.47 214.781 1513.56 214.837C1514 215.111 1514.4 215.439 1514.74 215.813C1515.47 216.518 1515.91 217.458 1515.95 218.45C1516 219.442 1515.66 220.416 1515 221.181C1513.72 222.419 1510.72 223.058 1509.95 220.937C1509.89 220.785 1509.88 220.623 1509.9 220.464C1509.92 220.305 1509.98 220.153 1510.08 220.021C1510.17 219.889 1510.3 219.78 1510.45 219.705C1510.6 219.629 1510.76 219.588 1510.93 219.585Z" fill="#EDACAD"/>
<path d="M1448.36 186.133C1447.17 184.565 1445.47 183.47 1443.55 183.039C1442.08 182.568 1440.56 182.289 1439.02 182.206C1437.24 182.084 1435.45 182.25 1433.71 182.7C1433.01 182.894 1432.32 183.174 1431.68 183.532C1430.62 183.934 1429.73 184.695 1429.16 185.684C1429.02 185.988 1428.95 186.319 1428.95 186.653C1428.96 186.987 1429.04 187.315 1429.18 187.612C1429.33 187.909 1429.55 188.167 1429.81 188.367C1430.07 188.567 1430.38 188.703 1430.7 188.765C1431.4 188.909 1432.11 188.905 1432.81 188.753C1433.46 188.661 1434.11 188.655 1434.75 188.624C1435.4 188.593 1436.02 188.57 1436.63 188.566L1437.07 188.547L1437.45 188.556L1438.01 188.612C1438.62 188.674 1439.23 188.775 1439.83 188.914L1440.8 189.167L1440.99 189.257C1442.42 189.913 1443.93 190.393 1445.48 190.689C1446.05 190.779 1446.63 190.701 1447.15 190.464C1447.68 190.228 1448.12 189.842 1448.44 189.356C1448.75 188.869 1448.92 188.302 1448.93 187.724C1448.93 187.145 1448.77 186.58 1448.46 186.097L1448.36 186.133Z" fill="#6D263B"/>
<path d="M1493.17 182.875C1492.1 182.174 1490.9 181.716 1489.64 181.532C1487.82 181.207 1485.96 181.141 1484.13 181.335C1482.36 181.481 1480.63 181.913 1479 182.615C1478.08 182.947 1477.21 183.439 1476.46 184.069C1475.06 185.374 1474.48 187.558 1476.24 188.917C1478 190.277 1479.83 189.252 1481.51 188.965C1482.18 188.866 1482.84 188.82 1483.59 188.732L1484.56 188.624C1484.67 188.573 1484.85 188.622 1485.01 188.635C1486.34 188.678 1487.67 188.832 1488.99 189.096C1489.35 189.204 1489.73 189.285 1490.11 189.339C1490.44 189.361 1490.76 189.361 1491.09 189.338C1492.3 189.435 1493.5 189.116 1494.49 188.434C1494.84 188.133 1495.11 187.744 1495.26 187.306C1495.41 186.867 1495.45 186.394 1495.36 185.935C1495.06 184.666 1494.27 183.565 1493.17 182.875Z" fill="#6D263B"/>
<path d="M1445.6 202.13C1444.67 201.56 1443.54 201.273 1442.39 201.313C1441.78 201.345 1441.19 201.493 1440.65 201.744C1440.11 201.996 1439.64 202.347 1439.27 202.772C1436.52 205.983 1436.87 216.243 1443.72 215.251C1449.75 214.375 1450.1 204.684 1445.6 202.13Z" fill="#27314A"/>
<path d="M1486.86 200.188C1486.01 199.576 1484.98 199.269 1483.95 199.312C1483.39 199.347 1482.85 199.504 1482.36 199.774C1481.87 200.044 1481.44 200.42 1481.11 200.876C1478.6 204.316 1478.92 215.309 1485.15 214.245C1490.63 213.307 1490.97 202.924 1486.86 200.188Z" fill="#27314A"/>
<path d="M1470.2 222.171C1469.21 221.15 1468.29 220.069 1467.45 218.935C1466.65 217.507 1466.47 215.928 1465.82 214.483C1465.73 214.311 1465.59 214.165 1465.42 214.061C1465.25 213.957 1465.05 213.9 1464.85 213.895C1464.64 213.889 1464.44 213.937 1464.27 214.032C1464.1 214.127 1463.95 214.265 1463.86 214.433C1463.39 215.905 1463.48 217.494 1464.12 218.925C1464.62 220.324 1465.38 221.629 1466.36 222.778C1466.8 223.233 1467.2 223.718 1467.57 224.229C1467.63 224.345 1467.67 224.465 1467.71 224.588C1467.71 224.643 1467.7 224.699 1467.69 224.752C1467.22 225.272 1466.72 225.754 1466.17 226.192C1465.9 226.413 1465.61 226.632 1465.36 226.875C1464.96 227.232 1464.63 227.66 1464.4 228.135C1464.3 228.335 1464.25 228.556 1464.26 228.779C1464.26 229.002 1464.32 229.222 1464.43 229.42C1464.54 229.618 1464.7 229.79 1464.89 229.922C1465.08 230.053 1465.3 230.14 1465.54 230.176C1466.09 230.255 1466.65 230.204 1467.18 230.028C1467.66 229.833 1468.1 229.579 1468.51 229.273C1469.26 228.739 1469.9 228.089 1470.42 227.349C1471.01 226.601 1471.31 225.68 1471.27 224.738C1471.23 223.797 1470.85 222.891 1470.2 222.171Z" fill="#EDACAD"/>
<path d="M1471.76 254.034C1471.33 252.439 1469.13 252.21 1467.54 252.032C1466 251.852 1464.43 251.835 1462.87 251.983C1461.37 252.114 1459.89 252.408 1458.47 252.856C1457.12 253.312 1455.39 253.862 1454.9 255.133C1454.87 255.197 1454.85 255.267 1454.85 255.336C1454.86 255.406 1454.87 255.474 1454.91 255.537C1454.94 255.599 1454.99 255.653 1455.06 255.697C1455.12 255.741 1455.19 255.772 1455.27 255.789C1456.59 255.842 1457.91 255.623 1459.12 255.15C1460.42 254.85 1461.75 254.677 1463.08 254.634C1464.4 254.586 1465.72 254.686 1467.01 254.933C1468.5 255.198 1469.94 255.906 1471.37 255.086C1471.56 254.968 1471.69 254.802 1471.77 254.613C1471.84 254.423 1471.83 254.22 1471.76 254.034Z" fill="#EDACAD"/>
<path d="M785.371 407.144C783.817 391.32 773.498 382.871 765.157 378.528C757.402 374.49 750.162 373.434 750.162 373.434C749.797 373.424 717.911 368.038 707.705 395.287C701.29 412.209 707.079 423.002 712.135 432.328C715.066 437.834 717.631 442.607 717.271 447.666C716.767 454.459 717.138 459.175 719.92 462.433C719.848 462.938 719.776 463.805 719.777 464.891C719.778 466.339 720.512 468.168 721.391 469.711C721.245 469.997 721.099 470.283 720.953 470.569C720.662 471.503 720.809 472.303 721.176 473.398L721.103 473.541C720.738 473.894 720.227 474.532 720.008 475.323C719.863 475.971 719.937 476.914 720.523 477.943L720.45 478.086C720.232 478.877 719.72 479.515 719.575 480.163C719.357 480.954 719.504 482.116 720.822 483.526C720.968 483.602 720.968 483.602 721.115 483.678C721.115 483.678 721.261 483.754 721.553 483.907C721.992 484.135 722.797 484.373 723.894 484.764C724.407 485.936 725.433 487.555 728.067 488.926C729.823 489.841 732.236 490.555 735.015 490.916C742.914 492.134 746.055 489.971 747.296 488.266C749.417 488.465 749.929 488.189 750.148 488.122C750.221 487.979 750.367 488.055 750.44 487.913C752.048 486.94 752.412 485.864 752.484 484.997C752.556 484.13 752.19 483.396 751.897 482.882L751.97 482.739C752.919 481.967 753.064 480.957 753.21 480.309C753.282 479.442 752.916 478.709 752.622 478.194L752.695 478.051C753.279 477.27 753.717 476.413 753.643 475.469C753.643 475.107 753.642 474.745 753.422 474.45C754.737 473.326 755.759 471.687 756.269 470.324C756.634 469.248 756.779 468.6 756.778 467.876C760.359 465.579 761.889 461.129 763.124 454.355C764.069 449.239 767.794 445.57 771.883 441.187C778.967 433.84 787.22 425.293 785.371 407.144ZM741.007 487.524C739.765 487.781 737.864 487.877 735.158 487.372C733.256 487.106 731.793 486.706 730.55 486.239C734.06 486.62 737.643 487.219 741.007 487.524ZM747.804 484.731C747.658 484.655 747.511 484.579 747.511 484.579C747.219 484.426 747.072 484.35 746.707 484.34C739.906 483.875 733.105 483.047 726.304 481.858C726.304 481.858 726.304 481.858 726.158 481.781C726.011 481.705 725.865 481.629 725.719 481.553C724.768 481.239 724.256 481.153 723.744 481.067C724.109 480.715 724.328 480.286 724.4 479.781L724.545 478.047C724.617 477.542 724.47 477.104 724.177 476.589C724.031 476.513 724.031 476.513 724.104 476.37C724.616 476.094 725.054 475.598 724.98 475.017L725.197 473.502C725.197 473.14 725.197 472.778 724.904 472.264C724.684 471.969 724.757 471.826 724.83 471.683L725.122 471.473C725.634 471.197 725.925 470.625 725.852 470.044C725.924 469.539 725.704 468.882 725.338 468.51C724.386 467.472 723.8 466.081 723.579 465.062C723.725 465.138 724.018 465.29 724.164 465.366C724.311 465.443 724.457 465.519 724.603 465.595C725.042 465.823 725.408 465.833 725.847 466.062C728.846 467.08 732.795 467.689 737.549 468.537C738.426 468.632 739.231 468.87 740.109 468.965C740.474 468.974 740.767 469.127 740.986 469.06C741.498 469.146 742.01 469.231 742.522 469.317C742.887 469.326 743.034 469.402 743.399 469.412C744.131 469.431 744.789 469.593 745.52 469.612C745.666 469.688 745.886 469.621 745.886 469.621C746.398 469.707 747.129 469.726 747.641 469.811C747.86 469.745 748.153 469.897 748.372 469.83C748.738 469.84 749.103 469.849 749.615 469.935C749.834 469.868 750.127 470.02 750.346 469.954C750.712 469.963 751.297 469.906 751.662 469.915C751.809 469.992 751.882 469.849 752.028 469.925C751.59 470.782 750.495 472.202 749.253 472.822C748.522 473.165 748.157 473.879 748.231 474.461C748.305 475.042 748.598 475.556 749.11 476.004C749.037 476.147 749.037 476.147 748.818 476.213C748.526 476.423 748.307 476.852 748.307 477.214L748.09 478.729C748.017 479.234 748.237 479.891 748.75 480.339C748.75 480.339 748.677 480.482 748.53 480.405C748.019 480.682 747.8 481.111 747.727 481.616L747.583 483.35C747.511 483.854 747.657 484.293 747.95 484.807L747.804 484.731ZM743.778 416.784C743.267 417.784 742.756 418.784 741.953 419.633C741.586 418.899 741.22 418.165 741.073 417.365C739.751 412.697 740.769 407.438 743.689 403.531C745.523 408.285 745.528 412.991 743.778 416.784ZM739.3 465.106C738.934 465.097 738.569 465.087 738.13 464.859C734.839 464.412 732.133 463.907 730.012 463.346L730.043 426.999C731.14 427.39 732.383 427.494 733.627 427.599C736.259 427.522 738.817 426.864 741.228 425.406C742.986 427.407 745.035 429.197 747.376 430.416C748.4 430.95 749.644 431.416 750.741 431.807C752.058 432.13 753.228 432.378 754.69 432.416C751.559 443.63 748.209 454.911 744.638 465.896C742.956 465.563 741.201 465.373 739.3 465.106ZM758.956 453.813C757.502 461.016 756.116 464.093 753.631 465.332C752.389 465.952 750.634 466.124 748.221 466.134C751.718 454.929 755.142 443.505 758.346 432.148C762.147 431.595 765.582 429.946 768.211 427.335C768.577 426.983 768.795 426.554 768.722 425.973C768.794 425.468 768.501 424.953 768.135 424.582C767.989 424.506 767.915 424.287 767.769 424.21C767.038 423.83 766.233 423.954 765.576 424.516C763.969 426.212 761.923 427.317 759.511 428.051C760.676 423.955 761.769 420.001 762.787 415.827C763.006 415.037 762.566 414.084 761.834 413.703C761.688 413.627 761.542 413.551 761.542 413.551C761.03 413.465 760.518 413.379 760.153 413.732C759.641 414.008 759.422 414.437 759.203 414.866C757.966 419.468 756.728 424.07 755.49 428.671C754.174 428.71 752.785 428.529 751.541 428.062C750.59 427.748 749.786 427.51 748.908 427.053C747.006 426.063 745.468 424.719 744.077 423.091C745.319 421.747 746.487 420.184 747.289 418.612C749.551 413.82 749.471 407.808 747.124 402.244C746.611 401.073 746.025 400.406 745.148 399.949C744.562 399.644 744.05 399.558 743.465 399.616C742.296 399.73 741.712 400.511 741.346 400.864C737.184 405.752 735.803 412.45 737.491 418.576C737.932 419.891 738.372 421.205 739.104 422.31C737.278 423.349 735.45 424.026 733.476 423.902C732.379 423.874 731.209 423.626 729.965 423.16L729.876 409.183C729.875 408.459 729.436 407.869 728.851 407.564C728.558 407.412 728.265 407.259 728.046 407.326C726.949 407.298 726.146 408.146 726.22 409.089L726.233 420.312C725.208 419.054 724.549 417.806 724.328 416.425C724.254 415.844 723.814 415.253 723.375 415.025C723.083 414.872 722.571 414.787 722.205 414.777C721.62 414.834 721.328 415.044 720.963 415.397C720.598 415.749 720.525 416.254 720.599 416.835C721.115 420.179 723.239 423.275 726.312 425.237L726.428 462.384C725.989 462.155 725.477 462.07 725.038 461.841C724.453 461.536 723.867 461.232 723.355 460.784C721.232 458.774 720.644 455.573 721.074 448.199C721.432 442.054 718.501 436.548 715.497 430.822C710.734 422.01 705.458 412.027 711.217 396.754C720.402 372.229 748.411 376.864 749.582 377.111C749.947 377.121 756.529 378.015 763.552 381.672C771.015 385.558 780.091 393.178 781.569 407.335C783.197 423.741 775.601 431.726 768.883 438.72C764.428 443.456 760.192 447.763 758.956 453.813Z" fill="white"/>
<path d="M823.336 390.051C823.263 389.472 822.826 388.884 822.389 388.656C822.098 388.504 821.589 388.419 821.225 388.41L789.368 393.063C788.932 393.196 788.495 393.329 788.06 393.822C787.842 394.249 787.624 394.676 787.698 395.255C787.771 395.833 788.208 396.421 788.645 396.649C788.936 396.801 789.445 396.886 789.809 396.895L821.666 392.242C822.102 392.109 822.538 391.976 822.974 391.483C823.265 390.914 823.337 390.411 823.336 390.051Z" fill="white"/>
<path d="M786.789 389.058C786.862 389.277 787.156 389.43 787.449 389.582C788.182 389.964 788.988 389.839 789.427 389.343L804.214 377.836C804.58 377.483 804.8 377.054 804.872 376.548C804.945 376.043 804.798 375.604 804.431 375.232C804.358 375.012 804.064 374.86 803.771 374.707C803.038 374.326 802.232 374.45 801.793 374.946L787.006 386.453C786.64 386.806 786.42 387.236 786.348 387.741C786.275 388.247 786.495 388.543 786.789 389.058Z" fill="white"/>
<path d="M781.654 384.287C782.54 384.746 783.793 384.488 784.235 383.626L789.385 373.941C789.826 373.08 789.53 371.836 788.496 371.3C787.611 370.841 786.357 371.1 785.916 371.961L780.913 381.723C780.324 382.508 780.769 383.828 781.654 384.287Z" fill="white"/>
<path d="M813.492 402.952C813.347 402.876 813.057 402.725 812.839 402.791L792.599 400.686C791.584 400.516 790.642 401.282 790.643 402.36C790.644 403.078 791.007 403.806 791.733 404.185C791.878 404.26 792.169 404.411 792.386 404.345L812.626 406.45C813.642 406.62 814.584 405.854 814.582 404.776C814.582 404.058 814.073 403.254 813.492 402.952Z" fill="white"/>
<path d="M801.743 413.952L791.255 408.321C790.387 407.87 789.304 408.199 788.726 408.971C788.51 409.394 788.438 409.892 788.583 410.325C788.729 410.758 789.09 411.124 789.524 411.35L800.012 416.981C800.88 417.432 801.964 417.103 802.541 416.332C802.758 415.908 802.829 415.41 802.684 414.977C802.539 414.545 802.177 414.178 801.743 413.952Z" fill="white"/>
<path d="M1189.49 775.753C1188.72 773.428 1187.56 771.232 1185.75 769.423C1184.71 768.39 1183.55 767.486 1182.39 766.84C1178.9 764.902 1174.9 764.515 1171.15 765.677C1167.41 766.84 1164.18 769.294 1162.24 772.782C1160.3 776.269 1159.91 780.274 1161.08 784.02C1161.85 786.345 1163.01 788.541 1164.82 790.349C1165.86 791.382 1167.02 792.286 1168.18 792.932C1171.67 794.87 1175.67 795.257 1179.42 794.095C1187.17 791.77 1191.82 783.503 1189.49 775.753ZM1182.78 772.394C1184.07 773.686 1184.97 775.107 1185.49 776.915C1186.39 779.628 1186.01 782.599 1184.59 785.053C1183.16 787.507 1180.97 789.445 1178.26 790.091C1175.54 790.995 1172.57 790.607 1170.12 789.186C1169.21 788.799 1168.44 788.024 1167.66 787.249C1166.37 785.957 1165.47 784.536 1164.95 782.728C1164.05 780.015 1164.44 777.044 1165.86 774.59C1167.28 772.136 1169.47 770.198 1172.19 769.553C1174.9 768.648 1177.87 769.036 1180.32 770.457C1181.23 771.103 1182 771.619 1182.78 772.394Z" fill="white"/>
<path d="M1182.13 810.757L1183.42 814.891C1183.55 815.278 1183.81 815.537 1183.94 815.666C1184.07 815.795 1184.2 815.924 1184.33 816.053C1184.84 816.312 1185.36 816.312 1186.01 816.182C1191.95 814.374 1197.63 811.016 1202.02 806.624C1202.41 806.236 1202.67 805.72 1202.67 805.203C1202.67 804.686 1202.41 804.17 1202.02 803.782L1198.92 800.682C1200.73 798.615 1202.28 796.29 1203.57 793.707L1207.58 795.386C1208.09 795.645 1208.61 795.645 1209.13 795.386C1209.64 795.128 1210.03 794.74 1210.29 794.224C1212.74 788.153 1213.65 781.565 1212.87 775.623C1212.87 775.107 1212.62 774.848 1212.23 774.461C1211.71 773.944 1211.07 773.815 1210.55 773.815L1206.29 774.202C1206.16 773.04 1205.77 771.877 1205.51 770.844C1204.99 769.294 1204.48 767.744 1203.7 766.194L1207.45 763.998C1207.97 763.74 1208.22 763.223 1208.48 762.706C1208.61 762.061 1208.61 761.544 1208.22 761.156C1206.42 758.056 1204.35 755.215 1201.89 752.76C1199.83 750.694 1197.63 749.015 1195.31 747.465C1194.4 746.819 1192.98 747.206 1192.34 748.11L1190.01 751.727C1187.56 750.306 1184.84 749.402 1182.13 748.756L1182.78 744.494C1182.91 743.848 1182.65 743.073 1182.26 742.685C1182 742.427 1181.49 742.169 1181.1 742.039C1174.9 741.006 1168.44 741.523 1162.37 743.719C1161.59 744.494 1160.95 745.656 1161.34 746.819L1162.76 750.823C1160.17 751.856 1157.72 753.277 1155.65 755.085L1152.68 751.856C1151.91 751.081 1150.61 751.081 1149.71 751.727C1145.06 755.86 1141.44 761.286 1139.25 767.357C1138.99 768.132 1139.12 769.036 1139.63 769.552C1139.89 769.811 1140.02 769.94 1140.41 770.069L1144.41 771.49C1143.64 774.073 1143.25 777.044 1143.25 779.886L1138.86 780.144C1138.08 780.144 1137.31 781.178 1137.31 782.211C1137.7 788.282 1139.51 794.482 1142.99 800.036C1143.12 800.165 1143.25 800.295 1143.38 800.424C1143.64 800.682 1144.03 800.811 1144.41 800.94C1145.06 801.07 1145.45 800.94 1145.96 800.682L1149.58 798.357C1150.61 799.649 1151.65 800.94 1152.81 802.103C1153.59 802.878 1154.49 803.782 1155.39 804.428L1152.94 807.916C1152.42 808.691 1152.55 809.853 1153.2 810.499C1153.33 810.628 1153.33 810.628 1153.46 810.757C1158.62 814.374 1164.56 816.699 1170.89 817.345C1171.41 817.345 1172.06 817.216 1172.44 816.828C1172.83 816.441 1173.09 815.924 1173.22 815.537L1173.74 811.145C1176.58 811.661 1179.42 811.403 1182.13 810.757ZM1172.06 807.141C1171.54 807.141 1170.89 807.27 1170.51 807.657C1170.12 808.045 1169.86 808.561 1169.73 808.949L1169.21 813.082C1165.08 812.307 1160.95 810.757 1157.46 808.561L1159.91 805.074C1160.17 804.557 1160.43 804.04 1160.17 803.524C1160.04 803.136 1159.91 802.749 1159.53 802.361C1159.4 802.232 1159.4 802.232 1159.27 802.103C1157.85 801.199 1156.81 800.165 1155.65 799.003C1154.23 797.582 1152.94 796.032 1151.91 794.224C1151.78 794.094 1151.65 793.965 1151.52 793.836C1150.87 793.19 1149.71 793.061 1148.93 793.578L1145.45 795.774C1143.38 791.899 1142.09 787.765 1141.57 783.89L1145.71 783.632C1146.22 783.632 1146.74 783.373 1147.13 782.986C1147.51 782.598 1147.64 781.953 1147.64 781.436C1147.38 777.819 1147.9 774.202 1149.06 770.715C1149.32 770.198 1149.19 769.552 1148.93 769.036C1148.81 768.907 1148.68 768.519 1148.55 768.39C1148.29 768.132 1148.16 768.002 1147.77 767.873L1143.77 766.452C1145.45 762.448 1147.77 758.831 1150.61 755.99L1153.46 759.09C1154.23 759.865 1155.52 759.865 1156.43 759.219C1159.14 756.765 1162.37 754.827 1165.86 753.665C1167.02 753.277 1167.54 751.985 1167.15 751.081L1165.73 747.077C1169.73 745.914 1173.99 745.527 1178.26 745.914L1177.48 750.048C1177.48 750.565 1177.48 751.081 1177.74 751.598C1177.87 751.727 1177.87 751.727 1178 751.856C1178.26 752.115 1178.77 752.373 1179.16 752.502C1182.78 753.019 1186.26 754.44 1189.24 756.377C1189.75 756.635 1190.27 756.894 1190.79 756.635C1191.43 756.506 1191.82 756.119 1192.08 755.602L1194.27 752.115C1195.82 753.148 1197.11 754.44 1198.28 755.602C1199.96 757.281 1201.51 759.09 1202.8 761.156L1199.83 763.611C1198.79 764.127 1198.54 765.419 1199.05 766.452C1200.09 768.261 1200.86 770.069 1201.38 772.136C1201.77 773.557 1202.15 775.236 1202.41 776.786C1202.41 777.303 1202.67 777.561 1203.06 777.948C1203.57 778.465 1204.22 778.594 1204.74 778.594L1208.87 778.078C1209 782.082 1208.48 786.474 1207.06 790.478L1203.19 788.928C1202.67 788.669 1202.15 788.669 1201.64 788.928C1201.12 789.186 1200.73 789.574 1200.47 790.09C1199.18 793.449 1197.11 796.549 1194.53 799.132C1194.14 799.52 1193.89 800.036 1193.89 800.553C1193.89 801.07 1194.14 801.586 1194.53 801.974L1197.5 804.945C1194.27 807.657 1190.66 809.982 1186.65 811.403L1185.49 807.399C1185.36 807.27 1185.36 807.011 1185.1 806.753C1184.59 806.236 1183.81 805.978 1183.04 806.236C1179.42 807.27 1175.8 807.528 1172.06 807.141Z" fill="white"/>
<path d="M1261.96 813.857C1261.18 811.274 1259.63 808.69 1257.69 806.753C1253.3 802.361 1246.97 800.682 1241.03 802.49C1236.64 803.782 1233.15 806.753 1231.09 810.628C1228.89 814.632 1228.5 819.153 1229.66 823.416C1230.57 826.128 1231.99 828.583 1233.93 830.52C1235.09 831.683 1236.38 832.716 1237.8 833.362C1241.81 835.558 1246.33 835.945 1250.59 834.783C1254.98 833.491 1258.47 830.52 1260.67 826.774C1262.73 822.641 1263.25 817.991 1261.96 813.857ZM1254.85 809.595C1256.27 811.015 1257.44 812.953 1258.08 814.891C1258.99 818.12 1258.6 821.607 1257.05 824.449C1255.37 827.42 1252.79 829.487 1249.43 830.52C1246.2 831.424 1242.71 831.037 1239.87 829.487C1238.84 828.97 1237.8 828.195 1236.9 827.291C1235.48 825.87 1234.31 823.932 1233.67 821.995C1232.76 818.766 1233.15 815.278 1234.7 812.436C1236.38 809.465 1239.09 807.269 1242.32 806.365C1246.72 805.074 1251.49 806.236 1254.85 809.595Z" fill="white"/>
<path d="M1268.42 839.174C1268.42 838.658 1268.16 838.141 1267.77 837.754L1265.57 835.558C1266.87 834.008 1268.03 832.328 1268.93 830.391L1271.9 831.553C1272.42 831.812 1272.94 831.812 1273.45 831.553C1273.97 831.295 1274.36 830.908 1274.62 830.391C1276.55 825.353 1277.33 819.928 1276.68 815.149C1276.68 814.632 1276.42 814.374 1276.04 813.986C1275.52 813.47 1274.87 813.34 1274.36 813.34L1271.26 813.599C1271.13 812.695 1270.87 811.92 1270.74 811.274C1270.48 809.982 1269.84 808.82 1269.45 807.657L1272.29 806.107C1272.81 805.849 1273.07 805.332 1273.32 804.815C1273.45 804.169 1273.45 803.653 1273.07 803.265C1271.52 800.682 1269.84 798.486 1267.77 796.419C1266.09 794.74 1264.28 793.19 1262.34 792.027C1261.44 791.382 1260.02 791.769 1259.37 792.673L1257.69 795.386C1255.89 794.352 1253.95 793.707 1251.88 793.19L1252.4 790.09C1252.66 789.573 1252.4 788.798 1251.88 788.282C1251.62 788.023 1251.11 787.765 1250.72 787.636C1245.68 786.731 1240.26 787.248 1235.35 789.057C1234.19 789.444 1233.67 790.736 1234.06 791.64L1234.96 794.611C1233.15 795.386 1231.34 796.419 1229.66 797.84L1227.6 795.515C1226.82 794.74 1225.53 794.74 1224.63 795.386C1220.75 798.744 1217.78 803.265 1216.1 808.303C1215.84 809.078 1215.97 809.982 1216.49 810.499C1216.75 810.757 1216.88 810.886 1217.26 811.015L1220.24 812.178C1219.72 814.245 1219.33 816.182 1219.33 818.249L1216.23 818.507C1215.07 818.636 1214.16 819.541 1214.29 820.703C1214.55 825.612 1216.1 830.778 1218.94 835.429C1219.07 835.558 1219.2 835.687 1219.33 835.816C1219.59 836.074 1219.98 836.204 1220.36 836.333C1221.01 836.462 1221.4 836.333 1221.91 836.074L1224.63 834.395C1225.4 835.429 1226.31 836.333 1227.08 837.108C1227.73 837.754 1228.24 838.27 1228.89 838.658L1227.08 841.241C1226.56 842.016 1226.69 843.179 1227.34 843.825C1227.47 843.954 1227.47 843.954 1227.6 844.083C1231.86 847.054 1236.77 848.862 1242.06 849.508C1242.58 849.508 1243.23 849.379 1243.61 848.991C1244 848.604 1244.26 848.087 1244.39 847.7L1244.65 844.6C1246.71 844.6 1248.65 844.47 1250.85 844.083L1251.75 847.054C1251.88 847.441 1252.14 847.7 1252.27 847.829C1252.4 847.958 1252.53 848.087 1252.66 848.216C1253.17 848.475 1253.69 848.475 1254.34 848.346C1259.24 846.795 1263.89 844.212 1267.64 840.466C1268.16 840.208 1268.42 839.691 1268.42 839.174ZM1253.56 839.562C1253.04 839.304 1252.53 839.304 1251.88 839.433C1249.04 840.208 1246.2 840.466 1243.36 840.208C1242.84 840.208 1242.19 840.337 1241.81 840.724C1241.42 841.112 1241.16 841.629 1241.03 842.016L1240.64 844.987C1237.54 844.47 1234.57 843.308 1231.99 841.758L1233.67 839.304C1233.93 838.787 1234.19 838.27 1233.93 837.754C1233.8 837.366 1233.67 836.979 1233.28 836.591C1233.15 836.462 1233.15 836.462 1233.02 836.333C1232.12 835.687 1231.21 834.783 1230.31 833.878C1229.15 832.716 1228.11 831.424 1227.34 830.133C1227.21 830.003 1227.08 829.874 1226.95 829.745C1226.31 829.099 1225.14 828.97 1224.37 829.487L1221.79 831.037C1220.36 828.324 1219.33 825.224 1218.94 822.253L1221.91 822.124C1222.43 822.124 1222.95 821.866 1223.34 821.478C1223.72 821.091 1223.85 820.445 1223.85 819.928C1223.72 816.957 1223.98 814.115 1225.14 811.403C1225.4 810.886 1225.27 810.24 1225.01 809.724C1224.89 809.595 1224.76 809.207 1224.63 809.078C1224.37 808.82 1224.24 808.69 1223.85 808.561L1221.01 807.528C1222.3 804.686 1223.98 801.974 1226.05 799.907L1228.11 802.232C1228.89 803.007 1230.18 803.007 1231.09 802.361C1233.28 800.423 1235.86 798.873 1238.58 797.969C1239.74 797.582 1240.26 796.29 1239.87 795.386L1238.84 792.544C1241.81 791.64 1245.04 791.511 1248.01 791.64L1247.49 794.482C1247.49 794.998 1247.62 795.644 1247.75 796.032C1247.88 796.161 1247.88 796.161 1248.01 796.29C1248.26 796.548 1248.78 796.807 1249.17 796.936C1252.01 797.453 1254.85 798.486 1257.18 800.036C1257.69 800.294 1258.21 800.553 1258.73 800.294C1259.37 800.165 1259.76 799.778 1260.02 799.261L1261.57 796.678C1262.6 797.453 1263.64 798.228 1264.54 799.132C1265.83 800.423 1266.87 801.715 1267.9 803.265L1265.32 804.815C1264.28 805.332 1264.02 806.624 1264.54 807.657C1265.32 809.207 1265.96 810.628 1266.48 812.178C1266.87 813.34 1267.12 814.632 1267.25 816.053C1267.51 816.57 1267.77 817.086 1268.03 817.345C1268.54 817.861 1269.19 817.991 1269.71 817.991L1272.68 817.603C1272.81 820.574 1272.29 823.674 1271.39 826.645L1268.67 825.482C1268.16 825.224 1267.64 825.224 1267.12 825.482C1266.61 825.741 1266.22 826.128 1265.96 826.645C1264.8 829.358 1263.25 831.683 1261.18 833.749C1260.79 834.137 1260.54 834.654 1260.54 835.17C1260.54 835.687 1260.79 836.204 1261.18 836.591L1263.25 838.658C1260.92 840.724 1258.08 842.275 1255.37 843.437L1254.59 840.595C1254.47 840.208 1254.21 839.949 1254.08 839.82C1253.82 839.82 1253.69 839.691 1253.56 839.562Z" fill="white"/>
<path d="M1193.5 848.216C1192.85 846.02 1191.69 844.082 1190.14 842.532C1189.24 841.628 1188.2 840.853 1187.04 840.207C1183.81 838.528 1180.19 838.011 1176.71 839.174C1173.35 840.207 1170.38 842.403 1168.7 845.632C1167.02 848.862 1166.5 852.478 1167.66 855.966C1168.31 858.162 1169.47 860.099 1171.02 861.649C1174.51 865.137 1179.68 866.429 1184.46 865.008C1187.81 863.974 1190.79 861.779 1192.46 858.549C1194.14 855.32 1194.53 851.574 1193.5 848.216ZM1173.86 858.549C1172.83 857.516 1171.93 856.095 1171.54 854.674C1170.76 852.349 1171.02 849.766 1172.31 847.699C1173.48 845.503 1175.54 843.953 1177.87 843.178C1180.19 842.403 1182.78 842.661 1184.84 843.953C1185.62 844.47 1186.39 844.987 1186.91 845.503C1187.94 846.537 1188.85 847.957 1189.24 849.378C1190.01 851.703 1189.75 854.287 1188.46 856.353C1187.3 858.549 1185.23 860.099 1182.91 860.874C1179.81 861.908 1176.32 861.004 1173.86 858.549Z" fill="white"/>
<path d="M1197.89 866.299L1196.47 864.878C1197.24 863.845 1198.02 862.812 1198.66 861.649L1200.47 862.424C1200.99 862.683 1201.51 862.683 1202.02 862.424C1202.54 862.166 1202.93 861.778 1203.19 861.262C1204.87 857.258 1205.38 853.124 1204.87 849.249C1204.87 848.732 1204.61 848.474 1204.22 848.087C1203.7 847.57 1203.06 847.441 1202.54 847.441L1200.6 847.57C1200.47 847.182 1200.34 846.536 1200.21 846.149C1199.96 845.374 1199.7 844.599 1199.44 843.824L1201.12 842.92C1201.64 842.661 1201.89 842.145 1202.15 841.628C1202.28 840.982 1202.28 840.466 1201.89 840.078C1200.73 838.141 1199.44 836.332 1197.76 834.653C1196.47 833.361 1195.05 832.199 1193.5 831.165C1192.59 830.52 1191.17 830.907 1190.53 831.811L1189.36 833.49C1188.2 832.845 1186.91 832.328 1185.62 832.07L1186.01 830.132C1186.14 829.486 1185.88 828.711 1185.49 828.324C1185.23 828.065 1184.71 827.807 1184.33 827.678C1180.32 827.032 1176.06 827.42 1172.19 828.711C1171.02 829.099 1170.51 830.39 1170.89 831.295L1171.54 833.232C1170.38 833.878 1169.21 834.524 1168.18 835.299L1166.89 833.749C1166.11 832.974 1164.82 832.974 1163.92 833.62C1160.95 836.332 1158.49 839.82 1157.2 843.695C1156.94 844.47 1157.07 845.374 1157.59 845.891C1157.85 846.149 1157.98 846.278 1158.36 846.407L1160.3 847.053C1160.04 848.345 1159.79 849.637 1159.79 850.928L1157.85 851.057C1156.69 851.187 1155.78 852.091 1155.91 853.253C1156.17 857.128 1157.33 861.133 1159.66 864.749C1159.79 864.878 1159.91 865.008 1160.04 865.137C1160.3 865.395 1160.69 865.524 1161.08 865.653C1161.72 865.783 1162.11 865.653 1162.63 865.395L1164.31 864.233C1164.82 865.008 1165.34 865.524 1165.99 866.17C1166.37 866.558 1166.76 866.945 1167.02 867.204L1165.86 868.883C1165.34 869.658 1165.47 870.82 1166.11 871.466C1166.24 871.595 1166.24 871.595 1166.37 871.724C1169.73 874.049 1173.61 875.599 1177.61 875.987C1178.13 875.987 1178.77 875.858 1179.16 875.47C1179.55 875.083 1179.81 874.566 1179.94 874.179L1180.19 872.112C1181.49 872.112 1182.91 871.983 1184.2 871.724L1184.84 873.662C1184.97 874.049 1185.23 874.308 1185.36 874.437C1185.49 874.566 1185.62 874.695 1185.75 874.824C1186.26 875.083 1186.78 875.083 1187.43 874.954C1191.43 873.791 1194.92 871.595 1197.76 868.754C1198.15 868.366 1198.41 867.849 1198.41 867.333C1198.41 867.333 1198.28 866.687 1197.89 866.299ZM1185.1 867.72C1182.91 868.366 1180.84 868.624 1178.64 868.237C1178.13 868.237 1177.48 868.366 1177.09 868.754C1176.71 869.141 1176.45 869.658 1176.32 870.045L1176.06 871.854C1174.12 871.466 1172.31 870.691 1170.51 869.658L1171.54 868.108C1171.8 867.591 1172.06 867.074 1171.8 866.558C1171.67 866.17 1171.54 865.783 1171.15 865.395C1171.02 865.266 1171.02 865.266 1170.89 865.137C1170.12 864.62 1169.47 863.974 1168.7 863.199C1167.79 862.295 1167.15 861.391 1166.37 860.358C1166.24 860.228 1166.11 860.099 1165.99 859.97C1165.34 859.324 1164.18 859.195 1163.4 859.712L1161.98 860.616C1161.08 858.678 1160.56 856.87 1160.17 854.932L1161.85 854.803C1162.37 854.803 1162.89 854.545 1163.27 854.157C1163.66 853.77 1163.79 853.124 1163.79 852.607C1163.66 850.412 1163.92 848.345 1164.69 846.278C1164.95 845.761 1164.82 845.116 1164.56 844.599C1164.44 844.47 1164.31 844.082 1164.18 843.953C1163.92 843.695 1163.79 843.566 1163.4 843.436L1161.72 842.791C1162.5 840.982 1163.66 839.303 1165.08 837.882L1166.24 839.303C1167.02 840.078 1168.31 840.078 1169.21 839.432C1170.89 838.011 1172.83 836.849 1174.77 836.203C1175.93 835.815 1176.45 834.524 1176.06 833.62L1175.41 831.94C1177.35 831.553 1179.42 831.295 1181.36 831.424L1181.1 833.232C1181.1 833.749 1181.1 834.265 1181.36 834.782C1181.49 834.911 1181.49 834.911 1181.61 835.04C1181.87 835.299 1182.39 835.557 1182.78 835.686C1184.97 836.074 1187.04 836.849 1188.85 837.882C1189.36 838.141 1189.88 838.399 1190.4 838.141C1191.04 838.011 1191.43 837.624 1191.69 837.107L1192.59 835.686C1193.24 836.074 1193.89 836.72 1194.4 837.236C1195.18 838.011 1195.95 839.045 1196.6 839.949L1195.05 840.724C1194.01 841.241 1193.76 842.532 1194.27 843.566C1194.92 844.728 1195.44 845.761 1195.69 847.053C1195.95 847.828 1196.21 848.862 1196.21 849.895C1196.21 850.412 1196.47 850.67 1196.86 851.057C1197.37 851.574 1198.02 851.703 1198.54 851.703L1200.34 851.445C1200.47 853.382 1200.09 855.32 1199.57 857.387L1197.89 856.741C1197.37 856.482 1196.86 856.482 1196.34 856.741C1195.82 856.999 1195.44 857.387 1195.18 857.903C1194.4 859.97 1193.11 861.778 1191.56 863.328C1191.17 863.716 1190.91 864.233 1190.91 864.749C1190.91 865.266 1191.17 865.783 1191.56 866.17L1192.85 867.462C1191.3 868.754 1189.62 869.658 1187.81 870.433L1187.3 868.624C1187.69 868.754 1187.43 868.495 1187.17 868.237C1186.65 867.72 1185.88 867.462 1185.1 867.72Z" fill="white"/>
</svg>
