<svg width="1920" height="347" viewBox="0 0 1920 347" fill="none" xmlns="http://www.w3.org/2000/svg">
<rect y="145" width="1920" height="104" fill="#646464"/>
<rect y="249" width="1920" height="10" fill="#BFBFBF"/>
<rect y="259" width="1920" height="88" fill="#838383"/>
<rect y="135" width="1920" height="10" fill="#BFBFBF"/>
<circle cx="1747" cy="303" r="15" fill="#D9D9D9"/>
<circle cx="1101" cy="303" r="15" fill="#D9D9D9"/>
<circle cx="132" cy="303" r="15" fill="#D9D9D9"/>
<circle cx="455" cy="303" r="15" fill="#D9D9D9"/>
<circle cx="778" cy="303" r="15" fill="#D9D9D9"/>
<circle cx="1424" cy="303" r="15" fill="#D9D9D9"/>
<path d="M918.179 35.0557L792.677 63.7241V195.332L918.179 166.663V35.0557Z" fill="#F0CD94"/>
<path d="M918.178 35.0557L1043.68 63.7241V195.332L918.178 166.663V35.0557Z" fill="#DCB080"/>
<path d="M1043.68 63.7241L918.178 35.0557L936.617 0L1062.56 30.0053L1043.68 63.7241Z" fill="#F3D7A9"/>
<path d="M792.676 63.7241L918.178 35.0557L899.74 0L773.792 30.0053L792.676 63.7241Z" fill="#F3D7A9"/>
<path d="M918.178 224L1043.68 195.332V63.7242L918.178 92.5412V224Z" fill="#F0CD94"/>
<path d="M918.178 224L792.676 195.332V63.7242L918.178 92.5412V224Z" fill="#DCB080"/>
<path d="M918.178 92.2442L1043.68 63.7243L1070 38.3237L944.498 69.963L918.178 92.2442Z" fill="#F9EBD4"/>
<path d="M880.706 119.279L792.676 96.7004V63.7242L918.178 92.5412L880.706 119.279Z" fill="#CB915E"/>
<path d="M918.178 92.2441L792.676 63.7242L750 81.4006L875.353 113.04L918.178 92.2441Z" fill="#F3D7A9"/>
<path d="M918.178 97.5917V219.395" stroke="#F3D7A9" stroke-width="2" stroke-miterlimit="10" stroke-linecap="round" stroke-linejoin="round"/>
<path d="M872.04 148.244C867.77 148.244 864.308 144.786 864.308 140.52C864.308 136.254 867.77 132.796 872.04 132.796C876.311 132.796 879.772 136.254 879.772 140.52C879.772 144.786 876.311 148.244 872.04 148.244Z" fill="#5F4C42"/>
<path d="M818.211 130.271C818.211 134.43 821.631 137.995 825.943 137.995C830.107 137.995 833.675 134.578 833.675 130.271C833.675 126.112 830.255 122.547 825.943 122.547C821.631 122.695 818.211 126.112 818.211 130.271Z" fill="#5F4C42"/>
<path d="M860.56 167.257C860.56 167.257 859.145 172.111 840.26 167.506C822.119 163.05 823.845 162.998 823.845 162.998" stroke="#5F4C42" stroke-width="3" stroke-miterlimit="10" stroke-linecap="round"/>
<path d="M1264 88.7723C1262.45 69.4798 1257.43 47.4268 1240.17 38.7731C1233.98 35.6714 1226.87 34.7409 1219.94 33.9034C1139.36 24.1796 1073.05 17.8269 992.014 22.65C979.72 23.3944 963.984 24.3672 953.298 30.524C942.612 36.6809 934.618 49.2582 937.649 61.2618C940.912 74.1803 948.827 80.7629 961.6 84.4849C974.374 88.2069 982.552 90.7418 991.119 100.946C998.078 109.197 993.806 124.03 988.055 138C1001.42 132.321 1024.04 115.493 1037.42 103.411C1042.32 101.736 1047.67 102.031 1052.89 102.325C1117.86 105.911 1174.74 110.808 1239.26 102.28C1245.15 101.489 1251.27 100.59 1256.27 97.3795C1261.26 94.1692 1265.05 87.9968 1263.52 82.1967" fill="#806049"/>
<path d="M956.274 48.6776L981.229 49.6968L981.101 52.8302L956.146 51.811L956.274 48.6776ZM962.969 59.0394L975.502 59.5513L975.388 62.349L962.854 61.8371L962.969 59.0394ZM974.604 54.7787L977.877 54.9124L977.309 68.8168C977.242 70.4674 976.897 71.378 975.728 71.8628C974.588 72.3206 972.992 72.2835 970.726 72.1909C970.624 71.262 970.235 69.8169 969.823 68.9313C971.274 69.0747 972.926 69.1141 973.401 69.1335C973.849 69.1518 974.023 69.0188 974.039 68.6271L974.604 54.7787ZM965.086 45.6187L968.523 46.5437C966.34 52.6477 962.754 58.8065 957.314 62.3114C956.842 61.5355 955.828 60.2891 955.182 59.6182C960.153 56.6265 963.499 50.8503 965.086 45.6187ZM962.696 63.6521L975.314 64.1674L975.199 66.9651L962.582 66.4498L962.696 63.6521ZM962.966 54.3034L975.36 54.8095L975.238 57.7751L962.845 57.2689L962.966 54.3034ZM961.119 54.228L964.505 54.3662L964.198 61.864C964.061 65.2212 963.323 69.5627 960.198 71.9851C959.779 71.2674 958.522 69.7869 957.87 69.2839C960.39 67.2851 960.708 64.2996 960.815 61.6698L961.119 54.228ZM996.963 49.3866L1006.39 49.7716L1006.27 52.7931L996.84 52.408L996.963 49.3866ZM992.754 59.8075L1005.74 60.3377L1005.61 63.3591L992.631 62.829L992.754 59.8075ZM1005.05 49.7168L1008.41 49.8539C1008.41 49.8539 1008.34 50.6641 1008.27 51.0814C1007.81 55.6022 1007.36 57.6297 1006.57 58.4381C1005.93 59.0844 1005.22 59.3076 1004.26 59.3527C1003.48 59.4047 1002.1 59.3767 1000.62 59.2601C1000.58 58.3335 1000.24 57.0026 999.742 56.1416C1001 56.3049 1002.25 56.3843 1002.81 56.4071C1003.26 56.4254 1003.54 56.4089 1003.83 56.1965C1004.3 55.7671 1004.64 54.1279 1005.03 50.1364L1005.05 49.7168ZM996.252 46.8915L999.675 47.4797C998.699 52.8483 996.759 57.1127 993.711 59.7065C993.145 59.1509 991.707 57.9993 990.915 57.4905C993.86 55.3689 995.502 51.5407 996.252 46.8915ZM1004.56 60.2897L1005.23 60.3171L1005.82 60.2292L1008.03 61.2158C1005.32 68.5594 999.384 71.764 991.793 73.0513C991.522 72.1435 990.823 70.7138 990.239 69.9333C997.08 69.1478 1002.49 66.3143 1004.54 60.7653L1004.56 60.2897ZM997.259 62.7098C999.291 66.4918 1003.71 69.3627 1009.35 70.6857C1008.56 71.3822 1007.55 72.7422 1007.01 73.6449C1001.09 71.9176 996.771 68.4906 994.224 63.6226L997.259 62.7098ZM985.235 49.0477L987.154 46.66C988.916 47.4326 991.217 48.7316 992.295 49.7844L990.224 52.4461C989.204 51.3676 986.992 49.9322 985.235 49.0477ZM983.247 56.5608L985.112 54.1149C986.875 54.8595 989.204 56.1596 990.34 57.1588L988.325 59.8508C987.302 58.8282 985.033 57.4184 983.247 56.5608ZM983.672 70.1695C985.185 68.1015 987.341 64.7147 989.097 61.5357L991.525 63.8207C990.006 66.7011 988.168 69.8487 986.464 72.4694L983.672 70.1695ZM1012.23 50.9628L1037.18 51.9819L1037.05 55.1153L1012.1 54.0962L1012.23 50.9628ZM1018.92 61.3246L1031.46 61.8364L1031.34 64.6341L1018.81 64.1222L1018.92 61.3246ZM1030.56 57.0638L1033.83 57.1975L1033.26 71.1019C1033.2 72.7525 1032.85 73.6632 1031.68 74.1479C1030.54 74.6058 1028.95 74.5686 1026.68 74.4761C1026.58 73.5471 1026.19 72.1021 1025.78 71.2165C1027.23 71.3598 1028.88 71.3993 1029.35 71.4187C1029.8 71.437 1029.98 71.304 1029.99 70.9123L1030.56 57.0638ZM1021.04 47.9038L1024.48 48.8288C1022.29 54.9328 1018.71 61.0916 1013.27 64.5966C1012.8 63.8206 1011.78 62.5742 1011.14 61.9033C1016.11 58.9117 1019.45 53.1354 1021.04 47.9038ZM1018.65 65.9373L1031.27 66.4526L1031.15 69.2503L1018.54 68.735L1018.65 65.9373ZM1018.92 56.5885L1031.31 57.0947L1031.19 60.0602L1018.8 59.554L1018.92 56.5885ZM1017.07 56.5131L1020.46 56.6514L1020.15 64.1491C1020.01 67.5063 1019.28 71.8478 1016.15 74.2703C1015.73 73.5526 1014.48 72.0721 1013.82 71.5691C1016.34 69.5702 1016.66 66.5847 1016.77 63.9549L1017.07 56.5131ZM1040.46 49.986L1065.11 50.9926L1064.98 53.9861L1040.34 52.9795L1040.46 49.986ZM1051.18 51.7128L1054.7 51.8568L1054.24 63.1593C1054.01 68.8106 1051.5 73.4158 1040.86 75.0833C1040.53 74.3131 1039.64 72.8195 1038.94 72.0344C1049.1 70.9082 1050.53 67.4357 1050.72 62.9594L1051.18 51.7128ZM1045.58 61.8807L1045.5 63.7272L1059.43 64.2962L1059.51 62.4498L1045.58 61.8807ZM1045.75 57.5723L1045.68 59.3629L1059.61 59.9319L1059.69 58.1413L1045.75 57.5723ZM1042.7 54.7295L1063.15 55.5647L1062.68 67.1191L1042.23 66.2839L1042.7 54.7295ZM1045.56 66.3079C1049.28 71.4757 1055.81 72.1347 1065.35 72.4404C1064.73 73.1998 1064.03 74.6003 1063.82 75.7125C1053.95 75.1133 1046.6 73.8885 1042.58 67.363L1045.56 66.3079ZM1067.61 51.4591L1075.25 51.771L1075.13 54.7086L1067.49 54.3967L1067.61 51.4591ZM1067.5 59.6095L1074.69 59.9031L1074.57 62.8406L1067.38 62.547L1067.5 59.6095ZM1066.48 70.0767C1068.54 69.7405 1071.51 69.1051 1074.4 68.4942L1074.64 71.3907C1072.04 72.0129 1069.24 72.6272 1066.95 73.1502L1066.48 70.0767ZM1069.94 53.4318L1072.85 53.5506L1072.16 70.4485L1069.22 71.0011L1069.94 53.4318ZM1075.96 58.3576L1093.16 59.0602L1093.06 61.718L1075.85 61.0153L1075.96 58.3576ZM1080.3 64.504L1080.24 66.0427L1088.13 66.3649L1088.19 64.8262L1080.3 64.504ZM1077.43 62.0608L1091.45 62.6332L1091.2 68.8161L1077.18 68.2436L1077.43 62.0608ZM1087.77 53.8239L1087.7 55.6704L1089.54 55.7458L1089.62 53.8993L1087.77 53.8239ZM1083.83 53.6628L1083.75 55.5093L1085.52 55.5812L1085.59 53.7348L1083.83 53.6628ZM1079.88 53.5017L1079.81 55.3482L1081.54 55.419L1081.62 53.5725L1079.88 53.5017ZM1077.26 51.1248L1092.57 51.7497L1092.31 58.1284L1077 57.5034L1077.26 51.1248ZM1086.06 67.5416C1087.08 70.6938 1089.48 73.2015 1093.13 74.3315C1092.43 74.8916 1091.49 76.0301 1091.07 76.7974C1087.01 75.2586 1084.64 72.1354 1083.38 67.9926L1086.06 67.5416ZM1090.5 68.8155L1092.6 70.863C1090.91 71.6628 1089.14 72.4313 1087.75 72.8789L1086.25 71.2762C1087.53 70.6841 1089.46 69.5857 1090.5 68.8155ZM1082.61 66.9523L1084.84 68.024C1082.71 70.1507 1079.07 72.02 1075.84 72.8689C1075.45 72.1523 1074.63 71.0818 1074.03 70.4971C1077.2 69.9257 1080.73 68.5566 1082.61 66.9523ZM1077.96 76.5145C1077.82 75.8921 1077.33 74.7514 1076.96 74.2318C1077.48 74.0006 1078.14 73.4953 1078.19 72.3482L1078.28 70.0262L1080.97 69.4913L1080.77 74.3592C1080.77 74.3592 1078 75.6752 1077.96 76.5145ZM1077.96 76.5145L1077.86 74.2963L1079.07 73.477L1084.79 72.6179C1084.68 73.3418 1084.63 74.4609 1084.64 75.0496C1079.47 75.9875 1078.51 76.2284 1077.96 76.5145ZM1110.66 61.5123L1114.05 61.6506L1113.38 78.0169L1109.99 77.8787L1110.66 61.5123ZM1103.16 64.653L1121.18 65.3888L1121.06 68.4382L1103.04 67.7024L1103.16 64.653ZM1108.58 55.6823L1108.42 59.4312L1116.65 59.7671L1116.8 56.0182L1108.58 55.6823ZM1105.51 52.6145L1120.28 53.2178L1119.88 62.8697L1105.11 62.2664L1105.51 52.6145ZM1101.89 51.2898L1104.98 52.4249C1102.91 57.1044 1099.71 61.99 1096.48 65.0245C1096.23 64.2297 1095.38 62.3456 1094.86 61.5114C1097.56 59.0997 1100.24 55.2299 1101.89 51.2898ZM1098.69 58.9216L1102.01 55.8625L1102.04 55.8917L1101.16 77.4337L1097.94 77.3023L1098.69 58.9216ZM1106.17 68.6988L1109.15 69.7175C1107.93 72.0777 1106.09 74.7486 1104.59 76.3969C1104.02 75.8693 1102.8 74.9227 1102.06 74.4722C1103.55 72.9917 1105.16 70.7593 1106.17 68.6988ZM1114.62 70.389L1117.19 69.121C1118.68 71.0314 1120.32 73.5363 1121.09 75.2212L1118.34 76.7341C1117.65 75.0247 1116.05 72.3531 1114.62 70.389ZM1126.58 56.7818L1135.17 57.1326L1134.4 75.9888L1125.81 75.6381L1125.93 72.6725L1131.47 72.8988L1132 59.9456L1126.46 59.7193L1126.58 56.7818ZM1124.62 56.7018L1127.67 56.8264L1126.81 77.7529L1123.76 77.6284L1124.62 56.7018ZM1126.13 64.2458L1133.29 64.5383L1133.18 67.4479L1126.01 67.1554L1126.13 64.2458ZM1128.78 52.3039L1132.42 52.9851C1131.7 54.8612 1130.92 56.819 1130.31 58.1111L1127.64 57.4139C1128.1 55.9751 1128.58 53.8369 1128.78 52.3039ZM1138.87 57.0875L1147.04 57.4212L1146.91 60.4706L1138.74 60.137L1138.87 57.0875ZM1145.89 57.3743L1148.99 57.5012C1148.99 57.5012 1148.95 58.5922 1148.9 59.0108C1148.03 71.5854 1147.51 76.02 1146.3 77.4559C1145.47 78.515 1144.68 78.7907 1143.52 78.9118C1142.45 79.0362 1140.75 78.9385 1139.13 78.7883C1139.11 77.8628 1138.72 76.4177 1138.14 75.4973C1139.96 75.7115 1141.63 75.808 1142.33 75.8366C1142.89 75.8594 1143.2 75.7601 1143.58 75.3833C1144.52 74.4686 1145.08 69.6715 1145.86 58.0178L1145.89 57.3743ZM1139.13 52.7546L1142.31 53.6414C1141.05 57.7373 1139.06 61.9155 1137.05 64.5236C1136.46 63.9389 1135.13 62.9317 1134.36 62.4521C1136.33 60.1786 1138.08 56.4389 1139.13 52.7546ZM1137.25 65.0923L1139.94 63.7169C1141.23 65.7033 1142.97 68.4644 1143.77 70.1505L1140.85 71.7685C1140.16 70.0311 1138.51 67.2174 1137.25 65.0923ZM1159.83 65.2578L1175.92 65.9148L1175.82 68.3488L1159.73 67.6918L1159.83 65.2578ZM1158.62 69.412L1176.75 70.1524L1176.65 72.5864L1158.52 71.846L1158.62 69.412ZM1163.28 63.9413L1166.35 64.067L1166.07 71.0891L1162.99 70.9634L1163.28 63.9413ZM1169.43 64.1926L1172.54 64.3195L1172.25 71.3416L1169.14 71.2148L1169.43 64.1926ZM1168.61 73.4067L1170.85 72.041C1172.66 73.0117 1174.79 74.3038 1175.98 75.2493L1172.94 76.4979C1171.99 75.5906 1170.22 74.3134 1168.61 73.4067ZM1163.93 71.8427L1166.83 72.9978C1165.38 74.2556 1163.09 75.4231 1161.18 76.1299C1160.62 75.5464 1159.48 74.5192 1158.77 74.0419C1160.7 73.5321 1162.72 72.7179 1163.93 71.8427ZM1161.19 54.5805L1167.74 54.8478L1167.52 60.2193L1160.97 59.952L1161.06 57.8817L1164.81 58.0348L1164.86 56.8038L1161.11 56.6507L1161.19 54.5805ZM1170.06 54.9706L1176.8 55.246L1176.58 60.6175L1169.84 60.3421L1169.92 58.2719L1173.81 58.4307L1173.86 57.1997L1169.97 57.0409L1170.06 54.9706ZM1168.8 54.9192L1171.46 55.0278L1171.23 60.5392C1171.2 61.2945 1171.27 61.5777 1171.86 61.6017C1172.37 61.6223 1174.27 61.7 1174.77 61.7205C1175.33 61.7434 1176.23 61.752 1176.74 61.6327C1176.76 62.3344 1176.78 63.2879 1176.87 63.9079C1176.39 64.0284 1175.55 64.0501 1174.76 64.0181C1174.2 63.9952 1172.1 63.9095 1171.6 63.8889C1169.05 63.785 1168.48 62.8086 1168.58 60.3747L1168.8 54.9192ZM1159.71 64.2158L1159.67 62.2249L1160.88 61.4895L1167.55 60.8371C1167.3 61.4994 1167.06 62.5825 1166.98 63.1397C1161.23 63.8299 1160.28 63.9589 1159.71 64.2158ZM1159.71 64.2158C1159.59 63.5387 1159.11 62.314 1158.74 61.7105C1159.2 61.4769 1159.67 61.0196 1159.71 59.9285L1159.93 54.529L1162.53 54.6353L1162.23 62.133C1162.23 62.133 1159.74 63.3485 1159.71 64.2158ZM1152.13 54.8549L1154.65 53.4167C1155.94 54.8144 1157.46 56.6421 1158.26 57.7954L1155.61 59.5368C1154.9 58.3309 1153.36 56.3063 1152.13 54.8549ZM1151.64 59.8513L1156.79 60.0615L1156.68 62.7473L1151.54 62.537L1151.64 59.8513ZM1156.77 72.1948C1158.13 76.0334 1161.41 76.6158 1166.48 76.8506C1169.5 76.974 1174.12 76.9667 1177.32 76.7892C1176.82 77.4692 1176.31 78.9616 1176.1 79.878C1173.19 79.927 1169.6 79.8647 1166.3 79.7299C1159.78 79.4637 1156.35 78.4547 1154.5 72.9987L1156.77 72.1948ZM1155.82 66.7753L1156.63 66.8084L1157.16 66.7742L1158.73 67.3989C1157.65 73.4635 1155.41 77.5475 1152.38 79.6376C1151.96 78.9479 1150.91 77.7843 1150.29 77.3104C1153.11 75.5479 1154.98 72.0937 1155.8 67.2789L1155.82 66.7753ZM1151.89 69.6694L1151.99 67.2634L1153.19 66.6679L1156.74 66.813L1156.63 69.4148L1153.56 69.2892C1152.94 69.264 1152.12 69.4267 1151.89 69.6694ZM1151.89 69.6694C1151.75 68.9631 1151.22 67.5123 1150.93 66.9402C1151.39 66.8186 1151.82 66.6399 1152.32 66.0718C1153.05 65.345 1155.32 61.7669 1156.17 60.2882L1156.17 60.2042L1157 59.9016L1159.01 60.7684C1157.84 62.6542 1155.62 66.1787 1154.17 67.9132C1154.17 67.9132 1151.92 68.914 1151.89 69.6694ZM1200.3 58.4193L1200.22 60.2378L1201.98 60.3098L1202.06 58.4913L1200.3 58.4193ZM1196.07 58.2468L1196 60.0653L1197.7 60.135L1197.78 58.3165L1196.07 58.2468ZM1191.87 58.0754L1191.8 59.8939L1193.45 59.9613L1193.53 58.1428L1191.87 58.0754ZM1189.36 55.731L1204.86 56.364L1204.61 62.6308L1189.11 61.9978L1189.36 55.731ZM1189.4 63.1026L1204.14 63.7047L1204.05 66.1107L1189.3 65.5086L1189.4 63.1026ZM1188.13 66.7498L1204.78 67.4296L1204.67 69.9475L1188.03 69.2677L1188.13 66.7498ZM1188.53 71.362L1203.94 71.9915L1203.84 74.4815L1188.43 73.8519L1188.53 71.362ZM1187.28 75.0943L1204.85 75.8118L1204.75 78.2738L1187.18 77.5562L1187.28 75.0943ZM1195.06 61.6245L1198.23 61.7537L1197.96 68.2442L1194.8 68.1151L1195.06 61.6245ZM1194.61 72.8152L1197.77 72.9443L1197.42 81.4492L1194.26 81.3201L1194.61 72.8152ZM1191.09 69.813L1193.85 69.3375C1194.13 70.1054 1194.48 71.1006 1194.6 71.7218L1191.71 72.3047C1191.63 71.6287 1191.36 70.581 1191.09 69.813ZM1199.26 69.4741L1202.3 70.3272C1201.62 71.392 1200.99 72.4031 1200.48 73.1391L1198.02 72.338C1198.44 71.4867 1198.97 70.3031 1199.26 69.4741ZM1178.78 68.4419C1181.02 68.0286 1184.3 67.2938 1187.47 66.5545L1187.76 69.5932C1184.9 70.345 1181.84 71.0889 1179.38 71.6889L1178.78 68.4419ZM1179.56 59.7303L1188.01 60.0754L1187.88 63.1528L1179.44 62.8078L1179.56 59.7303ZM1182.69 54.5616L1185.76 54.6872L1184.84 77.3483C1184.78 78.887 1184.46 79.7429 1183.57 80.2111C1182.71 80.7083 1181.5 80.7711 1179.69 80.6968C1179.64 79.8541 1179.3 78.4673 1178.95 77.528C1179.95 77.6251 1180.93 77.6651 1181.27 77.6509C1181.6 77.6646 1181.75 77.5863 1181.76 77.2226L1182.69 54.5616ZM1209.95 58.085L1216.52 58.3535L1215.84 75.1675L1209.26 74.899L1209.4 71.6257L1213.03 71.7742L1213.45 61.4788L1209.82 61.3303L1209.95 58.085ZM1208.21 58.0141L1211.24 58.1375L1210.46 77.1896L1207.44 77.0663L1208.21 58.0141ZM1218.42 57.17L1221.53 57.2968L1221.13 66.9767C1220.94 71.6208 1220.17 78.0908 1216.65 81.9264C1216.12 81.344 1214.81 80.4499 1214.07 80.0553C1217.38 76.4915 1217.86 71.0184 1218.03 66.8499L1218.42 57.17ZM1222.42 67.0293L1225.55 67.1572L1225.12 77.7884C1225.08 78.8235 1225.24 78.9702 1226.22 79.0102C1226.61 79.0262 1228.54 79.1051 1229.07 79.1268C1229.97 79.1633 1230.15 78.6666 1230.39 75.6497C1231.01 76.2075 1232.33 76.7939 1233.19 77.0532C1232.69 81.0961 1231.78 82.1797 1229.26 82.0769C1228.61 82.0506 1226.21 81.9523 1225.62 81.9283C1222.57 81.8038 1221.86 80.8218 1221.98 77.6604L1222.42 67.0293ZM1220.24 57.2442L1232.83 57.7584L1232.48 66.4032L1219.89 65.889L1220.01 62.8396L1229.47 63.2257L1229.57 60.7078L1220.11 60.3217L1220.24 57.2442ZM1224.77 70.4602L1232.83 70.7892L1232.72 73.447L1224.66 73.118L1224.77 70.4602ZM1238.91 73.5596C1238.42 69.028 1243.28 67.4329 1243.39 64.7751C1243.45 63.3483 1242.56 62.4433 1241.1 62.3839C1239.87 62.3336 1238.87 62.9091 1237.91 63.8226L1235.73 61.6318C1237.25 60.0406 1239.28 58.9747 1241.72 59.0741C1245.1 59.2123 1247.49 61.0474 1247.34 64.6564C1247.18 68.6291 1242.26 69.7452 1242.52 73.707L1238.91 73.5596ZM1240.42 81.0757C1238.94 81.0151 1237.93 79.8247 1237.99 78.286C1238.05 76.7472 1239.16 75.6716 1240.64 75.7322C1242.1 75.7916 1243.17 76.9563 1243.11 78.4951C1243.05 80.0338 1241.88 81.1351 1240.42 81.0757Z" fill="#F5F1E8"/>
</svg>
