<svg width="615" height="350" viewBox="0 0 615 350" fill="none" xmlns="http://www.w3.org/2000/svg">
<path d="M615 252.729C615 361.413 477.328 349.626 307.5 349.626C137.672 349.626 0 361.413 0 252.729C0 144.046 137.672 55.9402 307.5 55.9402C477.328 55.9402 615 144.046 615 252.729Z" fill="#F5F1E8"/>
<path d="M277.66 122.349H340.18L341.19 194.701H275.11L277.66 122.349Z" fill="white"/>
<path d="M344.1 127.693C338.407 136.375 329.898 142.837 320 145.994C314.841 147.662 309.407 148.31 304 147.902C298.194 147.385 292.65 145.249 288 141.738C282.65 137.792 279.27 132.428 275.94 126.824C275.81 126.604 275.41 126.744 275.51 127.004C277.707 132.394 281.151 137.186 285.56 140.989C289.875 144.923 295.206 147.57 300.95 148.631C311.71 150.449 323.72 147.033 332.62 140.959C337.527 137.553 341.755 133.265 345.09 128.313C345.47 127.663 344.49 127.084 344.1 127.693Z" fill="#B0CFE7"/>
<path d="M355.54 238.615H257.59V274.496H355.54V238.615Z" fill="#5E7ABA"/>
<path d="M275.11 287.482C273.25 283.846 268.18 282.487 250.11 287.612C232.04 292.737 224.49 296.173 224.71 306.672C224.93 317.17 240.42 314.493 254.14 312.825C267.86 311.157 286.49 309.728 275.11 287.482Z" fill="#5E7ABA"/>
<path d="M304.19 300.518C304.19 300.518 284 302.916 279.82 303.675C275.64 304.434 249.55 312.855 246 302.056C242.45 291.258 273.43 285.484 273.43 285.484L301.23 273.008L304.19 300.518Z" fill="#FFD1B8"/>
<path d="M231 294.794L276.18 305.982C278.06 303.855 278.98 300.988 278.41 296.992L232 294.205L231 294.794Z" fill="#27314A"/>
<path d="M285.49 302.826L273.27 305.193L245.96 298.49L246.6 297.312L285.49 302.826Z" fill="#EDACAD"/>
<path d="M277.66 122.359C277.66 122.359 276.53 156.562 277.91 183.024C279.57 214.86 283.78 240.273 283.5 244.708L257.58 243.439C257.58 243.439 225.58 223.64 220.99 206.119C216.4 188.598 237.13 148.001 246.91 137.583C256.69 127.164 277.66 122.359 277.66 122.359Z" fill="#3B6E57"/>
<path d="M340.18 122.359C340.18 122.359 340.39 150.129 338.9 178.958C337.34 209.146 334.08 240.552 334.34 244.708L360.26 243.439C360.26 243.439 392.26 223.64 396.85 206.119C401.44 188.598 380.71 148.001 370.93 137.583C361.15 127.164 340.18 122.359 340.18 122.359Z" fill="#3B6E57"/>
<path d="M293.41 102.81C293.41 102.81 292.65 116.515 290.62 118.293C288.59 120.071 277.62 122.359 277.62 122.359C277.62 122.359 289.05 143.426 310.14 143.426C331.23 143.426 340.14 122.359 340.14 122.359C340.14 122.359 327.68 119.362 325.64 117.534C323.6 115.706 322.34 101.281 322.34 101.281L293.41 102.81Z" fill="#FFD1B8"/>
<path d="M361.39 251.311H250.85C249.682 251.309 248.56 250.857 247.718 250.05C246.876 249.242 246.379 248.141 246.33 246.975L243.54 179.348C243.515 178.739 243.614 178.132 243.831 177.563C244.047 176.994 244.376 176.474 244.798 176.035C245.22 175.595 245.726 175.246 246.287 175.007C246.847 174.767 247.45 174.644 248.06 174.643H364.17C364.78 174.642 365.383 174.765 365.944 175.004C366.506 175.242 367.013 175.592 367.435 176.032C367.857 176.471 368.186 176.992 368.402 177.562C368.617 178.131 368.715 178.739 368.69 179.348L365.91 246.975C365.861 248.141 365.363 249.242 364.521 250.05C363.679 250.857 362.557 251.309 361.39 251.311Z" fill="#27314A"/>
<path d="M306.12 226.527C313.609 226.527 319.68 220.463 319.68 212.982C319.68 205.501 313.609 199.436 306.12 199.436C298.631 199.436 292.56 205.501 292.56 212.982C292.56 220.463 298.631 226.527 306.12 226.527Z" fill="#5E7ABA"/>
<path d="M295.16 271.869C293.22 275.115 290.16 292.537 290.16 292.537L299.75 304.803L295.16 271.869Z" fill="#27314A"/>
<path d="M393.87 238.664C416.55 237.406 434.21 262.109 415.49 280.37C396.77 298.63 309.6 305.213 299.78 304.804L295.16 271.839C295.16 271.839 370.66 239.953 393.87 238.664Z" fill="#5E7ABA"/>
<path d="M295.67 276.314L293.88 302.596L299.26 301.937L295.67 276.314Z" fill="#EDACAD"/>
<path d="M339.25 288.301C341.11 284.675 346.18 283.366 364.25 288.431C382.32 293.496 389.88 297.002 389.67 307.541C389.46 318.079 373.95 315.362 360.23 313.684C346.51 312.006 327.87 310.557 339.25 288.301Z" fill="#5E7ABA"/>
<path d="M319.2 272.708C321.2 275.955 324.2 293.376 324.2 293.376L314.58 305.673L319.2 272.708Z" fill="#27314A"/>
<path d="M310.17 301.347C310.17 301.347 330.41 303.745 334.54 304.444C338.67 305.143 364.81 313.674 368.4 302.886C371.99 292.097 341 286.303 341 286.303L313.2 273.827L310.17 301.347Z" fill="#FFD1B8"/>
<path d="M220.49 239.494C197.82 238.235 180.15 262.938 198.88 281.199C217.61 299.459 304.76 306.042 314.58 305.673L319.2 272.708C319.2 272.708 243.7 240.742 220.49 239.494Z" fill="#5E7ABA"/>
<path d="M318.69 276.314L320.48 302.596L315.1 301.937L318.69 276.314Z" fill="#EDACAD"/>
<path d="M381.09 292.686C374.753 289.288 367.935 286.873 360.87 285.524C357.396 284.844 353.877 284.417 350.34 284.245C347.15 284.096 343.73 283.886 340.79 285.344C340.08 285.694 340.7 286.713 341.41 286.393C344.41 285.035 348.13 285.454 351.29 285.644C354.703 285.857 358.096 286.321 361.44 287.032C368.033 288.465 374.396 290.797 380.35 293.965C381.19 294.395 381.93 293.126 381.09 292.686Z" fill="#27314A"/>
<path d="M319.18 271.629C315.965 270.094 312.667 268.74 309.3 267.573C305.78 266.275 302.3 264.946 298.76 263.578C291.78 261.007 284.793 258.39 277.8 255.726L271.91 253.558C269.927 252.765 267.904 252.075 265.85 251.491C265.66 251.441 265.51 251.73 265.71 251.82C267.383 252.626 269.095 253.346 270.84 253.978L275.97 255.976C279.43 257.314 282.9 258.633 286.36 259.972C293.36 262.629 300.36 265.236 307.29 267.963C311.08 269.431 314.94 270.79 318.58 272.628C319.25 272.958 319.85 271.959 319.18 271.629Z" fill="#27314A"/>
<path d="M347.64 250.732C346.317 251.026 345.03 251.461 343.8 252.03L340 253.429C337.434 254.388 334.857 255.337 332.27 256.276C327.197 258.147 322.134 260.035 317.08 261.94C314.26 263.008 311.33 263.987 308.62 265.296C308.39 265.406 308.55 265.755 308.79 265.696C311.38 265.026 313.93 264.007 316.45 263.098L324.19 260.311C329.28 258.473 334.33 256.565 339.41 254.707L343.7 253.119L345.91 252.31C346.606 252.093 347.277 251.802 347.91 251.441C347.983 251.392 348.038 251.319 348.064 251.235C348.091 251.152 348.088 251.061 348.057 250.979C348.026 250.897 347.968 250.828 347.892 250.783C347.816 250.738 347.728 250.72 347.64 250.732Z" fill="#27314A"/>
<path d="M262.17 158.95C261.405 159.797 260.792 160.77 260.36 161.827V161.587C260.36 161.047 260.28 160.508 260.21 159.969C260.21 159.905 260.185 159.844 260.14 159.799C260.095 159.754 260.033 159.729 259.97 159.729C259.906 159.729 259.845 159.754 259.8 159.799C259.755 159.844 259.73 159.905 259.73 159.969C259.68 160.517 259.68 161.069 259.73 161.617C259.73 161.883 259.75 162.153 259.79 162.426C259.796 162.629 259.826 162.83 259.88 163.025C259.42 164.114 259 165.223 258.64 166.362C257.74 169.239 256.99 172.175 256.19 175.082C256.169 175.202 256.194 175.325 256.259 175.428C256.324 175.531 256.425 175.605 256.542 175.638C256.659 175.67 256.784 175.658 256.893 175.603C257.002 175.549 257.086 175.455 257.13 175.342C257.91 172.505 258.64 169.658 259.5 166.841C259.9 165.533 260.31 164.214 260.79 162.935C261.27 161.657 261.91 160.398 262.33 159.07C262.3 158.95 262.21 158.9 262.17 158.95Z" fill="#27314A"/>
<path d="M356.54 158.95C357.294 159.785 357.902 160.741 358.34 161.777V161.537C358.34 160.997 358.42 160.458 358.49 159.919C358.49 159.855 358.515 159.794 358.56 159.749C358.606 159.704 358.667 159.679 358.73 159.679C358.794 159.679 358.855 159.704 358.9 159.749C358.945 159.794 358.97 159.855 358.97 159.919C359.02 160.467 359.02 161.019 358.97 161.567C358.97 161.833 358.95 162.103 358.91 162.376C358.904 162.579 358.874 162.78 358.82 162.975C359.29 164.066 359.704 165.179 360.06 166.312C360.97 169.189 361.72 172.126 362.51 175.032C362.531 175.152 362.506 175.275 362.441 175.378C362.376 175.481 362.275 175.556 362.158 175.588C362.041 175.62 361.916 175.608 361.807 175.553C361.698 175.499 361.614 175.406 361.57 175.292C360.79 172.455 360.06 169.608 359.2 166.791C358.81 165.483 358.4 164.164 357.91 162.885C357.42 161.607 356.79 160.348 356.37 159.02C356.361 158.997 356.361 158.972 356.37 158.949C356.38 158.927 356.398 158.909 356.42 158.9C356.443 158.89 356.468 158.891 356.491 158.9C356.513 158.909 356.531 158.927 356.54 158.95Z" fill="#27314A"/>
<path d="M323.26 108.694C322.7 104.878 322.38 101.281 322.38 101.281L293.38 102.81C293.38 102.81 292.85 112.28 291.51 116.495C297.105 117.942 302.945 118.181 308.64 117.194C314.358 116.155 319.531 113.147 323.26 108.694Z" fill="#EDACAD"/>
<path d="M307.9 40.6165C319.128 40.6165 328.23 31.5242 328.23 20.3082C328.23 9.09231 319.128 0 307.9 0C296.672 0 287.57 9.09231 287.57 20.3082C287.57 31.5242 296.672 40.6165 307.9 40.6165Z" fill="#6D263B"/>
<path d="M328.22 20.3083V20.1684C324.42 18.5102 305.22 10.9083 287.7 18.0707C287.612 18.8132 287.568 19.5605 287.57 20.3083C287.51 23.0124 287.992 25.7013 288.986 28.2171C289.981 30.7329 291.468 33.0249 293.361 34.9586C295.255 36.8923 297.516 38.4287 300.011 39.4776C302.507 40.5266 305.188 41.0669 307.895 41.0669C310.603 41.0669 313.284 40.5266 315.779 39.4776C318.275 38.4287 320.536 36.8923 322.429 34.9586C324.323 33.0249 325.81 30.7329 326.805 28.2171C327.799 25.7013 328.28 23.0124 328.22 20.3083Z" fill="#27314A"/>
<path d="M295.44 111.181C295.44 111.181 269 100.782 266.22 79.4549C263.44 58.1277 264.7 5.3343 323.65 20.8177C323.65 20.8177 339.91 17.771 346.78 46.9597C353.65 76.1484 350.08 96.9661 323.9 109.413L295.44 111.181Z" fill="#6D263B"/>
<path d="M339.31 71.7331C339.31 71.7331 345.5 71.7331 345.75 78.9354C346 86.1376 337.75 86.6571 337.75 86.6571C337.75 86.6571 334.92 114.957 309.68 114.957C284.44 114.957 277.76 86.9068 277.76 86.9068C277.76 86.9068 269.52 86.3974 269.76 79.1951C270 71.9928 276.2 71.9828 276.2 71.9828C276.2 71.9828 291.14 67.098 295.26 59.1266C299.38 51.1551 318.73 44.682 319.47 44.712C319.49 44.712 336.22 55.011 339.31 71.7331Z" fill="#FFD1B8"/>
<path d="M276 82.4018C275.84 82.4018 275.62 82.4917 275.5 82.5017C275.404 82.5157 275.306 82.5157 275.21 82.5017C275.149 82.4855 275.091 82.4573 275.041 82.4189C274.991 82.3804 274.949 82.3324 274.917 82.2776C274.885 82.2229 274.865 82.1624 274.857 82.0997C274.849 82.037 274.853 81.9733 274.87 81.9123C274.915 81.7282 275.002 81.5572 275.126 81.4132C275.249 81.2691 275.405 81.1561 275.58 81.0832C275.806 80.9969 276.023 80.8899 276.23 80.7635C276.367 80.6519 276.477 80.5099 276.55 80.3486C276.622 80.1873 276.657 80.0113 276.65 79.8345C276.589 79.184 276.461 78.5413 276.27 77.9166C276.16 77.2997 275.992 76.6944 275.77 76.1085C275.613 75.6162 275.271 75.2038 274.816 74.9579C274.361 74.7121 273.828 74.6519 273.33 74.7899C272.41 75.1595 271.98 76.2484 271.61 77.0875C271.46 77.4271 271.81 77.9665 272.2 77.6768C272.542 77.4045 272.825 77.0644 273.03 76.6779C273.19 76.3982 273.38 75.9986 273.69 75.8688C274 75.7389 274.41 76.0386 274.56 76.3583C274.748 76.9066 274.863 77.4777 274.9 78.0564C274.9 78.3661 275 78.6758 275.04 78.9854C275.04 79.1253 275.04 79.2651 275.11 79.405C275.18 79.5448 275.11 79.4849 275.11 79.5349C274.961 79.608 274.817 79.6915 274.68 79.7846C274.456 79.9328 274.252 80.1072 274.07 80.304C273.691 80.6893 273.473 81.2039 273.46 81.7437C273.447 82.2834 273.64 82.8079 274 83.2109C274.64 83.8702 276.18 84.2098 276.56 83.0811C276.582 82.9979 276.585 82.9105 276.566 82.8263C276.548 82.7421 276.51 82.6634 276.455 82.5969C276.401 82.5304 276.331 82.478 276.251 82.444C276.172 82.4101 276.086 82.3956 276 82.4018Z" fill="#EDACAD"/>
<path d="M338.79 82.4018C338.95 82.4018 339.16 82.4917 339.29 82.5017C339.383 82.5168 339.477 82.5168 339.57 82.5017C339.694 82.4688 339.8 82.3886 339.865 82.2784C339.931 82.1683 339.95 82.0368 339.92 81.9124C339.873 81.7276 339.784 81.5563 339.659 81.4123C339.534 81.2683 339.376 81.1556 339.2 81.0833C338.976 80.999 338.762 80.8918 338.56 80.7636C338.419 80.6541 338.307 80.5127 338.232 80.3511C338.158 80.1895 338.122 80.0125 338.13 79.8346C338.205 79.2148 338.335 78.603 338.52 78.0066C338.63 77.3897 338.797 76.7844 339.02 76.1985C339.177 75.7039 339.52 75.2898 339.978 75.0437C340.435 74.7976 340.97 74.7389 341.47 74.8799C342.39 75.2495 342.81 76.3383 343.18 77.1774C343.34 77.5171 342.98 78.0565 342.59 77.7668C342.247 77.4973 341.967 77.1564 341.77 76.7679C341.6 76.4882 341.41 76.0886 341.1 75.9588C340.79 75.8289 340.38 76.1286 340.24 76.4482C340.048 76.9961 339.93 77.5673 339.89 78.1464C339.89 78.4561 339.8 78.7657 339.75 79.0754L339.69 79.495C339.688 79.5382 339.688 79.5816 339.69 79.6248C339.86 79.7047 340.08 79.8446 340.13 79.8746C340.352 80.0204 340.554 80.1951 340.73 80.394C341.103 80.769 341.323 81.2693 341.347 81.7974C341.371 82.3255 341.197 82.8437 340.86 83.2509C340.21 83.9102 338.68 84.2499 338.29 83.1211C338.261 83.0404 338.252 82.9542 338.264 82.8694C338.275 82.7846 338.307 82.7038 338.355 82.6335C338.404 82.5633 338.469 82.5056 338.545 82.4653C338.62 82.425 338.704 82.4033 338.79 82.4018Z" fill="#EDACAD"/>
<path d="M299.59 61.0945C302.3 54.8312 315.86 48.1084 319.92 48.1084C328.814 53.6545 335.629 61.9757 339.31 71.783C336.22 55.0609 319.49 44.762 319.49 44.762C318.75 44.762 299.4 51.1951 295.28 59.1765C291.16 67.158 276.22 71.9828 276.22 71.9828C285.19 71.4134 296.88 67.3578 299.59 61.0945Z" fill="#EDACAD"/>
<path d="M301.33 64.1413C300.404 63.673 299.343 63.5423 298.33 63.7717C297.523 63.8812 296.734 64.0927 295.98 64.401C295.102 64.7451 294.285 65.2273 293.56 65.8295C293.267 66.0804 293.005 66.3654 292.78 66.6786C292.367 67.1063 292.116 67.6644 292.07 68.2569C292.072 68.4314 292.114 68.6031 292.192 68.759C292.271 68.915 292.383 69.0511 292.522 69.157C292.661 69.2629 292.822 69.3358 292.993 69.3703C293.164 69.4047 293.341 69.3997 293.51 69.3557C293.874 69.2676 294.214 69.1042 294.51 68.8762C294.8 68.6864 295.11 68.5366 295.41 68.3768C295.71 68.2169 296 68.0671 296.29 67.9273L296.5 67.8174L296.68 67.7375L296.96 67.6376C297.268 67.528 297.582 67.4379 297.9 67.3679L298.42 67.268H298.53C299.364 67.2528 300.193 67.1388 301 66.9283C301.29 66.8431 301.55 66.6756 301.746 66.446C301.943 66.2164 302.068 65.9348 302.107 65.6352C302.146 65.3357 302.098 65.0313 301.967 64.759C301.836 64.4866 301.629 64.2582 301.37 64.1013L301.33 64.1413Z" fill="#6D263B"/>
<path d="M326 66.5586C325.664 66.0152 325.214 65.5515 324.68 65.2001C323.916 64.6637 323.082 64.2367 322.2 63.9314C321.36 63.6191 320.475 63.4438 319.58 63.412C319.084 63.3635 318.583 63.4006 318.1 63.5219C317.18 63.8116 316.44 64.6707 316.95 65.6596C317.46 66.6485 318.52 66.5786 319.35 66.8084C319.68 66.9083 319.99 67.0281 320.35 67.148L320.82 67.3078C320.88 67.3078 320.95 67.3678 321.02 67.4077C321.621 67.7127 322.197 68.0669 322.74 68.4666C322.885 68.5941 323.038 68.7109 323.2 68.8162C323.345 68.8962 323.495 68.9663 323.65 69.026C324.18 69.3277 324.797 69.4404 325.4 69.3456C325.625 69.2853 325.831 69.1667 325.996 69.0019C326.161 68.8371 326.279 68.6318 326.34 68.4067C326.476 67.77 326.354 67.1053 326 66.5586Z" fill="#6D263B"/>
<path d="M300.334 76.4689C299.822 76.1431 299.207 75.9791 298.583 76.0021C298.25 76.0206 297.924 76.1047 297.63 76.2486C297.336 76.3925 297.079 76.5928 296.878 76.8356C295.375 78.6692 295.568 84.5283 299.307 83.9616C302.598 83.4615 302.79 77.9274 300.334 76.4689Z" fill="#27314A"/>
<path d="M321.331 76.4689C320.82 76.1431 320.205 75.9791 319.582 76.0021C319.248 76.0206 318.923 76.1047 318.629 76.2486C318.335 76.3925 318.079 76.5928 317.878 76.8356C316.376 78.6692 316.568 84.5283 320.305 83.9616C323.594 83.4615 323.795 77.9274 321.331 76.4689Z" fill="#27314A"/>
<path d="M312.31 86.4175C311.731 85.9511 311.183 85.4472 310.67 84.9091C310.16 84.2099 309.95 83.3808 309.51 82.6615C309.45 82.5768 309.368 82.5101 309.273 82.4684C309.178 82.4268 309.073 82.4118 308.971 82.4252C308.868 82.4385 308.77 82.4797 308.689 82.5442C308.608 82.6088 308.546 82.6942 308.51 82.7914C308.384 83.6144 308.55 84.4555 308.98 85.1688C309.339 85.8761 309.823 86.5124 310.41 87.0468C310.666 87.2549 310.907 87.482 311.13 87.7261C311.169 87.7828 311.202 87.843 311.23 87.9059C311.233 87.9358 311.233 87.9659 311.23 87.9958C311.035 88.3101 310.814 88.6075 310.57 88.8849C310.45 89.0247 310.32 89.1646 310.21 89.3144C310.033 89.5371 309.901 89.7914 309.82 90.0636C309.784 90.1784 309.775 90.3 309.795 90.4187C309.814 90.5373 309.862 90.6497 309.933 90.7469C310.004 90.844 310.096 90.9232 310.204 90.978C310.311 91.0328 310.429 91.0618 310.55 91.0625C310.836 91.0607 311.118 90.9886 311.37 90.8527C311.598 90.7108 311.806 90.5395 311.99 90.3433C312.327 89.999 312.604 89.6005 312.81 89.1646C313.052 88.7183 313.135 88.2027 313.044 87.7031C312.953 87.2035 312.694 86.7499 312.31 86.4175Z" fill="#EDACAD"/>
<path d="M314.17 97.5455C314 96.5465 312.83 96.3068 311.99 96.127C311.169 95.947 310.33 95.8665 309.49 95.8872C308.682 95.9007 307.88 96.0148 307.1 96.2269C306.36 96.4466 305.41 96.7064 305.1 97.4655C305.081 97.5038 305.07 97.5458 305.068 97.5886C305.066 97.6315 305.073 97.6743 305.089 97.714C305.105 97.7538 305.13 97.7897 305.161 97.8192C305.192 97.8487 305.229 97.8712 305.27 97.8851C305.974 97.9765 306.69 97.9012 307.36 97.6653C308.066 97.5389 308.784 97.492 309.5 97.5255C310.209 97.555 310.912 97.6759 311.59 97.8851C312.38 98.1148 313.12 98.6143 313.92 98.1748C314.024 98.1104 314.104 98.0146 314.149 97.9013C314.194 97.788 314.201 97.6633 314.17 97.5455Z" fill="#EDACAD"/>
<path d="M294.94 86.3075C294.94 88.1255 292.6 89.6039 289.73 89.6039C286.86 89.6039 284.52 88.1255 284.52 86.3075C284.52 84.4894 286.85 83.011 289.73 83.011C292.61 83.011 294.94 84.4894 294.94 86.3075Z" fill="#EE9599"/>
<path d="M334 86.3075C334 88.1255 331.66 89.6039 328.79 89.6039C325.92 89.6039 323.58 88.1255 323.58 86.3075C323.58 84.4894 325.91 83.011 328.79 83.011C331.67 83.011 334 84.4894 334 86.3075Z" fill="#EE9599"/>
<path d="M295.941 73.9907C295.896 73.875 295.839 73.7645 295.77 73.6611L295.641 73.4713C295.571 73.3814 295.491 73.2715 295.411 73.1816C295.32 73.1066 295.219 73.046 295.111 73.0018C295.027 72.959 294.935 72.9351 294.84 72.9319C294.728 72.9333 294.619 72.9719 294.531 73.0418C294.449 73.1049 294.387 73.1905 294.353 73.2881C294.32 73.3857 294.315 73.4911 294.34 73.5912C294.345 73.6444 294.345 73.6978 294.34 73.751C294.374 73.8521 294.425 73.9466 294.49 74.0307C294.55 74.1406 294.611 74.2405 294.661 74.3504L294.85 74.65C294.905 74.7405 294.965 74.8272 295.031 74.9098C295.061 74.9549 295.095 74.9982 295.13 75.0396L295.051 74.9397C295.125 75.0658 295.232 75.1693 295.361 75.2394C295.425 75.2735 295.497 75.2914 295.571 75.2914C295.644 75.2914 295.716 75.2735 295.781 75.2394C295.851 75.1972 295.91 75.139 295.953 75.0696C295.997 75.0001 296.023 74.9214 296.031 74.8398C296.041 74.7469 296.041 74.6531 296.031 74.5601C296.032 74.3667 296.001 74.1743 295.941 73.9907Z" fill="#EE9599"/>
<path d="M294.4 75.4792L294.14 75.3793L294.29 75.4393C294.222 75.4051 294.152 75.3751 294.08 75.3494H294C293.921 75.3397 293.84 75.3397 293.76 75.3494C293.684 75.339 293.607 75.339 293.53 75.3494H293.38C293.291 75.3695 293.206 75.4068 293.13 75.4592C293.026 75.523 292.948 75.6223 292.91 75.7389C292.866 75.8547 292.866 75.9828 292.91 76.0986C292.91 76.1585 293 76.2284 293.06 76.2884C293.12 76.3438 293.188 76.3909 293.26 76.4282C293.344 76.4835 293.435 76.5272 293.53 76.5581C293.633 76.5727 293.738 76.5727 293.84 76.5581C293.987 76.5557 294.133 76.5287 294.27 76.4781C294.373 76.4537 294.467 76.4031 294.545 76.3313C294.622 76.2595 294.679 76.169 294.71 76.0686C294.731 75.9832 294.731 75.8943 294.71 75.8089C294.685 75.7351 294.644 75.6675 294.591 75.6107C294.538 75.5539 294.473 75.509 294.4 75.4792Z" fill="#EE9599"/>
<path d="M326.18 74.3604C326.136 74.2882 326.074 74.2283 326.001 74.1864C325.927 74.1445 325.844 74.1218 325.76 74.1206H325.6C325.54 74.1102 325.479 74.1102 325.42 74.1206C325.363 74.1354 325.309 74.159 325.26 74.1906H325.17C325.018 74.2731 324.877 74.3737 324.75 74.4902C324.658 74.5717 324.571 74.6585 324.49 74.75C324.38 74.8589 324.291 74.9877 324.23 75.1296C324.2 75.2475 324.2 75.3712 324.23 75.4892C324.256 75.5792 324.305 75.6611 324.371 75.7275C324.437 75.7938 324.519 75.8424 324.61 75.8688C324.717 75.9044 324.833 75.9102 324.944 75.8855C325.055 75.8609 325.157 75.8068 325.24 75.7289L325.36 75.619C325.438 75.547 325.522 75.4803 325.61 75.4192L325.48 75.5091C325.573 75.4479 325.66 75.3776 325.74 75.2994L325.88 75.1695C325.96 75.1028 326.03 75.0255 326.09 74.9398L326.17 74.7699C326.2 74.7063 326.217 74.6368 326.219 74.5662C326.22 74.4956 326.207 74.4255 326.18 74.3604Z" fill="#EE9599"/>
<path d="M326.51 76.9975L326.3 76.9176H326.24C326.17 76.9028 326.099 76.9028 326.03 76.9176C325.855 76.9228 325.681 76.9428 325.51 76.9776H325.32H325.23C325.144 77.002 325.068 77.0506 325.01 77.1174C324.948 77.1755 324.909 77.2533 324.9 77.3372C324.887 77.4205 324.905 77.5056 324.95 77.5769L325 77.6469C325.052 77.7106 325.122 77.7589 325.2 77.7867L325.38 77.8566C325.507 77.8911 325.638 77.9112 325.77 77.9166H326.06C326.185 77.9167 326.307 77.8783 326.41 77.8067C326.481 77.7681 326.545 77.7174 326.6 77.6568C326.641 77.6095 326.673 77.5537 326.691 77.4933C326.709 77.4328 326.714 77.3692 326.706 77.3066C326.697 77.244 326.675 77.1841 326.641 77.1307C326.607 77.0774 326.563 77.032 326.51 76.9975Z" fill="#EE9599"/>
</svg>
