<svg width="615" height="350" viewBox="0 0 615 350" fill="none" xmlns="http://www.w3.org/2000/svg">
<path d="M615 252C615 360.8 477.328 349 307.5 349C137.672 349 0 360.8 0 252C0 143.2 137.672 55 307.5 55C477.328 55 615 143.2 615 252Z" fill="#F2F6FF"/>
<mask id="mask0_4207_7462" style="mask-type:luminance" maskUnits="userSpaceOnUse" x="88" y="3" width="523" height="347">
<path d="M610.572 350L88.4766 349.933V3H610.572V350Z" fill="white"/>
</mask>
<g mask="url(#mask0_4207_7462)">
<path d="M384.641 23.5513L206.993 126.134L224.465 331.089L358.544 331.855L419.387 332.189L553.466 332.955L573.248 128.197L384.641 23.5513Z" fill="#FEEEBC"/>
<g style="mix-blend-mode:multiply">
<path d="M206.98 129.655L384.64 23.5513L406.128 35.5617L206.98 129.655Z" fill="#FEEEBC"/>
</g>
<g style="mix-blend-mode:multiply">
<path d="M285.938 76.5476L487.544 77.6844" stroke="#FEEEBC" stroke-width="1.00679" stroke-miterlimit="10"/>
</g>
<g style="mix-blend-mode:multiply">
<path d="M306.722 52.1685L453.923 53.0087" stroke="#FEEEBC" stroke-width="1.00679" stroke-miterlimit="10"/>
</g>
<g style="mix-blend-mode:multiply">
<path d="M247.72 100.062L531.299 101.668" stroke="#FEEEBC" stroke-width="1.00679" stroke-miterlimit="10"/>
</g>
<g style="mix-blend-mode:multiply">
<path d="M216.434 122.031L566.934 124.008" stroke="#FEEEBC" stroke-width="1.00679" stroke-miterlimit="10"/>
</g>
<g style="mix-blend-mode:multiply">
<path d="M209.429 148.173L570.654 150.118" stroke="#FEEEBC" stroke-width="1.00679" stroke-miterlimit="10"/>
</g>
<g style="mix-blend-mode:multiply">
<path d="M212.517 172.211L568.8 174.212" stroke="#FEEEBC" stroke-width="1.00679" stroke-miterlimit="10"/>
</g>
<g style="mix-blend-mode:multiply">
<path d="M216.025 194.366L566.526 196.343" stroke="#FEEEBC" stroke-width="1.00679" stroke-miterlimit="10"/>
</g>
<g style="mix-blend-mode:multiply">
<path d="M215.037 220.45L562.165 222.402" stroke="#FEEEBC" stroke-width="1.00679" stroke-miterlimit="10"/>
</g>
<g style="mix-blend-mode:multiply">
<path d="M217.682 244.57L562.029 246.522" stroke="#FEEEBC" stroke-width="1.00679" stroke-miterlimit="10"/>
</g>
<g style="mix-blend-mode:multiply">
<path d="M220.178 266.725L557.803 268.627" stroke="#FEEEBC" stroke-width="1.00679" stroke-miterlimit="10"/>
</g>
<g style="mix-blend-mode:multiply">
<path d="M222.784 292.833L557.654 294.724" stroke="#FEEEBC" stroke-width="1.00679" stroke-miterlimit="10"/>
</g>
<g style="mix-blend-mode:multiply">
<path d="M284.999 244.953L486.593 246.089" stroke="#FEEEBC" stroke-width="1.00679" stroke-miterlimit="10"/>
</g>
<g style="mix-blend-mode:multiply">
<path d="M284.728 293.179L486.322 294.316" stroke="#FEEEBC" stroke-width="1.00679" stroke-miterlimit="10"/>
</g>
<path d="M270.307 331.348L264.463 186.025L515.063 195.119L500.396 332.646L270.307 331.348Z" fill="#82A4A3"/>
<path d="M270.308 331.348L296.034 301.224L470.11 302.2L500.396 332.646L270.308 331.348Z" fill="#C1B9A0"/>
<g style="mix-blend-mode:multiply">
<path d="M269.319 180.959L264.463 113.122L518.893 114.568L518.473 187.149L269.319 180.959Z" fill="#FEEEBC"/>
</g>
<path d="M263.919 176.338L259.062 108.514L513.493 109.947L513.085 182.528L263.919 176.338Z" fill="#9F815B"/>
<path d="M296.033 301.223L289.015 197.677L486.828 203.485L470.11 302.2L296.033 301.223Z" fill="#668785"/>
<path d="M200.766 133.362L384.641 23.551L584.913 135.537L590.449 121.932L381.774 4.83105L194.748 119.931L200.766 133.362Z" fill="#8C7373"/>
<path d="M294.704 287.458L310.928 272.606L360.786 272.878L382.175 287.953L294.704 287.458Z" fill="#D4AD74"/>
<path d="M295.019 286.909L294.595 329.303L382.065 330.178L382.489 287.783L295.019 286.909Z" fill="#866545"/>
<path d="M329.293 287.265L328.869 329.66L342.424 329.796L342.848 287.401L329.293 287.265Z" fill="#E0BA89"/>
<path d="M393.032 279.618L409.281 261.294L459.139 261.578L480.503 280.113L393.032 279.618Z" fill="#D4AD74"/>
<path d="M392.78 279.445L392.355 321.852L479.826 322.727L480.25 280.32L392.78 279.445Z" fill="#866545"/>
<path d="M427.054 279.802L426.63 322.197L440.185 322.332L440.609 279.938L427.054 279.802Z" fill="#E0BA89"/>
<path d="M334.731 234.334L350.955 220.396L400.813 220.681L422.202 234.829L334.731 234.334Z" fill="#D4AD74"/>
<path d="M334.807 234.328L334.383 276.735L421.854 277.61L422.278 235.202L334.807 234.328Z" fill="#866545"/>
<path d="M367.165 234.319L366.928 276.713L380.482 276.789L380.719 234.395L367.165 234.319Z" fill="#E0BA89"/>
<path d="M277.536 119.066C277.588 119.723 277.443 120.381 277.121 120.957C276.799 121.532 276.314 121.999 275.726 122.299C275.139 122.598 274.476 122.717 273.821 122.64C273.166 122.563 272.548 122.294 272.046 121.866C271.544 121.438 271.18 120.871 271.001 120.237C270.821 119.602 270.833 118.929 271.036 118.301C271.238 117.674 271.622 117.12 272.139 116.711C272.656 116.302 273.283 116.055 273.941 116.001C274.823 115.933 275.697 116.217 276.371 116.791C277.045 117.366 277.464 118.183 277.536 119.066Z" fill="white"/>
<path d="M278.846 135.389C278.9 136.046 278.758 136.705 278.437 137.282C278.117 137.859 277.632 138.328 277.045 138.63C276.458 138.931 275.795 139.052 275.139 138.976C274.484 138.901 273.865 138.632 273.362 138.205C272.859 137.778 272.494 137.212 272.313 136.577C272.132 135.942 272.143 135.268 272.345 134.64C272.547 134.012 272.931 133.458 273.448 133.048C273.965 132.638 274.592 132.39 275.25 132.337C276.132 132.265 277.005 132.546 277.68 133.118C278.354 133.691 278.773 134.507 278.846 135.389Z" fill="white"/>
<path d="M280.155 151.724C280.202 152.381 280.053 153.037 279.728 153.609C279.402 154.182 278.915 154.645 278.326 154.941C277.738 155.237 277.075 155.352 276.422 155.272C275.768 155.192 275.153 154.92 274.653 154.491C274.154 154.062 273.793 153.494 273.615 152.86C273.437 152.226 273.451 151.554 273.655 150.928C273.859 150.301 274.243 149.75 274.76 149.342C275.277 148.934 275.903 148.688 276.56 148.635C276.999 148.599 277.441 148.651 277.86 148.788C278.279 148.924 278.667 149.142 279.001 149.43C279.336 149.717 279.61 150.068 279.808 150.461C280.006 150.855 280.124 151.284 280.155 151.724Z" fill="white"/>
<path d="M281.465 168.059C281.517 168.716 281.372 169.374 281.05 169.95C280.728 170.525 280.242 170.992 279.655 171.292C279.067 171.591 278.404 171.71 277.749 171.633C277.094 171.556 276.477 171.287 275.975 170.859C275.473 170.431 275.109 169.864 274.929 169.23C274.749 168.595 274.762 167.922 274.964 167.294C275.167 166.667 275.551 166.113 276.068 165.704C276.585 165.295 277.212 165.048 277.869 164.994C278.307 164.959 278.747 165.01 279.164 165.145C279.582 165.28 279.969 165.496 280.303 165.78C280.637 166.065 280.912 166.413 281.111 166.804C281.31 167.195 281.431 167.621 281.465 168.059Z" fill="white"/>
<path d="M344.396 174.213C343.736 174.2 343.095 173.993 342.553 173.616C342.012 173.239 341.594 172.71 341.353 172.096C341.112 171.482 341.058 170.81 341.199 170.166C341.34 169.521 341.668 168.932 342.143 168.475C342.618 168.017 343.219 167.71 343.868 167.593C344.517 167.477 345.187 167.555 345.792 167.819C346.396 168.082 346.909 168.52 347.266 169.075C347.622 169.63 347.806 170.279 347.794 170.938C347.788 171.377 347.694 171.81 347.52 172.212C347.345 172.615 347.093 172.979 346.777 173.283C346.461 173.587 346.088 173.826 345.679 173.986C345.271 174.145 344.835 174.222 344.396 174.213Z" fill="white"/>
<path d="M328.011 173.916C327.349 173.906 326.704 173.7 326.159 173.323C325.613 172.946 325.192 172.416 324.948 171.8C324.704 171.184 324.648 170.509 324.788 169.861C324.928 169.213 325.257 168.622 325.733 168.161C326.21 167.7 326.812 167.391 327.464 167.273C328.116 167.154 328.789 167.232 329.397 167.497C330.005 167.761 330.52 168.2 330.879 168.757C331.237 169.315 331.422 169.966 331.409 170.629C331.403 171.068 331.31 171.502 331.136 171.905C330.961 172.308 330.709 172.673 330.393 172.978C330.077 173.284 329.704 173.524 329.296 173.684C328.887 173.845 328.451 173.924 328.011 173.916Z" fill="white"/>
<path d="M311.627 173.607C310.964 173.595 310.32 173.386 309.776 173.007C309.232 172.629 308.813 172.097 308.571 171.48C308.33 170.863 308.277 170.188 308.419 169.54C308.561 168.893 308.892 168.303 309.37 167.844C309.848 167.385 310.452 167.078 311.104 166.962C311.757 166.846 312.429 166.927 313.036 167.193C313.643 167.46 314.157 167.9 314.513 168.459C314.869 169.018 315.052 169.67 315.037 170.333C315.029 170.772 314.934 171.205 314.759 171.608C314.583 172.01 314.329 172.374 314.012 172.678C313.695 172.982 313.321 173.221 312.912 173.38C312.503 173.54 312.066 173.617 311.627 173.607Z" fill="white"/>
<path d="M295.217 173.347C294.558 173.335 293.916 173.127 293.375 172.751C292.833 172.374 292.415 171.845 292.174 171.231C291.933 170.617 291.879 169.945 292.02 169.3C292.161 168.656 292.489 168.067 292.965 167.609C293.44 167.152 294.04 166.845 294.689 166.728C295.339 166.611 296.008 166.69 296.613 166.954C297.218 167.217 297.731 167.654 298.087 168.21C298.444 168.765 298.627 169.413 298.615 170.073C298.607 170.511 298.513 170.943 298.338 171.345C298.163 171.747 297.91 172.11 297.595 172.414C297.279 172.718 296.907 172.957 296.499 173.117C296.091 173.277 295.655 173.356 295.217 173.347Z" fill="white"/>
<path d="M410.824 175.559C410.165 175.552 409.523 175.349 408.979 174.977C408.434 174.605 408.013 174.08 407.766 173.468C407.52 172.857 407.461 172.186 407.596 171.541C407.731 170.895 408.054 170.304 408.524 169.842C408.995 169.381 409.592 169.068 410.239 168.945C410.887 168.823 411.557 168.894 412.164 169.152C412.771 169.409 413.288 169.84 413.65 170.391C414.012 170.942 414.203 171.588 414.198 172.248C414.195 172.687 414.105 173.121 413.933 173.525C413.762 173.93 413.512 174.296 413.199 174.604C412.885 174.912 412.514 175.154 412.107 175.318C411.699 175.482 411.264 175.564 410.824 175.559Z" fill="white"/>
<path d="M394.44 175.448C393.78 175.448 393.135 175.252 392.586 174.886C392.038 174.519 391.61 173.998 391.357 173.389C391.105 172.779 391.039 172.108 391.168 171.461C391.296 170.814 391.614 170.219 392.081 169.753C392.547 169.286 393.142 168.968 393.789 168.84C394.436 168.711 395.107 168.777 395.716 169.03C396.326 169.282 396.847 169.71 397.214 170.258C397.58 170.807 397.776 171.452 397.776 172.112C397.776 172.997 397.424 173.845 396.799 174.471C396.173 175.097 395.325 175.448 394.44 175.448Z" fill="white"/>
<path d="M378.067 175.337C377.404 175.334 376.756 175.135 376.207 174.764C375.657 174.393 375.23 173.867 374.979 173.252C374.729 172.638 374.666 171.963 374.8 171.314C374.934 170.664 375.257 170.069 375.73 169.603C376.202 169.137 376.802 168.823 377.454 168.699C378.106 168.575 378.78 168.647 379.39 168.907C380 169.166 380.52 169.601 380.883 170.156C381.246 170.711 381.436 171.362 381.428 172.025C381.425 172.463 381.336 172.897 381.165 173.3C380.994 173.704 380.746 174.07 380.434 174.377C380.122 174.685 379.752 174.928 379.346 175.092C378.94 175.257 378.506 175.34 378.067 175.337Z" fill="white"/>
<path d="M361.683 175.225C361.02 175.223 360.373 175.024 359.823 174.653C359.274 174.283 358.846 173.758 358.596 173.144C358.345 172.53 358.282 171.856 358.414 171.207C358.547 170.558 358.869 169.962 359.341 169.496C359.812 169.03 360.411 168.714 361.062 168.589C361.713 168.463 362.386 168.534 362.997 168.792C363.607 169.049 364.128 169.482 364.492 170.036C364.857 170.589 365.049 171.239 365.044 171.902C365.042 172.341 364.954 172.775 364.784 173.18C364.614 173.585 364.366 173.953 364.053 174.261C363.741 174.57 363.371 174.814 362.964 174.98C362.557 175.145 362.122 175.229 361.683 175.225Z" fill="white"/>
<path d="M481.897 176.189C481.238 176.177 480.597 175.97 480.056 175.594C479.514 175.218 479.096 174.689 478.855 174.076C478.613 173.463 478.559 172.791 478.699 172.147C478.838 171.503 479.166 170.914 479.64 170.456C480.114 169.997 480.713 169.69 481.361 169.572C482.01 169.453 482.679 169.53 483.284 169.792C483.889 170.054 484.403 170.489 484.761 171.042C485.119 171.596 485.305 172.243 485.295 172.903C485.289 173.342 485.196 173.775 485.021 174.179C484.847 174.582 484.594 174.946 484.279 175.252C483.963 175.557 483.59 175.797 483.181 175.958C482.773 176.119 482.336 176.198 481.897 176.189Z" fill="white"/>
<path d="M465.526 175.93C464.863 175.922 464.216 175.718 463.669 175.343C463.122 174.968 462.699 174.439 462.453 173.823C462.207 173.206 462.15 172.531 462.289 171.883C462.427 171.234 462.755 170.641 463.231 170.179C463.707 169.717 464.309 169.407 464.962 169.287C465.614 169.168 466.288 169.246 466.896 169.51C467.505 169.773 468.021 170.212 468.38 170.77C468.739 171.328 468.924 171.98 468.911 172.643C468.905 173.081 468.812 173.514 468.639 173.916C468.465 174.318 468.214 174.683 467.899 174.988C467.585 175.293 467.214 175.533 466.806 175.695C466.399 175.857 465.964 175.936 465.526 175.93Z" fill="white"/>
<path d="M449.141 175.658C448.481 175.648 447.839 175.443 447.296 175.068C446.753 174.694 446.333 174.166 446.09 173.553C445.846 172.94 445.79 172.268 445.929 171.623C446.067 170.978 446.393 170.388 446.867 169.929C447.34 169.469 447.939 169.16 448.588 169.041C449.237 168.922 449.907 168.998 450.513 169.259C451.119 169.521 451.633 169.956 451.992 170.51C452.35 171.064 452.536 171.712 452.527 172.371C452.522 172.81 452.43 173.243 452.257 173.646C452.084 174.049 451.833 174.414 451.518 174.72C451.203 175.025 450.831 175.266 450.423 175.427C450.015 175.588 449.58 175.666 449.141 175.658Z" fill="white"/>
<path d="M432.757 175.398C432.094 175.389 431.449 175.182 430.904 174.806C430.358 174.429 429.937 173.899 429.693 173.283C429.449 172.666 429.394 171.992 429.533 171.344C429.673 170.696 430.002 170.104 430.479 169.643C430.955 169.183 431.557 168.874 432.209 168.755C432.862 168.637 433.534 168.715 434.142 168.979C434.75 169.244 435.265 169.682 435.624 170.24C435.982 170.798 436.167 171.449 436.155 172.112C436.135 172.997 435.767 173.838 435.131 174.453C434.495 175.069 433.642 175.408 432.757 175.398Z" fill="white"/>
<path d="M344.396 118.794C343.736 118.782 343.095 118.574 342.553 118.197C342.012 117.82 341.594 117.292 341.353 116.677C341.112 116.063 341.058 115.391 341.199 114.747C341.34 114.102 341.668 113.514 342.143 113.056C342.618 112.598 343.219 112.291 343.868 112.175C344.517 112.058 345.187 112.136 345.792 112.4C346.396 112.664 346.909 113.101 347.266 113.656C347.622 114.211 347.806 114.86 347.794 115.519C347.788 115.958 347.694 116.391 347.52 116.794C347.345 117.196 347.093 117.56 346.777 117.864C346.461 118.169 346.088 118.408 345.679 118.567C345.271 118.727 344.835 118.804 344.396 118.794Z" fill="white"/>
<path d="M328.011 118.498C327.349 118.488 326.704 118.281 326.159 117.905C325.613 117.528 325.192 116.998 324.948 116.382C324.704 115.766 324.648 115.091 324.788 114.443C324.928 113.795 325.257 113.203 325.733 112.743C326.21 112.282 326.812 111.973 327.464 111.854C328.116 111.736 328.789 111.814 329.397 112.079C330.005 112.343 330.52 112.782 330.879 113.339C331.237 113.897 331.422 114.548 331.409 115.211C331.403 115.65 331.31 116.084 331.136 116.487C330.961 116.89 330.709 117.255 330.393 117.56C330.077 117.865 329.704 118.105 329.296 118.266C328.887 118.427 328.451 118.506 328.011 118.498Z" fill="white"/>
<path d="M311.627 118.189C310.964 118.176 310.32 117.967 309.776 117.589C309.232 117.21 308.813 116.679 308.571 116.061C308.33 115.444 308.277 114.769 308.419 114.122C308.561 113.475 308.892 112.884 309.37 112.425C309.848 111.966 310.452 111.659 311.104 111.543C311.757 111.428 312.429 111.508 313.036 111.775C313.643 112.041 314.157 112.482 314.513 113.041C314.869 113.599 315.052 114.251 315.037 114.914C315.029 115.353 314.934 115.787 314.759 116.189C314.583 116.592 314.329 116.955 314.012 117.26C313.695 117.564 313.321 117.803 312.912 117.962C312.503 118.121 312.066 118.198 311.627 118.189Z" fill="white"/>
<path d="M295.217 117.88C294.558 117.867 293.916 117.66 293.375 117.283C292.833 116.906 292.415 116.377 292.174 115.763C291.933 115.149 291.879 114.477 292.02 113.833C292.161 113.188 292.489 112.599 292.965 112.142C293.44 111.684 294.04 111.377 294.689 111.26C295.339 111.144 296.008 111.222 296.613 111.486C297.218 111.749 297.731 112.187 298.087 112.742C298.444 113.297 298.627 113.946 298.615 114.605C298.607 115.043 298.513 115.476 298.338 115.877C298.163 116.279 297.91 116.642 297.595 116.946C297.279 117.25 296.907 117.489 296.499 117.649C296.091 117.81 295.655 117.888 295.217 117.88Z" fill="white"/>
<path d="M410.824 120.141C410.165 120.134 409.523 119.931 408.979 119.559C408.434 119.187 408.013 118.662 407.766 118.05C407.52 117.439 407.461 116.768 407.596 116.122C407.731 115.477 408.054 114.886 408.524 114.424C408.995 113.962 409.592 113.65 410.239 113.527C410.887 113.404 411.557 113.476 412.164 113.733C412.771 113.991 413.288 114.422 413.65 114.973C414.012 115.524 414.203 116.17 414.198 116.829C414.195 117.269 414.105 117.703 413.933 118.107C413.762 118.512 413.512 118.878 413.199 119.186C412.885 119.493 412.514 119.736 412.107 119.9C411.699 120.064 411.264 120.146 410.824 120.141Z" fill="white"/>
<path d="M394.44 120.03C393.78 120.022 393.138 119.82 392.594 119.448C392.05 119.076 391.628 118.551 391.382 117.939C391.136 117.327 391.076 116.656 391.211 116.011C391.346 115.366 391.669 114.775 392.14 114.313C392.61 113.851 393.207 113.539 393.855 113.416C394.502 113.293 395.172 113.365 395.779 113.622C396.386 113.879 396.903 114.311 397.265 114.862C397.627 115.413 397.818 116.059 397.813 116.718C397.81 117.157 397.72 117.592 397.548 117.996C397.377 118.4 397.127 118.767 396.814 119.074C396.501 119.382 396.13 119.625 395.722 119.789C395.315 119.953 394.879 120.035 394.44 120.03Z" fill="white"/>
<path d="M378.067 119.918C377.404 119.916 376.756 119.716 376.207 119.345C375.657 118.974 375.23 118.448 374.979 117.834C374.729 117.22 374.666 116.545 374.8 115.895C374.934 115.245 375.257 114.65 375.73 114.184C376.202 113.719 376.802 113.404 377.454 113.28C378.106 113.156 378.78 113.229 379.39 113.488C380 113.748 380.52 114.183 380.883 114.738C381.246 115.293 381.436 115.944 381.428 116.607C381.425 117.045 381.336 117.478 381.165 117.882C380.994 118.285 380.746 118.651 380.434 118.959C380.122 119.266 379.752 119.509 379.346 119.674C378.94 119.839 378.506 119.922 378.067 119.918Z" fill="white"/>
<path d="M361.683 119.807C361.019 119.805 360.372 119.605 359.822 119.234C359.272 118.863 358.845 118.337 358.594 117.723C358.344 117.109 358.282 116.434 358.415 115.784C358.549 115.134 358.873 114.539 359.345 114.073C359.818 113.608 360.418 113.293 361.069 113.169C361.721 113.045 362.395 113.117 363.005 113.377C363.616 113.636 364.135 114.071 364.498 114.627C364.861 115.182 365.051 115.832 365.044 116.496C365.04 116.934 364.951 117.367 364.78 117.771C364.61 118.174 364.361 118.54 364.049 118.848C363.737 119.155 363.367 119.398 362.961 119.563C362.555 119.727 362.121 119.81 361.683 119.807Z" fill="white"/>
<path d="M481.897 120.771C481.238 120.759 480.597 120.551 480.056 120.175C479.514 119.799 479.096 119.271 478.855 118.658C478.613 118.044 478.559 117.373 478.699 116.729C478.838 116.084 479.166 115.496 479.64 115.037C480.114 114.579 480.713 114.271 481.361 114.153C482.01 114.035 482.679 114.112 483.284 114.373C483.889 114.635 484.403 115.07 484.761 115.624C485.119 116.178 485.305 116.825 485.295 117.484C485.289 117.923 485.196 118.357 485.021 118.76C484.847 119.163 484.594 119.528 484.279 119.833C483.963 120.139 483.59 120.379 483.181 120.54C482.773 120.701 482.336 120.779 481.897 120.771Z" fill="white"/>
<path d="M465.526 120.512C464.863 120.504 464.216 120.3 463.669 119.925C463.122 119.55 462.699 119.02 462.453 118.404C462.207 117.788 462.15 117.113 462.289 116.464C462.427 115.816 462.755 115.223 463.231 114.761C463.707 114.299 464.309 113.988 464.962 113.869C465.614 113.75 466.288 113.827 466.896 114.091C467.505 114.355 468.021 114.794 468.38 115.352C468.739 115.91 468.924 116.562 468.911 117.225C468.905 117.663 468.812 118.096 468.639 118.498C468.465 118.9 468.214 119.264 467.899 119.57C467.585 119.875 467.214 120.115 466.806 120.277C466.399 120.438 465.964 120.518 465.526 120.512Z" fill="white"/>
<path d="M449.141 120.215C448.481 120.205 447.839 120 447.296 119.625C446.753 119.251 446.333 118.723 446.09 118.11C445.846 117.497 445.79 116.825 445.929 116.18C446.067 115.535 446.393 114.945 446.867 114.485C447.34 114.026 447.939 113.717 448.588 113.598C449.237 113.479 449.907 113.555 450.513 113.816C451.119 114.078 451.633 114.513 451.992 115.067C452.35 115.621 452.536 116.268 452.527 116.928C452.522 117.367 452.43 117.8 452.257 118.203C452.084 118.606 451.833 118.971 451.518 119.277C451.203 119.582 450.831 119.822 450.423 119.983C450.015 120.145 449.58 120.223 449.141 120.215Z" fill="white"/>
<path d="M432.757 119.98C432.094 119.97 431.449 119.764 430.904 119.387C430.358 119.011 429.937 118.481 429.693 117.864C429.449 117.248 429.394 116.573 429.533 115.926C429.673 115.278 430.002 114.686 430.479 114.225C430.955 113.764 431.557 113.455 432.209 113.337C432.862 113.219 433.534 113.297 434.142 113.561C434.75 113.826 435.265 114.264 435.624 114.822C435.982 115.379 436.167 116.031 436.155 116.693C436.135 117.578 435.767 118.42 435.131 119.035C434.495 119.651 433.642 119.99 432.757 119.98Z" fill="white"/>
<path d="M508.489 123.626C508.474 124.287 508.262 124.929 507.881 125.47C507.5 126.011 506.967 126.427 506.349 126.664C505.731 126.901 505.056 126.949 504.411 126.802C503.766 126.654 503.179 126.318 502.725 125.837C502.271 125.355 501.971 124.749 501.863 124.096C501.754 123.443 501.842 122.773 502.116 122.17C502.389 121.568 502.836 121.06 503.398 120.712C503.961 120.364 504.615 120.191 505.276 120.215C506.153 120.247 506.981 120.623 507.582 121.261C508.183 121.9 508.509 122.749 508.489 123.626Z" fill="white"/>
<path d="M507.871 139.985C507.846 140.644 507.627 141.281 507.24 141.816C506.853 142.35 506.317 142.758 505.698 142.987C505.08 143.217 504.407 143.258 503.765 143.105C503.124 142.952 502.541 142.613 502.093 142.13C501.644 141.646 501.348 141.041 501.244 140.389C501.139 139.738 501.229 139.07 501.504 138.471C501.779 137.871 502.225 137.366 502.786 137.02C503.348 136.673 503.999 136.501 504.659 136.525C505.097 136.541 505.528 136.643 505.926 136.826C506.325 137.009 506.684 137.268 506.982 137.589C507.281 137.911 507.513 138.288 507.665 138.699C507.818 139.11 507.888 139.547 507.871 139.985Z" fill="white"/>
<path d="M507.253 156.37C507.23 157.032 507.011 157.674 506.624 158.212C506.237 158.75 505.698 159.161 505.077 159.393C504.456 159.625 503.78 159.667 503.134 159.514C502.489 159.361 501.904 159.02 501.452 158.534C501.001 158.048 500.704 157.439 500.6 156.785C500.495 156.13 500.587 155.459 500.864 154.856C501.141 154.254 501.591 153.747 502.157 153.401C502.722 153.054 503.378 152.883 504.04 152.91C504.478 152.926 504.909 153.028 505.308 153.211C505.707 153.393 506.065 153.652 506.364 153.974C506.662 154.295 506.894 154.672 507.047 155.083C507.199 155.494 507.269 155.931 507.253 156.37Z" fill="white"/>
<path d="M506.636 172.742C506.613 173.405 506.394 174.046 506.007 174.584C505.62 175.123 505.081 175.534 504.46 175.766C503.838 175.997 503.162 176.04 502.517 175.887C501.872 175.734 501.286 175.393 500.835 174.907C500.384 174.421 500.087 173.812 499.982 173.157C499.878 172.502 499.97 171.831 500.247 171.229C500.524 170.626 500.974 170.12 501.539 169.773C502.105 169.427 502.76 169.256 503.423 169.282C504.307 169.318 505.141 169.702 505.743 170.35C506.345 170.998 506.666 171.858 506.636 172.742Z" fill="white"/>
<path d="M953.553 330.916H66.1055V359.941H953.553V330.916Z" fill="#C1B9A0"/>
<path opacity="0.27" d="M259.063 341.901H66.1055V330.916H270.307L259.063 341.901Z" fill="white"/>
<path opacity="0.27" d="M511.64 341.901H924.837V330.916H500.396L511.64 341.901Z" fill="white"/>
</g>
<path d="M449.138 134.82H461.936V138.314H449.138V134.82ZM448.884 152.445C452.059 151.906 456.791 150.889 461.237 149.905L461.587 153.398C457.49 154.414 453.107 155.431 449.709 156.225L448.884 152.445ZM450.218 140.029L453.139 139.457C453.806 142.823 454.378 147.079 454.568 150L451.456 150.604C451.361 147.714 450.789 143.363 450.218 140.029ZM457.299 139.203L460.824 139.806C460.126 143.871 459.109 148.857 458.22 151.937L455.457 151.334C456.251 148.127 456.982 142.95 457.299 139.203ZM452.726 130.343L455.997 129.39C456.855 130.819 457.712 132.724 458.062 133.995L454.632 135.106C454.314 133.836 453.489 131.804 452.726 130.343ZM469.145 135.106H478.386V138.727H469.145V135.106ZM463.841 154.002H475.21V157.558H463.841V154.002ZM467.049 129.231H470.987V145.777H467.049V129.231ZM462.158 144.22H477.274V158.924H473.4V147.777H465.842V159.051H462.158V144.22Z" fill="white"/>
<path d="M430.115 133.9H433.831V154.415H430.115V133.9ZM427.003 144.602V145.872H437.102V144.602H427.003ZM427.003 141.172V142.411H437.102V141.172H427.003ZM423.923 138.822H440.309V148.19H423.923V138.822ZM422.208 130.248H441.516V136.408H437.864V133.042H425.701V136.408H422.208V130.248ZM424.812 135.043H439.134V137.679H424.812V135.043ZM422.589 149.524H441.897V152.35H422.589V149.524ZM414.173 130.946L417.031 129.263C418.46 130.788 420.144 132.788 421.001 134.09L418.016 136.123C417.222 134.757 415.507 132.534 414.173 130.946ZM413.411 136.726H420.048V139.775H413.411V136.726ZM419.858 150.477C421.541 154.764 425.288 155.272 431.036 155.304C434.434 155.304 439.674 155.113 443.294 154.764C442.754 155.526 442.278 157.241 442.088 158.257C438.753 158.48 434.688 158.543 430.973 158.543C423.605 158.543 419.667 157.59 417.317 151.493L419.858 150.477ZM418.587 144.379H419.731L420.334 144.316L421.922 144.951C421.001 151.906 418.587 156.669 415.221 159.178C414.713 158.448 413.475 157.146 412.744 156.638C415.888 154.51 417.889 150.509 418.587 144.951V144.379ZM414.014 147.841V145.11L415.38 144.379H420.048V147.333H415.952C415.189 147.333 414.268 147.555 414.014 147.841ZM414.014 147.841C413.792 147.047 413.125 145.427 412.776 144.729C413.316 144.602 413.824 144.379 414.427 143.713C415.348 142.823 418.143 138.758 419.223 137.012V136.917L420.175 136.504L422.494 137.552C421.033 139.743 418.333 143.681 416.555 145.745C416.555 145.745 414.014 146.984 414.014 147.841Z" fill="white"/>
<path d="M391.054 131.391H406.806V134.186H391.054V131.391ZM390.769 149.429H407.25V152.223H390.769V149.429ZM397.183 129.263H400.423V146.412H397.183V129.263ZM394.579 140.6V141.839H403.09V140.6H394.579ZM394.579 137.393V138.631H403.09V137.393H394.579ZM391.594 135.329H406.234V143.903H391.594V135.329ZM390.737 145.427C394.389 145.396 399.819 145.3 405.123 145.173L405.059 147.746C399.978 147.936 394.706 148.032 390.959 148.127L390.737 145.427ZM400.137 148.159H403.63V155.78C403.63 157.4 403.344 158.225 402.169 158.702C400.963 159.178 399.406 159.178 397.215 159.178C397.088 158.225 396.612 156.987 396.199 156.13C397.565 156.193 399.152 156.193 399.565 156.161C400.01 156.13 400.137 156.034 400.137 155.685V148.159ZM392.261 153.113L394.802 151.62C395.977 152.7 397.152 154.192 397.692 155.304L394.961 157.019C394.484 155.907 393.373 154.256 392.261 153.113ZM401.661 144.316L404.202 143.173C405.472 144.506 406.806 146.317 407.441 147.587L404.773 148.921C404.234 147.65 402.9 145.713 401.661 144.316ZM377.844 132.312H390.419V135.583H377.844V132.312ZM377.367 150.731H390.832V154.034H377.367V150.731ZM382.512 129.295H385.91V138.536H382.512V129.295ZM382.956 138.6H385.465V147.428H385.91V159.083H382.512V147.428H382.956V138.6ZM381.146 144.284V146.19H387.371V144.284H381.146ZM381.146 139.933V141.775H387.371V139.933H381.146ZM378.447 137.298H390.133V148.825H378.447V137.298Z" fill="white"/>
<path d="M356.693 139.616H370.317V158.829H366.442V142.982H360.377V159.019H356.693V139.616ZM342.72 141.553H355.899V145.014H342.72V141.553ZM358.471 144.951H368.316V147.746H358.471V144.951ZM358.471 149.778H368.316V152.604H358.471V149.778ZM358.471 154.7H368.316V157.781H358.471V154.7ZM347.896 138.473H351.548V159.115H347.896V138.473ZM351.008 145.205C352.088 145.999 355.677 149.27 356.502 150.096L354.089 153.049C352.946 151.366 350.373 148.285 348.976 146.825L351.008 145.205ZM347.833 143.554L350.596 145.142C349.167 148.825 346.404 153.208 343.863 155.748C343.355 154.827 342.371 153.494 341.545 152.763C343.958 150.762 346.563 146.856 347.833 143.554ZM346.69 131.486H356.629V134.662H346.69V131.486ZM359.646 131.55H371.365V134.725H359.646V131.55ZM346.594 129.041L350.183 130.057C348.849 133.296 346.658 136.567 344.53 138.631C343.895 137.933 342.498 136.599 341.704 135.996C343.704 134.312 345.546 131.677 346.594 129.041ZM359.773 129.041L363.521 129.93C362.377 133.264 360.377 136.535 358.376 138.568C357.646 137.933 356.058 136.885 355.169 136.408C357.138 134.662 358.884 131.867 359.773 129.041ZM348.658 135.932L350.977 133.963C352.152 134.916 353.644 136.281 354.343 137.234L351.866 139.457C351.231 138.473 349.802 136.98 348.658 135.932ZM362.79 135.773L365.045 133.741C366.252 134.757 367.903 136.154 368.697 137.139L366.315 139.425C365.617 138.409 364.029 136.885 362.79 135.773Z" fill="white"/>
<path d="M320.109 137.012H331.542V140.219H320.109V137.012ZM318.331 131.613H321.824V137.202C321.824 141.998 321.253 149.175 318.013 153.843C317.378 153.271 315.822 152.382 314.933 152.065C318.045 147.682 318.331 141.458 318.331 137.171V131.613ZM330.621 137.012H331.32L331.955 136.917L334.305 137.647C332.622 146.348 328.207 151.461 321.824 154.192C321.38 153.24 320.459 151.842 319.728 151.112C325.254 149.143 329.319 144.284 330.621 137.615V137.012ZM321.92 143.586L324.492 141.331C328.334 144.157 333.447 148.317 335.829 151.207L332.971 153.843C330.78 150.953 325.826 146.571 321.92 143.586ZM318.331 130.597H334.876V134.027H318.331V130.597ZM307.502 131.073L310.328 129.327C311.853 130.851 313.631 132.82 314.584 134.09L311.694 136.218C310.805 134.852 308.963 132.661 307.502 131.073ZM306.708 136.663H313.44V139.711H306.708V136.663ZM313.155 150.477C314.87 154.764 318.585 155.272 324.333 155.304C327.731 155.304 332.971 155.082 336.559 154.764C336.051 155.526 335.543 157.241 335.353 158.289C332.05 158.479 327.985 158.575 324.27 158.575C316.902 158.575 312.964 157.59 310.614 151.493L313.155 150.477ZM312.392 144.379H313.313L313.917 144.316L315.727 144.983C314.679 152.001 312.075 156.701 308.359 159.115C307.883 158.384 306.644 157.082 305.914 156.574C309.344 154.51 311.63 150.54 312.392 144.951V144.379ZM307.311 147.841V145.11L308.677 144.379H313.472L313.44 147.333H309.249C308.486 147.333 307.565 147.555 307.311 147.841ZM307.311 147.841C307.089 147.047 306.422 145.427 306.073 144.729C306.613 144.602 307.121 144.379 307.724 143.713C308.645 142.823 311.503 138.758 312.551 137.012V136.917L313.536 136.504L315.822 137.552C314.361 139.743 311.63 143.681 309.852 145.745C309.852 145.745 307.311 146.983 307.311 147.841Z" fill="white"/>
<path d="M184.551 339.35C184.551 339.35 188.52 345.004 186.804 339.815L184.551 339.35Z" fill="#FFD1B8"/>
<path d="M187.908 170.191C187.908 170.191 192.784 170.829 195.687 173.292C198.591 175.756 210.064 193.017 210.792 198.32C211.519 203.623 203 211.651 187.181 185.557" fill="#FFD261"/>
<path d="M186.663 196.712L187.793 171.78C185.63 169.616 170.135 167.887 165.19 166.943V166.579L164.213 166.758L163.231 166.579V166.943C158.298 167.887 142.632 169.604 140.462 171.78L140.845 196.712C140.845 196.712 135.925 229.212 142.619 235.639C142.619 235.639 152.51 236.711 164.156 236.717H164.277C175.923 236.717 185.815 235.639 185.815 235.639C192.043 231.076 186.663 196.712 186.663 196.712Z" fill="#FFD1B8"/>
<path d="M188.412 225.403L139.218 223.335C138.522 240.884 146.997 342.419 146.997 342.419H152.74C152.74 342.419 159.357 253.456 163.805 245.491C164.233 245.531 164.664 245.5 165.082 245.402C167.289 249.078 168.649 272.517 171.463 295.177C174.284 318.208 181.124 340.453 181.124 340.453L186.868 339.815C185.471 325.112 185.085 310.329 185.713 295.573C186.88 267.463 188.782 234.847 188.412 225.403Z" fill="#FFD1B8"/>
<path d="M138.994 233.533C138.994 233.533 140.334 273.283 144.163 340.677H156.122C156.122 340.677 160.774 250.061 163.964 249.269C165.477 248.906 167.155 269.269 168.47 290.87C172.554 319.535 177.557 338.73 177.557 338.73L188.526 338.092C188.526 338.092 186.995 317.767 186.535 291.074C188.124 265.465 189.011 238.255 188.833 231.867" fill="#7994FE"/>
<path d="M164.035 242.199H163.978L162.197 241.81L162.14 241.714C161.725 241.076 161.565 235.122 161.54 233.941C161.538 233.87 161.565 233.8 161.613 233.748C161.662 233.695 161.73 233.664 161.802 233.66C161.837 233.66 161.873 233.666 161.906 233.679C161.939 233.692 161.97 233.712 161.995 233.737C162.021 233.762 162.041 233.791 162.055 233.824C162.069 233.857 162.076 233.893 162.076 233.928C162.153 237.119 162.35 240.642 162.561 241.337L164.092 241.669C164.154 241.688 164.206 241.727 164.242 241.78C164.277 241.834 164.292 241.897 164.286 241.961C164.279 242.024 164.25 242.084 164.204 242.128C164.159 242.173 164.099 242.2 164.035 242.205V242.199Z" fill="#587DF4"/>
<path d="M164.233 240.208C164.198 240.205 164.164 240.194 164.133 240.178C164.102 240.161 164.075 240.139 164.053 240.111C164.031 240.084 164.014 240.052 164.005 240.018C163.995 239.985 163.992 239.949 163.997 239.914L164.584 234.005C164.587 233.97 164.597 233.936 164.614 233.904C164.63 233.873 164.653 233.845 164.68 233.823C164.708 233.8 164.739 233.783 164.773 233.773C164.807 233.763 164.842 233.759 164.878 233.763C164.913 233.765 164.948 233.774 164.98 233.791C165.011 233.807 165.039 233.83 165.062 233.857C165.085 233.884 165.102 233.916 165.112 233.951C165.122 233.985 165.124 234.021 165.12 234.056L164.533 239.965C164.525 240.037 164.489 240.103 164.433 240.148C164.377 240.194 164.305 240.215 164.233 240.208Z" fill="#587DF4"/>
<path d="M169.076 167.192C169.076 169.431 166.843 171.257 164.086 171.257C161.336 171.257 159.102 169.431 159.102 167.192V160.255C159.102 158.009 161.336 156.184 164.086 156.184C166.843 156.184 169.076 158.009 169.076 160.255V167.192Z" fill="#FFD1B8"/>
<path style="mix-blend-mode:multiply" d="M159.715 158.302C159.311 158.874 159.088 159.555 159.077 160.255V163.95C160.876 165.43 165.056 168.098 169.051 165.003V160.255C169.046 159.726 168.928 159.204 168.703 158.725C168.478 158.246 168.153 157.821 167.749 157.479L159.715 158.302Z" fill="url(#paint0_linear_4207_7462)"/>
<path style="mix-blend-mode:multiply" d="M159.715 159.898C159.311 160.47 159.088 161.15 159.077 161.851V165.545C160.876 167.026 165.056 169.693 169.051 166.598V161.851C169.041 161.323 168.917 160.803 168.688 160.327C168.459 159.852 168.13 159.431 167.723 159.094L159.715 159.898Z" fill="url(#paint1_linear_4207_7462)"/>
<path d="M155.178 150.345C155.178 150.345 154.31 147.76 152.332 148.602C150.353 149.445 150.143 155.316 154.629 155.565" fill="#FFD1B8"/>
<path style="mix-blend-mode:multiply" d="M155.178 150.345C155.178 150.345 154.31 147.76 152.332 148.602C150.353 149.445 150.143 155.316 154.629 155.565" fill="url(#paint2_linear_4207_7462)"/>
<path style="mix-blend-mode:multiply" d="M154.488 150.829C154.488 150.829 153.888 149.055 152.529 149.636C151.17 150.217 151.023 154.288 154.118 154.435" fill="url(#paint3_linear_4207_7462)"/>
<path d="M173.595 152.278C173.595 152.278 174.986 149.936 176.747 151.174C178.509 152.412 177.488 158.194 173.046 157.518" fill="#FFD1B8"/>
<path style="mix-blend-mode:multiply" d="M173.595 152.278C173.595 152.278 174.986 149.936 176.747 151.174C178.509 152.412 177.488 158.194 173.046 157.518" fill="url(#paint4_linear_4207_7462)"/>
<path style="mix-blend-mode:multiply" d="M174.15 152.878C174.15 152.878 175.12 151.232 176.351 152.1C177.583 152.967 176.875 157.026 173.767 156.567" fill="url(#paint5_linear_4207_7462)"/>
<path d="M174.13 156.515C173.256 164.811 166.185 166.241 162.593 165.858C159.064 165.488 152.287 163.471 153.25 154.314L154.239 144.914C154.383 143.542 154.796 142.213 155.455 141.001C156.113 139.789 157.003 138.718 158.075 137.851C159.148 136.983 160.38 136.335 161.703 135.944C163.025 135.553 164.412 135.427 165.783 135.572C168.551 135.864 171.09 137.244 172.842 139.407C174.594 141.571 175.415 144.341 175.126 147.109L174.13 156.515Z" fill="#FFD1B8"/>
<path style="mix-blend-mode:multiply" d="M163.435 173.171C163.435 173.171 162.414 175.213 161.775 172.641L163.435 173.171Z" fill="url(#paint6_linear_4207_7462)"/>
<path d="M146.996 342.419C143.408 345.171 139.275 347.129 134.872 348.162L135.778 349.923H153.295L152.727 342.196L146.996 342.419Z" fill="#587DF4"/>
<path d="M181.629 234.841V232.084L144.247 233.361L144.208 234.847C166.384 237.457 181.629 234.841 181.629 234.841Z" fill="#587DF4"/>
<path d="M151.993 168.749C151.993 168.749 151.354 176.177 161.979 177.134C172.604 178.091 175.342 168.538 175.342 168.538L181.558 169.668V233.967C181.558 233.967 166.312 236.583 144.143 233.967L145.72 169.719L151.993 168.749Z" fill="white"/>
<path style="mix-blend-mode:multiply" d="M156.319 168.028C156.319 168.028 161.578 172.992 171.941 169.157L178.016 170.612L175.528 242.677C179.935 242.689 184.324 242.109 188.578 240.954L188.775 238.096L182.094 170.574L178.865 168.838L169.982 167.409C169.982 167.409 158.961 167.109 156.319 168.028Z" fill="url(#paint7_linear_4207_7462)"/>
<path style="mix-blend-mode:multiply" d="M148.598 169.304L149.325 240.361L139.198 239.123L139.121 237.036L148.598 169.304Z" fill="url(#paint8_linear_4207_7462)"/>
<path d="M157.309 167.887L148.623 169.304C148.623 169.304 147.532 204.702 147.239 237.923C147.239 237.923 140.443 237.285 136.754 236.711C136.754 236.711 138.075 206.412 140.002 197.28C140.002 197.28 138.503 171.933 139.102 171.257C139.702 170.58 156.288 167.428 156.288 167.428L157.309 167.887Z" fill="#FFD261"/>
<path d="M170.205 167.747L178.935 169.157C178.935 169.157 179.522 215.773 177.563 238.963C181.683 238.979 185.795 238.631 189.854 237.923C189.854 237.923 190.792 210.221 189.088 195.933C189.088 195.933 190.836 171.607 189.656 170.72C188.475 169.833 170.78 167.408 170.78 167.408L170.205 167.747Z" fill="#FFD261"/>
<path d="M181.558 184.792C181.536 184.91 181.481 185.021 181.399 185.109C181.317 185.198 181.212 185.262 181.095 185.293C180.978 185.324 180.855 185.322 180.74 185.286C180.624 185.25 180.522 185.181 180.443 185.089C180.365 184.997 180.315 184.885 180.298 184.765C180.282 184.645 180.299 184.523 180.349 184.413C180.399 184.303 180.479 184.209 180.58 184.143C180.681 184.077 180.799 184.041 180.92 184.039C181.103 184.056 181.272 184.145 181.392 184.286C181.511 184.426 181.57 184.608 181.558 184.792Z" fill="white"/>
<path d="M181.558 194.747C181.536 194.866 181.481 194.976 181.399 195.065C181.317 195.153 181.212 195.217 181.095 195.248C180.978 195.279 180.855 195.277 180.74 195.241C180.624 195.205 180.522 195.136 180.443 195.044C180.365 194.952 180.315 194.84 180.298 194.72C180.282 194.6 180.299 194.478 180.349 194.368C180.399 194.258 180.479 194.164 180.58 194.098C180.681 194.032 180.799 193.996 180.92 193.994C181.103 194.011 181.272 194.1 181.392 194.241C181.511 194.381 181.57 194.563 181.558 194.747Z" fill="white"/>
<path d="M181.475 205.774C181.459 205.903 181.406 206.024 181.322 206.123C181.237 206.223 181.126 206.295 181.001 206.332C180.877 206.369 180.744 206.369 180.619 206.332C180.495 206.295 180.383 206.223 180.299 206.123C180.215 206.024 180.162 205.902 180.146 205.773C180.129 205.644 180.151 205.513 180.208 205.396C180.265 205.279 180.355 205.182 180.467 205.115C180.578 205.048 180.707 205.015 180.837 205.021C181.02 205.04 181.188 205.129 181.307 205.269C181.426 205.409 181.486 205.59 181.475 205.774Z" fill="white"/>
<path d="M180.92 216.903C180.898 217.022 180.843 217.132 180.761 217.221C180.679 217.31 180.573 217.373 180.457 217.404C180.34 217.436 180.217 217.433 180.101 217.397C179.986 217.361 179.883 217.293 179.805 217.201C179.727 217.108 179.677 216.996 179.66 216.876C179.643 216.756 179.661 216.634 179.711 216.524C179.761 216.414 179.841 216.321 179.942 216.254C180.043 216.188 180.161 216.152 180.282 216.15C180.464 216.169 180.633 216.258 180.751 216.399C180.87 216.539 180.931 216.719 180.92 216.903Z" fill="white"/>
<path d="M180.92 228.626C180.92 228.802 180.85 228.97 180.726 229.095C180.601 229.219 180.432 229.289 180.256 229.289C180.08 229.289 179.911 229.219 179.787 229.095C179.663 228.97 179.593 228.802 179.593 228.626C179.593 228.45 179.663 228.281 179.787 228.156C179.911 228.032 180.08 227.962 180.256 227.962C180.432 227.962 180.601 228.032 180.726 228.156C180.85 228.281 180.92 228.45 180.92 228.626Z" fill="white"/>
<path d="M174.43 153.65C172.906 155.217 171.191 156.585 169.325 157.722C166.752 155.927 163.687 154.971 160.55 154.984C159.954 154.908 159.385 154.689 158.891 154.346C158.891 154.346 155.477 154.072 153.148 155.578C153.148 155.578 149.089 162.827 154.75 166.579C160.41 170.331 177.844 172.673 174.43 153.65Z" fill="#D86525"/>
<path style="mix-blend-mode:multiply" d="M149.504 197.682C149.504 197.682 161.527 194.492 177.493 198.32C177.493 198.32 162.139 193.298 149.504 197.682Z" fill="url(#paint9_linear_4207_7462)"/>
<path d="M189.497 189.195L189.248 178.723L190.084 190.082L189.497 189.195Z" fill="#EFB229"/>
<path d="M162.816 153.178C162.759 153.542 162.918 153.874 163.161 153.912C163.403 153.95 163.658 153.682 163.716 153.318C163.773 152.955 163.614 152.623 163.365 152.585C163.116 152.546 162.867 152.808 162.816 153.178Z" fill="#54443E"/>
<path d="M156.939 152.042C156.888 152.374 157.029 152.68 157.258 152.68C157.488 152.68 157.705 152.476 157.756 152.144C157.807 151.812 157.667 151.506 157.437 151.474C157.207 151.442 156.984 151.736 156.939 152.042Z" fill="#54443E"/>
<path d="M164.8 150.811C164.742 150.809 164.685 150.79 164.637 150.756C164.589 150.722 164.553 150.674 164.532 150.619C164.385 150.194 164.085 149.84 163.69 149.624C163.566 149.589 163.435 149.584 163.309 149.61C163.182 149.635 163.064 149.69 162.963 149.77C162.898 149.811 162.82 149.824 162.746 149.808C162.672 149.791 162.608 149.745 162.567 149.681C162.527 149.614 162.514 149.535 162.531 149.459C162.548 149.384 162.592 149.317 162.656 149.273C162.829 149.145 163.029 149.06 163.241 149.025C163.453 148.989 163.67 149.004 163.875 149.069C164.436 149.343 164.866 149.827 165.075 150.415C165.102 150.487 165.1 150.567 165.069 150.637C165.038 150.708 164.98 150.763 164.909 150.792C164.874 150.806 164.837 150.812 164.8 150.811Z" fill="#D86525"/>
<path d="M156.607 149.522C156.542 149.521 156.479 149.498 156.428 149.458C156.37 149.408 156.333 149.338 156.325 149.262C156.317 149.186 156.338 149.11 156.384 149.049C156.517 148.837 156.698 148.659 156.914 148.53C157.129 148.401 157.371 148.326 157.622 148.309C157.793 148.325 157.96 148.379 158.108 148.466C158.257 148.553 158.385 148.671 158.483 148.813C158.505 148.845 158.519 148.881 158.527 148.918C158.534 148.956 158.534 148.994 158.526 149.032C158.519 149.069 158.503 149.105 158.482 149.136C158.46 149.168 158.432 149.195 158.4 149.215C158.369 149.237 158.335 149.252 158.298 149.26C158.261 149.267 158.223 149.268 158.186 149.261C158.149 149.253 158.114 149.239 158.083 149.218C158.052 149.197 158.025 149.17 158.005 149.139C157.906 149.006 157.759 148.917 157.596 148.89C157.36 148.89 157.105 149.062 156.83 149.413C156.804 149.447 156.771 149.475 156.732 149.494C156.693 149.513 156.65 149.522 156.607 149.522Z" fill="#D86525"/>
<path d="M160.366 155.386H160.308C159.694 155.225 159.137 154.896 158.7 154.435L158.636 154.327L158.694 154.218C159.043 153.564 159.304 152.866 159.472 152.144C159.475 152.116 159.484 152.089 159.498 152.064C159.512 152.04 159.531 152.018 159.554 152.001C159.577 151.985 159.603 151.973 159.631 151.967C159.658 151.96 159.687 151.96 159.715 151.966C159.772 151.975 159.823 152.006 159.858 152.053C159.892 152.099 159.907 152.157 159.9 152.214C159.74 152.936 159.485 153.634 159.141 154.288C159.518 154.586 159.952 154.803 160.417 154.926C160.472 154.944 160.518 154.983 160.546 155.034C160.573 155.085 160.58 155.145 160.564 155.201C160.557 155.25 160.533 155.294 160.497 155.328C160.461 155.362 160.415 155.382 160.366 155.386Z" fill="#F78A63"/>
<path d="M155.177 141.257C155.177 141.257 156.99 136.152 161.514 134.876C166.039 133.6 171.59 135.884 173.543 138.067C175.496 140.249 175.458 145.559 175.055 147.715L167.398 145.552C167.398 145.552 161.776 140.434 155.177 141.257Z" fill="#7994FE"/>
<path d="M161.846 135.016C164.653 134.231 167.851 134.812 170.346 135.884C167.806 134.723 164.449 134.046 161.514 134.87C156.989 136.146 155.177 141.251 155.177 141.251H155.573C155.93 140.338 157.806 136.146 161.846 135.016Z" fill="#C3D1FC"/>
<path d="M163.021 142.732C164.598 143.473 166.071 144.422 167.398 145.552L167.628 145.616C166.232 144.448 164.682 143.477 163.021 142.732Z" fill="#C3D1FC"/>
<path style="mix-blend-mode:multiply" opacity="0.5" d="M173.543 138.067C172.743 137.24 171.798 136.567 170.754 136.082C176.121 139.209 172.305 148.756 167.519 143.957C165.973 142.445 164.093 141.318 162.031 140.667C159.969 140.016 157.783 139.86 155.649 140.211C155.483 140.549 155.356 140.849 155.286 141.008L155.324 141.251C161.839 140.511 167.398 145.552 167.398 145.552L175.055 147.715C175.47 145.558 175.502 140.249 173.543 138.067Z" fill="url(#paint10_linear_4207_7462)"/>
<path d="M148.803 144.895L154.284 144.563C154.795 143.61 155.567 142.822 156.51 142.292C157.452 141.761 158.527 141.511 159.606 141.57C157.673 141.105 155.65 141.168 153.749 141.753C151.849 142.338 150.14 143.423 148.803 144.895Z" fill="#587DF4"/>
<path d="M148.311 144.448L148.803 144.895C148.803 144.895 153.123 141.392 157.239 141.392C161.355 141.392 167.226 145.674 167.226 145.674C167.226 145.674 170.825 146.414 175.056 147.716C175.056 147.716 171.182 146.439 167.398 145.425C167.398 145.425 162.223 141.149 157.188 140.958C152.153 140.766 148.311 144.448 148.311 144.448Z" fill="#7994FE"/>
<path d="M174.43 153.65C174.43 153.65 173.014 152.412 171.916 148.092C171.916 148.092 167.991 150.581 165.324 145.929C165.324 145.929 153.786 149.847 153.046 146.663C152.306 143.478 155.72 140.996 158.828 141.557C158.828 141.557 162.618 142.317 167.226 145.661C167.226 145.661 172.822 146.892 175.056 147.703C175.057 149.702 174.848 151.695 174.43 153.65Z" fill="#D86525"/>
<g style="mix-blend-mode:multiply" opacity="0.6">
<path d="M170.57 146.452C168.795 145.993 167.226 145.673 167.226 145.673C162.618 142.33 158.828 141.57 158.828 141.57C157.573 141.366 156.286 141.608 155.19 142.253C157.252 142.253 162.05 142.655 164.941 146.082L165.324 145.954C165.439 146.152 165.554 146.331 165.669 146.503L175.056 147.715C175.056 147.715 172.931 147.084 170.57 146.452Z" fill="#F78A63"/>
</g>
<g style="mix-blend-mode:multiply" opacity="0.6">
<path d="M174.43 153.65C174.43 153.65 174.322 153.772 174.124 153.969C174.193 154.499 174.229 155.031 174.233 155.565C174.248 157.215 173.937 158.852 173.319 160.382C172.701 161.912 171.788 163.305 170.631 164.481C169.474 165.658 168.096 166.594 166.577 167.238C165.057 167.882 163.426 168.219 161.776 168.232C159.984 168.232 158.213 167.841 156.587 167.086C154.961 166.331 153.52 165.23 152.363 163.861C152.888 164.975 153.718 165.917 154.756 166.579C160.436 170.325 177.844 172.673 174.43 153.65Z" fill="#F78A63"/>
</g>
<path d="M149.44 341.825C149.44 341.825 151.667 348.998 152.044 341.825H149.44Z" fill="#FFD1B8"/>
<path d="M190.078 218.696C189.386 218.666 188.695 218.778 188.049 219.028C187.396 219.603 186.839 220.277 186.396 221.025L188.049 221.102C188.512 221.626 188.856 222.244 189.058 222.914C189.259 223.584 189.313 224.289 189.216 224.982L187.595 225.09C187.595 225.09 186.625 226.864 187.595 227.547C188.336 228.022 189.148 228.374 190.001 228.587C190.071 225.665 190.097 222.263 190.078 218.696Z" fill="#EFB229"/>
<path d="M180.869 339.739L185.533 339.956C185.533 339.956 187.448 343.785 186.81 339.816L188.252 340.677L184.749 349.911H175.585L174.602 348.322C175.754 347.816 176.847 347.187 177.863 346.446C178.763 345.629 180.869 339.739 180.869 339.739Z" fill="#587DF4"/>
<path d="M169.312 280.672L122.965 275.344L123.701 273.135L169.312 278.062V280.672Z" fill="#99928C"/>
<path d="M158.949 335.955L182.829 224.982L189.28 223.999L188.125 221.925H179.14L155.905 334.436" fill="#B2AAA1"/>
<path d="M119.008 337.403L127.68 224.222L133.94 222.378L132.517 220.477L123.615 221.695L115.792 336.312" fill="#B2AAA1"/>
<path d="M109.449 350C104.707 350 100.853 344.442 100.84 337.569C100.827 330.696 104.669 325.113 109.391 325.106H112.333L112.812 349.994L109.449 350Z" fill="#282828"/>
<path d="M120.935 337.531C120.935 344.404 117.106 349.987 112.383 350C107.661 350.013 103.788 344.442 103.775 337.569C103.762 330.696 107.604 325.113 112.326 325.106C117.048 325.1 120.896 330.658 120.935 337.531Z" fill="#210F00"/>
<path d="M119.021 337.709C119.021 342.968 116.104 347.231 112.486 347.237C108.868 347.243 105.919 342.993 105.907 337.741C105.894 332.489 108.823 328.22 112.441 328.214C116.06 328.207 119.021 332.458 119.021 337.709Z" fill="#DBDAD9"/>
<path d="M118.893 337.537C118.893 342.789 115.976 347.058 112.352 347.065C108.727 347.071 105.792 342.821 105.779 337.563C105.766 332.304 108.695 328.042 112.313 328.035C115.932 328.029 118.88 332.279 118.893 337.537Z" fill="#848281"/>
<path d="M117.974 337.537C117.974 342.055 115.466 345.718 112.352 345.731C109.237 345.744 106.704 342.081 106.698 337.563C106.691 333.045 109.199 329.375 112.313 329.369C115.427 329.363 117.961 333.019 117.974 337.537Z" fill="#B2AAA1"/>
<path d="M106.819 337.741C106.819 333.223 109.327 329.554 112.441 329.548C113.232 329.585 114.003 329.814 114.687 330.216C115.371 330.617 115.947 331.178 116.365 331.851C115.338 330.32 113.902 329.369 112.313 329.369C109.199 329.369 106.685 333.045 106.697 337.563C106.661 339.648 107.265 341.695 108.427 343.427C107.349 341.729 106.79 339.753 106.819 337.741Z" fill="#5E5B5A"/>
<path d="M112.786 338.201C112.786 338.463 112.639 338.673 112.461 338.673C112.282 338.673 112.135 338.463 112.129 338.201C112.122 337.939 112.276 337.729 112.461 337.729C112.646 337.729 112.786 337.939 112.786 338.201Z" fill="#B2AAA1"/>
<g style="mix-blend-mode:multiply">
<path d="M100.833 337.007L103.826 336.369L116.347 340.773H120.711L120.896 340.045L101.535 333.096C101.09 334.353 100.853 335.674 100.833 337.007Z" fill="#D8D5D2"/>
</g>
<path d="M163.678 337.512L140.775 323.37L81.9062 321.737L81.0001 323.192L115.964 340.032H163.678V337.512Z" fill="#B2AAA1"/>
<path d="M140.775 323.37L81.9062 321.737L81.217 322.847L140.596 324.366L162.229 338.597V340.032H163.678V337.512L140.775 323.37Z" fill="#D8D5D2"/>
<path d="M161.572 349.955C156.83 349.955 152.976 344.404 152.963 337.531C152.95 330.658 156.792 325.074 161.514 325.062H164.456L164.935 349.949L161.572 349.955Z" fill="#282828"/>
<path d="M173.064 337.493C173.064 344.365 169.236 349.943 164.513 349.955C159.791 349.968 155.918 344.404 155.905 337.531C155.892 330.658 159.734 325.074 164.456 325.062C169.178 325.049 173.045 330.613 173.064 337.493Z" fill="#210F00"/>
<path d="M171.163 337.671C171.163 342.929 168.247 347.192 164.629 347.199C161.01 347.205 158.062 342.955 158.049 337.703C158.037 332.451 160.966 328.182 164.584 328.176C168.202 328.169 171.15 332.419 171.163 337.671Z" fill="#DBDAD9"/>
<path d="M171.042 337.499C171.042 342.751 168.126 347.014 164.501 347.026C160.876 347.039 157.947 342.783 157.947 337.525C157.947 332.266 160.864 328.003 164.482 327.997C168.1 327.991 171.029 332.241 171.042 337.499Z" fill="#848281"/>
<path d="M170.123 337.499C170.123 342.017 167.615 345.686 164.501 345.693C161.387 345.699 158.853 342.042 158.847 337.524C158.841 333.006 161.349 329.337 164.463 329.331C167.577 329.324 170.11 332.968 170.123 337.499Z" fill="#B2AAA1"/>
<path d="M158.968 337.697C158.968 333.179 161.476 329.516 164.59 329.509C165.382 329.547 166.153 329.776 166.836 330.177C167.52 330.579 168.096 331.14 168.515 331.813C167.487 330.281 166.051 329.324 164.462 329.331C161.348 329.331 158.834 333.006 158.847 337.524C158.811 339.61 159.414 341.657 160.576 343.389C159.498 341.688 158.939 339.71 158.968 337.697Z" fill="#5E5B5A"/>
<path d="M164.935 338.163C164.935 338.424 164.788 338.635 164.609 338.635C164.43 338.635 164.284 338.424 164.277 338.163C164.271 337.901 164.424 337.69 164.603 337.69C164.781 337.69 164.935 337.901 164.935 338.163Z" fill="#B2AAA1"/>
<path d="M184.902 221.931L185.439 220.936L196.344 221.434C196.344 221.434 197.493 222.008 196.982 224.471L186.026 225.307L185.387 224.592L186.453 224.401C186.531 223.552 186.381 222.697 186.019 221.925L184.902 221.931Z" fill="#DF4200"/>
<path d="M196.344 221.427H195.776C196.414 223.469 188.042 224.548 188.042 224.548C187.928 223.318 187.577 222.122 187.008 221.025L185.438 220.955L184.902 221.951H185.993C186.355 222.723 186.505 223.577 186.427 224.427L185.362 224.618L186.025 225.307L196.957 224.484C197.512 222.002 196.344 221.427 196.344 221.427Z" fill="#BA3506"/>
<path d="M187.627 221.026C188.067 220.275 188.625 219.601 189.28 219.028C190.077 218.46 195.661 218.581 197.327 219.519C198.992 220.458 198.603 224.331 196.019 227.018C194.436 228.683 190.428 228.651 188.852 227.547C187.882 226.865 188.852 225.09 188.852 225.09L190.492 224.982C190.583 224.287 190.523 223.581 190.316 222.911C190.109 222.241 189.76 221.624 189.293 221.102L187.627 221.026Z" fill="#FFD1B8"/>
<path d="M190.084 218.798C190.084 218.798 195.08 198.735 200.294 197.101C205.508 195.468 209.783 195.449 210.791 198.32C211.8 201.192 206.446 212.557 198.239 220.93C198.239 220.93 196.503 218.645 190.084 218.798Z" fill="#FFD261"/>
<path d="M140.609 220.183H140.041C140.679 222.225 132.307 223.303 132.307 223.303C132.193 222.074 131.842 220.877 131.273 219.781L129.703 219.711L129.167 220.713H130.258C130.621 221.485 130.77 222.339 130.692 223.189L129.627 223.38L130.316 224.088L141.222 223.208C141.758 220.764 140.609 220.183 140.609 220.183Z" fill="#BA3506"/>
<path d="M198.328 199.271C198.328 199.271 200.058 198.193 203.102 199.06L198.328 199.271Z" fill="#EFB229"/>
<path d="M143.027 170.134C143.027 170.134 138.158 170.804 135.254 173.235C132.351 175.666 120.871 192.96 120.149 198.256C119.428 203.553 127.941 211.587 143.761 185.494" fill="#FFD261"/>
<path d="M140.852 218.741C140.852 218.741 135.855 198.678 130.641 197.044C125.428 195.41 121.165 195.391 120.157 198.256C119.148 201.122 124.49 212.5 132.709 220.872" fill="#FFD261"/>
<path d="M132.613 199.214C132.613 199.214 130.884 198.135 127.84 198.997L132.613 199.214Z" fill="#EFB229"/>
<path d="M129.167 220.687L129.703 219.685L140.609 220.183C140.609 220.183 141.758 220.764 141.247 223.221L130.341 224.063L129.652 223.355L130.718 223.163C130.796 222.314 130.646 221.459 130.284 220.687H129.167Z" fill="#DF4200"/>
<path d="M131.892 219.787C132.332 219.037 132.89 218.363 133.544 217.79C134.342 217.216 139.926 217.337 141.591 218.275C143.257 219.213 142.868 223.087 140.283 225.779C138.701 227.439 134.693 227.413 133.117 226.309C132.147 225.62 133.117 223.846 133.117 223.846L134.744 223.737C134.835 223.043 134.775 222.338 134.568 221.669C134.361 221.001 134.012 220.385 133.544 219.864L131.892 219.787Z" fill="#FFD1B8"/>
<path d="M143.104 188.072L139.192 192.335L143.033 187.312L143.104 188.072Z" fill="#EFB229"/>
<path d="M171.332 110.418C197.621 105.374 214.848 79.9494 209.81 53.6308C204.771 27.3121 179.374 10.0659 153.085 15.1103C126.795 20.1546 109.568 45.5794 114.607 71.898C119.646 98.2166 145.042 115.463 171.332 110.418Z" fill="#FF9750"/>
<mask id="mask1_4207_7462" style="mask-type:luminance" maskUnits="userSpaceOnUse" x="113" y="14" width="98" height="98">
<path d="M171.332 110.418C197.621 105.374 214.848 79.9494 209.81 53.6308C204.771 27.3121 179.374 10.0659 153.085 15.1103C126.795 20.1546 109.568 45.5794 114.607 71.898C119.646 98.2166 145.042 115.463 171.332 110.418Z" fill="white"/>
</mask>
<g mask="url(#mask1_4207_7462)">
<path d="M126.686 93.6602L100.851 28.7979L99.04 29.5206L124.876 94.383L126.686 93.6602Z" fill="#FFB381"/>
<path d="M132.115 91.5045L106.279 26.6421L104.469 27.3649L130.304 92.2272L132.115 91.5045Z" fill="#FFB381"/>
<path d="M137.53 89.3482L111.694 24.4858L109.884 25.2086L135.72 90.071L137.53 89.3482Z" fill="#FFB381"/>
<path d="M142.967 87.1754L117.131 22.313L115.32 23.0358L141.156 87.8981L142.967 87.1754Z" fill="#FFB381"/>
<path d="M148.382 85.0191L122.546 20.1567L120.735 20.8795L146.571 85.7419L148.382 85.0191Z" fill="#FFB381"/>
<path d="M153.793 82.8377L127.957 17.9753L126.146 18.6981L151.982 83.5605L153.793 82.8377Z" fill="#FFB381"/>
<path d="M159.233 80.6768L133.397 15.8145L131.587 16.5372L157.423 81.3996L159.233 80.6768Z" fill="#FFB381"/>
<path d="M164.649 78.5208L138.813 13.6584L137.003 14.3812L162.839 79.2436L164.649 78.5208Z" fill="#FFB381"/>
<path d="M170.073 76.3526L144.237 11.4902L142.427 12.213L168.262 77.0754L170.073 76.3526Z" fill="#FFB381"/>
<path d="M175.501 74.1917L149.665 9.32935L147.855 10.0521L173.69 74.9145L175.501 74.1917Z" fill="#FFB381"/>
<path d="M180.925 72.0103L155.089 7.14795L153.278 7.87072L179.114 72.7331L180.925 72.0103Z" fill="#FFB381"/>
<path d="M186.34 69.8543L160.504 4.99194L158.693 5.71471L184.529 70.5771L186.34 69.8543Z" fill="#FFB381"/>
<path d="M191.775 67.6812L165.939 2.81885L164.129 3.54161L189.965 68.404L191.775 67.6812Z" fill="#FFB381"/>
<path d="M197.191 65.525L171.355 0.662598L169.545 1.38536L195.381 66.2477L197.191 65.525Z" fill="#FFB381"/>
<path d="M202.62 63.369L176.784 -1.49341L174.974 -0.770642L200.809 64.0917L202.62 63.369Z" fill="#FFB381"/>
</g>
<path d="M204.161 40.1265C219.211 62.2877 213.466 92.4666 191.329 107.533C186.166 111.047 180.568 113.428 174.828 114.733C172.223 115.325 169.59 124.976 166.954 125.13C163.88 125.31 160.804 115.916 157.768 115.516C144.542 113.772 132.088 106.601 123.997 94.6867C108.947 72.5255 114.692 42.3466 136.829 27.2802C158.966 12.2138 189.111 17.9653 204.161 40.1265Z" fill="#FFD332"/>
<g style="mix-blend-mode:multiply" opacity="0.52">
<path d="M207.528 68.5214C208.144 44.4946 189.187 24.5171 165.187 23.9006C141.186 23.284 121.231 42.2617 120.615 66.2886C119.999 90.3154 138.956 110.293 162.956 110.909C186.956 111.526 206.912 92.5482 207.528 68.5214Z" fill="#FFBC59"/>
</g>
<path d="M200.951 83.2769C209.705 62.8901 200.292 39.2595 179.928 30.4964C159.564 21.7334 135.959 31.1563 127.206 51.543C118.452 71.9298 127.865 95.5604 148.229 104.323C168.593 113.087 192.198 103.664 200.951 83.2769Z" fill="#FFD332"/>
<path d="M164.419 105.251C185.298 105.064 202.073 87.9692 201.887 67.0671C201.701 46.165 184.625 29.3713 163.746 29.5574C142.867 29.7435 126.092 46.8388 126.278 67.7409C126.464 88.6429 143.54 105.437 164.419 105.251Z" fill="#FF9750"/>
<path d="M182.703 82.7748V64.6958C182.703 62.7197 182.871 59.7346 182.955 57.7165H182.787C181.988 59.5244 181.147 61.3323 180.264 63.0981L176.69 69.2786H193.13V74.9545H169.543V69.7831L180.432 51.4519H189.682V82.7748H182.703Z" fill="white"/>
<path d="M146.025 82.7747V78.4862C153.845 71.3807 159.101 65.7048 159.101 61.164C159.101 58.305 157.545 56.7494 155.022 56.7494C152.878 56.7494 151.238 58.1789 149.725 59.7766L145.646 55.7403C148.716 52.4609 151.575 50.9053 156.031 50.9053C162.086 50.9053 166.29 54.7733 166.29 60.7436C166.29 66.1252 161.665 72.0534 156.872 76.8885C158.428 76.6783 160.572 76.4681 162.002 76.4681H167.72V82.7747H146.025Z" fill="white"/>
<path d="M144.617 69.4616H138.52V75.558H135.998V69.4616H129.901V66.9389H135.998V60.8425H138.52V66.9389H144.617V69.4616Z" fill="white"/>
<path d="M163.672 160.367C163.672 161.304 162.938 162.064 162.032 162.064C161.126 162.064 160.392 161.304 160.392 160.367C160.392 159.43 161.126 161.216 162.032 161.216C162.938 161.216 163.672 159.43 163.672 160.367Z" fill="#F5AF92"/>
<defs>
<linearGradient id="paint0_linear_4207_7462" x1="164.092" y1="173.72" x2="164.092" y2="152.731" gradientUnits="userSpaceOnUse">
<stop stop-color="white" stop-opacity="0"/>
<stop offset="1" stop-color="#EFBBAB"/>
</linearGradient>
<linearGradient id="paint1_linear_4207_7462" x1="164.092" y1="175.315" x2="164.092" y2="154.327" gradientUnits="userSpaceOnUse">
<stop stop-color="white" stop-opacity="0"/>
<stop offset="1" stop-color="#EFBBAB"/>
</linearGradient>
<linearGradient id="paint2_linear_4207_7462" x1="148.849" y1="149.558" x2="152.498" y2="148.567" gradientUnits="userSpaceOnUse">
<stop stop-color="white" stop-opacity="0"/>
<stop offset="1" stop-color="#EFBBAB"/>
</linearGradient>
<linearGradient id="paint3_linear_4207_7462" x1="149.115" y1="149.387" x2="151.628" y2="148.709" gradientUnits="userSpaceOnUse">
<stop stop-color="white" stop-opacity="0"/>
<stop offset="1" stop-color="#EFBBAB"/>
</linearGradient>
<linearGradient id="paint4_linear_4207_7462" x1="193.992" y1="174.1" x2="190.615" y2="172.399" gradientUnits="userSpaceOnUse">
<stop stop-color="white" stop-opacity="0"/>
<stop offset="1" stop-color="#EFBBAB"/>
</linearGradient>
<linearGradient id="paint5_linear_4207_7462" x1="193.776" y1="173.893" x2="191.407" y2="172.703" gradientUnits="userSpaceOnUse">
<stop stop-color="white" stop-opacity="0"/>
<stop offset="1" stop-color="#EFBBAB"/>
</linearGradient>
<linearGradient id="paint6_linear_4207_7462" x1="158.969" y1="169.693" x2="160.45" y2="175.012" gradientUnits="userSpaceOnUse">
<stop stop-color="white" stop-opacity="0"/>
<stop offset="1" stop-color="#EFBBAB"/>
</linearGradient>
<linearGradient id="paint7_linear_4207_7462" x1="96.1746" y1="268.733" x2="185.974" y2="193.107" gradientUnits="userSpaceOnUse">
<stop stop-color="white" stop-opacity="0"/>
<stop offset="1" stop-color="#EFBBAB"/>
</linearGradient>
<linearGradient id="paint8_linear_4207_7462" x1="224.396" y1="195.978" x2="111.726" y2="209.2" gradientUnits="userSpaceOnUse">
<stop stop-color="white" stop-opacity="0"/>
<stop offset="1" stop-color="#EFBBAB"/>
</linearGradient>
<linearGradient id="paint9_linear_4207_7462" x1="167.987" y1="220.561" x2="162.928" y2="188.49" gradientUnits="userSpaceOnUse">
<stop stop-color="white" stop-opacity="0"/>
<stop offset="1" stop-color="#EFBBAB"/>
</linearGradient>
<linearGradient id="paint10_linear_4207_7462" x1="152.44" y1="112.33" x2="169.561" y2="150.976" gradientUnits="userSpaceOnUse">
<stop stop-color="white" stop-opacity="0"/>
<stop offset="1" stop-color="#BAC4E2"/>
</linearGradient>
</defs>
</svg>
