<svg width="160" height="160" viewBox="0 0 160 160" fill="none" xmlns="http://www.w3.org/2000/svg">
<path d="M118.276 12.0332C117.418 11.7723 114.698 10.6542 114.921 9.49883C115.182 8.23165 116.934 8.45527 117.866 8.60435C117.642 7.74714 116.636 6.25634 117.456 5.36186C118.313 4.46738 119.804 5.4364 120.512 5.92091C120.363 4.87735 119.804 3.2002 120.363 2.19391C121.071 0.889464 122.599 2.23118 123.344 2.86477C123.68 1.93302 123.642 0.404954 124.835 0.0695242C125.953 -0.265906 126.289 0.777654 126.736 1.56032C127.108 0.628574 128.227 0.0322542 129.158 0.255874C130.314 0.591304 130.351 1.89575 130.276 2.86477C131.208 2.30572 132.736 1.85848 133.631 2.79023C134.451 3.68471 133.631 4.87735 133.034 5.62275C135.606 5.36186 136.612 8.64162 133.854 9.08886C136.501 10.2442 135.681 13.3376 132.811 12.9649C135.01 14.1576 133.966 16.6174 131.693 15.6484C132.103 16.8783 132.438 18.5927 130.463 18.2945C129.494 18.22 128.748 17.251 128.078 16.6919L118.276 12.0332Z" fill="#3BBDE5"/>
<path d="M130.873 38.1594C130.873 38.1594 138.848 19.6362 124.835 12.3313C109.815 7.41169 102.175 26.084 102.175 26.084L130.873 38.1594Z" fill="#007A9B"/>
<path d="M119.803 12.6668C117.642 12.555 114.362 14.5303 116.71 16.7292C117.082 17.1019 117.902 17.1765 118.089 16.5429C118.387 15.4248 117.232 15.1639 116.374 15.1639C114.064 15.0893 111.082 16.9528 112.759 19.4872C114.026 21.3507 115.666 19.189 114.101 18.3691C112.126 17.3628 108.995 18.1455 108.548 20.568C108.175 22.6179 111.753 23.0278 111.268 21.7607C110.299 19.2636 106.498 21.388 105.752 23.0278C104.783 25.0032 108.361 26.8294 108.585 25.0032C108.809 23.2515 105.901 24.1832 105.305 24.6677C104.187 25.5622 103.33 27.3512 104.56 28.5065C104.895 28.8047 105.305 28.2456 105.007 27.9475C104.113 27.1275 105.119 25.8604 105.752 25.2268C106.125 24.8541 106.61 24.7423 107.131 24.6305C106.051 24.8168 106.349 23.2887 106.684 22.767C107.243 21.9097 108.324 21.537 109.293 21.388C109.591 21.4998 109.889 21.6489 110.188 21.7607C109.368 21.4998 109.181 20.8289 109.628 19.7854C109.964 19.2636 110.597 18.9654 111.157 18.7418C112.014 18.3691 112.796 18.4809 113.616 18.8163C113.579 18.9654 113.579 19.1145 113.542 19.2636C113.355 19.0027 113.206 18.7418 113.095 18.4064C112.685 17.4001 113.467 16.6547 114.362 16.1702C115.144 15.7602 116.151 15.7229 117.008 15.7975C117.082 15.872 117.12 15.9838 117.194 16.0584C116.412 15.4248 116.486 14.6794 117.418 13.7849C118.051 13.2631 118.983 13.1886 119.766 13.2258C120.139 13.4122 120.25 12.7041 119.803 12.6668Z" fill="#0096B9"/>
<path d="M127.593 16.692C128.562 17.5864 129.866 20.6053 127.369 20.4935C128.152 20.5308 128.711 21.388 129.083 22.0961C130.015 23.7733 129.307 25.0032 127.667 25.3013C127.742 25.1895 127.854 25.0404 127.928 24.9286C128.189 25.0404 128.413 25.1522 128.636 25.3013C128.934 25.4877 129.158 25.7486 129.382 26.0095C130.164 27.0157 130.5 30.3328 128.226 29.4383C129.456 29.9228 129.866 30.7055 130.015 32.0099C130.09 32.7926 129.792 33.6125 128.934 33.8734C128.748 33.7989 128.562 33.6871 128.375 33.6125C128.636 33.9107 128.823 34.2834 128.897 34.6934C129.121 35.6251 128.748 37.4886 127.518 37.4513C127.071 37.4141 126.959 38.1222 127.444 38.1595C129.941 38.2713 130.015 34.7306 128.972 33.2398C128.636 32.7553 127.481 32.159 127.071 32.9417C126.549 33.9107 127.779 34.5816 128.599 34.6561C131.32 34.9543 130.947 31.2645 130.015 29.811C129.531 29.0283 128.45 27.9475 127.481 28.6929C126.773 29.2147 127.518 29.8483 128.003 30.1464C128.897 30.6682 129.941 30.2582 130.5 29.4756C131.171 28.5438 130.723 26.8667 130.202 26.0095C129.568 24.9659 126.512 22.916 126.549 25.4131C126.549 26.1958 127.779 26.1213 128.226 26.0095C129.419 25.674 130.425 24.8914 130.239 23.4751C130.052 22.1334 129.419 21.1271 128.45 20.1953C127.853 19.6363 126.847 19.3381 126.475 20.2699C125.99 21.4625 128.301 21.4625 128.86 20.978C130.388 19.5617 129.419 17.4746 128.114 16.2447C127.667 15.7975 127.257 16.3565 127.593 16.692Z" fill="#0096B9"/>
<path d="M124.649 13.8222C122.86 13.7849 120.959 15.9465 121.332 17.7355C121.742 19.7854 124.76 18.1082 123.344 17.251C121.145 15.9465 117.977 18.7791 119.617 21.0525C119.953 21.537 120.959 22.4688 121.63 22.0961C122.338 21.7234 122.524 20.9407 121.853 20.4562C119.766 18.8909 116.785 22.357 117.344 24.3696C117.605 25.3386 118.164 26.3449 119.244 26.6058C119.953 26.7921 120.623 26.2703 120.288 25.4877C119.99 24.7795 118.648 24.7423 118.052 24.9659C116.598 25.5249 115.517 26.6058 115.778 28.2456C116.039 30.1464 119.654 30.8545 118.872 28.8792C118.015 26.6803 112.238 30.1464 115.48 32.8298C115.816 33.128 116.263 32.569 115.927 32.2708C114.213 30.8545 116.002 28.9538 117.53 29.0283C118.089 29.5128 118.015 29.6246 117.381 29.3265C115.667 28.6929 116.673 26.4567 117.828 25.8604C118.238 25.674 118.648 25.5995 119.058 25.6367C118.723 25.6367 118.611 25.5995 118.275 25.0404C117.381 23.4751 118.462 21.9843 119.803 21.2016C120.176 21.0153 120.549 20.9407 120.959 20.978C120.698 21.2762 120.437 21.2389 120.251 20.8289C119.841 20.2326 119.766 19.5617 120.064 18.8536C120.325 18.5554 120.549 18.2573 120.81 17.9591C122.338 17.8846 122.711 17.6982 121.928 17.4001C121.667 16.1702 123.381 14.493 124.499 14.493C125.021 14.5303 125.096 13.8222 124.649 13.8222Z" fill="#0096B9"/>
<path d="M102.1 24.1832C101.206 24.3696 97.1805 33.7989 97.7768 34.4697C98.4104 35.1033 127.444 47.4397 128.264 47.2533C129.084 47.1042 132.252 37.1159 131.804 36.6687C131.394 36.2214 103.74 23.8478 102.1 24.1832Z" fill="#3BBDE5"/>
<path d="M98.9318 34.4324C98.7827 34.3579 98.6709 34.2088 98.7454 34.0225C100.087 28.7301 102.398 25.264 102.472 25.1522C102.584 25.0031 102.808 24.9659 102.957 25.0404C103.106 25.1522 103.181 25.3758 103.069 25.5249C103.031 25.5622 100.758 29.0283 99.4163 34.2088C99.379 34.3952 99.1926 34.507 98.969 34.4697C98.969 34.4697 98.9318 34.4697 98.9318 34.4324Z" fill="#7FCDEB"/>
<path d="M100.274 35.0288C100.124 34.9542 100.013 34.7679 100.087 34.6188C101.392 29.811 103.367 26.4194 103.777 25.7858C103.851 25.6367 104.001 25.5622 104.187 25.5995C104.373 25.6367 104.485 25.8231 104.448 26.0094C104.448 26.0467 104.411 26.1212 104.373 26.1585C104.001 26.7921 102.025 30.1091 100.758 34.8424C100.721 35.0288 100.497 35.1406 100.311 35.1033C100.311 35.0288 100.274 35.0288 100.274 35.0288Z" fill="#7FCDEB"/>
<path d="M101.652 35.5878C101.503 35.5133 101.392 35.3269 101.466 35.1779C102.696 30.7427 104.41 27.5375 105.119 26.3449C105.156 26.1585 105.342 26.0467 105.529 26.084C105.715 26.1213 105.827 26.3449 105.789 26.5312C105.789 26.5685 105.752 26.643 105.715 26.6803C105.044 27.8357 103.367 30.9664 102.137 35.3269C102.1 35.5133 101.876 35.6251 101.69 35.5878C101.652 35.5878 101.652 35.5878 101.652 35.5878Z" fill="#7FCDEB"/>
<path d="M102.994 36.1469C102.845 36.0723 102.733 35.886 102.808 35.7369C104.075 31.4136 105.752 28.1338 106.386 26.9412L106.423 26.8667C106.498 26.7176 106.647 26.643 106.833 26.6803C107.019 26.7176 107.131 26.9039 107.094 27.0903C107.094 27.1275 107.057 27.1648 107.019 27.2766C106.386 28.4693 104.746 31.6372 103.479 35.9233C103.441 36.1096 103.218 36.2214 103.032 36.1469C103.032 36.1841 102.994 36.1469 102.994 36.1469Z" fill="#7FCDEB"/>
<path d="M104.336 36.7432C104.187 36.6686 104.075 36.4823 104.15 36.2959C105.081 33.2398 106.349 30.1464 107.69 27.5375L107.765 27.4257C107.802 27.2393 107.989 27.1648 108.175 27.2021C108.361 27.2393 108.473 27.463 108.436 27.6493C108.436 27.6866 108.436 27.7238 108.324 27.8729C106.982 30.4446 105.752 33.5007 104.821 36.4823C104.746 36.7059 104.56 36.8177 104.336 36.7432C104.373 36.7432 104.373 36.7432 104.336 36.7432Z" fill="#7FCDEB"/>
<path d="M105.715 37.3022C105.566 37.2277 105.454 37.0413 105.529 36.855C106.199 34.7679 107.355 31.5254 109.032 28.1338C109.069 28.0593 109.107 27.9847 109.107 27.9847C109.144 27.7984 109.33 27.7238 109.517 27.7611C109.703 27.7984 109.815 28.022 109.777 28.2084C109.777 28.2456 109.777 28.2829 109.666 28.4692C107.988 31.8235 106.87 34.9915 106.199 37.0786C106.125 37.265 105.901 37.3768 105.715 37.3022Z" fill="#7FCDEB"/>
<path d="M107.057 37.8613C106.908 37.7867 106.796 37.6004 106.87 37.414C107.839 34.4324 108.995 31.5254 110.337 28.7674C110.374 28.6556 110.411 28.5811 110.448 28.5438C110.486 28.3574 110.672 28.2456 110.858 28.3202C111.045 28.3574 111.156 28.5811 111.119 28.7674C111.119 28.8047 111.082 28.8419 110.97 29.0656C109.666 31.7863 108.51 34.6561 107.541 37.6377C107.467 37.824 107.28 37.9358 107.057 37.8613Z" fill="#7FCDEB"/>
<path d="M108.399 38.4203C108.212 38.3458 108.138 38.1594 108.212 37.9731C109.218 35.066 110.337 32.1962 111.604 29.401C111.678 29.2519 111.716 29.1774 111.716 29.1401C111.753 28.9538 111.939 28.8419 112.126 28.8792C112.312 28.9165 112.424 29.1401 112.386 29.3264C112.386 29.3637 112.312 29.4755 112.237 29.6991C110.97 32.4571 109.852 35.3269 108.883 38.1967C108.808 38.4203 108.622 38.4949 108.399 38.4203C108.436 38.4576 108.436 38.4576 108.399 38.4203Z" fill="#7FCDEB"/>
<path d="M109.777 39.0167C109.591 38.9421 109.517 38.7558 109.591 38.5694C111.082 34.3579 112.461 31.1527 112.908 30.1091C112.983 29.8855 113.057 29.7737 113.057 29.7364C113.094 29.5501 113.281 29.4383 113.467 29.4756C113.653 29.5128 113.765 29.7364 113.728 29.9228C113.728 29.9601 113.653 30.1091 113.542 30.4073C113.094 31.4509 111.715 34.6188 110.225 38.8303C110.187 38.9794 109.964 39.0912 109.777 39.0167Z" fill="#7FCDEB"/>
<path d="M111.119 39.5757C110.933 39.5012 110.858 39.3148 110.933 39.1285C112.386 35.1406 113.616 32.1217 114.175 30.8545C114.324 30.5191 114.399 30.3328 114.399 30.2955C114.474 30.1091 114.66 29.9973 114.846 30.0719C115.033 30.1091 115.144 30.2955 115.107 30.4818C115.107 30.5191 115.07 30.5937 114.846 31.1527C114.324 32.4199 113.095 35.4387 111.641 39.3894C111.529 39.5384 111.343 39.6503 111.119 39.5757Z" fill="#7FCDEB"/>
<path d="M112.498 40.1347C112.312 40.0602 112.237 39.8739 112.312 39.6875C113.653 36.1469 114.734 33.3889 115.331 31.8981C115.592 31.2645 115.741 30.8918 115.741 30.8172C115.815 30.6309 116.001 30.5191 116.188 30.5936C116.374 30.6309 116.486 30.8172 116.449 31.0036C116.449 31.0781 116.374 31.19 116.001 32.159C115.405 33.6498 114.324 36.4077 112.983 39.9484C112.871 40.1347 112.684 40.2093 112.498 40.1347Z" fill="#7FCDEB"/>
<path d="M113.84 40.7311C113.654 40.6565 113.579 40.4702 113.654 40.2838C116.523 32.8671 117.045 31.5627 117.082 31.4509C117.12 31.2645 117.343 31.1527 117.53 31.19C117.716 31.2272 117.828 31.4136 117.791 31.5999C117.791 31.6745 117.716 31.8236 114.362 40.5447C114.25 40.6938 114.026 40.8056 113.84 40.7311Z" fill="#7FCDEB"/>
<path d="M115.182 41.2901C114.995 41.2156 114.921 41.0292 114.995 40.8429C117.082 35.6251 118.312 32.1962 118.387 31.9726C118.424 31.7863 118.648 31.6745 118.797 31.7117C118.983 31.749 119.095 31.9354 119.058 32.1217C119.021 32.3453 117.642 36.0723 115.629 41.0665C115.592 41.2528 115.368 41.3647 115.182 41.2901Z" fill="#7FCDEB"/>
<path d="M116.561 41.8492C116.374 41.7746 116.3 41.5883 116.374 41.4019C118.536 36.2214 119.691 32.718 119.729 32.5317C119.766 32.3453 119.952 32.2335 120.139 32.2708C120.325 32.3081 120.437 32.4944 120.399 32.6808C120.325 32.9416 119.095 36.6314 117.008 41.6255C116.933 41.8492 116.747 41.9237 116.561 41.8492Z" fill="#7FCDEB"/>
<path d="M117.902 42.4082C117.716 42.3337 117.642 42.1101 117.716 41.961C119.84 36.9668 120.996 33.3516 121.033 33.0907C121.07 32.9044 121.257 32.7926 121.443 32.8298C121.629 32.8671 121.741 33.0535 121.704 33.2398C121.629 33.4634 120.474 37.1532 118.35 42.2219C118.275 42.4082 118.089 42.4828 117.902 42.4082Z" fill="#7FCDEB"/>
<path d="M119.281 43.0045C119.244 43.0045 119.244 43.0045 119.281 43.0045C119.095 42.93 119.02 42.7064 119.095 42.5573C121.406 37.265 122.412 33.7243 122.412 33.687C122.449 33.5007 122.636 33.3889 122.822 33.4261C123.008 33.4634 123.12 33.6498 123.083 33.8361C123.083 33.8734 122.077 37.4886 119.729 42.8182C119.654 42.9673 119.43 43.0791 119.281 43.0045Z" fill="#7FCDEB"/>
<path d="M120.623 43.5636C120.437 43.4891 120.362 43.2654 120.437 43.0791C122.785 37.8986 123.717 34.2461 123.717 34.2088C123.754 34.0225 123.94 33.9107 124.126 33.9479C124.313 33.9852 124.425 34.1716 124.387 34.3579C124.387 34.3952 123.418 38.1222 121.07 43.3772C120.996 43.5636 120.809 43.6381 120.623 43.5636Z" fill="#7FCDEB"/>
<path d="M121.965 44.1226C121.779 44.0481 121.704 43.8245 121.779 43.6381C124.089 38.6812 124.947 35.1406 125.021 34.7679C125.058 34.5815 125.245 34.4697 125.431 34.507C125.617 34.5443 125.729 34.7306 125.692 34.917C125.58 35.3269 124.723 38.9048 122.375 43.9363C122.338 44.1226 122.151 44.1972 121.965 44.1226Z" fill="#7FCDEB"/>
<path d="M123.344 44.6817C123.157 44.6072 123.083 44.3835 123.157 44.1972C125.282 39.7248 126.176 36.2959 126.363 35.3642L126.698 35.4015L127.034 35.5133C126.81 36.4823 125.915 39.9857 123.754 44.4953C123.717 44.6817 123.493 44.7562 123.344 44.6817Z" fill="#7FCDEB"/>
<path d="M124.686 45.278C124.499 45.1662 124.425 44.9798 124.499 44.7935C126.586 40.5447 127.406 37.2277 127.704 35.9978V35.9232C127.742 35.7369 127.928 35.6251 128.114 35.6624C128.301 35.6996 128.413 35.886 128.375 36.0723V36.1469C128.114 37.414 127.257 40.8056 125.133 45.1289C125.058 45.278 124.872 45.3525 124.686 45.278Z" fill="#7FCDEB"/>
<path d="M126.027 45.8371C125.841 45.7253 125.767 45.5389 125.841 45.3526C127.332 42.4082 128.45 39.2776 129.009 36.5941L129.046 36.445C129.084 36.2587 129.27 36.1469 129.456 36.1841C129.643 36.2214 129.754 36.4078 129.717 36.5941L129.68 36.7059C129.121 39.4639 127.965 42.6318 126.475 45.6507C126.4 45.8371 126.214 45.9116 126.027 45.8371Z" fill="#7FCDEB"/>
<path d="M127.406 46.3961C127.22 46.2843 127.145 46.098 127.22 45.9116C128.748 42.9673 129.829 39.9484 130.351 37.1532C130.351 37.0786 130.388 37.0041 130.388 37.0041C130.425 36.8177 130.612 36.7059 130.798 36.7432C130.984 36.7805 131.096 36.9668 131.059 37.1532L131.022 37.3022C130.5 40.1348 129.382 43.2282 127.816 46.247C127.779 46.3961 127.555 46.4707 127.406 46.3961Z" fill="#7FCDEB"/>
<path d="M47.0147 13.0395C59.2766 10.356 67.476 14.6794 67.476 14.6794C67.476 14.6794 66.8796 26.1585 74.8554 32.8671C74.8554 32.8671 82.4212 61.7141 79.0297 65.7392C75.6381 69.8016 65.3143 73.0069 60.3201 74.0877C55.326 75.1685 44.5922 76.5475 39.8216 74.274C35.0511 72.0006 29.9451 42.6318 29.9451 42.6318C34.4175 33.2025 29.0879 23.0278 29.0879 23.0278C29.0879 23.0278 34.7902 15.7229 47.0147 13.0395Z" fill="#0096B9"/>
<path d="M51.9352 37.414C43.9967 39.1284 34.791 38.4576 34.7164 38.4576C34.4928 38.4576 34.3438 38.2712 34.3438 38.0476C34.3438 37.824 34.5301 37.6749 34.7537 37.6749C34.8283 37.6749 43.9221 38.3458 51.7488 36.6313C59.5755 34.9169 68.334 30.37 68.4085 30.3327C68.5949 30.2209 68.8558 30.2954 68.9303 30.4818C69.0421 30.6681 68.9676 30.929 68.7812 31.0036C68.7067 31.1154 59.8737 35.6996 51.9352 37.414Z" fill="#007A9B"/>
<path d="M58.6432 68.1617C50.7047 69.8762 41.499 69.2426 41.4245 69.2053C41.2008 69.2053 41.0518 69.019 41.0518 68.7953C41.0518 68.5717 41.2381 68.4226 41.4617 68.4226C41.5363 68.4226 50.6301 69.0935 58.4568 67.3791C66.2835 65.6647 75.042 61.1177 75.1165 61.0805C75.3029 60.9686 75.5638 61.0432 75.6383 61.2668C75.7501 61.4532 75.6756 61.714 75.4892 61.7886C75.4147 61.8259 66.5817 66.4101 58.6432 68.1617Z" fill="#007A9B"/>
<path d="M54.3202 47.8869C44.7791 49.974 33.7472 49.1541 33.6354 49.1541C33.4118 49.1541 33.2627 48.9677 33.2627 48.7441C33.2627 48.5205 33.449 48.3714 33.6727 48.3714C33.7845 48.3714 44.7046 49.1541 54.1339 47.1042C63.5632 45.0544 74.0733 39.5757 74.1851 39.5384C74.3715 39.4266 74.6324 39.5011 74.7069 39.6875C74.8187 39.8738 74.7442 40.1347 74.5578 40.2093C74.446 40.3211 63.8241 45.837 54.3202 47.8869Z" fill="#007A9B"/>
<path d="M56.5566 58.1361C47.0154 60.2232 35.9835 59.4033 35.8717 59.4033C35.6481 59.4033 35.499 59.2169 35.499 58.9933C35.499 58.7697 35.6854 58.6206 35.909 58.6206C36.0208 58.6206 46.9409 59.4033 56.3702 57.3534C65.7995 55.3036 76.3096 49.8249 76.4215 49.7876C76.6078 49.6758 76.8687 49.7504 76.9432 49.9367C77.055 50.1231 76.9805 50.384 76.7942 50.4585C76.6823 50.5703 66.0604 56.0863 56.5566 58.1361Z" fill="#007A9B"/>
<path d="M49.6986 27.053C42.431 28.6556 34.0079 28.022 33.8961 28.022C33.6725 28.022 33.5234 27.8356 33.5234 27.612C33.5234 27.3884 33.7098 27.2393 33.9334 27.2393C34.0079 27.2393 42.3191 27.8356 49.5123 26.2703C56.6681 24.705 64.6811 20.5307 64.7557 20.4935C64.942 20.3816 65.2029 20.4562 65.2775 20.6425C65.3893 20.8289 65.3147 21.0898 65.1284 21.1643C65.0911 21.2761 57.0035 25.4876 49.6986 27.053Z" fill="#007A9B"/>
<path d="M30.2809 44.1972C29.9454 44.2717 29.61 44.2344 29.2746 44.0854C28.4919 43.7127 28.1565 42.7809 28.5292 41.9982C32.6289 33.3889 27.7465 23.885 27.7092 23.8105C27.2993 23.0278 27.5974 22.0961 28.3801 21.6861C29.1628 21.2761 30.0945 21.5743 30.5045 22.357C30.7281 22.8042 36.1323 33.3516 31.3617 43.34C31.1381 43.7872 30.7281 44.0854 30.2809 44.1972Z" fill="#3BBDE5"/>
<path d="M35.3494 68.199C34.9395 68.3108 34.455 68.199 34.0823 67.9381C33.3741 67.4164 33.2251 66.4473 33.7468 65.7392L42.058 54.521C42.5798 53.8128 43.5488 53.6637 44.257 54.1855C44.9651 54.7073 45.1142 55.6763 44.5924 56.3845L36.2812 67.6027C36.0203 67.9381 35.6849 68.1245 35.3494 68.199Z" fill="#3BBDE5"/>
<path d="M75.191 34.3951C75.5265 34.3206 75.8246 34.1343 76.0482 33.8734C76.6073 33.2025 76.5327 32.2335 75.8619 31.6744C68.557 25.5249 69.0415 14.903 69.0415 14.7911C69.0788 13.9339 68.4079 13.1885 67.5507 13.1513C66.6935 13.114 65.9481 13.7849 65.9108 14.6421C65.8735 15.1266 65.3518 26.9784 73.8493 34.097C74.2593 34.3951 74.7438 34.507 75.191 34.3951Z" fill="#3BBDE5"/>
<path d="M80.5952 58.3598C81.0052 58.2852 81.4152 57.987 81.6388 57.5771C82.0488 56.8317 81.7879 55.8627 81.0052 55.4527L68.7806 48.7068C68.0352 48.2969 67.0662 48.5577 66.6563 49.3404C66.2463 50.0858 66.5072 51.0548 67.2898 51.4648L79.5144 58.2107C79.8498 58.397 80.2598 58.4343 80.5952 58.3598Z" fill="#3BBDE5"/>
<path d="M60.1717 73.4541C59.3145 73.6404 58.4946 73.1187 58.3082 72.2614L45.1519 11.8468C44.9656 10.9896 45.4874 10.1697 46.3446 9.98332C47.2018 9.79697 48.0217 10.3188 48.2081 11.176L61.3644 71.5906C61.588 72.4478 61.0289 73.2677 60.1717 73.4541Z" fill="#3BBDE5"/>
<path d="M59.9477 72.2987C59.7241 72.336 59.5377 72.2242 59.4632 72.0006L46.3069 11.5859C46.2696 11.3623 46.3814 11.176 46.605 11.1014C46.8286 11.0642 47.015 11.176 47.0895 11.3996L60.2458 71.8142C60.2831 72.0378 60.134 72.2615 59.9477 72.2987Z" fill="white"/>
<path d="M48.2452 18.6672C55.2893 17.1392 57.1155 13.3004 56.8919 12.2195C56.8919 12.2195 55.9228 7.37443 55.6247 6.36814C55.3265 5.36185 50.7423 4.98915 45.5245 6.10725C40.3067 7.22535 36.3188 9.49882 36.4679 10.5424C36.5797 11.5859 37.7351 16.3938 37.7351 16.3938C37.9587 17.4746 41.2012 20.1953 48.2452 18.6672Z" fill="#3BBDE5"/>
<path d="M54.0586 6.88991C54.245 7.78439 50.8534 9.31246 46.4183 10.2815C42.0204 11.2505 38.2562 11.2878 38.0698 10.356C37.8835 9.46153 41.275 7.93347 45.7102 6.96445C50.108 6.0327 53.8723 5.99543 54.0586 6.88991Z" fill="#3BBDE5"/>
<path d="M124.723 85.6786H19.3984V156.193H124.723V85.6786Z" fill="#F4B33D"/>
<path d="M124.686 85.6786H72.0234V156.193H124.686V85.6786Z" fill="#EE9516"/>
<path d="M135.084 61.6023H82.4218L72.0234 85.6787H124.686L135.084 61.6023Z" fill="#F4B33D"/>
<path d="M61.6625 61.6023H9L19.3983 85.6787H72.0235L61.6625 61.6023Z" fill="#FBD66F"/>
<path d="M51.8236 141.36H43.8105V156.193H51.8236V141.36Z" fill="#FBD66F"/>
<path d="M80.2603 93.4308H63.8242V98.9468H80.2603V93.4308Z" fill="#FBD66F"/>
<path d="M72.0233 106.289H58.0098V112.029H72.0233V106.289Z" fill="#FBD66F"/>
<path opacity="0.3" d="M72.0234 106.811L77.1294 116.389V156.156H116.151H124.686V105.134H122.152L116.151 116.389H108.138L102.138 105.134H72.0234V106.811Z" fill="#B4B5A7"/>
<path d="M113.058 114.675C112.835 114.6 112.723 114.414 112.797 114.19L114.773 106.997C114.81 106.773 115.034 106.662 115.257 106.736C115.444 106.811 115.593 106.997 115.518 107.221L113.543 114.414C113.468 114.6 113.245 114.712 113.058 114.675Z" fill="#3BBDE5"/>
<path d="M114.102 114.973C113.915 114.898 113.766 114.712 113.841 114.488C114.512 112.066 115.742 107.519 115.816 107.295C115.853 107.109 116.003 106.997 116.189 106.997C116.413 106.997 116.562 107.183 116.562 107.37C116.562 107.444 116.562 107.444 114.586 114.675C114.512 114.898 114.288 115.01 114.102 114.973Z" fill="#3BBDE5"/>
<path d="M115.146 115.234C114.959 115.196 114.81 114.973 114.885 114.749C115.518 112.364 116.748 107.78 116.823 107.556C116.86 107.407 117.009 107.258 117.158 107.258C117.382 107.258 117.568 107.407 117.568 107.631C117.568 107.705 117.568 107.705 115.63 114.973C115.556 115.196 115.332 115.308 115.146 115.234Z" fill="#3BBDE5"/>
<path d="M116.152 115.532C115.965 115.495 115.816 115.271 115.891 115.047C116.412 113.109 117.754 108.115 117.791 107.817C117.829 107.631 117.978 107.519 118.164 107.519C118.388 107.519 118.574 107.668 118.574 107.892C118.574 107.966 118.574 107.966 116.636 115.271C116.599 115.457 116.375 115.606 116.152 115.532Z" fill="#3BBDE5"/>
<path d="M117.196 115.83C117.009 115.756 116.86 115.569 116.935 115.346C117.68 112.55 118.761 108.376 118.835 108.115C118.873 107.929 119.022 107.817 119.208 107.817C119.432 107.817 119.618 107.966 119.618 108.19C119.618 108.264 119.618 108.302 117.717 115.569C117.643 115.756 117.419 115.867 117.196 115.83Z" fill="#3BBDE5"/>
<path d="M118.239 116.128C118.052 116.054 117.903 115.867 117.978 115.644C118.686 112.848 119.767 108.674 119.841 108.376C119.878 108.19 120.027 108.078 120.214 108.041C120.437 108.041 120.624 108.19 120.624 108.413C120.624 108.488 120.624 108.525 118.723 115.83C118.648 116.054 118.462 116.166 118.239 116.128Z" fill="#3BBDE5"/>
<path d="M119.282 116.389C119.096 116.315 118.947 116.128 119.022 115.905C119.73 113.109 120.811 108.935 120.848 108.637C120.885 108.451 121.034 108.339 121.22 108.302C121.444 108.302 121.63 108.451 121.63 108.674C121.63 108.749 121.63 108.786 119.767 116.091C119.692 116.315 119.506 116.464 119.282 116.389Z" fill="#3BBDE5"/>
<path d="M120.326 116.687C120.14 116.65 119.991 116.426 120.066 116.24C120.774 113.445 121.817 109.233 121.892 108.935C121.929 108.749 122.078 108.6 122.264 108.6C122.488 108.6 122.674 108.749 122.674 108.972C122.674 109.047 122.674 109.084 120.848 116.426C120.736 116.613 120.55 116.725 120.326 116.687Z" fill="#3BBDE5"/>
<path d="M121.369 116.985C121.183 116.948 121.034 116.725 121.108 116.538C121.817 113.743 122.823 109.531 122.897 109.233C122.935 109.047 123.084 108.898 123.27 108.898C123.494 108.898 123.68 109.047 123.68 109.271C123.68 109.345 123.68 109.42 121.891 116.725C121.779 116.911 121.556 117.023 121.369 116.985Z" fill="#3BBDE5"/>
<path d="M122.413 117.246C122.227 117.172 122.078 116.985 122.152 116.799C122.823 113.967 123.867 109.718 123.904 109.457C123.904 109.233 124.053 109.084 124.277 109.084C124.5 109.084 124.687 109.271 124.687 109.494C124.687 109.569 124.687 109.643 122.898 116.985C122.823 117.209 122.637 117.321 122.413 117.246C122.413 117.284 122.413 117.284 122.413 117.246Z" fill="#3BBDE5"/>
<path d="M123.419 117.544C123.233 117.507 123.084 117.284 123.158 117.097C123.829 114.265 124.873 109.979 124.91 109.755C124.91 109.531 125.059 109.382 125.283 109.382C125.506 109.382 125.693 109.569 125.693 109.792C125.693 109.867 125.693 109.941 123.941 117.284C123.866 117.47 123.643 117.619 123.419 117.544C123.456 117.544 123.456 117.544 123.419 117.544Z" fill="#3BBDE5"/>
<path d="M124.463 117.843C124.277 117.805 124.128 117.582 124.202 117.395C124.873 114.563 125.879 110.277 125.917 110.016C125.917 109.792 126.066 109.643 126.289 109.643C126.513 109.643 126.699 109.83 126.699 110.053C126.699 110.128 126.699 110.202 124.948 117.582C124.91 117.768 124.687 117.88 124.463 117.843Z" fill="#3BBDE5"/>
<path d="M125.506 118.141C125.32 118.104 125.171 117.88 125.245 117.694C125.916 114.861 126.885 110.575 126.922 110.277C126.922 110.053 127.071 109.904 127.295 109.904C127.519 109.904 127.705 110.09 127.705 110.314C127.705 110.389 127.705 110.463 125.991 117.88C125.953 118.066 125.73 118.178 125.506 118.141Z" fill="#3BBDE5"/>
<path d="M126.55 118.402C126.364 118.364 126.215 118.141 126.289 117.954C126.923 115.122 127.929 110.799 127.966 110.538C127.966 110.314 128.115 110.165 128.339 110.165C128.563 110.165 128.749 110.351 128.749 110.575C128.749 110.65 128.749 110.761 127.072 118.141C126.997 118.327 126.774 118.476 126.55 118.402Z" fill="#3BBDE5"/>
<path d="M127.594 118.7C127.408 118.663 127.259 118.439 127.333 118.253C127.967 115.42 128.936 111.097 128.973 110.799C128.973 110.575 129.122 110.426 129.346 110.426C129.569 110.426 129.756 110.612 129.756 110.836C129.756 110.91 129.756 111.022 128.078 118.439C128.004 118.625 127.818 118.737 127.594 118.7Z" fill="#3BBDE5"/>
<path d="M128.637 118.998C128.451 118.961 128.302 118.737 128.376 118.551C129.01 115.718 129.941 111.358 130.016 111.097C130.016 110.873 130.165 110.724 130.389 110.724C130.612 110.724 130.799 110.91 130.799 111.134C130.799 111.209 130.799 111.32 129.159 118.737C129.047 118.923 128.861 119.035 128.637 118.998Z" fill="#3BBDE5"/>
<path d="M129.643 119.296C129.457 119.259 129.345 119.035 129.382 118.849C130.016 116.016 130.947 111.656 130.985 111.358C130.985 111.134 131.134 110.985 131.357 110.985C131.581 110.985 131.767 111.171 131.767 111.358C131.767 111.432 131.767 111.544 130.165 118.998C130.09 119.184 129.904 119.333 129.643 119.296C129.68 119.296 129.68 119.296 129.643 119.296Z" fill="#3BBDE5"/>
<path d="M130.687 119.557C130.501 119.52 130.389 119.296 130.426 119.11C131.022 116.24 131.954 111.917 131.991 111.619C131.991 111.395 132.141 111.246 132.364 111.246C132.588 111.246 132.774 111.432 132.774 111.619C132.774 111.693 132.774 111.842 131.171 119.259C131.134 119.483 130.911 119.632 130.687 119.557Z" fill="#3BBDE5"/>
<path d="M92.8205 109.047C92.6342 108.972 92.4851 108.786 92.5596 108.562L94.684 101.407C94.7586 101.22 94.9449 101.071 95.1685 101.146C95.3549 101.22 95.504 101.407 95.4294 101.63L93.305 108.786C93.2305 108.972 93.0069 109.084 92.8205 109.047Z" fill="#3BBDE5"/>
<path d="M93.8264 109.345C93.64 109.271 93.491 109.084 93.5655 108.861C94.2736 106.475 95.5781 101.928 95.6526 101.705C95.6899 101.518 95.839 101.407 96.0253 101.407C96.2489 101.407 96.398 101.593 96.398 101.779C96.398 101.854 96.398 101.854 94.2736 109.047C94.2364 109.271 94.05 109.382 93.8264 109.345Z" fill="#3BBDE5"/>
<path d="M94.8332 109.643C94.6469 109.569 94.4978 109.382 94.5723 109.159C95.2432 106.773 96.5849 102.227 96.6222 102.003C96.6595 101.854 96.8085 101.705 96.9949 101.705C97.2185 101.705 97.4049 101.854 97.4049 102.077C97.4049 102.152 97.4049 102.152 95.3177 109.382C95.2805 109.569 95.0568 109.681 94.8332 109.643Z" fill="#3BBDE5"/>
<path d="M95.8391 109.941C95.6527 109.867 95.5037 109.681 95.5782 109.457C96.1372 107.556 97.5535 102.562 97.628 102.264C97.6653 102.077 97.8144 101.966 98.0007 101.966C98.2244 101.966 98.4107 102.115 98.4107 102.338C98.4107 102.413 98.4107 102.413 96.3609 109.681C96.2863 109.867 96.0627 109.979 95.8391 109.941Z" fill="#3BBDE5"/>
<path d="M96.8459 110.24C96.6596 110.165 96.5105 109.979 96.585 109.755C97.3677 106.997 98.5231 102.823 98.5976 102.562C98.6349 102.376 98.784 102.264 98.9703 102.264C99.1939 102.264 99.343 102.413 99.3803 102.636C99.3803 102.711 99.3803 102.748 97.3304 109.979C97.2932 110.165 97.0695 110.277 96.8459 110.24Z" fill="#3BBDE5"/>
<path d="M97.8518 110.538C97.6654 110.463 97.5164 110.277 97.5909 110.053C98.3736 107.295 99.5289 103.121 99.5662 102.823C99.6035 102.636 99.7526 102.525 99.9389 102.525C100.163 102.525 100.312 102.674 100.349 102.897C100.349 102.972 100.349 103.009 98.3363 110.277C98.299 110.463 98.0754 110.612 97.8518 110.538C97.8891 110.538 97.8891 110.538 97.8518 110.538Z" fill="#3BBDE5"/>
<path d="M98.8957 110.836C98.7094 110.761 98.5603 110.575 98.6348 110.351C99.3802 107.593 100.536 103.382 100.61 103.121C100.647 102.935 100.796 102.823 100.983 102.786C101.206 102.786 101.356 102.935 101.393 103.158C101.393 103.233 101.393 103.27 99.4175 110.538C99.3057 110.761 99.0821 110.91 98.8957 110.836Z" fill="#3BBDE5"/>
<path d="M99.9016 111.134C99.7152 111.06 99.5662 110.873 99.6407 110.65C100.386 107.892 101.504 103.68 101.579 103.382C101.616 103.196 101.765 103.046 101.951 103.046C102.175 103.046 102.324 103.196 102.361 103.419C102.361 103.494 102.361 103.531 100.386 110.836C100.312 111.06 100.088 111.209 99.9016 111.134Z" fill="#3BBDE5"/>
<path d="M100.908 111.432C100.721 111.358 100.61 111.171 100.647 110.948C101.392 108.152 102.51 103.978 102.548 103.68C102.585 103.494 102.734 103.345 102.92 103.345C103.144 103.345 103.293 103.494 103.33 103.717C103.33 103.792 103.33 103.829 101.392 111.134C101.318 111.358 101.131 111.507 100.908 111.432Z" fill="#3BBDE5"/>
<path d="M101.915 111.73C101.728 111.656 101.616 111.469 101.654 111.246C102.399 108.451 103.517 104.165 103.554 103.941C103.554 103.717 103.703 103.606 103.927 103.568C104.151 103.568 104.3 103.755 104.337 103.978C104.337 104.053 104.337 104.127 102.436 111.432C102.362 111.656 102.138 111.805 101.915 111.73Z" fill="#3BBDE5"/>
<path d="M102.92 112.029C102.734 111.954 102.622 111.768 102.659 111.544C103.368 108.749 104.486 104.463 104.523 104.202C104.523 103.978 104.672 103.829 104.896 103.829C105.119 103.829 105.268 104.015 105.306 104.239C105.306 104.314 105.306 104.388 103.405 111.73C103.368 111.954 103.144 112.103 102.92 112.029Z" fill="#3BBDE5"/>
<path d="M103.927 112.327C103.741 112.252 103.629 112.066 103.666 111.879C104.374 109.084 105.455 104.798 105.53 104.537C105.53 104.314 105.679 104.165 105.903 104.165C106.126 104.165 106.275 104.351 106.312 104.575C106.312 104.649 106.312 104.724 104.449 112.066C104.374 112.252 104.151 112.401 103.927 112.327Z" fill="#3BBDE5"/>
<path d="M104.933 112.625C104.747 112.55 104.635 112.364 104.672 112.178C105.38 109.345 106.461 105.059 106.498 104.798C106.498 104.575 106.647 104.425 106.871 104.425C107.095 104.425 107.244 104.612 107.281 104.835C107.281 104.91 107.281 104.984 105.455 112.364C105.38 112.55 105.157 112.699 104.933 112.625Z" fill="#3BBDE5"/>
<path d="M105.94 112.923C105.754 112.848 105.642 112.662 105.679 112.476C106.387 109.643 107.431 105.357 107.468 105.096C107.468 104.873 107.617 104.724 107.841 104.724C108.064 104.724 108.213 104.91 108.251 105.134C108.251 105.208 108.251 105.32 106.424 112.662C106.387 112.848 106.164 112.998 105.94 112.923Z" fill="#3BBDE5"/>
<path d="M106.946 113.221C106.759 113.147 106.648 112.96 106.685 112.774C107.356 109.941 108.399 105.655 108.474 105.357C108.474 105.134 108.623 104.984 108.847 104.984C109.07 104.984 109.219 105.171 109.257 105.394C109.257 105.469 109.257 105.581 107.468 112.96C107.393 113.147 107.169 113.296 106.946 113.221C106.983 113.221 106.983 113.221 106.946 113.221Z" fill="#3BBDE5"/>
<path d="M107.99 113.519C107.803 113.445 107.692 113.258 107.729 113.072C108.4 110.24 109.443 105.916 109.481 105.655C109.481 105.432 109.63 105.283 109.853 105.283C110.077 105.283 110.226 105.469 110.263 105.693C110.263 105.767 110.263 105.879 108.511 113.258C108.4 113.445 108.213 113.594 107.99 113.519Z" fill="#3BBDE5"/>
<path d="M108.996 113.817C108.809 113.743 108.697 113.557 108.735 113.37C109.406 110.538 110.412 106.214 110.449 105.916C110.449 105.693 110.598 105.544 110.822 105.544C111.045 105.544 111.194 105.73 111.232 105.954C111.232 106.028 111.232 106.14 109.48 113.557C109.406 113.743 109.219 113.855 108.996 113.817Z" fill="#3BBDE5"/>
<path d="M141.905 74.0504C143.508 56.7199 117.381 50.4213 108.623 60.4842C99.9019 70.5843 94.3486 102.227 94.3486 102.227L111.008 107.482L116.972 78.5228L122.04 82.7716L114.102 108.339L132.737 112.848C132.737 112.848 140.303 91.4182 141.905 74.0504ZM126.662 71.367C123.866 74.6095 118.835 72.2987 118.388 70.1744C117.978 68.0127 124.426 64.2857 125.134 64.9193C125.842 65.5156 128.264 69.5035 126.662 71.367Z" fill="#0096B9"/>
<path d="M132.625 109.084C132.141 109.047 131.619 109.01 131.097 108.935C131.507 106.811 131.843 104.724 132.103 102.599C133.408 102.711 134.638 102.748 135.868 102.786C135.868 102.711 135.905 102.674 135.905 102.599C134.675 102.562 133.408 102.525 132.103 102.413C132.439 99.804 132.7 97.1951 132.886 94.6235C134.638 94.5489 136.39 94.3626 138.178 94.1017C138.178 94.0271 138.216 93.9526 138.216 93.9153C136.39 94.1762 134.638 94.3626 132.849 94.4371C132.998 92.1264 133.072 89.8156 133.072 87.5794C135.271 87.4676 137.47 87.0949 139.669 86.5731C139.632 87.1322 139.557 87.6912 139.52 88.213C139.632 87.6912 139.744 87.1695 139.856 86.6477C139.856 86.6104 139.856 86.5359 139.856 86.4986C139.856 86.4986 139.856 86.4986 139.893 86.4986C139.893 86.4241 139.93 86.3495 139.93 86.3123H139.893C140.079 83.9643 140.191 81.5044 140.042 79.1192C140.452 78.8583 140.862 78.6346 141.272 78.3738C141.272 78.2992 141.309 78.2247 141.309 78.1501C140.899 78.411 140.452 78.6719 140.005 78.9328C139.818 76.1376 139.259 73.5659 137.992 71.6279C139.297 70.5471 140.228 68.4972 140.526 66.4474C140.489 66.3356 140.415 66.261 140.377 66.1492C140.117 68.199 139.185 70.3607 137.88 71.4788C137.769 71.3297 137.694 71.1806 137.582 71.0316C137.545 70.9943 137.508 70.9943 137.433 71.0316C137.396 71.0688 137.396 71.1061 137.433 71.1806C138.998 73.156 139.632 75.9885 139.818 79.0819C137.657 80.3118 135.346 81.4672 132.923 82.3244C132.812 80.2745 132.663 78.2247 132.402 76.2866C132.402 76.2494 132.364 76.2121 132.29 76.2121C132.253 76.2121 132.215 76.2494 132.215 76.3239C132.476 78.2992 132.625 80.3491 132.737 82.4362C131.321 82.958 129.905 83.3679 128.451 83.6288C128.227 82.2126 127.892 80.8708 127.333 79.6782C127.296 79.6409 127.258 79.6037 127.221 79.6409C127.184 79.6782 127.147 79.7155 127.184 79.7527C127.743 80.9454 128.078 82.2871 128.302 83.6661C126.811 83.927 125.358 84.0761 123.867 84.0015C123.792 83.2934 123.68 82.5853 123.457 81.9517C123.494 81.9517 123.531 81.9517 123.531 81.9144C123.606 81.8399 123.792 81.6908 124.016 81.579C124.053 81.5417 124.09 81.5044 124.053 81.4672C124.016 81.4299 123.979 81.3926 123.941 81.4299C123.718 81.5417 123.531 81.7281 123.457 81.8026C123.42 81.8399 123.42 81.8771 123.457 81.9144H123.42C123.382 81.9144 123.345 81.9889 123.345 82.0262C123.531 82.6598 123.643 83.3307 123.718 84.0015C123.01 83.9642 122.339 83.8897 121.631 83.7779L121.593 83.9643C122.301 84.0761 123.01 84.1506 123.755 84.1879C123.867 85.2687 123.867 86.4241 123.755 87.6167C122.711 87.5049 121.668 87.3558 120.662 87.0577L120.587 87.244C120.624 87.244 120.662 87.2813 120.662 87.2813C121.631 87.5422 122.674 87.7285 123.718 87.8031C123.531 89.8902 123.084 92.0146 122.637 94.0271C121.332 93.729 120.028 93.319 118.873 92.7227L118.835 92.909C119.655 93.3563 120.587 93.6917 121.519 93.9526C121.892 94.0644 122.227 94.139 122.6 94.2135C122.6 94.2508 122.562 94.288 122.562 94.3626C122.376 95.2571 122.19 96.1143 122.041 96.8969C121.78 98.2387 121.482 99.5431 121.183 100.773C119.693 100.363 118.239 99.8413 116.86 99.1704L116.823 99.3568C118.165 99.9903 119.618 100.512 121.109 100.922H121.146C120.587 103.27 120.028 105.432 119.394 107.519C117.755 107.183 116.152 106.736 114.698 106.14L114.661 106.326C115.481 106.662 116.338 106.923 117.195 107.183C117.904 107.37 118.612 107.556 119.32 107.705C119.134 108.339 118.947 108.935 118.761 109.531L118.947 109.569C119.134 108.972 119.32 108.339 119.544 107.705C121.332 108.078 123.159 108.339 124.985 108.562C124.761 109.308 124.5 110.09 124.24 110.836L124.426 110.873C124.687 110.091 124.948 109.345 125.171 108.562C126.886 108.749 128.563 108.898 130.128 109.047C130.352 109.084 130.575 109.084 130.799 109.121C130.613 110.165 130.389 111.209 130.165 112.289L130.352 112.327C130.575 111.283 130.799 110.202 130.985 109.159C131.507 109.196 132.029 109.233 132.513 109.308C132.923 109.345 133.371 109.382 133.781 109.42C133.818 109.345 133.818 109.308 133.855 109.233C133.52 109.159 133.073 109.121 132.625 109.084ZM132.774 94.4744C132.364 94.5117 131.917 94.5117 131.507 94.5489C130.65 94.5862 129.457 94.5862 128.19 94.5862C128.526 92.4245 128.786 90.1138 128.824 87.8403C129.308 87.8031 129.793 87.8031 130.24 87.7658C130.911 87.7285 131.544 87.6912 132.178 87.6912C132.439 87.6912 132.737 87.654 133.035 87.654C132.998 89.8529 132.923 92.1636 132.774 94.4744ZM139.967 79.2682C140.117 81.6162 139.967 84.0761 139.781 86.3868C137.619 86.9458 135.383 87.2813 133.184 87.4304C133.184 85.7532 133.147 84.1506 133.072 82.5107C135.458 81.6162 137.806 80.4981 139.967 79.2682ZM132.886 82.5853C132.961 84.1879 132.998 85.7905 132.998 87.4304C132.7 87.4304 132.439 87.4676 132.141 87.4676C131.507 87.5049 130.874 87.5049 130.203 87.5422C129.755 87.5794 129.271 87.5794 128.786 87.6167C128.824 86.3123 128.749 85.0078 128.6 83.7406C130.054 83.4797 131.47 83.0698 132.886 82.5853ZM123.979 84.1506C125.432 84.1879 126.923 84.0761 128.414 83.8152C128.6 85.0451 128.637 86.3495 128.6 87.654C127.072 87.7285 125.507 87.7285 123.979 87.5794C124.09 86.3868 124.09 85.2314 123.979 84.1506ZM122.898 93.9899C123.345 91.9773 123.792 89.8156 123.979 87.7285C125.507 87.8403 127.109 87.8403 128.637 87.7658C128.6 90.0393 128.302 92.35 128.004 94.5117C126.401 94.5117 124.612 94.3626 122.898 93.9899ZM122.301 96.8597C122.451 96.077 122.637 95.2198 122.823 94.3253C122.823 94.288 122.823 94.2508 122.861 94.1762C124.612 94.5489 126.364 94.6607 127.929 94.7353C127.78 95.5925 127.668 96.4497 127.519 97.2324C127.445 97.6796 127.37 98.0896 127.296 98.5368C127.147 99.6549 126.96 100.736 126.774 101.817C124.985 101.556 123.159 101.22 121.444 100.736C121.742 99.5058 122.041 98.2014 122.301 96.8597ZM125.097 108.376C123.27 108.152 121.444 107.892 119.655 107.519C120.252 105.469 120.848 103.27 121.407 100.922C123.159 101.407 124.948 101.742 126.737 102.003C126.327 104.165 125.768 106.252 125.097 108.376ZM127.519 98.5741C127.594 98.1641 127.668 97.7169 127.743 97.3069C127.892 96.487 128.004 95.6298 128.153 94.7725C129.457 94.8098 130.65 94.7725 131.507 94.7725C131.917 94.7725 132.364 94.7353 132.774 94.698C132.588 97.2696 132.327 99.8413 131.992 102.45C131.246 102.376 130.538 102.301 129.793 102.227C128.898 102.115 127.967 102.003 127.035 101.891C127.184 100.773 127.37 99.6549 127.519 98.5741ZM130.24 108.861C128.675 108.712 126.997 108.562 125.32 108.376C125.954 106.252 126.513 104.165 126.96 102.003C127.892 102.152 128.824 102.264 129.755 102.376C130.501 102.45 131.246 102.525 131.954 102.599C131.656 104.686 131.321 106.811 130.948 108.898C130.687 108.898 130.464 108.898 130.24 108.861Z" fill="#3BBDE5"/>
<path d="M111.121 104.165C111.27 103.046 111.419 101.928 111.531 100.81C111.568 100.661 111.568 100.475 111.605 100.326C111.903 100.4 112.164 100.438 112.425 100.475L112.462 100.288C112.164 100.251 111.903 100.177 111.605 100.139C111.903 97.6051 112.239 95.0334 112.649 92.4618C113.096 92.6481 113.506 92.8345 113.953 93.0208L113.99 92.8345C113.543 92.6481 113.133 92.4618 112.686 92.2754C113.021 90.2629 113.394 88.2503 113.879 86.2377C114.288 86.5731 114.698 86.834 115.146 87.0949L115.183 86.9086C114.736 86.6477 114.326 86.3495 113.916 86.0514C114.251 84.7096 114.624 83.3679 115.071 82.0635C115.369 82.4734 115.667 82.8461 115.966 83.2188L116.003 82.9952C115.705 82.6225 115.407 82.2498 115.146 81.8398C115.593 80.4609 116.115 79.0819 116.711 77.7402C116.748 77.7029 116.711 77.6283 116.674 77.6283C116.636 77.5911 116.562 77.6283 116.562 77.6656C115.966 78.9701 115.481 80.3118 115.034 81.6535C113.804 79.9391 112.649 78.0383 111.68 75.9885C112.239 75.2058 112.835 74.4604 113.58 73.8268C113.618 73.7895 113.618 73.715 113.58 73.6777C113.543 73.6405 113.469 73.6405 113.431 73.6777C112.723 74.3113 112.127 75.0567 111.568 75.8021C110.971 74.5349 110.45 73.2305 110.002 71.8888C110.487 71.4043 110.971 70.8825 111.531 70.398C111.568 70.3607 111.568 70.2862 111.531 70.2489C111.493 70.2116 111.456 70.2116 111.419 70.2489C110.897 70.6961 110.412 71.1806 109.965 71.6651C109.145 69.019 108.698 66.261 108.847 63.5403C110.599 62.2358 112.686 61.3414 115.295 60.8941C115.332 60.9314 115.369 60.9314 115.369 60.9314C115.779 60.7823 116.227 60.745 116.674 60.8569C115.556 61.7513 114.736 63.1303 114.214 64.6584C113.729 64.6584 113.245 64.7329 112.798 64.8075C112.388 64.882 111.94 64.9565 111.531 64.9938C111.493 64.9938 111.456 65.0311 111.456 65.1056C111.456 65.1429 111.493 65.1802 111.531 65.1802H111.568C112.015 65.1429 112.462 65.0684 112.872 64.9938C113.319 64.9193 113.767 64.8447 114.214 64.8447C113.655 66.6337 113.506 68.5717 113.767 70.1743C113.841 70.6216 113.953 71.0688 114.065 71.5161C113.618 71.6279 113.17 71.8515 112.835 72.1124C112.798 72.1497 112.798 72.1869 112.835 72.2615L112.872 72.2987C112.91 72.2987 112.947 72.2987 112.947 72.2987C113.245 72.0378 113.655 71.8515 114.065 71.7397C114.512 73.4914 115.22 75.094 115.891 76.6593C115.891 76.6966 115.928 76.6966 115.966 76.6966C116.003 76.6966 116.003 76.6966 116.04 76.6966C116.077 76.6966 116.077 76.6593 116.077 76.6221C116.115 76.6221 116.152 76.5848 116.152 76.5475C116.227 76.063 116.599 75.653 117.158 75.2803C117.494 75.0567 117.941 74.8704 118.388 74.7586C118.5 76.8457 119.134 79.0819 120.14 80.9081C120.028 80.9081 119.879 80.9081 119.767 80.9081L119.991 81.0944C120.065 81.0944 120.177 81.0944 120.252 81.0944C120.363 81.2808 120.475 81.4299 120.55 81.579L121.072 82.0262C120.848 81.728 120.624 81.4299 120.438 81.0944C122.078 80.9826 123.755 80.6099 125.395 79.9764C125.06 80.3863 124.687 80.7963 124.24 81.169C124.202 81.2063 124.202 81.2808 124.24 81.3181L124.277 81.3553C124.314 81.3553 124.351 81.3553 124.351 81.3553C126.848 79.1191 127.631 76.5102 128.563 73.4914C128.637 73.1932 128.749 72.8951 128.824 72.5969C128.861 72.4851 128.898 72.4105 128.898 72.2987C129.569 71.9633 130.24 71.5533 130.948 70.957C131.358 70.6216 131.88 70.3607 132.476 70.2116C132.476 70.2489 132.476 70.2862 132.514 70.3234C132.849 72.7832 132.961 75.8021 131.06 77.3302C131.023 77.3674 131.023 77.4047 131.06 77.4793L131.097 77.5165C131.135 77.5165 131.172 77.5165 131.172 77.5165C133.147 75.9139 133.035 72.8205 132.7 70.3234C132.7 70.2862 132.7 70.2116 132.663 70.1743C133.333 70.0253 134.004 70.0253 134.638 70.2489H134.675H134.712C135.421 70.1743 136.017 70.1371 136.576 70.1743C136.539 70.3234 136.539 70.4725 136.501 70.5843C136.464 70.7334 136.427 70.9197 136.39 71.0688C136.091 72.2987 135.756 73.8268 134.899 74.6467C134.862 74.684 134.862 74.7586 134.899 74.7958L134.936 74.8331C134.973 74.8331 135.011 74.8331 135.011 74.7958C135.905 73.9013 136.278 72.3733 136.539 71.1061C136.576 70.9197 136.613 70.7707 136.65 70.6216C136.688 70.4725 136.688 70.3234 136.725 70.1743C137.06 70.2116 137.433 70.2489 137.769 70.3607C137.806 70.3607 137.88 70.3607 137.88 70.2862C137.88 70.2489 137.88 70.1743 137.806 70.1743C137.433 70.0625 137.098 70.0253 136.725 69.988C136.949 68.609 136.949 67.1182 136.725 65.6274C137.023 65.6274 137.284 65.6274 137.582 65.6274C138.365 65.9256 139.297 65.8883 140.154 65.851C140.117 65.7765 140.079 65.7392 140.079 65.6647C139.222 65.7019 138.402 65.7392 137.657 65.4783H137.619C137.321 65.4783 137.023 65.4783 136.725 65.4783C136.539 64.1739 136.166 62.8694 135.681 61.6395C135.793 61.7141 135.905 61.7513 136.017 61.8259C136.241 61.9749 136.501 62.124 136.762 62.1986C137.023 62.2731 137.321 62.3104 137.582 62.3849C137.508 62.3104 137.433 62.2358 137.359 62.1613C137.172 62.124 136.986 62.0868 136.8 62.0495C136.576 61.9749 136.352 61.8631 136.129 61.7141C135.942 61.6023 135.756 61.4904 135.57 61.4159C135.383 61.0059 135.197 60.596 135.011 60.186C134.899 60.1115 134.787 60.0369 134.675 59.9624C134.936 60.4096 135.16 60.8941 135.346 61.3786C134.899 61.2295 134.34 61.1177 133.818 61.0432C133.445 61.0059 133.035 61.0805 132.625 61.155C132.178 61.2296 131.731 61.3041 131.433 61.2296C131.209 61.1923 130.985 61.0805 130.725 60.9314C130.501 60.8196 130.277 60.7078 130.054 60.6332C129.383 60.4469 128.749 60.3351 127.929 60.4096C126.774 58.7697 125.507 57.3162 124.165 56.049C124.053 56.049 123.941 56.0118 123.867 56.0118C125.246 57.2789 126.55 58.7697 127.706 60.4469C126.289 60.5214 125.209 60.745 124.202 61.1177C123.941 61.2295 123.643 61.3786 123.345 61.565C123.308 61.6022 123.271 61.6022 123.233 61.6395C122.562 61.0432 121.854 60.4842 121.146 59.9251C120.065 59.1052 118.873 58.3225 117.643 57.6144C118.09 57.1671 118.686 56.8317 119.394 56.459H119.432C119.804 56.2726 120.214 56.049 120.587 55.8627C120.438 55.8627 120.289 55.8627 120.14 55.8627C119.879 56.0118 119.618 56.1236 119.357 56.2726H119.32C118.649 56.6081 118.015 56.9808 117.494 57.4653C116.897 57.1299 116.301 56.7944 115.705 56.459C115.63 56.4963 115.518 56.4963 115.444 56.5335C116.077 56.869 116.711 57.2417 117.345 57.5771C117.158 57.8007 116.972 58.0243 116.823 58.2852C116.786 58.3225 116.823 58.397 116.86 58.397C116.897 58.397 116.935 58.397 116.972 58.3598C117.121 58.0989 117.307 57.8753 117.494 57.6516C118.724 58.3598 119.916 59.1424 121.034 59.9996C121.742 60.5214 122.413 61.0805 123.047 61.6395C122.6 61.8631 122.152 62.0868 121.78 62.124C121.407 62.1613 121.034 62.124 120.662 62.0868C120.513 62.0868 120.401 62.0495 120.252 62.0495C120.214 61.8259 120.177 61.6023 120.14 61.4159L120.065 61.0805C120.065 61.0432 119.991 61.0059 119.954 61.0059C119.916 61.0059 119.879 61.0805 119.879 61.1177L119.954 61.4532C119.991 61.6395 120.028 61.8631 120.065 62.0495C119.618 62.0495 119.134 62.0868 118.649 62.3477C118.276 61.6023 117.606 61.0432 116.86 60.8196C116.823 60.7823 116.786 60.7823 116.748 60.7823C116.301 60.6705 115.779 60.6332 115.332 60.7823C115.295 60.7823 115.295 60.745 115.258 60.745C112.611 61.155 110.487 62.0495 108.735 63.3539C108.847 62.0868 109.071 60.8196 109.443 59.6269C109.332 59.7015 109.257 59.8133 109.145 59.9251C108.81 61.1177 108.586 62.3104 108.512 63.5403C106.164 65.3292 104.449 67.8263 103.033 70.8825C102.996 70.8079 102.958 70.6961 102.921 70.6216C102.884 70.6961 102.847 70.8079 102.809 70.8825C102.847 70.957 102.884 71.0316 102.921 71.1434C102.511 72.0006 102.138 72.9323 101.766 73.8641C101.356 74.9449 100.946 76.0257 100.536 77.1438C100.089 78.5601 99.6414 79.9763 99.1942 81.3926C100.051 78.8955 100.946 76.4357 101.915 73.9386C102.25 73.0441 102.623 72.1869 102.996 71.367C103.853 73.305 104.934 75.1685 105.977 76.7711C104.263 79.6036 103.033 82.7716 101.915 86.4613C100.648 85.5296 99.5669 84.5606 98.5606 83.5543C98.5233 83.6288 98.5233 83.7033 98.486 83.7779C99.455 84.7469 100.536 85.7159 101.766 86.6477L101.803 86.6849C101.579 87.3931 101.356 88.1385 101.169 88.8839C100.61 90.9337 100.051 92.9836 99.5296 95.0707C98.486 94.4744 97.2934 93.7662 96.1007 92.9463C96.1007 93.0208 96.0635 93.0581 96.0635 93.1326C97.2561 93.9153 98.4488 94.6235 99.4923 95.257C98.8215 97.9032 98.1879 100.624 97.5915 103.456L97.7779 103.494C98.3742 100.698 99.0078 97.9777 99.6787 95.3316C100.051 95.5552 100.387 95.7415 100.722 95.9279C102.25 96.8596 103.816 97.6796 105.344 98.3504C104.971 100.885 104.747 103.307 104.598 105.618L104.785 105.693C104.934 103.382 105.157 100.997 105.53 98.4623C107.133 99.1704 108.735 99.7667 110.263 100.177C110.599 100.288 110.934 100.363 111.27 100.438C111.232 100.624 111.232 100.773 111.195 100.959C111.046 102.077 110.934 103.158 110.785 104.276C110.785 104.276 110.785 104.276 110.748 104.276C110.711 104.314 110.748 104.351 110.748 104.388C110.599 105.394 110.487 106.438 110.338 107.444L110.524 107.519C110.673 106.513 110.822 105.506 110.934 104.537C111.083 104.649 111.27 104.724 111.419 104.835L111.456 104.649C111.419 104.388 111.27 104.276 111.121 104.165ZM128.712 72.4478C128.6 72.746 128.526 73.0814 128.451 73.3423C127.706 75.7276 127.035 77.8147 125.581 79.7155C125.544 79.6782 125.507 79.6782 125.469 79.6782C123.755 80.349 122.041 80.759 120.326 80.8336C119.283 79.0073 118.649 76.7339 118.537 74.6467C119.581 74.3486 120.699 74.2368 121.333 74.4231C121.37 74.4231 121.407 74.4231 121.444 74.4604C123.159 74.9449 125.544 74.1995 126.699 72.8578C127.408 72.7832 128.116 72.5969 128.787 72.2987C128.749 72.3733 128.712 72.4105 128.712 72.4478ZM136.688 69.9135C136.091 69.8762 135.495 69.9135 134.787 69.988C134.153 69.7271 133.408 69.7271 132.737 69.8762C132.439 68.0127 131.768 66.5219 130.911 64.9938C131.544 64.9938 132.141 65.1056 132.737 65.2174C132.961 65.2547 133.184 65.3292 133.445 65.3665C134.452 65.5529 135.57 65.5529 136.688 65.5529C136.911 67.0437 136.911 68.5345 136.688 69.9135ZM130.128 60.6705C130.315 60.7078 130.538 60.8196 130.762 60.9314C131.023 61.0805 131.284 61.1923 131.507 61.2296C131.843 61.3041 132.29 61.2296 132.774 61.155C133.184 61.0805 133.594 61.0059 133.93 61.0432C134.526 61.1177 135.122 61.2296 135.57 61.4159C136.091 62.6831 136.464 64.0248 136.65 65.3665C135.57 65.3665 134.452 65.3292 133.483 65.1802C133.259 65.1429 132.998 65.1056 132.774 65.0311C132.104 64.882 131.507 64.7702 130.799 64.8075C130.538 64.3602 130.315 63.9503 130.054 63.503L129.83 63.0931C129.308 62.1613 128.749 61.3041 128.153 60.4469C128.824 60.4096 129.383 60.4842 130.128 60.6705ZM123.531 61.565C123.83 61.4159 124.128 61.2296 124.389 61.155C125.358 60.745 126.439 60.5587 127.817 60.4842C127.855 60.4842 127.892 60.4842 127.929 60.4842C128.526 61.3414 129.085 62.2358 129.644 63.2049L129.867 63.6148C130.128 64.0248 130.352 64.4348 130.575 64.8447C129.42 64.9193 128.302 65.2547 127.221 65.5901C126.923 65.6647 126.625 65.7765 126.327 65.851C126.252 65.292 125.842 64.6211 125.507 64.0993C125.432 64.0248 125.395 63.913 125.358 63.8384C124.799 63.0185 124.165 62.2731 123.494 61.6395C123.457 61.565 123.494 61.565 123.531 61.565ZM120.736 62.1986C121.109 62.2358 121.482 62.2731 121.892 62.2358C122.339 62.1986 122.823 61.9377 123.308 61.6768C124.016 62.3104 124.65 63.0558 125.209 63.8757C125.246 63.9503 125.32 64.0248 125.358 64.1366C125.73 64.6957 126.215 65.4411 126.178 65.9628C126.178 66.0001 126.215 66.0374 126.252 66.0746C126.252 66.0746 126.252 66.0746 126.289 66.0746C126.327 66.0746 126.401 66.0374 126.401 66.0001C126.699 65.9256 127.035 65.8138 127.37 65.7392C128.451 65.4411 129.569 65.1056 130.687 64.9938C130.725 64.9938 130.762 64.9938 130.799 64.9938C131.656 66.5592 132.364 68.05 132.625 69.9135C131.992 70.0625 131.433 70.3607 130.985 70.6961C130.352 71.2179 129.718 71.6279 129.122 71.926C129.42 70.957 129.644 69.988 129.569 69.0935C129.569 69.0562 129.532 69.019 129.457 69.019C129.42 69.019 129.383 69.0562 129.383 69.1308C129.457 70.0253 129.196 71.0316 128.898 72.0378C128.19 72.3733 127.482 72.5596 126.699 72.6342C126.662 72.6342 126.662 72.6342 126.625 72.6714C125.544 74.0132 123.121 74.7213 121.482 74.2368C120.848 74.0504 119.73 74.125 118.649 74.4604C118.612 73.3423 118.724 72.2987 119.022 71.4043C119.022 71.367 119.022 71.2924 118.947 71.2924C118.91 71.2924 118.835 71.2924 118.835 71.367C118.537 72.2987 118.425 73.3796 118.463 74.5349C117.978 74.684 117.531 74.8704 117.158 75.094C116.562 75.4667 116.227 75.8766 116.077 76.3612C115.407 74.8704 114.773 73.305 114.326 71.6651C114.661 71.5906 114.959 71.5906 115.258 71.6279C115.295 71.6279 115.369 71.5906 115.369 71.5533C115.369 71.5161 115.332 71.4415 115.295 71.4415C114.997 71.4043 114.661 71.4043 114.326 71.4788C114.214 71.0316 114.102 70.6216 114.028 70.1743C113.729 68.3108 113.953 66.4846 114.475 64.882C114.81 64.882 115.146 64.9193 115.481 65.0311C115.593 65.0684 115.742 65.1429 115.891 65.2174C116.115 65.3292 116.376 65.4783 116.599 65.4783C116.897 65.4783 117.345 65.3292 117.792 65.2174C118.127 65.1056 118.463 65.0311 118.724 64.9565C119.73 64.8447 120.811 64.8447 121.854 64.8447C122.861 64.8447 123.83 64.8447 124.761 64.7329C124.799 64.7329 124.836 64.6957 124.836 64.6211C124.836 64.5838 124.799 64.5466 124.724 64.5466C123.792 64.6584 122.861 64.6584 121.817 64.6584C121.37 64.6584 120.885 64.6584 120.438 64.6584C120.699 63.8384 120.624 63.0185 120.513 62.1986C120.513 62.1986 120.624 62.1986 120.736 62.1986ZM116.897 60.9314C117.643 61.155 118.276 61.7141 118.612 62.4595C118.612 62.4967 118.649 62.4967 118.686 62.4967C118.724 62.4967 118.724 62.4967 118.761 62.4967C119.245 62.1986 119.73 62.1613 120.214 62.1613C120.363 62.9812 120.401 63.8384 120.14 64.6211C119.618 64.6211 119.096 64.6584 118.575 64.7329C118.276 64.7702 117.941 64.882 117.606 64.9938C117.196 65.1429 116.748 65.2547 116.45 65.2547C116.264 65.2547 116.04 65.1429 115.817 65.0311C115.667 64.9565 115.518 64.882 115.369 64.8447C115.034 64.7329 114.698 64.6957 114.363 64.6957C114.997 63.0185 115.891 61.6768 116.897 60.9314ZM112.537 92.2009C110.748 91.381 108.959 90.5238 107.207 89.592C107.207 89.5175 107.244 89.4057 107.244 89.3311C107.766 86.5359 108.288 83.7033 109.145 81.0572C110.45 82.8089 111.94 84.7096 113.729 86.1259C113.245 88.1385 112.835 90.1511 112.537 92.2009ZM111.531 76.1375C112.537 78.1874 113.692 80.1254 114.959 81.8398C114.512 83.1816 114.139 84.5233 113.804 85.9023C112.052 84.486 110.561 82.5852 109.257 80.8336C109.816 79.1564 110.561 77.5538 111.531 76.1375ZM109.853 72.0006C110.301 73.3423 110.822 74.684 111.456 75.9512C110.45 77.3675 109.704 78.9701 109.145 80.6845C108.959 80.4236 108.735 80.1254 108.549 79.8645L108.251 79.4173C107.692 78.5974 107.058 77.6656 106.387 76.6221C107.319 74.9822 108.474 73.4541 109.853 72.0006ZM103.257 70.9943C104.673 67.9754 106.35 65.4783 108.661 63.6894C108.512 66.4101 108.996 69.1681 109.816 71.8142C108.4 73.2678 107.244 74.8331 106.238 76.473C105.195 74.8331 104.114 72.9696 103.257 70.9943ZM106.238 76.8084C106.909 77.8147 107.543 78.7464 108.064 79.5291L108.363 79.9764C108.586 80.2745 108.81 80.5727 109.033 80.9081C108.102 83.6288 107.543 86.5731 107.058 89.2938C107.058 89.3684 107.021 89.4429 107.021 89.4802C105.344 88.5484 103.704 87.5422 102.176 86.4241C103.294 82.7716 104.524 79.6037 106.238 76.8084ZM100.946 95.6297C100.61 95.4434 100.238 95.2198 99.865 94.9961C100.387 92.8718 100.946 90.8219 101.505 88.7348C101.729 87.9894 101.915 87.2813 102.138 86.5731C103.667 87.6912 105.306 88.6975 106.984 89.6293C106.872 90.1883 106.76 90.7474 106.685 91.3064C106.201 93.6544 105.828 95.8534 105.53 97.9777C104.002 97.3442 102.474 96.5242 100.946 95.6297ZM105.679 98.1268C105.977 96.0024 106.387 93.7662 106.834 91.4182C106.946 90.8965 107.021 90.3374 107.133 89.7784C108.884 90.7101 110.673 91.6046 112.462 92.3872C112.052 94.9589 111.717 97.5305 111.419 100.102C109.63 99.6549 107.692 98.984 105.679 98.1268Z" fill="#3BBDE5"/>
<path d="M131.767 72.2242C131.73 72.2242 131.693 72.1869 131.656 72.1497C128.413 66.5964 114.661 56.9063 114.511 56.8317C114.437 56.7572 114.4 56.6454 114.474 56.5708C114.549 56.4963 114.661 56.459 114.735 56.5335C115.294 56.9435 128.711 66.3356 131.991 71.9633C132.028 72.0379 132.028 72.1497 131.917 72.2242C131.842 72.2242 131.805 72.2615 131.767 72.2242Z" fill="#007A9B"/>
<path d="M121.965 82.9207C121.928 82.9207 121.891 82.8834 121.853 82.8462C121.816 82.7716 121.853 82.6598 121.928 82.5853C122.04 82.5107 133.668 76.1003 136.501 73.2678C139.259 70.5098 137.507 63.5776 136.314 61.1178C136.277 61.0432 136.314 60.9314 136.389 60.8569C136.463 60.8196 136.575 60.8569 136.65 60.9314C137.731 63.0931 139.818 70.4353 136.761 73.4914C133.854 76.3985 122.562 82.6225 122.077 82.8834C122.04 82.958 122.003 82.958 121.965 82.9207Z" fill="#007A9B"/>
<path d="M132.849 74.6468C132.737 74.5722 132.7 74.4604 132.737 74.3859C132.737 74.3486 134.414 70.957 134.414 69.5408C134.414 67.9382 133.296 62.1613 128.153 56.869C128.078 56.7944 128.078 56.6826 128.153 56.6081C128.227 56.5336 128.339 56.5336 128.413 56.6081C134.638 62.9813 134.787 69.4662 134.787 69.5408C134.787 71.0688 133.109 74.4231 133.072 74.5722C133.035 74.6095 132.923 74.6468 132.849 74.6468Z" fill="#007A9B"/>
<path d="M116.897 78.6719C116.86 78.6719 116.822 78.6347 116.785 78.5974C116.748 78.5228 112.35 72.336 110.71 68.9445C108.884 65.0684 117.381 59.1425 117.754 58.8816C117.829 58.807 117.94 58.8443 118.015 58.9188C118.089 58.9934 118.052 59.1052 117.978 59.1797C117.903 59.2543 109.368 65.2175 111.045 68.7954C112.648 72.187 117.046 78.3365 117.083 78.3738C117.158 78.4483 117.12 78.5601 117.046 78.6347C117.009 78.7092 116.934 78.7092 116.897 78.6719Z" fill="#007A9B"/>
<path d="M116.114 77.5538C116.039 77.5538 116.002 77.4793 115.965 77.4047C115.927 77.0693 114.735 69.3544 114.921 68.1245C115.107 66.7828 118.35 62.2731 120.176 60.7823C120.251 60.7078 120.363 60.7451 120.437 60.8196C120.512 60.8941 120.474 61.0059 120.4 61.0805C118.574 62.5713 115.443 67.081 115.294 68.1991C115.145 69.3917 116.3 77.2929 116.337 77.4047C116.337 77.5165 116.3 77.5911 116.188 77.6284C116.151 77.5911 116.114 77.5911 116.114 77.5538Z" fill="#007A9B"/>
<path d="M124.463 79.4918C123.717 79.2682 121.146 74.8331 119.655 72.0751C116.002 69.8389 115.928 66.1119 115.928 66.0747C115.928 65.9628 116.002 65.8883 116.114 65.8883C116.226 65.8883 116.3 65.9628 116.3 66.0747C116.3 66.1119 116.375 69.6898 119.878 71.777C119.916 71.777 119.916 71.8142 119.953 71.8515C121.816 75.2431 123.978 78.7837 124.5 79.0819C124.947 78.6346 126.065 74.1995 126.96 70.0625C126.997 69.9507 127.071 69.9135 127.183 69.9135C127.295 69.9507 127.332 70.0253 127.332 70.1371C126.438 74.3859 125.245 79.4546 124.537 79.4546C124.5 79.4918 124.5 79.4918 124.463 79.4918Z" fill="#007A9B"/>
<path d="M145.818 121.085H82.6455V159.995H145.818V121.085Z" fill="#F4B33D"/>
<path d="M145.818 121.085H117.828V159.995H145.818V121.085Z" fill="#EE9516"/>
<path d="M151.222 110.09H123.232L117.828 121.085H145.818L151.222 110.09Z" fill="#F4B33D"/>
<path d="M105.194 110.09H77.2041L82.6455 121.085H110.598L105.194 110.09Z" fill="#FBD66F"/>
<path d="M123.344 139.757H112.35V144.528H123.344V139.757Z" fill="#FBD66F"/>
</svg>
