<svg width="160" height="160" viewBox="0 0 160 160" fill="none" xmlns="http://www.w3.org/2000/svg">
<path d="M96.8521 126.367C97.9409 121.285 108.118 110.218 122.036 107.178C125.823 106.37 133.349 108.128 136.473 103.378C139.408 98.913 139.077 94.6381 142.675 95.7781C144.994 96.5381 151.29 103.9 143.195 111.975C141.444 113.685 138.604 115.822 137.515 119.195C143.811 122.805 151.716 130.927 148.781 135.819C142.012 147.124 127.621 142.089 115.456 147.171C113.562 147.978 105.846 147.456 103.858 147.029C101.254 146.459 99.503 144.036 98.3669 141.566C96.3314 136.864 95.7634 131.449 96.8521 126.367Z" fill="url(#paint0_radial_4207_6936)"/>
<path d="M99.8348 134.204C103.243 130.499 104.947 125.892 106.225 121.095C107.882 119.147 109.918 117.485 112 116.202C116.071 113.637 120.474 113.257 125.16 112.592C129.752 111.975 134.06 110.74 137.752 107.843C141.255 105.088 143.622 101.478 144.616 97.203C147.077 99.8629 149.492 105.705 143.196 111.975C141.444 113.685 138.604 115.822 137.515 119.195C143.811 122.805 151.716 130.927 148.782 135.819C142.012 147.124 127.622 142.089 115.456 147.171C113.563 147.978 105.847 147.456 103.858 147.029C101.444 146.506 99.7875 144.369 98.6514 142.136C99.6928 139.571 99.7401 136.911 99.8348 134.204Z" fill="#F3C2A3"/>
<path d="M63.9048 126.367C62.8161 121.285 52.6386 110.218 38.7214 107.178C34.9344 106.37 27.4078 108.128 24.2835 103.378C21.3486 98.913 21.68 94.6381 18.0824 95.7781C15.7628 96.5381 9.46698 103.9 17.5617 111.975C19.3131 113.685 22.1534 115.822 23.2421 119.195C16.9463 122.805 9.04094 130.927 11.9759 135.819C18.7451 147.124 33.1356 142.089 45.254 147.171C47.1474 147.978 54.8634 147.456 56.8516 147.029C59.4551 146.459 61.2066 144.036 62.3427 141.566C64.4729 136.864 65.0409 131.449 63.9048 126.367Z" fill="url(#paint1_radial_4207_6936)"/>
<path d="M60.9226 134.204C57.5143 130.499 55.8102 125.892 54.5321 121.095C52.8753 119.147 50.8398 117.485 48.7569 116.202C44.6859 113.637 40.2835 113.257 35.5972 112.592C31.0054 111.975 26.6977 110.74 23.0054 107.843C19.5025 105.088 17.1356 101.478 16.1415 97.203C13.68 99.8629 11.2658 105.705 17.5617 111.975C19.3131 113.685 22.1534 115.822 23.2421 119.195C16.9463 122.805 9.04094 130.927 11.9759 135.819C18.7451 147.124 33.1356 142.089 45.254 147.171C47.1474 147.978 54.8634 147.456 56.8516 147.029C59.2658 146.506 60.9226 144.369 62.0587 142.136C61.1119 139.571 61.0646 136.911 60.9226 134.204Z" fill="#F3C2A3"/>
<path d="M122.414 45.1926H37.5861L25.373 52.6023H134.675L122.414 45.1926Z" fill="url(#paint2_linear_4207_6936)"/>
<path d="M130.225 33.1281H29.8223L37.5856 45.3826H122.414L130.225 33.1281Z" fill="url(#paint3_linear_4207_6936)"/>
<path d="M21.3018 35.9305L0 42.2003L25.3728 52.6023L37.5858 45.1926L21.3018 35.9305Z" fill="url(#paint4_linear_4207_6936)"/>
<path d="M138.745 35.9305L160 42.2003L134.674 52.6023L122.414 45.1926L138.745 35.9305Z" fill="url(#paint5_linear_4207_6936)"/>
<path d="M110.012 17.3112C105.089 3.86929 86.1539 5.34173 80.6155 19.4012C75.1243 5.34173 56.1421 3.86929 51.219 17.3112C43.0297 39.6828 80.6155 58.2546 80.6155 58.2546C80.6155 58.2546 118.201 39.6828 110.012 17.3112Z" fill="url(#paint6_radial_4207_6936)"/>
<path opacity="0.2" d="M78.7693 48.66C63.9527 43.9577 50.0829 33.1281 51.219 17.3112C43.0297 39.6828 80.6155 58.2546 80.6155 58.2546C80.6155 58.2546 86.58 55.3097 93.2545 50.3224C89.5149 50.5124 82.3669 49.7999 78.7693 48.66Z" fill="url(#paint7_radial_4207_6936)"/>
<path d="M134.675 52.6023H25.373V137.386H134.675V52.6023Z" fill="url(#paint8_linear_4207_6936)"/>
<path d="M37.5861 52.6023H25.373V137.386H37.5861V52.6023Z" fill="#DEC49E"/>
<path d="M134.627 52.6023H122.414V137.386H134.627V52.6023Z" fill="#DEC49E"/>
<path d="M15.6208 143.989C11.1711 141.994 10.319 137.196 10.8398 133.302C11.3131 129.834 13.3486 125.607 14.9581 123.185C19.6918 116.107 24.9463 116.915 25.4196 122.425C25.7983 126.794 23.6682 130.974 22.7214 136.294C21.5853 142.469 20.8753 146.364 15.6208 143.989Z" fill="url(#paint9_radial_4207_6936)"/>
<path d="M17.467 138.621C16.2835 136.816 15.1948 134.489 14.5321 132.399C13.9167 130.357 13.538 128.172 13.3486 125.987C12.2125 128.219 11.1711 130.927 10.8398 133.302C10.319 137.196 11.1711 141.994 15.6208 143.989C18.5557 145.319 20.0705 144.654 21.0646 142.754C19.7392 141.566 18.5557 140.284 17.467 138.621Z" fill="#F3C2A3"/>
<path d="M17.8458 124.752C15.8577 122.805 17.5618 121 18.8872 119.86C21.8695 117.2 24.7097 119.622 24.189 123.517C23.8576 126.272 21.5381 128.362 17.8458 124.752Z" fill="#F4E8DA"/>
<path d="M28.0229 148.263C23.1472 146.459 21.9164 141.424 22.2004 137.244C22.4845 133.492 24.3306 128.884 25.8928 126.177C30.3898 118.34 36.0229 118.815 36.9223 124.609C37.6324 129.217 35.6442 133.824 35.0289 139.571C34.2715 146.174 33.7981 150.401 28.0229 148.263Z" fill="url(#paint10_radial_4207_6936)"/>
<path d="M29.6319 142.374C28.2118 140.521 26.8864 138.146 26.0816 135.961C25.2769 133.824 24.7089 131.544 24.3775 129.264C23.3361 131.734 22.4367 134.679 22.2473 137.244C21.9633 141.424 23.2414 146.459 28.0698 148.263C31.2887 149.451 32.8509 148.643 33.7503 146.554C32.2828 145.366 30.91 144.036 29.6319 142.374Z" fill="#F3C2A3"/>
<path d="M29.0648 127.602C26.7926 125.654 28.5441 123.659 29.8222 122.33C32.8044 119.29 36.0233 121.665 35.7393 125.844C35.55 128.837 33.2778 131.164 29.0648 127.602Z" fill="#F4E8DA"/>
<path d="M39.5735 150.971C34.8397 150.496 34.5557 147.694 33.9403 144.131C33.3723 140.949 34.2244 136.056 35.0291 133.444C37.3486 125.892 43.2184 125.369 45.0173 130.119C46.248 133.349 45.538 136.911 45.7273 142.611C45.9167 148.406 45.2066 151.493 39.5735 150.971Z" fill="url(#paint11_radial_4207_6936)"/>
<path d="M35.0288 139.809C34.6501 138.574 34.4608 137.149 34.4134 135.629C33.8454 138.289 33.4667 141.661 33.8927 144.084C34.5555 147.646 34.7921 150.496 39.5259 150.923C44.4016 151.398 45.585 149.118 45.7271 144.749C41.6087 146.981 36.4016 144.416 35.0288 139.809Z" fill="#F3C2A3"/>
<path d="M38.4848 134.062C36.0233 132.922 37.112 130.879 38.0114 129.502C39.9996 126.319 43.4079 127.602 44.0706 131.164C44.544 133.682 43.0292 136.151 38.4848 134.062Z" fill="#F4E8DA"/>
<path d="M48.0939 149.261C46.3424 148.074 45.1117 145.366 44.9697 142.659C44.6383 134.727 50.0347 132.304 53.301 136.199C55.5259 138.811 57.1827 144.749 56.804 145.794C55.1472 150.353 50.6028 150.923 48.0939 149.261Z" fill="url(#paint12_radial_4207_6936)"/>
<path d="M44.9697 141.661C44.9697 141.994 44.9697 142.326 44.9697 142.659C45.0644 145.366 46.3425 148.121 48.094 149.261C50.5082 150.876 54.8159 150.401 56.6147 146.221C52.307 146.696 47.3366 144.939 44.9697 141.661Z" fill="#F3C2A3"/>
<path d="M48.4727 142.041C45.7745 141.804 46.1532 139.476 46.4845 137.909C47.3366 134.252 50.9342 134.299 52.7804 137.434C54.0585 139.666 53.4431 142.516 48.4727 142.041Z" fill="#F4E8DA"/>
<path d="M145.184 143.989C149.634 141.994 150.486 137.196 149.965 133.302C149.492 129.834 147.456 125.607 145.847 123.185C141.113 116.107 135.859 116.915 135.385 122.425C135.007 126.794 137.137 130.974 138.084 136.294C139.22 142.469 139.93 146.364 145.184 143.989Z" fill="url(#paint13_radial_4207_6936)"/>
<path d="M143.338 138.621C144.521 136.816 145.61 134.489 146.273 132.399C146.888 130.357 147.267 128.172 147.456 125.987C148.592 128.219 149.634 130.927 149.965 133.302C150.486 137.196 149.634 141.994 145.184 143.989C142.249 145.319 140.734 144.654 139.74 142.754C141.066 141.566 142.249 140.284 143.338 138.621Z" fill="#F3C2A3"/>
<path d="M142.912 124.752C144.9 122.805 143.196 121 141.871 119.86C138.888 117.2 136.048 119.622 136.569 123.517C136.948 126.272 139.22 128.362 142.912 124.752Z" fill="#F4E8DA"/>
<path d="M132.734 148.263C137.61 146.459 138.841 141.424 138.557 137.244C138.273 133.492 136.426 128.884 134.864 126.177C130.367 118.34 124.734 118.815 123.835 124.609C123.125 129.217 125.113 133.824 125.728 139.571C126.486 146.174 127.006 150.401 132.734 148.263Z" fill="url(#paint14_radial_4207_6936)"/>
<path d="M131.172 142.374C132.592 140.521 133.918 138.146 134.722 135.961C135.527 133.824 136.095 131.544 136.427 129.264C137.468 131.734 138.367 134.679 138.557 137.244C138.841 141.424 137.563 146.459 132.734 148.263C129.515 149.451 127.953 148.643 127.054 146.554C128.521 145.366 129.894 144.036 131.172 142.374Z" fill="#F3C2A3"/>
<path d="M131.74 127.602C134.012 125.654 132.261 123.659 130.983 122.33C128 119.29 124.781 121.665 125.065 125.844C125.255 128.837 127.527 131.164 131.74 127.602Z" fill="#F4E8DA"/>
<path d="M121.231 150.971C125.965 150.496 126.249 147.694 126.864 144.131C127.432 140.949 126.58 136.056 125.776 133.444C123.456 125.892 117.586 125.369 115.787 130.119C114.557 133.349 115.267 136.911 115.077 142.611C114.841 148.406 115.598 151.493 121.231 150.971Z" fill="url(#paint15_radial_4207_6936)"/>
<path d="M125.729 139.809C126.107 138.574 126.297 137.149 126.344 135.629C126.912 138.289 127.291 141.661 126.865 144.084C126.202 147.646 125.965 150.496 121.231 150.923C116.356 151.398 115.172 149.118 115.03 144.749C119.196 146.981 124.356 144.416 125.729 139.809Z" fill="#F3C2A3"/>
<path d="M122.32 134.062C124.782 132.922 123.693 130.879 122.793 129.502C120.805 126.319 117.397 127.602 116.734 131.164C116.261 133.682 117.776 136.151 122.32 134.062Z" fill="#F4E8DA"/>
<path d="M112.71 149.261C114.462 148.074 115.693 145.366 115.835 142.659C116.166 134.727 110.77 132.304 107.503 136.199C105.278 138.811 103.622 144.749 104 145.794C105.657 150.353 110.202 150.923 112.71 149.261Z" fill="url(#paint16_radial_4207_6936)"/>
<path d="M115.788 141.661C115.788 141.994 115.788 142.326 115.788 142.659C115.693 145.366 114.415 148.121 112.663 149.261C110.249 150.876 105.941 150.401 104.143 146.221C108.498 146.696 113.468 144.939 115.788 141.661Z" fill="#F3C2A3"/>
<path d="M112.331 142.041C115.03 141.804 114.651 139.476 114.319 137.909C113.467 134.252 109.87 134.299 108.024 137.434C106.746 139.666 107.361 142.516 112.331 142.041Z" fill="#F4E8DA"/>
<g clip-path="url(#clip0_4207_6936)">
<path d="M79.9999 81.8612V87.9172L88.0473 79.8425L79.9999 71.7678V77.8238C71.1076 77.8238 63.9053 85.0507 63.9053 93.9732C63.9053 97.1425 64.8307 100.09 66.3999 102.573L69.3372 99.6255C68.4319 97.95 67.9289 96.012 67.9289 93.9732C67.9289 87.2914 73.3408 81.8612 79.9999 81.8612ZM93.5999 85.3737L90.6627 88.3209C91.5479 90.0166 92.071 91.9343 92.071 93.9732C92.071 100.655 86.6591 106.085 79.9999 106.085V100.029L71.9526 108.104L79.9999 116.179V110.123C88.8923 110.123 96.0946 102.896 96.0946 93.9732C96.0946 90.8039 95.1692 87.8566 93.5999 85.3737Z" fill="white"/>
</g>
<defs>
<radialGradient id="paint0_radial_4207_6936" cx="0" cy="0" r="1" gradientUnits="userSpaceOnUse" gradientTransform="translate(122.89 121.602) rotate(180) scale(26.2392 26.3283)">
<stop stop-color="#FBD7BC"/>
<stop offset="0.4081" stop-color="#FAD4B9"/>
<stop offset="0.7689" stop-color="#F9CCB0"/>
<stop offset="1" stop-color="#F8C3A8"/>
</radialGradient>
<radialGradient id="paint1_radial_4207_6936" cx="0" cy="0" r="1" gradientUnits="userSpaceOnUse" gradientTransform="translate(37.9039 121.602) scale(26.2392 26.3283)">
<stop stop-color="#FBD7BC"/>
<stop offset="0.4081" stop-color="#FAD4B9"/>
<stop offset="0.7689" stop-color="#F9CCB0"/>
<stop offset="1" stop-color="#F8C3A8"/>
</radialGradient>
<linearGradient id="paint2_linear_4207_6936" x1="80.1632" y1="55.8947" x2="79.0321" y2="32.4094" gradientUnits="userSpaceOnUse">
<stop stop-color="#BE956C"/>
<stop offset="0.3344" stop-color="#C29B6F"/>
<stop offset="0.7806" stop-color="#CFAB77"/>
<stop offset="1" stop-color="#D8B57C"/>
</linearGradient>
<linearGradient id="paint3_linear_4207_6936" x1="80.5985" y1="57.9958" x2="78.4322" y2="35.5898" gradientUnits="userSpaceOnUse">
<stop stop-color="#C89E71"/>
<stop offset="0.2749" stop-color="#D3AC78"/>
<stop offset="0.6653" stop-color="#DEB97F"/>
<stop offset="1" stop-color="#E2BE82"/>
</linearGradient>
<linearGradient id="paint4_linear_4207_6936" x1="19.2772" y1="53.8233" x2="18.4122" y2="35.8636" gradientUnits="userSpaceOnUse">
<stop stop-color="#C89E71"/>
<stop offset="1" stop-color="#E2BE82"/>
</linearGradient>
<linearGradient id="paint5_linear_4207_6936" x1="116.875" y1="70.2747" x2="143.283" y2="41.6477" gradientUnits="userSpaceOnUse">
<stop stop-color="#C89E71"/>
<stop offset="1" stop-color="#E2BE82"/>
</linearGradient>
<radialGradient id="paint6_radial_4207_6936" cx="0" cy="0" r="1" gradientUnits="userSpaceOnUse" gradientTransform="translate(90.0458 17.1093) scale(47.8929 40.3763)">
<stop offset="1" stop-color="#E75477"/>
</radialGradient>
<radialGradient id="paint7_radial_4207_6936" cx="0" cy="0" r="1" gradientUnits="userSpaceOnUse" gradientTransform="translate(90.0458 22.4341) scale(41.737 35.1866)">
<stop stop-color="#ED99B0"/>
<stop offset="0.198" stop-color="#EC8AA2"/>
<stop offset="0.7261" stop-color="#E86482"/>
<stop offset="1" stop-color="#E75477"/>
</radialGradient>
<linearGradient id="paint8_linear_4207_6936" x1="53.8799" y1="150.969" x2="103.942" y2="44.4771" gradientUnits="userSpaceOnUse">
<stop stop-color="#C89E71"/>
<stop offset="1" stop-color="#E2BE82"/>
</linearGradient>
<radialGradient id="paint9_radial_4207_6936" cx="0" cy="0" r="1" gradientUnits="userSpaceOnUse" gradientTransform="translate(24.5395 126.177) rotate(-64.4633) scale(18.2227 12.0131)">
<stop stop-color="#FBD7BC"/>
<stop offset="0.4081" stop-color="#FAD4B9"/>
<stop offset="0.7689" stop-color="#F9CCB0"/>
<stop offset="1" stop-color="#F8C3A8"/>
</radialGradient>
<radialGradient id="paint10_radial_4207_6936" cx="0" cy="0" r="1" gradientUnits="userSpaceOnUse" gradientTransform="translate(36.2596 128.655) rotate(-68.2929) scale(19.4148 12.7956)">
<stop stop-color="#FBD7BC"/>
<stop offset="0.4081" stop-color="#FAD4B9"/>
<stop offset="0.7689" stop-color="#F9CCB0"/>
<stop offset="1" stop-color="#F8C3A8"/>
</radialGradient>
<radialGradient id="paint11_radial_4207_6936" cx="0" cy="0" r="1" gradientUnits="userSpaceOnUse" gradientTransform="translate(44.1895 133.041) rotate(-81.4994) scale(15.7376 10.9692)">
<stop stop-color="#FBD7BC"/>
<stop offset="0.4081" stop-color="#FAD4B9"/>
<stop offset="0.7689" stop-color="#F9CCB0"/>
<stop offset="1" stop-color="#F8C3A8"/>
</radialGradient>
<radialGradient id="paint12_radial_4207_6936" cx="0" cy="0" r="1" gradientUnits="userSpaceOnUse" gradientTransform="translate(51.7772 137.514) rotate(-100.903) scale(11.4718 7.99728)">
<stop stop-color="#FBD7BC"/>
<stop offset="0.4081" stop-color="#FAD4B9"/>
<stop offset="0.7689" stop-color="#F9CCB0"/>
<stop offset="1" stop-color="#F8C3A8"/>
</radialGradient>
<radialGradient id="paint13_radial_4207_6936" cx="0" cy="0" r="1" gradientUnits="userSpaceOnUse" gradientTransform="translate(136.259 126.174) rotate(-115.537) scale(18.2227 12.0131)">
<stop stop-color="#FBD7BC"/>
<stop offset="0.4081" stop-color="#FAD4B9"/>
<stop offset="0.7689" stop-color="#F9CCB0"/>
<stop offset="1" stop-color="#F8C3A8"/>
</radialGradient>
<radialGradient id="paint14_radial_4207_6936" cx="0" cy="0" r="1" gradientUnits="userSpaceOnUse" gradientTransform="translate(124.528 128.654) rotate(-111.707) scale(19.4148 12.7956)">
<stop stop-color="#FBD7BC"/>
<stop offset="0.4081" stop-color="#FAD4B9"/>
<stop offset="0.7689" stop-color="#F9CCB0"/>
<stop offset="1" stop-color="#F8C3A8"/>
</radialGradient>
<radialGradient id="paint15_radial_4207_6936" cx="0" cy="0" r="1" gradientUnits="userSpaceOnUse" gradientTransform="translate(116.596 133.039) rotate(-98.5006) scale(15.7376 10.9692)">
<stop stop-color="#FBD7BC"/>
<stop offset="0.4081" stop-color="#FAD4B9"/>
<stop offset="0.7689" stop-color="#F9CCB0"/>
<stop offset="1" stop-color="#F8C3A8"/>
</radialGradient>
<radialGradient id="paint16_radial_4207_6936" cx="0" cy="0" r="1" gradientUnits="userSpaceOnUse" gradientTransform="translate(109.021 137.513) rotate(-79.0973) scale(11.4718 7.99725)">
<stop stop-color="#FBD7BC"/>
<stop offset="0.4081" stop-color="#FAD4B9"/>
<stop offset="0.7689" stop-color="#F9CCB0"/>
<stop offset="1" stop-color="#F8C3A8"/>
</radialGradient>
<clipPath id="clip0_4207_6936">
<rect width="48.284" height="48.4481" fill="white" transform="translate(55.8584 69.7491)"/>
</clipPath>
</defs>
</svg>
