<svg width="160" height="160" viewBox="0 0 160 160" fill="none" xmlns="http://www.w3.org/2000/svg">
<path d="M124.767 52.4024L139.746 16.996C140.473 15.294 138.594 13.6628 137.016 14.6025L125.671 21.3398L120.264 12.4217C117.073 7.20918 111.4 4.01782 105.284 4.01782H62.9689C56.8175 4.01782 51.1093 7.22691 47.9006 12.4927L33.1337 36.8179C32.141 38.4491 32.6728 40.5944 34.3214 41.5872L59.4234 56.498C61.0544 57.4731 63.1462 56.9412 64.1389 55.3278L84.0823 22.4923L94.6124 39.8143L82.0082 47.2785C80.395 48.2359 80.98 50.7004 82.8591 50.8245L122.888 53.5549C123.685 53.608 124.448 53.1471 124.767 52.4024Z" fill="#86B459"/>
<path d="M73.269 105.361L34.8537 105.042L44.3378 87.135L57.2257 94.1206C58.8743 95.0071 60.6825 93.2518 59.8316 91.5852L41.6787 55.8065C41.3064 55.0796 40.5264 54.6718 39.711 54.7782L1.65022 60.0439C-0.175702 60.2921 -0.618888 62.7389 0.994307 63.6076L12.588 69.9017L7.713 79.1212C4.84115 84.5288 5.01843 91.0356 8.13845 96.2836L29.8013 132.63C32.9568 137.913 38.6296 141.175 44.7987 141.229L73.2512 141.459C75.1658 141.477 76.7258 139.917 76.7258 138.002L76.6904 108.801C76.6904 106.904 75.1658 105.379 73.269 105.361Z" fill="#86B459"/>
<path d="M158.024 78.9437L144.959 53.6788C144.073 51.9767 141.981 51.3207 140.279 52.2072L114.468 65.8946C112.784 66.7811 112.146 68.8555 113.014 70.5398L130.671 104.67L110.408 104.634L110.586 89.9717C110.603 88.0923 108.192 87.3122 107.111 88.8547L83.9412 121.602C83.4626 122.275 83.4803 123.162 83.9412 123.818L106.366 155.04C107.448 156.529 109.806 155.785 109.823 153.941L109.983 140.732L120.407 140.75C126.522 140.768 132.213 137.576 135.386 132.364L157.368 96.3189C157.386 96.2835 157.404 96.2657 157.421 96.2303C160.63 90.9645 160.86 84.4222 158.024 78.9437Z" fill="#86B459"/>
<path d="M84.0824 22.4744L64.1391 55.31C63.1641 56.9234 61.0545 57.4553 59.4236 56.4802L34.3039 41.5694C32.6552 40.5943 32.1234 38.449 33.1161 36.8001L47.883 12.4748C51.074 7.20909 56.7822 4 62.9513 4C66.0359 4 68.9964 4.79784 71.6023 6.26941C74.2083 7.74099 76.4242 9.85083 78.0196 12.4748L84.0824 22.4744Z" fill="#719E40"/>
<path d="M76.7437 138.019C76.7437 139.934 75.1837 141.494 73.2691 141.477L44.8166 141.246C38.6652 141.193 32.9747 137.931 29.8192 132.647C29.3228 131.814 28.9151 130.963 28.5606 130.094C27.7983 128.179 27.3906 126.123 27.3374 124.066C27.2487 120.946 28.0997 118.162 29.3938 115.361L34.8538 105.042L73.2691 105.361C75.1659 105.379 76.6905 106.921 76.6905 108.801L76.7437 138.019Z" fill="#719E40"/>
<path d="M157.421 96.2304C157.403 96.2481 157.385 96.2836 157.368 96.319C156.623 97.5246 155.754 98.6062 154.779 99.5813C151.482 102.844 146.962 104.705 142.335 104.687L130.652 104.67L112.996 70.5399C112.127 68.8556 112.765 66.7812 114.449 65.8947L140.261 52.225C141.962 51.3208 144.054 51.9768 144.941 53.6966L158.006 78.9616C160.86 84.4223 160.629 90.9646 157.421 96.2304Z" fill="#719E40"/>
</svg>
