<svg width="80" height="80" viewBox="0 0 80 80" fill="none" xmlns="http://www.w3.org/2000/svg">
<path d="M39.9848 74.1762C58.8612 74.1762 74.1699 58.875 74.1776 40.0001C74.1853 21.1251 58.8892 5.82397 40.0128 5.82397C21.1364 5.82397 5.82771 21.1251 5.81998 40.0001C5.81224 58.875 21.1083 74.1762 39.9848 74.1762Z" fill="#FF9750"/>
<mask id="mask0_4437_17906" style="mask-type:luminance" maskUnits="userSpaceOnUse" x="5" y="5" width="70" height="70">
<path d="M46.4335 73.5664C64.9718 70.0133 77.1196 52.1047 73.5665 33.5664C70.0134 15.0281 52.1048 2.8803 33.5665 6.43343C15.0282 9.98656 2.88038 27.8952 6.43351 46.4334C9.98665 64.9717 27.8953 77.1195 46.4335 73.5664Z" fill="white"/>
</mask>
<g mask="url(#mask0_4437_17906)">
<path d="M14.9527 61.7623L-3.26562 16.0747L-4.54234 16.5838L13.6759 62.2714L14.9527 61.7623Z" fill="#FFB381"/>
<path d="M18.7808 60.2438L0.5625 14.5562L-0.714216 15.0653L17.5041 60.7529L18.7808 60.2438Z" fill="#FFB381"/>
<path d="M22.5991 58.7251L4.38086 13.0375L3.10414 13.5466L21.3224 59.2342L22.5991 58.7251Z" fill="#FFB381"/>
<path d="M26.4292 57.1943L8.21094 11.5067L6.93422 12.0158L25.1525 57.7034L26.4292 57.1943Z" fill="#FFB381"/>
<path d="M30.2495 55.6758L12.0312 9.98816L10.7545 10.4973L28.9728 56.1849L30.2495 55.6758Z" fill="#FFB381"/>
<path d="M34.064 54.1392L15.8457 8.45154L14.569 8.96064L32.7873 54.6483L34.064 54.1392Z" fill="#FFB381"/>
<path d="M37.9019 52.6171L19.6836 6.92944L18.4069 7.43854L36.6252 53.1262L37.9019 52.6171Z" fill="#FFB381"/>
<path d="M41.7202 51.0983L23.502 5.41064L22.2252 5.91975L40.4435 51.6074L41.7202 51.0983Z" fill="#FFB381"/>
<path d="M45.5464 49.5713L27.3281 3.88367L26.0514 4.39277L44.2697 50.0804L45.5464 49.5713Z" fill="#FFB381"/>
<path d="M49.3745 48.0491L31.1562 2.36145L29.8795 2.87055L48.0978 48.5582L49.3745 48.0491Z" fill="#FFB381"/>
<path d="M53.1987 46.5127L34.9805 0.825073L33.7037 1.33417L51.922 47.0218L53.1987 46.5127Z" fill="#FFB381"/>
<path d="M57.0171 44.994L38.7988 -0.693604L37.5221 -0.184503L55.7404 45.5031L57.0171 44.994Z" fill="#FFB381"/>
<path d="M60.8491 43.4631L42.6309 -2.22449L41.3541 -1.71539L59.5724 43.9722L60.8491 43.4631Z" fill="#FFB381"/>
<path d="M64.6675 41.9446L46.4492 -3.74304L45.1725 -3.23394L63.3908 42.4537L64.6675 41.9446Z" fill="#FFB381"/>
<path d="M68.4956 40.426L50.2773 -5.2616L49.0006 -4.7525L67.2189 40.9351L68.4956 40.426Z" fill="#FFB381"/>
</g>
<path d="M41.1435 9.64884C60.1643 9.73795 75.5838 24.9952 75.5838 43.7268C75.5838 48.0952 74.7452 52.2668 73.2178 56.0947C72.5249 57.8312 77.1376 63.1697 76.1752 64.751C75.0529 66.5952 68.3094 64.6519 66.8617 66.2446C60.554 73.1842 51.3692 77.5299 41.1435 77.482C22.1226 77.3929 6.70312 62.1357 6.70312 43.4041C6.70312 24.6725 22.1226 9.55972 41.1435 9.64884Z" fill="#FFD332"/>
<g style="mix-blend-mode:multiply" opacity="0.52">
<path d="M71.9582 44.0554C72.3925 27.1315 59.025 13.0598 42.1011 12.6255C25.1771 12.1912 11.1054 25.5587 10.6711 42.4827C10.2368 59.4066 23.6043 73.4783 40.5283 73.9126C57.4523 74.3469 71.5239 60.9794 71.9582 44.0554Z" fill="#FFBC59"/>
</g>
<path d="M69.6242 43.2952C69.6242 27.6676 56.951 14.9886 41.3179 14.9761C25.6848 14.9635 13.0117 27.6221 13.0117 43.2498C13.0117 58.8775 25.6848 71.5564 41.3179 71.569C56.951 71.5815 69.6242 58.9229 69.6242 43.2952Z" fill="#FFD332"/>
<path d="M41.5587 69.9263C56.2816 69.7953 68.1107 57.7537 67.9797 43.0307C67.8486 28.3078 55.807 16.4787 41.0841 16.6097C26.3611 16.7408 14.532 28.7824 14.6631 43.5053C14.7941 58.2283 26.8357 70.0574 41.5587 69.9263Z" fill="#FF9750"/>
<path d="M40.9725 52.8007C40.3699 52.8007 39.7267 52.7112 39.0427 52.532C38.3587 52.3529 37.6911 52.1086 37.0397 51.7992C36.4045 51.4735 35.8427 51.0827 35.3542 50.6267L36.9419 48.1839C37.6096 48.7213 38.2692 49.1366 38.9206 49.4297C39.5883 49.7229 40.2722 49.8694 40.9725 49.8694C41.8356 49.8694 42.4626 49.6903 42.8534 49.332C43.2605 48.9575 43.4641 48.4201 43.4641 47.7198C43.4641 47.2475 43.3338 46.8404 43.0732 46.4984C42.8127 46.1564 42.4544 45.847 41.9984 45.5702C41.5587 45.2933 41.0783 45.0246 40.5572 44.7641C40.0361 44.4872 39.5068 44.2023 38.9694 43.9091C38.4483 43.616 37.9598 43.274 37.5038 42.8832C37.0641 42.4923 36.714 42.0363 36.4534 41.5152C36.1928 40.9778 36.0626 40.3427 36.0626 39.6099C36.0626 38.5839 36.2824 37.6883 36.7221 36.9229C37.1781 36.1575 37.8132 35.5631 38.6274 35.1397C39.458 34.7162 40.4351 34.5045 41.5587 34.5045C42.7313 34.5045 43.7165 34.7162 44.5145 35.1397C45.3287 35.5631 46.0453 36.1086 46.6641 36.7763L44.8564 38.8526C44.3516 38.3804 43.8631 38.0302 43.3908 37.8023C42.9185 37.558 42.3648 37.4358 41.7297 37.4358C41.0132 37.4358 40.4595 37.6068 40.0687 37.9488C39.6778 38.2745 39.4824 38.7794 39.4824 39.4633C39.4824 39.8867 39.6127 40.2531 39.8732 40.5626C40.1501 40.872 40.5084 41.1488 40.9481 41.3931C41.3877 41.6374 41.8682 41.8898 42.3893 42.1503C42.9267 42.3946 43.4559 42.6633 43.9771 42.9564C44.5145 43.2496 45.003 43.5997 45.4427 44.0068C45.8824 44.3977 46.2325 44.8781 46.4931 45.4481C46.7699 46.0017 46.9084 46.6694 46.9084 47.4511C46.9084 48.4933 46.6804 49.4216 46.2244 50.2358C45.7847 51.0338 45.117 51.6608 44.2213 52.1168C43.3419 52.5727 42.259 52.8007 40.9725 52.8007ZM40.1908 55.4877V51.3595H42.6091V55.4877H40.1908ZM40.1908 35.6526V31.7931H42.6091V35.6526H40.1908Z" fill="white"/>
</svg>
