<svg width="200" height="200" viewBox="0 0 200 200" fill="none" xmlns="http://www.w3.org/2000/svg">
<mask id="mask0_4437_16404" style="mask-type:alpha" maskUnits="userSpaceOnUse" x="0" y="0" width="200" height="200">
<rect width="200" height="200" fill="#D9D9D9"/>
</mask>
<g mask="url(#mask0_4437_16404)">
<path d="M0 183.592C0 183.592 3.65225 173.931 14.7371 173.331C25.758 172.731 30.7558 176.571 42.5455 175.131C55.873 173.511 58.1156 163.79 79.4524 162.59C100.789 161.39 94.9584 169.671 125.778 171.471C145.385 172.611 152.754 166.731 169.285 165.891C198.054 164.45 198.695 183.592 198.695 183.592H0Z" fill="#D2B8AA"/>
<path d="M0 183.592L206 183.592" stroke="#B6958E" stroke-width="1.0146" stroke-miterlimit="10"/>
<path d="M97.442 96.4061C97.1689 96.4061 96.8046 96.3147 96.6225 96.0404L87.6989 86.7136C87.2436 86.2565 87.2436 85.5249 87.6989 85.0677C88.1542 84.6106 88.8826 84.6106 89.3379 85.0677L98.2616 94.3945C98.7168 94.8517 98.7168 95.5832 98.2616 96.0404C98.0794 96.3147 97.8063 96.4061 97.442 96.4061Z" fill="#501919"/>
<path d="M81.3251 93.3887C81.0519 93.3887 80.6876 93.2972 80.5055 93.0229C80.0502 92.5657 80.0502 91.8342 80.5055 91.377L93.891 77.8441C94.3463 77.3869 95.0747 77.3869 95.53 77.8441C95.9853 78.3013 95.9853 79.0328 95.53 79.49L82.1446 93.0229C81.9625 93.2972 81.5982 93.3887 81.3251 93.3887Z" fill="#501919"/>
<path d="M98.627 85.4336H137.6V93.3888L101.632 95.2175L98.627 85.4336Z" fill="#CD513C"/>
<path d="M142.334 89.5483H132.227V70.7119C132.227 69.066 133.501 67.7859 135.14 67.7859H139.42C141.059 67.7859 142.334 69.066 142.334 70.7119V89.5483Z" fill="#501919"/>
<path d="M139.056 72.6322H135.505V52.1499C135.414 44.3776 140.604 42.1831 143.427 42.0917L143.518 45.6578C142.79 45.6578 138.965 46.2064 139.056 52.1499V72.6322Z" fill="#501919"/>
<path d="M161.639 137.371H89.5215V99.5151C89.5215 93.0229 94.8939 87.8109 101.632 87.8109H162.641C167.467 87.8109 171.382 91.6513 171.382 96.3147L161.639 137.371Z" fill="#E1725C"/>
<path d="M104.363 91.1028C103.999 91.1942 98.6267 85.525 98.6267 85.525L88.2461 95.2175V103.813C88.2461 106.922 90.7957 109.482 93.8917 109.482H101.085L104.363 91.1028Z" fill="#E1725C"/>
<path d="M157.177 97.6864L154.719 105.459" stroke="#501919" stroke-width="1.2945" stroke-miterlimit="10" stroke-linecap="round" stroke-linejoin="round"/>
<path d="M154.082 97.6864L151.623 105.459" stroke="#501919" stroke-width="1.2945" stroke-miterlimit="10" stroke-linecap="round" stroke-linejoin="round"/>
<path d="M150.986 97.6864L148.527 105.459" stroke="#501919" stroke-width="1.2945" stroke-miterlimit="10" stroke-linecap="round" stroke-linejoin="round"/>
<path d="M147.799 97.6864L145.432 105.459" stroke="#501919" stroke-width="1.2945" stroke-miterlimit="10" stroke-linecap="round" stroke-linejoin="round"/>
<path d="M144.703 97.6864L142.244 105.459" stroke="#501919" stroke-width="1.2945" stroke-miterlimit="10" stroke-linecap="round" stroke-linejoin="round"/>
<path d="M151.713 42.5489C151.713 43.6461 150.803 44.4691 149.801 44.4691C148.708 44.4691 147.889 43.5547 147.889 42.5489C147.889 41.4516 148.799 40.6287 149.801 40.6287C150.803 40.6287 151.713 41.4516 151.713 42.5489Z" fill="#D9D9D9"/>
<path d="M159.362 39.5314C161.323 39.5314 162.913 37.9348 162.913 35.9653C162.913 33.9958 161.323 32.3992 159.362 32.3992C157.4 32.3992 155.811 33.9958 155.811 35.9653C155.811 37.9348 157.4 39.5314 159.362 39.5314Z" fill="#D9D9D9"/>
<path d="M170.202 18.2091C171.1 14.3748 168.733 10.5353 164.915 9.63329C161.096 8.73126 157.273 11.1083 156.375 14.9425C155.476 18.7767 157.843 22.6163 161.662 23.5183C165.48 24.4203 169.303 22.0433 170.202 18.2091Z" fill="#D9D9D9"/>
<path d="M56.8294 103.081H51.457V78.4841C51.457 77.0211 52.6408 75.8324 54.0977 75.8324C55.5546 75.8324 56.7384 77.0211 56.7384 78.4841V103.081H56.8294Z" fill="black"/>
<path d="M81.6879 105.367C81.6879 106.83 80.5041 108.019 79.0472 108.019H57.1934C55.7365 108.019 54.5527 106.83 54.5527 105.367C54.5527 103.904 55.7365 102.715 57.1934 102.715H79.0472C80.5041 102.624 81.6879 103.904 81.6879 105.367Z" fill="black"/>
<path d="M71.672 55.4417C71.672 55.4417 65.7533 56.8132 62.8395 62.4824C59.9256 68.1516 57.7402 91.377 57.7402 91.377C57.7402 91.377 66.6639 94.6688 76.6802 90.6455C76.6802 90.6455 80.0493 65.317 76.1339 60.105L71.672 55.4417Z" fill="#FFC05E"/>
<path d="M92.0692 74.8265L84.2383 78.0269L85.9684 81.5016L92.7066 79.5813C92.8888 79.8557 93.0709 80.13 93.253 80.4043C93.344 78.7584 93.344 76.9296 93.1619 75.2837L92.0692 74.8265Z" fill="#FFBE9E"/>
<path d="M71.5808 78.027C69.9418 78.3927 69.6686 80.953 69.7596 82.5989C69.7596 84.8849 72.4003 87.0794 74.5857 86.6222L91.5224 81.8674L88.6085 74.0951L71.5808 78.027Z" fill="#FFC05E"/>
<path d="M93.0696 80.6786C91.1574 80.0386 90.1558 77.9355 90.7932 76.1067C91.4306 74.1865 93.5249 73.1807 95.3461 73.8207C97.2583 74.4608 98.2599 76.5639 97.6225 78.3927C96.9851 80.3129 94.8908 81.3187 93.0696 80.6786Z" fill="#FFBE9E"/>
<path d="M74.4942 64.494L78.3186 82.3246C78.6829 84.2448 76.8617 85.9821 75.0406 86.5307C73.2194 87.0794 71.3072 86.2564 70.4877 84.5191C68.8486 80.953 66.1169 74.3694 64.4779 66.4143C63.9315 64.0368 65.2974 61.568 67.4828 60.6536C70.4877 59.4649 73.8568 61.2937 74.4942 64.494Z" fill="#FFC05E"/>
<path d="M74.0391 62.0251L76.9529 76.1981L77.9545 76.5639" stroke="#FFAC33" stroke-width="0.7609" stroke-miterlimit="10"/>
<path d="M65.3887 69.8889C65.3887 69.8889 67.3009 77.4783 70.4879 84.4277C71.2163 85.9821 72.9464 86.8051 74.5855 86.4393L77.2262 85.7992" stroke="#FFAC33" stroke-width="0.7609" stroke-miterlimit="10"/>
<path d="M74.4043 37.6111C74.4043 37.6111 80.6873 34.5022 87.3345 37.6111C88.245 38.0683 88.6093 39.1656 87.8808 39.9885L84.967 43.0974L74.4043 37.6111Z" fill="#501919"/>
<path d="M80.231 53.8872L76.6798 61.0194L71.3984 56.0817L75.405 47.1207L80.231 53.8872Z" fill="#FFBE9E"/>
<path d="M78.2282 57.819C75.5875 55.533 76.8623 51.8755 76.8623 51.8755L79.8672 54.6186L78.2282 57.819Z" fill="#FFA684"/>
<path d="M83.328 38.9826C83.328 38.9826 86.6971 39.8056 86.515 44.1032C86.515 44.1032 86.3329 47.2121 86.1508 51.6926C86.0598 54.07 83.6922 55.8073 81.5069 55.1673C80.141 54.7101 78.9573 53.5214 77.5914 52.3327L75.406 50.7782C71.2174 45.2919 76.0434 37.3367 82.8727 38.7998C82.9638 38.8912 83.1459 38.9826 83.328 38.9826Z" fill="#FFBE9E"/>
<path d="M85.8779 48.5837L87.3348 50.2296C87.5169 50.4125 87.4259 50.7783 87.0617 50.7783H85.5137L85.8779 48.5837Z" fill="#FFBE9E"/>
<path d="M78.2283 46.3892C78.2283 46.3892 77.9551 38.6169 86.1503 40.9029C86.1503 40.9029 81.7795 34.8679 74.4949 37.6111C72.7648 38.2511 70.9437 40.0799 70.4884 41.9087C69.7599 44.7433 71.3079 47.1207 73.5844 51.8755C73.5844 51.8755 76.4071 52.0584 77.4998 48.7666C77.5909 48.0351 78.2283 46.3892 78.2283 46.3892Z" fill="#501919"/>
<path d="M76.1332 42.4574L78.1364 46.2978L81.3235 43.7375C81.3235 43.7375 79.5934 40.5372 81.4145 39.7142C83.3267 38.8913 78.4096 38.3427 78.4096 38.3427L74.4941 39.0742L76.1332 42.4574Z" fill="#501919"/>
<path d="M74.4042 46.755C74.2221 48.0352 75.0416 49.2239 76.3164 49.4067C77.5912 49.5896 78.7749 48.7667 78.957 47.4865C79.1392 46.2064 78.3197 45.0177 77.0448 44.8348C75.77 44.6519 74.5863 45.4749 74.4042 46.755Z" fill="#FFBE9E"/>
<path d="M77.4992 47.8523C77.4081 47.8523 77.317 47.7609 77.317 47.6695C77.317 47.6695 77.4081 47.0294 77.0439 46.5722C76.8618 46.2979 76.4975 46.2065 76.1333 46.2065C76.0422 46.2065 75.9512 46.115 75.9512 46.0236C75.9512 45.9321 76.0422 45.8407 76.1333 45.8407C76.6796 45.8407 77.0439 46.0236 77.317 46.2979C77.7723 46.8465 77.6813 47.6695 77.6813 47.6695C77.6813 47.8523 77.5902 47.8523 77.4992 47.8523Z" fill="black"/>
<path d="M86.241 50.7783C77.9548 50.5954 80.2312 43.7375 80.2312 43.7375L79.3206 44.2862L79.0475 45.1091C79.0475 45.3834 78.41 44.5605 78.5011 44.8348L78.6832 45.9321L79.2296 48.8581C79.4117 50.504 76.9531 51.8756 76.9531 51.8756L77.0442 52.5157C77.4995 54.8016 79.5938 56.3561 81.8702 56.2646C84.4198 56.1732 86.4231 53.9787 86.3321 51.4184L86.241 50.7783Z" fill="#501919"/>
<path d="M85.0567 45.2005C85.0567 45.2005 86.2405 45.1091 86.2405 45.6577C86.2405 45.6577 86.2405 46.0235 85.2389 46.1149C84.2372 46.2064 83.9641 46.1149 83.873 45.7492C83.7819 45.3834 84.5104 45.2005 85.0567 45.2005Z" fill="black"/>
<path d="M84.6917 48.0352C84.6006 48.3095 84.7827 48.5838 85.0559 48.6753C85.3291 48.7667 85.6022 48.5838 85.6933 48.3095C85.7844 48.0352 85.6022 47.7609 85.3291 47.6694C84.9648 47.6694 84.6917 47.7609 84.6917 48.0352Z" fill="black"/>
<path d="M80.6855 122.466V130.696H98.4418C98.4418 130.696 99.7166 124.752 90.7019 124.752V122.466H80.6855Z" fill="black"/>
<path d="M98.4418 130.604H80.6855V132.341H98.4418V130.604Z" fill="black"/>
<path d="M68.0292 102.99H64.8422C60.1983 102.99 57.1023 99.1492 57.1934 94.4859C57.2844 91.9256 57.9218 89.9139 57.9218 89.9139H83.3269C90.1562 89.9139 94.2538 97.229 90.9757 102.99H75.8602H68.0292Z" fill="#7292FF"/>
<path d="M79.9583 100.704V122.466H92.16V97.9605C92.16 93.48 88.6088 89.9139 84.147 89.9139H74.5859L79.9583 100.704Z" fill="#7292FF"/>
<path d="M92.8876 118.443H79.0469V123.38H92.8876V118.443Z" fill="#9CB8FF"/>
<path d="M148.161 132.433H70.0332V143.406H148.161V132.433Z" fill="#CD513C"/>
<path d="M148.161 143.406H70.0332V146.24H148.161V143.406Z" fill="#E1725C"/>
<path d="M192.96 153.555V144.411C192.96 143.771 192.505 143.314 191.868 143.314C191.412 143.314 190.957 142.948 190.866 142.491C190.32 140.388 189.5 138.376 188.408 136.456C188.134 135.999 188.225 135.45 188.59 135.176C189.045 134.719 189.045 134.079 188.59 133.622L182.125 127.13C181.669 126.672 181.032 126.672 180.577 127.13C180.212 127.495 179.666 127.495 179.302 127.312C177.481 126.215 175.477 125.392 173.292 124.844C172.837 124.752 172.472 124.295 172.472 123.838C172.472 123.198 172.017 122.74 171.38 122.74H162.274C161.637 122.74 161.181 123.198 161.181 123.838C161.181 124.295 160.817 124.752 160.362 124.844C158.267 125.392 156.264 126.215 154.352 127.312C153.897 127.587 153.35 127.495 153.077 127.13C152.622 126.672 151.984 126.672 151.529 127.13L145.064 133.622C144.609 134.079 144.609 134.719 145.064 135.176C145.428 135.542 145.428 136.091 145.246 136.456C144.154 138.285 143.334 140.297 142.788 142.491C142.697 142.948 142.241 143.314 141.786 143.314C141.149 143.314 140.693 143.771 140.693 144.411V153.555C140.693 154.195 141.149 154.653 141.786 154.653C142.241 154.653 142.697 155.018 142.788 155.475C143.334 157.579 144.154 159.59 145.246 161.51C145.519 161.968 145.428 162.516 145.064 162.791C144.609 163.248 144.609 163.888 145.064 164.345L151.529 170.837C151.984 171.294 152.622 171.294 153.077 170.837C153.441 170.471 153.988 170.471 154.352 170.654C156.173 171.752 158.176 172.575 160.362 173.123C160.817 173.215 161.181 173.672 161.181 174.129C161.181 174.769 161.637 175.226 162.274 175.226H171.38C172.017 175.226 172.472 174.769 172.472 174.129C172.472 173.672 172.837 173.215 173.292 173.123C175.386 172.575 177.39 171.752 179.302 170.654C179.757 170.38 180.303 170.471 180.577 170.837C181.032 171.294 181.669 171.294 182.125 170.837L188.59 164.345C189.045 163.888 189.045 163.248 188.59 162.791C188.225 162.425 188.225 161.876 188.408 161.51C189.5 159.682 190.32 157.67 190.866 155.475C190.957 155.018 191.412 154.653 191.868 154.653C192.505 154.561 192.96 154.104 192.96 153.555Z" fill="#501919"/>
<path d="M177.095 159.288C182.749 153.61 182.749 144.405 177.095 138.727C171.441 133.049 162.274 133.049 156.62 138.727C150.966 144.405 150.966 153.61 156.62 159.288C162.274 164.965 171.441 164.965 177.095 159.288Z" fill="#FFFFF1"/>
<path d="M166.827 158.584C172.107 158.584 176.388 154.286 176.388 148.983C176.388 143.681 172.107 139.382 166.827 139.382C161.546 139.382 157.266 143.681 157.266 148.983C157.266 154.286 161.546 158.584 166.827 158.584Z" fill="#FFA695"/>
<path d="M10.3906 102.624L18.0395 113.962L79.1391 139.291L85.2399 134.353C85.2399 134.353 84.6936 107.104 56.5568 93.663C56.5568 93.7544 31.7892 84.2448 10.3906 102.624Z" fill="#CD513C"/>
<path d="M85.2404 138.742C84.3298 138.742 83.5103 138.011 83.5103 137.005C82.7818 109.848 64.5703 99.6065 63.8419 99.1493C35.2498 81.9588 9.75366 105.459 9.48048 105.733C8.75202 106.373 7.65933 106.373 7.02192 105.641C6.38452 104.91 6.38453 103.813 7.11299 103.173C7.38616 102.898 34.8855 77.5698 65.663 96.1318C66.4825 96.589 86.3331 107.745 87.1526 136.913C86.9705 137.919 86.242 138.742 85.2404 138.742Z" fill="#E1725C"/>
<path d="M78.2284 143.68V130.421C78.2284 129.507 77.4999 128.867 76.6804 128.867C75.9519 128.867 75.3145 128.41 75.1324 127.678C74.3129 124.569 73.1292 121.643 71.4901 118.991C71.1259 118.351 71.2169 117.62 71.7633 117.071C72.4007 116.431 72.4007 115.425 71.7633 114.877L62.3844 105.367C61.747 104.727 60.7453 104.727 60.199 105.367C59.6526 105.916 58.9242 106.007 58.2868 105.641C55.555 104.087 52.6412 102.807 49.6363 101.984C48.9078 101.801 48.4525 101.161 48.4525 100.429C48.4525 99.5151 47.7241 98.875 46.9046 98.875H33.6102C32.6996 98.875 32.0622 99.6065 32.0622 100.429C32.0622 101.161 31.6069 101.801 30.8784 101.984C27.7825 102.807 24.8686 103.996 22.228 105.641C21.5906 106.007 20.8621 105.916 20.3158 105.367C19.6784 104.727 18.6767 104.727 18.1304 105.367L8.6604 114.694C8.02299 115.334 8.02299 116.34 8.6604 116.888C9.20674 117.437 9.2978 118.169 8.93357 118.809C7.38559 121.552 6.11079 124.478 5.29127 127.495C5.10916 128.227 4.47175 128.684 3.74329 128.684C2.83271 128.684 2.19531 129.415 2.19531 130.238V143.497C2.19531 144.411 2.92377 145.051 3.74329 145.051C4.47175 145.051 5.10916 145.509 5.29127 146.24C6.11079 149.349 7.29454 152.275 8.93357 154.927C9.2978 155.567 9.20674 156.298 8.6604 156.847C8.02299 157.487 8.02299 158.493 8.6604 159.042L18.0393 168.46C18.6767 169.1 19.6784 169.1 20.2247 168.46C20.7711 167.911 21.4995 167.82 22.1369 168.185C24.8686 169.74 27.7825 171.02 30.7874 171.843C31.5159 172.026 31.9711 172.666 31.9711 173.397C31.9711 174.312 32.6996 174.952 33.5191 174.952H46.7225C47.633 174.952 48.2704 174.22 48.2704 173.397C48.2704 172.666 48.7257 172.026 49.4542 171.843C52.5501 171.02 55.464 169.831 58.1047 168.185C58.7421 167.82 59.4705 167.911 60.0169 168.46C60.6543 169.1 61.6559 169.1 62.2022 168.46L71.5812 159.042C72.2186 158.402 72.2186 157.396 71.5812 156.847C71.0348 156.298 70.9438 155.567 71.308 154.927C72.856 152.184 74.1308 149.258 74.9503 146.24C75.1324 145.509 75.7698 145.051 76.4983 145.051C77.4999 145.234 78.2284 144.503 78.2284 143.68Z" fill="#501919"/>
<path d="M60.9552 140.435C62.8291 128.923 55.0541 118.064 43.5893 116.183C32.1246 114.301 21.3116 122.109 19.4378 133.621C17.5639 145.134 25.3389 155.992 36.8037 157.874C48.2684 159.756 59.0814 151.948 60.9552 140.435Z" fill="#FFFFF1"/>
<path d="M50.0301 146.92C55.4708 141.456 55.4708 132.598 50.0301 127.135C44.5894 121.671 35.7684 121.671 30.3277 127.135C24.8871 132.598 24.8871 141.456 30.3277 146.92C35.7684 152.383 44.5894 152.383 50.0301 146.92Z" fill="#FFA695"/>
</g>
</svg>
