<svg width="200" height="200" viewBox="0 0 200 200" fill="none" xmlns="http://www.w3.org/2000/svg">
<mask id="mask0_4437_16405" style="mask-type:alpha" maskUnits="userSpaceOnUse" x="0" y="0" width="200" height="200">
<rect x="0.5" y="0.5" width="199" height="199" fill="#DCC09B" stroke="#DCC09B"/>
</mask>
<g mask="url(#mask0_4437_16405)">
<path d="M14.7642 173.83L14.7643 173.83C19.7669 173.558 23.5067 174.21 27.2694 174.866C27.6019 174.924 27.9345 174.982 28.2682 175.039C32.3868 175.747 36.6396 176.356 42.6058 175.628C48.3851 174.925 52.141 172.715 56.1241 170.37C56.8194 169.961 57.5215 169.548 58.2426 169.138C63.0856 166.384 68.9059 163.684 79.4805 163.089C84.7837 162.791 88.3728 163.084 91.2524 163.707C94.001 164.302 96.1219 165.202 98.5139 166.217C98.6299 166.267 98.7467 166.316 98.8641 166.366C103.972 168.53 110.275 171.066 125.749 171.97L125.749 171.97C135.616 172.544 142.409 171.35 148.795 169.911C149.806 169.683 150.806 169.45 151.806 169.216C157.111 167.977 162.4 166.741 169.31 166.39C183.574 165.676 190.757 170.062 194.391 174.517C196.218 176.757 197.17 179.04 197.665 180.762C197.912 181.623 198.045 182.342 198.116 182.842C198.129 182.933 198.14 183.016 198.149 183.092H0.771644C0.877788 182.875 1.01303 182.614 1.17948 182.318C1.68038 181.43 2.46147 180.236 3.57913 179.026C5.81021 176.609 9.37926 174.122 14.7642 173.83Z" fill="#9AB6DB" stroke="#9AB6DB"/>
<path d="M0 183.592L206 183.592" stroke="#9AB6DB" stroke-width="1.0146" stroke-miterlimit="10"/>
<path d="M97.0391 95.7638L97.0145 95.7268L96.9838 95.6947L88.0602 86.368L88.0602 86.3679L88.0532 86.3608C87.7922 86.0987 87.7922 85.6827 88.0532 85.4206C88.312 85.1606 88.7206 85.1596 88.9806 85.4175L97.9003 94.7401L97.9002 94.7402L97.9073 94.7473C98.1683 95.0094 98.1683 95.4255 97.9073 95.6876L97.8724 95.7226L97.845 95.7638C97.7921 95.8435 97.7178 95.9061 97.442 95.9061C97.3562 95.9061 97.2595 95.8911 97.1783 95.8597C97.0977 95.8286 97.0578 95.7919 97.0391 95.7638Z" fill="#9AB6DB" stroke="#9AB6DB"/>
<path d="M80.9221 92.7464L80.8947 92.7052L80.8598 92.6701C80.5988 92.408 80.5988 91.9919 80.8598 91.7298L80.861 91.7286L94.2453 78.1969C94.2455 78.1967 94.2457 78.1965 94.2459 78.1963C94.5058 77.936 94.9161 77.9362 95.1757 78.1969C95.4367 78.459 95.4367 78.8751 95.1757 79.1372L95.1745 79.1384L81.7891 92.6713L81.7549 92.7059L81.728 92.7464C81.7093 92.7745 81.6694 92.8111 81.5888 92.8422C81.5076 92.8736 81.4109 92.8887 81.3251 92.8887C81.2392 92.8887 81.1425 92.8736 81.0613 92.8422C80.9807 92.8111 80.9407 92.7745 80.9221 92.7464Z" fill="#9AB6DB" stroke="#9AB6DB"/>
<path d="M101.995 94.6984L99.3036 85.9336H137.1V92.9135L101.995 94.6984Z" fill="#9AB6DB" stroke="#9AB6DB"/>
<path d="M141.834 89.0483H132.727V70.7119C132.727 69.3402 133.779 68.2859 135.14 68.2859H139.42C140.781 68.2859 141.834 69.3402 141.834 70.7119V89.0483Z" fill="#9AB6DB" stroke="#9AB6DB"/>
<path d="M138.556 52.1537V72.1322H136.005V52.1499H136.005L136.005 52.1441C135.961 48.3799 137.191 46.0295 138.715 44.6058C140.066 43.3436 141.681 42.7776 142.941 42.6296L143.006 45.2038C142.407 45.2999 141.501 45.5762 140.656 46.294C139.484 47.29 138.51 49.068 138.556 52.1537Z" fill="#9AB6DB" stroke="#9AB6DB"/>
<path d="M170.882 96.2571L161.244 136.871H90.0215V99.5151C90.0215 93.3145 95.1544 88.3109 101.632 88.3109H162.641C167.182 88.3109 170.85 91.9074 170.882 96.2571Z" fill="#9AB6DB" stroke="#9AB6DB"/>
<path d="M103.699 91.2789C103.736 91.3086 103.773 91.3375 103.809 91.3647L100.667 108.982H93.8917C91.0738 108.982 88.7461 106.647 88.7461 103.813V95.4347L98.606 86.2284C98.7421 86.3709 98.9136 86.5502 99.1113 86.7558C99.6215 87.2868 100.306 87.9944 101.003 88.6996C101.698 89.4037 102.409 90.1095 102.972 90.6351C103.252 90.8968 103.502 91.1208 103.699 91.2789Z" fill="#9AB6DB" stroke="#9AB6DB"/>
<path d="M157.177 97.6864L154.719 105.459" stroke="#9AB6DB" stroke-width="1.2945" stroke-miterlimit="10" stroke-linecap="round" stroke-linejoin="round"/>
<path d="M154.082 97.6864L151.623 105.459" stroke="#9AB6DB" stroke-width="1.2945" stroke-miterlimit="10" stroke-linecap="round" stroke-linejoin="round"/>
<path d="M150.986 97.6864L148.527 105.459" stroke="#9AB6DB" stroke-width="1.2945" stroke-miterlimit="10" stroke-linecap="round" stroke-linejoin="round"/>
<path d="M147.799 97.6864L145.432 105.459" stroke="#9AB6DB" stroke-width="1.2945" stroke-miterlimit="10" stroke-linecap="round" stroke-linejoin="round"/>
<path d="M144.703 97.6864L142.244 105.459" stroke="#9AB6DB" stroke-width="1.2945" stroke-miterlimit="10" stroke-linecap="round" stroke-linejoin="round"/>
<path d="M151.213 42.5489C151.213 43.3566 150.54 43.9691 149.801 43.9691C149.002 43.9691 148.389 43.2961 148.389 42.5489C148.389 41.7411 149.062 41.1287 149.801 41.1287C150.54 41.1287 151.213 41.7411 151.213 42.5489Z" fill="#9AB6DB" stroke="#9AB6DB"/>
<path d="M162.413 35.9653C162.413 37.6606 161.045 39.0314 159.362 39.0314C157.679 39.0314 156.311 37.6606 156.311 35.9653C156.311 34.2699 157.679 32.8992 159.362 32.8992C161.045 32.8992 162.413 34.2699 162.413 35.9653Z" fill="#9AB6DB" stroke="#9AB6DB"/>
<path d="M164.801 10.1201C168.348 10.9582 170.551 14.527 169.715 18.0941C168.879 21.6612 165.323 23.8696 161.776 23.0315C158.228 22.1933 156.025 18.6246 156.861 15.0575C157.697 11.4904 161.253 9.28196 164.801 10.1201Z" fill="#9AB6DB" stroke="#9AB6DB"/>
<path d="M56.2384 102.581H51.957V78.4841C51.957 77.2953 52.9189 76.3324 54.0977 76.3324C55.2765 76.3324 56.2384 77.2953 56.2384 78.4841V102.581Z" fill="#9AB6DB" stroke="#9AB6DB"/>
<path d="M79.0472 103.215H79.0629L79.0785 103.214C80.2046 103.144 81.1879 104.148 81.1879 105.367C81.1879 106.556 80.226 107.519 79.0472 107.519H57.1934C56.0146 107.519 55.0527 106.556 55.0527 105.367C55.0527 104.178 56.0146 103.215 57.1934 103.215H79.0472Z" fill="#9AB6DB" stroke="#9AB6DB"/>
<path d="M76.3209 89.4873C76.2794 89.8327 76.2456 90.1034 76.2221 90.289C71.4066 92.1627 66.8632 92.3312 63.4998 92.0221C61.7872 91.8647 60.3838 91.5838 59.4112 91.3431C58.925 91.2228 58.5468 91.1127 58.292 91.0333C58.2867 91.0316 58.2815 91.03 58.2763 91.0284C58.292 90.8692 58.3124 90.6644 58.3373 90.4184C58.4026 89.7735 58.4992 88.8457 58.6242 87.7144C58.8743 85.4515 59.2379 82.3762 59.6923 79.1249C60.1469 75.8724 60.6916 72.4496 61.3031 69.4901C61.9184 66.5122 62.5906 64.0603 63.2842 62.711C64.6843 59.9869 66.8091 58.2895 68.5961 57.2704C69.4889 56.7613 70.293 56.4241 70.8718 56.2147C71.1403 56.1176 71.3597 56.0482 71.5163 56.0021L75.7512 60.4284C76.1722 60.9996 76.5222 61.879 76.795 63.0291C77.0694 64.1859 77.2562 65.5746 77.3725 67.1135C77.605 70.1907 77.5519 73.8216 77.376 77.3045C77.2001 80.7848 76.9022 84.1045 76.6481 86.5549C76.5211 87.7799 76.4051 88.7869 76.3209 89.4873Z" fill="#9AB6DB" stroke="#9AB6DB"/>
<path d="M92.6951 75.6304C92.8006 76.7253 92.8285 77.896 92.805 79.0334L92.5696 79.1005L86.2308 80.9069L84.9259 78.286L92.067 75.3676L92.6951 75.6304Z" fill="#9AB6DB" stroke="#9AB6DB"/>
<path d="M71.6897 78.515L71.6897 78.515L71.6933 78.5141L88.2942 74.6808L90.8631 81.5331L74.4676 86.136C73.5717 86.3168 72.5236 85.9632 71.6731 85.255C70.8189 84.5436 70.2596 83.5532 70.2596 82.5989V82.5851L70.2589 82.5713C70.2151 81.7793 70.2614 80.7903 70.5012 79.9737C70.7463 79.1391 71.1417 78.6372 71.6897 78.515Z" fill="#9AB6DB" stroke="#9AB6DB"/>
<path d="M93.2354 80.2069L93.2355 80.2069L93.2284 80.2045C91.58 79.6528 90.7197 77.8367 91.2654 76.2713L91.2654 76.2713L91.2677 76.2642C91.8182 74.606 93.6262 73.7462 95.1803 74.2925L95.1803 74.2925L95.1874 74.2949C96.8357 74.8466 97.696 76.6626 97.1504 78.2281L97.1503 78.2281L97.148 78.2352C96.5976 79.8933 94.7896 80.7531 93.2354 80.2069Z" fill="#9AB6DB" stroke="#9AB6DB"/>
<path d="M74.0039 64.5917L74.0038 64.5917L74.0053 64.5989L77.8284 82.4233C77.9718 83.1897 77.6888 83.953 77.1196 84.6164C76.5475 85.2832 75.7202 85.8038 74.8963 86.052C73.3084 86.5304 71.6533 85.8155 70.9409 84.3079C69.3104 80.7602 66.5958 74.2158 64.9676 66.3134L64.9677 66.3133L64.9652 66.3023C64.4764 64.1754 65.7018 61.9434 67.6713 61.1168C70.3838 60.0469 73.4275 61.6978 74.0039 64.5917Z" fill="#9AB6DB" stroke="#9AB6DB"/>
<path d="M74.0391 62.0251L76.9529 76.1981L77.9545 76.5639" fill="#9AB6DB"/>
<path d="M74.0391 62.0251L76.9529 76.1981L77.9545 76.5639" stroke="#9AB6DB" stroke-width="0.7609" stroke-miterlimit="10"/>
<path d="M65.3887 69.8889C65.3887 69.8889 67.3009 77.4783 70.4879 84.4277C71.2163 85.9821 72.9464 86.8051 74.5855 86.4393L77.2262 85.7992" fill="#9AB6DB"/>
<path d="M65.3887 69.8889C65.3887 69.8889 67.3009 77.4783 70.4879 84.4277C71.2163 85.9821 72.9464 86.8051 74.5855 86.4393L77.2262 85.7992" stroke="#9AB6DB" stroke-width="0.7609" stroke-miterlimit="10"/>
<path d="M75.596 37.6667C75.6155 37.6598 75.6353 37.6528 75.6553 37.6458C76.3258 37.4107 77.2901 37.1276 78.4565 36.9388C80.7893 36.5614 83.911 36.564 87.1159 38.0609C87.4504 38.2308 87.6646 38.5071 87.7386 38.7894C87.8096 39.0601 87.7611 39.3665 87.5108 39.6522L84.8612 42.4791L75.596 37.6667Z" fill="#9AB6DB" stroke="#9AB6DB"/>
<path d="M79.6496 53.9331L76.5312 60.196L72.0005 55.9601L75.505 48.122L79.6496 53.9331Z" fill="#9AB6DB" stroke="#9AB6DB"/>
<path d="M77.1504 52.8155L79.2482 54.7305L78.0962 56.9799C77.2949 56.0429 77.064 54.9364 77.055 53.9853C77.0508 53.5421 77.0952 53.1395 77.1504 52.8155Z" fill="#9AB6DB" stroke="#9AB6DB"/>
<path d="M85.6512 51.6723L85.6512 51.6735C85.5721 53.739 83.511 55.2265 81.6564 54.6901C81.0561 54.4874 80.4743 54.1174 79.8588 53.6318C79.4287 53.2924 79.0046 52.9155 78.5533 52.5146C78.3487 52.3328 78.1385 52.146 77.9196 51.9555L77.9012 51.9394L77.8812 51.9252L75.7585 50.4154C71.9405 45.313 76.3858 38.0222 82.6531 39.265C82.8134 39.3774 83.0246 39.4629 83.2486 39.4797C83.2654 39.4847 83.287 39.4915 83.3129 39.5003C83.3898 39.5261 83.5038 39.5686 83.6423 39.6324C83.92 39.7605 84.2898 39.9716 84.654 40.3018C85.3667 40.9478 86.0991 42.0849 86.0156 44.0781L86.0153 44.0832L86.0138 44.1104L86.0077 44.2171C86.0023 44.3112 85.9945 44.4504 85.9845 44.6315C85.9645 44.9936 85.936 45.5229 85.9019 46.1922C85.8335 47.5309 85.7424 49.43 85.6512 51.6723Z" fill="#9AB6DB" stroke="#9AB6DB"/>
<path d="M86.1035 50.2783L86.1993 49.7012L86.7101 50.2783H86.1035Z" fill="#9AB6DB" stroke="#9AB6DB"/>
<path d="M73.8942 51.3657C73.5953 50.7457 73.312 50.1709 73.047 49.6333C72.3469 48.2125 71.7743 47.0506 71.3775 45.996C70.8176 44.5077 70.6431 43.3154 70.9727 42.0331L70.9736 42.0295C71.1747 41.2215 71.6889 40.381 72.3759 39.6587C73.0619 38.9375 73.8877 38.3689 74.6684 38.08L74.6684 38.08L74.6711 38.079C78.1454 36.7707 80.902 37.5542 82.8028 38.6604C83.5919 39.1196 84.2341 39.6355 84.7161 40.083C83.3381 39.8813 82.2088 39.9917 81.2852 40.3255C80.0265 40.7803 79.2078 41.6292 78.683 42.5389C78.1625 43.4412 77.9268 44.4085 77.819 45.1374C77.7648 45.5042 77.7421 45.8167 77.733 46.0392C77.7285 46.149 77.7273 46.2373 77.7272 46.2999C77.7096 46.3464 77.6861 46.4091 77.6582 46.4846C77.596 46.6532 77.5119 46.8861 77.4247 47.1428C77.2632 47.6188 77.0726 48.2287 77.0108 48.6522C76.5099 50.1242 75.6468 50.787 74.9332 51.0968C74.5652 51.2566 74.2268 51.3265 73.9821 51.3563C73.9511 51.3601 73.9218 51.3632 73.8942 51.3657Z" fill="#9AB6DB" stroke="#9AB6DB"/>
<path d="M75.2296 39.4454L78.4268 38.8481C78.4595 38.852 78.5025 38.8573 78.5541 38.8638C78.682 38.8801 78.8629 38.9042 79.0743 38.9358C79.4994 38.9992 80.0374 39.0909 80.5114 39.2058C80.703 39.2522 80.8781 39.301 81.0276 39.3512C80.5255 39.6407 80.2547 40.091 80.1443 40.5799C80.0268 41.1001 80.0887 41.6613 80.1984 42.1451C80.3099 42.6362 80.4812 43.0921 80.6218 43.4211C80.6489 43.4844 80.6749 43.5434 80.6995 43.5974L78.2981 45.5266L76.5799 42.2327L75.2296 39.4454ZM81.4252 39.5316C81.4252 39.5316 81.4246 39.5311 81.4236 39.5301C81.4248 39.531 81.4253 39.5315 81.4252 39.5316ZM81.4212 39.144C81.4221 39.1431 81.4225 39.1427 81.4226 39.1427C81.4226 39.1427 81.4222 39.1432 81.4212 39.144Z" fill="#9AB6DB" stroke="#9AB6DB"/>
<path d="M76.3874 48.9118C75.4089 48.7714 74.7525 47.8562 74.8992 46.8254C75.0396 45.8386 75.9525 45.1832 76.9738 45.3297C77.9523 45.4701 78.6087 46.3853 78.462 47.4161C78.3216 48.403 77.4087 49.0583 76.3874 48.9118Z" fill="#9AB6DB" stroke="#9AB6DB"/>
<mask id="path-38-inside-1_4437_16405" fill="white">
<path d="M77.4992 47.8523C77.4081 47.8523 77.317 47.7609 77.317 47.6695C77.317 47.6695 77.4081 47.0294 77.0439 46.5722C76.8618 46.2979 76.4975 46.2065 76.1333 46.2065C76.0422 46.2065 75.9512 46.115 75.9512 46.0236C75.9512 45.9321 76.0422 45.8407 76.1333 45.8407C76.6796 45.8407 77.0439 46.0236 77.317 46.2979C77.7723 46.8465 77.6813 47.6695 77.6813 47.6695C77.6813 47.8523 77.5902 47.8523 77.4992 47.8523Z"/>
</mask>
<path d="M77.4992 47.8523C77.4081 47.8523 77.317 47.7609 77.317 47.6695C77.317 47.6695 77.4081 47.0294 77.0439 46.5722C76.8618 46.2979 76.4975 46.2065 76.1333 46.2065C76.0422 46.2065 75.9512 46.115 75.9512 46.0236C75.9512 45.9321 76.0422 45.8407 76.1333 45.8407C76.6796 45.8407 77.0439 46.0236 77.317 46.2979C77.7723 46.8465 77.6813 47.6695 77.6813 47.6695C77.6813 47.8523 77.5902 47.8523 77.4992 47.8523Z" fill="#9AB6DB"/>
<path d="M77.317 47.6695L76.327 47.5286L76.317 47.5987V47.6695H77.317ZM77.0439 46.5722L76.2108 47.1253L76.2347 47.1614L76.2617 47.1953L77.0439 46.5722ZM77.317 46.2979L78.0866 45.6593L78.0576 45.6244L78.0256 45.5923L77.317 46.2979ZM77.6813 47.6695L76.6873 47.5595L76.6813 47.6143V47.6695H77.6813ZM77.4992 46.8523C77.7803 46.8523 77.9767 46.9833 78.0825 47.0895C78.1885 47.196 78.317 47.3914 78.317 47.6695H76.317C76.317 48.039 76.4911 48.3258 76.6654 48.5009C76.8395 48.6756 77.1269 48.8523 77.4992 48.8523V46.8523ZM77.317 47.6695C78.3071 47.8103 78.3071 47.81 78.3072 47.8097C78.3072 47.8096 78.3072 47.8092 78.3072 47.809C78.3073 47.8086 78.3074 47.8081 78.3074 47.8077C78.3076 47.8067 78.3077 47.8057 78.3078 47.8047C78.3081 47.8027 78.3084 47.8005 78.3087 47.7981C78.3094 47.7933 78.3101 47.7879 78.3108 47.7817C78.3123 47.7695 78.3139 47.7547 78.3156 47.7373C78.3189 47.7027 78.3224 47.6579 78.3247 47.6047C78.3291 47.4993 78.3291 47.3549 78.3116 47.188C78.2781 46.8689 78.172 46.3834 77.826 45.9491L76.2617 47.1953C76.28 47.2182 76.3104 47.2813 76.3225 47.3965C76.3278 47.4468 76.3277 47.491 76.3265 47.52C76.3259 47.5339 76.3251 47.5426 76.3249 47.5448C76.3248 47.5459 76.3248 47.5452 76.3251 47.5426C76.3253 47.5413 76.3255 47.5395 76.3258 47.5372C76.326 47.536 76.3262 47.5347 76.3264 47.5333C76.3265 47.5326 76.3266 47.5318 76.3267 47.531C76.3267 47.5307 76.3268 47.5303 76.3268 47.5299C76.3269 47.5297 76.3269 47.5293 76.3269 47.5292C76.327 47.5289 76.327 47.5286 77.317 47.6695ZM77.877 46.0191C77.4032 45.3055 76.5786 45.2065 76.1333 45.2065V47.2065C76.1834 47.2065 76.2257 47.2097 76.2594 47.2146C76.2935 47.2195 76.3126 47.2254 76.3193 47.2278C76.3258 47.2301 76.3137 47.2267 76.2915 47.2107C76.2677 47.1936 76.2374 47.1655 76.2108 47.1253L77.877 46.0191ZM76.1333 45.2065C76.4145 45.2065 76.6109 45.3374 76.7166 45.4436C76.8227 45.5501 76.9512 45.7455 76.9512 46.0236H74.9512C74.9512 46.3931 75.1252 46.6799 75.2995 46.855C75.4736 47.0297 75.7611 47.2065 76.1333 47.2065V45.2065ZM76.9512 46.0236C76.9512 46.3017 76.8227 46.497 76.7166 46.6035C76.6109 46.7097 76.4145 46.8407 76.1333 46.8407V44.8407C75.7611 44.8407 75.4736 45.0174 75.2995 45.1922C75.1252 45.3672 74.9512 45.6541 74.9512 46.0236H76.9512ZM76.1333 46.8407C76.2924 46.8407 76.388 46.8668 76.4455 46.8905C76.5019 46.9139 76.5531 46.9479 76.6085 47.0035L78.0256 45.5923C77.5631 45.1278 76.9432 44.8407 76.1333 44.8407V46.8407ZM76.5475 46.9365C76.6034 47.0038 76.655 47.1318 76.6775 47.313C76.6877 47.3942 76.6893 47.4662 76.6885 47.5157C76.6881 47.5399 76.6872 47.5571 76.6866 47.5653C76.6863 47.5694 76.6862 47.5711 76.6862 47.5703C76.6863 47.5698 76.6864 47.5687 76.6865 47.567C76.6866 47.5661 76.6867 47.565 76.6869 47.5638C76.6869 47.5631 76.687 47.5625 76.6871 47.5618C76.6871 47.5614 76.6872 47.561 76.6872 47.5607C76.6872 47.5605 76.6873 47.5602 76.6873 47.5601C76.6873 47.5598 76.6873 47.5595 77.6813 47.6695C78.6752 47.7794 78.6752 47.7791 78.6753 47.7788C78.6753 47.7787 78.6753 47.7784 78.6753 47.7782C78.6754 47.7778 78.6754 47.7773 78.6755 47.7769C78.6756 47.776 78.6757 47.775 78.6758 47.774C78.676 47.7719 78.6762 47.7697 78.6765 47.7672C78.677 47.7623 78.6775 47.7565 78.6781 47.7499C78.6793 47.7367 78.6807 47.7203 78.682 47.7008C78.6846 47.6619 78.6872 47.6104 78.6882 47.5489C78.6903 47.427 78.6863 47.259 78.6622 47.0659C78.6165 46.6984 78.486 46.1406 78.0866 45.6593L76.5475 46.9365ZM76.6813 47.6695C76.6813 47.6303 76.6906 47.2512 77.068 46.9985C77.2234 46.8945 77.3684 46.867 77.4333 46.8583C77.4899 46.8508 77.5359 46.8523 77.4992 46.8523V48.8523C77.5079 48.8523 77.5994 48.8539 77.6987 48.8406C77.8064 48.8262 77.9912 48.7873 78.1807 48.6605C78.6265 48.362 78.6813 47.8915 78.6813 47.6695H76.6813Z" fill="#9AB6DB" mask="url(#path-38-inside-1_4437_16405)"/>
<path d="M77.4943 52.1296C77.5319 52.1052 77.5722 52.0784 77.615 52.0494C77.8566 51.8857 78.1798 51.6472 78.4995 51.3508C79.106 50.7886 79.8461 49.8834 79.7265 48.8031L79.7245 48.7846L79.7211 48.7663L79.1756 45.8453L79.1432 45.6495C79.2759 45.6159 79.3815 45.5356 79.4507 45.4345C79.4282 46.0014 79.4676 46.6555 79.6459 47.3191C79.9045 48.2818 80.4561 49.2636 81.5188 50.0102C82.5035 50.7019 83.889 51.1651 85.8049 51.2628L85.8332 51.4619C85.9004 53.7417 84.111 55.684 81.8523 55.765L81.8502 55.765C79.8124 55.8469 77.9476 54.4574 77.5372 52.4312L77.4943 52.1296Z" fill="#9AB6DB" stroke="#9AB6DB"/>
<mask id="path-41-inside-2_4437_16405" fill="white">
<path d="M85.0567 45.2005C85.0567 45.2005 86.2405 45.1091 86.2405 45.6577C86.2405 45.6577 86.2405 46.0235 85.2389 46.1149C84.2372 46.2064 83.9641 46.1149 83.873 45.7492C83.7819 45.3834 84.5104 45.2005 85.0567 45.2005Z"/>
</mask>
<path d="M85.0567 45.2005C85.0567 45.2005 86.2405 45.1091 86.2405 45.6577C86.2405 45.6577 86.2405 46.0235 85.2389 46.1149C84.2372 46.2064 83.9641 46.1149 83.873 45.7492C83.7819 45.3834 84.5104 45.2005 85.0567 45.2005Z" fill="#9AB6DB"/>
<path d="M85.0567 45.2005V46.2005H85.0953L85.1338 46.1976L85.0567 45.2005ZM86.2405 45.6577H85.2405V45.6578L86.2405 45.6577ZM85.0567 45.2005C85.1338 46.1976 85.1335 46.1976 85.1333 46.1976C85.1333 46.1976 85.133 46.1976 85.1329 46.1976C85.1326 46.1977 85.1324 46.1977 85.1322 46.1977C85.1317 46.1977 85.1313 46.1978 85.131 46.1978C85.1303 46.1978 85.1299 46.1979 85.1297 46.1979C85.1294 46.1979 85.1301 46.1978 85.1317 46.1977C85.1349 46.1975 85.1418 46.1971 85.1517 46.1967C85.1717 46.1958 85.2031 46.1948 85.2417 46.1948C85.3235 46.1948 85.4163 46.1994 85.4959 46.2117C85.5347 46.2177 85.5591 46.2238 85.5707 46.2274C85.5844 46.2316 85.5659 46.2278 85.5298 46.2055C85.4931 46.1828 85.4174 46.1279 85.3501 46.024C85.2769 45.9108 85.2405 45.7805 85.2405 45.6577H87.2405C87.2405 45.0795 86.8966 44.699 86.5812 44.5042C86.3025 44.3319 85.9998 44.2658 85.8013 44.2351C85.585 44.2017 85.3819 44.1948 85.2417 44.1948C85.1693 44.1948 85.1082 44.1967 85.0635 44.1987C85.0411 44.1996 85.0225 44.2007 85.0084 44.2016C85.0013 44.202 84.9953 44.2024 84.9905 44.2027C84.9881 44.2029 84.986 44.203 84.9842 44.2032C84.9833 44.2032 84.9825 44.2033 84.9818 44.2034C84.9814 44.2034 84.981 44.2034 84.9807 44.2034C84.9805 44.2034 84.9803 44.2035 84.9802 44.2035C84.98 44.2035 84.9797 44.2035 85.0567 45.2005ZM86.2405 45.6577C85.2405 45.6578 85.2405 45.6564 85.2405 45.6551C85.2405 45.6546 85.2405 45.6533 85.2405 45.6524C85.2405 45.6506 85.2405 45.6488 85.2405 45.6471C85.2406 45.6435 85.2406 45.6399 85.2407 45.6363C85.2409 45.6292 85.2411 45.622 85.2414 45.6149C85.2421 45.6005 85.243 45.5861 85.2443 45.5717C85.2469 45.5429 85.2509 45.5139 85.2565 45.4849C85.2677 45.4266 85.285 45.3695 85.3089 45.315C85.3589 45.2009 85.4263 45.1239 85.4805 45.0794C85.5739 45.0026 85.5513 45.0822 85.148 45.1191L85.3298 47.1108C85.928 47.0562 86.4063 46.9072 86.7501 46.6247C86.9295 46.4773 87.0595 46.3032 87.1408 46.1176C87.1803 46.0274 87.2054 45.941 87.2206 45.8623C87.2281 45.8232 87.2331 45.7862 87.2362 45.752C87.2377 45.7349 87.2388 45.7184 87.2395 45.7027C87.2398 45.6948 87.2401 45.6872 87.2403 45.6797C87.2403 45.6759 87.2404 45.6722 87.2404 45.6685C87.2405 45.6667 87.2405 45.6649 87.2405 45.6631C87.2405 45.6622 87.2405 45.6608 87.2405 45.6604C87.2405 45.659 87.2405 45.6577 86.2405 45.6577ZM85.148 45.1191C84.9124 45.1406 84.7446 45.1488 84.6242 45.1478C84.4983 45.1468 84.4658 45.1354 84.4832 45.1403C84.5139 45.1489 84.6183 45.1863 84.7188 45.2952C84.8149 45.3994 84.8408 45.4971 84.8434 45.5076L82.9026 45.9908C82.9508 46.1841 83.0449 46.4305 83.2491 46.6517C83.4578 46.8778 83.7101 47.001 83.9458 47.0667C84.3506 47.1796 84.8434 47.1552 85.3298 47.1108L85.148 45.1191ZM84.8434 45.5076C84.8742 45.6313 84.8744 45.7736 84.8313 45.9138C84.7904 46.0473 84.7229 46.1388 84.6737 46.1916C84.5893 46.2819 84.5285 46.2926 84.5831 46.2717C84.6787 46.2351 84.8696 46.2005 85.0567 46.2005V44.2005C84.6975 44.2005 84.2511 44.2574 83.8685 44.4037C83.6842 44.4742 83.4242 44.5992 83.2118 44.8267C82.9641 45.092 82.7825 45.5084 82.9026 45.9908L84.8434 45.5076Z" fill="#9AB6DB" mask="url(#path-41-inside-2_4437_16405)"/>
<path d="M85.1758 48.1785C85.186 48.1771 85.1969 48.1758 85.2085 48.1747C85.206 48.1789 85.2034 48.1827 85.2006 48.1862C85.1987 48.1886 85.1969 48.1907 85.1952 48.1925C85.1902 48.1897 85.1856 48.1866 85.1815 48.1834C85.1794 48.1817 85.1775 48.1801 85.1758 48.1785Z" fill="#9AB6DB" stroke="#9AB6DB"/>
<path d="M81.1855 130.196V122.966H90.2019V124.752V125.252H90.7019C95.0962 125.252 96.8215 126.691 97.5131 127.963C97.8706 128.62 97.9812 129.282 98.0005 129.786C98.0064 129.941 98.0037 130.079 97.9971 130.196H81.1855Z" fill="#9AB6DB" stroke="#9AB6DB"/>
<path d="M81.1855 131.841V131.104H97.9418V131.841H81.1855Z" fill="#9AB6DB" stroke="#9AB6DB"/>
<path d="M58.0813 91.3414C58.1625 90.9501 58.2408 90.6339 58.2994 90.4139H83.3269C89.6678 90.4139 93.5122 97.099 90.6794 102.49H75.8602H68.0292H64.8422C60.5344 102.49 57.6083 98.9394 57.6932 94.4996C57.7377 93.2564 57.9148 92.1439 58.0813 91.3414Z" fill="#9AB6DB" stroke="#9AB6DB"/>
<path d="M80.4583 100.704V100.586L80.4059 100.481L75.3934 90.4139H84.147C88.3307 90.4139 91.66 93.7542 91.66 97.9605V121.966H80.4583V100.704Z" fill="#9AB6DB" stroke="#9AB6DB"/>
<path d="M79.5469 122.88V118.943H92.3876V122.88H79.5469Z" fill="#9AB6DB" stroke="#9AB6DB"/>
<path d="M70.5332 142.906V132.933H147.661V142.906H70.5332Z" fill="#9AB6DB" stroke="#9AB6DB"/>
<path d="M70.5332 145.74V143.906H147.661V145.74H70.5332Z" fill="#9AB6DB" stroke="#9AB6DB"/>
<path d="M179.044 127.741L179.06 127.751L179.077 127.759C179.588 128.016 180.38 128.035 180.931 127.482C181.074 127.339 181.223 127.287 181.351 127.287C181.478 127.287 181.627 127.339 181.77 127.482L188.235 133.974C188.378 134.118 188.431 134.269 188.431 134.399C188.431 134.523 188.383 134.666 188.255 134.803C187.687 135.26 187.603 136.08 187.975 136.708C189.043 138.585 189.844 140.551 190.379 142.605C190.524 143.29 191.182 143.814 191.868 143.814C192.227 143.814 192.46 144.046 192.46 144.411V153.555C192.46 153.792 192.259 154.08 191.825 154.153C191.153 154.174 190.519 154.692 190.378 155.365C189.843 157.511 189.043 159.473 187.978 161.254L187.968 161.27L187.96 161.288C187.706 161.798 187.686 162.591 188.235 163.143C188.378 163.287 188.431 163.438 188.431 163.568C188.431 163.698 188.378 163.848 188.235 163.992L181.77 170.484C181.627 170.628 181.478 170.68 181.351 170.68C181.229 170.68 181.088 170.633 180.951 170.504C180.496 169.933 179.676 169.848 179.049 170.223C177.179 171.295 175.222 172.099 173.178 172.636C172.492 172.782 171.972 173.444 171.972 174.129C171.972 174.495 171.739 174.726 171.38 174.726H162.274C161.915 174.726 161.681 174.495 161.681 174.129C161.681 173.443 161.161 172.781 160.473 172.636C158.337 172.098 156.384 171.295 154.61 170.226L154.594 170.216L154.576 170.207C154.066 169.951 153.273 169.932 152.723 170.484C152.58 170.628 152.431 170.68 152.303 170.68C152.176 170.68 152.027 170.628 151.883 170.484L145.418 163.992C145.275 163.848 145.223 163.698 145.223 163.568C145.223 163.444 145.271 163.301 145.399 163.163C145.967 162.707 146.051 161.887 145.678 161.259C144.61 159.381 143.81 157.416 143.275 155.362C143.13 154.676 142.472 154.153 141.786 154.153C141.427 154.153 141.193 153.921 141.193 153.555V144.411C141.193 144.046 141.427 143.814 141.786 143.814C142.473 143.814 143.132 143.289 143.275 142.602C143.811 140.456 144.611 138.494 145.675 136.713L145.685 136.696L145.694 136.679C145.948 136.168 145.968 135.375 145.418 134.823C145.275 134.68 145.223 134.529 145.223 134.399C145.223 134.269 145.275 134.118 145.418 133.974L151.883 127.482C152.027 127.339 152.176 127.287 152.303 127.287C152.425 127.287 152.566 127.334 152.703 127.463C153.158 128.033 153.977 128.119 154.605 127.744C156.475 126.671 158.431 125.867 160.476 125.33C161.162 125.184 161.681 124.523 161.681 123.838C161.681 123.472 161.915 123.24 162.274 123.24H171.38C171.739 123.24 171.972 123.472 171.972 123.838C171.972 124.524 172.493 125.186 173.18 125.331C175.317 125.868 177.27 126.672 179.044 127.741Z" fill="#9AB6DB" stroke="#9AB6DB"/>
<path d="M176.743 139.081C182.202 144.563 182.202 153.451 176.743 158.934C171.283 164.416 162.432 164.416 156.973 158.934C151.514 153.451 151.514 144.563 156.973 139.081C162.432 133.599 171.283 133.599 176.743 139.081Z" fill="#9AB6DB" stroke="#9AB6DB"/>
<path d="M175.888 148.983C175.888 154.012 171.829 158.084 166.827 158.084C161.824 158.084 157.766 154.012 157.766 148.983C157.766 143.955 161.824 139.882 166.827 139.882C171.829 139.882 175.888 143.955 175.888 148.983Z" fill="#9AB6DB" stroke="#9AB6DB"/>
<path d="M56.3369 94.1221C56.3546 94.1276 56.3741 94.1336 56.3929 94.1389C70.2983 100.798 77.3797 110.854 80.9904 119.246C82.7992 123.45 83.7371 127.238 84.2226 129.973C84.4653 131.34 84.5948 132.443 84.6636 133.201C84.6979 133.58 84.7171 133.874 84.7277 134.071C84.7286 134.089 84.7295 134.106 84.7303 134.122L79.0558 138.715L18.3699 113.558L11.0551 102.715C21.545 93.8648 32.8095 91.7184 41.4943 91.7856C45.885 91.8195 49.6139 92.4196 52.2438 93.0052C53.5584 93.2979 54.5977 93.5869 55.3073 93.7994C55.6621 93.9057 55.9349 93.993 56.1201 94.0527L56.1678 94.0681C56.2373 94.0905 56.2952 94.1092 56.3369 94.1221Z" fill="#9AB6DB" stroke="#9AB6DB"/>
<path d="M84.0103 137.005H84.0105L84.0101 136.991C83.2937 110.284 65.8151 99.7548 64.2023 98.7833C64.1592 98.7574 64.1275 98.7382 64.1076 98.7258L64.1077 98.7257L64.0995 98.7208C49.638 90.0261 35.9481 91.6256 25.8653 95.4239C15.9952 99.1421 9.55291 104.975 9.1434 105.363C8.59392 105.84 7.8277 105.805 7.39889 105.313C6.91649 104.759 6.94979 103.982 7.44302 103.548L7.45553 103.537L7.46728 103.525C7.4669 103.526 7.46762 103.525 7.4695 103.523C7.47706 103.516 7.50345 103.491 7.55385 103.446C7.61242 103.392 7.69696 103.317 7.80677 103.221C8.02636 103.028 8.34625 102.755 8.76061 102.418C9.58938 101.743 10.7952 100.812 12.3313 99.7589C15.4046 97.6523 19.7936 95.0621 25.1249 93.0566C35.7805 89.0483 50.1816 87.3788 65.4048 96.56L65.412 96.5643L65.4194 96.5685C66.1791 96.9923 85.816 108.007 86.6512 136.873C86.4842 137.696 85.9119 138.242 85.2404 138.242C84.5906 138.242 84.0103 137.719 84.0103 137.005Z" fill="#9AB6DB" stroke="#9AB6DB"/>
<path d="M71.0556 119.239L71.06 119.247L71.0648 119.254C72.6732 121.857 73.839 124.734 74.648 127.802C74.8903 128.769 75.7387 129.367 76.6804 129.367C77.2412 129.367 77.7284 129.8 77.7284 130.421V143.68C77.7284 144.204 77.2699 144.684 76.5881 144.56L76.5436 144.551H76.4983C75.5573 144.551 74.7095 145.148 74.4665 146.114C73.6596 149.083 72.4031 151.969 70.8726 154.681C70.3967 155.519 70.5245 156.495 71.2269 157.2L71.2404 157.213L71.255 157.226C71.6443 157.561 71.6863 158.227 71.2269 158.689L61.848 168.107L61.8344 168.121L61.8219 168.135C61.4893 168.525 60.8296 168.567 60.3712 168.107C59.6678 167.401 58.6926 167.272 57.8558 167.752L57.8479 167.756L57.8402 167.761C55.249 169.376 52.3836 170.547 49.3289 171.359C48.3633 171.603 47.7704 172.456 47.7704 173.397C47.7704 173.966 47.3359 174.452 46.7225 174.452H33.5191C32.9583 174.452 32.4711 174.019 32.4711 173.397C32.4711 172.456 31.879 171.604 30.9144 171.359C27.9585 170.549 25.085 169.288 22.3842 167.751C21.5478 167.272 20.5733 167.401 19.8704 168.107L19.8569 168.121L19.8444 168.135C19.5117 168.525 18.852 168.567 18.3936 168.107L9.01469 158.689L9.00113 158.675L8.98658 158.663C8.59727 158.328 8.55523 157.661 9.01469 157.2C9.71754 156.494 9.84499 155.518 9.36814 154.68L9.36365 154.672L9.35889 154.664C7.75038 152.062 6.58457 149.184 5.77557 146.116C5.53317 145.149 4.68489 144.551 3.74329 144.551C3.18248 144.551 2.69531 144.118 2.69531 143.497V130.238C2.69531 129.67 3.12983 129.184 3.74329 129.184C4.68426 129.184 5.53204 128.587 5.77508 127.622C6.58186 124.653 7.83824 121.767 9.36867 119.055C9.84489 118.217 9.71728 117.241 9.01469 116.536L9.00113 116.522L8.98658 116.509C8.59772 116.175 8.55533 115.51 9.01308 115.048C9.01362 115.048 9.01415 115.047 9.01469 115.047L18.4812 105.723L18.4966 105.708L18.5107 105.692C18.8433 105.302 19.5031 105.26 19.9615 105.72C20.6648 106.426 21.6401 106.555 22.4768 106.075L22.4847 106.071L22.4925 106.066C25.0836 104.451 27.949 103.28 31.0037 102.468C31.9694 102.224 32.5622 101.371 32.5622 100.429C32.5622 99.8612 32.9967 99.375 33.6102 99.375H46.9046C47.4654 99.375 47.9525 99.8083 47.9525 100.429C47.9525 101.37 48.5446 102.223 49.509 102.467C52.4647 103.277 55.3379 104.539 58.0384 106.075C58.8751 106.555 59.85 106.426 60.5533 105.72L60.5668 105.706L60.5793 105.692C60.9117 105.302 61.5709 105.26 62.0292 105.719C62.0295 105.719 62.0298 105.72 62.0301 105.72L71.4073 115.228L71.4216 115.242L71.4371 115.256C71.8264 115.591 71.8685 116.257 71.409 116.718C70.7062 117.424 70.5787 118.401 71.0556 119.239Z" fill="#9AB6DB" stroke="#9AB6DB"/>
<path d="M43.509 116.676C54.6994 118.513 62.2916 129.113 60.4619 140.355C58.6321 151.597 48.0744 159.217 36.884 157.381C25.6936 155.544 18.1014 144.944 19.9311 133.702C21.7609 122.46 32.3186 114.84 43.509 116.676Z" fill="#9AB6DB" stroke="#9AB6DB"/>
<path d="M49.6773 127.489C54.9231 132.757 54.9231 141.298 49.6773 146.565C44.4315 151.833 35.9264 151.833 30.6806 146.565C25.4348 141.298 25.4347 132.757 30.6806 127.489C35.9264 122.221 44.4315 122.221 49.6773 127.489Z" fill="#9AB6DB" stroke="#9AB6DB"/>
</g>
<g clip-path="url(#clip0_4437_16405)">
<path d="M115 90H112.5V85C112.5 78.1 106.9 72.5 100 72.5C93.1 72.5 87.5 78.1 87.5 85V90H85C82.25 90 80 92.25 80 95V120C80 122.75 82.25 125 85 125H115C117.75 125 120 122.75 120 120V95C120 92.25 117.75 90 115 90ZM100 112.5C97.25 112.5 95 110.25 95 107.5C95 104.75 97.25 102.5 100 102.5C102.75 102.5 105 104.75 105 107.5C105 110.25 102.75 112.5 100 112.5ZM107.75 90H92.25V85C92.25 80.725 95.725 77.25 100 77.25C104.275 77.25 107.75 80.725 107.75 85V90Z" fill="#3D3D3D"/>
</g>
<defs>
<clipPath id="clip0_4437_16405">
<rect width="60" height="60" fill="white" transform="translate(70 70)"/>
</clipPath>
</defs>
</svg>
